G04 Layer_Color=32896*
%FSTAX24Y24*%
%MOIN*%
G70*
G01*
G75*
%ADD50C,0.0118*%
G36*
X037789Y038583D02*
X037637D01*
Y038774D01*
X037602Y038817D01*
X037427Y038583D01*
X03724D01*
X037481Y038898D01*
X037252Y039171D01*
X037428D01*
X037637Y038905D01*
Y039171D01*
X037789D01*
Y038583D01*
D02*
G37*
G36*
X051262Y028766D02*
X051182D01*
Y028546D01*
Y028539D01*
X051183Y028533D01*
Y028527D01*
X051183Y028522D01*
X051184Y028518D01*
Y028515D01*
X051185Y028513D01*
Y028512D01*
X051186Y028503D01*
X051188Y028498D01*
X051189Y028495D01*
X051191Y028491D01*
X051192Y02849D01*
X051193Y028488D01*
X051193Y028488D01*
X051196Y028484D01*
X051199Y028481D01*
X051206Y028477D01*
X051209Y028475D01*
X051212Y028474D01*
X051213Y028472D01*
X051214D01*
X05122Y028471D01*
X051226Y028469D01*
X051232Y028469D01*
X051237Y028468D01*
X051243Y028468D01*
X051251D01*
X051263Y028468D01*
X051268Y028469D01*
X051272Y028469D01*
X051277Y02847D01*
X05128Y028471D01*
X051282Y028471D01*
X051282D01*
X051292Y028474D01*
X051296Y028475D01*
X0513Y028476D01*
X051303Y028477D01*
X051306Y028478D01*
X051307Y028479D01*
X05131D01*
Y028431D01*
X051304Y028431D01*
X051299Y028429D01*
X051293Y028429D01*
X051288Y028428D01*
X051284Y028428D01*
X051279D01*
X051277Y028427D01*
X051276D01*
X051269Y028426D01*
X051263Y028426D01*
X051257Y028425D01*
X051253D01*
X051249Y028424D01*
X051244D01*
X051235Y028425D01*
X051226Y028426D01*
X05121Y028429D01*
X051196Y028433D01*
X051185Y028438D01*
X05118Y02844D01*
X051175Y028442D01*
X051172Y028445D01*
X051169Y028447D01*
X051166Y028448D01*
X051164Y02845D01*
X051164Y028451D01*
X051163D01*
X051157Y028456D01*
X051153Y028462D01*
X051149Y028468D01*
X051145Y028474D01*
X05114Y028487D01*
X051136Y0285D01*
X051134Y02851D01*
X051133Y028515D01*
Y028519D01*
X051132Y028522D01*
Y028525D01*
Y028527D01*
Y028527D01*
Y028806D01*
X051262D01*
Y028766D01*
D02*
G37*
G36*
X038134Y039182D02*
X038157Y039179D01*
X038178Y039177D01*
X038196Y039173D01*
X038212Y039168D01*
X038217Y039166D01*
X038223Y039165D01*
X038227Y039163D01*
X03823Y039162D01*
X038232Y039161D01*
X038233D01*
X038253Y039153D01*
X038271Y039143D01*
X038288Y039132D01*
X038301Y039123D01*
X038313Y039114D01*
X03832Y039107D01*
X038325Y039103D01*
X038327Y039101D01*
X038341Y039085D01*
X038354Y039068D01*
X038364Y039052D01*
X038373Y039036D01*
X03838Y039023D01*
X038385Y039012D01*
X038387Y039008D01*
X038388Y039006D01*
X038389Y039004D01*
Y039003D01*
X038395Y038981D01*
X0384Y038959D01*
X038404Y038937D01*
X038406Y038918D01*
X038408Y038901D01*
Y038894D01*
X038409Y038887D01*
Y038883D01*
Y038879D01*
Y038877D01*
Y038876D01*
X038408Y038849D01*
X038406Y038824D01*
X038402Y038801D01*
X038398Y038782D01*
X038396Y038773D01*
X038394Y038765D01*
X038392Y038759D01*
X03839Y038754D01*
X038389Y038749D01*
X038389Y038746D01*
X038388Y038744D01*
Y038743D01*
X038379Y038723D01*
X038368Y038704D01*
X038358Y038687D01*
X038348Y038674D01*
X038339Y038662D01*
X038332Y038654D01*
X038327Y038649D01*
X038325Y038647D01*
X03831Y038634D01*
X038293Y038622D01*
X038278Y038612D01*
X038263Y038604D01*
X038249Y038597D01*
X03824Y038593D01*
X038236Y038591D01*
X038233Y03859D01*
X038231Y038589D01*
X03823D01*
X038209Y038583D01*
X038188Y038578D01*
X038167Y038575D01*
X038148Y038573D01*
X038133Y038571D01*
X038126D01*
X038119Y03857D01*
X038093D01*
X038079Y038571D01*
X038068Y038572D01*
X038058Y038573D01*
X03805D01*
X038044Y038574D01*
X038041Y038575D01*
X03804D01*
X03802Y038579D01*
X038011Y038581D01*
X038002Y038583D01*
X037995Y038585D01*
X03799Y038586D01*
X037986Y038587D01*
X037985D01*
X03797Y038591D01*
X037962Y038594D01*
X037956Y038597D01*
X037951Y038599D01*
X037946Y038601D01*
X037945Y038602D01*
X037944D01*
X037928Y038609D01*
X037915Y038614D01*
X037909Y038616D01*
X037904Y038618D01*
X037901Y03862D01*
X0379D01*
Y038761D01*
X037917D01*
X037925Y038754D01*
X037935Y038746D01*
X037939Y038743D01*
X037942Y03874D01*
X037944Y038739D01*
X037945Y038738D01*
X037957Y03873D01*
X037969Y038722D01*
X037973Y038719D01*
X037977Y038716D01*
X037979Y038715D01*
X03798Y038714D01*
X037997Y038705D01*
X038006Y038701D01*
X038014Y038697D01*
X03802Y038695D01*
X038025Y038693D01*
X038029Y038691D01*
X03803D01*
X03805Y038686D01*
X038059Y038686D01*
X038068Y038685D01*
X038074Y038684D01*
X038085D01*
X038106Y038685D01*
X038116Y038686D01*
X038125Y038688D01*
X038133Y038689D01*
X038139Y038691D01*
X038142Y038692D01*
X038143D01*
X038154Y038696D01*
X038164Y038701D01*
X038173Y038707D01*
X038181Y038711D01*
X038187Y038716D01*
X038192Y03872D01*
X038195Y038723D01*
X038196Y038724D01*
X038205Y038733D01*
X038213Y038742D01*
X038219Y038752D01*
X038225Y038761D01*
X03823Y03877D01*
X038233Y038777D01*
X038235Y038781D01*
X038236Y038783D01*
X038241Y038797D01*
X038244Y038812D01*
X038247Y038829D01*
X038249Y038843D01*
X03825Y038856D01*
X038251Y038866D01*
Y03887D01*
Y038873D01*
Y038874D01*
Y038875D01*
X03825Y038894D01*
X038249Y038912D01*
X038246Y038928D01*
X038243Y038941D01*
X038241Y038952D01*
X038239Y038959D01*
X038238Y038964D01*
X038237Y038966D01*
X038231Y03898D01*
X038225Y038991D01*
X038218Y039002D01*
X038213Y03901D01*
X038207Y039017D01*
X038203Y039022D01*
X0382Y039025D01*
X038199Y039026D01*
X03819Y039033D01*
X038181Y039041D01*
X038172Y039047D01*
X038164Y039052D01*
X038157Y039055D01*
X038151Y039057D01*
X038147Y039059D01*
X038146D01*
X038136Y039063D01*
X038124Y039065D01*
X038115Y039067D01*
X038105Y039069D01*
X038096D01*
X038091Y03907D01*
X038085D01*
X038065Y039069D01*
X038055Y039067D01*
X038047Y039066D01*
X038041Y039064D01*
X038035Y039062D01*
X038032Y039061D01*
X038031D01*
X038013Y039055D01*
X038005Y039051D01*
X037998Y039047D01*
X037993Y039044D01*
X037988Y039041D01*
X037985Y03904D01*
X037984Y039039D01*
X03797Y03903D01*
X037963Y039026D01*
X037957Y039022D01*
X037953Y039018D01*
X037949Y039015D01*
X037947Y039014D01*
X037946Y039013D01*
X037935Y039005D01*
X037926Y038998D01*
X03792Y038994D01*
X037919Y038992D01*
X0379D01*
Y039134D01*
X037913Y03914D01*
X037925Y039146D01*
X037931Y039148D01*
X037935Y03915D01*
X037938Y039151D01*
X037939D01*
X037955Y039157D01*
X037963Y03916D01*
X03797Y039163D01*
X037977Y039165D01*
X037982Y039167D01*
X037986Y039168D01*
X037987D01*
X038006Y039173D01*
X038015Y039175D01*
X038023Y039176D01*
X038031Y039177D01*
X038037Y039178D01*
X038041Y039179D01*
X038042D01*
X038065Y039181D01*
X038076Y039182D01*
X038087D01*
X038095Y039183D01*
X038109D01*
X038134Y039182D01*
D02*
G37*
G36*
X036723Y038583D02*
X036584D01*
Y038986D01*
X036335Y038583D01*
X036188D01*
Y039171D01*
X036327D01*
Y038833D01*
X036542Y039171D01*
X036723D01*
Y038583D01*
D02*
G37*
G36*
X039526Y03833D02*
X039528Y038323D01*
X03953Y038317D01*
X039532Y038312D01*
X039534Y038308D01*
X039535Y038307D01*
X039536Y038306D01*
X03954Y0383D01*
X039544Y038295D01*
X039555Y038287D01*
X039559Y038284D01*
X039563Y038283D01*
X039566Y038281D01*
X039567D01*
X039581Y038275D01*
X039594Y038272D01*
X0396Y03827D01*
X039605D01*
X039609Y038269D01*
X03961D01*
X039629Y038267D01*
X039639D01*
X039646Y038266D01*
X039664D01*
Y03817D01*
X03954D01*
Y037859D01*
X039664D01*
Y037756D01*
X039272D01*
Y037859D01*
X039393D01*
Y038346D01*
X039523D01*
X039526Y03833D01*
D02*
G37*
G36*
X040162Y037756D02*
X039993D01*
X039778Y038344D01*
X039934D01*
X040076Y037932D01*
X040217Y038344D01*
X040377D01*
X040162Y037756D01*
D02*
G37*
G36*
X050951Y028813D02*
X050961Y028812D01*
X05097Y028811D01*
X050977Y028809D01*
X050983Y028808D01*
X050987Y028808D01*
X050988Y028807D01*
X050988D01*
X050999Y028804D01*
X051008Y028801D01*
X051016Y028798D01*
X051023Y028796D01*
X051028Y028793D01*
X051033Y028792D01*
X051035Y028791D01*
X051036Y02879D01*
Y028737D01*
X051033D01*
X051024Y028744D01*
X051015Y028749D01*
X051006Y028753D01*
X050998Y028756D01*
X050991Y028758D01*
X050986Y028761D01*
X050983Y028761D01*
X050982Y028762D01*
X050972Y028765D01*
X050963Y028767D01*
X050954Y028769D01*
X050947Y028769D01*
X05094Y02877D01*
X050935Y028771D01*
X050932D01*
X050919Y02877D01*
X050908Y028768D01*
X050899Y028765D01*
X050892Y028763D01*
X050886Y02876D01*
X050881Y028757D01*
X050878Y028755D01*
X050878Y028754D01*
X050871Y028747D01*
X050866Y02874D01*
X050863Y028732D01*
X05086Y028725D01*
X050859Y028718D01*
X050858Y028713D01*
Y028709D01*
Y028709D01*
Y028708D01*
X050859Y028696D01*
X050861Y028685D01*
X050864Y028675D01*
X050867Y028666D01*
X05087Y028659D01*
X050873Y028653D01*
X050876Y02865D01*
X050876Y028649D01*
Y028648D01*
X05088Y028643D01*
X050884Y028637D01*
X050894Y028625D01*
X050905Y028613D01*
X050916Y028601D01*
X050926Y02859D01*
X050931Y028586D01*
X050935Y028582D01*
X050938Y028578D01*
X050941Y028576D01*
X050942Y028575D01*
X050943Y028574D01*
X05096Y028557D01*
X050969Y028549D01*
X050976Y028543D01*
X050982Y028537D01*
X050988Y028532D01*
X050991Y02853D01*
X050991Y028528D01*
X050992D01*
X051002Y02852D01*
X051012Y028512D01*
X05102Y028504D01*
X051028Y028497D01*
X051035Y028491D01*
X051041Y028487D01*
X051044Y028484D01*
X051044Y028483D01*
X051045D01*
Y02843D01*
X050791D01*
Y028474D01*
X050993D01*
X050974Y02849D01*
X050965Y028497D01*
X050957Y028504D01*
X05095Y028511D01*
X050945Y028515D01*
X050941Y028518D01*
X05094Y028519D01*
X050929Y028528D01*
X050919Y028538D01*
X05091Y028547D01*
X050901Y028554D01*
X050894Y028561D01*
X050889Y028567D01*
X050885Y02857D01*
X050884Y028571D01*
X050877Y028578D01*
X050871Y028584D01*
X050865Y028589D01*
X05086Y028594D01*
X050857Y028599D01*
X050854Y028602D01*
X050852Y028603D01*
X050852Y028604D01*
X050843Y028616D01*
X050838Y028621D01*
X050835Y028626D01*
X050832Y028629D01*
X05083Y028633D01*
X050829Y028635D01*
X050828Y028635D01*
X050822Y028648D01*
X050819Y028654D01*
X050817Y028659D01*
X050815Y028664D01*
X050814Y028667D01*
X050812Y02867D01*
Y02867D01*
X050809Y028685D01*
X050808Y028691D01*
X050808Y028698D01*
X050807Y028702D01*
Y028707D01*
Y028709D01*
Y02871D01*
X050808Y028719D01*
X050808Y028728D01*
X050812Y028742D01*
X050817Y028755D01*
X050824Y028766D01*
X05083Y028775D01*
X050835Y028781D01*
X050837Y028783D01*
X050839Y028785D01*
X05084Y028786D01*
X05084D01*
X050846Y028791D01*
X050854Y028795D01*
X050868Y028803D01*
X050883Y028808D01*
X050897Y028811D01*
X050904Y028812D01*
X05091Y028813D01*
X050916Y028814D01*
X050921D01*
X050925Y028814D01*
X050941D01*
X050951Y028813D01*
D02*
G37*
G36*
X039121Y037756D02*
X038973D01*
Y037912D01*
X039121D01*
Y037756D01*
D02*
G37*
G36*
X039068Y038583D02*
X038915D01*
X038873Y038703D01*
X038659D01*
X038617Y038583D01*
X038459D01*
X038677Y039171D01*
X038851D01*
X039068Y038583D01*
D02*
G37*
G36*
X039636D02*
X039484D01*
Y038798D01*
X039415D01*
X039254Y038583D01*
X039069D01*
X039266Y038833D01*
X039246Y038844D01*
X039228Y038856D01*
X039214Y038867D01*
X039202Y038878D01*
X039192Y038887D01*
X039185Y038895D01*
X03918Y0389D01*
X039179Y038902D01*
X039169Y038918D01*
X039161Y038936D01*
X039156Y038954D01*
X039152Y038971D01*
X039151Y038985D01*
X03915Y038992D01*
X039149Y038998D01*
Y039002D01*
Y039006D01*
Y039007D01*
Y039008D01*
X03915Y039026D01*
X039152Y039041D01*
X039155Y039055D01*
X039158Y039066D01*
X039162Y039075D01*
X039166Y039081D01*
X039168Y039086D01*
X039169Y039087D01*
X039177Y039099D01*
X039185Y039108D01*
X039194Y039118D01*
X039202Y039125D01*
X03921Y039131D01*
X039216Y039135D01*
X03922Y039138D01*
X039222Y039139D01*
X039234Y039146D01*
X039247Y039152D01*
X039258Y039155D01*
X039269Y039159D01*
X039278Y039161D01*
X039285Y039163D01*
X03929Y039164D01*
X039292D01*
X039306Y039166D01*
X039322Y039168D01*
X039337Y039169D01*
X03935Y03917D01*
X039363Y039171D01*
X039636D01*
Y038583D01*
D02*
G37*
G36*
X040826Y03918D02*
X040846Y039179D01*
X040865Y039177D01*
X040882Y039173D01*
X0409Y039169D01*
X040915Y039165D01*
X040929Y03916D01*
X040942Y039155D01*
X040954Y03915D01*
X040964Y039145D01*
X040973Y039141D01*
X04098Y039137D01*
X040986Y039133D01*
X04099Y03913D01*
X040993Y039129D01*
X040994Y039129D01*
X041006Y039119D01*
X041018Y039108D01*
X041027Y039097D01*
X041036Y039086D01*
X041043Y039075D01*
X041049Y039063D01*
X041053Y039053D01*
X041057Y039042D01*
X041063Y039024D01*
X041065Y039015D01*
X041066Y039008D01*
Y039003D01*
X041067Y038999D01*
Y038996D01*
Y038995D01*
X041066Y038973D01*
X041062Y038953D01*
X041057Y038935D01*
X04105Y038921D01*
X041045Y038908D01*
X04104Y0389D01*
X041036Y038894D01*
X041035Y038893D01*
Y038892D01*
X041028Y038884D01*
X041021Y038878D01*
X041004Y038864D01*
X040987Y038854D01*
X040969Y038844D01*
X040952Y038836D01*
X040946Y038833D01*
X04094Y038832D01*
X040934Y03883D01*
X04093Y038828D01*
X040928Y038827D01*
X040927D01*
X040903Y03882D01*
X040892Y038817D01*
X040881Y038814D01*
X040873Y038812D01*
X040865Y03881D01*
X040861Y038809D01*
X040859D01*
X040846Y038807D01*
X040832Y038805D01*
X04082Y038802D01*
X040809Y0388D01*
X040801Y038798D01*
X040794Y038796D01*
X04079Y038795D01*
X040788D01*
X040778Y038792D01*
X040768Y038788D01*
X040759Y038784D01*
X040753Y038782D01*
X040748Y038778D01*
X040744Y038776D01*
X040742Y038774D01*
X040741Y038773D01*
X040735Y038768D01*
X040731Y038762D01*
X040728Y038757D01*
X040726Y038752D01*
X040725Y038747D01*
X040724Y038743D01*
Y038741D01*
Y03874D01*
Y038733D01*
X040726Y038727D01*
X040728Y038721D01*
X040729Y038716D01*
X040731Y038713D01*
X040733Y03871D01*
X040734Y03871D01*
X040735Y038709D01*
X040745Y038701D01*
X040754Y038695D01*
X040758Y038693D01*
X040761Y038691D01*
X040763Y03869D01*
X040764D01*
X040776Y038686D01*
X040788Y038685D01*
X040794Y038684D01*
X040798Y038683D01*
X040802D01*
X040816Y038682D01*
X040823D01*
X040828Y038681D01*
X040837D01*
X040857Y038682D01*
X040877Y038684D01*
X040897Y038686D01*
X040913Y03869D01*
X040928Y038694D01*
X040934Y038695D01*
X04094Y038697D01*
X040944Y038698D01*
X040947Y038699D01*
X040949Y0387D01*
X04095D01*
X040971Y038709D01*
X04099Y038717D01*
X041008Y038728D01*
X041024Y038736D01*
X041036Y038745D01*
X041046Y038752D01*
X04105Y038755D01*
X041052Y038757D01*
X041053Y038759D01*
X041071D01*
Y038617D01*
X041035Y038604D01*
X041018Y038598D01*
X041002Y038593D01*
X040989Y038589D01*
X040978Y038587D01*
X040975Y038586D01*
X040972D01*
X040971Y038585D01*
X04097D01*
X040949Y038581D01*
X040926Y038578D01*
X040905Y038575D01*
X040885Y038574D01*
X040868Y038573D01*
X04086Y038572D01*
X040842D01*
X040819Y038573D01*
X040797Y038574D01*
X040777Y038577D01*
X040757Y038581D01*
X04074Y038585D01*
X040724Y038589D01*
X040708Y038594D01*
X040695Y038599D01*
X040682Y038604D01*
X040672Y038609D01*
X040663Y038613D01*
X040655Y038617D01*
X04065Y038621D01*
X040646Y038624D01*
X040643Y038625D01*
X040642Y038626D01*
X040629Y038636D01*
X040618Y038648D01*
X040607Y03866D01*
X040599Y038671D01*
X040592Y038683D01*
X040586Y038695D01*
X040581Y038706D01*
X040578Y038717D01*
X040574Y038728D01*
X040572Y038737D01*
X04057Y038745D01*
X040569Y038753D01*
X040568Y038759D01*
Y038763D01*
Y038766D01*
Y038767D01*
X040569Y038789D01*
X040573Y038809D01*
X040579Y038825D01*
X040584Y038839D01*
X04059Y03885D01*
X040596Y038858D01*
X0406Y038863D01*
X040601Y038865D01*
X040614Y038879D01*
X04063Y038891D01*
X040646Y038902D01*
X040662Y03891D01*
X040678Y038917D01*
X040683Y038919D01*
X040689Y038922D01*
X040694Y038924D01*
X040698Y038925D01*
X0407Y038926D01*
X040701D01*
X040713Y03893D01*
X040725Y038933D01*
X040735Y038936D01*
X040745Y038939D01*
X040753Y038941D01*
X040759Y038942D01*
X040763Y038943D01*
X040764D01*
X040786Y038948D01*
X040797Y038951D01*
X040806Y038953D01*
X040815Y038954D01*
X040821Y038956D01*
X040825Y038957D01*
X040827D01*
X040844Y03896D01*
X040858Y038964D01*
X04087Y038968D01*
X040878Y038972D01*
X040886Y038975D01*
X04089Y038978D01*
X040893Y038979D01*
X040894Y03898D01*
X0409Y038984D01*
X040903Y03899D01*
X040907Y038996D01*
X040909Y039002D01*
X04091Y039007D01*
X040911Y039011D01*
Y039014D01*
Y039015D01*
X04091Y039021D01*
X040909Y039026D01*
X040905Y039034D01*
X040902Y03904D01*
X040901Y039041D01*
Y039042D01*
X040892Y03905D01*
X040882Y039055D01*
X040879Y039057D01*
X040877Y039059D01*
X040875Y03906D01*
X040874D01*
X040861Y039065D01*
X04085Y039068D01*
X040845Y039069D01*
X040841D01*
X040839Y03907D01*
X040838D01*
X040824Y039072D01*
X040812Y039073D01*
X040801D01*
X04078Y039072D01*
X040761Y03907D01*
X040744Y039067D01*
X040728Y039063D01*
X040714Y039059D01*
X040704Y039056D01*
X0407Y039055D01*
X040697Y039055D01*
X040696Y039054D01*
X040695D01*
X040677Y039046D01*
X040659Y039038D01*
X040644Y03903D01*
X040631Y039023D01*
X040622Y039016D01*
X040614Y039011D01*
X040609Y039007D01*
X040607Y039006D01*
X040591D01*
Y039141D01*
X040607Y039147D01*
X040625Y039153D01*
X040641Y039157D01*
X040656Y039162D01*
X04067Y039165D01*
X04068Y039168D01*
X040684Y039169D01*
X040687D01*
X040689Y03917D01*
X04069D01*
X040711Y039174D01*
X040731Y039177D01*
X040752Y039179D01*
X040769Y03918D01*
X040783D01*
X040789Y039181D01*
X040804D01*
X040826Y03918D01*
D02*
G37*
G36*
X037191Y039066D02*
X037095D01*
Y038687D01*
X037191D01*
Y038583D01*
X036847D01*
Y038687D01*
X036943D01*
Y039066D01*
X036847D01*
Y039171D01*
X037191D01*
Y039066D01*
D02*
G37*
G36*
X035776Y039182D02*
X035802Y039179D01*
X035826Y039176D01*
X03585Y03917D01*
X035872Y039164D01*
X035891Y039156D01*
X035909Y039149D01*
X035924Y039141D01*
X035939Y039133D01*
X035951Y039126D01*
X035962Y039118D01*
X035972Y039112D01*
X035978Y039106D01*
X035983Y039103D01*
X035986Y0391D01*
X035987Y039099D01*
X036002Y039082D01*
X036015Y039065D01*
X036026Y039047D01*
X036036Y039029D01*
X036045Y03901D01*
X036051Y038992D01*
X036057Y038974D01*
X036062Y038957D01*
X036066Y03894D01*
X036068Y038926D01*
X03607Y038912D01*
X036072Y038901D01*
Y038891D01*
X036072Y038883D01*
Y03888D01*
Y038878D01*
X036072Y038852D01*
X036069Y038827D01*
X036065Y038804D01*
X036059Y038782D01*
X036053Y038761D01*
X036046Y038743D01*
X036038Y038726D01*
X03603Y03871D01*
X036023Y038697D01*
X036015Y038686D01*
X036007Y038675D01*
X036001Y038667D01*
X035996Y038661D01*
X035992Y038656D01*
X035989Y038653D01*
X035988Y038652D01*
X035972Y038637D01*
X035953Y038625D01*
X035934Y038614D01*
X035915Y038605D01*
X035896Y038597D01*
X035875Y03859D01*
X035856Y038585D01*
X035838Y038581D01*
X035821Y038577D01*
X035804Y038575D01*
X03579Y038573D01*
X035777Y038571D01*
X035767D01*
X035759Y03857D01*
X035752D01*
X035728Y038571D01*
X035705Y038572D01*
X035683Y038575D01*
X035663Y038578D01*
X035647Y03858D01*
X03564Y038582D01*
X035634Y038583D01*
X035629Y038584D01*
X035626D01*
X035624Y038585D01*
X035623D01*
X0356Y03859D01*
X035579Y038596D01*
X03556Y038601D01*
X035545Y038606D01*
X035533Y03861D01*
X035525Y038612D01*
X035519Y038614D01*
X035517Y038615D01*
Y038907D01*
X035789D01*
Y038796D01*
X035671D01*
Y03868D01*
X035678Y038679D01*
X03571D01*
X035728Y03868D01*
X035746Y038681D01*
X035762Y038684D01*
X035777Y038686D01*
X03579Y03869D01*
X035802Y038695D01*
X035814Y0387D01*
X035825Y038705D01*
X035833Y038709D01*
X035841Y038713D01*
X035848Y038718D01*
X035853Y038722D01*
X035857Y038725D01*
X03586Y038728D01*
X035862Y038729D01*
X035863Y03873D01*
X035872Y03874D01*
X03588Y038751D01*
X035887Y038762D01*
X035893Y038775D01*
X035902Y0388D01*
X035908Y038824D01*
X03591Y038834D01*
X035912Y038845D01*
X035913Y038855D01*
X035914Y038862D01*
X035915Y038869D01*
Y038875D01*
Y038878D01*
Y038879D01*
X035914Y038896D01*
X035913Y038912D01*
X03591Y038927D01*
X035907Y038939D01*
X035905Y038949D01*
X035902Y038957D01*
X035901Y038961D01*
X0359Y038963D01*
X035895Y038977D01*
X035888Y038988D01*
X035881Y038998D01*
X035875Y039006D01*
X03587Y039013D01*
X035865Y039019D01*
X035862Y039022D01*
X035861Y039023D01*
X035851Y039031D01*
X035841Y039039D01*
X035831Y039045D01*
X035822Y039051D01*
X035814Y039055D01*
X035808Y039057D01*
X035803Y039058D01*
X035802Y039059D01*
X03579Y039063D01*
X035777Y039067D01*
X035765Y039069D01*
X035753Y03907D01*
X035744Y039071D01*
X035736Y039072D01*
X035717D01*
X035704Y03907D01*
X035694Y039069D01*
X035683Y039067D01*
X035676Y039065D01*
X03567Y039064D01*
X035665Y039062D01*
X035664D01*
X035653Y039059D01*
X035643Y039055D01*
X035633Y039052D01*
X035626Y039049D01*
X035619Y039046D01*
X035614Y039043D01*
X035611Y039042D01*
X03561Y039041D01*
X035595Y039032D01*
X035582Y039024D01*
X035577Y039021D01*
X035573Y039018D01*
X03557Y039016D01*
X035569Y039015D01*
X035555Y039006D01*
X03555Y039002D01*
X035545Y038999D01*
X035541Y038996D01*
X035538Y038995D01*
X035537Y038993D01*
X035519D01*
Y03913D01*
X035543Y039141D01*
X035565Y039151D01*
X035585Y039157D01*
X035603Y039163D01*
X035617Y039168D01*
X035623Y039169D01*
X035628Y039171D01*
X035631Y039172D01*
X035634D01*
X035636Y039173D01*
X035637D01*
X035656Y039177D01*
X035677Y039179D01*
X035695Y03918D01*
X035712Y039182D01*
X035727D01*
X035732Y039183D01*
X035748D01*
X035776Y039182D01*
D02*
G37*
G36*
X042026D02*
X042053Y039179D01*
X042077Y039176D01*
X0421Y03917D01*
X042122Y039164D01*
X042141Y039156D01*
X042159Y039149D01*
X042175Y039141D01*
X042189Y039133D01*
X042202Y039126D01*
X042212Y039118D01*
X042222Y039112D01*
X042229Y039106D01*
X042233Y039103D01*
X042236Y0391D01*
X042237Y039099D01*
X042253Y039082D01*
X042265Y039065D01*
X042277Y039047D01*
X042286Y039029D01*
X042295Y03901D01*
X042302Y038992D01*
X042307Y038974D01*
X042312Y038957D01*
X042316Y03894D01*
X042318Y038926D01*
X04232Y038912D01*
X042322Y038901D01*
Y038891D01*
X042323Y038883D01*
Y03888D01*
Y038878D01*
X042322Y038852D01*
X042319Y038827D01*
X042315Y038804D01*
X042309Y038782D01*
X042304Y038761D01*
X042296Y038743D01*
X042288Y038726D01*
X042281Y03871D01*
X042273Y038697D01*
X042265Y038686D01*
X042257Y038675D01*
X042252Y038667D01*
X042246Y038661D01*
X042242Y038656D01*
X042239Y038653D01*
X042238Y038652D01*
X042222Y038637D01*
X042204Y038625D01*
X042184Y038614D01*
X042165Y038605D01*
X042146Y038597D01*
X042126Y03859D01*
X042107Y038585D01*
X042088Y038581D01*
X042071Y038577D01*
X042055Y038575D01*
X04204Y038573D01*
X042028Y038571D01*
X042017D01*
X04201Y03857D01*
X042003D01*
X041979Y038571D01*
X041956Y038572D01*
X041934Y038575D01*
X041913Y038578D01*
X041897Y03858D01*
X04189Y038582D01*
X041885Y038583D01*
X04188Y038584D01*
X041876D01*
X041874Y038585D01*
X041873D01*
X04185Y03859D01*
X041829Y038596D01*
X041811Y038601D01*
X041795Y038606D01*
X041784Y03861D01*
X041775Y038612D01*
X041769Y038614D01*
X041767Y038615D01*
Y038907D01*
X042039D01*
Y038796D01*
X041921D01*
Y03868D01*
X041928Y038679D01*
X041961D01*
X041979Y03868D01*
X041996Y038681D01*
X042012Y038684D01*
X042027Y038686D01*
X04204Y03869D01*
X042053Y038695D01*
X042064Y0387D01*
X042075Y038705D01*
X042084Y038709D01*
X042091Y038713D01*
X042098Y038718D01*
X042104Y038722D01*
X042108Y038725D01*
X04211Y038728D01*
X042112Y038729D01*
X042113Y03873D01*
X042122Y03874D01*
X042131Y038751D01*
X042137Y038762D01*
X042143Y038775D01*
X042153Y0388D01*
X042158Y038824D01*
X04216Y038834D01*
X042162Y038845D01*
X042163Y038855D01*
X042164Y038862D01*
X042165Y038869D01*
Y038875D01*
Y038878D01*
Y038879D01*
X042164Y038896D01*
X042163Y038912D01*
X04216Y038927D01*
X042158Y038939D01*
X042156Y038949D01*
X042153Y038957D01*
X042152Y038961D01*
X042151Y038963D01*
X042145Y038977D01*
X042138Y038988D01*
X042132Y038998D01*
X042126Y039006D01*
X04212Y039013D01*
X042115Y039019D01*
X042112Y039022D01*
X042111Y039023D01*
X042102Y039031D01*
X042091Y039039D01*
X042082Y039045D01*
X042072Y039051D01*
X042064Y039055D01*
X042059Y039057D01*
X042054Y039058D01*
X042053Y039059D01*
X04204Y039063D01*
X042028Y039067D01*
X042015Y039069D01*
X042004Y03907D01*
X041994Y039071D01*
X041986Y039072D01*
X041967D01*
X041955Y03907D01*
X041944Y039069D01*
X041934Y039067D01*
X041926Y039065D01*
X04192Y039064D01*
X041915Y039062D01*
X041914D01*
X041903Y039059D01*
X041893Y039055D01*
X041884Y039052D01*
X041876Y039049D01*
X041869Y039046D01*
X041864Y039043D01*
X041862Y039042D01*
X041861Y039041D01*
X041845Y039032D01*
X041833Y039024D01*
X041827Y039021D01*
X041823Y039018D01*
X04182Y039016D01*
X041819Y039015D01*
X041805Y039006D01*
X0418Y039002D01*
X041795Y038999D01*
X041791Y038996D01*
X041789Y038995D01*
X041788Y038993D01*
X041769D01*
Y03913D01*
X041793Y039141D01*
X041815Y039151D01*
X041836Y039157D01*
X041853Y039163D01*
X041867Y039168D01*
X041873Y039169D01*
X041878Y039171D01*
X041882Y039172D01*
X041885D01*
X041887Y039173D01*
X041887D01*
X041907Y039177D01*
X041927Y039179D01*
X041945Y03918D01*
X041962Y039182D01*
X041977D01*
X041983Y039183D01*
X041998D01*
X042026Y039182D01*
D02*
G37*
G36*
X040246Y039057D02*
X040063D01*
Y038583D01*
X039911D01*
Y039057D01*
X039727D01*
Y039171D01*
X040246D01*
Y039057D01*
D02*
G37*
G36*
X041632Y038583D02*
X04148D01*
Y038774D01*
X041386D01*
X041363Y038775D01*
X041342Y038777D01*
X041323Y03878D01*
X041308Y038783D01*
X041296Y038785D01*
X041286Y038788D01*
X04128Y03879D01*
X041278Y038791D01*
X041263Y038799D01*
X041247Y038808D01*
X041235Y038816D01*
X041223Y038825D01*
X041214Y038833D01*
X041206Y038838D01*
X041202Y038842D01*
X0412Y038844D01*
X041191Y038854D01*
X041183Y038864D01*
X041176Y038875D01*
X041171Y038884D01*
X041167Y038893D01*
X041164Y038901D01*
X041162Y038905D01*
X041161Y038907D01*
X041156Y038921D01*
X041152Y038935D01*
X04115Y038948D01*
X041148Y03896D01*
X041148Y03897D01*
X041147Y038978D01*
Y038982D01*
Y038984D01*
X041148Y039003D01*
X041149Y03902D01*
X041152Y039034D01*
X041156Y039047D01*
X04116Y039057D01*
X041163Y039065D01*
X041165Y03907D01*
X041166Y039072D01*
X041173Y039085D01*
X041182Y039097D01*
X041192Y039106D01*
X0412Y039115D01*
X041208Y039122D01*
X041215Y039128D01*
X041219Y03913D01*
X041221Y039131D01*
X041244Y039144D01*
X041254Y039149D01*
X041265Y039154D01*
X041274Y039156D01*
X041281Y039158D01*
X041286Y03916D01*
X041288D01*
X041303Y039164D01*
X041319Y039166D01*
X041335Y039168D01*
X041349Y03917D01*
X041363D01*
X041373Y039171D01*
X041632D01*
Y038583D01*
D02*
G37*
G36*
X038648Y038356D02*
X038669Y038355D01*
X038688Y038353D01*
X038705Y038351D01*
X038719Y038348D01*
X038726Y038347D01*
X038731Y038346D01*
X038734Y038345D01*
X038737D01*
X038739Y038344D01*
X03874D01*
X03876Y038339D01*
X038778Y038334D01*
X038792Y038331D01*
X038805Y038327D01*
X038814Y038324D01*
X038822Y038321D01*
X038826Y03832D01*
X038828Y038319D01*
Y038192D01*
X038813D01*
X038798Y038201D01*
X038783Y038208D01*
X038769Y038213D01*
X038756Y038219D01*
X038745Y038223D01*
X038737Y038226D01*
X038731Y038227D01*
X03873Y038228D01*
X038713Y038233D01*
X038698Y038235D01*
X038684Y038238D01*
X038672Y038239D01*
X038662Y03824D01*
X038655Y038241D01*
X038636D01*
X038625Y03824D01*
X03862Y038239D01*
X038616D01*
X038613Y038238D01*
X038612D01*
X038598Y038236D01*
X038591Y038234D01*
X038586Y038233D01*
X038582Y038232D01*
X038579Y03823D01*
X038577Y038229D01*
X038576D01*
X038566Y038224D01*
X038559Y038218D01*
X038555Y038213D01*
X038553Y038212D01*
Y038211D01*
X038547Y038203D01*
X038544Y038193D01*
X038543Y038189D01*
Y038186D01*
Y038185D01*
Y038184D01*
Y038175D01*
X038545Y038168D01*
X038546Y038161D01*
X038548Y038157D01*
X03855Y038152D01*
X038551Y038149D01*
X038553Y038148D01*
Y038147D01*
X03856Y038138D01*
X038569Y038133D01*
X038573Y03813D01*
X038576Y038128D01*
X038578Y038127D01*
X038579D01*
X038592Y038123D01*
X038605Y03812D01*
X03861Y038119D01*
X038615Y038118D01*
X038619D01*
X038637Y038117D01*
X038647D01*
X038656Y038116D01*
X038707D01*
Y038012D01*
X038641D01*
X038634Y038011D01*
X038625D01*
X038615Y03801D01*
X038606D01*
X038598Y038008D01*
X038591Y038007D01*
X038585Y038006D01*
X038582Y038005D01*
X038579Y038004D01*
X038578D01*
X038564Y037998D01*
X038555Y03799D01*
X038551Y037988D01*
X038548Y037985D01*
X038547Y037984D01*
X038546Y037983D01*
X038542Y037977D01*
X038538Y037971D01*
X038535Y037958D01*
X038534Y037952D01*
X038534Y037947D01*
Y037944D01*
Y037943D01*
Y037934D01*
X038535Y037926D01*
X038536Y037918D01*
X038538Y037913D01*
X03854Y037908D01*
X038541Y037905D01*
X038543Y037903D01*
Y037902D01*
X038551Y037892D01*
X038558Y037886D01*
X038563Y037881D01*
X038565Y037879D01*
X038566D01*
X038581Y03787D01*
X038596Y037865D01*
X038602Y037864D01*
X038607Y037863D01*
X03861Y037862D01*
X038611D01*
X038631Y03786D01*
X038639D01*
X038646Y037859D01*
X038661D01*
X038677Y03786D01*
X038691Y037861D01*
X038707Y037864D01*
X03872Y037866D01*
X038731Y037868D01*
X038741Y037871D01*
X038747Y037872D01*
X038748Y037873D01*
X038749D01*
X038766Y037879D01*
X038781Y037886D01*
X038795Y037891D01*
X038806Y037897D01*
X038816Y037902D01*
X038824Y037906D01*
X038828Y037909D01*
X03883Y03791D01*
X038845D01*
Y03778D01*
X038831Y037775D01*
X038818Y03777D01*
X038804Y037766D01*
X03879Y037762D01*
X038779Y037759D01*
X038769Y037757D01*
X038765Y037756D01*
X038762D01*
X038761Y037755D01*
X03876D01*
X03874Y037751D01*
X038718Y037748D01*
X038697Y037746D01*
X038678Y037745D01*
X03866Y037744D01*
X038653Y037743D01*
X038634D01*
X038611Y037744D01*
X03859Y037745D01*
X038572Y037747D01*
X038557Y03775D01*
X038543Y037752D01*
X038534Y037754D01*
X038531Y037755D01*
X038528D01*
X038527Y037756D01*
X038526D01*
X03851Y037762D01*
X038494Y037767D01*
X038482Y037774D01*
X03847Y03778D01*
X03846Y037786D01*
X038454Y037791D01*
X03845Y037793D01*
X038448Y037794D01*
X038436Y037805D01*
X038426Y037815D01*
X038417Y037825D01*
X038411Y037835D01*
X038405Y037843D01*
X038401Y03785D01*
X038399Y037854D01*
X038398Y037856D01*
X038392Y037869D01*
X038388Y037884D01*
X038385Y037896D01*
X038383Y037909D01*
X038382Y037918D01*
X038381Y037927D01*
Y037932D01*
Y037934D01*
Y037947D01*
X038383Y037959D01*
X038385Y037968D01*
X038386Y037977D01*
X038388Y037984D01*
X03839Y037988D01*
X038391Y037991D01*
X038392Y037992D01*
X038402Y038008D01*
X038407Y038014D01*
X038411Y03802D01*
X038416Y038025D01*
X03842Y038029D01*
X038422Y038031D01*
X038423Y038032D01*
X038437Y038042D01*
X038451Y038049D01*
X038457Y038052D01*
X038461Y038054D01*
X038464Y038055D01*
X038465D01*
X038482Y038061D01*
X038488Y038062D01*
X038495Y038063D01*
X0385Y038065D01*
X038504D01*
X038507Y038066D01*
X038508D01*
Y038072D01*
X038489Y038077D01*
X038474Y038085D01*
X03846Y038092D01*
X038448Y038101D01*
X038439Y038109D01*
X038433Y038115D01*
X038428Y038119D01*
X038427Y038121D01*
X038416Y038135D01*
X038409Y038151D01*
X038404Y038165D01*
X0384Y03818D01*
X038398Y038191D01*
X038396Y0382D01*
Y038204D01*
Y038207D01*
Y038208D01*
Y038209D01*
X038397Y038222D01*
X038399Y038234D01*
X038401Y038245D01*
X038404Y038255D01*
X038408Y038262D01*
X03841Y038268D01*
X038411Y038272D01*
X038412Y038273D01*
X038419Y038283D01*
X038427Y038292D01*
X038435Y038301D01*
X038442Y038308D01*
X038449Y038313D01*
X038455Y038317D01*
X038459Y03832D01*
X03846Y038321D01*
X038471Y038327D01*
X038483Y038332D01*
X038494Y038335D01*
X038505Y038339D01*
X038515Y038342D01*
X038523Y038344D01*
X038528Y038346D01*
X03853D01*
X038546Y03835D01*
X038562Y038352D01*
X038579Y038354D01*
X038594Y038356D01*
X038607D01*
X038617Y038357D01*
X038627D01*
X038648Y038356D01*
D02*
G37*
G36*
X041986Y019668D02*
X041992Y019652D01*
X041996Y019639D01*
X042Y019626D01*
X042003Y019616D01*
X042006Y019608D01*
X042006Y019605D01*
Y019603D01*
X042007Y019602D01*
Y019601D01*
X04201Y019586D01*
X042012Y01957D01*
X042014Y019554D01*
X042015Y01954D01*
X042016Y019528D01*
X042016Y019523D01*
Y019518D01*
Y019514D01*
Y019512D01*
Y01951D01*
Y01951D01*
X042016Y019493D01*
X042015Y019477D01*
X042013Y019463D01*
X042011Y019451D01*
X042009Y019442D01*
X042007Y019435D01*
X042006Y019431D01*
X042006Y019429D01*
X042001Y019417D01*
X041996Y019405D01*
X04199Y019395D01*
X041986Y019387D01*
X041981Y01938D01*
X041977Y019374D01*
X041975Y019371D01*
X041974Y01937D01*
X041966Y019361D01*
X041959Y019354D01*
X041951Y019348D01*
X041944Y019343D01*
X041938Y019339D01*
X041933Y019336D01*
X04193Y019335D01*
X041929Y019334D01*
X041919Y019329D01*
X041909Y019326D01*
X0419Y019324D01*
X041891Y019322D01*
X041884Y019321D01*
X041879Y019321D01*
X041874D01*
X041857Y019321D01*
X04184Y019325D01*
X041827Y019329D01*
X041816Y019334D01*
X041807Y019339D01*
X041801Y019343D01*
X041797Y019346D01*
X041796Y019348D01*
X041786Y019358D01*
X041777Y019371D01*
X04177Y019384D01*
X041764Y019397D01*
X04176Y019408D01*
X041758Y019414D01*
X041756Y019418D01*
X041755Y019421D01*
X041754Y019424D01*
X041754Y019426D01*
Y019427D01*
X041751Y019437D01*
X041749Y019447D01*
X041747Y019457D01*
X041744Y019467D01*
X041743Y019477D01*
X041741Y019483D01*
X041741Y019488D01*
Y019489D01*
Y01949D01*
X041738Y019503D01*
X041736Y019514D01*
X041734Y019523D01*
X041733Y019532D01*
X041731Y019538D01*
X041731Y019543D01*
X04173Y019546D01*
Y019546D01*
X041726Y01956D01*
X041722Y019571D01*
X041718Y01958D01*
X041714Y019588D01*
X04171Y019593D01*
X041707Y019597D01*
X041705Y019599D01*
X041705Y0196D01*
X041698Y019605D01*
X04169Y019609D01*
X041682Y019611D01*
X041675Y019613D01*
X041668Y019614D01*
X041663Y019615D01*
X041658D01*
X041647Y019613D01*
X041636Y01961D01*
X041627Y019606D01*
X041619Y019599D01*
X041613Y019594D01*
X041609Y019589D01*
X041605Y019586D01*
X041605Y019585D01*
X041598Y019573D01*
X041592Y01956D01*
X041589Y019546D01*
X041585Y019533D01*
X041584Y019522D01*
X041583Y019513D01*
Y019509D01*
Y019507D01*
Y019505D01*
Y019504D01*
X041584Y019487D01*
X041585Y019471D01*
X041588Y019456D01*
X041591Y019443D01*
X041594Y019431D01*
X041595Y019427D01*
X041596Y019423D01*
X041597Y01942D01*
X041598Y019417D01*
X041599Y019416D01*
Y019415D01*
X041605Y0194D01*
X041611Y019386D01*
X041617Y019374D01*
X041623Y019364D01*
X041628Y019355D01*
X041632Y019349D01*
X041635Y019346D01*
X041636Y019344D01*
Y01934D01*
X041562D01*
X041558Y019352D01*
X041553Y019365D01*
X041549Y019378D01*
X041546Y019389D01*
X041543Y019399D01*
X041541Y019407D01*
X04154Y01941D01*
Y019412D01*
X041539Y019413D01*
Y019414D01*
X041536Y01943D01*
X041533Y019445D01*
X041532Y01946D01*
X041531Y019474D01*
X04153Y019487D01*
X041529Y019491D01*
Y019496D01*
Y0195D01*
Y019502D01*
Y019503D01*
Y019504D01*
X04153Y019518D01*
X041531Y019532D01*
X041536Y019556D01*
X041539Y019568D01*
X041542Y019578D01*
X041545Y019588D01*
X041549Y019596D01*
X041552Y019604D01*
X041556Y019611D01*
X041559Y019617D01*
X041562Y019622D01*
X041564Y019626D01*
X041566Y019629D01*
X041567Y01963D01*
X041568Y019631D01*
X041575Y019639D01*
X041582Y019647D01*
X041591Y019654D01*
X041599Y019659D01*
X041607Y019664D01*
X041615Y019668D01*
X04163Y019674D01*
X041644Y019678D01*
X04165Y019679D01*
X041655Y019679D01*
X041659Y01968D01*
X041665D01*
X041683Y019679D01*
X041699Y019676D01*
X041713Y019671D01*
X041725Y019665D01*
X041734Y019659D01*
X041741Y019655D01*
X041746Y019652D01*
X041748Y01965D01*
X041759Y019638D01*
X041768Y019623D01*
X041776Y019608D01*
X041782Y019593D01*
X041787Y019579D01*
X041789Y019573D01*
X041791Y019568D01*
X041791Y019564D01*
X041792Y019561D01*
X041793Y019559D01*
Y019558D01*
X041795Y019546D01*
X041797Y019536D01*
X041799Y019526D01*
X041801Y019517D01*
X041802Y01951D01*
X041803Y019504D01*
X041804Y019501D01*
Y0195D01*
X041805Y01949D01*
X041807Y01948D01*
X041808Y019471D01*
X04181Y019464D01*
X041811Y019457D01*
X041813Y019452D01*
X041814Y019449D01*
Y019448D01*
X041817Y019437D01*
X04182Y019427D01*
X041825Y01942D01*
X041829Y019413D01*
X041832Y019407D01*
X041835Y019404D01*
X041837Y019402D01*
X041837Y019401D01*
X041844Y019396D01*
X04185Y019392D01*
X041858Y01939D01*
X041866Y019388D01*
X041872Y019387D01*
X041877Y019386D01*
X04189D01*
X041896Y019388D01*
X041907Y019391D01*
X041917Y019397D01*
X041926Y019402D01*
X041933Y019408D01*
X041937Y019414D01*
X04194Y019417D01*
X041941Y019418D01*
Y019419D01*
X041948Y019432D01*
X041953Y019447D01*
X041957Y019461D01*
X041959Y019476D01*
X041961Y019489D01*
X041962Y019494D01*
X041963Y0195D01*
Y019503D01*
Y019507D01*
Y019508D01*
Y019509D01*
X041962Y019524D01*
X04196Y01954D01*
X041957Y019555D01*
X041954Y019569D01*
X041952Y01958D01*
X04195Y019585D01*
X041949Y019589D01*
X041948Y019593D01*
X041947Y019595D01*
X041946Y019596D01*
Y019597D01*
X04194Y019614D01*
X041933Y019629D01*
X041925Y019643D01*
X041917Y019656D01*
X04191Y019666D01*
X041905Y019673D01*
X041903Y019676D01*
X041902Y019678D01*
X0419Y019679D01*
Y019679D01*
Y019683D01*
X041979D01*
X041986Y019668D01*
D02*
G37*
G36*
X04057Y020422D02*
X040984D01*
Y02036D01*
X04057D01*
Y020192D01*
X040514D01*
Y020591D01*
X04057D01*
Y020422D01*
D02*
G37*
G36*
X042819Y020669D02*
X042839Y020666D01*
X042858Y020664D01*
X042874Y02066D01*
X042881Y020659D01*
X042887Y020657D01*
X042892Y020655D01*
X042896Y020655D01*
X0429Y020653D01*
X042902Y020652D01*
X042904Y020652D01*
X042905D01*
X042921Y020645D01*
X042936Y020636D01*
X042949Y020628D01*
X04296Y02062D01*
X042969Y020612D01*
X042975Y020607D01*
X042979Y020603D01*
X042981Y020602D01*
X042992Y020589D01*
X043001Y020576D01*
X043009Y020563D01*
X043015Y020551D01*
X043021Y02054D01*
X043024Y020532D01*
X043025Y020529D01*
X043026Y020526D01*
X043027Y020525D01*
Y020524D01*
X043032Y020506D01*
X043035Y020489D01*
X043038Y020472D01*
X04304Y020456D01*
X043041Y020443D01*
Y020437D01*
X043041Y020432D01*
Y020428D01*
Y020425D01*
Y020424D01*
Y020423D01*
X043041Y020407D01*
X043039Y020391D01*
X043038Y020377D01*
X043035Y020363D01*
X043032Y020352D01*
X043032Y020347D01*
X043031Y020343D01*
X04303Y02034D01*
X043029Y020338D01*
X043028Y020336D01*
Y020335D01*
X043023Y020318D01*
X043018Y020302D01*
X043013Y020288D01*
X043008Y020275D01*
X043004Y020265D01*
X043001Y020257D01*
X042999Y020254D01*
X042998Y020252D01*
X042998Y020251D01*
Y02025D01*
X042796D01*
Y020438D01*
X042851D01*
Y020312D01*
X042967D01*
X042973Y020331D01*
X042976Y020339D01*
X042978Y020347D01*
X04298Y020355D01*
X042982Y020361D01*
X042982Y020364D01*
Y020366D01*
X042985Y020388D01*
X042986Y020398D01*
X042987Y020407D01*
X042988Y020415D01*
Y02042D01*
Y020424D01*
Y020426D01*
X042987Y020441D01*
X042985Y020455D01*
X042983Y020469D01*
X04298Y020481D01*
X042976Y020493D01*
X042972Y020503D01*
X042967Y020513D01*
X042962Y020522D01*
X042958Y02053D01*
X042953Y020537D01*
X042949Y020543D01*
X042945Y020548D01*
X042942Y020552D01*
X042939Y020554D01*
X042938Y020556D01*
X042937Y020556D01*
X042927Y020565D01*
X042916Y020572D01*
X042905Y020579D01*
X042893Y020584D01*
X042882Y020589D01*
X042869Y020592D01*
X042847Y020598D01*
X042836Y0206D01*
X042826Y020602D01*
X042818Y020602D01*
X04281Y020603D01*
X042803Y020604D01*
X042795D01*
X04278Y020603D01*
X042764Y020602D01*
X04275Y0206D01*
X042737Y020597D01*
X042725Y020593D01*
X042714Y020589D01*
X042704Y020586D01*
X042694Y020581D01*
X042686Y020577D01*
X042679Y020573D01*
X042673Y020569D01*
X042667Y020566D01*
X042664Y020563D01*
X042661Y020561D01*
X042659Y020559D01*
X042658Y020559D01*
X042649Y020549D01*
X042641Y02054D01*
X042634Y02053D01*
X042628Y02052D01*
X042624Y02051D01*
X042619Y020499D01*
X042613Y020479D01*
X042611Y02047D01*
X04261Y020461D01*
X042608Y020453D01*
X042608Y020447D01*
X042607Y020441D01*
Y020437D01*
Y020434D01*
Y020434D01*
Y02042D01*
X042608Y020409D01*
X042609Y020398D01*
X04261Y020389D01*
X042611Y020381D01*
X042613Y020375D01*
X042614Y020372D01*
Y020371D01*
X042616Y020361D01*
X042619Y020351D01*
X042621Y020343D01*
X042624Y020335D01*
X042626Y02033D01*
X042628Y020325D01*
X042629Y020322D01*
X04263Y020321D01*
X042637Y020308D01*
X04264Y020301D01*
X042644Y020296D01*
X042646Y020291D01*
X042648Y020288D01*
X04265Y020285D01*
X042651Y020285D01*
X042655Y020278D01*
X042659Y020272D01*
X042662Y020268D01*
X042664Y020263D01*
X042667Y02026D01*
X042668Y020258D01*
X04267Y020257D01*
Y020256D01*
Y02025D01*
X042596D01*
X042588Y020268D01*
X042581Y020285D01*
X042575Y0203D01*
X042571Y020314D01*
X042568Y020324D01*
X042566Y020329D01*
X042565Y020333D01*
X042564Y020336D01*
Y020338D01*
X042563Y02034D01*
Y020341D01*
X04256Y020356D01*
X042557Y020371D01*
X042555Y020385D01*
X042555Y020397D01*
X042554Y020408D01*
X042553Y020416D01*
Y020419D01*
Y020421D01*
Y020422D01*
Y020423D01*
X042554Y020443D01*
X042556Y020463D01*
X042559Y020482D01*
X042563Y0205D01*
X042568Y020516D01*
X042574Y020531D01*
X04258Y020544D01*
X042586Y020556D01*
X042592Y020567D01*
X042598Y020577D01*
X042604Y020585D01*
X042609Y020592D01*
X042613Y020597D01*
X042616Y020601D01*
X042618Y020603D01*
X042619Y020604D01*
X042632Y020616D01*
X042645Y020626D01*
X04266Y020634D01*
X042674Y020642D01*
X042689Y020648D01*
X042704Y020653D01*
X042718Y020658D01*
X042732Y020661D01*
X042745Y020664D01*
X042757Y020665D01*
X042769Y020667D01*
X042778Y020669D01*
X042786D01*
X042792Y020669D01*
X042796D01*
X042819Y020669D01*
D02*
G37*
G36*
X042008Y020149D02*
X041603D01*
X041878Y02002D01*
Y019982D01*
X041603Y019851D01*
X042008D01*
Y019788D01*
X041538D01*
Y019875D01*
X0418Y019997D01*
X041538Y020122D01*
Y020208D01*
X042008D01*
Y020149D01*
D02*
G37*
G36*
X040772Y020155D02*
X040793Y020154D01*
X040811Y02015D01*
X040827Y020147D01*
X040834Y020146D01*
X04084Y020144D01*
X040845Y020143D01*
X040849Y020141D01*
X040853Y020141D01*
X040855Y02014D01*
X040857Y020139D01*
X040858D01*
X040874Y020132D01*
X040889Y020124D01*
X040902Y020117D01*
X040913Y020109D01*
X040921Y020102D01*
X040928Y020097D01*
X040932Y020094D01*
X040934Y020092D01*
X040944Y02008D01*
X040954Y020068D01*
X040961Y020055D01*
X040967Y020044D01*
X040973Y020034D01*
X040976Y020026D01*
X040977Y020023D01*
X040978Y020021D01*
X040979Y02002D01*
Y020019D01*
X040983Y020003D01*
X040987Y019987D01*
X04099Y019972D01*
X040991Y019957D01*
X040992Y019945D01*
Y019939D01*
X040993Y019935D01*
Y019931D01*
Y019929D01*
Y019927D01*
Y019926D01*
Y019916D01*
X040992Y019907D01*
X040991Y019899D01*
X04099Y019891D01*
X04099Y019885D01*
X040989Y01988D01*
X040988Y019877D01*
Y019876D01*
X040985Y01986D01*
X040983Y019852D01*
X040982Y019846D01*
X04098Y019841D01*
X04098Y019837D01*
X040979Y019835D01*
Y019834D01*
X040976Y019826D01*
X040974Y019819D01*
X040971Y019813D01*
X040969Y019808D01*
X040967Y019803D01*
X040966Y0198D01*
X040965Y019799D01*
Y019798D01*
X04096Y019786D01*
X040955Y019776D01*
X040954Y019772D01*
X040952Y019769D01*
X04095Y019766D01*
Y019766D01*
X040877D01*
Y01977D01*
X040887Y019783D01*
X040897Y019796D01*
X040905Y019809D01*
X040912Y01982D01*
X040917Y01983D01*
X040921Y019838D01*
X040922Y019841D01*
X040923Y019843D01*
X040924Y019844D01*
Y019845D01*
X040929Y019859D01*
X040933Y019875D01*
X040935Y019889D01*
X040937Y019902D01*
X040938Y019913D01*
X040939Y019922D01*
Y019925D01*
Y019927D01*
Y019929D01*
Y019929D01*
X040938Y019942D01*
X040937Y019952D01*
X040936Y019963D01*
X040934Y019972D01*
X040931Y01998D01*
X04093Y019986D01*
X040929Y01999D01*
X040928Y019992D01*
X040924Y020002D01*
X040918Y020011D01*
X040912Y020021D01*
X040907Y020028D01*
X040901Y020035D01*
X040897Y020039D01*
X040894Y020042D01*
X040894Y020043D01*
X040884Y020051D01*
X040875Y020058D01*
X040865Y020064D01*
X040857Y020068D01*
X040848Y020072D01*
X040842Y020075D01*
X040838Y020077D01*
X040836Y020078D01*
X040822Y020082D01*
X040808Y020085D01*
X040793Y020088D01*
X04078Y020089D01*
X040768Y02009D01*
X040763D01*
X040759Y020091D01*
X040751D01*
X040733Y02009D01*
X040718Y020089D01*
X040703Y020087D01*
X040691Y020084D01*
X040681Y020083D01*
X040673Y020081D01*
X040671Y02008D01*
X040669D01*
X040668Y020079D01*
X040667D01*
X040654Y020074D01*
X040642Y020068D01*
X040633Y020063D01*
X040623Y020057D01*
X040616Y020052D01*
X040612Y020048D01*
X040608Y020045D01*
X040607Y020045D01*
X040599Y020036D01*
X040591Y020027D01*
X040585Y020018D01*
X04058Y020011D01*
X040576Y020004D01*
X040573Y019998D01*
X040572Y019995D01*
X040571Y019994D01*
X040567Y019983D01*
X040564Y019972D01*
X040563Y019961D01*
X040561Y019951D01*
X04056Y019942D01*
X04056Y019935D01*
Y019931D01*
Y01993D01*
Y019929D01*
X04056Y019913D01*
X040562Y019899D01*
X040564Y019885D01*
X040567Y019872D01*
X04057Y019862D01*
X040573Y019855D01*
X040573Y019852D01*
X040574Y019849D01*
X040575Y019849D01*
Y019848D01*
X040581Y019833D01*
X040588Y019819D01*
X040596Y019806D01*
X040603Y019795D01*
X04061Y019785D01*
X040616Y019778D01*
X040618Y019775D01*
X040619Y019773D01*
X040621Y019772D01*
Y019771D01*
Y019766D01*
X040547D01*
X04054Y019783D01*
X040533Y019799D01*
X040527Y019813D01*
X040523Y019826D01*
X040519Y019836D01*
X040517Y019843D01*
X040516Y019846D01*
Y019849D01*
X040515Y019849D01*
Y01985D01*
X040512Y019864D01*
X04051Y019878D01*
X040508Y019891D01*
X040507Y019902D01*
Y019912D01*
X040506Y019919D01*
Y019922D01*
Y019924D01*
Y019925D01*
Y019925D01*
X040507Y019945D01*
X040508Y019962D01*
X040511Y019978D01*
X040513Y019992D01*
X040517Y020004D01*
X040518Y020008D01*
X04052Y020012D01*
X04052Y020015D01*
X040521Y020018D01*
X040522Y020019D01*
Y02002D01*
X040529Y020035D01*
X040536Y020049D01*
X040543Y020061D01*
X040551Y020072D01*
X040558Y020081D01*
X040563Y020087D01*
X040567Y020091D01*
X040569Y020092D01*
X040581Y020103D01*
X040594Y020113D01*
X040607Y020121D01*
X040619Y020127D01*
X04063Y020133D01*
X040639Y020137D01*
X040642Y020138D01*
X040644Y020139D01*
X040646Y02014D01*
X040646D01*
X040664Y020145D01*
X040682Y020149D01*
X040699Y020152D01*
X040715Y020154D01*
X040729Y020155D01*
X040735D01*
X04074Y020156D01*
X04075D01*
X040772Y020155D01*
D02*
G37*
G36*
X040984Y019614D02*
X040825D01*
X040775Y019567D01*
X040984Y019381D01*
Y0193D01*
X040735Y01952D01*
X040514Y01931D01*
Y019386D01*
X040759Y019614D01*
X040514D01*
Y019676D01*
X040984D01*
Y019614D01*
D02*
G37*
G36*
X041593Y020501D02*
X042008D01*
Y020439D01*
X041593D01*
Y020271D01*
X041538D01*
Y020669D01*
X041593D01*
Y020501D01*
D02*
G37*
G36*
X052165Y016732D02*
X016732Y016732D01*
X016732Y016732D01*
Y017323D01*
X052165D01*
Y016732D01*
D02*
G37*
G36*
X043961Y020503D02*
X043965Y020492D01*
X043968Y020482D01*
X043971Y020472D01*
X043973Y020463D01*
X043976Y020457D01*
X043976Y020452D01*
X043977Y020451D01*
Y02045D01*
X04398Y020436D01*
X043983Y020422D01*
X043984Y020409D01*
X043985Y020397D01*
X043986Y020387D01*
X043986Y02038D01*
Y020377D01*
Y020374D01*
Y020374D01*
Y020373D01*
X043986Y020359D01*
X043985Y020346D01*
X043983Y020334D01*
X043981Y020324D01*
X043979Y020315D01*
X043978Y020308D01*
X043977Y020304D01*
X043976Y020303D01*
X043972Y020291D01*
X043966Y020281D01*
X043961Y020271D01*
X043956Y020263D01*
X043951Y020256D01*
X043947Y020251D01*
X043944Y020248D01*
X043943Y020247D01*
X043936Y020239D01*
X043927Y020233D01*
X04392Y020228D01*
X043913Y020223D01*
X043906Y020219D01*
X043901Y020217D01*
X043898Y020215D01*
X043896Y020215D01*
X043887Y020211D01*
X043876Y020208D01*
X043866Y020205D01*
X043857Y020204D01*
X043849Y020203D01*
X043843Y020202D01*
X043837D01*
X043826Y020203D01*
X043816Y020204D01*
X043807Y020205D01*
X043799Y020207D01*
X043793Y020209D01*
X043789Y020211D01*
X043786Y020212D01*
X043785Y020212D01*
X043777Y020216D01*
X043771Y020221D01*
X043765Y020225D01*
X04376Y020228D01*
X043756Y020232D01*
X043753Y020235D01*
X043751Y020237D01*
X043751Y020238D01*
X043742Y020248D01*
X043736Y020259D01*
X043734Y020264D01*
X043732Y020268D01*
X043731Y02027D01*
Y020271D01*
X043725Y020284D01*
X043724Y02029D01*
X043722Y020295D01*
X043721Y020299D01*
Y020302D01*
X04372Y020304D01*
Y020305D01*
X043715D01*
X043711Y020291D01*
X043706Y020279D01*
X0437Y020268D01*
X043694Y020258D01*
X043688Y020251D01*
X043683Y020245D01*
X04368Y020241D01*
X043678Y02024D01*
X043667Y020231D01*
X043655Y020224D01*
X043644Y020219D01*
X043633Y020215D01*
X043624Y020214D01*
X043617Y020213D01*
X043614Y020212D01*
X04361D01*
X0436Y020213D01*
X04359Y020214D01*
X043582Y020216D01*
X043575Y020218D01*
X043569Y020221D01*
X043564Y020222D01*
X043561Y020224D01*
X04356Y020225D01*
X043552Y020229D01*
X043546Y020235D01*
X043539Y02024D01*
X043533Y020246D01*
X043529Y020251D01*
X043526Y020255D01*
X043524Y020258D01*
X043523Y020258D01*
X043514Y020275D01*
X043511Y020283D01*
X043508Y02029D01*
X043506Y020297D01*
X043504Y020301D01*
X043503Y020304D01*
Y020306D01*
X043501Y020316D01*
X043499Y020327D01*
X043498Y020337D01*
X043497Y020346D01*
X043496Y020354D01*
Y020361D01*
Y020365D01*
Y020366D01*
Y020367D01*
X043497Y02038D01*
X043498Y020393D01*
X043499Y020404D01*
X043501Y020416D01*
X043503Y020425D01*
X043505Y020433D01*
X043506Y020437D01*
X043506Y020438D01*
Y020439D01*
X04351Y020452D01*
X043513Y020463D01*
X043516Y020473D01*
X043519Y020482D01*
X043522Y020489D01*
X043525Y020494D01*
X043526Y020497D01*
X043526Y020498D01*
X043592D01*
Y020495D01*
X043585Y020483D01*
X043579Y020473D01*
X043575Y020462D01*
X04357Y020452D01*
X043567Y020444D01*
X043565Y020437D01*
X043563Y020433D01*
X043562Y020432D01*
X043559Y02042D01*
X043556Y020407D01*
X043554Y020397D01*
X043552Y020387D01*
X043552Y02038D01*
X043551Y020374D01*
Y02037D01*
Y020368D01*
X043552Y020354D01*
X043552Y020348D01*
Y020343D01*
X043553Y020339D01*
X043554Y020335D01*
X043555Y020334D01*
Y020333D01*
X043558Y020322D01*
X043561Y020312D01*
X043563Y020309D01*
X043564Y020306D01*
X043566Y020304D01*
Y020304D01*
X043572Y020295D01*
X043579Y020289D01*
X043582Y020287D01*
X043585Y020285D01*
X043586Y020284D01*
X043587D01*
X043597Y020279D01*
X043607Y020277D01*
X043611Y020276D01*
X043617D01*
X043631Y020278D01*
X043642Y020281D01*
X043652Y020285D01*
X043661Y020291D01*
X043667Y020296D01*
X043671Y020301D01*
X043675Y020304D01*
X043675Y020305D01*
X043682Y020317D01*
X043687Y020329D01*
X043691Y020342D01*
X043693Y020354D01*
X043695Y020365D01*
X043695Y020374D01*
Y020377D01*
Y02038D01*
Y020381D01*
Y020382D01*
Y020404D01*
X043748D01*
Y020375D01*
X043748Y020359D01*
X043749Y020351D01*
Y020345D01*
X04375Y02034D01*
X043751Y020335D01*
X043751Y020333D01*
Y020332D01*
X043753Y020324D01*
X043755Y020318D01*
X043758Y020312D01*
X04376Y020307D01*
X043762Y020302D01*
X043764Y020299D01*
X043764Y020298D01*
X043765Y020297D01*
X043773Y020288D01*
X043781Y020281D01*
X043785Y020278D01*
X043788Y020276D01*
X043791Y020275D01*
X043791D01*
X043797Y020271D01*
X043804Y02027D01*
X043818Y020267D01*
X043824D01*
X043828Y020266D01*
X043842D01*
X04385Y020268D01*
X043858Y020268D01*
X043864Y02027D01*
X043869Y020271D01*
X043873Y020272D01*
X043875Y020274D01*
X043876D01*
X043887Y02028D01*
X043896Y020287D01*
X0439Y02029D01*
X043903Y020293D01*
X043905Y020294D01*
X043906Y020295D01*
X04391Y020301D01*
X043914Y020307D01*
X04392Y020319D01*
X043923Y020324D01*
X043924Y020328D01*
X043926Y020331D01*
Y020332D01*
X04393Y020348D01*
X04393Y020355D01*
X043931Y020361D01*
X043932Y020367D01*
Y020371D01*
Y020374D01*
Y020374D01*
X043931Y020387D01*
X04393Y0204D01*
X043928Y020411D01*
X043926Y020422D01*
X043924Y020431D01*
X043922Y020438D01*
X043921Y020443D01*
X04392Y020443D01*
Y020444D01*
X043916Y020457D01*
X043911Y02047D01*
X043906Y02048D01*
X043901Y02049D01*
X043896Y020496D01*
X043893Y020503D01*
X043891Y020506D01*
X04389Y020507D01*
Y020512D01*
X043957D01*
X043961Y020503D01*
D02*
G37*
G36*
X043976Y019975D02*
Y019891D01*
X043506Y01972D01*
Y019784D01*
X043921Y019932D01*
X043506Y020079D01*
Y020145D01*
X043976Y019975D01*
D02*
G37*
G36*
X043961Y019649D02*
X043965Y019639D01*
X043968Y019629D01*
X043971Y019619D01*
X043973Y01961D01*
X043976Y019603D01*
X043976Y019599D01*
X043977Y019598D01*
Y019597D01*
X04398Y019583D01*
X043983Y019569D01*
X043984Y019556D01*
X043985Y019544D01*
X043986Y019534D01*
X043986Y019526D01*
Y019523D01*
Y019521D01*
Y01952D01*
Y01952D01*
X043986Y019506D01*
X043985Y019493D01*
X043983Y019481D01*
X043981Y01947D01*
X043979Y019462D01*
X043978Y019455D01*
X043977Y019451D01*
X043976Y01945D01*
X043972Y019438D01*
X043966Y019427D01*
X043961Y019417D01*
X043956Y01941D01*
X043951Y019403D01*
X043947Y019397D01*
X043944Y019394D01*
X043943Y019394D01*
X043936Y019386D01*
X043927Y01938D01*
X04392Y019374D01*
X043913Y01937D01*
X043906Y019366D01*
X043901Y019364D01*
X043898Y019362D01*
X043896Y019361D01*
X043887Y019358D01*
X043876Y019354D01*
X043866Y019352D01*
X043857Y019351D01*
X043849Y01935D01*
X043843Y019349D01*
X043837D01*
X043826Y01935D01*
X043816Y019351D01*
X043807Y019352D01*
X043799Y019354D01*
X043793Y019356D01*
X043789Y019358D01*
X043786Y019358D01*
X043785Y019359D01*
X043777Y019363D01*
X043771Y019367D01*
X043765Y019371D01*
X04376Y019375D01*
X043756Y019379D01*
X043753Y019382D01*
X043751Y019384D01*
X043751Y019384D01*
X043742Y019395D01*
X043736Y019406D01*
X043734Y019411D01*
X043732Y019414D01*
X043731Y019417D01*
Y019417D01*
X043725Y019431D01*
X043724Y019437D01*
X043722Y019442D01*
X043721Y019446D01*
Y019449D01*
X04372Y019451D01*
Y019452D01*
X043715D01*
X043711Y019438D01*
X043706Y019426D01*
X0437Y019415D01*
X043694Y019405D01*
X043688Y019397D01*
X043683Y019391D01*
X04368Y019388D01*
X043678Y019387D01*
X043667Y019377D01*
X043655Y019371D01*
X043644Y019366D01*
X043633Y019362D01*
X043624Y019361D01*
X043617Y01936D01*
X043614Y019359D01*
X04361D01*
X0436Y01936D01*
X04359Y019361D01*
X043582Y019363D01*
X043575Y019365D01*
X043569Y019367D01*
X043564Y019369D01*
X043561Y019371D01*
X04356Y019371D01*
X043552Y019376D01*
X043546Y019381D01*
X043539Y019387D01*
X043533Y019393D01*
X043529Y019397D01*
X043526Y019401D01*
X043524Y019404D01*
X043523Y019405D01*
X043514Y019421D01*
X043511Y01943D01*
X043508Y019437D01*
X043506Y019444D01*
X043504Y019448D01*
X043503Y019451D01*
Y019453D01*
X043501Y019463D01*
X043499Y019473D01*
X043498Y019483D01*
X043497Y019493D01*
X043496Y019501D01*
Y019507D01*
Y019512D01*
Y019513D01*
Y019513D01*
X043497Y019526D01*
X043498Y01954D01*
X043499Y019551D01*
X043501Y019563D01*
X043503Y019572D01*
X043505Y019579D01*
X043506Y019584D01*
X043506Y019585D01*
Y019586D01*
X04351Y019599D01*
X043513Y01961D01*
X043516Y01962D01*
X043519Y019629D01*
X043522Y019636D01*
X043525Y019641D01*
X043526Y019644D01*
X043526Y019645D01*
X043592D01*
Y019642D01*
X043585Y01963D01*
X043579Y019619D01*
X043575Y019609D01*
X04357Y019599D01*
X043567Y019591D01*
X043565Y019584D01*
X043563Y01958D01*
X043562Y019579D01*
X043559Y019566D01*
X043556Y019554D01*
X043554Y019543D01*
X043552Y019534D01*
X043552Y019526D01*
X043551Y01952D01*
Y019516D01*
Y019515D01*
X043552Y019501D01*
X043552Y019495D01*
Y01949D01*
X043553Y019486D01*
X043554Y019482D01*
X043555Y01948D01*
Y01948D01*
X043558Y019469D01*
X043561Y019459D01*
X043563Y019456D01*
X043564Y019453D01*
X043566Y019451D01*
Y01945D01*
X043572Y019442D01*
X043579Y019436D01*
X043582Y019434D01*
X043585Y019432D01*
X043586Y01943D01*
X043587D01*
X043597Y019426D01*
X043607Y019424D01*
X043611Y019423D01*
X043617D01*
X043631Y019424D01*
X043642Y019427D01*
X043652Y019432D01*
X043661Y019437D01*
X043667Y019443D01*
X043671Y019447D01*
X043675Y01945D01*
X043675Y019452D01*
X043682Y019463D01*
X043687Y019476D01*
X043691Y019489D01*
X043693Y019501D01*
X043695Y019512D01*
X043695Y019521D01*
Y019524D01*
Y019526D01*
Y019528D01*
Y019529D01*
Y01955D01*
X043748D01*
Y019522D01*
X043748Y019506D01*
X043749Y019498D01*
Y019492D01*
X04375Y019487D01*
X043751Y019482D01*
X043751Y01948D01*
Y019479D01*
X043753Y019471D01*
X043755Y019464D01*
X043758Y019459D01*
X04376Y019454D01*
X043762Y019449D01*
X043764Y019446D01*
X043764Y019444D01*
X043765Y019444D01*
X043773Y019434D01*
X043781Y019427D01*
X043785Y019424D01*
X043788Y019423D01*
X043791Y019421D01*
X043791D01*
X043797Y019418D01*
X043804Y019417D01*
X043818Y019414D01*
X043824D01*
X043828Y019413D01*
X043842D01*
X04385Y019414D01*
X043858Y019415D01*
X043864Y019417D01*
X043869Y019418D01*
X043873Y019419D01*
X043875Y01942D01*
X043876D01*
X043887Y019427D01*
X043896Y019434D01*
X0439Y019437D01*
X043903Y01944D01*
X043905Y019441D01*
X043906Y019442D01*
X04391Y019447D01*
X043914Y019454D01*
X04392Y019466D01*
X043923Y019471D01*
X043924Y019475D01*
X043926Y019478D01*
Y019479D01*
X04393Y019495D01*
X04393Y019502D01*
X043931Y019508D01*
X043932Y019513D01*
Y019517D01*
Y01952D01*
Y019521D01*
X043931Y019534D01*
X04393Y019546D01*
X043928Y019558D01*
X043926Y019569D01*
X043924Y019578D01*
X043922Y019585D01*
X043921Y019589D01*
X04392Y01959D01*
Y019591D01*
X043916Y019604D01*
X043911Y019616D01*
X043906Y019627D01*
X043901Y019636D01*
X043896Y019643D01*
X043893Y019649D01*
X043891Y019652D01*
X04389Y019654D01*
Y019659D01*
X043957D01*
X043961Y019649D01*
D02*
G37*
G36*
X043032Y019539D02*
X043031Y019516D01*
X04303Y019495D01*
X043028Y019477D01*
X043027Y019462D01*
X043026Y019456D01*
X043025Y01945D01*
Y019445D01*
X043025Y019441D01*
X043024Y019438D01*
X043023Y019436D01*
Y019435D01*
Y019434D01*
X043019Y01942D01*
X043015Y019406D01*
X04301Y019394D01*
X043005Y019383D01*
X043002Y019374D01*
X042998Y019368D01*
X042995Y019364D01*
X042995Y019362D01*
X042983Y019345D01*
X04297Y019331D01*
X042956Y019318D01*
X042943Y019308D01*
X042932Y019299D01*
X042927Y019295D01*
X042922Y019293D01*
X042919Y019291D01*
X042916Y019289D01*
X042915Y019288D01*
X042914D01*
X042894Y019278D01*
X042874Y019272D01*
X042854Y019266D01*
X042836Y019263D01*
X042828Y019262D01*
X04282Y019261D01*
X042814Y01926D01*
X042808D01*
X042803Y019259D01*
X042797D01*
X042773Y01926D01*
X04275Y019263D01*
X04273Y019268D01*
X04272Y01927D01*
X042713Y019272D01*
X042705Y019275D01*
X042698Y019278D01*
X042693Y01928D01*
X042688Y019282D01*
X042684Y019284D01*
X042681Y019285D01*
X04268Y019286D01*
X042679D01*
X042661Y019297D01*
X042645Y019309D01*
X042631Y019321D01*
X042621Y019334D01*
X042611Y019344D01*
X042604Y019354D01*
X042602Y019357D01*
X042601Y019359D01*
X042599Y019361D01*
Y019361D01*
X042593Y019372D01*
X042588Y019384D01*
X042582Y019396D01*
X042578Y019407D01*
X042575Y019416D01*
X042573Y019424D01*
X042572Y019427D01*
Y019429D01*
X042571Y01943D01*
Y019431D01*
X042568Y019447D01*
X042565Y019465D01*
X042564Y019483D01*
X042563Y0195D01*
X042562Y019516D01*
X042561Y019523D01*
Y019528D01*
Y019533D01*
Y019536D01*
Y019539D01*
Y01954D01*
Y019657D01*
X043032D01*
Y019539D01*
D02*
G37*
G36*
Y020083D02*
X042611D01*
X043032Y01986D01*
Y019782D01*
X042561D01*
Y019841D01*
X042945D01*
X042561Y020044D01*
Y020141D01*
X043032D01*
Y020083D01*
D02*
G37*
G36*
X050984Y024409D02*
X044882D01*
Y027362D01*
X050984D01*
Y024409D01*
D02*
G37*
G36*
X052165Y039449D02*
X016732Y039449D01*
X016732Y040039D01*
X052165D01*
X052165Y039449D01*
D02*
G37*
%LPC*%
G36*
X039484Y039062D02*
X039411D01*
X039403Y039061D01*
X039391D01*
X039387Y03906D01*
X039383D01*
X039369Y039058D01*
X039362Y039057D01*
X039357Y039056D01*
X039352Y039055D01*
X03935Y039054D01*
X039348Y039053D01*
X039347D01*
X039339Y039049D01*
X039332Y039045D01*
X039327Y039041D01*
X039323Y039037D01*
X03932Y039033D01*
X039318Y03903D01*
X039316Y039029D01*
Y039028D01*
X03931Y039015D01*
X039307Y039004D01*
X039306Y038998D01*
Y038994D01*
Y038991D01*
Y03899D01*
Y038981D01*
X039307Y038974D01*
X039308Y038967D01*
X03931Y038961D01*
X039311Y038957D01*
X039313Y038954D01*
X039314Y038952D01*
Y038951D01*
X039321Y03894D01*
X039328Y038932D01*
X039334Y038926D01*
X039336Y038925D01*
X039337Y038924D01*
X03935Y038916D01*
X039364Y038911D01*
X03937Y038909D01*
X039374Y038908D01*
X039377Y038907D01*
X039378D01*
X039388Y038907D01*
X039398Y038906D01*
X039408D01*
X039417Y038905D01*
X039484D01*
Y039062D01*
D02*
G37*
G36*
X042978Y019595D02*
X042615D01*
Y019536D01*
Y01952D01*
X042616Y019507D01*
X042618Y019493D01*
X042618Y019483D01*
X04262Y019474D01*
X042621Y019467D01*
X042622Y019463D01*
Y019461D01*
X042624Y01945D01*
X042628Y019439D01*
X042631Y019429D01*
X042635Y01942D01*
X042638Y019413D01*
X042641Y019407D01*
X042643Y019404D01*
X042644Y019402D01*
X042652Y019388D01*
X042662Y019377D01*
X042672Y019367D01*
X042681Y019359D01*
X042691Y019353D01*
X042697Y019348D01*
X042702Y019345D01*
X042703Y019344D01*
X042704D01*
X042718Y019338D01*
X042734Y019333D01*
X04275Y019329D01*
X042764Y019327D01*
X042777Y019325D01*
X042783D01*
X042787Y019325D01*
X042796D01*
X042816Y019325D01*
X042834Y019328D01*
X042849Y01933D01*
X042863Y019333D01*
X042873Y019337D01*
X042881Y019339D01*
X042884Y019341D01*
X042886Y019341D01*
X042887Y019342D01*
X042888D01*
X042901Y01935D01*
X042912Y019358D01*
X042922Y019367D01*
X042931Y019375D01*
X042938Y019383D01*
X042943Y019389D01*
X042946Y019394D01*
X042947Y019394D01*
Y019395D01*
X042953Y019406D01*
X042959Y019417D01*
X042962Y019427D01*
X042966Y019437D01*
X042969Y019445D01*
X04297Y019452D01*
X042972Y019456D01*
Y019457D01*
Y019457D01*
X042974Y01947D01*
X042975Y019484D01*
X042976Y019497D01*
X042977Y01951D01*
X042978Y01952D01*
Y019529D01*
Y019532D01*
Y019534D01*
Y019536D01*
Y019536D01*
Y019595D01*
D02*
G37*
G36*
X038766Y039017D02*
X038694Y038809D01*
X038837D01*
X038766Y039017D01*
D02*
G37*
G36*
X04148Y039059D02*
X04143D01*
X041419Y039058D01*
X041404D01*
X041399Y039057D01*
X041395D01*
X041378Y039055D01*
X04137Y039054D01*
X041364Y039053D01*
X041358Y039051D01*
X041353Y039049D01*
X04135Y039048D01*
X041349D01*
X041337Y039041D01*
X041326Y039032D01*
X041322Y039029D01*
X04132Y039026D01*
X041319Y039024D01*
X041318Y039023D01*
X041313Y039016D01*
X04131Y039009D01*
X041306Y038995D01*
X041305Y038989D01*
X041304Y038984D01*
Y038981D01*
Y038981D01*
X041305Y038963D01*
X041306Y038957D01*
X041307Y03895D01*
X041309Y038945D01*
X04131Y038941D01*
X041311Y038939D01*
Y038938D01*
X041317Y038927D01*
X041324Y038917D01*
X041327Y038913D01*
X04133Y03891D01*
X041331Y038909D01*
X041332Y038908D01*
X041346Y0389D01*
X04136Y038893D01*
X041366Y038891D01*
X04137Y03889D01*
X041373Y038889D01*
X041374D01*
X041384Y038888D01*
X041395Y038887D01*
X041405Y038886D01*
X041416D01*
X041424Y038885D01*
X04148D01*
Y039059D01*
D02*
G37*
%LPD*%
D50*
X040276Y01878D02*
X044213D01*
X043268Y017756D02*
Y021299D01*
X042244Y017756D02*
Y021299D01*
X04122Y017756D02*
Y021299D01*
X040276Y017756D02*
Y021299D01*
X044213D01*
Y017756D02*
Y021299D01*
X040276Y017756D02*
X044213D01*
X044409Y027441D02*
Y027835D01*
X044803D01*
X045984D02*
X049803D01*
X050945D02*
X051299D01*
Y021575D02*
Y027835D01*
X050945Y021575D02*
X051299D01*
X045984D02*
X049803D01*
X044409D02*
X044803D01*
X044409D02*
Y024488D01*
M02*
