G04 Layer_Color=32768*
%FSTAX24Y24*%
%MOIN*%
G70*
G01*
G75*
%ADD149C,0.0039*%
%ADD150C,0.0020*%
D149*
X040118Y036102D02*
Y036496D01*
X039921Y036299D02*
X040315D01*
X034528Y029921D02*
Y030315D01*
X034331Y030118D02*
X034724D01*
X032815Y028701D02*
X03624D01*
X032815Y031535D02*
X03624D01*
Y028701D02*
Y031535D01*
X032815Y028701D02*
Y031535D01*
X050866Y029882D02*
Y030276D01*
X050669Y030079D02*
X051063D01*
X042244Y02D02*
Y020394D01*
X042047Y020197D02*
X042441D01*
X040374Y019016D02*
X044114D01*
X040374Y021378D02*
X044114D01*
Y019016D02*
Y021378D01*
X040374Y019016D02*
Y021378D01*
X036535Y024449D02*
X036929D01*
X036732Y024252D02*
Y024646D01*
X029823Y023602D02*
Y025768D01*
X032776Y023602D02*
Y025768D01*
X029823D02*
X032776D01*
X029823Y023602D02*
X032776D01*
X031102Y024685D02*
X031496D01*
X031299Y024488D02*
Y024882D01*
X026772Y027992D02*
X027165D01*
X026969Y027795D02*
Y028189D01*
X022795Y027795D02*
Y028189D01*
X022598Y027992D02*
X022992D01*
X024213Y030866D02*
Y03126D01*
X024016Y031063D02*
X024409D01*
D150*
X037106Y033681D02*
X04313D01*
X037106Y038917D02*
X04313D01*
Y033681D02*
Y038917D01*
X037106Y033681D02*
Y038917D01*
X03878Y022402D02*
Y026496D01*
X034685Y022402D02*
Y026496D01*
X03878D01*
X034685Y022402D02*
X03878D01*
X028642Y026614D02*
Y02937D01*
X025295Y026614D02*
Y02937D01*
Y026614D02*
X028642D01*
X025295Y02937D02*
X028642D01*
X020531Y026969D02*
X025059D01*
X020531Y029016D02*
X025059D01*
Y026969D02*
Y029016D01*
X020531Y026969D02*
Y029016D01*
X021949Y032087D02*
X026476D01*
X021949Y030039D02*
X026476D01*
X021949D02*
Y032087D01*
X026476Y030039D02*
Y032087D01*
M02*
