G04 Layer_Color=16711935*
%FSTAX24Y24*%
%MOIN*%
G70*
G01*
G75*
%ADD149C,0.0039*%
D149*
X05126Y030079D02*
G03*
X05126Y030079I-000394J0D01*
G01*
X041722Y020925D02*
G03*
X041722Y020925I-000197J0D01*
G01*
X035886Y023406D02*
G03*
X035886Y023406I-000197J0D01*
G01*
X031083Y025295D02*
G03*
X031083Y025295I-000197J0D01*
G01*
X022047Y028563D02*
G03*
X022047Y028563I-000197J0D01*
G01*
X025354Y030492D02*
G03*
X025354Y030492I-000197J0D01*
G01*
X037402Y03378D02*
X042835D01*
X037402Y038819D02*
X042835D01*
Y03378D02*
Y038819D01*
X037402Y03378D02*
Y038819D01*
X050354Y030591D02*
X051378D01*
X050354Y029567D02*
Y030591D01*
Y029567D02*
X051378D01*
Y030591D01*
X041171Y019114D02*
X043317D01*
X041171Y02128D02*
X043317D01*
Y019114D02*
Y02128D01*
X041171Y019114D02*
Y02128D01*
X03813Y023051D02*
Y025846D01*
X035335Y023051D02*
Y025846D01*
X03813D01*
X035335Y023051D02*
X03813D01*
X030531Y02372D02*
Y02565D01*
X032067Y02372D02*
Y02565D01*
X030531D02*
X032067D01*
X030531Y02372D02*
X032067D01*
X028346Y026713D02*
Y029272D01*
X025591Y026713D02*
Y029272D01*
Y026713D02*
X028346D01*
X025591Y029272D02*
X028346D01*
X021496Y027067D02*
X024094D01*
X021496Y028917D02*
X024094D01*
Y027067D02*
Y028917D01*
X021496Y027067D02*
Y028917D01*
X022913Y031988D02*
X025512D01*
X022913Y030138D02*
X025512D01*
X022913D02*
Y031988D01*
X025512Y030138D02*
Y031988D01*
M02*
