G04 Layer_Color=255*
%FSTAX24Y24*%
%MOIN*%
G70*
G01*
G75*
%ADD48C,0.0591*%
%ADD58R,0.0709X0.0709*%
%ADD59C,0.0709*%
%ADD60C,0.0800*%
%ADD61C,0.0700*%
%ADD62R,0.1000X0.1000*%
%ADD63C,0.1000*%
%ADD64O,0.1000X0.0700*%
%ADD65R,0.1000X0.0700*%
%ADD66C,0.0315*%
%ADD67C,0.0630*%
%ADD68O,0.0748X0.0630*%
%ADD69R,0.0748X0.0630*%
%ADD70R,0.0630X0.0630*%
%ADD71C,0.0472*%
%ADD72C,0.0591*%
%ADD73R,0.1181X0.1181*%
%ADD74C,0.1181*%
%ADD76R,0.1024X0.0630*%
%ADD77R,0.0709X0.0315*%
D48*
X051378Y020866D02*
D03*
X017323Y03878D02*
D03*
D58*
X017913Y025079D02*
D03*
Y032047D02*
D03*
X020472D02*
D03*
X017913Y028228D02*
D03*
D59*
Y024079D02*
D03*
Y031047D02*
D03*
X020472D02*
D03*
X017913Y027228D02*
D03*
D60*
X018491Y037805D02*
D03*
X020991D02*
D03*
D61*
X020984Y036213D02*
D03*
Y034213D02*
D03*
D62*
X024213Y034055D02*
D03*
D63*
X026969D02*
D03*
Y037205D02*
D03*
X024213D02*
D03*
D64*
X029921Y037937D02*
D03*
Y032949D02*
D03*
D65*
Y036437D02*
D03*
Y034449D02*
D03*
D66*
X034882Y035315D02*
D03*
Y034921D02*
D03*
Y034528D02*
D03*
X035276D02*
D03*
Y034921D02*
D03*
Y035315D02*
D03*
X030197Y030512D02*
D03*
Y030118D02*
D03*
Y029724D02*
D03*
X030591D02*
D03*
Y030118D02*
D03*
Y030512D02*
D03*
D67*
X040748Y02463D02*
D03*
Y02564D02*
D03*
Y02662D02*
D03*
X04273Y018268D02*
D03*
X04175D02*
D03*
X04074D02*
D03*
D68*
X049394Y019488D02*
D03*
Y018488D02*
D03*
X050394D02*
D03*
D69*
Y019488D02*
D03*
D70*
X04374Y018268D02*
D03*
D71*
X025346Y020669D02*
D03*
D72*
X028307D02*
D03*
D73*
X018307Y036024D02*
D03*
D74*
Y034449D02*
D03*
D76*
X045394Y027819D02*
D03*
Y021598D02*
D03*
X050386D02*
D03*
Y027819D02*
D03*
D77*
X044409Y027205D02*
D03*
Y026705D02*
D03*
Y026205D02*
D03*
Y025705D02*
D03*
Y025205D02*
D03*
Y024705D02*
D03*
M02*
