G04 Layer_Color=2752767*
%FSTAX24Y24*%
%MOIN*%
G70*
G01*
G75*
%ADD79C,0.0050*%
%ADD151C,0.0067*%
%ADD152C,0.0040*%
D79*
X017713Y024879D02*
Y025279D01*
X018113D01*
Y024879D01*
X017713D01*
Y023879D02*
Y024279D01*
X018113D01*
Y023879D01*
X017713D01*
Y031847D02*
Y032247D01*
X018113D01*
Y031847D01*
X017713D01*
Y030847D02*
Y031247D01*
X018113D01*
Y030847D01*
X017713D01*
X020272Y031847D02*
Y032247D01*
X020672D01*
Y031847D01*
X020272D01*
Y030847D02*
Y031247D01*
X020672D01*
Y030847D01*
X020272D01*
X020984Y036013D02*
X020784Y036413D01*
X021184D01*
X020984Y036013D01*
Y034013D02*
X020784Y034413D01*
X021184D01*
X020984Y034013D01*
X024213Y033855D02*
X024313Y033955D01*
X024413D01*
X024313Y034055D01*
X024413Y034155D01*
X024313D01*
X024213Y034255D01*
X024113Y034155D01*
X024013D01*
X024113Y034055D01*
X024013Y033955D01*
X024113D01*
X024213Y033855D01*
X026969D02*
X027069Y033955D01*
X027169D01*
X027069Y034055D01*
X027169Y034155D01*
X027069D01*
X026969Y034255D01*
X026869Y034155D01*
X026769D01*
X026869Y034055D01*
X026769Y033955D01*
X026869D01*
X026969Y033855D01*
Y037005D02*
X027069Y037105D01*
X027169D01*
X027069Y037205D01*
X027169Y037305D01*
X027069D01*
X026969Y037405D01*
X026869Y037305D01*
X026769D01*
X026869Y037205D01*
X026769Y037105D01*
X026869D01*
X026969Y037005D01*
X024213D02*
X024313Y037105D01*
X024413D01*
X024313Y037205D01*
X024413Y037305D01*
X024313D01*
X024213Y037405D01*
X024113Y037305D01*
X024013D01*
X024113Y037205D01*
X024013Y037105D01*
X024113D01*
X024213Y037005D01*
X029721Y037737D02*
X029821Y037937D01*
X029721Y038137D01*
X029921Y038037D01*
X030121Y038137D01*
X030021Y037937D01*
X030121Y037737D01*
X029921Y037837D01*
X029721Y037737D01*
Y036237D02*
X029821Y036437D01*
X029721Y036637D01*
X029921Y036537D01*
X030121Y036637D01*
X030021Y036437D01*
X030121Y036237D01*
X029921Y036337D01*
X029721Y036237D01*
Y032749D02*
X029821Y032949D01*
X029721Y033149D01*
X029921Y033049D01*
X030121Y033149D01*
X030021Y032949D01*
X030121Y032749D01*
X029921Y032849D01*
X029721Y032749D01*
Y034249D02*
X029821Y034449D01*
X029721Y034649D01*
X029921Y034549D01*
X030121Y034649D01*
X030021Y034449D01*
X030121Y034249D01*
X029921Y034349D01*
X029721Y034249D01*
X034782Y035215D02*
Y035115D01*
X034982D01*
Y035215D01*
X035082D01*
Y035415D01*
X034982D01*
Y035515D01*
X034782D01*
Y035415D01*
X034682D01*
Y035215D01*
X034782D01*
Y034821D02*
Y034721D01*
X034982D01*
Y034821D01*
X035082D01*
Y035021D01*
X034982D01*
Y035121D01*
X034782D01*
Y035021D01*
X034682D01*
Y034821D01*
X034782D01*
Y034428D02*
Y034328D01*
X034982D01*
Y034428D01*
X035082D01*
Y034628D01*
X034982D01*
Y034728D01*
X034782D01*
Y034628D01*
X034682D01*
Y034428D01*
X034782D01*
X035176D02*
Y034328D01*
X035376D01*
Y034428D01*
X035476D01*
Y034628D01*
X035376D01*
Y034728D01*
X035176D01*
Y034628D01*
X035076D01*
Y034428D01*
X035176D01*
Y034821D02*
Y034721D01*
X035376D01*
Y034821D01*
X035476D01*
Y035021D01*
X035376D01*
Y035121D01*
X035176D01*
Y035021D01*
X035076D01*
Y034821D01*
X035176D01*
Y035215D02*
Y035115D01*
X035376D01*
Y035215D01*
X035476D01*
Y035415D01*
X035376D01*
Y035515D01*
X035176D01*
Y035415D01*
X035076D01*
Y035215D01*
X035176D01*
X040548Y02443D02*
X040648D01*
X040748Y02453D01*
X040848Y02443D01*
X040948D01*
Y02453D01*
X040848Y02463D01*
X040948Y02473D01*
Y02483D01*
X040848D01*
X040748Y02473D01*
X040648Y02483D01*
X040548D01*
Y02473D01*
X040648Y02463D01*
X040548Y02453D01*
Y02443D01*
Y02544D02*
X040648D01*
X040748Y02554D01*
X040848Y02544D01*
X040948D01*
Y02554D01*
X040848Y02564D01*
X040948Y02574D01*
Y02584D01*
X040848D01*
X040748Y02574D01*
X040648Y02584D01*
X040548D01*
Y02574D01*
X040648Y02564D01*
X040548Y02554D01*
Y02544D01*
Y02642D02*
X040648D01*
X040748Y02652D01*
X040848Y02642D01*
X040948D01*
Y02652D01*
X040848Y02662D01*
X040948Y02672D01*
Y02682D01*
X040848D01*
X040748Y02672D01*
X040648Y02682D01*
X040548D01*
Y02672D01*
X040648Y02662D01*
X040548Y02652D01*
Y02642D01*
X049194Y019488D02*
X049394Y019688D01*
X049594Y019488D01*
X049394Y019288D01*
X049194Y019488D01*
Y018488D02*
X049394Y018688D01*
X049594Y018488D01*
X049394Y018288D01*
X049194Y018488D01*
X050194Y019488D02*
X050394Y019688D01*
X050594Y019488D01*
X050394Y019288D01*
X050194Y019488D01*
Y018488D02*
X050394Y018688D01*
X050594Y018488D01*
X050394Y018288D01*
X050194Y018488D01*
X04354Y018068D02*
Y018468D01*
X04394D01*
Y018068D01*
X04354D01*
X04362Y018148D02*
Y018388D01*
X04386D01*
Y018148D01*
X04362D01*
X04253Y018068D02*
Y018468D01*
X04293D01*
Y018068D01*
X04253D01*
X04261Y018148D02*
Y018388D01*
X04285D01*
Y018148D01*
X04261D01*
X04155Y018068D02*
Y018468D01*
X04195D01*
Y018068D01*
X04155D01*
X04163Y018148D02*
Y018388D01*
X04187D01*
Y018148D01*
X04163D01*
X04054Y018068D02*
Y018468D01*
X04094D01*
Y018068D01*
X04054D01*
X04062Y018148D02*
Y018388D01*
X04086D01*
Y018148D01*
X04062D01*
X030097Y030412D02*
Y030312D01*
X030297D01*
Y030412D01*
X030397D01*
Y030612D01*
X030297D01*
Y030712D01*
X030097D01*
Y030612D01*
X029997D01*
Y030412D01*
X030097D01*
Y030018D02*
Y029918D01*
X030297D01*
Y030018D01*
X030397D01*
Y030218D01*
X030297D01*
Y030318D01*
X030097D01*
Y030218D01*
X029997D01*
Y030018D01*
X030097D01*
Y029624D02*
Y029524D01*
X030297D01*
Y029624D01*
X030397D01*
Y029824D01*
X030297D01*
Y029924D01*
X030097D01*
Y029824D01*
X029997D01*
Y029624D01*
X030097D01*
X030491D02*
Y029524D01*
X030691D01*
Y029624D01*
X030791D01*
Y029824D01*
X030691D01*
Y029924D01*
X030491D01*
Y029824D01*
X030391D01*
Y029624D01*
X030491D01*
Y030018D02*
Y029918D01*
X030691D01*
Y030018D01*
X030791D01*
Y030218D01*
X030691D01*
Y030318D01*
X030491D01*
Y030218D01*
X030391D01*
Y030018D01*
X030491D01*
Y030412D02*
Y030312D01*
X030691D01*
Y030412D01*
X030791D01*
Y030612D01*
X030691D01*
Y030712D01*
X030491D01*
Y030612D01*
X030391D01*
Y030412D01*
X030491D01*
X028307Y020469D02*
X028107Y020869D01*
X028507D01*
X028307Y020469D01*
Y020549D02*
X028187Y020789D01*
X028427D01*
X028307Y020549D01*
X017713Y028028D02*
Y028428D01*
X018113D01*
Y028028D01*
X017713D01*
Y027028D02*
Y027428D01*
X018113D01*
Y027028D01*
X017713D01*
X018307Y035824D02*
X018407Y035924D01*
X018507D01*
X018407Y036024D01*
X018507Y036124D01*
X018407D01*
X018307Y036224D01*
X018207Y036124D01*
X018107D01*
X018207Y036024D01*
X018107Y035924D01*
X018207D01*
X018307Y035824D01*
Y035904D02*
X018367Y035964D01*
X018427D01*
X018367Y036024D01*
X018427Y036084D01*
X018367D01*
X018307Y036144D01*
X018247Y036084D01*
X018187D01*
X018247Y036024D01*
X018187Y035964D01*
X018247D01*
X018307Y035904D01*
Y034249D02*
X018407Y034349D01*
X018507D01*
X018407Y034449D01*
X018507Y034549D01*
X018407D01*
X018307Y034649D01*
X018207Y034549D01*
X018107D01*
X018207Y034449D01*
X018107Y034349D01*
X018207D01*
X018307Y034249D01*
Y034329D02*
X018367Y034389D01*
X018427D01*
X018367Y034449D01*
X018427Y034509D01*
X018367D01*
X018307Y034569D01*
X018247Y034509D01*
X018187D01*
X018247Y034449D01*
X018187Y034389D01*
X018247D01*
X018307Y034329D01*
X030902Y038383D02*
X031002Y038583D01*
X030902Y038783D01*
X031102Y038683D01*
X031302Y038783D01*
X031202Y038583D01*
X031302Y038383D01*
X031102Y038483D01*
X030902Y038383D01*
X030982Y038463D02*
X031042Y038583D01*
X030982Y038703D01*
X031102Y038643D01*
X031222Y038703D01*
X031162Y038583D01*
X031222Y038463D01*
X031102Y038523D01*
X030982Y038463D01*
X030312Y038383D02*
X030412Y038583D01*
X030312Y038783D01*
X030512Y038683D01*
X030712Y038783D01*
X030612Y038583D01*
X030712Y038383D01*
X030512Y038483D01*
X030312Y038383D01*
X030392Y038463D02*
X030452Y038583D01*
X030392Y038703D01*
X030512Y038643D01*
X030632Y038703D01*
X030572Y038583D01*
X030632Y038463D01*
X030512Y038523D01*
X030392Y038463D01*
X029721Y038383D02*
X029821Y038583D01*
X029721Y038783D01*
X029921Y038683D01*
X030121Y038783D01*
X030021Y038583D01*
X030121Y038383D01*
X029921Y038483D01*
X029721Y038383D01*
X029801Y038463D02*
X029861Y038583D01*
X029801Y038703D01*
X029921Y038643D01*
X030041Y038703D01*
X029981Y038583D01*
X030041Y038463D01*
X029921Y038523D01*
X029801Y038463D01*
X029131Y038383D02*
X029231Y038583D01*
X029131Y038783D01*
X029331Y038683D01*
X029531Y038783D01*
X029431Y038583D01*
X029531Y038383D01*
X029331Y038483D01*
X029131Y038383D01*
X029211Y038463D02*
X029271Y038583D01*
X029211Y038703D01*
X029331Y038643D01*
X029451Y038703D01*
X029391Y038583D01*
X029451Y038463D01*
X029331Y038523D01*
X029211Y038463D01*
X02854Y038383D02*
X02864Y038583D01*
X02854Y038783D01*
X02874Y038683D01*
X02894Y038783D01*
X02884Y038583D01*
X02894Y038383D01*
X02874Y038483D01*
X02854Y038383D01*
X02862Y038463D02*
X02868Y038583D01*
X02862Y038703D01*
X02874Y038643D01*
X02886Y038703D01*
X0288Y038583D01*
X02886Y038463D01*
X02874Y038523D01*
X02862Y038463D01*
X02854Y038973D02*
X02864Y039173D01*
X02854Y039373D01*
X02874Y039273D01*
X02894Y039373D01*
X02884Y039173D01*
X02894Y038973D01*
X02874Y039073D01*
X02854Y038973D01*
X02862Y039053D02*
X02868Y039173D01*
X02862Y039293D01*
X02874Y039233D01*
X02886Y039293D01*
X0288Y039173D01*
X02886Y039053D01*
X02874Y039113D01*
X02862Y039053D01*
X029131Y038973D02*
X029231Y039173D01*
X029131Y039373D01*
X029331Y039273D01*
X029531Y039373D01*
X029431Y039173D01*
X029531Y038973D01*
X029331Y039073D01*
X029131Y038973D01*
X029211Y039053D02*
X029271Y039173D01*
X029211Y039293D01*
X029331Y039233D01*
X029451Y039293D01*
X029391Y039173D01*
X029451Y039053D01*
X029331Y039113D01*
X029211Y039053D01*
X030902Y038973D02*
X031002Y039173D01*
X030902Y039373D01*
X031102Y039273D01*
X031302Y039373D01*
X031202Y039173D01*
X031302Y038973D01*
X031102Y039073D01*
X030902Y038973D01*
X030982Y039053D02*
X031042Y039173D01*
X030982Y039293D01*
X031102Y039233D01*
X031222Y039293D01*
X031162Y039173D01*
X031222Y039053D01*
X031102Y039113D01*
X030982Y039053D01*
X030312Y038973D02*
X030412Y039173D01*
X030312Y039373D01*
X030512Y039273D01*
X030712Y039373D01*
X030612Y039173D01*
X030712Y038973D01*
X030512Y039073D01*
X030312Y038973D01*
X030392Y039053D02*
X030452Y039173D01*
X030392Y039293D01*
X030512Y039233D01*
X030632Y039293D01*
X030572Y039173D01*
X030632Y039053D01*
X030512Y039113D01*
X030392Y039053D01*
X029721Y038973D02*
X029821Y039173D01*
X029721Y039373D01*
X029921Y039273D01*
X030121Y039373D01*
X030021Y039173D01*
X030121Y038973D01*
X029921Y039073D01*
X029721Y038973D01*
X029801Y039053D02*
X029861Y039173D01*
X029801Y039293D01*
X029921Y039233D01*
X030041Y039293D01*
X029981Y039173D01*
X030041Y039053D01*
X029921Y039113D01*
X029801Y039053D01*
X04665Y017517D02*
X04675Y017717D01*
X04665Y017917D01*
X04685Y017817D01*
X04705Y017917D01*
X04695Y017717D01*
X04705Y017517D01*
X04685Y017617D01*
X04665Y017517D01*
X04673Y017597D02*
X04679Y017717D01*
X04673Y017837D01*
X04685Y017777D01*
X04697Y017837D01*
X04691Y017717D01*
X04697Y017597D01*
X04685Y017657D01*
X04673Y017597D01*
X045863Y017517D02*
X045963Y017717D01*
X045863Y017917D01*
X046063Y017817D01*
X046263Y017917D01*
X046163Y017717D01*
X046263Y017517D01*
X046063Y017617D01*
X045863Y017517D01*
X045943Y017597D02*
X046003Y017717D01*
X045943Y017837D01*
X046063Y017777D01*
X046183Y017837D01*
X046123Y017717D01*
X046183Y017597D01*
X046063Y017657D01*
X045943Y017597D01*
X045076Y017517D02*
X045176Y017717D01*
X045076Y017917D01*
X045276Y017817D01*
X045476Y017917D01*
X045376Y017717D01*
X045476Y017517D01*
X045276Y017617D01*
X045076Y017517D01*
X045156Y017597D02*
X045216Y017717D01*
X045156Y017837D01*
X045276Y017777D01*
X045396Y017837D01*
X045336Y017717D01*
X045396Y017597D01*
X045276Y017657D01*
X045156Y017597D01*
X033265Y018894D02*
X033365Y019094D01*
X033265Y019294D01*
X033465Y019194D01*
X033665Y019294D01*
X033565Y019094D01*
X033665Y018894D01*
X033465Y018994D01*
X033265Y018894D01*
X033345Y018974D02*
X033405Y019094D01*
X033345Y019214D01*
X033465Y019154D01*
X033585Y019214D01*
X033525Y019094D01*
X033585Y018974D01*
X033465Y019034D01*
X033345Y018974D01*
X032674Y018894D02*
X032774Y019094D01*
X032674Y019294D01*
X032874Y019194D01*
X033074Y019294D01*
X032974Y019094D01*
X033074Y018894D01*
X032874Y018994D01*
X032674Y018894D01*
X032754Y018974D02*
X032814Y019094D01*
X032754Y019214D01*
X032874Y019154D01*
X032994Y019214D01*
X032934Y019094D01*
X032994Y018974D01*
X032874Y019034D01*
X032754Y018974D01*
X032083Y018894D02*
X032183Y019094D01*
X032083Y019294D01*
X032283Y019194D01*
X032483Y019294D01*
X032383Y019094D01*
X032483Y018894D01*
X032283Y018994D01*
X032083Y018894D01*
X032163Y018974D02*
X032223Y019094D01*
X032163Y019214D01*
X032283Y019154D01*
X032403Y019214D01*
X032343Y019094D01*
X032403Y018974D01*
X032283Y019034D01*
X032163Y018974D01*
X032083Y018304D02*
X032183Y018504D01*
X032083Y018704D01*
X032283Y018604D01*
X032483Y018704D01*
X032383Y018504D01*
X032483Y018304D01*
X032283Y018404D01*
X032083Y018304D01*
X032163Y018384D02*
X032223Y018504D01*
X032163Y018624D01*
X032283Y018564D01*
X032403Y018624D01*
X032343Y018504D01*
X032403Y018384D01*
X032283Y018444D01*
X032163Y018384D01*
X032674Y018304D02*
X032774Y018504D01*
X032674Y018704D01*
X032874Y018604D01*
X033074Y018704D01*
X032974Y018504D01*
X033074Y018304D01*
X032874Y018404D01*
X032674Y018304D01*
X032754Y018384D02*
X032814Y018504D01*
X032754Y018624D01*
X032874Y018564D01*
X032994Y018624D01*
X032934Y018504D01*
X032994Y018384D01*
X032874Y018444D01*
X032754Y018384D01*
X033265Y018304D02*
X033365Y018504D01*
X033265Y018704D01*
X033465Y018604D01*
X033665Y018704D01*
X033565Y018504D01*
X033665Y018304D01*
X033465Y018404D01*
X033265Y018304D01*
X033345Y018384D02*
X033405Y018504D01*
X033345Y018624D01*
X033465Y018564D01*
X033585Y018624D01*
X033525Y018504D01*
X033585Y018384D01*
X033465Y018444D01*
X033345Y018384D01*
X048383Y029131D02*
X048483Y029331D01*
X048383Y029531D01*
X048583Y029431D01*
X048783Y029531D01*
X048683Y029331D01*
X048783Y029131D01*
X048583Y029231D01*
X048383Y029131D01*
X048463Y029211D02*
X048523Y029331D01*
X048463Y029451D01*
X048583Y029391D01*
X048703Y029451D01*
X048643Y029331D01*
X048703Y029211D01*
X048583Y029271D01*
X048463Y029211D01*
X046847Y028501D02*
X046947Y028701D01*
X046847Y028901D01*
X047047Y028801D01*
X047247Y028901D01*
X047147Y028701D01*
X047247Y028501D01*
X047047Y028601D01*
X046847Y028501D01*
X046927Y028581D02*
X046987Y028701D01*
X046927Y028821D01*
X047047Y028761D01*
X047167Y028821D01*
X047107Y028701D01*
X047167Y028581D01*
X047047Y028641D01*
X046927Y028581D01*
X046847Y029131D02*
X046947Y029331D01*
X046847Y029531D01*
X047047Y029431D01*
X047247Y029531D01*
X047147Y029331D01*
X047247Y029131D01*
X047047Y029231D01*
X046847Y029131D01*
X046927Y029211D02*
X046987Y029331D01*
X046927Y029451D01*
X047047Y029391D01*
X047167Y029451D01*
X047107Y029331D01*
X047167Y029211D01*
X047047Y029271D01*
X046927Y029211D01*
X046847Y029721D02*
X046947Y029921D01*
X046847Y030121D01*
X047047Y030021D01*
X047247Y030121D01*
X047147Y029921D01*
X047247Y029721D01*
X047047Y029821D01*
X046847Y029721D01*
X046927Y029801D02*
X046987Y029921D01*
X046927Y030041D01*
X047047Y029981D01*
X047167Y030041D01*
X047107Y029921D01*
X047167Y029801D01*
X047047Y029861D01*
X046927Y029801D01*
X046847Y030312D02*
X046947Y030512D01*
X046847Y030712D01*
X047047Y030612D01*
X047247Y030712D01*
X047147Y030512D01*
X047247Y030312D01*
X047047Y030412D01*
X046847Y030312D01*
X046927Y030392D02*
X046987Y030512D01*
X046927Y030632D01*
X047047Y030572D01*
X047167Y030632D01*
X047107Y030512D01*
X047167Y030392D01*
X047047Y030452D01*
X046927Y030392D01*
X048383Y030706D02*
X048483Y030906D01*
X048383Y031106D01*
X048583Y031006D01*
X048783Y031106D01*
X048683Y030906D01*
X048783Y030706D01*
X048583Y030806D01*
X048383Y030706D01*
X048463Y030786D02*
X048523Y030906D01*
X048463Y031026D01*
X048583Y030966D01*
X048703Y031026D01*
X048643Y030906D01*
X048703Y030786D01*
X048583Y030846D01*
X048463Y030786D01*
X01904Y019477D02*
Y019377D01*
X01924D01*
Y019477D01*
X01934D01*
Y019677D01*
X01924D01*
Y019777D01*
X01904D01*
Y019677D01*
X01894D01*
Y019477D01*
X01904D01*
X01908Y019517D02*
Y019457D01*
X0192D01*
Y019517D01*
X01926D01*
Y019637D01*
X0192D01*
Y019697D01*
X01908D01*
Y019637D01*
X01902D01*
Y019517D01*
X01908D01*
X01904Y021209D02*
Y021109D01*
X01924D01*
Y021209D01*
X01934D01*
Y021409D01*
X01924D01*
Y021509D01*
X01904D01*
Y021409D01*
X01894D01*
Y021209D01*
X01904D01*
X01908Y021249D02*
Y021189D01*
X0192D01*
Y021249D01*
X01926D01*
Y021369D01*
X0192D01*
Y021429D01*
X01908D01*
Y021369D01*
X01902D01*
Y021249D01*
X01908D01*
X043698Y027359D02*
X043798Y027559D01*
X043698Y027759D01*
X043898Y027659D01*
X044098Y027759D01*
X043998Y027559D01*
X044098Y027359D01*
X043898Y027459D01*
X043698Y027359D01*
X043778Y027439D02*
X043838Y027559D01*
X043778Y027679D01*
X043898Y027619D01*
X044018Y027679D01*
X043958Y027559D01*
X044018Y027439D01*
X043898Y027499D01*
X043778Y027439D01*
X043107Y027359D02*
X043207Y027559D01*
X043107Y027759D01*
X043307Y027659D01*
X043507Y027759D01*
X043407Y027559D01*
X043507Y027359D01*
X043307Y027459D01*
X043107Y027359D01*
X043187Y027439D02*
X043247Y027559D01*
X043187Y027679D01*
X043307Y027619D01*
X043427Y027679D01*
X043367Y027559D01*
X043427Y027439D01*
X043307Y027499D01*
X043187Y027439D01*
X043107Y02795D02*
X043207Y02815D01*
X043107Y02835D01*
X043307Y02825D01*
X043507Y02835D01*
X043407Y02815D01*
X043507Y02795D01*
X043307Y02805D01*
X043107Y02795D01*
X043187Y02803D02*
X043247Y02815D01*
X043187Y02827D01*
X043307Y02821D01*
X043427Y02827D01*
X043367Y02815D01*
X043427Y02803D01*
X043307Y02809D01*
X043187Y02803D01*
X043698Y02795D02*
X043798Y02815D01*
X043698Y02835D01*
X043898Y02825D01*
X044098Y02835D01*
X043998Y02815D01*
X044098Y02795D01*
X043898Y02805D01*
X043698Y02795D01*
X043778Y02803D02*
X043838Y02815D01*
X043778Y02827D01*
X043898Y02821D01*
X044018Y02827D01*
X043958Y02815D01*
X044018Y02803D01*
X043898Y02809D01*
X043778Y02803D01*
X043107Y029721D02*
X043207Y029921D01*
X043107Y030121D01*
X043307Y030021D01*
X043507Y030121D01*
X043407Y029921D01*
X043507Y029721D01*
X043307Y029821D01*
X043107Y029721D01*
X043187Y029801D02*
X043247Y029921D01*
X043187Y030041D01*
X043307Y029981D01*
X043427Y030041D01*
X043367Y029921D01*
X043427Y029801D01*
X043307Y029861D01*
X043187Y029801D01*
X043698Y029721D02*
X043798Y029921D01*
X043698Y030121D01*
X043898Y030021D01*
X044098Y030121D01*
X043998Y029921D01*
X044098Y029721D01*
X043898Y029821D01*
X043698Y029721D01*
X043778Y029801D02*
X043838Y029921D01*
X043778Y030041D01*
X043898Y029981D01*
X044018Y030041D01*
X043958Y029921D01*
X044018Y029801D01*
X043898Y029861D01*
X043778Y029801D01*
X044288Y029721D02*
X044388Y029921D01*
X044288Y030121D01*
X044488Y030021D01*
X044688Y030121D01*
X044588Y029921D01*
X044688Y029721D01*
X044488Y029821D01*
X044288Y029721D01*
X044368Y029801D02*
X044428Y029921D01*
X044368Y030041D01*
X044488Y029981D01*
X044608Y030041D01*
X044548Y029921D01*
X044608Y029801D01*
X044488Y029861D01*
X044368Y029801D01*
X044879Y029721D02*
X044979Y029921D01*
X044879Y030121D01*
X045079Y030021D01*
X045279Y030121D01*
X045179Y029921D01*
X045279Y029721D01*
X045079Y029821D01*
X044879Y029721D01*
X044959Y029801D02*
X045019Y029921D01*
X044959Y030041D01*
X045079Y029981D01*
X045199Y030041D01*
X045139Y029921D01*
X045199Y029801D01*
X045079Y029861D01*
X044959Y029801D01*
X045469Y029721D02*
X045569Y029921D01*
X045469Y030121D01*
X045669Y030021D01*
X045869Y030121D01*
X045769Y029921D01*
X045869Y029721D01*
X045669Y029821D01*
X045469Y029721D01*
X045549Y029801D02*
X045609Y029921D01*
X045549Y030041D01*
X045669Y029981D01*
X045789Y030041D01*
X045729Y029921D01*
X045789Y029801D01*
X045669Y029861D01*
X045549Y029801D01*
X04606Y029721D02*
X04616Y029921D01*
X04606Y030121D01*
X04626Y030021D01*
X04646Y030121D01*
X04636Y029921D01*
X04646Y029721D01*
X04626Y029821D01*
X04606Y029721D01*
X04614Y029801D02*
X0462Y029921D01*
X04614Y030041D01*
X04626Y029981D01*
X04638Y030041D01*
X04632Y029921D01*
X04638Y029801D01*
X04626Y029861D01*
X04614Y029801D01*
X046069Y029132D02*
X046169Y029332D01*
X046069Y029532D01*
X046269Y029432D01*
X046469Y029532D01*
X046369Y029332D01*
X046469Y029132D01*
X046269Y029232D01*
X046069Y029132D01*
X046149Y029212D02*
X046209Y029332D01*
X046149Y029452D01*
X046269Y029392D01*
X046389Y029452D01*
X046329Y029332D01*
X046389Y029212D01*
X046269Y029272D01*
X046149Y029212D01*
X045469Y029131D02*
X045569Y029331D01*
X045469Y029531D01*
X045669Y029431D01*
X045869Y029531D01*
X045769Y029331D01*
X045869Y029131D01*
X045669Y029231D01*
X045469Y029131D01*
X045549Y029211D02*
X045609Y029331D01*
X045549Y029451D01*
X045669Y029391D01*
X045789Y029451D01*
X045729Y029331D01*
X045789Y029211D01*
X045669Y029271D01*
X045549Y029211D01*
X044879Y029131D02*
X044979Y029331D01*
X044879Y029531D01*
X045079Y029431D01*
X045279Y029531D01*
X045179Y029331D01*
X045279Y029131D01*
X045079Y029231D01*
X044879Y029131D01*
X044959Y029211D02*
X045019Y029331D01*
X044959Y029451D01*
X045079Y029391D01*
X045199Y029451D01*
X045139Y029331D01*
X045199Y029211D01*
X045079Y029271D01*
X044959Y029211D01*
X044288Y029131D02*
X044388Y029331D01*
X044288Y029531D01*
X044488Y029431D01*
X044688Y029531D01*
X044588Y029331D01*
X044688Y029131D01*
X044488Y029231D01*
X044288Y029131D01*
X044368Y029211D02*
X044428Y029331D01*
X044368Y029451D01*
X044488Y029391D01*
X044608Y029451D01*
X044548Y029331D01*
X044608Y029211D01*
X044488Y029271D01*
X044368Y029211D01*
X043698Y029131D02*
X043798Y029331D01*
X043698Y029531D01*
X043898Y029431D01*
X044098Y029531D01*
X043998Y029331D01*
X044098Y029131D01*
X043898Y029231D01*
X043698Y029131D01*
X043778Y029211D02*
X043838Y029331D01*
X043778Y029451D01*
X043898Y029391D01*
X044018Y029451D01*
X043958Y029331D01*
X044018Y029211D01*
X043898Y029271D01*
X043778Y029211D01*
X043107Y029131D02*
X043207Y029331D01*
X043107Y029531D01*
X043307Y029431D01*
X043507Y029531D01*
X043407Y029331D01*
X043507Y029131D01*
X043307Y029231D01*
X043107Y029131D01*
X043187Y029211D02*
X043247Y029331D01*
X043187Y029451D01*
X043307Y029391D01*
X043427Y029451D01*
X043367Y029331D01*
X043427Y029211D01*
X043307Y029271D01*
X043187Y029211D01*
X043107Y02854D02*
X043207Y02874D01*
X043107Y02894D01*
X043307Y02884D01*
X043507Y02894D01*
X043407Y02874D01*
X043507Y02854D01*
X043307Y02864D01*
X043107Y02854D01*
X043187Y02862D02*
X043247Y02874D01*
X043187Y02886D01*
X043307Y0288D01*
X043427Y02886D01*
X043367Y02874D01*
X043427Y02862D01*
X043307Y02868D01*
X043187Y02862D01*
X043698Y02854D02*
X043798Y02874D01*
X043698Y02894D01*
X043898Y02884D01*
X044098Y02894D01*
X043998Y02874D01*
X044098Y02854D01*
X043898Y02864D01*
X043698Y02854D01*
X043778Y02862D02*
X043838Y02874D01*
X043778Y02886D01*
X043898Y0288D01*
X044018Y02886D01*
X043958Y02874D01*
X044018Y02862D01*
X043898Y02868D01*
X043778Y02862D01*
X044288Y02854D02*
X044388Y02874D01*
X044288Y02894D01*
X044488Y02884D01*
X044688Y02894D01*
X044588Y02874D01*
X044688Y02854D01*
X044488Y02864D01*
X044288Y02854D01*
X044368Y02862D02*
X044428Y02874D01*
X044368Y02886D01*
X044488Y0288D01*
X044608Y02886D01*
X044548Y02874D01*
X044608Y02862D01*
X044488Y02868D01*
X044368Y02862D01*
X04606Y02854D02*
X04616Y02874D01*
X04606Y02894D01*
X04626Y02884D01*
X04646Y02894D01*
X04636Y02874D01*
X04646Y02854D01*
X04626Y02864D01*
X04606Y02854D01*
X04614Y02862D02*
X0462Y02874D01*
X04614Y02886D01*
X04626Y0288D01*
X04638Y02886D01*
X04632Y02874D01*
X04638Y02862D01*
X04626Y02868D01*
X04614Y02862D01*
X045469Y02854D02*
X045569Y02874D01*
X045469Y02894D01*
X045669Y02884D01*
X045869Y02894D01*
X045769Y02874D01*
X045869Y02854D01*
X045669Y02864D01*
X045469Y02854D01*
X045549Y02862D02*
X045609Y02874D01*
X045549Y02886D01*
X045669Y0288D01*
X045789Y02886D01*
X045729Y02874D01*
X045789Y02862D01*
X045669Y02868D01*
X045549Y02862D01*
X044879Y02854D02*
X044979Y02874D01*
X044879Y02894D01*
X045079Y02884D01*
X045279Y02894D01*
X045179Y02874D01*
X045279Y02854D01*
X045079Y02864D01*
X044879Y02854D01*
X044959Y02862D02*
X045019Y02874D01*
X044959Y02886D01*
X045079Y0288D01*
X045199Y02886D01*
X045139Y02874D01*
X045199Y02862D01*
X045079Y02868D01*
X044959Y02862D01*
X017123Y019682D02*
X017223Y019882D01*
X017123Y020082D01*
X017323Y019982D01*
X017523Y020082D01*
X017423Y019882D01*
X017523Y019682D01*
X017323Y019782D01*
X017123Y019682D01*
X017203Y019762D02*
X017263Y019882D01*
X017203Y020002D01*
X017323Y019942D01*
X017443Y020002D01*
X017383Y019882D01*
X017443Y019762D01*
X017323Y019822D01*
X017203Y019762D01*
X017123Y020272D02*
X017223Y020472D01*
X017123Y020672D01*
X017323Y020572D01*
X017523Y020672D01*
X017423Y020472D01*
X017523Y020272D01*
X017323Y020372D01*
X017123Y020272D01*
X017203Y020352D02*
X017263Y020472D01*
X017203Y020592D01*
X017323Y020532D01*
X017443Y020592D01*
X017383Y020472D01*
X017443Y020352D01*
X017323Y020412D01*
X017203Y020352D01*
X017123Y020863D02*
X017223Y021063D01*
X017123Y021263D01*
X017323Y021163D01*
X017523Y021263D01*
X017423Y021063D01*
X017523Y020863D01*
X017323Y020963D01*
X017123Y020863D01*
X017203Y020943D02*
X017263Y021063D01*
X017203Y021183D01*
X017323Y021123D01*
X017443Y021183D01*
X017383Y021063D01*
X017443Y020943D01*
X017323Y021003D01*
X017203Y020943D01*
X017713Y019682D02*
X017813Y019882D01*
X017713Y020082D01*
X017913Y019982D01*
X018113Y020082D01*
X018013Y019882D01*
X018113Y019682D01*
X017913Y019782D01*
X017713Y019682D01*
X017793Y019762D02*
X017853Y019882D01*
X017793Y020002D01*
X017913Y019942D01*
X018033Y020002D01*
X017973Y019882D01*
X018033Y019762D01*
X017913Y019822D01*
X017793Y019762D01*
X017713Y020863D02*
X017813Y021063D01*
X017713Y021263D01*
X017913Y021163D01*
X018113Y021263D01*
X018013Y021063D01*
X018113Y020863D01*
X017913Y020963D01*
X017713Y020863D01*
X017793Y020943D02*
X017853Y021063D01*
X017793Y021183D01*
X017913Y021123D01*
X018033Y021183D01*
X017973Y021063D01*
X018033Y020943D01*
X017913Y021003D01*
X017793Y020943D01*
X017713Y020272D02*
X017813Y020472D01*
X017713Y020672D01*
X017913Y020572D01*
X018113Y020672D01*
X018013Y020472D01*
X018113Y020272D01*
X017913Y020372D01*
X017713Y020272D01*
X017793Y020352D02*
X017853Y020472D01*
X017793Y020592D01*
X017913Y020532D01*
X018033Y020592D01*
X017973Y020472D01*
X018033Y020352D01*
X017913Y020412D01*
X017793Y020352D01*
X029328Y018107D02*
X029428Y018307D01*
X029328Y018507D01*
X029528Y018407D01*
X029728Y018507D01*
X029628Y018307D01*
X029728Y018107D01*
X029528Y018207D01*
X029328Y018107D01*
X029408Y018187D02*
X029468Y018307D01*
X029408Y018427D01*
X029528Y018367D01*
X029648Y018427D01*
X029588Y018307D01*
X029648Y018187D01*
X029528Y018247D01*
X029408Y018187D01*
X02854Y018107D02*
X02864Y018307D01*
X02854Y018507D01*
X02874Y018407D01*
X02894Y018507D01*
X02884Y018307D01*
X02894Y018107D01*
X02874Y018207D01*
X02854Y018107D01*
X02862Y018187D02*
X02868Y018307D01*
X02862Y018427D01*
X02874Y018367D01*
X02886Y018427D01*
X0288Y018307D01*
X02886Y018187D01*
X02874Y018247D01*
X02862Y018187D01*
X027753Y018107D02*
X027853Y018307D01*
X027753Y018507D01*
X027953Y018407D01*
X028153Y018507D01*
X028053Y018307D01*
X028153Y018107D01*
X027953Y018207D01*
X027753Y018107D01*
X027833Y018187D02*
X027893Y018307D01*
X027833Y018427D01*
X027953Y018367D01*
X028073Y018427D01*
X028013Y018307D01*
X028073Y018187D01*
X027953Y018247D01*
X027833Y018187D01*
X026965Y018107D02*
X027065Y018307D01*
X026965Y018507D01*
X027165Y018407D01*
X027365Y018507D01*
X027265Y018307D01*
X027365Y018107D01*
X027165Y018207D01*
X026965Y018107D01*
X027045Y018187D02*
X027105Y018307D01*
X027045Y018427D01*
X027165Y018367D01*
X027285Y018427D01*
X027225Y018307D01*
X027285Y018187D01*
X027165Y018247D01*
X027045Y018187D01*
X026178Y018107D02*
X026278Y018307D01*
X026178Y018507D01*
X026378Y018407D01*
X026578Y018507D01*
X026478Y018307D01*
X026578Y018107D01*
X026378Y018207D01*
X026178Y018107D01*
X026258Y018187D02*
X026318Y018307D01*
X026258Y018427D01*
X026378Y018367D01*
X026498Y018427D01*
X026438Y018307D01*
X026498Y018187D01*
X026378Y018247D01*
X026258Y018187D01*
X025391Y018107D02*
X025491Y018307D01*
X025391Y018507D01*
X025591Y018407D01*
X025791Y018507D01*
X025691Y018307D01*
X025791Y018107D01*
X025591Y018207D01*
X025391Y018107D01*
X025471Y018187D02*
X025531Y018307D01*
X025471Y018427D01*
X025591Y018367D01*
X025711Y018427D01*
X025651Y018307D01*
X025711Y018187D01*
X025591Y018247D01*
X025471Y018187D01*
X024603Y018107D02*
X024703Y018307D01*
X024603Y018507D01*
X024803Y018407D01*
X025003Y018507D01*
X024903Y018307D01*
X025003Y018107D01*
X024803Y018207D01*
X024603Y018107D01*
X024683Y018187D02*
X024743Y018307D01*
X024683Y018427D01*
X024803Y018367D01*
X024923Y018427D01*
X024863Y018307D01*
X024923Y018187D01*
X024803Y018247D01*
X024683Y018187D01*
X029328Y017517D02*
X029428Y017717D01*
X029328Y017917D01*
X029528Y017817D01*
X029728Y017917D01*
X029628Y017717D01*
X029728Y017517D01*
X029528Y017617D01*
X029328Y017517D01*
X029408Y017597D02*
X029468Y017717D01*
X029408Y017837D01*
X029528Y017777D01*
X029648Y017837D01*
X029588Y017717D01*
X029648Y017597D01*
X029528Y017657D01*
X029408Y017597D01*
X02854Y017517D02*
X02864Y017717D01*
X02854Y017917D01*
X02874Y017817D01*
X02894Y017917D01*
X02884Y017717D01*
X02894Y017517D01*
X02874Y017617D01*
X02854Y017517D01*
X02862Y017597D02*
X02868Y017717D01*
X02862Y017837D01*
X02874Y017777D01*
X02886Y017837D01*
X0288Y017717D01*
X02886Y017597D01*
X02874Y017657D01*
X02862Y017597D01*
X027753Y017517D02*
X027853Y017717D01*
X027753Y017917D01*
X027953Y017817D01*
X028153Y017917D01*
X028053Y017717D01*
X028153Y017517D01*
X027953Y017617D01*
X027753Y017517D01*
X027833Y017597D02*
X027893Y017717D01*
X027833Y017837D01*
X027953Y017777D01*
X028073Y017837D01*
X028013Y017717D01*
X028073Y017597D01*
X027953Y017657D01*
X027833Y017597D01*
X026965Y017517D02*
X027065Y017717D01*
X026965Y017917D01*
X027165Y017817D01*
X027365Y017917D01*
X027265Y017717D01*
X027365Y017517D01*
X027165Y017617D01*
X026965Y017517D01*
X027045Y017597D02*
X027105Y017717D01*
X027045Y017837D01*
X027165Y017777D01*
X027285Y017837D01*
X027225Y017717D01*
X027285Y017597D01*
X027165Y017657D01*
X027045Y017597D01*
X026178Y017517D02*
X026278Y017717D01*
X026178Y017917D01*
X026378Y017817D01*
X026578Y017917D01*
X026478Y017717D01*
X026578Y017517D01*
X026378Y017617D01*
X026178Y017517D01*
X026258Y017597D02*
X026318Y017717D01*
X026258Y017837D01*
X026378Y017777D01*
X026498Y017837D01*
X026438Y017717D01*
X026498Y017597D01*
X026378Y017657D01*
X026258Y017597D01*
X025391Y017517D02*
X025491Y017717D01*
X025391Y017917D01*
X025591Y017817D01*
X025791Y017917D01*
X025691Y017717D01*
X025791Y017517D01*
X025591Y017617D01*
X025391Y017517D01*
X025471Y017597D02*
X025531Y017717D01*
X025471Y017837D01*
X025591Y017777D01*
X025711Y017837D01*
X025651Y017717D01*
X025711Y017597D01*
X025591Y017657D01*
X025471Y017597D01*
X024603Y017517D02*
X024703Y017717D01*
X024603Y017917D01*
X024803Y017817D01*
X025003Y017917D01*
X024903Y017717D01*
X025003Y017517D01*
X024803Y017617D01*
X024603Y017517D01*
X024683Y017597D02*
X024743Y017717D01*
X024683Y017837D01*
X024803Y017777D01*
X024923Y017837D01*
X024863Y017717D01*
X024923Y017597D01*
X024803Y017657D01*
X024683Y017597D01*
X026178Y025391D02*
X026278Y025591D01*
X026178Y025791D01*
X026378Y025691D01*
X026578Y025791D01*
X026478Y025591D01*
X026578Y025391D01*
X026378Y025491D01*
X026178Y025391D01*
X026258Y025471D02*
X026318Y025591D01*
X026258Y025711D01*
X026378Y025651D01*
X026498Y025711D01*
X026438Y025591D01*
X026498Y025471D01*
X026378Y025531D01*
X026258Y025471D01*
X025745Y025396D02*
X025845Y025596D01*
X025745Y025796D01*
X025945Y025696D01*
X026145Y025796D01*
X026045Y025596D01*
X026145Y025396D01*
X025945Y025496D01*
X025745Y025396D01*
X025825Y025476D02*
X025885Y025596D01*
X025825Y025716D01*
X025945Y025656D01*
X026065Y025716D01*
X026005Y025596D01*
X026065Y025476D01*
X025945Y025536D01*
X025825Y025476D01*
X025194Y025391D02*
X025294Y025591D01*
X025194Y025791D01*
X025394Y025691D01*
X025594Y025791D01*
X025494Y025591D01*
X025594Y025391D01*
X025394Y025491D01*
X025194Y025391D01*
X025274Y025471D02*
X025334Y025591D01*
X025274Y025711D01*
X025394Y025651D01*
X025514Y025711D01*
X025454Y025591D01*
X025514Y025471D01*
X025394Y025531D01*
X025274Y025471D01*
X025194Y024603D02*
X025294Y024803D01*
X025194Y025003D01*
X025394Y024903D01*
X025594Y025003D01*
X025494Y024803D01*
X025594Y024603D01*
X025394Y024703D01*
X025194Y024603D01*
X025274Y024683D02*
X025334Y024803D01*
X025274Y024923D01*
X025394Y024863D01*
X025514Y024923D01*
X025454Y024803D01*
X025514Y024683D01*
X025394Y024743D01*
X025274Y024683D01*
X026178Y024603D02*
X026278Y024803D01*
X026178Y025003D01*
X026378Y024903D01*
X026578Y025003D01*
X026478Y024803D01*
X026578Y024603D01*
X026378Y024703D01*
X026178Y024603D01*
X026258Y024683D02*
X026318Y024803D01*
X026258Y024923D01*
X026378Y024863D01*
X026498Y024923D01*
X026438Y024803D01*
X026498Y024683D01*
X026378Y024743D01*
X026258Y024683D01*
X025745Y024603D02*
X025845Y024803D01*
X025745Y025003D01*
X025945Y024903D01*
X026145Y025003D01*
X026045Y024803D01*
X026145Y024603D01*
X025945Y024703D01*
X025745Y024603D01*
X025825Y024683D02*
X025885Y024803D01*
X025825Y024923D01*
X025945Y024863D01*
X026065Y024923D01*
X026005Y024803D01*
X026065Y024683D01*
X025945Y024743D01*
X025825Y024683D01*
X032563Y030702D02*
X032663Y030902D01*
X032563Y031102D01*
X032763Y031002D01*
X032963Y031102D01*
X032863Y030902D01*
X032963Y030702D01*
X032763Y030802D01*
X032563Y030702D01*
X032643Y030782D02*
X032703Y030902D01*
X032643Y031022D01*
X032763Y030962D01*
X032883Y031022D01*
X032823Y030902D01*
X032883Y030782D01*
X032763Y030842D01*
X032643Y030782D01*
X032083Y030706D02*
X032183Y030906D01*
X032083Y031106D01*
X032283Y031006D01*
X032483Y031106D01*
X032383Y030906D01*
X032483Y030706D01*
X032283Y030806D01*
X032083Y030706D01*
X032163Y030786D02*
X032223Y030906D01*
X032163Y031026D01*
X032283Y030966D01*
X032403Y031026D01*
X032343Y030906D01*
X032403Y030786D01*
X032283Y030846D01*
X032163Y030786D01*
X032083Y030115D02*
X032183Y030315D01*
X032083Y030515D01*
X032283Y030415D01*
X032483Y030515D01*
X032383Y030315D01*
X032483Y030115D01*
X032283Y030215D01*
X032083Y030115D01*
X032163Y030195D02*
X032223Y030315D01*
X032163Y030435D01*
X032283Y030375D01*
X032403Y030435D01*
X032343Y030315D01*
X032403Y030195D01*
X032283Y030255D01*
X032163Y030195D01*
X026769Y031493D02*
X026869Y031693D01*
X026769Y031893D01*
X026969Y031793D01*
X027169Y031893D01*
X027069Y031693D01*
X027169Y031493D01*
X026969Y031593D01*
X026769Y031493D01*
X026848Y031573D02*
X026909Y031693D01*
X026848Y031813D01*
X026969Y031753D01*
X027088Y031813D01*
X027029Y031693D01*
X027088Y031573D01*
X026969Y031633D01*
X026848Y031573D01*
X025981Y031493D02*
X026081Y031693D01*
X025981Y031893D01*
X026181Y031793D01*
X026381Y031893D01*
X026281Y031693D01*
X026381Y031493D01*
X026181Y031593D01*
X025981Y031493D01*
X026061Y031573D02*
X026121Y031693D01*
X026061Y031813D01*
X026181Y031753D01*
X026301Y031813D01*
X026241Y031693D01*
X026301Y031573D01*
X026181Y031633D01*
X026061Y031573D01*
X025194Y031493D02*
X025294Y031693D01*
X025194Y031893D01*
X025394Y031793D01*
X025594Y031893D01*
X025494Y031693D01*
X025594Y031493D01*
X025394Y031593D01*
X025194Y031493D01*
X025274Y031573D02*
X025334Y031693D01*
X025274Y031813D01*
X025394Y031753D01*
X025514Y031813D01*
X025454Y031693D01*
X025514Y031573D01*
X025394Y031633D01*
X025274Y031573D01*
X024406Y031493D02*
X024506Y031693D01*
X024406Y031893D01*
X024606Y031793D01*
X024806Y031893D01*
X024706Y031693D01*
X024806Y031493D01*
X024606Y031593D01*
X024406Y031493D01*
X024486Y031573D02*
X024546Y031693D01*
X024486Y031813D01*
X024606Y031753D01*
X024726Y031813D01*
X024666Y031693D01*
X024726Y031573D01*
X024606Y031633D01*
X024486Y031573D01*
X023619Y031493D02*
X023719Y031693D01*
X023619Y031893D01*
X023819Y031793D01*
X024019Y031893D01*
X023919Y031693D01*
X024019Y031493D01*
X023819Y031593D01*
X023619Y031493D01*
X023699Y031573D02*
X023759Y031693D01*
X023699Y031813D01*
X023819Y031753D01*
X023939Y031813D01*
X023879Y031693D01*
X023939Y031573D01*
X023819Y031633D01*
X023699Y031573D01*
X023619Y032083D02*
X023719Y032283D01*
X023619Y032483D01*
X023819Y032383D01*
X024019Y032483D01*
X023919Y032283D01*
X024019Y032083D01*
X023819Y032183D01*
X023619Y032083D01*
X023699Y032163D02*
X023759Y032283D01*
X023699Y032403D01*
X023819Y032343D01*
X023939Y032403D01*
X023879Y032283D01*
X023939Y032163D01*
X023819Y032223D01*
X023699Y032163D01*
X024406Y032083D02*
X024506Y032283D01*
X024406Y032483D01*
X024606Y032383D01*
X024806Y032483D01*
X024706Y032283D01*
X024806Y032083D01*
X024606Y032183D01*
X024406Y032083D01*
X024486Y032163D02*
X024546Y032283D01*
X024486Y032403D01*
X024606Y032343D01*
X024726Y032403D01*
X024666Y032283D01*
X024726Y032163D01*
X024606Y032223D01*
X024486Y032163D01*
X025194Y032083D02*
X025294Y032283D01*
X025194Y032483D01*
X025394Y032383D01*
X025594Y032483D01*
X025494Y032283D01*
X025594Y032083D01*
X025394Y032183D01*
X025194Y032083D01*
X025274Y032163D02*
X025334Y032283D01*
X025274Y032403D01*
X025394Y032343D01*
X025514Y032403D01*
X025454Y032283D01*
X025514Y032163D01*
X025394Y032223D01*
X025274Y032163D01*
X025981Y032083D02*
X026081Y032283D01*
X025981Y032483D01*
X026181Y032383D01*
X026381Y032483D01*
X026281Y032283D01*
X026381Y032083D01*
X026181Y032183D01*
X025981Y032083D01*
X026061Y032163D02*
X026121Y032283D01*
X026061Y032403D01*
X026181Y032343D01*
X026301Y032403D01*
X026241Y032283D01*
X026301Y032163D01*
X026181Y032223D01*
X026061Y032163D01*
X026769Y032083D02*
X026869Y032283D01*
X026769Y032483D01*
X026969Y032383D01*
X027169Y032483D01*
X027069Y032283D01*
X027169Y032083D01*
X026969Y032183D01*
X026769Y032083D01*
X026848Y032163D02*
X026909Y032283D01*
X026848Y032403D01*
X026969Y032343D01*
X027088Y032403D01*
X027029Y032283D01*
X027088Y032163D01*
X026969Y032223D01*
X026848Y032163D01*
X029131Y032083D02*
X029231Y032283D01*
X029131Y032483D01*
X029331Y032383D01*
X029531Y032483D01*
X029431Y032283D01*
X029531Y032083D01*
X029331Y032183D01*
X029131Y032083D01*
X029211Y032163D02*
X029271Y032283D01*
X029211Y032403D01*
X029331Y032343D01*
X029451Y032403D01*
X029391Y032283D01*
X029451Y032163D01*
X029331Y032223D01*
X029211Y032163D01*
X030312Y032083D02*
X030412Y032283D01*
X030312Y032483D01*
X030512Y032383D01*
X030712Y032483D01*
X030612Y032283D01*
X030712Y032083D01*
X030512Y032183D01*
X030312Y032083D01*
X030392Y032163D02*
X030452Y032283D01*
X030392Y032403D01*
X030512Y032343D01*
X030632Y032403D01*
X030572Y032283D01*
X030632Y032163D01*
X030512Y032223D01*
X030392Y032163D01*
X029131Y031493D02*
X029231Y031693D01*
X029131Y031893D01*
X029331Y031793D01*
X029531Y031893D01*
X029431Y031693D01*
X029531Y031493D01*
X029331Y031593D01*
X029131Y031493D01*
X029211Y031573D02*
X029271Y031693D01*
X029211Y031813D01*
X029331Y031753D01*
X029451Y031813D01*
X029391Y031693D01*
X029451Y031573D01*
X029331Y031633D01*
X029211Y031573D01*
X030312Y031493D02*
X030412Y031693D01*
X030312Y031893D01*
X030512Y031793D01*
X030712Y031893D01*
X030612Y031693D01*
X030712Y031493D01*
X030512Y031593D01*
X030312Y031493D01*
X030392Y031573D02*
X030452Y031693D01*
X030392Y031813D01*
X030512Y031753D01*
X030632Y031813D01*
X030572Y031693D01*
X030632Y031573D01*
X030512Y031633D01*
X030392Y031573D01*
X029721Y032083D02*
X029821Y032283D01*
X029721Y032483D01*
X029921Y032383D01*
X030121Y032483D01*
X030021Y032283D01*
X030121Y032083D01*
X029921Y032183D01*
X029721Y032083D01*
X029801Y032163D02*
X029861Y032283D01*
X029801Y032403D01*
X029921Y032343D01*
X030041Y032403D01*
X029981Y032283D01*
X030041Y032163D01*
X029921Y032223D01*
X029801Y032163D01*
X029721Y031493D02*
X029821Y031693D01*
X029721Y031893D01*
X029921Y031793D01*
X030121Y031893D01*
X030021Y031693D01*
X030121Y031493D01*
X029921Y031593D01*
X029721Y031493D01*
X029801Y031573D02*
X029861Y031693D01*
X029801Y031813D01*
X029921Y031753D01*
X030041Y031813D01*
X029981Y031693D01*
X030041Y031573D01*
X029921Y031633D01*
X029801Y031573D01*
X022241Y022831D02*
X022341Y023031D01*
X022241Y023231D01*
X022441Y023131D01*
X022641Y023231D01*
X022541Y023031D01*
X022641Y022831D01*
X022441Y022931D01*
X022241Y022831D01*
X022321Y022912D02*
X022381Y023031D01*
X022321Y023152D01*
X022441Y023091D01*
X022561Y023152D01*
X022501Y023031D01*
X022561Y022912D01*
X022441Y022971D01*
X022321Y022912D01*
X038776Y027162D02*
X038876Y027362D01*
X038776Y027562D01*
X038976Y027462D01*
X039176Y027562D01*
X039076Y027362D01*
X039176Y027162D01*
X038976Y027262D01*
X038776Y027162D01*
X038856Y027242D02*
X038916Y027362D01*
X038856Y027482D01*
X038976Y027422D01*
X039096Y027482D01*
X039036Y027362D01*
X039096Y027242D01*
X038976Y027302D01*
X038856Y027242D01*
X039367Y027162D02*
X039467Y027362D01*
X039367Y027562D01*
X039567Y027462D01*
X039767Y027562D01*
X039667Y027362D01*
X039767Y027162D01*
X039567Y027262D01*
X039367Y027162D01*
X039447Y027242D02*
X039507Y027362D01*
X039447Y027482D01*
X039567Y027422D01*
X039687Y027482D01*
X039627Y027362D01*
X039687Y027242D01*
X039567Y027302D01*
X039447Y027242D01*
X039957Y027162D02*
X040057Y027362D01*
X039957Y027562D01*
X040157Y027462D01*
X040357Y027562D01*
X040257Y027362D01*
X040357Y027162D01*
X040157Y027262D01*
X039957Y027162D01*
X040037Y027242D02*
X040097Y027362D01*
X040037Y027482D01*
X040157Y027422D01*
X040277Y027482D01*
X040217Y027362D01*
X040277Y027242D01*
X040157Y027302D01*
X040037Y027242D01*
X044485Y032477D02*
X044585Y032677D01*
X044485Y032877D01*
X044685Y032777D01*
X044885Y032877D01*
X044785Y032677D01*
X044885Y032477D01*
X044685Y032577D01*
X044485Y032477D01*
X044565Y032557D02*
X044625Y032677D01*
X044565Y032797D01*
X044685Y032737D01*
X044805Y032797D01*
X044745Y032677D01*
X044805Y032557D01*
X044685Y032617D01*
X044565Y032557D01*
X044485Y033068D02*
X044585Y033268D01*
X044485Y033468D01*
X044685Y033368D01*
X044885Y033468D01*
X044785Y033268D01*
X044885Y033068D01*
X044685Y033168D01*
X044485Y033068D01*
X044565Y033148D02*
X044625Y033268D01*
X044565Y033388D01*
X044685Y033328D01*
X044805Y033388D01*
X044745Y033268D01*
X044805Y033148D01*
X044685Y033208D01*
X044565Y033148D01*
X045076Y032477D02*
X045176Y032677D01*
X045076Y032877D01*
X045276Y032777D01*
X045476Y032877D01*
X045376Y032677D01*
X045476Y032477D01*
X045276Y032577D01*
X045076Y032477D01*
X045156Y032557D02*
X045216Y032677D01*
X045156Y032797D01*
X045276Y032737D01*
X045396Y032797D01*
X045336Y032677D01*
X045396Y032557D01*
X045276Y032617D01*
X045156Y032557D01*
X045076Y033068D02*
X045176Y033268D01*
X045076Y033468D01*
X045276Y033368D01*
X045476Y033468D01*
X045376Y033268D01*
X045476Y033068D01*
X045276Y033168D01*
X045076Y033068D01*
X045156Y033148D02*
X045216Y033268D01*
X045156Y033388D01*
X045276Y033328D01*
X045396Y033388D01*
X045336Y033268D01*
X045396Y033148D01*
X045276Y033208D01*
X045156Y033148D01*
X043107Y034446D02*
X043207Y034646D01*
X043107Y034846D01*
X043307Y034746D01*
X043507Y034846D01*
X043407Y034646D01*
X043507Y034446D01*
X043307Y034546D01*
X043107Y034446D01*
X043187Y034526D02*
X043247Y034646D01*
X043187Y034766D01*
X043307Y034706D01*
X043427Y034766D01*
X043367Y034646D01*
X043427Y034526D01*
X043307Y034586D01*
X043187Y034526D01*
X043107Y033461D02*
X043207Y033661D01*
X043107Y033861D01*
X043307Y033761D01*
X043507Y033861D01*
X043407Y033661D01*
X043507Y033461D01*
X043307Y033561D01*
X043107Y033461D01*
X043187Y033541D02*
X043247Y033661D01*
X043187Y033781D01*
X043307Y033721D01*
X043427Y033781D01*
X043367Y033661D01*
X043427Y033541D01*
X043307Y033601D01*
X043187Y033541D01*
X043107Y034052D02*
X043207Y034252D01*
X043107Y034452D01*
X043307Y034352D01*
X043507Y034452D01*
X043407Y034252D01*
X043507Y034052D01*
X043307Y034152D01*
X043107Y034052D01*
X043187Y034132D02*
X043247Y034252D01*
X043187Y034372D01*
X043307Y034312D01*
X043427Y034372D01*
X043367Y034252D01*
X043427Y034132D01*
X043307Y034192D01*
X043187Y034132D01*
X042713Y034446D02*
X042813Y034646D01*
X042713Y034846D01*
X042913Y034746D01*
X043113Y034846D01*
X043013Y034646D01*
X043113Y034446D01*
X042913Y034546D01*
X042713Y034446D01*
X042793Y034526D02*
X042853Y034646D01*
X042793Y034766D01*
X042913Y034706D01*
X043033Y034766D01*
X042973Y034646D01*
X043033Y034526D01*
X042913Y034586D01*
X042793Y034526D01*
X042713Y034052D02*
X042813Y034252D01*
X042713Y034452D01*
X042913Y034352D01*
X043113Y034452D01*
X043013Y034252D01*
X043113Y034052D01*
X042913Y034152D01*
X042713Y034052D01*
X042793Y034132D02*
X042853Y034252D01*
X042793Y034372D01*
X042913Y034312D01*
X043033Y034372D01*
X042973Y034252D01*
X043033Y034132D01*
X042913Y034192D01*
X042793Y034132D01*
X042713Y033461D02*
X042813Y033661D01*
X042713Y033861D01*
X042913Y033761D01*
X043113Y033861D01*
X043013Y033661D01*
X043113Y033461D01*
X042913Y033561D01*
X042713Y033461D01*
X042793Y033541D02*
X042853Y033661D01*
X042793Y033781D01*
X042913Y033721D01*
X043033Y033781D01*
X042973Y033661D01*
X043033Y033541D01*
X042913Y033601D01*
X042793Y033541D01*
X043501Y033461D02*
X043601Y033661D01*
X043501Y033861D01*
X043701Y033761D01*
X043901Y033861D01*
X043801Y033661D01*
X043901Y033461D01*
X043701Y033561D01*
X043501Y033461D01*
X043581Y033541D02*
X043641Y033661D01*
X043581Y033781D01*
X043701Y033721D01*
X043821Y033781D01*
X043761Y033661D01*
X043821Y033541D01*
X043701Y033601D01*
X043581Y033541D01*
X043501Y034052D02*
X043601Y034252D01*
X043501Y034452D01*
X043701Y034352D01*
X043901Y034452D01*
X043801Y034252D01*
X043901Y034052D01*
X043701Y034152D01*
X043501Y034052D01*
X043581Y034132D02*
X043641Y034252D01*
X043581Y034372D01*
X043701Y034312D01*
X043821Y034372D01*
X043761Y034252D01*
X043821Y034132D01*
X043701Y034192D01*
X043581Y034132D01*
X043501Y034643D02*
X043601Y034843D01*
X043501Y035043D01*
X043701Y034943D01*
X043901Y035043D01*
X043801Y034843D01*
X043901Y034643D01*
X043701Y034743D01*
X043501Y034643D01*
X043581Y034723D02*
X043641Y034843D01*
X043581Y034963D01*
X043701Y034903D01*
X043821Y034963D01*
X043761Y034843D01*
X043821Y034723D01*
X043701Y034783D01*
X043581Y034723D01*
X034052Y018304D02*
X034152Y018504D01*
X034052Y018704D01*
X034252Y018604D01*
X034452Y018704D01*
X034352Y018504D01*
X034452Y018304D01*
X034252Y018404D01*
X034052Y018304D01*
X034132Y018384D02*
X034192Y018504D01*
X034132Y018624D01*
X034252Y018564D01*
X034372Y018624D01*
X034312Y018504D01*
X034372Y018384D01*
X034252Y018444D01*
X034132Y018384D01*
X049013Y031296D02*
X049113Y031496D01*
X049013Y031696D01*
X049213Y031596D01*
X049413Y031696D01*
X049313Y031496D01*
X049413Y031296D01*
X049213Y031396D01*
X049013Y031296D01*
X049093Y031376D02*
X049153Y031496D01*
X049093Y031616D01*
X049213Y031556D01*
X049333Y031616D01*
X049273Y031496D01*
X049333Y031376D01*
X049213Y031436D01*
X049093Y031376D01*
X049603Y031296D02*
X049703Y031496D01*
X049603Y031696D01*
X049803Y031596D01*
X050003Y031696D01*
X049903Y031496D01*
X050003Y031296D01*
X049803Y031396D01*
X049603Y031296D01*
X049683Y031376D02*
X049743Y031496D01*
X049683Y031616D01*
X049803Y031556D01*
X049923Y031616D01*
X049863Y031496D01*
X049923Y031376D01*
X049803Y031436D01*
X049683Y031376D01*
X050194Y031493D02*
X050294Y031693D01*
X050194Y031893D01*
X050394Y031793D01*
X050594Y031893D01*
X050494Y031693D01*
X050594Y031493D01*
X050394Y031593D01*
X050194Y031493D01*
X050274Y031573D02*
X050334Y031693D01*
X050274Y031813D01*
X050394Y031753D01*
X050514Y031813D01*
X050454Y031693D01*
X050514Y031573D01*
X050394Y031633D01*
X050274Y031573D01*
X050784Y031493D02*
X050884Y031693D01*
X050784Y031893D01*
X050984Y031793D01*
X051184Y031893D01*
X051084Y031693D01*
X051184Y031493D01*
X050984Y031593D01*
X050784Y031493D01*
X050864Y031573D02*
X050924Y031693D01*
X050864Y031813D01*
X050984Y031753D01*
X051104Y031813D01*
X051044Y031693D01*
X051104Y031573D01*
X050984Y031633D01*
X050864Y031573D01*
X051375Y031493D02*
X051475Y031693D01*
X051375Y031893D01*
X051575Y031793D01*
X051775Y031893D01*
X051675Y031693D01*
X051775Y031493D01*
X051575Y031593D01*
X051375Y031493D01*
X051455Y031573D02*
X051515Y031693D01*
X051455Y031813D01*
X051575Y031753D01*
X051695Y031813D01*
X051635Y031693D01*
X051695Y031573D01*
X051575Y031633D01*
X051455Y031573D01*
X051375Y02854D02*
X051475Y02874D01*
X051375Y02894D01*
X051575Y02884D01*
X051775Y02894D01*
X051675Y02874D01*
X051775Y02854D01*
X051575Y02864D01*
X051375Y02854D01*
X051455Y02862D02*
X051515Y02874D01*
X051455Y02886D01*
X051575Y0288D01*
X051695Y02886D01*
X051635Y02874D01*
X051695Y02862D01*
X051575Y02868D01*
X051455Y02862D01*
X050194Y02854D02*
X050294Y02874D01*
X050194Y02894D01*
X050394Y02884D01*
X050594Y02894D01*
X050494Y02874D01*
X050594Y02854D01*
X050394Y02864D01*
X050194Y02854D01*
X050274Y02862D02*
X050334Y02874D01*
X050274Y02886D01*
X050394Y0288D01*
X050514Y02886D01*
X050454Y02874D01*
X050514Y02862D01*
X050394Y02868D01*
X050274Y02862D01*
X050784Y02854D02*
X050884Y02874D01*
X050784Y02894D01*
X050984Y02884D01*
X051184Y02894D01*
X051084Y02874D01*
X051184Y02854D01*
X050984Y02864D01*
X050784Y02854D01*
X050864Y02862D02*
X050924Y02874D01*
X050864Y02886D01*
X050984Y0288D01*
X051104Y02886D01*
X051044Y02874D01*
X051104Y02862D01*
X050984Y02868D01*
X050864Y02862D01*
X051375Y032083D02*
X051475Y032283D01*
X051375Y032483D01*
X051575Y032383D01*
X051775Y032483D01*
X051675Y032283D01*
X051775Y032083D01*
X051575Y032183D01*
X051375Y032083D01*
X051455Y032163D02*
X051515Y032283D01*
X051455Y032403D01*
X051575Y032343D01*
X051695Y032403D01*
X051635Y032283D01*
X051695Y032163D01*
X051575Y032223D01*
X051455Y032163D01*
X050587Y032083D02*
X050687Y032283D01*
X050587Y032483D01*
X050787Y032383D01*
X050987Y032483D01*
X050887Y032283D01*
X050987Y032083D01*
X050787Y032183D01*
X050587Y032083D01*
X050667Y032163D02*
X050727Y032283D01*
X050667Y032403D01*
X050787Y032343D01*
X050907Y032403D01*
X050847Y032283D01*
X050907Y032163D01*
X050787Y032223D01*
X050667Y032163D01*
X050587Y032674D02*
X050687Y032874D01*
X050587Y033074D01*
X050787Y032974D01*
X050987Y033074D01*
X050887Y032874D01*
X050987Y032674D01*
X050787Y032774D01*
X050587Y032674D01*
X050667Y032754D02*
X050727Y032874D01*
X050667Y032994D01*
X050787Y032934D01*
X050907Y032994D01*
X050847Y032874D01*
X050907Y032754D01*
X050787Y032814D01*
X050667Y032754D01*
X051375Y032674D02*
X051475Y032874D01*
X051375Y033074D01*
X051575Y032974D01*
X051775Y033074D01*
X051675Y032874D01*
X051775Y032674D01*
X051575Y032774D01*
X051375Y032674D01*
X051455Y032754D02*
X051515Y032874D01*
X051455Y032994D01*
X051575Y032934D01*
X051695Y032994D01*
X051635Y032874D01*
X051695Y032754D01*
X051575Y032814D01*
X051455Y032754D01*
X051375Y034249D02*
X051475Y034449D01*
X051375Y034649D01*
X051575Y034549D01*
X051775Y034649D01*
X051675Y034449D01*
X051775Y034249D01*
X051575Y034349D01*
X051375Y034249D01*
X051455Y034329D02*
X051515Y034449D01*
X051455Y034569D01*
X051575Y034509D01*
X051695Y034569D01*
X051635Y034449D01*
X051695Y034329D01*
X051575Y034389D01*
X051455Y034329D01*
X050587Y034249D02*
X050687Y034449D01*
X050587Y034649D01*
X050787Y034549D01*
X050987Y034649D01*
X050887Y034449D01*
X050987Y034249D01*
X050787Y034349D01*
X050587Y034249D01*
X050667Y034329D02*
X050727Y034449D01*
X050667Y034569D01*
X050787Y034509D01*
X050907Y034569D01*
X050847Y034449D01*
X050907Y034329D01*
X050787Y034389D01*
X050667Y034329D01*
X050587Y033658D02*
X050687Y033858D01*
X050587Y034058D01*
X050787Y033958D01*
X050987Y034058D01*
X050887Y033858D01*
X050987Y033658D01*
X050787Y033758D01*
X050587Y033658D01*
X050667Y033738D02*
X050727Y033858D01*
X050667Y033978D01*
X050787Y033918D01*
X050907Y033978D01*
X050847Y033858D01*
X050907Y033738D01*
X050787Y033798D01*
X050667Y033738D01*
X051375Y033658D02*
X051475Y033858D01*
X051375Y034058D01*
X051575Y033958D01*
X051775Y034058D01*
X051675Y033858D01*
X051775Y033658D01*
X051575Y033758D01*
X051375Y033658D01*
X051455Y033738D02*
X051515Y033858D01*
X051455Y033978D01*
X051575Y033918D01*
X051695Y033978D01*
X051635Y033858D01*
X051695Y033738D01*
X051575Y033798D01*
X051455Y033738D01*
X051375Y037202D02*
X051475Y037402D01*
X051375Y037602D01*
X051575Y037502D01*
X051775Y037602D01*
X051675Y037402D01*
X051775Y037202D01*
X051575Y037302D01*
X051375Y037202D01*
X051455Y037282D02*
X051515Y037402D01*
X051455Y037522D01*
X051575Y037462D01*
X051695Y037522D01*
X051635Y037402D01*
X051695Y037282D01*
X051575Y037342D01*
X051455Y037282D01*
X050587Y037202D02*
X050687Y037402D01*
X050587Y037602D01*
X050787Y037502D01*
X050987Y037602D01*
X050887Y037402D01*
X050987Y037202D01*
X050787Y037302D01*
X050587Y037202D01*
X050667Y037282D02*
X050727Y037402D01*
X050667Y037522D01*
X050787Y037462D01*
X050907Y037522D01*
X050847Y037402D01*
X050907Y037282D01*
X050787Y037342D01*
X050667Y037282D01*
X051375Y035036D02*
X051475Y035236D01*
X051375Y035436D01*
X051575Y035336D01*
X051775Y035436D01*
X051675Y035236D01*
X051775Y035036D01*
X051575Y035136D01*
X051375Y035036D01*
X051455Y035116D02*
X051515Y035236D01*
X051455Y035356D01*
X051575Y035296D01*
X051695Y035356D01*
X051635Y035236D01*
X051695Y035116D01*
X051575Y035176D01*
X051455Y035116D01*
X050587Y035036D02*
X050687Y035236D01*
X050587Y035436D01*
X050787Y035336D01*
X050987Y035436D01*
X050887Y035236D01*
X050987Y035036D01*
X050787Y035136D01*
X050587Y035036D01*
X050667Y035116D02*
X050727Y035236D01*
X050667Y035356D01*
X050787Y035296D01*
X050907Y035356D01*
X050847Y035236D01*
X050907Y035116D01*
X050787Y035176D01*
X050667Y035116D01*
X050587Y035627D02*
X050687Y035827D01*
X050587Y036027D01*
X050787Y035927D01*
X050987Y036027D01*
X050887Y035827D01*
X050987Y035627D01*
X050787Y035727D01*
X050587Y035627D01*
X050667Y035707D02*
X050727Y035827D01*
X050667Y035947D01*
X050787Y035887D01*
X050907Y035947D01*
X050847Y035827D01*
X050907Y035707D01*
X050787Y035767D01*
X050667Y035707D01*
X051375Y035627D02*
X051475Y035827D01*
X051375Y036027D01*
X051575Y035927D01*
X051775Y036027D01*
X051675Y035827D01*
X051775Y035627D01*
X051575Y035727D01*
X051375Y035627D01*
X051455Y035707D02*
X051515Y035827D01*
X051455Y035947D01*
X051575Y035887D01*
X051695Y035947D01*
X051635Y035827D01*
X051695Y035707D01*
X051575Y035767D01*
X051455Y035707D01*
X051375Y036611D02*
X051475Y036811D01*
X051375Y037011D01*
X051575Y036911D01*
X051775Y037011D01*
X051675Y036811D01*
X051775Y036611D01*
X051575Y036711D01*
X051375Y036611D01*
X051455Y036691D02*
X051515Y036811D01*
X051455Y036931D01*
X051575Y036871D01*
X051695Y036931D01*
X051635Y036811D01*
X051695Y036691D01*
X051575Y036751D01*
X051455Y036691D01*
X050587Y036611D02*
X050687Y036811D01*
X050587Y037011D01*
X050787Y036911D01*
X050987Y037011D01*
X050887Y036811D01*
X050987Y036611D01*
X050787Y036711D01*
X050587Y036611D01*
X050667Y036691D02*
X050727Y036811D01*
X050667Y036931D01*
X050787Y036871D01*
X050907Y036931D01*
X050847Y036811D01*
X050907Y036691D01*
X050787Y036751D01*
X050667Y036691D01*
X042713Y038383D02*
X042813Y038583D01*
X042713Y038783D01*
X042913Y038683D01*
X043113Y038783D01*
X043013Y038583D01*
X043113Y038383D01*
X042913Y038483D01*
X042713Y038383D01*
X042793Y038463D02*
X042853Y038583D01*
X042793Y038703D01*
X042913Y038643D01*
X043033Y038703D01*
X042973Y038583D01*
X043033Y038463D01*
X042913Y038523D01*
X042793Y038463D01*
X042713Y038973D02*
X042813Y039173D01*
X042713Y039373D01*
X042913Y039273D01*
X043113Y039373D01*
X043013Y039173D01*
X043113Y038973D01*
X042913Y039073D01*
X042713Y038973D01*
X042793Y039053D02*
X042853Y039173D01*
X042793Y039293D01*
X042913Y039233D01*
X043033Y039293D01*
X042973Y039173D01*
X043033Y039053D01*
X042913Y039113D01*
X042793Y039053D01*
X043304Y038973D02*
X043404Y039173D01*
X043304Y039373D01*
X043504Y039273D01*
X043704Y039373D01*
X043604Y039173D01*
X043704Y038973D01*
X043504Y039073D01*
X043304Y038973D01*
X043384Y039053D02*
X043444Y039173D01*
X043384Y039293D01*
X043504Y039233D01*
X043624Y039293D01*
X043564Y039173D01*
X043624Y039053D01*
X043504Y039113D01*
X043384Y039053D01*
X043894Y038973D02*
X043994Y039173D01*
X043894Y039373D01*
X044094Y039273D01*
X044294Y039373D01*
X044194Y039173D01*
X044294Y038973D01*
X044094Y039073D01*
X043894Y038973D01*
X043974Y039053D02*
X044034Y039173D01*
X043974Y039293D01*
X044094Y039233D01*
X044214Y039293D01*
X044154Y039173D01*
X044214Y039053D01*
X044094Y039113D01*
X043974Y039053D01*
X044485Y038973D02*
X044585Y039173D01*
X044485Y039373D01*
X044685Y039273D01*
X044885Y039373D01*
X044785Y039173D01*
X044885Y038973D01*
X044685Y039073D01*
X044485Y038973D01*
X044565Y039053D02*
X044625Y039173D01*
X044565Y039293D01*
X044685Y039233D01*
X044805Y039293D01*
X044745Y039173D01*
X044805Y039053D01*
X044685Y039113D01*
X044565Y039053D01*
X045076Y038973D02*
X045176Y039173D01*
X045076Y039373D01*
X045276Y039273D01*
X045476Y039373D01*
X045376Y039173D01*
X045476Y038973D01*
X045276Y039073D01*
X045076Y038973D01*
X045156Y039053D02*
X045216Y039173D01*
X045156Y039293D01*
X045276Y039233D01*
X045396Y039293D01*
X045336Y039173D01*
X045396Y039053D01*
X045276Y039113D01*
X045156Y039053D01*
X045666Y038973D02*
X045766Y039173D01*
X045666Y039373D01*
X045866Y039273D01*
X046066Y039373D01*
X045966Y039173D01*
X046066Y038973D01*
X045866Y039073D01*
X045666Y038973D01*
X045746Y039053D02*
X045806Y039173D01*
X045746Y039293D01*
X045866Y039233D01*
X045986Y039293D01*
X045926Y039173D01*
X045986Y039053D01*
X045866Y039113D01*
X045746Y039053D01*
X031808Y033461D02*
X031908Y033661D01*
X031808Y033861D01*
X032008Y033761D01*
X032208Y033861D01*
X032108Y033661D01*
X032208Y033461D01*
X032008Y033561D01*
X031808Y033461D01*
X031888Y033541D02*
X031948Y033661D01*
X031888Y033781D01*
X032008Y033721D01*
X032128Y033781D01*
X032068Y033661D01*
X032128Y033541D01*
X032008Y033601D01*
X031888Y033541D01*
X033461Y038973D02*
X033561Y039173D01*
X033461Y039373D01*
X033661Y039273D01*
X033861Y039373D01*
X033761Y039173D01*
X033861Y038973D01*
X033661Y039073D01*
X033461Y038973D01*
X033541Y039053D02*
X033601Y039173D01*
X033541Y039293D01*
X033661Y039233D01*
X033781Y039293D01*
X033721Y039173D01*
X033781Y039053D01*
X033661Y039113D01*
X033541Y039053D01*
X034052Y038973D02*
X034152Y039173D01*
X034052Y039373D01*
X034252Y039273D01*
X034452Y039373D01*
X034352Y039173D01*
X034452Y038973D01*
X034252Y039073D01*
X034052Y038973D01*
X034132Y039053D02*
X034192Y039173D01*
X034132Y039293D01*
X034252Y039233D01*
X034372Y039293D01*
X034312Y039173D01*
X034372Y039053D01*
X034252Y039113D01*
X034132Y039053D01*
X034643Y038973D02*
X034743Y039173D01*
X034643Y039373D01*
X034843Y039273D01*
X035043Y039373D01*
X034943Y039173D01*
X035043Y038973D01*
X034843Y039073D01*
X034643Y038973D01*
X034723Y039053D02*
X034783Y039173D01*
X034723Y039293D01*
X034843Y039233D01*
X034963Y039293D01*
X034903Y039173D01*
X034963Y039053D01*
X034843Y039113D01*
X034723Y039053D01*
X034643Y038383D02*
X034743Y038583D01*
X034643Y038783D01*
X034843Y038683D01*
X035043Y038783D01*
X034943Y038583D01*
X035043Y038383D01*
X034843Y038483D01*
X034643Y038383D01*
X034723Y038463D02*
X034783Y038583D01*
X034723Y038703D01*
X034843Y038643D01*
X034963Y038703D01*
X034903Y038583D01*
X034963Y038463D01*
X034843Y038523D01*
X034723Y038463D01*
X034052Y038383D02*
X034152Y038583D01*
X034052Y038783D01*
X034252Y038683D01*
X034452Y038783D01*
X034352Y038583D01*
X034452Y038383D01*
X034252Y038483D01*
X034052Y038383D01*
X034132Y038463D02*
X034192Y038583D01*
X034132Y038703D01*
X034252Y038643D01*
X034372Y038703D01*
X034312Y038583D01*
X034372Y038463D01*
X034252Y038523D01*
X034132Y038463D01*
X033461Y038383D02*
X033561Y038583D01*
X033461Y038783D01*
X033661Y038683D01*
X033861Y038783D01*
X033761Y038583D01*
X033861Y038383D01*
X033661Y038483D01*
X033461Y038383D01*
X033541Y038463D02*
X033601Y038583D01*
X033541Y038703D01*
X033661Y038643D01*
X033781Y038703D01*
X033721Y038583D01*
X033781Y038463D01*
X033661Y038523D01*
X033541Y038463D01*
X032871Y038973D02*
X032971Y039173D01*
X032871Y039373D01*
X033071Y039273D01*
X033271Y039373D01*
X033171Y039173D01*
X033271Y038973D01*
X033071Y039073D01*
X032871Y038973D01*
X032951Y039053D02*
X033011Y039173D01*
X032951Y039293D01*
X033071Y039233D01*
X033191Y039293D01*
X033131Y039173D01*
X033191Y039053D01*
X033071Y039113D01*
X032951Y039053D01*
X03228Y038973D02*
X03238Y039173D01*
X03228Y039373D01*
X03248Y039273D01*
X03268Y039373D01*
X03258Y039173D01*
X03268Y038973D01*
X03248Y039073D01*
X03228Y038973D01*
X03236Y039053D02*
X03242Y039173D01*
X03236Y039293D01*
X03248Y039233D01*
X0326Y039293D01*
X03254Y039173D01*
X0326Y039053D01*
X03248Y039113D01*
X03236Y039053D01*
X03169Y038973D02*
X03179Y039173D01*
X03169Y039373D01*
X03189Y039273D01*
X03209Y039373D01*
X03199Y039173D01*
X03209Y038973D01*
X03189Y039073D01*
X03169Y038973D01*
X03177Y039053D02*
X03183Y039173D01*
X03177Y039293D01*
X03189Y039233D01*
X03201Y039293D01*
X03195Y039173D01*
X03201Y039053D01*
X03189Y039113D01*
X03177Y039053D01*
X03169Y038383D02*
X03179Y038583D01*
X03169Y038783D01*
X03189Y038683D01*
X03209Y038783D01*
X03199Y038583D01*
X03209Y038383D01*
X03189Y038483D01*
X03169Y038383D01*
X03177Y038463D02*
X03183Y038583D01*
X03177Y038703D01*
X03189Y038643D01*
X03201Y038703D01*
X03195Y038583D01*
X03201Y038463D01*
X03189Y038523D01*
X03177Y038463D01*
X032871Y038383D02*
X032971Y038583D01*
X032871Y038783D01*
X033071Y038683D01*
X033271Y038783D01*
X033171Y038583D01*
X033271Y038383D01*
X033071Y038483D01*
X032871Y038383D01*
X032951Y038463D02*
X033011Y038583D01*
X032951Y038703D01*
X033071Y038643D01*
X033191Y038703D01*
X033131Y038583D01*
X033191Y038463D01*
X033071Y038523D01*
X032951Y038463D01*
X03228Y038383D02*
X03238Y038583D01*
X03228Y038783D01*
X03248Y038683D01*
X03268Y038783D01*
X03258Y038583D01*
X03268Y038383D01*
X03248Y038483D01*
X03228Y038383D01*
X03236Y038463D02*
X03242Y038583D01*
X03236Y038703D01*
X03248Y038643D01*
X0326Y038703D01*
X03254Y038583D01*
X0326Y038463D01*
X03248Y038523D01*
X03236Y038463D01*
X051375Y031099D02*
X051475Y031299D01*
X051375Y031499D01*
X051575Y031399D01*
X051775Y031499D01*
X051675Y031299D01*
X051775Y031099D01*
X051575Y031199D01*
X051375Y031099D01*
X051455Y031179D02*
X051515Y031299D01*
X051455Y031419D01*
X051575Y031359D01*
X051695Y031419D01*
X051635Y031299D01*
X051695Y031179D01*
X051575Y031239D01*
X051455Y031179D01*
X050784Y031099D02*
X050884Y031299D01*
X050784Y031499D01*
X050984Y031399D01*
X051184Y031499D01*
X051084Y031299D01*
X051184Y031099D01*
X050984Y031199D01*
X050784Y031099D01*
X050864Y031179D02*
X050924Y031299D01*
X050864Y031419D01*
X050984Y031359D01*
X051104Y031419D01*
X051044Y031299D01*
X051104Y031179D01*
X050984Y031239D01*
X050864Y031179D01*
X050194Y031099D02*
X050294Y031299D01*
X050194Y031499D01*
X050394Y031399D01*
X050594Y031499D01*
X050494Y031299D01*
X050594Y031099D01*
X050394Y031199D01*
X050194Y031099D01*
X050274Y031179D02*
X050334Y031299D01*
X050274Y031419D01*
X050394Y031359D01*
X050514Y031419D01*
X050454Y031299D01*
X050514Y031179D01*
X050394Y031239D01*
X050274Y031179D01*
X049603Y030706D02*
X049703Y030906D01*
X049603Y031106D01*
X049803Y031006D01*
X050003Y031106D01*
X049903Y030906D01*
X050003Y030706D01*
X049803Y030806D01*
X049603Y030706D01*
X049683Y030786D02*
X049743Y030906D01*
X049683Y031026D01*
X049803Y030966D01*
X049923Y031026D01*
X049863Y030906D01*
X049923Y030786D01*
X049803Y030846D01*
X049683Y030786D01*
X049013Y030706D02*
X049113Y030906D01*
X049013Y031106D01*
X049213Y031006D01*
X049413Y031106D01*
X049313Y030906D01*
X049413Y030706D01*
X049213Y030806D01*
X049013Y030706D01*
X049093Y030786D02*
X049153Y030906D01*
X049093Y031026D01*
X049213Y030966D01*
X049333Y031026D01*
X049273Y030906D01*
X049333Y030786D01*
X049213Y030846D01*
X049093Y030786D01*
X051375Y028934D02*
X051475Y029134D01*
X051375Y029334D01*
X051575Y029234D01*
X051775Y029334D01*
X051675Y029134D01*
X051775Y028934D01*
X051575Y029034D01*
X051375Y028934D01*
X051455Y029014D02*
X051515Y029134D01*
X051455Y029254D01*
X051575Y029194D01*
X051695Y029254D01*
X051635Y029134D01*
X051695Y029014D01*
X051575Y029074D01*
X051455Y029014D01*
X050789Y028942D02*
X050889Y029142D01*
X050789Y029342D01*
X050989Y029242D01*
X051189Y029342D01*
X051089Y029142D01*
X051189Y028942D01*
X050989Y029042D01*
X050789Y028942D01*
X050869Y029022D02*
X050929Y029142D01*
X050869Y029262D01*
X050989Y029202D01*
X051109Y029262D01*
X051049Y029142D01*
X051109Y029022D01*
X050989Y029082D01*
X050869Y029022D01*
X050194Y028934D02*
X050294Y029134D01*
X050194Y029334D01*
X050394Y029234D01*
X050594Y029334D01*
X050494Y029134D01*
X050594Y028934D01*
X050394Y029034D01*
X050194Y028934D01*
X050274Y029014D02*
X050334Y029134D01*
X050274Y029254D01*
X050394Y029194D01*
X050514Y029254D01*
X050454Y029134D01*
X050514Y029014D01*
X050394Y029074D01*
X050274Y029014D01*
X049603Y029131D02*
X049703Y029331D01*
X049603Y029531D01*
X049803Y029431D01*
X050003Y029531D01*
X049903Y029331D01*
X050003Y029131D01*
X049803Y029231D01*
X049603Y029131D01*
X049683Y029211D02*
X049743Y029331D01*
X049683Y029451D01*
X049803Y029391D01*
X049923Y029451D01*
X049863Y029331D01*
X049923Y029211D01*
X049803Y029271D01*
X049683Y029211D01*
X049013Y029131D02*
X049113Y029331D01*
X049013Y029531D01*
X049213Y029431D01*
X049413Y029531D01*
X049313Y029331D01*
X049413Y029131D01*
X049213Y029231D01*
X049013Y029131D01*
X049093Y029211D02*
X049153Y029331D01*
X049093Y029451D01*
X049213Y029391D01*
X049333Y029451D01*
X049273Y029331D01*
X049333Y029211D01*
X049213Y029271D01*
X049093Y029211D01*
X038739Y03362D02*
Y03352D01*
X038939D01*
Y03362D01*
X039039D01*
Y03382D01*
X038939D01*
Y03392D01*
X038739D01*
Y03382D01*
X038639D01*
Y03362D01*
X038739D01*
X037105Y023837D02*
Y023737D01*
X037305D01*
Y023837D01*
X037405D01*
Y024037D01*
X037305D01*
Y024137D01*
X037105D01*
Y024037D01*
X037005D01*
Y023837D01*
X037105D01*
X047438Y020233D02*
X047538D01*
X047638Y020333D01*
X047738Y020233D01*
X047838D01*
Y020333D01*
X047738Y020433D01*
X047838Y020533D01*
Y020633D01*
X047738D01*
X047638Y020533D01*
X047538Y020633D01*
X047438D01*
Y020533D01*
X047538Y020433D01*
X047438Y020333D01*
Y020233D01*
X047518Y020313D02*
X047578D01*
X047638Y020373D01*
X047698Y020313D01*
X047758D01*
Y020373D01*
X047698Y020433D01*
X047758Y020493D01*
Y020553D01*
X047698D01*
X047638Y020493D01*
X047578Y020553D01*
X047518D01*
Y020493D01*
X047578Y020433D01*
X047518Y020373D01*
Y020313D01*
X041632Y019585D02*
Y019485D01*
X041832D01*
Y019585D01*
X041932D01*
Y019785D01*
X041832D01*
Y019885D01*
X041632D01*
Y019785D01*
X041532D01*
Y019585D01*
X041632D01*
X022892Y026177D02*
Y026077D01*
X023092D01*
Y026177D01*
X023192D01*
Y026377D01*
X023092D01*
Y026477D01*
X022892D01*
Y026377D01*
X022792D01*
Y026177D01*
X022892D01*
X023168Y019113D02*
Y019013D01*
X023368D01*
Y019113D01*
X023468D01*
Y019313D01*
X023368D01*
Y019413D01*
X023168D01*
Y019313D01*
X023068D01*
Y019113D01*
X023168D01*
X037597Y02053D02*
Y02043D01*
X037797D01*
Y02053D01*
X037897D01*
Y02073D01*
X037797D01*
Y02083D01*
X037597D01*
Y02073D01*
X037497D01*
Y02053D01*
X037597D01*
X034329Y021613D02*
Y021513D01*
X034529D01*
Y021613D01*
X034629D01*
Y021813D01*
X034529D01*
Y021913D01*
X034329D01*
Y021813D01*
X034229D01*
Y021613D01*
X034329D01*
X033207Y023325D02*
Y023225D01*
X033407D01*
Y023325D01*
X033507D01*
Y023525D01*
X033407D01*
Y023625D01*
X033207D01*
Y023525D01*
X033107D01*
Y023325D01*
X033207D01*
X029638Y02587D02*
Y02577D01*
X029838D01*
Y02587D01*
X029938D01*
Y02607D01*
X029838D01*
Y02617D01*
X029638D01*
Y02607D01*
X029538D01*
Y02587D01*
X029638D01*
X029538Y024235D02*
X029638D01*
X029738Y024335D01*
X029838Y024235D01*
X029938D01*
Y024335D01*
X029838Y024435D01*
X029938Y024535D01*
Y024635D01*
X029838D01*
X029738Y024535D01*
X029638Y024635D01*
X029538D01*
Y024535D01*
X029638Y024435D01*
X029538Y024335D01*
Y024235D01*
X029618Y024315D02*
X029678D01*
X029738Y024375D01*
X029798Y024315D01*
X029858D01*
Y024375D01*
X029798Y024435D01*
X029858Y024495D01*
Y024555D01*
X029798D01*
X029738Y024495D01*
X029678Y024555D01*
X029618D01*
Y024495D01*
X029678Y024435D01*
X029618Y024375D01*
Y024315D01*
X028107Y030745D02*
X028207D01*
X028307Y030845D01*
X028407Y030745D01*
X028507D01*
Y030845D01*
X028407Y030945D01*
X028507Y031045D01*
Y031145D01*
X028407D01*
X028307Y031045D01*
X028207Y031145D01*
X028107D01*
Y031045D01*
X028207Y030945D01*
X028107Y030845D01*
Y030745D01*
X028187Y030825D02*
X028247D01*
X028307Y030885D01*
X028367Y030825D01*
X028427D01*
Y030885D01*
X028367Y030945D01*
X028427Y031005D01*
Y031065D01*
X028367D01*
X028307Y031005D01*
X028247Y031065D01*
X028187D01*
Y031005D01*
X028247Y030945D01*
X028187Y030885D01*
Y030825D01*
X036985Y029938D02*
X037085D01*
X037185Y030038D01*
X037285Y029938D01*
X037385D01*
Y030038D01*
X037285Y030138D01*
X037385Y030238D01*
Y030338D01*
X037285D01*
X037185Y030238D01*
X037085Y030338D01*
X036985D01*
Y030238D01*
X037085Y030138D01*
X036985Y030038D01*
Y029938D01*
X037065Y030018D02*
X037125D01*
X037185Y030078D01*
X037245Y030018D01*
X037305D01*
Y030078D01*
X037245Y030138D01*
X037305Y030198D01*
Y030258D01*
X037245D01*
X037185Y030198D01*
X037125Y030258D01*
X037065D01*
Y030198D01*
X037125Y030138D01*
X037065Y030078D01*
Y030018D01*
X048284Y020253D02*
X048384D01*
X048484Y020353D01*
X048584Y020253D01*
X048684D01*
Y020353D01*
X048584Y020453D01*
X048684Y020553D01*
Y020653D01*
X048584D01*
X048484Y020553D01*
X048384Y020653D01*
X048284D01*
Y020553D01*
X048384Y020453D01*
X048284Y020353D01*
Y020253D01*
X048364Y020333D02*
X048424D01*
X048484Y020393D01*
X048544Y020333D01*
X048604D01*
Y020393D01*
X048544Y020453D01*
X048604Y020513D01*
Y020573D01*
X048544D01*
X048484Y020513D01*
X048424Y020573D01*
X048364D01*
Y020513D01*
X048424Y020453D01*
X048364Y020393D01*
Y020333D01*
X044013Y036099D02*
X044113D01*
X044213Y036199D01*
X044313Y036099D01*
X044413D01*
Y036199D01*
X044313Y036299D01*
X044413Y036399D01*
Y036499D01*
X044313D01*
X044213Y036399D01*
X044113Y036499D01*
X044013D01*
Y036399D01*
X044113Y036299D01*
X044013Y036199D01*
Y036099D01*
X044093Y036179D02*
X044153D01*
X044213Y036239D01*
X044273Y036179D01*
X044333D01*
Y036239D01*
X044273Y036299D01*
X044333Y036359D01*
Y036419D01*
X044273D01*
X044213Y036359D01*
X044153Y036419D01*
X044093D01*
Y036359D01*
X044153Y036299D01*
X044093Y036239D01*
Y036179D01*
X039664Y030569D02*
Y030469D01*
X039864D01*
Y030569D01*
X039964D01*
Y030769D01*
X039864D01*
Y030869D01*
X039664D01*
Y030769D01*
X039564D01*
Y030569D01*
X039664D01*
X039861Y02868D02*
Y02858D01*
X040061D01*
Y02868D01*
X040161D01*
Y02888D01*
X040061D01*
Y02898D01*
X039861D01*
Y02888D01*
X039761D01*
Y02868D01*
X039861D01*
X033168Y031869D02*
Y031769D01*
X033368D01*
Y031869D01*
X033468D01*
Y032069D01*
X033368D01*
Y032169D01*
X033168D01*
Y032069D01*
X033068D01*
Y031869D01*
X033168D01*
X033798Y027695D02*
Y027595D01*
X033998D01*
Y027695D01*
X034098D01*
Y027895D01*
X033998D01*
Y027995D01*
X033798D01*
Y027895D01*
X033698D01*
Y027695D01*
X033798D01*
X02179Y019585D02*
Y019485D01*
X02199D01*
Y019585D01*
X02209D01*
Y019785D01*
X02199D01*
Y019885D01*
X02179D01*
Y019785D01*
X02169D01*
Y019585D01*
X02179D01*
X021042Y026475D02*
Y026375D01*
X021242D01*
Y026475D01*
X021342D01*
Y026675D01*
X021242D01*
Y026775D01*
X021042D01*
Y026675D01*
X020942D01*
Y026475D01*
X021042D01*
X028343Y024603D02*
X028443D01*
X028543Y024703D01*
X028643Y024603D01*
X028743D01*
Y024703D01*
X028643Y024803D01*
X028743Y024903D01*
Y025003D01*
X028643D01*
X028543Y024903D01*
X028443Y025003D01*
X028343D01*
Y024903D01*
X028443Y024803D01*
X028343Y024703D01*
Y024603D01*
X028423Y024683D02*
X028483D01*
X028543Y024743D01*
X028603Y024683D01*
X028663D01*
Y024743D01*
X028603Y024803D01*
X028663Y024863D01*
Y024923D01*
X028603D01*
X028543Y024863D01*
X028483Y024923D01*
X028423D01*
Y024863D01*
X028483Y024803D01*
X028423Y024743D01*
Y024683D01*
X031199Y01801D02*
Y01791D01*
X031399D01*
Y01801D01*
X031499D01*
Y01821D01*
X031399D01*
Y01831D01*
X031199D01*
Y01821D01*
X031099D01*
Y01801D01*
X031199D01*
X037971Y021593D02*
Y021493D01*
X038171D01*
Y021593D01*
X038271D01*
Y021793D01*
X038171D01*
Y021893D01*
X037971D01*
Y021793D01*
X037871D01*
Y021593D01*
X037971D01*
Y022065D02*
Y021965D01*
X038171D01*
Y022065D01*
X038271D01*
Y022265D01*
X038171D01*
Y022365D01*
X037971D01*
Y022265D01*
X037871D01*
Y022065D01*
X037971D01*
X03805Y020569D02*
Y020469D01*
X03825D01*
Y020569D01*
X03835D01*
Y020769D01*
X03825D01*
Y020869D01*
X03805D01*
Y020769D01*
X03795D01*
Y020569D01*
X03805D01*
X034209Y022753D02*
X034309D01*
X034409Y022853D01*
X034509Y022753D01*
X034609D01*
Y022853D01*
X034509Y022953D01*
X034609Y023053D01*
Y023153D01*
X034509D01*
X034409Y023053D01*
X034309Y023153D01*
X034209D01*
Y023053D01*
X034309Y022953D01*
X034209Y022853D01*
Y022753D01*
X034289Y022833D02*
X034349D01*
X034409Y022893D01*
X034469Y022833D01*
X034529D01*
Y022893D01*
X034469Y022953D01*
X034529Y023013D01*
Y023073D01*
X034469D01*
X034409Y023013D01*
X034349Y023073D01*
X034289D01*
Y023013D01*
X034349Y022953D01*
X034289Y022893D01*
Y022833D01*
X033698Y025784D02*
X033798D01*
X033898Y025884D01*
X033998Y025784D01*
X034098D01*
Y025884D01*
X033998Y025984D01*
X034098Y026084D01*
Y026184D01*
X033998D01*
X033898Y026084D01*
X033798Y026184D01*
X033698D01*
Y026084D01*
X033798Y025984D01*
X033698Y025884D01*
Y025784D01*
X033778Y025864D02*
X033838D01*
X033898Y025924D01*
X033958Y025864D01*
X034018D01*
Y025924D01*
X033958Y025984D01*
X034018Y026044D01*
Y026104D01*
X033958D01*
X033898Y026044D01*
X033838Y026104D01*
X033778D01*
Y026044D01*
X033838Y025984D01*
X033778Y025924D01*
Y025864D01*
X032931Y025254D02*
Y025154D01*
X033131D01*
Y025254D01*
X033231D01*
Y025454D01*
X033131D01*
Y025554D01*
X032931D01*
Y025454D01*
X032831D01*
Y025254D01*
X032931D01*
X032931Y024835D02*
Y024735D01*
X033131D01*
Y024835D01*
X033231D01*
Y025035D01*
X033131D01*
Y025135D01*
X032931D01*
Y025035D01*
X032831D01*
Y024835D01*
X032931D01*
X040863Y022438D02*
X040963D01*
X041063Y022538D01*
X041163Y022438D01*
X041263D01*
Y022538D01*
X041163Y022638D01*
X041263Y022738D01*
Y022838D01*
X041163D01*
X041063Y022738D01*
X040963Y022838D01*
X040863D01*
Y022738D01*
X040963Y022638D01*
X040863Y022538D01*
Y022438D01*
X040943Y022518D02*
X041003D01*
X041063Y022578D01*
X041123Y022518D01*
X041183D01*
Y022578D01*
X041123Y022638D01*
X041183Y022698D01*
Y022758D01*
X041123D01*
X041063Y022698D01*
X041003Y022758D01*
X040943D01*
Y022698D01*
X041003Y022638D01*
X040943Y022578D01*
Y022518D01*
X041042Y023522D02*
Y023422D01*
X041242D01*
Y023522D01*
X041342D01*
Y023722D01*
X041242D01*
Y023822D01*
X041042D01*
Y023722D01*
X040942D01*
Y023522D01*
X041042D01*
X023522Y023601D02*
Y023501D01*
X023722D01*
Y023601D01*
X023822D01*
Y023801D01*
X023722D01*
Y023901D01*
X023522D01*
Y023801D01*
X023422D01*
Y023601D01*
X023522D01*
X02242Y027223D02*
Y027123D01*
X02262D01*
Y027223D01*
X02272D01*
Y027423D01*
X02262D01*
Y027523D01*
X02242D01*
Y027423D01*
X02232D01*
Y027223D01*
X02242D01*
X033085Y027809D02*
Y027709D01*
X033285D01*
Y027809D01*
X033385D01*
Y028009D01*
X033285D01*
Y028109D01*
X033085D01*
Y028009D01*
X032985D01*
Y027809D01*
X033085D01*
X047832Y033225D02*
X047931D01*
X048032Y033325D01*
X048131Y033225D01*
X048232D01*
Y033325D01*
X048131Y033425D01*
X048232Y033525D01*
Y033625D01*
X048131D01*
X048032Y033525D01*
X047931Y033625D01*
X047832D01*
Y033525D01*
X047931Y033425D01*
X047832Y033325D01*
Y033225D01*
X047912Y033305D02*
X047972D01*
X048032Y033365D01*
X048092Y033305D01*
X048151D01*
Y033365D01*
X048092Y033425D01*
X048151Y033485D01*
Y033545D01*
X048092D01*
X048032Y033485D01*
X047972Y033545D01*
X047912D01*
Y033485D01*
X047972Y033425D01*
X047912Y033365D01*
Y033305D01*
X046829Y018404D02*
Y018304D01*
X047029D01*
Y018404D01*
X047129D01*
Y018604D01*
X047029D01*
Y018704D01*
X046829D01*
Y018604D01*
X046729D01*
Y018404D01*
X046829D01*
X037971Y026672D02*
Y026572D01*
X038171D01*
Y026672D01*
X038271D01*
Y026872D01*
X038171D01*
Y026972D01*
X037971D01*
Y026872D01*
X037871D01*
Y026672D01*
X037971D01*
X038286Y026278D02*
Y026178D01*
X038486D01*
Y026278D01*
X038586D01*
Y026478D01*
X038486D01*
Y026578D01*
X038286D01*
Y026478D01*
X038186D01*
Y026278D01*
X038286D01*
X036869Y03364D02*
Y03354D01*
X037069D01*
Y03364D01*
X037169D01*
Y03384D01*
X037069D01*
Y03394D01*
X036869D01*
Y03384D01*
X036769D01*
Y03364D01*
X036869D01*
X033955Y024821D02*
Y024721D01*
X034155D01*
Y024821D01*
X034255D01*
Y025021D01*
X034155D01*
Y025121D01*
X033955D01*
Y025021D01*
X033855D01*
Y024821D01*
X033955D01*
X035727Y02805D02*
Y02795D01*
X035927D01*
Y02805D01*
X036027D01*
Y02825D01*
X035927D01*
Y02835D01*
X035727D01*
Y02825D01*
X035627D01*
Y02805D01*
X035727D01*
X037971Y027341D02*
Y027241D01*
X038171D01*
Y027341D01*
X038271D01*
Y027541D01*
X038171D01*
Y027641D01*
X037971D01*
Y027541D01*
X037871D01*
Y027341D01*
X037971D01*
X034979Y027695D02*
Y027595D01*
X035179D01*
Y027695D01*
X035279D01*
Y027895D01*
X035179D01*
Y027995D01*
X034979D01*
Y027895D01*
X034879D01*
Y027695D01*
X034979D01*
X034979Y027262D02*
Y027162D01*
X035179D01*
Y027262D01*
X035279D01*
Y027462D01*
X035179D01*
Y027562D01*
X034979D01*
Y027462D01*
X034879D01*
Y027262D01*
X034979D01*
X025884Y021554D02*
Y021454D01*
X026084D01*
Y021554D01*
X026184D01*
Y021754D01*
X026084D01*
Y021854D01*
X025884D01*
Y021754D01*
X025784D01*
Y021554D01*
X025884D01*
X025294Y021947D02*
Y021847D01*
X025494D01*
Y021947D01*
X025594D01*
Y022147D01*
X025494D01*
Y022247D01*
X025294D01*
Y022147D01*
X025194D01*
Y021947D01*
X025294D01*
X034959Y025865D02*
Y025765D01*
X035159D01*
Y025865D01*
X035259D01*
Y026065D01*
X035159D01*
Y026165D01*
X034959D01*
Y026065D01*
X034859D01*
Y025865D01*
X034959D01*
X03868Y031829D02*
Y031729D01*
X03888D01*
Y031829D01*
X03898D01*
Y032029D01*
X03888D01*
Y032129D01*
X03868D01*
Y032029D01*
X03858D01*
Y031829D01*
X03868D01*
X038286Y027656D02*
Y027556D01*
X038486D01*
Y027656D01*
X038586D01*
Y027856D01*
X038486D01*
Y027956D01*
X038286D01*
Y027856D01*
X038186D01*
Y027656D01*
X038286D01*
X035727Y026869D02*
Y026769D01*
X035927D01*
Y026869D01*
X036027D01*
Y027069D01*
X035927D01*
Y027169D01*
X035727D01*
Y027069D01*
X035627D01*
Y026869D01*
X035727D01*
X045254Y022262D02*
Y022162D01*
X045454D01*
Y022262D01*
X045554D01*
Y022462D01*
X045454D01*
Y022562D01*
X045254D01*
Y022462D01*
X045154D01*
Y022262D01*
X045254D01*
X044585D02*
Y022162D01*
X044785D01*
Y022262D01*
X044885D01*
Y022462D01*
X044785D01*
Y022562D01*
X044585D01*
Y022462D01*
X044485D01*
Y022262D01*
X044585D01*
X043955Y021987D02*
Y021887D01*
X044155D01*
Y021987D01*
X044255D01*
Y022187D01*
X044155D01*
Y022287D01*
X043955D01*
Y022187D01*
X043855D01*
Y021987D01*
X043955D01*
X045943Y022676D02*
Y022576D01*
X046143D01*
Y022676D01*
X046243D01*
Y022876D01*
X046143D01*
Y022976D01*
X045943D01*
Y022876D01*
X045843D01*
Y022676D01*
X045943D01*
X040254Y022144D02*
Y022044D01*
X040454D01*
Y022144D01*
X040554D01*
Y022344D01*
X040454D01*
Y022444D01*
X040254D01*
Y022344D01*
X040154D01*
Y022144D01*
X040254D01*
X039861Y022617D02*
Y022517D01*
X040061D01*
Y022617D01*
X040161D01*
Y022817D01*
X040061D01*
Y022917D01*
X039861D01*
Y022817D01*
X039761D01*
Y022617D01*
X039861D01*
Y023128D02*
Y023028D01*
X040061D01*
Y023128D01*
X040161D01*
Y023328D01*
X040061D01*
Y023428D01*
X039861D01*
Y023328D01*
X039761D01*
Y023128D01*
X039861D01*
X044374Y019847D02*
Y019747D01*
X044574D01*
Y019847D01*
X044674D01*
Y020047D01*
X044574D01*
Y020147D01*
X044374D01*
Y020047D01*
X044274D01*
Y019847D01*
X044374D01*
X044388Y019347D02*
Y019247D01*
X044588D01*
Y019347D01*
X044688D01*
Y019547D01*
X044588D01*
Y019647D01*
X044388D01*
Y019547D01*
X044288D01*
Y019347D01*
X044388D01*
X039073Y020347D02*
Y020247D01*
X039273D01*
Y020347D01*
X039373D01*
Y020547D01*
X039273D01*
Y020647D01*
X039073D01*
Y020547D01*
X038973D01*
Y020347D01*
X039073D01*
X040057Y024113D02*
Y024013D01*
X040257D01*
Y024113D01*
X040357D01*
Y024313D01*
X040257D01*
Y024413D01*
X040057D01*
Y024313D01*
X039957D01*
Y024113D01*
X040057D01*
Y024506D02*
Y024406D01*
X040257D01*
Y024506D01*
X040357D01*
Y024706D01*
X040257D01*
Y024806D01*
X040057D01*
Y024706D01*
X039957D01*
Y024506D01*
X040057D01*
X039861Y032774D02*
Y032674D01*
X040061D01*
Y032774D01*
X040161D01*
Y032974D01*
X040061D01*
Y033074D01*
X039861D01*
Y032974D01*
X039761D01*
Y032774D01*
X039861D01*
X025097Y029467D02*
Y029367D01*
X025297D01*
Y029467D01*
X025397D01*
Y029667D01*
X025297D01*
Y029767D01*
X025097D01*
Y029667D01*
X024997D01*
Y029467D01*
X025097D01*
X022538Y020727D02*
Y020627D01*
X022738D01*
Y020727D01*
X022838D01*
Y020927D01*
X022738D01*
Y021027D01*
X022538D01*
Y020927D01*
X022438D01*
Y020727D01*
X022538D01*
Y020097D02*
Y019997D01*
X022738D01*
Y020097D01*
X022838D01*
Y020297D01*
X022738D01*
Y020397D01*
X022538D01*
Y020297D01*
X022438D01*
Y020097D01*
X022538D01*
X020963Y020727D02*
Y020627D01*
X021163D01*
Y020727D01*
X021263D01*
Y020927D01*
X021163D01*
Y021027D01*
X020963D01*
Y020927D01*
X020863D01*
Y020727D01*
X020963D01*
X022538Y019585D02*
Y019485D01*
X022738D01*
Y019585D01*
X022838D01*
Y019785D01*
X022738D01*
Y019885D01*
X022538D01*
Y019785D01*
X022438D01*
Y019585D01*
X022538D01*
X02116Y017813D02*
Y017713D01*
X02136D01*
Y017813D01*
X02146D01*
Y018013D01*
X02136D01*
Y018113D01*
X02116D01*
Y018013D01*
X02106D01*
Y017813D01*
X02116D01*
X023168Y018404D02*
Y018304D01*
X023368D01*
Y018404D01*
X023468D01*
Y018604D01*
X023368D01*
Y018704D01*
X023168D01*
Y018604D01*
X023068D01*
Y018404D01*
X023168D01*
X022538Y022223D02*
Y022123D01*
X022738D01*
Y022223D01*
X022838D01*
Y022423D01*
X022738D01*
Y022523D01*
X022538D01*
Y022423D01*
X022438D01*
Y022223D01*
X022538D01*
X02301Y028443D02*
Y028343D01*
X02321D01*
Y028443D01*
X02331D01*
Y028643D01*
X02321D01*
Y028743D01*
X02301D01*
Y028643D01*
X02291D01*
Y028443D01*
X02301D01*
X022438Y037989D02*
X022538D01*
X022638Y038089D01*
X022738Y037989D01*
X022838D01*
Y038089D01*
X022738Y038189D01*
X022838Y038289D01*
Y038389D01*
X022738D01*
X022638Y038289D01*
X022538Y038389D01*
X022438D01*
Y038289D01*
X022538Y038189D01*
X022438Y038089D01*
Y037989D01*
X022518Y038069D02*
X022578D01*
X022638Y038129D01*
X022698Y038069D01*
X022758D01*
Y038129D01*
X022698Y038189D01*
X022758Y038249D01*
Y038309D01*
X022698D01*
X022638Y038249D01*
X022578Y038309D01*
X022518D01*
Y038249D01*
X022578Y038189D01*
X022518Y038129D01*
Y038069D01*
X022438Y037202D02*
X022538D01*
X022638Y037302D01*
X022738Y037202D01*
X022838D01*
Y037302D01*
X022738Y037402D01*
X022838Y037502D01*
Y037602D01*
X022738D01*
X022638Y037502D01*
X022538Y037602D01*
X022438D01*
Y037502D01*
X022538Y037402D01*
X022438Y037302D01*
Y037202D01*
X022518Y037282D02*
X022578D01*
X022638Y037342D01*
X022698Y037282D01*
X022758D01*
Y037342D01*
X022698Y037402D01*
X022758Y037462D01*
Y037522D01*
X022698D01*
X022638Y037462D01*
X022578Y037522D01*
X022518D01*
Y037462D01*
X022578Y037402D01*
X022518Y037342D01*
Y037282D01*
X021847Y037989D02*
X021947D01*
X022047Y038089D01*
X022147Y037989D01*
X022247D01*
Y038089D01*
X022147Y038189D01*
X022247Y038289D01*
Y038389D01*
X022147D01*
X022047Y038289D01*
X021947Y038389D01*
X021847D01*
Y038289D01*
X021947Y038189D01*
X021847Y038089D01*
Y037989D01*
X021927Y038069D02*
X021987D01*
X022047Y038129D01*
X022107Y038069D01*
X022167D01*
Y038129D01*
X022107Y038189D01*
X022167Y038249D01*
Y038309D01*
X022107D01*
X022047Y038249D01*
X021987Y038309D01*
X021927D01*
Y038249D01*
X021987Y038189D01*
X021927Y038129D01*
Y038069D01*
X021847Y037202D02*
X021947D01*
X022047Y037302D01*
X022147Y037202D01*
X022247D01*
Y037302D01*
X022147Y037402D01*
X022247Y037502D01*
Y037602D01*
X022147D01*
X022047Y037502D01*
X021947Y037602D01*
X021847D01*
Y037502D01*
X021947Y037402D01*
X021847Y037302D01*
Y037202D01*
X021927Y037282D02*
X021987D01*
X022047Y037342D01*
X022107Y037282D01*
X022167D01*
Y037342D01*
X022107Y037402D01*
X022167Y037462D01*
Y037522D01*
X022107D01*
X022047Y037462D01*
X021987Y037522D01*
X021927D01*
Y037462D01*
X021987Y037402D01*
X021927Y037342D01*
Y037282D01*
X023028Y03602D02*
X023128D01*
X023228Y03612D01*
X023328Y03602D01*
X023428D01*
Y03612D01*
X023328Y03622D01*
X023428Y03632D01*
Y03642D01*
X023328D01*
X023228Y03632D01*
X023128Y03642D01*
X023028D01*
Y03632D01*
X023128Y03622D01*
X023028Y03612D01*
Y03602D01*
X023108Y0361D02*
X023168D01*
X023228Y03616D01*
X023288Y0361D01*
X023348D01*
Y03616D01*
X023288Y03622D01*
X023348Y03628D01*
Y03634D01*
X023288D01*
X023228Y03628D01*
X023168Y03634D01*
X023108D01*
Y03628D01*
X023168Y03622D01*
X023108Y03616D01*
Y0361D01*
X023028Y035627D02*
X023128D01*
X023228Y035727D01*
X023328Y035627D01*
X023428D01*
Y035727D01*
X023328Y035827D01*
X023428Y035927D01*
Y036027D01*
X023328D01*
X023228Y035927D01*
X023128Y036027D01*
X023028D01*
Y035927D01*
X023128Y035827D01*
X023028Y035727D01*
Y035627D01*
X023108Y035707D02*
X023168D01*
X023228Y035767D01*
X023288Y035707D01*
X023348D01*
Y035767D01*
X023288Y035827D01*
X023348Y035887D01*
Y035947D01*
X023288D01*
X023228Y035887D01*
X023168Y035947D01*
X023108D01*
Y035887D01*
X023168Y035827D01*
X023108Y035767D01*
Y035707D01*
X023619Y035627D02*
X023719D01*
X023819Y035727D01*
X023919Y035627D01*
X024019D01*
Y035727D01*
X023919Y035827D01*
X024019Y035927D01*
Y036027D01*
X023919D01*
X023819Y035927D01*
X023719Y036027D01*
X023619D01*
Y035927D01*
X023719Y035827D01*
X023619Y035727D01*
Y035627D01*
X023699Y035707D02*
X023759D01*
X023819Y035767D01*
X023879Y035707D01*
X023939D01*
Y035767D01*
X023879Y035827D01*
X023939Y035887D01*
Y035947D01*
X023879D01*
X023819Y035887D01*
X023759Y035947D01*
X023699D01*
Y035887D01*
X023759Y035827D01*
X023699Y035767D01*
Y035707D01*
X023619Y03602D02*
X023719D01*
X023819Y03612D01*
X023919Y03602D01*
X024019D01*
Y03612D01*
X023919Y03622D01*
X024019Y03632D01*
Y03642D01*
X023919D01*
X023819Y03632D01*
X023719Y03642D01*
X023619D01*
Y03632D01*
X023719Y03622D01*
X023619Y03612D01*
Y03602D01*
X023699Y0361D02*
X023759D01*
X023819Y03616D01*
X023879Y0361D01*
X023939D01*
Y03616D01*
X023879Y03622D01*
X023939Y03628D01*
Y03634D01*
X023879D01*
X023819Y03628D01*
X023759Y03634D01*
X023699D01*
Y03628D01*
X023759Y03622D01*
X023699Y03616D01*
Y0361D01*
X024209Y03602D02*
X024309D01*
X024409Y03612D01*
X024509Y03602D01*
X024609D01*
Y03612D01*
X024509Y03622D01*
X024609Y03632D01*
Y03642D01*
X024509D01*
X024409Y03632D01*
X024309Y03642D01*
X024209D01*
Y03632D01*
X024309Y03622D01*
X024209Y03612D01*
Y03602D01*
X024289Y0361D02*
X024349D01*
X024409Y03616D01*
X024469Y0361D01*
X024529D01*
Y03616D01*
X024469Y03622D01*
X024529Y03628D01*
Y03634D01*
X024469D01*
X024409Y03628D01*
X024349Y03634D01*
X024289D01*
Y03628D01*
X024349Y03622D01*
X024289Y03616D01*
Y0361D01*
X024209Y035627D02*
X024309D01*
X024409Y035727D01*
X024509Y035627D01*
X024609D01*
Y035727D01*
X024509Y035827D01*
X024609Y035927D01*
Y036027D01*
X024509D01*
X024409Y035927D01*
X024309Y036027D01*
X024209D01*
Y035927D01*
X024309Y035827D01*
X024209Y035727D01*
Y035627D01*
X024289Y035707D02*
X024349D01*
X024409Y035767D01*
X024469Y035707D01*
X024529D01*
Y035767D01*
X024469Y035827D01*
X024529Y035887D01*
Y035947D01*
X024469D01*
X024409Y035887D01*
X024349Y035947D01*
X024289D01*
Y035887D01*
X024349Y035827D01*
X024289Y035767D01*
Y035707D01*
X0248Y03602D02*
X0249D01*
X025Y03612D01*
X0251Y03602D01*
X0252D01*
Y03612D01*
X0251Y03622D01*
X0252Y03632D01*
Y03642D01*
X0251D01*
X025Y03632D01*
X0249Y03642D01*
X0248D01*
Y03632D01*
X0249Y03622D01*
X0248Y03612D01*
Y03602D01*
X02488Y0361D02*
X02494D01*
X025Y03616D01*
X02506Y0361D01*
X02512D01*
Y03616D01*
X02506Y03622D01*
X02512Y03628D01*
Y03634D01*
X02506D01*
X025Y03628D01*
X02494Y03634D01*
X02488D01*
Y03628D01*
X02494Y03622D01*
X02488Y03616D01*
Y0361D01*
X0248Y035627D02*
X0249D01*
X025Y035727D01*
X0251Y035627D01*
X0252D01*
Y035727D01*
X0251Y035827D01*
X0252Y035927D01*
Y036027D01*
X0251D01*
X025Y035927D01*
X0249Y036027D01*
X0248D01*
Y035927D01*
X0249Y035827D01*
X0248Y035727D01*
Y035627D01*
X02488Y035707D02*
X02494D01*
X025Y035767D01*
X02506Y035707D01*
X02512D01*
Y035767D01*
X02506Y035827D01*
X02512Y035887D01*
Y035947D01*
X02506D01*
X025Y035887D01*
X02494Y035947D01*
X02488D01*
Y035887D01*
X02494Y035827D01*
X02488Y035767D01*
Y035707D01*
X048325Y021947D02*
Y021847D01*
X048525D01*
Y021947D01*
X048625D01*
Y022147D01*
X048525D01*
Y022247D01*
X048325D01*
Y022147D01*
X048225D01*
Y021947D01*
X048325D01*
Y022538D02*
Y022438D01*
X048525D01*
Y022538D01*
X048625D01*
Y022738D01*
X048525D01*
Y022838D01*
X048325D01*
Y022738D01*
X048225D01*
Y022538D01*
X048325D01*
Y023128D02*
Y023028D01*
X048525D01*
Y023128D01*
X048625D01*
Y023328D01*
X048525D01*
Y023428D01*
X048325D01*
Y023328D01*
X048225D01*
Y023128D01*
X048325D01*
Y023719D02*
Y023619D01*
X048525D01*
Y023719D01*
X048625D01*
Y023919D01*
X048525D01*
Y024019D01*
X048325D01*
Y023919D01*
X048225D01*
Y023719D01*
X048325D01*
Y024309D02*
Y024209D01*
X048525D01*
Y024309D01*
X048625D01*
Y024509D01*
X048525D01*
Y024609D01*
X048325D01*
Y024509D01*
X048225D01*
Y024309D01*
X048325D01*
Y0249D02*
Y0248D01*
X048525D01*
Y0249D01*
X048625D01*
Y0251D01*
X048525D01*
Y0252D01*
X048325D01*
Y0251D01*
X048225D01*
Y0249D01*
X048325D01*
X048916D02*
Y0248D01*
X049116D01*
Y0249D01*
X049216D01*
Y0251D01*
X049116D01*
Y0252D01*
X048916D01*
Y0251D01*
X048816D01*
Y0249D01*
X048916D01*
Y024309D02*
Y024209D01*
X049116D01*
Y024309D01*
X049216D01*
Y024509D01*
X049116D01*
Y024609D01*
X048916D01*
Y024509D01*
X048816D01*
Y024309D01*
X048916D01*
Y023719D02*
Y023619D01*
X049116D01*
Y023719D01*
X049216D01*
Y023919D01*
X049116D01*
Y024019D01*
X048916D01*
Y023919D01*
X048816D01*
Y023719D01*
X048916D01*
Y023128D02*
Y023028D01*
X049116D01*
Y023128D01*
X049216D01*
Y023328D01*
X049116D01*
Y023428D01*
X048916D01*
Y023328D01*
X048816D01*
Y023128D01*
X048916D01*
Y022538D02*
Y022438D01*
X049116D01*
Y022538D01*
X049216D01*
Y022738D01*
X049116D01*
Y022838D01*
X048916D01*
Y022738D01*
X048816D01*
Y022538D01*
X048916D01*
Y021947D02*
Y021847D01*
X049116D01*
Y021947D01*
X049216D01*
Y022147D01*
X049116D01*
Y022247D01*
X048916D01*
Y022147D01*
X048816D01*
Y021947D01*
X048916D01*
X049506Y0249D02*
Y0248D01*
X049706D01*
Y0249D01*
X049806D01*
Y0251D01*
X049706D01*
Y0252D01*
X049506D01*
Y0251D01*
X049406D01*
Y0249D01*
X049506D01*
Y024309D02*
Y024209D01*
X049706D01*
Y024309D01*
X049806D01*
Y024509D01*
X049706D01*
Y024609D01*
X049506D01*
Y024509D01*
X049406D01*
Y024309D01*
X049506D01*
Y023719D02*
Y023619D01*
X049706D01*
Y023719D01*
X049806D01*
Y023919D01*
X049706D01*
Y024019D01*
X049506D01*
Y023919D01*
X049406D01*
Y023719D01*
X049506D01*
Y023128D02*
Y023028D01*
X049706D01*
Y023128D01*
X049806D01*
Y023328D01*
X049706D01*
Y023428D01*
X049506D01*
Y023328D01*
X049406D01*
Y023128D01*
X049506D01*
Y022538D02*
Y022438D01*
X049706D01*
Y022538D01*
X049806D01*
Y022738D01*
X049706D01*
Y022838D01*
X049506D01*
Y022738D01*
X049406D01*
Y022538D01*
X049506D01*
D151*
X018691Y037805D02*
G03*
X018691Y037805I-0002J0D01*
G01*
X021191D02*
G03*
X021191Y037805I-0002J0D01*
G01*
X025546Y020669D02*
G03*
X025546Y020669I-0002J0D01*
G01*
D152*
X025466D02*
G03*
X025466Y020669I-00012J0D01*
G01*
M02*
