G04 Layer_Color=128*
%FSTAX24Y24*%
%MOIN*%
G70*
G01*
G75*
%ADD79C,0.0050*%
D79*
X017756Y025079D02*
X018071D01*
X017913Y024921D02*
Y025236D01*
X017756Y024079D02*
X018071D01*
X017913Y023921D02*
Y024236D01*
X017756Y032047D02*
X018071D01*
X017913Y03189D02*
Y032205D01*
X017756Y031047D02*
X018071D01*
X017913Y03089D02*
Y031205D01*
X020315Y032047D02*
X02063D01*
X020472Y03189D02*
Y032205D01*
X020315Y031047D02*
X02063D01*
X020472Y03089D02*
Y031205D01*
X018316Y037805D02*
X018666D01*
X018491Y03763D02*
Y03798D01*
X020816Y037805D02*
X021166D01*
X020991Y03763D02*
Y03798D01*
X020829Y036213D02*
X021139D01*
X020984Y036058D02*
Y036368D01*
X020829Y034213D02*
X021139D01*
X020984Y034058D02*
Y034368D01*
X023988Y034055D02*
X024438D01*
X024213Y03383D02*
Y03428D01*
X026744Y034055D02*
X027194D01*
X026969Y03383D02*
Y03428D01*
X026744Y037205D02*
X027194D01*
X026969Y03698D02*
Y03743D01*
X023988Y037205D02*
X024438D01*
X024213Y03698D02*
Y03743D01*
X029761Y037937D02*
X030081D01*
X029921Y037777D02*
Y038097D01*
X029761Y036437D02*
X030081D01*
X029921Y036277D02*
Y036597D01*
X029761Y032949D02*
X030081D01*
X029921Y032789D02*
Y033109D01*
X029761Y034449D02*
X030081D01*
X029921Y034289D02*
Y034609D01*
X034803Y035315D02*
X034961D01*
X034882Y035236D02*
Y035394D01*
X034803Y034921D02*
X034961D01*
X034882Y034843D02*
Y035D01*
X034803Y034528D02*
X034961D01*
X034882Y034449D02*
Y034606D01*
X035197Y034528D02*
X035354D01*
X035276Y034449D02*
Y034606D01*
X035197Y034921D02*
X035354D01*
X035276Y034843D02*
Y035D01*
X035197Y035315D02*
X035354D01*
X035276Y035236D02*
Y035394D01*
X040568Y02463D02*
X040928D01*
X040748Y02445D02*
Y02481D01*
X040568Y02564D02*
X040928D01*
X040748Y02546D02*
Y02582D01*
X040568Y02662D02*
X040928D01*
X040748Y02644D02*
Y0268D01*
X049177Y019488D02*
X04961D01*
X049394Y019272D02*
Y019705D01*
X049177Y018488D02*
X04961D01*
X049394Y018272D02*
Y018705D01*
X050177Y019488D02*
X05061D01*
X050394Y019272D02*
Y019705D01*
X050177Y018488D02*
X05061D01*
X050394Y018272D02*
Y018705D01*
X043563Y018268D02*
X043917D01*
X04374Y018091D02*
Y018445D01*
X042553Y018268D02*
X042907D01*
X04273Y018091D02*
Y018445D01*
X041573Y018268D02*
X041927D01*
X04175Y018091D02*
Y018445D01*
X040563Y018268D02*
X040917D01*
X04074Y018091D02*
Y018445D01*
X030118Y030512D02*
X030276D01*
X030197Y030433D02*
Y030591D01*
X030118Y030118D02*
X030276D01*
X030197Y030039D02*
Y030197D01*
X030118Y029724D02*
X030276D01*
X030197Y029646D02*
Y029803D01*
X030512Y029724D02*
X030669D01*
X030591Y029646D02*
Y029803D01*
X030512Y030118D02*
X030669D01*
X030591Y030039D02*
Y030197D01*
X030512Y030512D02*
X030669D01*
X030591Y030433D02*
Y030591D01*
X02511Y020669D02*
X025583D01*
X025346Y020433D02*
Y020906D01*
X028012Y020669D02*
X028602D01*
X028307Y020374D02*
Y020965D01*
X017756Y028228D02*
X018071D01*
X017913Y028071D02*
Y028386D01*
X017756Y027228D02*
X018071D01*
X017913Y027071D02*
Y027386D01*
X017992Y036024D02*
X018622D01*
X018307Y035709D02*
Y036339D01*
X017992Y034449D02*
X018622D01*
X018307Y034134D02*
Y034764D01*
X031004Y038583D02*
X031201D01*
X031102Y038484D02*
Y038681D01*
X030413Y038583D02*
X03061D01*
X030512Y038484D02*
Y038681D01*
X029823Y038583D02*
X03002D01*
X029921Y038484D02*
Y038681D01*
X029232Y038583D02*
X029429D01*
X029331Y038484D02*
Y038681D01*
X028642Y038583D02*
X028839D01*
X02874Y038484D02*
Y038681D01*
X028642Y039173D02*
X028839D01*
X02874Y039075D02*
Y039272D01*
X029232Y039173D02*
X029429D01*
X029331Y039075D02*
Y039272D01*
X031004Y039173D02*
X031201D01*
X031102Y039075D02*
Y039272D01*
X030413Y039173D02*
X03061D01*
X030512Y039075D02*
Y039272D01*
X029823Y039173D02*
X03002D01*
X029921Y039075D02*
Y039272D01*
X046752Y017717D02*
X046949D01*
X04685Y017618D02*
Y017815D01*
X045965Y017717D02*
X046161D01*
X046063Y017618D02*
Y017815D01*
X045177Y017717D02*
X045374D01*
X045276Y017618D02*
Y017815D01*
X033366Y019094D02*
X033563D01*
X033465Y018996D02*
Y019193D01*
X032776Y019094D02*
X032972D01*
X032874Y018996D02*
Y019193D01*
X032185Y019094D02*
X032382D01*
X032283Y018996D02*
Y019193D01*
X032185Y018504D02*
X032382D01*
X032283Y018406D02*
Y018602D01*
X032776Y018504D02*
X032972D01*
X032874Y018406D02*
Y018602D01*
X033366Y018504D02*
X033563D01*
X033465Y018406D02*
Y018602D01*
X048484Y029331D02*
X048681D01*
X048583Y029232D02*
Y029429D01*
X046949Y028701D02*
X047146D01*
X047047Y028602D02*
Y028799D01*
X046949Y029331D02*
X047146D01*
X047047Y029232D02*
Y029429D01*
X046949Y029921D02*
X047146D01*
X047047Y029823D02*
Y03002D01*
X046949Y030512D02*
X047146D01*
X047047Y030413D02*
Y03061D01*
X048484Y030906D02*
X048681D01*
X048583Y030807D02*
Y031004D01*
X018943Y019577D02*
X019337D01*
X01914Y01938D02*
Y019774D01*
X018943Y021309D02*
X019337D01*
X01914Y021112D02*
Y021506D01*
X043799Y027559D02*
X043996D01*
X043898Y027461D02*
Y027657D01*
X043209Y027559D02*
X043406D01*
X043307Y027461D02*
Y027657D01*
X043209Y02815D02*
X043406D01*
X043307Y028051D02*
Y028248D01*
X043799Y02815D02*
X043996D01*
X043898Y028051D02*
Y028248D01*
X043209Y029921D02*
X043406D01*
X043307Y029823D02*
Y03002D01*
X043799Y029921D02*
X043996D01*
X043898Y029823D02*
Y03002D01*
X04439Y029921D02*
X044587D01*
X044488Y029823D02*
Y03002D01*
X04498Y029921D02*
X045177D01*
X045079Y029823D02*
Y03002D01*
X045571Y029921D02*
X045768D01*
X045669Y029823D02*
Y03002D01*
X046161Y029921D02*
X046358D01*
X04626Y029823D02*
Y03002D01*
X04617Y029332D02*
X046367D01*
X046269Y029234D02*
Y029431D01*
X045571Y029331D02*
X045768D01*
X045669Y029232D02*
Y029429D01*
X04498Y029331D02*
X045177D01*
X045079Y029232D02*
Y029429D01*
X04439Y029331D02*
X044587D01*
X044488Y029232D02*
Y029429D01*
X043799Y029331D02*
X043996D01*
X043898Y029232D02*
Y029429D01*
X043209Y029331D02*
X043406D01*
X043307Y029232D02*
Y029429D01*
X043209Y02874D02*
X043406D01*
X043307Y028642D02*
Y028839D01*
X043799Y02874D02*
X043996D01*
X043898Y028642D02*
Y028839D01*
X04439Y02874D02*
X044587D01*
X044488Y028642D02*
Y028839D01*
X046161Y02874D02*
X046358D01*
X04626Y028642D02*
Y028839D01*
X045571Y02874D02*
X045768D01*
X045669Y028642D02*
Y028839D01*
X04498Y02874D02*
X045177D01*
X045079Y028642D02*
Y028839D01*
X017224Y019882D02*
X017421D01*
X017323Y019783D02*
Y01998D01*
X017224Y020472D02*
X017421D01*
X017323Y020374D02*
Y020571D01*
X017224Y021063D02*
X017421D01*
X017323Y020965D02*
Y021161D01*
X017815Y019882D02*
X018012D01*
X017913Y019783D02*
Y01998D01*
X017815Y021063D02*
X018012D01*
X017913Y020965D02*
Y021161D01*
X017815Y020472D02*
X018012D01*
X017913Y020374D02*
Y020571D01*
X029429Y018307D02*
X029626D01*
X029528Y018209D02*
Y018406D01*
X028642Y018307D02*
X028839D01*
X02874Y018209D02*
Y018406D01*
X027854Y018307D02*
X028051D01*
X027953Y018209D02*
Y018406D01*
X027067Y018307D02*
X027264D01*
X027165Y018209D02*
Y018406D01*
X02628Y018307D02*
X026476D01*
X026378Y018209D02*
Y018406D01*
X025492Y018307D02*
X025689D01*
X025591Y018209D02*
Y018406D01*
X024705Y018307D02*
X024902D01*
X024803Y018209D02*
Y018406D01*
X029429Y017717D02*
X029626D01*
X029528Y017618D02*
Y017815D01*
X028642Y017717D02*
X028839D01*
X02874Y017618D02*
Y017815D01*
X027854Y017717D02*
X028051D01*
X027953Y017618D02*
Y017815D01*
X027067Y017717D02*
X027264D01*
X027165Y017618D02*
Y017815D01*
X02628Y017717D02*
X026476D01*
X026378Y017618D02*
Y017815D01*
X025492Y017717D02*
X025689D01*
X025591Y017618D02*
Y017815D01*
X024705Y017717D02*
X024902D01*
X024803Y017618D02*
Y017815D01*
X02628Y025591D02*
X026476D01*
X026378Y025492D02*
Y025689D01*
X025846Y025596D02*
X026043D01*
X025945Y025498D02*
Y025695D01*
X025295Y025591D02*
X025492D01*
X025394Y025492D02*
Y025689D01*
X025295Y024803D02*
X025492D01*
X025394Y024705D02*
Y024902D01*
X02628Y024803D02*
X026476D01*
X026378Y024705D02*
Y024902D01*
X025846Y024803D02*
X026043D01*
X025945Y024705D02*
Y024902D01*
X032665Y030902D02*
X032862D01*
X032763Y030804D02*
Y031001D01*
X032185Y030906D02*
X032382D01*
X032283Y030807D02*
Y031004D01*
X032185Y030315D02*
X032382D01*
X032283Y030217D02*
Y030413D01*
X02687Y031693D02*
X027067D01*
X026969Y031594D02*
Y031791D01*
X026083Y031693D02*
X02628D01*
X026181Y031594D02*
Y031791D01*
X025295Y031693D02*
X025492D01*
X025394Y031594D02*
Y031791D01*
X024508Y031693D02*
X024705D01*
X024606Y031594D02*
Y031791D01*
X02372Y031693D02*
X023917D01*
X023819Y031594D02*
Y031791D01*
X02372Y032283D02*
X023917D01*
X023819Y032185D02*
Y032382D01*
X024508Y032283D02*
X024705D01*
X024606Y032185D02*
Y032382D01*
X025295Y032283D02*
X025492D01*
X025394Y032185D02*
Y032382D01*
X026083Y032283D02*
X02628D01*
X026181Y032185D02*
Y032382D01*
X02687Y032283D02*
X027067D01*
X026969Y032185D02*
Y032382D01*
X029232Y032283D02*
X029429D01*
X029331Y032185D02*
Y032382D01*
X030413Y032283D02*
X03061D01*
X030512Y032185D02*
Y032382D01*
X029232Y031693D02*
X029429D01*
X029331Y031594D02*
Y031791D01*
X030413Y031693D02*
X03061D01*
X030512Y031594D02*
Y031791D01*
X029823Y032283D02*
X03002D01*
X029921Y032185D02*
Y032382D01*
X029823Y031693D02*
X03002D01*
X029921Y031594D02*
Y031791D01*
X022343Y023031D02*
X022539D01*
X022441Y022933D02*
Y02313D01*
X038878Y027362D02*
X039075D01*
X038976Y027264D02*
Y027461D01*
X039469Y027362D02*
X039665D01*
X039567Y027264D02*
Y027461D01*
X040059Y027362D02*
X040256D01*
X040157Y027264D02*
Y027461D01*
X044587Y032677D02*
X044783D01*
X044685Y032579D02*
Y032776D01*
X044587Y033268D02*
X044783D01*
X044685Y033169D02*
Y033366D01*
X045177Y032677D02*
X045374D01*
X045276Y032579D02*
Y032776D01*
X045177Y033268D02*
X045374D01*
X045276Y033169D02*
Y033366D01*
X043209Y034646D02*
X043406D01*
X043307Y034547D02*
Y034744D01*
X043209Y033661D02*
X043406D01*
X043307Y033563D02*
Y03376D01*
X043209Y034252D02*
X043406D01*
X043307Y034154D02*
Y03435D01*
X042815Y034646D02*
X043012D01*
X042913Y034547D02*
Y034744D01*
X042815Y034252D02*
X043012D01*
X042913Y034154D02*
Y03435D01*
X042815Y033661D02*
X043012D01*
X042913Y033563D02*
Y03376D01*
X043602Y033661D02*
X043799D01*
X043701Y033563D02*
Y03376D01*
X043602Y034252D02*
X043799D01*
X043701Y034154D02*
Y03435D01*
X043602Y034843D02*
X043799D01*
X043701Y034744D02*
Y034941D01*
X034154Y018504D02*
X03435D01*
X034252Y018406D02*
Y018602D01*
X049114Y031496D02*
X049311D01*
X049213Y031398D02*
Y031594D01*
X049705Y031496D02*
X049902D01*
X049803Y031398D02*
Y031594D01*
X050295Y031693D02*
X050492D01*
X050394Y031594D02*
Y031791D01*
X050886Y031693D02*
X051083D01*
X050984Y031594D02*
Y031791D01*
X051476Y031693D02*
X051673D01*
X051575Y031594D02*
Y031791D01*
X051476Y02874D02*
X051673D01*
X051575Y028642D02*
Y028839D01*
X050295Y02874D02*
X050492D01*
X050394Y028642D02*
Y028839D01*
X050886Y02874D02*
X051083D01*
X050984Y028642D02*
Y028839D01*
X051476Y032283D02*
X051673D01*
X051575Y032185D02*
Y032382D01*
X050689Y032283D02*
X050886D01*
X050787Y032185D02*
Y032382D01*
X050689Y032874D02*
X050886D01*
X050787Y032776D02*
Y032972D01*
X051476Y032874D02*
X051673D01*
X051575Y032776D02*
Y032972D01*
X051476Y034449D02*
X051673D01*
X051575Y03435D02*
Y034547D01*
X050689Y034449D02*
X050886D01*
X050787Y03435D02*
Y034547D01*
X050689Y033858D02*
X050886D01*
X050787Y03376D02*
Y033957D01*
X051476Y033858D02*
X051673D01*
X051575Y03376D02*
Y033957D01*
X051476Y037402D02*
X051673D01*
X051575Y037303D02*
Y0375D01*
X050689Y037402D02*
X050886D01*
X050787Y037303D02*
Y0375D01*
X051476Y035236D02*
X051673D01*
X051575Y035138D02*
Y035335D01*
X050689Y035236D02*
X050886D01*
X050787Y035138D02*
Y035335D01*
X050689Y035827D02*
X050886D01*
X050787Y035728D02*
Y035925D01*
X051476Y035827D02*
X051673D01*
X051575Y035728D02*
Y035925D01*
X051476Y036811D02*
X051673D01*
X051575Y036713D02*
Y036909D01*
X050689Y036811D02*
X050886D01*
X050787Y036713D02*
Y036909D01*
X042815Y038583D02*
X043012D01*
X042913Y038484D02*
Y038681D01*
X042815Y039173D02*
X043012D01*
X042913Y039075D02*
Y039272D01*
X043406Y039173D02*
X043602D01*
X043504Y039075D02*
Y039272D01*
X043996Y039173D02*
X044193D01*
X044094Y039075D02*
Y039272D01*
X044587Y039173D02*
X044783D01*
X044685Y039075D02*
Y039272D01*
X045177Y039173D02*
X045374D01*
X045276Y039075D02*
Y039272D01*
X045768Y039173D02*
X045965D01*
X045866Y039075D02*
Y039272D01*
X031909Y033661D02*
X032106D01*
X032008Y033563D02*
Y03376D01*
X033563Y039173D02*
X03376D01*
X033661Y039075D02*
Y039272D01*
X034154Y039173D02*
X03435D01*
X034252Y039075D02*
Y039272D01*
X034744Y039173D02*
X034941D01*
X034843Y039075D02*
Y039272D01*
X034744Y038583D02*
X034941D01*
X034843Y038484D02*
Y038681D01*
X034154Y038583D02*
X03435D01*
X034252Y038484D02*
Y038681D01*
X033563Y038583D02*
X03376D01*
X033661Y038484D02*
Y038681D01*
X032972Y039173D02*
X033169D01*
X033071Y039075D02*
Y039272D01*
X032382Y039173D02*
X032579D01*
X03248Y039075D02*
Y039272D01*
X031791Y039173D02*
X031988D01*
X03189Y039075D02*
Y039272D01*
X031791Y038583D02*
X031988D01*
X03189Y038484D02*
Y038681D01*
X032972Y038583D02*
X033169D01*
X033071Y038484D02*
Y038681D01*
X032382Y038583D02*
X032579D01*
X03248Y038484D02*
Y038681D01*
X051476Y031299D02*
X051673D01*
X051575Y031201D02*
Y031398D01*
X050886Y031299D02*
X051083D01*
X050984Y031201D02*
Y031398D01*
X050295Y031299D02*
X050492D01*
X050394Y031201D02*
Y031398D01*
X049705Y030906D02*
X049902D01*
X049803Y030807D02*
Y031004D01*
X049114Y030906D02*
X049311D01*
X049213Y030807D02*
Y031004D01*
X051476Y029134D02*
X051673D01*
X051575Y029035D02*
Y029232D01*
X050891Y029142D02*
X051087D01*
X050989Y029043D02*
Y02924D01*
X050295Y029134D02*
X050492D01*
X050394Y029035D02*
Y029232D01*
X049705Y029331D02*
X049902D01*
X049803Y029232D02*
Y029429D01*
X049114Y029331D02*
X049311D01*
X049213Y029232D02*
Y029429D01*
X03876Y03372D02*
X038917D01*
X038839Y033642D02*
Y033799D01*
X037126Y023937D02*
X037283D01*
X037205Y023858D02*
Y024016D01*
X04752Y020433D02*
X047756D01*
X047638Y020315D02*
Y020551D01*
X041654Y019685D02*
X041811D01*
X041732Y019606D02*
Y019764D01*
X022913Y026277D02*
X023071D01*
X022992Y026199D02*
Y026356D01*
X023189Y019213D02*
X023346D01*
X023268Y019134D02*
Y019291D01*
X037618Y02063D02*
X037776D01*
X037697Y020551D02*
Y020709D01*
X03435Y021713D02*
X034508D01*
X034429Y021634D02*
Y021791D01*
X033228Y023425D02*
X033386D01*
X033307Y023346D02*
Y023504D01*
X029659Y02597D02*
X029817D01*
X029738Y025892D02*
Y026049D01*
X02962Y024435D02*
X029856D01*
X029738Y024317D02*
Y024553D01*
X028189Y030945D02*
X028425D01*
X028307Y030827D02*
Y031063D01*
X037067Y030138D02*
X037303D01*
X037185Y03002D02*
Y030256D01*
X048366Y020453D02*
X048602D01*
X048484Y020335D02*
Y020571D01*
X044094Y036299D02*
X044331D01*
X044213Y036181D02*
Y036417D01*
X039685Y030669D02*
X039843D01*
X039764Y030591D02*
Y030748D01*
X039882Y02878D02*
X040039D01*
X039961Y028701D02*
Y028858D01*
X033189Y031969D02*
X033346D01*
X033268Y03189D02*
Y032047D01*
X033819Y027795D02*
X033976D01*
X033898Y027717D02*
Y027874D01*
X021811Y019685D02*
X021969D01*
X02189Y019606D02*
Y019764D01*
X021063Y026575D02*
X02122D01*
X021142Y026496D02*
Y026654D01*
X028425Y024803D02*
X028661D01*
X028543Y024685D02*
Y024921D01*
X03122Y01811D02*
X031378D01*
X031299Y018032D02*
Y018189D01*
X037992Y021693D02*
X03815D01*
X038071Y021614D02*
Y021772D01*
X037992Y022165D02*
X03815D01*
X038071Y022087D02*
Y022244D01*
Y020669D02*
X038228D01*
X03815Y020591D02*
Y020748D01*
X034291Y022953D02*
X034528D01*
X034409Y022835D02*
Y023071D01*
X03378Y025984D02*
X034016D01*
X033898Y025866D02*
Y026102D01*
X032953Y025354D02*
X03311D01*
X033031Y025276D02*
Y025433D01*
X032953Y024935D02*
X03311D01*
X033031Y024856D02*
Y025014D01*
X040945Y022638D02*
X041181D01*
X041063Y02252D02*
Y022756D01*
Y023622D02*
X04122D01*
X041142Y023543D02*
Y023701D01*
X023543D02*
X023701D01*
X023622Y023622D02*
Y02378D01*
X022441Y027323D02*
X022598D01*
X02252Y027244D02*
Y027402D01*
X033106Y027909D02*
X033263D01*
X033185Y02783D02*
Y027988D01*
X047913Y033425D02*
X04815D01*
X048032Y033307D02*
Y033543D01*
X04685Y018504D02*
X047008D01*
X046929Y018425D02*
Y018583D01*
X037992Y026772D02*
X03815D01*
X038071Y026693D02*
Y02685D01*
X038307Y026378D02*
X038465D01*
X038386Y026299D02*
Y026457D01*
X03689Y03374D02*
X037047D01*
X036969Y033661D02*
Y033819D01*
X033976Y024921D02*
X034134D01*
X034055Y024843D02*
Y025D01*
X035748Y02815D02*
X035906D01*
X035827Y028071D02*
Y028228D01*
X037992Y027441D02*
X03815D01*
X038071Y027362D02*
Y02752D01*
X035Y027795D02*
X035157D01*
X035079Y027717D02*
Y027874D01*
X035Y027362D02*
X035157D01*
X035079Y027283D02*
Y027441D01*
X025906Y021654D02*
X026063D01*
X025984Y021575D02*
Y021732D01*
X025315Y022047D02*
X025472D01*
X025394Y021969D02*
Y022126D01*
X03498Y025965D02*
X035138D01*
X035059Y025886D02*
Y026043D01*
X038701Y031929D02*
X038858D01*
X03878Y03185D02*
Y032008D01*
X038307Y027756D02*
X038465D01*
X038386Y027677D02*
Y027835D01*
X035748Y026969D02*
X035906D01*
X035827Y02689D02*
Y027047D01*
X045276Y022362D02*
X045433D01*
X045354Y022283D02*
Y022441D01*
X044606Y022362D02*
X044764D01*
X044685Y022283D02*
Y022441D01*
X043976Y022087D02*
X044134D01*
X044055Y022008D02*
Y022165D01*
X045965Y022776D02*
X046122D01*
X046043Y022697D02*
Y022854D01*
X040276Y022244D02*
X040433D01*
X040354Y022165D02*
Y022323D01*
X039882Y022717D02*
X040039D01*
X039961Y022638D02*
Y022795D01*
X039882Y023228D02*
X040039D01*
X039961Y02315D02*
Y023307D01*
X044396Y019947D02*
X044553D01*
X044474Y019868D02*
Y020026D01*
X044409Y019447D02*
X044567D01*
X044488Y019368D02*
Y019526D01*
X039094Y020447D02*
X039252D01*
X039173Y020368D02*
Y020526D01*
X040079Y024213D02*
X040236D01*
X040157Y024134D02*
Y024291D01*
X040079Y024606D02*
X040236D01*
X040157Y024528D02*
Y024685D01*
X039882Y032874D02*
X040039D01*
X039961Y032795D02*
Y032953D01*
X025118Y029567D02*
X025276D01*
X025197Y029488D02*
Y029646D01*
X022559Y020827D02*
X022717D01*
X022638Y020748D02*
Y020906D01*
X022559Y020197D02*
X022717D01*
X022638Y020118D02*
Y020276D01*
X020984Y020827D02*
X021142D01*
X021063Y020748D02*
Y020906D01*
X022559Y019685D02*
X022717D01*
X022638Y019606D02*
Y019764D01*
X021181Y017913D02*
X021339D01*
X02126Y017835D02*
Y017992D01*
X023189Y018504D02*
X023346D01*
X023268Y018425D02*
Y018583D01*
X022559Y022323D02*
X022717D01*
X022638Y022244D02*
Y022402D01*
X023031Y028543D02*
X023189D01*
X02311Y028465D02*
Y028622D01*
X02252Y038189D02*
X022756D01*
X022638Y038071D02*
Y038307D01*
X02252Y037402D02*
X022756D01*
X022638Y037283D02*
Y03752D01*
X021929Y038189D02*
X022165D01*
X022047Y038071D02*
Y038307D01*
X021929Y037402D02*
X022165D01*
X022047Y037283D02*
Y03752D01*
X02311Y03622D02*
X023346D01*
X023228Y036102D02*
Y036339D01*
X02311Y035827D02*
X023346D01*
X023228Y035709D02*
Y035945D01*
X023701Y035827D02*
X023937D01*
X023819Y035709D02*
Y035945D01*
X023701Y03622D02*
X023937D01*
X023819Y036102D02*
Y036339D01*
X024291Y03622D02*
X024528D01*
X024409Y036102D02*
Y036339D01*
X024291Y035827D02*
X024528D01*
X024409Y035709D02*
Y035945D01*
X024882Y03622D02*
X025118D01*
X025Y036102D02*
Y036339D01*
X024882Y035827D02*
X025118D01*
X025Y035709D02*
Y035945D01*
X048346Y022047D02*
X048504D01*
X048425Y021969D02*
Y022126D01*
X048346Y022638D02*
X048504D01*
X048425Y022559D02*
Y022717D01*
X048346Y023228D02*
X048504D01*
X048425Y02315D02*
Y023307D01*
X048346Y023819D02*
X048504D01*
X048425Y02374D02*
Y023898D01*
X048346Y024409D02*
X048504D01*
X048425Y024331D02*
Y024488D01*
X048346Y025D02*
X048504D01*
X048425Y024921D02*
Y025079D01*
X048937Y025D02*
X049094D01*
X049016Y024921D02*
Y025079D01*
X048937Y024409D02*
X049094D01*
X049016Y024331D02*
Y024488D01*
X048937Y023819D02*
X049094D01*
X049016Y02374D02*
Y023898D01*
X048937Y023228D02*
X049094D01*
X049016Y02315D02*
Y023307D01*
X048937Y022638D02*
X049094D01*
X049016Y022559D02*
Y022717D01*
X048937Y022047D02*
X049094D01*
X049016Y021969D02*
Y022126D01*
X049528Y025D02*
X049685D01*
X049606Y024921D02*
Y025079D01*
X049528Y024409D02*
X049685D01*
X049606Y024331D02*
Y024488D01*
X049528Y023819D02*
X049685D01*
X049606Y02374D02*
Y023898D01*
X049528Y023228D02*
X049685D01*
X049606Y02315D02*
Y023307D01*
X049528Y022638D02*
X049685D01*
X049606Y022559D02*
Y022717D01*
M02*
