G04 Layer_Color=0*
%FSTAX24Y24*%
%MOIN*%
G70*
G01*
G75*
%ADD80C,0.0100*%
%ADD84C,0.0059*%
D80*
X04874Y020846D02*
X050157D01*
Y020059D02*
Y020846D01*
X04874Y020059D02*
X050157D01*
X04874D02*
Y020846D01*
X052138Y019657D02*
X053201D01*
Y018319D02*
Y019657D01*
X052138Y018319D02*
X053201D01*
X04878Y019854D02*
X052138D01*
Y018161D02*
Y019854D01*
X04878Y018161D02*
X052138D01*
X04878D02*
Y019854D01*
X034764Y019961D02*
X037992D01*
Y018543D02*
Y019961D01*
X034764Y018543D02*
X037992D01*
X034764D02*
Y019961D01*
X020906Y021909D02*
X022323D01*
X020906D02*
Y022697D01*
X022323D01*
Y021909D02*
Y022697D01*
D84*
X034685Y037008D02*
X035787D01*
Y036457D02*
Y037008D01*
X034685Y036457D02*
X035787D01*
X034685D02*
Y037008D01*
X032283Y032343D02*
Y033445D01*
X031732Y032343D02*
X032283D01*
X031732D02*
Y033445D01*
X032283D01*
X031752Y032205D02*
X032854D01*
Y031654D02*
Y032205D01*
X031752Y031654D02*
X032854D01*
X031752D02*
Y032205D01*
X034173Y032343D02*
Y033445D01*
X034724D01*
Y032343D02*
Y033445D01*
X034173Y032343D02*
X034724D01*
X035354D02*
Y033445D01*
X034803Y032343D02*
X035354D01*
X034803D02*
Y033445D01*
X035354D01*
X035433Y032343D02*
Y033445D01*
X035984D01*
Y032343D02*
Y033445D01*
X035433Y032343D02*
X035984D01*
X036614D02*
Y033445D01*
X036063Y032343D02*
X036614D01*
X036063D02*
Y033445D01*
X036614D01*
X036693Y032343D02*
Y033445D01*
X037244D01*
Y032343D02*
Y033445D01*
X036693Y032343D02*
X037244D01*
X037323D02*
Y033445D01*
X037874D01*
Y032343D02*
Y033445D01*
X037323Y032343D02*
X037874D01*
X037992Y032913D02*
X039094D01*
X037992D02*
Y033465D01*
X039094D01*
Y032913D02*
Y033465D01*
X037992Y032283D02*
X039094D01*
X037992D02*
Y032835D01*
X039094D01*
Y032283D02*
Y032835D01*
X039744Y031654D02*
X040846D01*
X039744D02*
Y032205D01*
X040846D01*
Y031654D02*
Y032205D01*
X039213Y030413D02*
Y031516D01*
X039764D01*
Y030413D02*
Y031516D01*
X039213Y030413D02*
X039764D01*
X038583D02*
Y031516D01*
X039134D01*
Y030413D02*
Y031516D01*
X038583Y030413D02*
X039134D01*
X040472Y028524D02*
Y029626D01*
X041024D01*
Y028524D02*
Y029626D01*
X040472Y028524D02*
X041024D01*
X040472Y027264D02*
Y028366D01*
X041024D01*
Y027264D02*
Y028366D01*
X040472Y027264D02*
X041024D01*
X039232Y030236D02*
X040335D01*
Y029685D02*
Y030236D01*
X039232Y029685D02*
X040335D01*
X039232D02*
Y030236D01*
Y029606D02*
X040335D01*
Y029055D02*
Y029606D01*
X039232Y029055D02*
X040335D01*
X039232D02*
Y029606D01*
Y028346D02*
X040335D01*
Y027795D02*
Y028346D01*
X039232Y027795D02*
X040335D01*
X039232D02*
Y028346D01*
X039764Y026024D02*
Y027126D01*
X039213Y026024D02*
X039764D01*
X039213D02*
Y027126D01*
X039764D01*
X036929Y029882D02*
Y030984D01*
X036378Y029882D02*
X036929D01*
X036378D02*
Y030984D01*
X036929D01*
X045Y022618D02*
Y02372D01*
X045551D01*
Y022618D02*
Y02372D01*
X045Y022618D02*
X045551D01*
X044409D02*
Y02372D01*
X044961D01*
Y022618D02*
Y02372D01*
X044409Y022618D02*
X044961D01*
X04378D02*
Y02372D01*
X044331D01*
Y022618D02*
Y02372D01*
X04378Y022618D02*
X044331D01*
X043071D02*
Y02372D01*
X043622D01*
Y022618D02*
Y02372D01*
X043071Y022618D02*
X043622D01*
X042028Y032283D02*
X04313D01*
X042028D02*
Y032835D01*
X04313D01*
Y032283D02*
Y032835D01*
X042028Y032913D02*
X04313D01*
X042028D02*
Y033465D01*
X04313D01*
Y032913D02*
Y033465D01*
X050492Y038268D02*
X051594D01*
X050492D02*
Y038819D01*
X051594D01*
Y038268D02*
Y038819D01*
X04685Y032992D02*
Y033543D01*
X045748D02*
X04685D01*
X045748Y032992D02*
Y033543D01*
Y032992D02*
X04685D01*
Y032362D02*
Y032913D01*
X045748D02*
X04685D01*
X045748Y032362D02*
Y032913D01*
Y032362D02*
X04685D01*
X049528Y028622D02*
X050079D01*
X049528Y02752D02*
Y028622D01*
Y02752D02*
X050079D01*
Y028622D01*
X045787Y023701D02*
X04689D01*
Y02315D02*
Y023701D01*
X045787Y02315D02*
X04689D01*
X045787D02*
Y023701D01*
X047382Y018898D02*
X048484D01*
X047382D02*
Y019449D01*
X048484D01*
Y018898D02*
Y019449D01*
X047382Y018228D02*
X048484D01*
X047382D02*
Y01878D01*
X048484D01*
Y018228D02*
Y01878D01*
X042402Y022205D02*
X043504D01*
Y021654D02*
Y022205D01*
X042402Y021654D02*
X043504D01*
X042402D02*
Y022205D01*
X044744Y020157D02*
X045846D01*
X044744D02*
Y020709D01*
X045846D01*
Y020157D02*
Y020709D01*
X044744Y019173D02*
X045846D01*
X044744D02*
Y019724D01*
X045846D01*
Y019173D02*
Y019724D01*
X03937Y020689D02*
Y021791D01*
X039921D01*
Y020689D02*
Y021791D01*
X03937Y020689D02*
X039921D01*
Y019114D02*
Y020217D01*
X03937Y019114D02*
X039921D01*
X03937D02*
Y020217D01*
X039921D01*
X038504Y019075D02*
Y020177D01*
X039055D01*
Y019075D02*
Y020177D01*
X038504Y019075D02*
X039055D01*
Y017756D02*
Y018858D01*
X038504Y017756D02*
X039055D01*
X038504D02*
Y018858D01*
X039055D01*
X037205Y020591D02*
Y021693D01*
X037756D01*
Y020591D02*
Y021693D01*
X037205Y020591D02*
X037756D01*
X033209Y023701D02*
X034311D01*
X033209D02*
Y024252D01*
X034311D01*
Y023701D02*
Y024252D01*
X033031Y023228D02*
X034134D01*
Y022677D02*
Y023228D01*
X033031Y022677D02*
X034134D01*
X033031D02*
Y023228D01*
X033622Y021457D02*
Y022559D01*
X034173D01*
Y021457D02*
Y022559D01*
X033622Y021457D02*
X034173D01*
X03185Y018858D02*
Y019961D01*
X031299Y018858D02*
X03185D01*
X031299D02*
Y019961D01*
X03185D01*
X036496Y017874D02*
X037598D01*
X036496D02*
Y018425D01*
X037598D01*
Y017874D02*
Y018425D01*
X035157D02*
X03626D01*
Y017874D02*
Y018425D01*
X035157Y017874D02*
X03626D01*
X035157D02*
Y018425D01*
X032992Y021457D02*
Y022559D01*
X033543D01*
Y021457D02*
Y022559D01*
X032992Y021457D02*
X033543D01*
X031398Y022913D02*
X0325D01*
X031398D02*
Y023465D01*
X0325D01*
Y022913D02*
Y023465D01*
X030177D02*
X03128D01*
Y022913D02*
Y023465D01*
X030177Y022913D02*
X03128D01*
X030177D02*
Y023465D01*
X034803Y026339D02*
Y027441D01*
X034252Y026339D02*
X034803D01*
X034252D02*
Y027441D01*
X034803D01*
X034173Y026339D02*
Y027441D01*
X033622Y026339D02*
X034173D01*
X033622D02*
Y027441D01*
X034173D01*
X032677Y028937D02*
Y030039D01*
X032126Y028937D02*
X032677D01*
X032126D02*
Y030039D01*
X032677D01*
X029961Y026535D02*
X031063D01*
Y025984D02*
Y026535D01*
X029961Y025984D02*
X031063D01*
X029961D02*
Y026535D01*
X028583Y03122D02*
Y032323D01*
X028031Y03122D02*
X028583D01*
X028031D02*
Y032323D01*
X028583D01*
X029449Y027776D02*
Y028878D01*
X028898Y027776D02*
X029449D01*
X028898D02*
Y028878D01*
X029449D01*
X029587Y028346D02*
X030689D01*
X029587D02*
Y028898D01*
X030689D01*
Y028346D02*
Y028898D01*
X022264Y029291D02*
X023366D01*
X022264D02*
Y029843D01*
X023366D01*
Y029291D02*
Y029843D01*
X023681Y029291D02*
X024783D01*
X023681D02*
Y029843D01*
X024783D01*
Y029291D02*
Y029843D01*
X019547Y029921D02*
X02065D01*
Y02937D02*
Y029921D01*
X019547Y02937D02*
X02065D01*
X019547D02*
Y029921D01*
X020787Y025256D02*
Y026358D01*
X020236Y025256D02*
X020787D01*
X020236D02*
Y026358D01*
X020787D01*
X021417Y025256D02*
Y026358D01*
X020866Y025256D02*
X021417D01*
X020866D02*
Y026358D01*
X021417D01*
X020157Y025256D02*
Y026358D01*
X019606Y025256D02*
X020157D01*
X019606D02*
Y026358D01*
X020157D01*
X020945Y023091D02*
Y024193D01*
X021496D01*
Y023091D02*
Y024193D01*
X020945Y023091D02*
X021496D01*
X020315D02*
Y024193D01*
X020866D01*
Y023091D02*
Y024193D01*
X020315Y023091D02*
X020866D01*
X021575D02*
Y024193D01*
X022126D01*
Y023091D02*
Y024193D01*
X021575Y023091D02*
X022126D01*
X022343Y021181D02*
Y021732D01*
X02124D02*
X022343D01*
X02124Y021181D02*
Y021732D01*
Y021181D02*
X022343D01*
X02124Y021102D02*
X022343D01*
Y020551D02*
Y021102D01*
X02124Y020551D02*
X022343D01*
X02124D02*
Y021102D01*
Y020472D02*
X022343D01*
Y019921D02*
Y020472D01*
X02124Y019921D02*
X022343D01*
X02124D02*
Y020472D01*
X020984Y018209D02*
Y019311D01*
X021535D01*
Y018209D02*
Y019311D01*
X020984Y018209D02*
X021535D01*
X034606Y018858D02*
Y019961D01*
X034055Y018858D02*
X034606D01*
X034055D02*
Y019961D01*
X034606D01*
M02*
