M48
;Layer_Color=9474304
;FILE_FORMAT=2:4
INCH,LZ
;TYPE=PLATED
T1F00S00C0.0157
T2F00S00C0.0197
T3F00S00C0.0236
T4F00S00C0.0310
T5F00S00C0.0315
T6F00S00C0.0320
T7F00S00C0.0350
T8F00S00C0.0354
T9F00S00C0.0360
T10F00S00C0.0394
T11F00S00C0.0433
T12F00S00C0.0450
T13F00S00C0.0472
T14F00S00C0.0591
T15F00S00C0.0630
%
T01
X046929Y018504
X048425Y022047
Y022638
Y023228
Y023819
Y024409
Y025
X049016
X049606
Y024409
X049016
Y023819
Y023228
Y022638
Y022047
X049606Y022638
Y023228
Y023819
X046043Y022776
X045354Y022362
X044685
X044055Y022087
X044474Y019947
X044488Y019447
X041732Y019685
X039173Y020447
X03815Y020669
X037697Y02063
X038071Y021693
Y022165
X040354Y022244
X039961Y022717
Y023228
X040157Y024213
Y024606
X041142Y023622
X037205Y023937
X038386Y026378
X038071Y026772
X038071Y027441
X038386Y027756
X039961Y02878
X039764Y030669
X035827Y02815
X035079Y027795
X035079Y027362
X035827Y026969
X035059Y025965
X034055Y024921
X033031Y024935
X033031Y025354
X033307Y023425
X034429Y021713
X033898Y027795
X033185Y027909
X031299Y01811
X023268Y018504
Y019213
X022638Y019685
Y020197
Y020827
Y022323
X023622Y023701
X022992Y026277
X02252Y027323
X02311Y028543
X025197Y029567
X030197Y029724
X030591
Y030118
X030197
Y030512
X030591
X029738Y02597
X025984Y021654
X025394Y022047
X021063Y020827
X02189Y019685
X02126Y017913
X021142Y026575
X033268Y031969
X034882Y034528
X035276
Y034921
X034882
Y035315
X035276
X036969Y03374
X038839Y03372
X03878Y031929
X039961Y032874
T02
X047047Y028701
Y029331
Y029921
Y030512
X048583Y030906
X049213
X049803
Y029331
X049213
X048583
X050394Y029134
Y02874
X050984
X050989Y029142
X051575Y029134
Y02874
X04626
X045669
Y029331
Y029921
X045079
X044488
Y029331
X045079
Y02874
X044488
X043898
Y02815
Y027559
X043307
Y02815
Y02874
Y029331
Y029921
X043898
Y029331
X046269Y029332
X04626Y029921
X040157Y027362
X039567
X038976
X032283Y030315
Y030906
X032763Y030902
X032874Y019094
X033465
Y018504
X032874
X032283
Y019094
X034252Y018504
X045276Y017717
X046063
X04685
X029528
Y018307
X02874
Y017717
X027953
Y018307
X027165
Y017717
X026378
Y018307
X025591
Y017717
X024803
Y018307
X025394Y024803
X025945
X026378
Y025591
X025945Y025596
X025394Y025591
X022441Y023031
X017913Y021063
X017323
Y020472
Y019882
X017913
Y020472
X023819Y031693
Y032283
X024606
Y031693
X025394
Y032283
X026181
Y031693
X026969
Y032283
X029331
Y031693
X029921
Y032283
X030512
Y031693
Y038583
X031102
Y039173
X030512
X029921
Y038583
X029331
X02874
Y039173
X029331
X03189
X03248
Y038583
X03189
X033071
X033661
Y039173
X034252
X034843
Y038583
X034252
X033071Y039173
X032008Y033661
X042913
X043307
X043701
Y034252
X043307
Y034646
X042913
Y034252
X043701Y034843
X044685Y033268
Y032677
X045276
Y033268
Y039173
X044685
X044094
X043504
X042913
Y038583
X045866Y039173
X050787Y037402
Y036811
X051575
Y037402
Y035827
Y035236
Y034449
Y033858
X050787
Y034449
Y035236
Y035827
Y032874
Y032283
X050984Y031693
Y031299
X051575
Y031693
Y032283
Y032874
X050394Y031693
Y031299
X049803Y031496
X049213
T03
X047638Y020433
X048484Y020453
X041063Y022638
X034409Y022953
X033898Y025984
X037185Y030138
X028307Y030945
X028543Y024803
X029738Y024435
X025Y035827
Y03622
X024409
Y035827
X023819
Y03622
X023228
Y035827
X022638Y037402
X022047
Y038189
X022638
X044213Y036299
X048032Y033425
T04
X020984Y034213
Y036213
T05
X017913Y024079
Y025079
Y027228
Y028228
Y031047
X020472
Y032047
X017913
T06
X029921Y032949
Y034449
Y036437
Y037937
T07
X018491Y037805
X020991
T08
X04074Y018268
X04175
X04273
X04374
T09
X040748Y02463
Y02564
Y02662
T10
X01914Y019577
Y021309
T11
X049394Y018488
Y019488
X050394
Y018488
T12
X024213Y034055
X026969
Y037205
X024213
T13
X025346Y020669
T14
X028307Y020669
T15
X018307Y034449
Y036024
M30
