G04*
G04 #@! TF.GenerationSoftware,Altium Limited,Altium Designer,18.1.6 (161)*
G04*
G04 Layer_Color=2752767*
%FSTAX24Y24*%
%MOIN*%
G70*
G01*
G75*
%ADD191C,0.0020*%
%ADD192C,0.0027*%
%ADD193C,0.0013*%
D191*
X0192Y03783D02*
Y03799D01*
X01936D01*
Y03783D01*
X0192D01*
X04015Y04564D02*
Y0458D01*
X04031D01*
Y04564D01*
X04015D01*
X04899Y04608D02*
Y04624D01*
X04915D01*
Y04608D01*
X04899D01*
X0605Y027257D02*
X06042Y027417D01*
X06058D01*
X0605Y027257D01*
Y025257D02*
X06042Y025417D01*
X06058D01*
X0605Y025257D01*
X0585D02*
X05842Y025417D01*
X05858D01*
X0585Y025257D01*
Y027257D02*
X05842Y027417D01*
X05858D01*
X0585Y027257D01*
X0595Y026257D02*
X05954Y026297D01*
X05958D01*
X05954Y026337D01*
X05958Y026377D01*
X05954D01*
X0595Y026417D01*
X05946Y026377D01*
X05942D01*
X05946Y026337D01*
X05942Y026297D01*
X05946D01*
X0595Y026257D01*
X0605Y04312D02*
X06042Y04328D01*
X06058D01*
X0605Y04312D01*
Y04112D02*
X06042Y04128D01*
X06058D01*
X0605Y04112D01*
X0585D02*
X05842Y04128D01*
X05858D01*
X0585Y04112D01*
Y04312D02*
X05842Y04328D01*
X05858D01*
X0585Y04312D01*
X0595Y04212D02*
X05954Y04216D01*
X05958D01*
X05954Y0422D01*
X05958Y04224D01*
X05954D01*
X0595Y04228D01*
X05946Y04224D01*
X05942D01*
X05946Y0422D01*
X05942Y04216D01*
X05946D01*
X0595Y04212D01*
X03072Y043257D02*
X03076Y043337D01*
X03072Y043417D01*
X0308Y043377D01*
X03088Y043417D01*
X03084Y043337D01*
X03088Y043257D01*
X0308Y043297D01*
X03072Y043257D01*
Y042864D02*
X03076Y042944D01*
X03072Y043024D01*
X0308Y042984D01*
X03088Y043024D01*
X03084Y042944D01*
X03088Y042864D01*
X0308Y042904D01*
X03072Y042864D01*
Y04247D02*
X03076Y04255D01*
X03072Y04263D01*
X0308Y04259D01*
X03088Y04263D01*
X03084Y04255D01*
X03088Y04247D01*
X0308Y04251D01*
X03072Y04247D01*
X031114D02*
X031154Y04255D01*
X031114Y04263D01*
X031194Y04259D01*
X031274Y04263D01*
X031234Y04255D01*
X031274Y04247D01*
X031194Y04251D01*
X031114Y04247D01*
Y042864D02*
X031154Y042944D01*
X031114Y043024D01*
X031194Y042984D01*
X031274Y043024D01*
X031234Y042944D01*
X031274Y042864D01*
X031194Y042904D01*
X031114Y042864D01*
Y043257D02*
X031154Y043337D01*
X031114Y043417D01*
X031194Y043377D01*
X031274Y043417D01*
X031234Y043337D01*
X031274Y043257D01*
X031194Y043297D01*
X031114Y043257D01*
X02998Y03411D02*
Y03407D01*
X03006D01*
Y03411D01*
X0301D01*
Y03419D01*
X03006D01*
Y03423D01*
X02998D01*
Y03419D01*
X02994D01*
Y03411D01*
X02998D01*
X02898D02*
Y03407D01*
X02906D01*
Y03411D01*
X0291D01*
Y03419D01*
X02906D01*
Y03423D01*
X02898D01*
Y03419D01*
X02894D01*
Y03411D01*
X02898D01*
X02802Y04637D02*
X02806D01*
X0281Y04641D01*
X02814Y04637D01*
X02818D01*
Y04641D01*
X02814Y04645D01*
X02818Y04649D01*
Y04653D01*
X02814D01*
X0281Y04649D01*
X02806Y04653D01*
X02802D01*
Y04649D01*
X02806Y04645D01*
X02802Y04641D01*
Y04637D01*
Y04787D02*
X02806D01*
X0281Y04791D01*
X02814Y04787D01*
X02818D01*
Y04791D01*
X02814Y04795D01*
X02818Y04799D01*
Y04803D01*
X02814D01*
X0281Y04799D01*
X02806Y04803D01*
X02802D01*
Y04799D01*
X02806Y04795D01*
X02802Y04791D01*
Y04787D01*
X02437Y04637D02*
X02441D01*
X02445Y04641D01*
X02449Y04637D01*
X02453D01*
Y04641D01*
X02449Y04645D01*
X02453Y04649D01*
Y04653D01*
X02449D01*
X02445Y04649D01*
X02441Y04653D01*
X02437D01*
Y04649D01*
X02441Y04645D01*
X02437Y04641D01*
Y04637D01*
Y04787D02*
X02441D01*
X02445Y04791D01*
X02449Y04787D01*
X02453D01*
Y04791D01*
X02449Y04795D01*
X02453Y04799D01*
Y04803D01*
X02449D01*
X02445Y04799D01*
X02441Y04803D01*
X02437D01*
Y04799D01*
X02441Y04795D01*
X02437Y04791D01*
Y04787D01*
X018508Y043603D02*
X018588Y043683D01*
X018668Y043603D01*
X018588Y043523D01*
X018508Y043603D01*
X021264D02*
X021344Y043683D01*
X021424Y043603D01*
X021344Y043523D01*
X021264Y043603D01*
Y046752D02*
X021344Y046832D01*
X021424Y046752D01*
X021344Y046672D01*
X021264Y046752D01*
X018508D02*
X018588Y046832D01*
X018668Y046752D01*
X018588Y046672D01*
X018508Y046752D01*
X01667Y04557D02*
Y04573D01*
X01683D01*
Y04557D01*
X01667D01*
X01671Y04561D02*
Y04569D01*
X01679D01*
Y04561D01*
X01671D01*
X01667Y04357D02*
Y04373D01*
X01683D01*
Y04357D01*
X01667D01*
X01671Y04361D02*
Y04369D01*
X01679D01*
Y04361D01*
X01671D01*
X0125Y03367D02*
X01242Y03383D01*
X01258D01*
X0125Y03367D01*
Y03371D02*
X01246Y03379D01*
X01254D01*
X0125Y03371D01*
Y03467D02*
X01242Y03483D01*
X01258D01*
X0125Y03467D01*
Y03471D02*
X01246Y03479D01*
X01254D01*
X0125Y03471D01*
Y03567D02*
X01242Y03583D01*
X01258D01*
X0125Y03567D01*
Y03571D02*
X01246Y03579D01*
X01254D01*
X0125Y03571D01*
Y03667D02*
X01242Y03683D01*
X01258D01*
X0125Y03667D01*
Y03671D02*
X01246Y03679D01*
X01254D01*
X0125Y03671D01*
X01351Y043345D02*
X01355Y043385D01*
X01359D01*
X01355Y043425D01*
X01359Y043465D01*
X01355D01*
X01351Y043505D01*
X01347Y043465D01*
X01343D01*
X01347Y043425D01*
X01343Y043385D01*
X01347D01*
X01351Y043345D01*
Y043385D02*
X01353Y043405D01*
X01355D01*
X01353Y043425D01*
X01355Y043445D01*
X01353D01*
X01351Y043465D01*
X01349Y043445D01*
X01347D01*
X01349Y043425D01*
X01347Y043405D01*
X01349D01*
X01351Y043385D01*
Y04177D02*
X01355Y04181D01*
X01359D01*
X01355Y04185D01*
X01359Y04189D01*
X01355D01*
X01351Y04193D01*
X01347Y04189D01*
X01343D01*
X01347Y04185D01*
X01343Y04181D01*
X01347D01*
X01351Y04177D01*
Y04181D02*
X01353Y04183D01*
X01355D01*
X01353Y04185D01*
X01355Y04187D01*
X01353D01*
X01351Y04189D01*
X01349Y04187D01*
X01347D01*
X01349Y04185D01*
X01347Y04183D01*
X01349D01*
X01351Y04181D01*
Y040195D02*
X01355Y040235D01*
X01359D01*
X01355Y040275D01*
X01359Y040315D01*
X01355D01*
X01351Y040355D01*
X01347Y040315D01*
X01343D01*
X01347Y040275D01*
X01343Y040235D01*
X01347D01*
X01351Y040195D01*
Y040235D02*
X01353Y040255D01*
X01355D01*
X01353Y040275D01*
X01355Y040295D01*
X01353D01*
X01351Y040315D01*
X01349Y040295D01*
X01347D01*
X01349Y040275D01*
X01347Y040255D01*
X01349D01*
X01351Y040235D01*
Y03862D02*
X01355Y03866D01*
X01359D01*
X01355Y0387D01*
X01359Y03874D01*
X01355D01*
X01351Y03878D01*
X01347Y03874D01*
X01343D01*
X01347Y0387D01*
X01343Y03866D01*
X01347D01*
X01351Y03862D01*
Y03866D02*
X01353Y03868D01*
X01355D01*
X01353Y0387D01*
X01355Y03872D01*
X01353D01*
X01351Y03874D01*
X01349Y03872D01*
X01347D01*
X01349Y0387D01*
X01347Y03868D01*
X01349D01*
X01351Y03866D01*
X01882Y03207D02*
Y03223D01*
X01898D01*
Y03207D01*
X01882D01*
X01886Y03211D02*
Y03219D01*
X01894D01*
Y03211D01*
X01886D01*
X01882Y03107D02*
Y03123D01*
X01898D01*
Y03107D01*
X01882D01*
X01886Y03111D02*
Y03119D01*
X01894D01*
Y03111D01*
X01886D01*
X01582Y03107D02*
Y03123D01*
X01598D01*
Y03107D01*
X01582D01*
X01586Y03111D02*
Y03119D01*
X01594D01*
Y03111D01*
X01586D01*
X01582Y03207D02*
Y03223D01*
X01598D01*
Y03207D01*
X01582D01*
X01586Y03211D02*
Y03219D01*
X01594D01*
Y03211D01*
X01586D01*
X0152Y02942D02*
X01512Y02958D01*
X01528D01*
X0152Y02942D01*
Y02946D02*
X01516Y02954D01*
X01524D01*
X0152Y02946D01*
Y02842D02*
X01512Y02858D01*
X01528D01*
X0152Y02842D01*
Y02846D02*
X01516Y02854D01*
X01524D01*
X0152Y02846D01*
X01532Y02322D02*
X01536Y0233D01*
X01532Y02338D01*
X0154Y02334D01*
X01548Y02338D01*
X01544Y0233D01*
X01548Y02322D01*
X0154Y02326D01*
X01532Y02322D01*
X01536Y02326D02*
X01538Y0233D01*
X01536Y02334D01*
X0154Y02332D01*
X01544Y02334D01*
X01542Y0233D01*
X01544Y02326D01*
X0154Y02328D01*
X01536Y02326D01*
X01532Y02422D02*
X01536Y0243D01*
X01532Y02438D01*
X0154Y02434D01*
X01548Y02438D01*
X01544Y0243D01*
X01548Y02422D01*
X0154Y02426D01*
X01532Y02422D01*
X01536Y02426D02*
X01538Y0243D01*
X01536Y02434D01*
X0154Y02432D01*
X01544Y02434D01*
X01542Y0243D01*
X01544Y02426D01*
X0154Y02428D01*
X01536Y02426D01*
X01532Y02522D02*
X01536Y0253D01*
X01532Y02538D01*
X0154Y02534D01*
X01548Y02538D01*
X01544Y0253D01*
X01548Y02522D01*
X0154Y02526D01*
X01532Y02522D01*
X01536Y02526D02*
X01538Y0253D01*
X01536Y02534D01*
X0154Y02532D01*
X01544Y02534D01*
X01542Y0253D01*
X01544Y02526D01*
X0154Y02528D01*
X01536Y02526D01*
X01532Y02622D02*
X01536Y0263D01*
X01532Y02638D01*
X0154Y02634D01*
X01548Y02638D01*
X01544Y0263D01*
X01548Y02622D01*
X0154Y02626D01*
X01532Y02622D01*
X01536Y02626D02*
X01538Y0263D01*
X01536Y02634D01*
X0154Y02632D01*
X01544Y02634D01*
X01542Y0263D01*
X01544Y02626D01*
X0154Y02628D01*
X01536Y02626D01*
X0125Y02842D02*
X01242Y02858D01*
X01258D01*
X0125Y02842D01*
Y02846D02*
X01246Y02854D01*
X01254D01*
X0125Y02846D01*
Y02942D02*
X01242Y02958D01*
X01258D01*
X0125Y02942D01*
Y02946D02*
X01246Y02954D01*
X01254D01*
X0125Y02946D01*
Y03042D02*
X01242Y03058D01*
X01258D01*
X0125Y03042D01*
Y03046D02*
X01246Y03054D01*
X01254D01*
X0125Y03046D01*
Y03142D02*
X01242Y03158D01*
X01258D01*
X0125Y03142D01*
Y03146D02*
X01246Y03154D01*
X01254D01*
X0125Y03146D01*
X01246Y026265D02*
Y026225D01*
X01254D01*
Y026265D01*
X01258D01*
Y026345D01*
X01254D01*
Y026385D01*
X01246D01*
Y026345D01*
X01242D01*
Y026265D01*
X01246D01*
X01248Y026285D02*
Y026265D01*
X01252D01*
Y026285D01*
X01254D01*
Y026325D01*
X01252D01*
Y026345D01*
X01248D01*
Y026325D01*
X01246D01*
Y026285D01*
X01248D01*
X01246Y025215D02*
Y025175D01*
X01254D01*
Y025215D01*
X01258D01*
Y025295D01*
X01254D01*
Y025335D01*
X01246D01*
Y025295D01*
X01242D01*
Y025215D01*
X01246D01*
X01248Y025235D02*
Y025215D01*
X01252D01*
Y025235D01*
X01254D01*
Y025275D01*
X01252D01*
Y025295D01*
X01248D01*
Y025275D01*
X01246D01*
Y025235D01*
X01248D01*
X01246Y024215D02*
Y024175D01*
X01254D01*
Y024215D01*
X01258D01*
Y024295D01*
X01254D01*
Y024335D01*
X01246D01*
Y024295D01*
X01242D01*
Y024215D01*
X01246D01*
X01248Y024235D02*
Y024215D01*
X01252D01*
Y024235D01*
X01254D01*
Y024275D01*
X01252D01*
Y024295D01*
X01248D01*
Y024275D01*
X01246D01*
Y024235D01*
X01248D01*
X0135Y019715D02*
X01354Y019755D01*
X01358D01*
X01354Y019795D01*
X01358Y019835D01*
X01354D01*
X0135Y019875D01*
X01346Y019835D01*
X01342D01*
X01346Y019795D01*
X01342Y019755D01*
X01346D01*
X0135Y019715D01*
Y019755D02*
X01352Y019775D01*
X01354D01*
X01352Y019795D01*
X01354Y019815D01*
X01352D01*
X0135Y019835D01*
X01348Y019815D01*
X01346D01*
X01348Y019795D01*
X01346Y019775D01*
X01348D01*
X0135Y019755D01*
Y02129D02*
X01354Y02133D01*
X01358D01*
X01354Y02137D01*
X01358Y02141D01*
X01354D01*
X0135Y02145D01*
X01346Y02141D01*
X01342D01*
X01346Y02137D01*
X01342Y02133D01*
X01346D01*
X0135Y02129D01*
Y02133D02*
X01352Y02135D01*
X01354D01*
X01352Y02137D01*
X01354Y02139D01*
X01352D01*
X0135Y02141D01*
X01348Y02139D01*
X01346D01*
X01348Y02137D01*
X01346Y02135D01*
X01348D01*
X0135Y02133D01*
X02772Y02343D02*
X02776D01*
X0278Y02347D01*
X02784Y02343D01*
X02788D01*
Y02347D01*
X02784Y02351D01*
X02788Y02355D01*
Y02359D01*
X02784D01*
X0278Y02355D01*
X02776Y02359D01*
X02772D01*
Y02355D01*
X02776Y02351D01*
X02772Y02347D01*
Y02343D01*
X02776Y02347D02*
X02778D01*
X0278Y02349D01*
X02782Y02347D01*
X02784D01*
Y02349D01*
X02782Y02351D01*
X02784Y02353D01*
Y02355D01*
X02782D01*
X0278Y02353D01*
X02778Y02355D01*
X02776D01*
Y02353D01*
X02778Y02351D01*
X02776Y02349D01*
Y02347D01*
X02672Y02343D02*
X02676D01*
X0268Y02347D01*
X02684Y02343D01*
X02688D01*
Y02347D01*
X02684Y02351D01*
X02688Y02355D01*
Y02359D01*
X02684D01*
X0268Y02355D01*
X02676Y02359D01*
X02672D01*
Y02355D01*
X02676Y02351D01*
X02672Y02347D01*
Y02343D01*
X02676Y02347D02*
X02678D01*
X0268Y02349D01*
X02682Y02347D01*
X02684D01*
Y02349D01*
X02682Y02351D01*
X02684Y02353D01*
Y02355D01*
X02682D01*
X0268Y02353D01*
X02678Y02355D01*
X02676D01*
Y02353D01*
X02678Y02351D01*
X02676Y02349D01*
Y02347D01*
X02572Y02343D02*
X02576D01*
X0258Y02347D01*
X02584Y02343D01*
X02588D01*
Y02347D01*
X02584Y02351D01*
X02588Y02355D01*
Y02359D01*
X02584D01*
X0258Y02355D01*
X02576Y02359D01*
X02572D01*
Y02355D01*
X02576Y02351D01*
X02572Y02347D01*
Y02343D01*
X02576Y02347D02*
X02578D01*
X0258Y02349D01*
X02582Y02347D01*
X02584D01*
Y02349D01*
X02582Y02351D01*
X02584Y02353D01*
Y02355D01*
X02582D01*
X0258Y02353D01*
X02578Y02355D01*
X02576D01*
Y02353D01*
X02578Y02351D01*
X02576Y02349D01*
Y02347D01*
X02472Y02343D02*
X02476D01*
X0248Y02347D01*
X02484Y02343D01*
X02488D01*
Y02347D01*
X02484Y02351D01*
X02488Y02355D01*
Y02359D01*
X02484D01*
X0248Y02355D01*
X02476Y02359D01*
X02472D01*
Y02355D01*
X02476Y02351D01*
X02472Y02347D01*
Y02343D01*
X02476Y02347D02*
X02478D01*
X0248Y02349D01*
X02482Y02347D01*
X02484D01*
Y02349D01*
X02482Y02351D01*
X02484Y02353D01*
Y02355D01*
X02482D01*
X0248Y02353D01*
X02478Y02355D01*
X02476D01*
Y02353D01*
X02478Y02351D01*
X02476Y02349D01*
Y02347D01*
X02372Y02343D02*
X02376D01*
X0238Y02347D01*
X02384Y02343D01*
X02388D01*
Y02347D01*
X02384Y02351D01*
X02388Y02355D01*
Y02359D01*
X02384D01*
X0238Y02355D01*
X02376Y02359D01*
X02372D01*
Y02355D01*
X02376Y02351D01*
X02372Y02347D01*
Y02343D01*
X02376Y02347D02*
X02378D01*
X0238Y02349D01*
X02382Y02347D01*
X02384D01*
Y02349D01*
X02382Y02351D01*
X02384Y02353D01*
Y02355D01*
X02382D01*
X0238Y02353D01*
X02378Y02355D01*
X02376D01*
Y02353D01*
X02378Y02351D01*
X02376Y02349D01*
Y02347D01*
X02272Y02343D02*
X02276D01*
X0228Y02347D01*
X02284Y02343D01*
X02288D01*
Y02347D01*
X02284Y02351D01*
X02288Y02355D01*
Y02359D01*
X02284D01*
X0228Y02355D01*
X02276Y02359D01*
X02272D01*
Y02355D01*
X02276Y02351D01*
X02272Y02347D01*
Y02343D01*
X02276Y02347D02*
X02278D01*
X0228Y02349D01*
X02282Y02347D01*
X02284D01*
Y02349D01*
X02282Y02351D01*
X02284Y02353D01*
Y02355D01*
X02282D01*
X0228Y02353D01*
X02278Y02355D01*
X02276D01*
Y02353D01*
X02278Y02351D01*
X02276Y02349D01*
Y02347D01*
X02172Y02343D02*
X02176D01*
X0218Y02347D01*
X02184Y02343D01*
X02188D01*
Y02347D01*
X02184Y02351D01*
X02188Y02355D01*
Y02359D01*
X02184D01*
X0218Y02355D01*
X02176Y02359D01*
X02172D01*
Y02355D01*
X02176Y02351D01*
X02172Y02347D01*
Y02343D01*
X02176Y02347D02*
X02178D01*
X0218Y02349D01*
X02182Y02347D01*
X02184D01*
Y02349D01*
X02182Y02351D01*
X02184Y02353D01*
Y02355D01*
X02182D01*
X0218Y02353D01*
X02178Y02355D01*
X02176D01*
Y02353D01*
X02178Y02351D01*
X02176Y02349D01*
Y02347D01*
X02072Y02343D02*
X02076D01*
X0208Y02347D01*
X02084Y02343D01*
X02088D01*
Y02347D01*
X02084Y02351D01*
X02088Y02355D01*
Y02359D01*
X02084D01*
X0208Y02355D01*
X02076Y02359D01*
X02072D01*
Y02355D01*
X02076Y02351D01*
X02072Y02347D01*
Y02343D01*
X02076Y02347D02*
X02078D01*
X0208Y02349D01*
X02082Y02347D01*
X02084D01*
Y02349D01*
X02082Y02351D01*
X02084Y02353D01*
Y02355D01*
X02082D01*
X0208Y02353D01*
X02078Y02355D01*
X02076D01*
Y02353D01*
X02078Y02351D01*
X02076Y02349D01*
Y02347D01*
X03434Y02132D02*
X03438Y0214D01*
X03434Y02148D01*
X03442Y02144D01*
X0345Y02148D01*
X03446Y0214D01*
X0345Y02132D01*
X03442Y02136D01*
X03434Y02132D01*
X03438Y02136D02*
X0344Y0214D01*
X03438Y02144D01*
X03442Y02142D01*
X03446Y02144D01*
X03444Y0214D01*
X03446Y02136D01*
X03442Y02138D01*
X03438Y02136D01*
X03534Y02132D02*
X03538Y0214D01*
X03534Y02148D01*
X03542Y02144D01*
X0355Y02148D01*
X03546Y0214D01*
X0355Y02132D01*
X03542Y02136D01*
X03534Y02132D01*
X03538Y02136D02*
X0354Y0214D01*
X03538Y02144D01*
X03542Y02142D01*
X03546Y02144D01*
X03544Y0214D01*
X03546Y02136D01*
X03542Y02138D01*
X03538Y02136D01*
X03634Y02132D02*
X03638Y0214D01*
X03634Y02148D01*
X03642Y02144D01*
X0365Y02148D01*
X03646Y0214D01*
X0365Y02132D01*
X03642Y02136D01*
X03634Y02132D01*
X03638Y02136D02*
X0364Y0214D01*
X03638Y02144D01*
X03642Y02142D01*
X03646Y02144D01*
X03644Y0214D01*
X03646Y02136D01*
X03642Y02138D01*
X03638Y02136D01*
X03734Y02132D02*
X03738Y0214D01*
X03734Y02148D01*
X03742Y02144D01*
X0375Y02148D01*
X03746Y0214D01*
X0375Y02132D01*
X03742Y02136D01*
X03734Y02132D01*
X03738Y02136D02*
X0374Y0214D01*
X03738Y02144D01*
X03742Y02142D01*
X03746Y02144D01*
X03744Y0214D01*
X03746Y02136D01*
X03742Y02138D01*
X03738Y02136D01*
X060236Y048425D02*
Y048558D01*
X060303Y048625D01*
X060369Y048558D01*
Y048425D01*
Y048525D01*
X060236D01*
X059941Y049016D02*
Y049149D01*
X060008Y049216D01*
X060074Y049149D01*
Y049016D01*
Y049116D01*
X059941D01*
X059646Y048425D02*
Y048558D01*
X059712Y048625D01*
X059779Y048558D01*
Y048425D01*
Y048525D01*
X059646D01*
X05935Y049016D02*
Y049149D01*
X059417Y049216D01*
X059484Y049149D01*
Y049016D01*
Y049116D01*
X05935D01*
X059055Y048425D02*
Y048558D01*
X059122Y048625D01*
X059188Y048558D01*
Y048425D01*
Y048525D01*
X059055D01*
X05876Y049016D02*
Y049149D01*
X058826Y049216D01*
X058893Y049149D01*
Y049016D01*
Y049116D01*
X05876D01*
X058465Y048425D02*
Y048558D01*
X058531Y048625D01*
X058598Y048558D01*
Y048425D01*
Y048525D01*
X058465D01*
X058169Y049016D02*
Y049149D01*
X058236Y049216D01*
X058303Y049149D01*
Y049016D01*
Y049116D01*
X058169D01*
X057874Y048425D02*
Y048558D01*
X057941Y048625D01*
X058007Y048558D01*
Y048425D01*
Y048525D01*
X057874D01*
X057579Y049016D02*
Y049149D01*
X057645Y049216D01*
X057712Y049149D01*
Y049016D01*
Y049116D01*
X057579D01*
X057283Y048425D02*
Y048558D01*
X05735Y048625D01*
X057417Y048558D01*
Y048425D01*
Y048525D01*
X057283D01*
X056988Y049016D02*
Y049149D01*
X057055Y049216D01*
X057121Y049149D01*
Y049016D01*
Y049116D01*
X056988D01*
X056398Y049016D02*
Y049149D01*
X056464Y049216D01*
X056531Y049149D01*
Y049016D01*
Y049116D01*
X056398D01*
X054035Y049016D02*
Y049149D01*
X054102Y049216D01*
X054169Y049149D01*
Y049016D01*
Y049116D01*
X054035D01*
X051378Y048425D02*
Y048558D01*
X051445Y048625D01*
X051511Y048558D01*
Y048425D01*
Y048525D01*
X051378D01*
X051083Y049016D02*
Y049149D01*
X051149Y049216D01*
X051216Y049149D01*
Y049016D01*
Y049116D01*
X051083D01*
X049902Y049016D02*
Y049149D01*
X049968Y049216D01*
X050035Y049149D01*
Y049016D01*
Y049116D01*
X049902D01*
X049606Y048425D02*
Y048558D01*
X049673Y048625D01*
X04974Y048558D01*
Y048425D01*
Y048525D01*
X049606D01*
X049311Y049016D02*
Y049149D01*
X049378Y049216D01*
X049444Y049149D01*
Y049016D01*
Y049116D01*
X049311D01*
X049016Y048425D02*
Y048558D01*
X049082Y048625D01*
X049149Y048558D01*
Y048425D01*
Y048525D01*
X049016D01*
X04872Y049016D02*
Y049149D01*
X048787Y049216D01*
X048854Y049149D01*
Y049016D01*
Y049116D01*
X04872D01*
X048425Y048425D02*
Y048558D01*
X048492Y048625D01*
X048558Y048558D01*
Y048425D01*
Y048525D01*
X048425D01*
X04813Y049016D02*
Y049149D01*
X048197Y049216D01*
X048263Y049149D01*
Y049016D01*
Y049116D01*
X04813D01*
X046949Y049016D02*
Y049149D01*
X047015Y049216D01*
X047082Y049149D01*
Y049016D01*
Y049116D01*
X046949D01*
X046654Y048425D02*
Y048558D01*
X04672Y048625D01*
X046787Y048558D01*
Y048425D01*
Y048525D01*
X046654D01*
X042815Y049016D02*
Y049149D01*
X042882Y049216D01*
X042948Y049149D01*
Y049016D01*
Y049116D01*
X042815D01*
X039862Y049016D02*
Y049149D01*
X039929Y049216D01*
X039995Y049149D01*
Y049016D01*
Y049116D01*
X039862D01*
X039567Y048425D02*
Y048558D01*
X039634Y048625D01*
X0397Y048558D01*
Y048425D01*
Y048525D01*
X039567D01*
X039272Y049016D02*
Y049149D01*
X039338Y049216D01*
X039405Y049149D01*
Y049016D01*
Y049116D01*
X039272D01*
X038976Y048425D02*
Y048558D01*
X039043Y048625D01*
X03911Y048558D01*
Y048425D01*
Y048525D01*
X038976D01*
X038681Y049016D02*
Y049149D01*
X038748Y049216D01*
X038814Y049149D01*
Y049016D01*
Y049116D01*
X038681D01*
X038386Y048425D02*
Y048558D01*
X038452Y048625D01*
X038519Y048558D01*
Y048425D01*
Y048525D01*
X038386D01*
X038091Y049016D02*
Y049149D01*
X038157Y049216D01*
X038224Y049149D01*
Y049016D01*
Y049116D01*
X038091D01*
X037795Y048425D02*
Y048558D01*
X037862Y048625D01*
X037929Y048558D01*
Y048425D01*
Y048525D01*
X037795D01*
X0375Y049016D02*
Y049149D01*
X037567Y049216D01*
X037633Y049149D01*
Y049016D01*
Y049116D01*
X0375D01*
X037205Y048425D02*
Y048558D01*
X037271Y048625D01*
X037338Y048558D01*
Y048425D01*
Y048525D01*
X037205D01*
X036909Y049016D02*
Y049149D01*
X036976Y049216D01*
X037043Y049149D01*
Y049016D01*
Y049116D01*
X036909D01*
X036614Y048425D02*
Y048558D01*
X036681Y048625D01*
X036747Y048558D01*
Y048425D01*
Y048525D01*
X036614D01*
X036319Y049016D02*
Y049149D01*
X036386Y049216D01*
X036452Y049149D01*
Y049016D01*
Y049116D01*
X036319D01*
X036024Y048425D02*
Y048558D01*
X03609Y048625D01*
X036157Y048558D01*
Y048425D01*
Y048525D01*
X036024D01*
X035728Y049016D02*
Y049149D01*
X035795Y049216D01*
X035862Y049149D01*
Y049016D01*
Y049116D01*
X035728D01*
X035433Y048425D02*
Y048558D01*
X0355Y048625D01*
X035566Y048558D01*
Y048425D01*
Y048525D01*
X035433D01*
X035138Y049016D02*
Y049149D01*
X035204Y049216D01*
X035271Y049149D01*
Y049016D01*
Y049116D01*
X035138D01*
X034843Y048425D02*
Y048558D01*
X034909Y048625D01*
X034976Y048558D01*
Y048425D01*
Y048525D01*
X034843D01*
X034547Y049016D02*
Y049149D01*
X034614Y049216D01*
X034681Y049149D01*
Y049016D01*
Y049116D01*
X034547D01*
X034252Y048425D02*
Y048558D01*
X034319Y048625D01*
X034385Y048558D01*
Y048425D01*
Y048525D01*
X034252D01*
X033957Y049016D02*
Y049149D01*
X034023Y049216D01*
X03409Y049149D01*
Y049016D01*
Y049116D01*
X033957D01*
X033661Y048425D02*
Y048558D01*
X033728Y048625D01*
X033795Y048558D01*
Y048425D01*
Y048525D01*
X033661D01*
X033366Y049016D02*
Y049149D01*
X033433Y049216D01*
X033499Y049149D01*
Y049016D01*
Y049116D01*
X033366D01*
X033071Y048425D02*
Y048558D01*
X033138Y048625D01*
X033204Y048558D01*
Y048425D01*
Y048525D01*
X033071D01*
X032776Y049016D02*
Y049149D01*
X032842Y049216D01*
X032909Y049149D01*
Y049016D01*
Y049116D01*
X032776D01*
X03248Y048425D02*
Y048558D01*
X032547Y048625D01*
X032614Y048558D01*
Y048425D01*
Y048525D01*
X03248D01*
X032185Y049016D02*
Y049149D01*
X032252Y049216D01*
X032318Y049149D01*
Y049016D01*
Y049116D01*
X032185D01*
X031594Y049016D02*
Y049149D01*
X031661Y049216D01*
X031728Y049149D01*
Y049016D01*
Y049116D01*
X031594D01*
X031004Y049016D02*
Y049149D01*
X031071Y049216D01*
X031137Y049149D01*
Y049016D01*
Y049116D01*
X031004D01*
X030413Y049016D02*
Y049149D01*
X03048Y049216D01*
X030547Y049149D01*
Y049016D01*
Y049116D01*
X030413D01*
X030118Y048425D02*
Y048558D01*
X030185Y048625D01*
X030251Y048558D01*
Y048425D01*
Y048525D01*
X030118D01*
X029823Y049016D02*
Y049149D01*
X029889Y049216D01*
X029956Y049149D01*
Y049016D01*
Y049116D01*
X029823D01*
X029528Y048425D02*
Y048558D01*
X029594Y048625D01*
X029661Y048558D01*
Y048425D01*
Y048525D01*
X029528D01*
X029232Y049016D02*
Y049149D01*
X029299Y049216D01*
X029366Y049149D01*
Y049016D01*
Y049116D01*
X029232D01*
X028937Y048425D02*
Y048558D01*
X029004Y048625D01*
X02907Y048558D01*
Y048425D01*
Y048525D01*
X028937D01*
X028642Y049016D02*
Y049149D01*
X028708Y049216D01*
X028775Y049149D01*
Y049016D01*
Y049116D01*
X028642D01*
X028051Y049016D02*
Y049149D01*
X028118Y049216D01*
X028184Y049149D01*
Y049016D01*
Y049116D01*
X028051D01*
X027461Y049016D02*
Y049149D01*
X027527Y049216D01*
X027594Y049149D01*
Y049016D01*
Y049116D01*
X027461D01*
X027165Y048425D02*
Y048558D01*
X027232Y048625D01*
X027299Y048558D01*
Y048425D01*
Y048525D01*
X027165D01*
X02687Y049016D02*
Y049149D01*
X026937Y049216D01*
X027003Y049149D01*
Y049016D01*
Y049116D01*
X02687D01*
X026575Y048425D02*
Y048558D01*
X026641Y048625D01*
X026708Y048558D01*
Y048425D01*
Y048525D01*
X026575D01*
X02628Y049016D02*
Y049149D01*
X026346Y049216D01*
X026413Y049149D01*
Y049016D01*
Y049116D01*
X02628D01*
X025984Y048425D02*
Y048558D01*
X026051Y048625D01*
X026118Y048558D01*
Y048425D01*
Y048525D01*
X025984D01*
X025689Y049016D02*
Y049149D01*
X025756Y049216D01*
X025822Y049149D01*
Y049016D01*
Y049116D01*
X025689D01*
X025394Y048425D02*
Y048558D01*
X02546Y048625D01*
X025527Y048558D01*
Y048425D01*
Y048525D01*
X025394D01*
X025098Y049016D02*
Y049149D01*
X025165Y049216D01*
X025232Y049149D01*
Y049016D01*
Y049116D01*
X025098D01*
X024508Y049016D02*
Y049149D01*
X024575Y049216D01*
X024641Y049149D01*
Y049016D01*
Y049116D01*
X024508D01*
X023917Y049016D02*
Y049149D01*
X023984Y049216D01*
X024051Y049149D01*
Y049016D01*
Y049116D01*
X023917D01*
X023622Y048425D02*
Y048558D01*
X023689Y048625D01*
X023755Y048558D01*
Y048425D01*
Y048525D01*
X023622D01*
X023327Y049016D02*
Y049149D01*
X023393Y049216D01*
X02346Y049149D01*
Y049016D01*
Y049116D01*
X023327D01*
X023031Y048425D02*
Y048558D01*
X023098Y048625D01*
X023165Y048558D01*
Y048425D01*
Y048525D01*
X023031D01*
X022736Y049016D02*
Y049149D01*
X022803Y049216D01*
X02287Y049149D01*
Y049016D01*
Y049116D01*
X022736D01*
X022146Y049016D02*
Y049149D01*
X022212Y049216D01*
X022279Y049149D01*
Y049016D01*
Y049116D01*
X022146D01*
X021555Y049016D02*
Y049149D01*
X021622Y049216D01*
X021688Y049149D01*
Y049016D01*
Y049116D01*
X021555D01*
X020965Y049016D02*
Y049149D01*
X021031Y049216D01*
X021098Y049149D01*
Y049016D01*
Y049116D01*
X020965D01*
X020374Y049016D02*
Y049149D01*
X020441Y049216D01*
X020507Y049149D01*
Y049016D01*
Y049116D01*
X020374D01*
X019783Y049016D02*
Y049149D01*
X01985Y049216D01*
X019917Y049149D01*
Y049016D01*
Y049116D01*
X019783D01*
X019193Y049016D02*
Y049149D01*
X01926Y049216D01*
X019326Y049149D01*
Y049016D01*
Y049116D01*
X019193D01*
X018602Y049016D02*
Y049149D01*
X018669Y049216D01*
X018736Y049149D01*
Y049016D01*
Y049116D01*
X018602D01*
X018012Y049016D02*
Y049149D01*
X018078Y049216D01*
X018145Y049149D01*
Y049016D01*
Y049116D01*
X018012D01*
X017421Y049016D02*
Y049149D01*
X017488Y049216D01*
X017555Y049149D01*
Y049016D01*
Y049116D01*
X017421D01*
X016831Y049016D02*
Y049149D01*
X016897Y049216D01*
X016964Y049149D01*
Y049016D01*
Y049116D01*
X016831D01*
X01624Y049016D02*
Y049149D01*
X016307Y049216D01*
X016373Y049149D01*
Y049016D01*
Y049116D01*
X01624D01*
X01565Y049016D02*
Y049149D01*
X015716Y049216D01*
X015783Y049149D01*
Y049016D01*
Y049116D01*
X01565D01*
X015059Y049016D02*
Y049149D01*
X015126Y049216D01*
X015192Y049149D01*
Y049016D01*
Y049116D01*
X015059D01*
X014468Y049016D02*
Y049149D01*
X014535Y049216D01*
X014602Y049149D01*
Y049016D01*
Y049116D01*
X014468D01*
X014173Y048425D02*
Y048558D01*
X01424Y048625D01*
X014307Y048558D01*
Y048425D01*
Y048525D01*
X014173D01*
X013878Y049016D02*
Y049149D01*
X013945Y049216D01*
X014011Y049149D01*
Y049016D01*
Y049116D01*
X013878D01*
X013583Y048425D02*
Y048558D01*
X013649Y048625D01*
X013716Y048558D01*
Y048425D01*
Y048525D01*
X013583D01*
X013287Y049016D02*
Y049149D01*
X013354Y049216D01*
X013421Y049149D01*
Y049016D01*
Y049116D01*
X013287D01*
X012992Y048425D02*
Y048558D01*
X013059Y048625D01*
X013125Y048558D01*
Y048425D01*
Y048525D01*
X012992D01*
X061024Y023622D02*
Y023755D01*
X06109Y023822D01*
X061157Y023755D01*
Y023622D01*
Y023722D01*
X061024D01*
Y021654D02*
Y021787D01*
X06109Y021853D01*
X061157Y021787D01*
Y021654D01*
Y021754D01*
X061024D01*
X060039Y023622D02*
Y023755D01*
X060106Y023822D01*
X060173Y023755D01*
Y023622D01*
Y023722D01*
X060039D01*
X060532Y022638D02*
Y022771D01*
X060598Y022838D01*
X060665Y022771D01*
Y022638D01*
Y022738D01*
X060532D01*
X060039Y021654D02*
Y021787D01*
X060106Y021853D01*
X060173Y021787D01*
Y021654D01*
Y021754D01*
X060039D01*
X060532Y020669D02*
Y020803D01*
X060598Y020869D01*
X060665Y020803D01*
Y020669D01*
Y020769D01*
X060532D01*
X060039Y019685D02*
Y019818D01*
X060106Y019885D01*
X060173Y019818D01*
Y019685D01*
Y019785D01*
X060039D01*
X059055Y023622D02*
Y023755D01*
X059122Y023822D01*
X059188Y023755D01*
Y023622D01*
Y023722D01*
X059055D01*
X059547Y022638D02*
Y022771D01*
X059614Y022838D01*
X059681Y022771D01*
Y022638D01*
Y022738D01*
X059547D01*
X059055Y021654D02*
Y021787D01*
X059122Y021853D01*
X059188Y021787D01*
Y021654D01*
Y021754D01*
X059055D01*
X059547Y020669D02*
Y020803D01*
X059614Y020869D01*
X059681Y020803D01*
Y020669D01*
Y020769D01*
X059547D01*
X059055Y019685D02*
Y019818D01*
X059122Y019885D01*
X059188Y019818D01*
Y019685D01*
Y019785D01*
X059055D01*
X058071Y023622D02*
Y023755D01*
X058138Y023822D01*
X058204Y023755D01*
Y023622D01*
Y023722D01*
X058071D01*
X058563Y022638D02*
Y022771D01*
X05863Y022838D01*
X058696Y022771D01*
Y022638D01*
Y022738D01*
X058563D01*
X058071Y021654D02*
Y021787D01*
X058138Y021853D01*
X058204Y021787D01*
Y021654D01*
Y021754D01*
X058071D01*
X058563Y020669D02*
Y020803D01*
X05863Y020869D01*
X058696Y020803D01*
Y020669D01*
Y020769D01*
X058563D01*
X058071Y019685D02*
Y019818D01*
X058138Y019885D01*
X058204Y019818D01*
Y019685D01*
Y019785D01*
X058071D01*
X057087Y023622D02*
Y023755D01*
X057153Y023822D01*
X05722Y023755D01*
Y023622D01*
Y023722D01*
X057087D01*
X057579Y022638D02*
Y022771D01*
X057645Y022838D01*
X057712Y022771D01*
Y022638D01*
Y022738D01*
X057579D01*
X057087Y021654D02*
Y021787D01*
X057153Y021853D01*
X05722Y021787D01*
Y021654D01*
Y021754D01*
X057087D01*
X057579Y020669D02*
Y020803D01*
X057645Y020869D01*
X057712Y020803D01*
Y020669D01*
Y020769D01*
X057579D01*
X057087Y019685D02*
Y019818D01*
X057153Y019885D01*
X05722Y019818D01*
Y019685D01*
Y019785D01*
X057087D01*
X056102Y023622D02*
Y023755D01*
X056169Y023822D01*
X056236Y023755D01*
Y023622D01*
Y023722D01*
X056102D01*
X056594Y022638D02*
Y022771D01*
X056661Y022838D01*
X056728Y022771D01*
Y022638D01*
Y022738D01*
X056594D01*
X056102Y021654D02*
Y021787D01*
X056169Y021853D01*
X056236Y021787D01*
Y021654D01*
Y021754D01*
X056102D01*
X056594Y020669D02*
Y020803D01*
X056661Y020869D01*
X056728Y020803D01*
Y020669D01*
Y020769D01*
X056594D01*
X056102Y019685D02*
Y019818D01*
X056169Y019885D01*
X056236Y019818D01*
Y019685D01*
Y019785D01*
X056102D01*
X05561Y022638D02*
Y022771D01*
X055677Y022838D01*
X055744Y022771D01*
Y022638D01*
Y022738D01*
X05561D01*
X055118Y021654D02*
Y021787D01*
X055185Y021853D01*
X055251Y021787D01*
Y021654D01*
Y021754D01*
X055118D01*
X05561Y020669D02*
Y020803D01*
X055677Y020869D01*
X055744Y020803D01*
Y020669D01*
Y020769D01*
X05561D01*
X055118Y019685D02*
Y019818D01*
X055185Y019885D01*
X055251Y019818D01*
Y019685D01*
Y019785D01*
X055118D01*
X054626Y022638D02*
Y022771D01*
X054693Y022838D01*
X054759Y022771D01*
Y022638D01*
Y022738D01*
X054626D01*
X054134Y021654D02*
Y021787D01*
X054201Y021853D01*
X054267Y021787D01*
Y021654D01*
Y021754D01*
X054134D01*
X054626Y020669D02*
Y020803D01*
X054693Y020869D01*
X054759Y020803D01*
Y020669D01*
Y020769D01*
X054626D01*
X054134Y019685D02*
Y019818D01*
X054201Y019885D01*
X054267Y019818D01*
Y019685D01*
Y019785D01*
X054134D01*
X053642Y022638D02*
Y022771D01*
X053708Y022838D01*
X053775Y022771D01*
Y022638D01*
Y022738D01*
X053642D01*
X05315Y021654D02*
Y021787D01*
X053216Y021853D01*
X053283Y021787D01*
Y021654D01*
Y021754D01*
X05315D01*
X053642Y020669D02*
Y020803D01*
X053708Y020869D01*
X053775Y020803D01*
Y020669D01*
Y020769D01*
X053642D01*
X05315Y019685D02*
Y019818D01*
X053216Y019885D01*
X053283Y019818D01*
Y019685D01*
Y019785D01*
X05315D01*
X052657Y022638D02*
Y022771D01*
X052724Y022838D01*
X052791Y022771D01*
Y022638D01*
Y022738D01*
X052657D01*
X052165Y021654D02*
Y021787D01*
X052232Y021853D01*
X052299Y021787D01*
Y021654D01*
Y021754D01*
X052165D01*
X052657Y020669D02*
Y020803D01*
X052724Y020869D01*
X052791Y020803D01*
Y020669D01*
Y020769D01*
X052657D01*
X052165Y019685D02*
Y019818D01*
X052232Y019885D01*
X052299Y019818D01*
Y019685D01*
Y019785D01*
X052165D01*
X051673Y022638D02*
Y022771D01*
X05174Y022838D01*
X051807Y022771D01*
Y022638D01*
Y022738D01*
X051673D01*
X051181Y021654D02*
Y021787D01*
X051248Y021853D01*
X051314Y021787D01*
Y021654D01*
Y021754D01*
X051181D01*
X051673Y020669D02*
Y020803D01*
X05174Y020869D01*
X051807Y020803D01*
Y020669D01*
Y020769D01*
X051673D01*
X051181Y019685D02*
Y019818D01*
X051248Y019885D01*
X051314Y019818D01*
Y019685D01*
Y019785D01*
X051181D01*
X050689Y022638D02*
Y022771D01*
X050756Y022838D01*
X050822Y022771D01*
Y022638D01*
Y022738D01*
X050689D01*
X050197Y021654D02*
Y021787D01*
X050264Y021853D01*
X05033Y021787D01*
Y021654D01*
Y021754D01*
X050197D01*
X050689Y020669D02*
Y020803D01*
X050756Y020869D01*
X050822Y020803D01*
Y020669D01*
Y020769D01*
X050689D01*
X050197Y019685D02*
Y019818D01*
X050264Y019885D01*
X05033Y019818D01*
Y019685D01*
Y019785D01*
X050197D01*
X049705Y022638D02*
Y022771D01*
X049771Y022838D01*
X049838Y022771D01*
Y022638D01*
Y022738D01*
X049705D01*
X049213Y021654D02*
Y021787D01*
X049279Y021853D01*
X049346Y021787D01*
Y021654D01*
Y021754D01*
X049213D01*
X049705Y020669D02*
Y020803D01*
X049771Y020869D01*
X049838Y020803D01*
Y020669D01*
Y020769D01*
X049705D01*
X049213Y019685D02*
Y019818D01*
X049279Y019885D01*
X049346Y019818D01*
Y019685D01*
Y019785D01*
X049213D01*
X04872Y022638D02*
Y022771D01*
X048787Y022838D01*
X048854Y022771D01*
Y022638D01*
Y022738D01*
X04872D01*
X048228Y021654D02*
Y021787D01*
X048295Y021853D01*
X048362Y021787D01*
Y021654D01*
Y021754D01*
X048228D01*
X04872Y020669D02*
Y020803D01*
X048787Y020869D01*
X048854Y020803D01*
Y020669D01*
Y020769D01*
X04872D01*
X048228Y019685D02*
Y019818D01*
X048295Y019885D01*
X048362Y019818D01*
Y019685D01*
Y019785D01*
X048228D01*
X047736Y022638D02*
Y022771D01*
X047803Y022838D01*
X04787Y022771D01*
Y022638D01*
Y022738D01*
X047736D01*
X047244Y021654D02*
Y021787D01*
X047311Y021853D01*
X047377Y021787D01*
Y021654D01*
Y021754D01*
X047244D01*
X047736Y020669D02*
Y020803D01*
X047803Y020869D01*
X04787Y020803D01*
Y020669D01*
Y020769D01*
X047736D01*
X047244Y019685D02*
Y019818D01*
X047311Y019885D01*
X047377Y019818D01*
Y019685D01*
Y019785D01*
X047244D01*
X04626Y023622D02*
Y023755D01*
X046326Y023822D01*
X046393Y023755D01*
Y023622D01*
Y023722D01*
X04626D01*
X046752Y022638D02*
Y022771D01*
X046819Y022838D01*
X046885Y022771D01*
Y022638D01*
Y022738D01*
X046752D01*
X04626Y021654D02*
Y021787D01*
X046326Y021853D01*
X046393Y021787D01*
Y021654D01*
Y021754D01*
X04626D01*
X046752Y020669D02*
Y020803D01*
X046819Y020869D01*
X046885Y020803D01*
Y020669D01*
Y020769D01*
X046752D01*
X04626Y019685D02*
Y019818D01*
X046326Y019885D01*
X046393Y019818D01*
Y019685D01*
Y019785D01*
X04626D01*
X045276Y023622D02*
Y023755D01*
X045342Y023822D01*
X045409Y023755D01*
Y023622D01*
Y023722D01*
X045276D01*
X045768Y022638D02*
Y022771D01*
X045834Y022838D01*
X045901Y022771D01*
Y022638D01*
Y022738D01*
X045768D01*
X045276Y021654D02*
Y021787D01*
X045342Y021853D01*
X045409Y021787D01*
Y021654D01*
Y021754D01*
X045276D01*
X045768Y020669D02*
Y020803D01*
X045834Y020869D01*
X045901Y020803D01*
Y020669D01*
Y020769D01*
X045768D01*
X045276Y019685D02*
Y019818D01*
X045342Y019885D01*
X045409Y019818D01*
Y019685D01*
Y019785D01*
X045276D01*
X044783Y020669D02*
Y020803D01*
X04485Y020869D01*
X044917Y020803D01*
Y020669D01*
Y020769D01*
X044783D01*
X044291Y019685D02*
Y019818D01*
X044358Y019885D01*
X044425Y019818D01*
Y019685D01*
Y019785D01*
X044291D01*
X043799Y020669D02*
Y020803D01*
X043866Y020869D01*
X043932Y020803D01*
Y020669D01*
Y020769D01*
X043799D01*
X043307Y019685D02*
Y019818D01*
X043374Y019885D01*
X04344Y019818D01*
Y019685D01*
Y019785D01*
X043307D01*
X042323Y023622D02*
Y023755D01*
X042389Y023822D01*
X042456Y023755D01*
Y023622D01*
Y023722D01*
X042323D01*
X042815Y022638D02*
Y022771D01*
X042882Y022838D01*
X042948Y022771D01*
Y022638D01*
Y022738D01*
X042815D01*
X042323Y021654D02*
Y021787D01*
X042389Y021853D01*
X042456Y021787D01*
Y021654D01*
Y021754D01*
X042323D01*
Y019685D02*
Y019818D01*
X042389Y019885D01*
X042456Y019818D01*
Y019685D01*
Y019785D01*
X042323D01*
X041339Y023622D02*
Y023755D01*
X041405Y023822D01*
X041472Y023755D01*
Y023622D01*
Y023722D01*
X041339D01*
X041831Y022638D02*
Y022771D01*
X041897Y022838D01*
X041964Y022771D01*
Y022638D01*
Y022738D01*
X041831D01*
X041339Y019685D02*
Y019818D01*
X041405Y019885D01*
X041472Y019818D01*
Y019685D01*
Y019785D01*
X041339D01*
X040354Y019685D02*
Y019818D01*
X040421Y019885D01*
X040488Y019818D01*
Y019685D01*
Y019785D01*
X040354D01*
X03937Y019685D02*
Y019818D01*
X039437Y019885D01*
X039503Y019818D01*
Y019685D01*
Y019785D01*
X03937D01*
X038386Y019685D02*
Y019818D01*
X038452Y019885D01*
X038519Y019818D01*
Y019685D01*
Y019785D01*
X038386D01*
X037402Y019685D02*
Y019818D01*
X037468Y019885D01*
X037535Y019818D01*
Y019685D01*
Y019785D01*
X037402D01*
X036417Y019685D02*
Y019818D01*
X036484Y019885D01*
X036551Y019818D01*
Y019685D01*
Y019785D01*
X036417D01*
X035433Y019685D02*
Y019818D01*
X0355Y019885D01*
X035566Y019818D01*
Y019685D01*
Y019785D01*
X035433D01*
X034449Y019685D02*
Y019818D01*
X034515Y019885D01*
X034582Y019818D01*
Y019685D01*
Y019785D01*
X034449D01*
X033465Y021654D02*
Y021787D01*
X033531Y021853D01*
X033598Y021787D01*
Y021654D01*
Y021754D01*
X033465D01*
Y019685D02*
Y019818D01*
X033531Y019885D01*
X033598Y019818D01*
Y019685D01*
Y019785D01*
X033465D01*
X032972Y022638D02*
Y022771D01*
X033039Y022838D01*
X033106Y022771D01*
Y022638D01*
Y022738D01*
X032972D01*
X03248Y021654D02*
Y021787D01*
X032547Y021853D01*
X032614Y021787D01*
Y021654D01*
Y021754D01*
X03248D01*
Y019685D02*
Y019818D01*
X032547Y019885D01*
X032614Y019818D01*
Y019685D01*
Y019785D01*
X03248D01*
X031496Y023622D02*
Y023755D01*
X031563Y023822D01*
X031629Y023755D01*
Y023622D01*
Y023722D01*
X031496D01*
X031988Y022638D02*
Y022771D01*
X032055Y022838D01*
X032121Y022771D01*
Y022638D01*
Y022738D01*
X031988D01*
X031496Y021654D02*
Y021787D01*
X031563Y021853D01*
X031629Y021787D01*
Y021654D01*
Y021754D01*
X031496D01*
Y019685D02*
Y019818D01*
X031563Y019885D01*
X031629Y019818D01*
Y019685D01*
Y019785D01*
X031496D01*
X030512Y023622D02*
Y023755D01*
X030578Y023822D01*
X030645Y023755D01*
Y023622D01*
Y023722D01*
X030512D01*
X031004Y022638D02*
Y022771D01*
X031071Y022838D01*
X031137Y022771D01*
Y022638D01*
Y022738D01*
X031004D01*
X030512Y021654D02*
Y021787D01*
X030578Y021853D01*
X030645Y021787D01*
Y021654D01*
Y021754D01*
X030512D01*
Y019685D02*
Y019818D01*
X030578Y019885D01*
X030645Y019818D01*
Y019685D01*
Y019785D01*
X030512D01*
X029528Y023622D02*
Y023755D01*
X029594Y023822D01*
X029661Y023755D01*
Y023622D01*
Y023722D01*
X029528D01*
X03002Y022638D02*
Y022771D01*
X030086Y022838D01*
X030153Y022771D01*
Y022638D01*
Y022738D01*
X03002D01*
X029528Y021654D02*
Y021787D01*
X029594Y021853D01*
X029661Y021787D01*
Y021654D01*
Y021754D01*
X029528D01*
Y019685D02*
Y019818D01*
X029594Y019885D01*
X029661Y019818D01*
Y019685D01*
Y019785D01*
X029528D01*
X028543Y023622D02*
Y023755D01*
X02861Y023822D01*
X028677Y023755D01*
Y023622D01*
Y023722D01*
X028543D01*
X029035Y022638D02*
Y022771D01*
X029102Y022838D01*
X029169Y022771D01*
Y022638D01*
Y022738D01*
X029035D01*
X028543Y021654D02*
Y021787D01*
X02861Y021853D01*
X028677Y021787D01*
Y021654D01*
Y021754D01*
X028543D01*
Y019685D02*
Y019818D01*
X02861Y019885D01*
X028677Y019818D01*
Y019685D01*
Y019785D01*
X028543D01*
X028051Y022638D02*
Y022771D01*
X028118Y022838D01*
X028184Y022771D01*
Y022638D01*
Y022738D01*
X028051D01*
X027559Y021654D02*
Y021787D01*
X027626Y021853D01*
X027692Y021787D01*
Y021654D01*
Y021754D01*
X027559D01*
Y019685D02*
Y019818D01*
X027626Y019885D01*
X027692Y019818D01*
Y019685D01*
Y019785D01*
X027559D01*
X027067Y022638D02*
Y022771D01*
X027134Y022838D01*
X0272Y022771D01*
Y022638D01*
Y022738D01*
X027067D01*
X026575Y021654D02*
Y021787D01*
X026641Y021853D01*
X026708Y021787D01*
Y021654D01*
Y021754D01*
X026575D01*
Y019685D02*
Y019818D01*
X026641Y019885D01*
X026708Y019818D01*
Y019685D01*
Y019785D01*
X026575D01*
X026083Y022638D02*
Y022771D01*
X026149Y022838D01*
X026216Y022771D01*
Y022638D01*
Y022738D01*
X026083D01*
X025591Y021654D02*
Y021787D01*
X025657Y021853D01*
X025724Y021787D01*
Y021654D01*
Y021754D01*
X025591D01*
Y019685D02*
Y019818D01*
X025657Y019885D01*
X025724Y019818D01*
Y019685D01*
Y019785D01*
X025591D01*
X025098Y022638D02*
Y022771D01*
X025165Y022838D01*
X025232Y022771D01*
Y022638D01*
Y022738D01*
X025098D01*
X023622Y021654D02*
Y021787D01*
X023689Y021853D01*
X023755Y021787D01*
Y021654D01*
Y021754D01*
X023622D01*
X061024Y04626D02*
Y046393D01*
X06109Y04646D01*
X061157Y046393D01*
Y04626D01*
Y04636D01*
X061024D01*
Y044291D02*
Y044425D01*
X06109Y044491D01*
X061157Y044425D01*
Y044291D01*
Y044391D01*
X061024D01*
Y042323D02*
Y042456D01*
X06109Y042523D01*
X061157Y042456D01*
Y042323D01*
Y042423D01*
X061024D01*
Y040354D02*
Y040488D01*
X06109Y040554D01*
X061157Y040488D01*
Y040354D01*
Y040454D01*
X061024D01*
Y038386D02*
Y038519D01*
X06109Y038586D01*
X061157Y038519D01*
Y038386D01*
Y038486D01*
X061024D01*
Y036417D02*
Y036551D01*
X06109Y036617D01*
X061157Y036551D01*
Y036417D01*
Y036517D01*
X061024D01*
Y034449D02*
Y034582D01*
X06109Y034649D01*
X061157Y034582D01*
Y034449D01*
Y034549D01*
X061024D01*
Y03248D02*
Y032614D01*
X06109Y03268D01*
X061157Y032614D01*
Y03248D01*
Y03258D01*
X061024D01*
Y030512D02*
Y030645D01*
X06109Y030712D01*
X061157Y030645D01*
Y030512D01*
Y030612D01*
X061024D01*
Y028543D02*
Y028677D01*
X06109Y028743D01*
X061157Y028677D01*
Y028543D01*
Y028643D01*
X061024D01*
Y026575D02*
Y026708D01*
X06109Y026775D01*
X061157Y026708D01*
Y026575D01*
Y026675D01*
X061024D01*
Y024606D02*
Y02474D01*
X06109Y024806D01*
X061157Y02474D01*
Y024606D01*
Y024706D01*
X061024D01*
X060532Y047244D02*
Y047377D01*
X060598Y047444D01*
X060665Y047377D01*
Y047244D01*
Y047344D01*
X060532D01*
X060039Y04626D02*
Y046393D01*
X060106Y04646D01*
X060173Y046393D01*
Y04626D01*
Y04636D01*
X060039D01*
X060532Y045276D02*
Y045409D01*
X060598Y045476D01*
X060665Y045409D01*
Y045276D01*
Y045376D01*
X060532D01*
X060039Y044291D02*
Y044425D01*
X060106Y044491D01*
X060173Y044425D01*
Y044291D01*
Y044391D01*
X060039D01*
Y040354D02*
Y040488D01*
X060106Y040554D01*
X060173Y040488D01*
Y040354D01*
Y040454D01*
X060039D01*
X060532Y03937D02*
Y039503D01*
X060598Y03957D01*
X060665Y039503D01*
Y03937D01*
Y03947D01*
X060532D01*
X060039Y038386D02*
Y038519D01*
X060106Y038586D01*
X060173Y038519D01*
Y038386D01*
Y038486D01*
X060039D01*
X060532Y037402D02*
Y037535D01*
X060598Y037602D01*
X060665Y037535D01*
Y037402D01*
Y037502D01*
X060532D01*
X060039Y036417D02*
Y036551D01*
X060106Y036617D01*
X060173Y036551D01*
Y036417D01*
Y036517D01*
X060039D01*
X060532Y035433D02*
Y035566D01*
X060598Y035633D01*
X060665Y035566D01*
Y035433D01*
Y035533D01*
X060532D01*
X060039Y034449D02*
Y034582D01*
X060106Y034649D01*
X060173Y034582D01*
Y034449D01*
Y034549D01*
X060039D01*
X060532Y033465D02*
Y033598D01*
X060598Y033665D01*
X060665Y033598D01*
Y033465D01*
Y033565D01*
X060532D01*
X060039Y03248D02*
Y032614D01*
X060106Y03268D01*
X060173Y032614D01*
Y03248D01*
Y03258D01*
X060039D01*
X060532Y031496D02*
Y031629D01*
X060598Y031696D01*
X060665Y031629D01*
Y031496D01*
Y031596D01*
X060532D01*
X060039Y030512D02*
Y030645D01*
X060106Y030712D01*
X060173Y030645D01*
Y030512D01*
Y030612D01*
X060039D01*
X060532Y029528D02*
Y029661D01*
X060598Y029727D01*
X060665Y029661D01*
Y029528D01*
Y029628D01*
X060532D01*
X060039Y028543D02*
Y028677D01*
X060106Y028743D01*
X060173Y028677D01*
Y028543D01*
Y028643D01*
X060039D01*
Y024606D02*
Y02474D01*
X060106Y024806D01*
X060173Y02474D01*
Y024606D01*
Y024706D01*
X060039D01*
X059547Y045276D02*
Y045409D01*
X059614Y045476D01*
X059681Y045409D01*
Y045276D01*
Y045376D01*
X059547D01*
X059055Y044291D02*
Y044425D01*
X059122Y044491D01*
X059188Y044425D01*
Y044291D01*
Y044391D01*
X059055D01*
X059547Y043307D02*
Y04344D01*
X059614Y043507D01*
X059681Y04344D01*
Y043307D01*
Y043407D01*
X059547D01*
Y041339D02*
Y041472D01*
X059614Y041539D01*
X059681Y041472D01*
Y041339D01*
Y041439D01*
X059547D01*
X059055Y040354D02*
Y040488D01*
X059122Y040554D01*
X059188Y040488D01*
Y040354D01*
Y040454D01*
X059055D01*
X059547Y03937D02*
Y039503D01*
X059614Y03957D01*
X059681Y039503D01*
Y03937D01*
Y03947D01*
X059547D01*
X059055Y038386D02*
Y038519D01*
X059122Y038586D01*
X059188Y038519D01*
Y038386D01*
Y038486D01*
X059055D01*
X059547Y037402D02*
Y037535D01*
X059614Y037602D01*
X059681Y037535D01*
Y037402D01*
Y037502D01*
X059547D01*
X059055Y036417D02*
Y036551D01*
X059122Y036617D01*
X059188Y036551D01*
Y036417D01*
Y036517D01*
X059055D01*
X059547Y035433D02*
Y035566D01*
X059614Y035633D01*
X059681Y035566D01*
Y035433D01*
Y035533D01*
X059547D01*
X059055Y034449D02*
Y034582D01*
X059122Y034649D01*
X059188Y034582D01*
Y034449D01*
Y034549D01*
X059055D01*
X059547Y033465D02*
Y033598D01*
X059614Y033665D01*
X059681Y033598D01*
Y033465D01*
Y033565D01*
X059547D01*
X059055Y03248D02*
Y032614D01*
X059122Y03268D01*
X059188Y032614D01*
Y03248D01*
Y03258D01*
X059055D01*
X059547Y031496D02*
Y031629D01*
X059614Y031696D01*
X059681Y031629D01*
Y031496D01*
Y031596D01*
X059547D01*
X059055Y030512D02*
Y030645D01*
X059122Y030712D01*
X059188Y030645D01*
Y030512D01*
Y030612D01*
X059055D01*
X059547Y029528D02*
Y029661D01*
X059614Y029727D01*
X059681Y029661D01*
Y029528D01*
Y029628D01*
X059547D01*
X059055Y028543D02*
Y028677D01*
X059122Y028743D01*
X059188Y028677D01*
Y028543D01*
Y028643D01*
X059055D01*
X059547Y027559D02*
Y027692D01*
X059614Y027759D01*
X059681Y027692D01*
Y027559D01*
Y027659D01*
X059547D01*
X059055Y024606D02*
Y02474D01*
X059122Y024806D01*
X059188Y02474D01*
Y024606D01*
Y024706D01*
X059055D01*
X058071Y044291D02*
Y044425D01*
X058138Y044491D01*
X058204Y044425D01*
Y044291D01*
Y044391D01*
X058071D01*
Y040354D02*
Y040488D01*
X058138Y040554D01*
X058204Y040488D01*
Y040354D01*
Y040454D01*
X058071D01*
X058563Y03937D02*
Y039503D01*
X05863Y03957D01*
X058696Y039503D01*
Y03937D01*
Y03947D01*
X058563D01*
X058071Y038386D02*
Y038519D01*
X058138Y038586D01*
X058204Y038519D01*
Y038386D01*
Y038486D01*
X058071D01*
X058563Y037402D02*
Y037535D01*
X05863Y037602D01*
X058696Y037535D01*
Y037402D01*
Y037502D01*
X058563D01*
X058071Y036417D02*
Y036551D01*
X058138Y036617D01*
X058204Y036551D01*
Y036417D01*
Y036517D01*
X058071D01*
X058563Y035433D02*
Y035566D01*
X05863Y035633D01*
X058696Y035566D01*
Y035433D01*
Y035533D01*
X058563D01*
X058071Y034449D02*
Y034582D01*
X058138Y034649D01*
X058204Y034582D01*
Y034449D01*
Y034549D01*
X058071D01*
X058563Y033465D02*
Y033598D01*
X05863Y033665D01*
X058696Y033598D01*
Y033465D01*
Y033565D01*
X058563D01*
X058071Y03248D02*
Y032614D01*
X058138Y03268D01*
X058204Y032614D01*
Y03248D01*
Y03258D01*
X058071D01*
X058563Y031496D02*
Y031629D01*
X05863Y031696D01*
X058696Y031629D01*
Y031496D01*
Y031596D01*
X058563D01*
X058071Y030512D02*
Y030645D01*
X058138Y030712D01*
X058204Y030645D01*
Y030512D01*
Y030612D01*
X058071D01*
X058563Y029528D02*
Y029661D01*
X05863Y029727D01*
X058696Y029661D01*
Y029528D01*
Y029628D01*
X058563D01*
X058071Y028543D02*
Y028677D01*
X058138Y028743D01*
X058204Y028677D01*
Y028543D01*
Y028643D01*
X058071D01*
Y024606D02*
Y02474D01*
X058138Y024806D01*
X058204Y02474D01*
Y024606D01*
Y024706D01*
X058071D01*
X057087Y044291D02*
Y044425D01*
X057153Y044491D01*
X05722Y044425D01*
Y044291D01*
Y044391D01*
X057087D01*
X057579Y043307D02*
Y04344D01*
X057645Y043507D01*
X057712Y04344D01*
Y043307D01*
Y043407D01*
X057579D01*
Y041339D02*
Y041472D01*
X057645Y041539D01*
X057712Y041472D01*
Y041339D01*
Y041439D01*
X057579D01*
X057087Y040354D02*
Y040488D01*
X057153Y040554D01*
X05722Y040488D01*
Y040354D01*
Y040454D01*
X057087D01*
X057579Y03937D02*
Y039503D01*
X057645Y03957D01*
X057712Y039503D01*
Y03937D01*
Y03947D01*
X057579D01*
X057087Y038386D02*
Y038519D01*
X057153Y038586D01*
X05722Y038519D01*
Y038386D01*
Y038486D01*
X057087D01*
X057579Y037402D02*
Y037535D01*
X057645Y037602D01*
X057712Y037535D01*
Y037402D01*
Y037502D01*
X057579D01*
X057087Y036417D02*
Y036551D01*
X057153Y036617D01*
X05722Y036551D01*
Y036417D01*
Y036517D01*
X057087D01*
X057579Y035433D02*
Y035566D01*
X057645Y035633D01*
X057712Y035566D01*
Y035433D01*
Y035533D01*
X057579D01*
X057087Y034449D02*
Y034582D01*
X057153Y034649D01*
X05722Y034582D01*
Y034449D01*
Y034549D01*
X057087D01*
X057579Y033465D02*
Y033598D01*
X057645Y033665D01*
X057712Y033598D01*
Y033465D01*
Y033565D01*
X057579D01*
X057087Y03248D02*
Y032614D01*
X057153Y03268D01*
X05722Y032614D01*
Y03248D01*
Y03258D01*
X057087D01*
X057579Y031496D02*
Y031629D01*
X057645Y031696D01*
X057712Y031629D01*
Y031496D01*
Y031596D01*
X057579D01*
X057087Y030512D02*
Y030645D01*
X057153Y030712D01*
X05722Y030645D01*
Y030512D01*
Y030612D01*
X057087D01*
X057579Y029528D02*
Y029661D01*
X057645Y029727D01*
X057712Y029661D01*
Y029528D01*
Y029628D01*
X057579D01*
X057087Y028543D02*
Y028677D01*
X057153Y028743D01*
X05722Y028677D01*
Y028543D01*
Y028643D01*
X057087D01*
X057579Y027559D02*
Y027692D01*
X057645Y027759D01*
X057712Y027692D01*
Y027559D01*
Y027659D01*
X057579D01*
X057087Y024606D02*
Y02474D01*
X057153Y024806D01*
X05722Y02474D01*
Y024606D01*
Y024706D01*
X057087D01*
X056102Y044291D02*
Y044425D01*
X056169Y044491D01*
X056236Y044425D01*
Y044291D01*
Y044391D01*
X056102D01*
X056594Y043307D02*
Y04344D01*
X056661Y043507D01*
X056728Y04344D01*
Y043307D01*
Y043407D01*
X056594D01*
Y041339D02*
Y041472D01*
X056661Y041539D01*
X056728Y041472D01*
Y041339D01*
Y041439D01*
X056594D01*
X056102Y034449D02*
Y034582D01*
X056169Y034649D01*
X056236Y034582D01*
Y034449D01*
Y034549D01*
X056102D01*
X056594Y033465D02*
Y033598D01*
X056661Y033665D01*
X056728Y033598D01*
Y033465D01*
Y033565D01*
X056594D01*
Y029528D02*
Y029661D01*
X056661Y029727D01*
X056728Y029661D01*
Y029528D01*
Y029628D01*
X056594D01*
X056102Y028543D02*
Y028677D01*
X056169Y028743D01*
X056236Y028677D01*
Y028543D01*
Y028643D01*
X056102D01*
X056594Y025591D02*
Y025724D01*
X056661Y02579D01*
X056728Y025724D01*
Y025591D01*
Y025691D01*
X056594D01*
X056102Y024606D02*
Y02474D01*
X056169Y024806D01*
X056236Y02474D01*
Y024606D01*
Y024706D01*
X056102D01*
X055118Y044291D02*
Y044425D01*
X055185Y044491D01*
X055251Y044425D01*
Y044291D01*
Y044391D01*
X055118D01*
X05561Y043307D02*
Y04344D01*
X055677Y043507D01*
X055744Y04344D01*
Y043307D01*
Y043407D01*
X05561D01*
X055118Y03248D02*
Y032614D01*
X055185Y03268D01*
X055251Y032614D01*
Y03248D01*
Y03258D01*
X055118D01*
Y030512D02*
Y030645D01*
X055185Y030712D01*
X055251Y030645D01*
Y030512D01*
Y030612D01*
X055118D01*
X05561Y029528D02*
Y029661D01*
X055677Y029727D01*
X055744Y029661D01*
Y029528D01*
Y029628D01*
X05561D01*
X055118Y028543D02*
Y028677D01*
X055185Y028743D01*
X055251Y028677D01*
Y028543D01*
Y028643D01*
X055118D01*
X05561Y025591D02*
Y025724D01*
X055677Y02579D01*
X055744Y025724D01*
Y025591D01*
Y025691D01*
X05561D01*
X054626Y047244D02*
Y047377D01*
X054693Y047444D01*
X054759Y047377D01*
Y047244D01*
Y047344D01*
X054626D01*
X054134Y04626D02*
Y046393D01*
X054201Y04646D01*
X054267Y046393D01*
Y04626D01*
Y04636D01*
X054134D01*
Y044291D02*
Y044425D01*
X054201Y044491D01*
X054267Y044425D01*
Y044291D01*
Y044391D01*
X054134D01*
X054626Y043307D02*
Y04344D01*
X054693Y043507D01*
X054759Y04344D01*
Y043307D01*
Y043407D01*
X054626D01*
Y041339D02*
Y041472D01*
X054693Y041539D01*
X054759Y041472D01*
Y041339D01*
Y041439D01*
X054626D01*
X054134Y03248D02*
Y032614D01*
X054201Y03268D01*
X054267Y032614D01*
Y03248D01*
Y03258D01*
X054134D01*
X054626Y031496D02*
Y031629D01*
X054693Y031696D01*
X054759Y031629D01*
Y031496D01*
Y031596D01*
X054626D01*
X054134Y030512D02*
Y030645D01*
X054201Y030712D01*
X054267Y030645D01*
Y030512D01*
Y030612D01*
X054134D01*
X054626Y029528D02*
Y029661D01*
X054693Y029727D01*
X054759Y029661D01*
Y029528D01*
Y029628D01*
X054626D01*
X054134Y028543D02*
Y028677D01*
X054201Y028743D01*
X054267Y028677D01*
Y028543D01*
Y028643D01*
X054134D01*
X054626Y025591D02*
Y025724D01*
X054693Y02579D01*
X054759Y025724D01*
Y025591D01*
Y025691D01*
X054626D01*
X05315Y044291D02*
Y044425D01*
X053216Y044491D01*
X053283Y044425D01*
Y044291D01*
Y044391D01*
X05315D01*
X053642Y043307D02*
Y04344D01*
X053708Y043507D01*
X053775Y04344D01*
Y043307D01*
Y043407D01*
X053642D01*
X05315Y036417D02*
Y036551D01*
X053216Y036617D01*
X053283Y036551D01*
Y036417D01*
Y036517D01*
X05315D01*
Y03248D02*
Y032614D01*
X053216Y03268D01*
X053283Y032614D01*
Y03248D01*
Y03258D01*
X05315D01*
X053642Y031496D02*
Y031629D01*
X053708Y031696D01*
X053775Y031629D01*
Y031496D01*
Y031596D01*
X053642D01*
X05315Y030512D02*
Y030645D01*
X053216Y030712D01*
X053283Y030645D01*
Y030512D01*
Y030612D01*
X05315D01*
X052165Y042323D02*
Y042456D01*
X052232Y042523D01*
X052299Y042456D01*
Y042323D01*
Y042423D01*
X052165D01*
X052657Y041339D02*
Y041472D01*
X052724Y041539D01*
X052791Y041472D01*
Y041339D01*
Y041439D01*
X052657D01*
Y03937D02*
Y039503D01*
X052724Y03957D01*
X052791Y039503D01*
Y03937D01*
Y03947D01*
X052657D01*
X052165Y038386D02*
Y038519D01*
X052232Y038586D01*
X052299Y038519D01*
Y038386D01*
Y038486D01*
X052165D01*
X052657Y037402D02*
Y037535D01*
X052724Y037602D01*
X052791Y037535D01*
Y037402D01*
Y037502D01*
X052657D01*
X052165Y03248D02*
Y032614D01*
X052232Y03268D01*
X052299Y032614D01*
Y03248D01*
Y03258D01*
X052165D01*
X052657Y031496D02*
Y031629D01*
X052724Y031696D01*
X052791Y031629D01*
Y031496D01*
Y031596D01*
X052657D01*
X052165Y030512D02*
Y030645D01*
X052232Y030712D01*
X052299Y030645D01*
Y030512D01*
Y030612D01*
X052165D01*
Y028543D02*
Y028677D01*
X052232Y028743D01*
X052299Y028677D01*
Y028543D01*
Y028643D01*
X052165D01*
Y026575D02*
Y026708D01*
X052232Y026775D01*
X052299Y026708D01*
Y026575D01*
Y026675D01*
X052165D01*
X051181Y042323D02*
Y042456D01*
X051248Y042523D01*
X051314Y042456D01*
Y042323D01*
Y042423D01*
X051181D01*
X051673Y041339D02*
Y041472D01*
X05174Y041539D01*
X051807Y041472D01*
Y041339D01*
Y041439D01*
X051673D01*
Y03937D02*
Y039503D01*
X05174Y03957D01*
X051807Y039503D01*
Y03937D01*
Y03947D01*
X051673D01*
X051181Y03248D02*
Y032614D01*
X051248Y03268D01*
X051314Y032614D01*
Y03248D01*
Y03258D01*
X051181D01*
X051673Y031496D02*
Y031629D01*
X05174Y031696D01*
X051807Y031629D01*
Y031496D01*
Y031596D01*
X051673D01*
X051181Y030512D02*
Y030645D01*
X051248Y030712D01*
X051314Y030645D01*
Y030512D01*
Y030612D01*
X051181D01*
X051673Y029528D02*
Y029661D01*
X05174Y029727D01*
X051807Y029661D01*
Y029528D01*
Y029628D01*
X051673D01*
X051181Y028543D02*
Y028677D01*
X051248Y028743D01*
X051314Y028677D01*
Y028543D01*
Y028643D01*
X051181D01*
X051673Y027559D02*
Y027692D01*
X05174Y027759D01*
X051807Y027692D01*
Y027559D01*
Y027659D01*
X051673D01*
X051181Y026575D02*
Y026708D01*
X051248Y026775D01*
X051314Y026708D01*
Y026575D01*
Y026675D01*
X051181D01*
X051673Y025591D02*
Y025724D01*
X05174Y02579D01*
X051807Y025724D01*
Y025591D01*
Y025691D01*
X051673D01*
X050197Y042323D02*
Y042456D01*
X050264Y042523D01*
X05033Y042456D01*
Y042323D01*
Y042423D01*
X050197D01*
X050689Y041339D02*
Y041472D01*
X050756Y041539D01*
X050822Y041472D01*
Y041339D01*
Y041439D01*
X050689D01*
X050197Y03248D02*
Y032614D01*
X050264Y03268D01*
X05033Y032614D01*
Y03248D01*
Y03258D01*
X050197D01*
X050689Y031496D02*
Y031629D01*
X050756Y031696D01*
X050822Y031629D01*
Y031496D01*
Y031596D01*
X050689D01*
X050197Y030512D02*
Y030645D01*
X050264Y030712D01*
X05033Y030645D01*
Y030512D01*
Y030612D01*
X050197D01*
X050689Y029528D02*
Y029661D01*
X050756Y029727D01*
X050822Y029661D01*
Y029528D01*
Y029628D01*
X050689D01*
X050197Y028543D02*
Y028677D01*
X050264Y028743D01*
X05033Y028677D01*
Y028543D01*
Y028643D01*
X050197D01*
X049213Y042323D02*
Y042456D01*
X049279Y042523D01*
X049346Y042456D01*
Y042323D01*
Y042423D01*
X049213D01*
X049705Y041339D02*
Y041472D01*
X049771Y041539D01*
X049838Y041472D01*
Y041339D01*
Y041439D01*
X049705D01*
X049213Y03248D02*
Y032614D01*
X049279Y03268D01*
X049346Y032614D01*
Y03248D01*
Y03258D01*
X049213D01*
X049705Y031496D02*
Y031629D01*
X049771Y031696D01*
X049838Y031629D01*
Y031496D01*
Y031596D01*
X049705D01*
X049213Y030512D02*
Y030645D01*
X049279Y030712D01*
X049346Y030645D01*
Y030512D01*
Y030612D01*
X049213D01*
X048228Y042323D02*
Y042456D01*
X048295Y042523D01*
X048362Y042456D01*
Y042323D01*
Y042423D01*
X048228D01*
X04872Y041339D02*
Y041472D01*
X048787Y041539D01*
X048854Y041472D01*
Y041339D01*
Y041439D01*
X04872D01*
X048228Y036417D02*
Y036551D01*
X048295Y036617D01*
X048362Y036551D01*
Y036417D01*
Y036517D01*
X048228D01*
X04872Y031496D02*
Y031629D01*
X048787Y031696D01*
X048854Y031629D01*
Y031496D01*
Y031596D01*
X04872D01*
X047244Y03248D02*
Y032614D01*
X047311Y03268D01*
X047377Y032614D01*
Y03248D01*
Y03258D01*
X047244D01*
X046752Y037402D02*
Y037535D01*
X046819Y037602D01*
X046885Y037535D01*
Y037402D01*
Y037502D01*
X046752D01*
X04626Y036417D02*
Y036551D01*
X046326Y036617D01*
X046393Y036551D01*
Y036417D01*
Y036517D01*
X04626D01*
X046752Y035433D02*
Y035566D01*
X046819Y035633D01*
X046885Y035566D01*
Y035433D01*
Y035533D01*
X046752D01*
Y033465D02*
Y033598D01*
X046819Y033665D01*
X046885Y033598D01*
Y033465D01*
Y033565D01*
X046752D01*
X04626Y03248D02*
Y032614D01*
X046326Y03268D01*
X046393Y032614D01*
Y03248D01*
Y03258D01*
X04626D01*
X046752Y031496D02*
Y031629D01*
X046819Y031696D01*
X046885Y031629D01*
Y031496D01*
Y031596D01*
X046752D01*
Y025591D02*
Y025724D01*
X046819Y02579D01*
X046885Y025724D01*
Y025591D01*
Y025691D01*
X046752D01*
X045768Y03937D02*
Y039503D01*
X045834Y03957D01*
X045901Y039503D01*
Y03937D01*
Y03947D01*
X045768D01*
X045276Y036417D02*
Y036551D01*
X045342Y036617D01*
X045409Y036551D01*
Y036417D01*
Y036517D01*
X045276D01*
X044291Y038386D02*
Y038519D01*
X044358Y038586D01*
X044425Y038519D01*
Y038386D01*
Y038486D01*
X044291D01*
Y036417D02*
Y036551D01*
X044358Y036617D01*
X044425Y036551D01*
Y036417D01*
Y036517D01*
X044291D01*
X044783Y033465D02*
Y033598D01*
X04485Y033665D01*
X044917Y033598D01*
Y033465D01*
Y033565D01*
X044783D01*
X044291Y03248D02*
Y032614D01*
X044358Y03268D01*
X044425Y032614D01*
Y03248D01*
Y03258D01*
X044291D01*
X044783Y027559D02*
Y027692D01*
X04485Y027759D01*
X044917Y027692D01*
Y027559D01*
Y027659D01*
X044783D01*
X044291Y024606D02*
Y02474D01*
X044358Y024806D01*
X044425Y02474D01*
Y024606D01*
Y024706D01*
X044291D01*
X043307Y038386D02*
Y038519D01*
X043374Y038586D01*
X04344Y038519D01*
Y038386D01*
Y038486D01*
X043307D01*
X043799Y037402D02*
Y037535D01*
X043866Y037602D01*
X043932Y037535D01*
Y037402D01*
Y037502D01*
X043799D01*
X043307Y036417D02*
Y036551D01*
X043374Y036617D01*
X04344Y036551D01*
Y036417D01*
Y036517D01*
X043307D01*
X043799Y031496D02*
Y031629D01*
X043866Y031696D01*
X043932Y031629D01*
Y031496D01*
Y031596D01*
X043799D01*
X043307Y030512D02*
Y030645D01*
X043374Y030712D01*
X04344Y030645D01*
Y030512D01*
Y030612D01*
X043307D01*
Y028543D02*
Y028677D01*
X043374Y028743D01*
X04344Y028677D01*
Y028543D01*
Y028643D01*
X043307D01*
X042323Y038386D02*
Y038519D01*
X042389Y038586D01*
X042456Y038519D01*
Y038386D01*
Y038486D01*
X042323D01*
X042815Y037402D02*
Y037535D01*
X042882Y037602D01*
X042948Y037535D01*
Y037402D01*
Y037502D01*
X042815D01*
X042323Y036417D02*
Y036551D01*
X042389Y036617D01*
X042456Y036551D01*
Y036417D01*
Y036517D01*
X042323D01*
X042815Y031496D02*
Y031629D01*
X042882Y031696D01*
X042948Y031629D01*
Y031496D01*
Y031596D01*
X042815D01*
Y029528D02*
Y029661D01*
X042882Y029727D01*
X042948Y029661D01*
Y029528D01*
Y029628D01*
X042815D01*
Y027559D02*
Y027692D01*
X042882Y027759D01*
X042948Y027692D01*
Y027559D01*
Y027659D01*
X042815D01*
Y025591D02*
Y025724D01*
X042882Y02579D01*
X042948Y025724D01*
Y025591D01*
Y025691D01*
X042815D01*
X042323Y024606D02*
Y02474D01*
X042389Y024806D01*
X042456Y02474D01*
Y024606D01*
Y024706D01*
X042323D01*
X041831Y037402D02*
Y037535D01*
X041897Y037602D01*
X041964Y037535D01*
Y037402D01*
Y037502D01*
X041831D01*
X041339Y036417D02*
Y036551D01*
X041405Y036617D01*
X041472Y036551D01*
Y036417D01*
Y036517D01*
X041339D01*
X040354Y030512D02*
Y030645D01*
X040421Y030712D01*
X040488Y030645D01*
Y030512D01*
Y030612D01*
X040354D01*
X040846Y029528D02*
Y029661D01*
X040913Y029727D01*
X04098Y029661D01*
Y029528D01*
Y029628D01*
X040846D01*
X040354Y028543D02*
Y028677D01*
X040421Y028743D01*
X040488Y028677D01*
Y028543D01*
Y028643D01*
X040354D01*
X040846Y027559D02*
Y027692D01*
X040913Y027759D01*
X04098Y027692D01*
Y027559D01*
Y027659D01*
X040846D01*
X03937Y042323D02*
Y042456D01*
X039437Y042523D01*
X039503Y042456D01*
Y042323D01*
Y042423D01*
X03937D01*
Y030512D02*
Y030645D01*
X039437Y030712D01*
X039503Y030645D01*
Y030512D01*
Y030612D01*
X03937D01*
X039862Y029528D02*
Y029661D01*
X039929Y029727D01*
X039996Y029661D01*
Y029528D01*
Y029628D01*
X039862D01*
X03937Y028543D02*
Y028677D01*
X039437Y028743D01*
X039503Y028677D01*
Y028543D01*
Y028643D01*
X03937D01*
X01793Y02578D02*
Y02558D01*
X01803D01*
X018063Y025613D01*
Y025647D01*
X01803Y02568D01*
X01793D01*
X01803D01*
X018063Y025713D01*
Y025747D01*
X01803Y02578D01*
X01793D01*
X011873Y049267D02*
X01184Y0493D01*
X011773D01*
X01174Y049267D01*
Y049133D01*
X011773Y0491D01*
X01184D01*
X011873Y049133D01*
X023783Y019607D02*
X02375Y01964D01*
X023683D01*
X02365Y019607D01*
Y019473D01*
X023683Y01944D01*
X02375D01*
X023783Y019473D01*
X061693Y019607D02*
X06166Y01964D01*
X061593D01*
X06156Y019607D01*
Y019473D01*
X061593Y01944D01*
X06166D01*
X061693Y019473D01*
Y049277D02*
X06166Y04931D01*
X061593D01*
X06156Y049277D01*
Y049143D01*
X061593Y04911D01*
X06166D01*
X061693Y049143D01*
X025394Y04252D02*
Y042653D01*
X02546Y04272D01*
X025527Y042653D01*
Y04252D01*
Y04262D01*
X025394D01*
Y041929D02*
Y042062D01*
X02546Y042129D01*
X025527Y042062D01*
Y041929D01*
Y042029D01*
X025394D01*
Y041339D02*
Y041472D01*
X02546Y041539D01*
X025527Y041472D01*
Y041339D01*
Y041439D01*
X025394D01*
Y040748D02*
Y040881D01*
X02546Y040948D01*
X025527Y040881D01*
Y040748D01*
Y040848D01*
X025394D01*
Y040157D02*
Y040291D01*
X02546Y040357D01*
X025527Y040291D01*
Y040157D01*
Y040257D01*
X025394D01*
Y039567D02*
Y0397D01*
X02546Y039767D01*
X025527Y0397D01*
Y039567D01*
Y039667D01*
X025394D01*
Y038976D02*
Y03911D01*
X02546Y039176D01*
X025527Y03911D01*
Y038976D01*
Y039076D01*
X025394D01*
X024803Y04252D02*
Y042653D01*
X02487Y04272D01*
X024936Y042653D01*
Y04252D01*
Y04262D01*
X024803D01*
Y041929D02*
Y042062D01*
X02487Y042129D01*
X024936Y042062D01*
Y041929D01*
Y042029D01*
X024803D01*
Y041339D02*
Y041472D01*
X02487Y041539D01*
X024936Y041472D01*
Y041339D01*
Y041439D01*
X024803D01*
Y040748D02*
Y040881D01*
X02487Y040948D01*
X024936Y040881D01*
Y040748D01*
Y040848D01*
X024803D01*
Y040157D02*
Y040291D01*
X02487Y040357D01*
X024936Y040291D01*
Y040157D01*
Y040257D01*
X024803D01*
Y039567D02*
Y0397D01*
X02487Y039767D01*
X024936Y0397D01*
Y039567D01*
Y039667D01*
X024803D01*
Y038976D02*
Y03911D01*
X02487Y039176D01*
X024936Y03911D01*
Y038976D01*
Y039076D01*
X024803D01*
Y038386D02*
Y038519D01*
X02487Y038586D01*
X024936Y038519D01*
Y038386D01*
Y038486D01*
X024803D01*
X024213Y04252D02*
Y042653D01*
X024279Y04272D01*
X024346Y042653D01*
Y04252D01*
Y04262D01*
X024213D01*
Y041929D02*
Y042062D01*
X024279Y042129D01*
X024346Y042062D01*
Y041929D01*
Y042029D01*
X024213D01*
Y041339D02*
Y041472D01*
X024279Y041539D01*
X024346Y041472D01*
Y041339D01*
Y041439D01*
X024213D01*
Y040748D02*
Y040881D01*
X024279Y040948D01*
X024346Y040881D01*
Y040748D01*
Y040848D01*
X024213D01*
Y040157D02*
Y040291D01*
X024279Y040357D01*
X024346Y040291D01*
Y040157D01*
Y040257D01*
X024213D01*
Y039567D02*
Y0397D01*
X024279Y039767D01*
X024346Y0397D01*
Y039567D01*
Y039667D01*
X024213D01*
Y038976D02*
Y03911D01*
X024279Y039176D01*
X024346Y03911D01*
Y038976D01*
Y039076D01*
X024213D01*
Y038386D02*
Y038519D01*
X024279Y038586D01*
X024346Y038519D01*
Y038386D01*
Y038486D01*
X024213D01*
Y037795D02*
Y037929D01*
X024279Y037995D01*
X024346Y037929D01*
Y037795D01*
Y037895D01*
X024213D01*
Y037205D02*
Y037338D01*
X024279Y037405D01*
X024346Y037338D01*
Y037205D01*
Y037305D01*
X024213D01*
Y036614D02*
Y036747D01*
X024279Y036814D01*
X024346Y036747D01*
Y036614D01*
Y036714D01*
X024213D01*
Y036024D02*
Y036157D01*
X024279Y036224D01*
X024346Y036157D01*
Y036024D01*
Y036124D01*
X024213D01*
Y035433D02*
Y035566D01*
X024279Y035633D01*
X024346Y035566D01*
Y035433D01*
Y035533D01*
X024213D01*
Y034843D02*
Y034976D01*
X024279Y035042D01*
X024346Y034976D01*
Y034843D01*
Y034942D01*
X024213D01*
X023622Y04252D02*
Y042653D01*
X023689Y04272D01*
X023755Y042653D01*
Y04252D01*
Y04262D01*
X023622D01*
Y041929D02*
Y042062D01*
X023689Y042129D01*
X023755Y042062D01*
Y041929D01*
Y042029D01*
X023622D01*
Y041339D02*
Y041472D01*
X023689Y041539D01*
X023755Y041472D01*
Y041339D01*
Y041439D01*
X023622D01*
Y040748D02*
Y040881D01*
X023689Y040948D01*
X023755Y040881D01*
Y040748D01*
Y040848D01*
X023622D01*
Y038976D02*
Y03911D01*
X023689Y039176D01*
X023755Y03911D01*
Y038976D01*
Y039076D01*
X023622D01*
Y038386D02*
Y038519D01*
X023689Y038586D01*
X023755Y038519D01*
Y038386D01*
Y038486D01*
X023622D01*
Y037795D02*
Y037929D01*
X023689Y037995D01*
X023755Y037929D01*
Y037795D01*
Y037895D01*
X023622D01*
X023031Y04252D02*
Y042653D01*
X023098Y04272D01*
X023165Y042653D01*
Y04252D01*
Y04262D01*
X023031D01*
Y041929D02*
Y042062D01*
X023098Y042129D01*
X023165Y042062D01*
Y041929D01*
Y042029D01*
X023031D01*
Y041339D02*
Y041472D01*
X023098Y041539D01*
X023165Y041472D01*
Y041339D01*
Y041439D01*
X023031D01*
Y040748D02*
Y040881D01*
X023098Y040948D01*
X023165Y040881D01*
Y040748D01*
Y040848D01*
X023031D01*
Y038976D02*
Y03911D01*
X023098Y039176D01*
X023165Y03911D01*
Y038976D01*
Y039076D01*
X023031D01*
Y038386D02*
Y038519D01*
X023098Y038586D01*
X023165Y038519D01*
Y038386D01*
Y038486D01*
X023031D01*
Y037795D02*
Y037929D01*
X023098Y037995D01*
X023165Y037929D01*
Y037795D01*
Y037895D01*
X023031D01*
X022441Y04311D02*
Y043244D01*
X022508Y04331D01*
X022574Y043244D01*
Y04311D01*
Y04321D01*
X022441D01*
Y04252D02*
Y042653D01*
X022508Y04272D01*
X022574Y042653D01*
Y04252D01*
Y04262D01*
X022441D01*
Y041929D02*
Y042062D01*
X022508Y042129D01*
X022574Y042062D01*
Y041929D01*
Y042029D01*
X022441D01*
Y041339D02*
Y041472D01*
X022508Y041539D01*
X022574Y041472D01*
Y041339D01*
Y041439D01*
X022441D01*
Y040748D02*
Y040881D01*
X022508Y040948D01*
X022574Y040881D01*
Y040748D01*
Y040848D01*
X022441D01*
Y038976D02*
Y03911D01*
X022508Y039176D01*
X022574Y03911D01*
Y038976D01*
Y039076D01*
X022441D01*
Y038386D02*
Y038519D01*
X022508Y038586D01*
X022574Y038519D01*
Y038386D01*
Y038486D01*
X022441D01*
Y037795D02*
Y037929D01*
X022508Y037995D01*
X022574Y037929D01*
Y037795D01*
Y037895D01*
X022441D01*
X02185Y04252D02*
Y042653D01*
X021917Y04272D01*
X021984Y042653D01*
Y04252D01*
Y04262D01*
X02185D01*
Y041929D02*
Y042062D01*
X021917Y042129D01*
X021984Y042062D01*
Y041929D01*
Y042029D01*
X02185D01*
Y041339D02*
Y041472D01*
X021917Y041539D01*
X021984Y041472D01*
Y041339D01*
Y041439D01*
X02185D01*
Y040748D02*
Y040881D01*
X021917Y040948D01*
X021984Y040881D01*
Y040748D01*
Y040848D01*
X02185D01*
Y040157D02*
Y040291D01*
X021917Y040357D01*
X021984Y040291D01*
Y040157D01*
Y040257D01*
X02185D01*
Y039567D02*
Y0397D01*
X021917Y039767D01*
X021984Y0397D01*
Y039567D01*
Y039667D01*
X02185D01*
Y038976D02*
Y03911D01*
X021917Y039176D01*
X021984Y03911D01*
Y038976D01*
Y039076D01*
X02185D01*
Y038386D02*
Y038519D01*
X021917Y038586D01*
X021984Y038519D01*
Y038386D01*
Y038486D01*
X02185D01*
Y037795D02*
Y037929D01*
X021917Y037995D01*
X021984Y037929D01*
Y037795D01*
Y037895D01*
X02185D01*
X02126Y04252D02*
Y042653D01*
X021326Y04272D01*
X021393Y042653D01*
Y04252D01*
Y04262D01*
X02126D01*
Y041929D02*
Y042062D01*
X021326Y042129D01*
X021393Y042062D01*
Y041929D01*
Y042029D01*
X02126D01*
Y041339D02*
Y041472D01*
X021326Y041539D01*
X021393Y041472D01*
Y041339D01*
Y041439D01*
X02126D01*
Y040748D02*
Y040881D01*
X021326Y040948D01*
X021393Y040881D01*
Y040748D01*
Y040848D01*
X02126D01*
Y040157D02*
Y040291D01*
X021326Y040357D01*
X021393Y040291D01*
Y040157D01*
Y040257D01*
X02126D01*
Y039567D02*
Y0397D01*
X021326Y039767D01*
X021393Y0397D01*
Y039567D01*
Y039667D01*
X02126D01*
X03257Y03693D02*
X03261Y03701D01*
X03257Y03709D01*
X03265Y03705D01*
X03273Y03709D01*
X03269Y03701D01*
X03273Y03693D01*
X03265Y03697D01*
X03257Y03693D01*
X03221Y03683D02*
X03225Y03691D01*
X03221Y03699D01*
X03229Y03695D01*
X03237Y03699D01*
X03233Y03691D01*
X03237Y03683D01*
X03229Y03687D01*
X03221Y03683D01*
X018701Y047736D02*
Y04787D01*
X018767Y047936D01*
X018834Y04787D01*
Y047736D01*
Y047836D01*
X018701D01*
X018209Y047736D02*
Y04787D01*
X018275Y047936D01*
X018342Y04787D01*
Y047736D01*
Y047836D01*
X018209D01*
X017717Y047736D02*
Y04787D01*
X017783Y047936D01*
X01785Y04787D01*
Y047736D01*
Y047836D01*
X017717D01*
Y047244D02*
Y047377D01*
X017783Y047444D01*
X01785Y047377D01*
Y047244D01*
Y047344D01*
X017717D01*
Y046752D02*
Y046885D01*
X017783Y046952D01*
X01785Y046885D01*
Y046752D01*
Y046852D01*
X017717D01*
X017224Y047736D02*
Y04787D01*
X017291Y047936D01*
X017358Y04787D01*
Y047736D01*
Y047836D01*
X017224D01*
Y047244D02*
Y047377D01*
X017291Y047444D01*
X017358Y047377D01*
Y047244D01*
Y047344D01*
X017224D01*
Y046752D02*
Y046885D01*
X017291Y046952D01*
X017358Y046885D01*
Y046752D01*
Y046852D01*
X017224D01*
X016732Y047736D02*
Y04787D01*
X016799Y047936D01*
X016866Y04787D01*
Y047736D01*
Y047836D01*
X016732D01*
Y047244D02*
Y047377D01*
X016799Y047444D01*
X016866Y047377D01*
Y047244D01*
Y047344D01*
X016732D01*
Y046752D02*
Y046885D01*
X016799Y046952D01*
X016866Y046885D01*
Y046752D01*
Y046852D01*
X016732D01*
X01624Y047736D02*
Y04787D01*
X016307Y047936D01*
X016373Y04787D01*
Y047736D01*
Y047836D01*
X01624D01*
Y047244D02*
Y047377D01*
X016307Y047444D01*
X016373Y047377D01*
Y047244D01*
Y047344D01*
X01624D01*
Y046752D02*
Y046885D01*
X016307Y046952D01*
X016373Y046885D01*
Y046752D01*
Y046852D01*
X01624D01*
X05616Y0331D02*
Y0329D01*
X05626D01*
X056293Y032933D01*
Y033067D01*
X05626Y0331D01*
X05616D01*
X056303Y03603D02*
X05617D01*
Y03583D01*
X056303D01*
X05617Y03593D02*
X056237D01*
X0249Y03039D02*
Y03019D01*
X025D01*
X025033Y030223D01*
Y030357D01*
X025Y03039D01*
X0249D01*
X025023Y02746D02*
X02489D01*
Y02726D01*
X025023D01*
X02489Y02736D02*
X024957D01*
X05596Y04642D02*
X056Y0465D01*
X05596Y04658D01*
X05604Y04654D01*
X05612Y04658D01*
X05608Y0465D01*
X05612Y04642D01*
X05604Y04646D01*
X05596Y04642D01*
X05633Y04813D02*
X05637Y04821D01*
X05633Y04829D01*
X05641Y04825D01*
X05649Y04829D01*
X05645Y04821D01*
X05649Y04813D01*
X05641Y04817D01*
X05633Y04813D01*
X05479Y04556D02*
X05483Y04564D01*
X05479Y04572D01*
X05487Y04568D01*
X05495Y04572D01*
X05491Y04564D01*
X05495Y04556D01*
X05487Y0456D01*
X05479Y04556D01*
X03812Y03655D02*
X03816Y03663D01*
X03812Y03671D01*
X0382Y03667D01*
X03828Y03671D01*
X03824Y03663D01*
X03828Y03655D01*
X0382Y03659D01*
X03812Y03655D01*
X04226Y0405D02*
Y0403D01*
X04236D01*
X042393Y040333D01*
Y040367D01*
X04236Y0404D01*
X04226D01*
X04236D01*
X042393Y040433D01*
Y040467D01*
X04236Y0405D01*
X04226D01*
X05338Y04823D02*
X05342Y04831D01*
X05338Y04839D01*
X05346Y04835D01*
X05354Y04839D01*
X0535Y04831D01*
X05354Y04823D01*
X05346Y04827D01*
X05338Y04823D01*
X05931Y04733D02*
X05935Y04741D01*
X05931Y04749D01*
X05939Y04745D01*
X05947Y04749D01*
X05943Y04741D01*
X05947Y04733D01*
X05939Y04737D01*
X05931Y04733D01*
X045412Y04401D02*
X045452Y04409D01*
X045412Y04417D01*
X045492Y04413D01*
X045572Y04417D01*
X045532Y04409D01*
X045572Y04401D01*
X045492Y04405D01*
X045412Y04401D01*
X05306Y0351D02*
X0531Y03518D01*
X05306Y03526D01*
X05314Y03522D01*
X05322Y03526D01*
X05318Y03518D01*
X05322Y0351D01*
X05314Y03514D01*
X05306Y0351D01*
X04443Y04159D02*
X04447Y04167D01*
X04443Y04175D01*
X04451Y04171D01*
X04459Y04175D01*
X04455Y04167D01*
X04459Y04159D01*
X04451Y04163D01*
X04443Y04159D01*
X03752Y03077D02*
X03756Y03085D01*
X03752Y03093D01*
X0376Y03089D01*
X03768Y03093D01*
X03764Y03085D01*
X03768Y03077D01*
X0376Y03081D01*
X03752Y03077D01*
X03753Y03114D02*
X03757Y03122D01*
X03753Y0313D01*
X03761Y03126D01*
X03769Y0313D01*
X03765Y03122D01*
X03769Y03114D01*
X03761Y03118D01*
X03753Y03114D01*
X03463Y03076D02*
X03467Y03084D01*
X03463Y03092D01*
X03471Y03088D01*
X03479Y03092D01*
X03475Y03084D01*
X03479Y03076D01*
X03471Y0308D01*
X03463Y03076D01*
X03434Y03113D02*
X03438Y03121D01*
X03434Y03129D01*
X03442Y03125D01*
X0345Y03129D01*
X03446Y03121D01*
X0345Y03113D01*
X03442Y03117D01*
X03434Y03113D01*
X03754Y03159D02*
X03758Y03167D01*
X03754Y03175D01*
X03762Y03171D01*
X0377Y03175D01*
X03766Y03167D01*
X0377Y03159D01*
X03762Y03163D01*
X03754Y03159D01*
X03434Y03156D02*
X03438Y03164D01*
X03434Y03172D01*
X03442Y03168D01*
X0345Y03172D01*
X03446Y03164D01*
X0345Y03156D01*
X03442Y0316D01*
X03434Y03156D01*
X03415Y02913D02*
X03419Y02921D01*
X03415Y02929D01*
X03423Y02925D01*
X03431Y02929D01*
X03427Y02921D01*
X03431Y02913D01*
X03423Y02917D01*
X03415Y02913D01*
X03713Y02464D02*
Y02444D01*
X03723D01*
X037263Y024473D01*
Y024507D01*
X03723Y02454D01*
X03713D01*
X03723D01*
X037263Y024573D01*
Y024607D01*
X03723Y02464D01*
X03713D01*
X03707Y02726D02*
X03711Y02734D01*
X03707Y02742D01*
X03715Y02738D01*
X03723Y02742D01*
X03719Y02734D01*
X03723Y02726D01*
X03715Y0273D01*
X03707Y02726D01*
X03447Y03363D02*
X03451Y03371D01*
X03447Y03379D01*
X03455Y03375D01*
X03463Y03379D01*
X03459Y03371D01*
X03463Y03363D01*
X03455Y03367D01*
X03447Y03363D01*
X034188Y03331D02*
X034228Y03339D01*
X034188Y03347D01*
X034268Y03343D01*
X034348Y03347D01*
X034308Y03339D01*
X034348Y03331D01*
X034268Y03335D01*
X034188Y03331D01*
X034778Y034828D02*
X034818Y034908D01*
X034778Y034988D01*
X034858Y034948D01*
X034938Y034988D01*
X034898Y034908D01*
X034938Y034828D01*
X034858Y034868D01*
X034778Y034828D01*
X02444Y02242D02*
Y02222D01*
X02454D01*
X024573Y022253D01*
Y022287D01*
X02454Y02232D01*
X02444D01*
X02454D01*
X024573Y022353D01*
Y022387D01*
X02454Y02242D01*
X02444D01*
X04854Y02838D02*
X04858Y02846D01*
X04854Y02854D01*
X04862Y0285D01*
X0487Y02854D01*
X04866Y02846D01*
X0487Y02838D01*
X04862Y02842D01*
X04854Y02838D01*
X04852Y02883D02*
X04856Y02891D01*
X04852Y02899D01*
X0486Y02895D01*
X04868Y02899D01*
X04864Y02891D01*
X04868Y02883D01*
X0486Y02887D01*
X04852Y02883D01*
X04547Y03138D02*
X04551Y03146D01*
X04547Y03154D01*
X04555Y0315D01*
X04563Y03154D01*
X04559Y03146D01*
X04563Y03138D01*
X04555Y03142D01*
X04547Y03138D01*
X03444Y03483D02*
X03448Y03491D01*
X03444Y03499D01*
X03452Y03495D01*
X0346Y03499D01*
X03456Y03491D01*
X0346Y03483D01*
X03452Y03487D01*
X03444Y03483D01*
X03513Y0348D02*
X03517Y03488D01*
X03513Y03496D01*
X03521Y03492D01*
X03529Y03496D01*
X03525Y03488D01*
X03529Y0348D01*
X03521Y03484D01*
X03513Y0348D01*
Y02741D02*
X03517Y02749D01*
X03513Y02757D01*
X03521Y02753D01*
X03529Y02757D01*
X03525Y02749D01*
X03529Y02741D01*
X03521Y02745D01*
X03513Y02741D01*
X03361Y03359D02*
X03365Y03367D01*
X03361Y03375D01*
X03369Y03371D01*
X03377Y03375D01*
X03373Y03367D01*
X03377Y03359D01*
X03369Y03363D01*
X03361Y03359D01*
X03326D02*
X0333Y03367D01*
X03326Y03375D01*
X03334Y03371D01*
X03342Y03375D01*
X03338Y03367D01*
X03342Y03359D01*
X03334Y03363D01*
X03326Y03359D01*
X04226Y04199D02*
X0423Y04207D01*
X04226Y04215D01*
X04234Y04211D01*
X04242Y04215D01*
X04238Y04207D01*
X04242Y04199D01*
X04234Y04203D01*
X04226Y04199D01*
Y04473D02*
X0423Y04481D01*
X04226Y04489D01*
X04234Y04485D01*
X04242Y04489D01*
X04238Y04481D01*
X04242Y04473D01*
X04234Y04477D01*
X04226Y04473D01*
X04183Y04025D02*
Y04005D01*
X04193D01*
X041963Y040083D01*
Y040117D01*
X04193Y04015D01*
X04183D01*
X04193D01*
X041963Y040183D01*
Y040217D01*
X04193Y04025D01*
X04183D01*
X04138Y04029D02*
Y04009D01*
X04148D01*
X041513Y040123D01*
Y040157D01*
X04148Y04019D01*
X04138D01*
X04148D01*
X041513Y040223D01*
Y040257D01*
X04148Y04029D01*
X04138D01*
X0338Y02829D02*
X03384Y02837D01*
X0338Y02845D01*
X03388Y02841D01*
X03396Y02845D01*
X03392Y02837D01*
X03396Y02829D01*
X03388Y02833D01*
X0338Y02829D01*
X04678Y02437D02*
X04682Y02445D01*
X04678Y02453D01*
X04686Y02449D01*
X04694Y02453D01*
X0469Y02445D01*
X04694Y02437D01*
X04686Y02441D01*
X04678Y02437D01*
X04787Y0252D02*
X04791Y02528D01*
X04787Y02536D01*
X04795Y02532D01*
X04803Y02536D01*
X04799Y02528D01*
X04803Y0252D01*
X04795Y02524D01*
X04787Y0252D01*
X05427Y024844D02*
X05431Y024924D01*
X05427Y025004D01*
X05435Y024964D01*
X05443Y025004D01*
X05439Y024924D01*
X05443Y024844D01*
X05435Y024884D01*
X05427Y024844D01*
X03542Y02427D02*
Y02407D01*
X03552D01*
X035553Y024103D01*
Y024137D01*
X03552Y02417D01*
X03542D01*
X03552D01*
X035553Y024203D01*
Y024237D01*
X03552Y02427D01*
X03542D01*
X03443Y02434D02*
Y02414D01*
X03453D01*
X034563Y024173D01*
Y024207D01*
X03453Y02424D01*
X03443D01*
X03453D01*
X034563Y024273D01*
Y024307D01*
X03453Y02434D01*
X03443D01*
X0353Y03309D02*
X03534Y03317D01*
X0353Y03325D01*
X03538Y03321D01*
X03546Y03325D01*
X03542Y03317D01*
X03546Y03309D01*
X03538Y03313D01*
X0353Y03309D01*
X035172Y03378D02*
X035212Y03386D01*
X035172Y03394D01*
X035252Y0339D01*
X035332Y03394D01*
X035292Y03386D01*
X035332Y03378D01*
X035252Y03382D01*
X035172Y03378D01*
X04785Y03951D02*
X04789Y03959D01*
X04785Y03967D01*
X04793Y03963D01*
X04801Y03967D01*
X04797Y03959D01*
X04801Y03951D01*
X04793Y03955D01*
X04785Y03951D01*
X04862Y035072D02*
X04866Y035152D01*
X04862Y035232D01*
X0487Y035192D01*
X04878Y035232D01*
X04874Y035152D01*
X04878Y035072D01*
X0487Y035112D01*
X04862Y035072D01*
X05002Y03437D02*
X05006Y03445D01*
X05002Y03453D01*
X0501Y03449D01*
X05018Y03453D01*
X05014Y03445D01*
X05018Y03437D01*
X0501Y03441D01*
X05002Y03437D01*
X050502Y034488D02*
X050542Y034568D01*
X050502Y034648D01*
X050582Y034608D01*
X050662Y034648D01*
X050622Y034568D01*
X050662Y034488D01*
X050582Y034528D01*
X050502Y034488D01*
X05086Y03726D02*
X0509Y03734D01*
X05086Y03742D01*
X05094Y03738D01*
X05102Y03742D01*
X05098Y03734D01*
X05102Y03726D01*
X05094Y0373D01*
X05086Y03726D01*
X04441Y04004D02*
X04445Y04012D01*
X04441Y0402D01*
X04449Y04016D01*
X04457Y0402D01*
X04453Y04012D01*
X04457Y04004D01*
X04449Y04008D01*
X04441Y04004D01*
X04526D02*
X0453Y04012D01*
X04526Y0402D01*
X04534Y04016D01*
X04542Y0402D01*
X04538Y04012D01*
X04542Y04004D01*
X04534Y04008D01*
X04526Y04004D01*
X03266Y03039D02*
X0327Y03047D01*
X03266Y03055D01*
X03274Y03051D01*
X03282Y03055D01*
X03278Y03047D01*
X03282Y03039D01*
X03274Y03043D01*
X03266Y03039D01*
X02917Y02465D02*
Y02445D01*
X02927D01*
X029303Y024483D01*
Y024517D01*
X02927Y02455D01*
X02917D01*
X02927D01*
X029303Y024583D01*
Y024617D01*
X02927Y02465D01*
X02917D01*
X01792Y0253D02*
Y0251D01*
X01802D01*
X018053Y025133D01*
Y025167D01*
X01802Y0252D01*
X01792D01*
X01802D01*
X018053Y025233D01*
Y025267D01*
X01802Y0253D01*
X01792D01*
X029142Y0385D02*
Y0383D01*
X029242D01*
X029275Y038333D01*
Y038367D01*
X029242Y0384D01*
X029142D01*
X029242D01*
X029275Y038433D01*
Y038467D01*
X029242Y0385D01*
X029142D01*
X02128Y0313D02*
Y0311D01*
X02138D01*
X021413Y031133D01*
Y031167D01*
X02138Y0312D01*
X02128D01*
X02138D01*
X021413Y031233D01*
Y031267D01*
X02138Y0313D01*
X02128D01*
X02768Y03996D02*
Y03976D01*
X02778D01*
X027813Y039793D01*
Y039827D01*
X02778Y03986D01*
X02768D01*
X02778D01*
X027813Y039893D01*
Y039927D01*
X02778Y03996D01*
X02768D01*
X03246Y03753D02*
X0325Y03761D01*
X03246Y03769D01*
X03254Y03765D01*
X03262Y03769D01*
X03258Y03761D01*
X03262Y03753D01*
X03254Y03757D01*
X03246Y03753D01*
X03265Y034807D02*
X03269Y034887D01*
X03265Y034967D01*
X03273Y034927D01*
X03281Y034967D01*
X03277Y034887D01*
X03281Y034807D01*
X03273Y034847D01*
X03265Y034807D01*
X02132Y03031D02*
Y03011D01*
X02142D01*
X021453Y030143D01*
Y030177D01*
X02142Y03021D01*
X02132D01*
X02142D01*
X021453Y030243D01*
Y030277D01*
X02142Y03031D01*
X02132D01*
X01944Y0303D02*
Y0301D01*
X01954D01*
X019573Y030133D01*
Y030167D01*
X01954Y0302D01*
X01944D01*
X01954D01*
X019573Y030233D01*
Y030267D01*
X01954Y0303D01*
X01944D01*
X02575Y0258D02*
Y0256D01*
X02585D01*
X025883Y025633D01*
Y025667D01*
X02585Y0257D01*
X02575D01*
X02585D01*
X025883Y025733D01*
Y025767D01*
X02585Y0258D01*
X02575D01*
X03386Y03629D02*
X0339Y03637D01*
X03386Y03645D01*
X03394Y03641D01*
X03402Y03645D01*
X03398Y03637D01*
X03402Y03629D01*
X03394Y03633D01*
X03386Y03629D01*
X04015Y04132D02*
Y04112D01*
X04025D01*
X040283Y041153D01*
Y041187D01*
X04025Y04122D01*
X04015D01*
X04025D01*
X040283Y041253D01*
Y041287D01*
X04025Y04132D01*
X04015D01*
X033597Y03476D02*
X033637Y03484D01*
X033597Y03492D01*
X033677Y03488D01*
X033757Y03492D01*
X033717Y03484D01*
X033757Y03476D01*
X033677Y0348D01*
X033597Y03476D01*
X03519Y037365D02*
X03523Y037445D01*
X03519Y037525D01*
X03527Y037485D01*
X03535Y037525D01*
X03531Y037445D01*
X03535Y037365D01*
X03527Y037405D01*
X03519Y037365D01*
X03647Y03615D02*
X03651Y03623D01*
X03647Y03631D01*
X03655Y03627D01*
X03663Y03631D01*
X03659Y03623D01*
X03663Y03615D01*
X03655Y03619D01*
X03647Y03615D01*
X035875Y036085D02*
X035915Y036165D01*
X035875Y036245D01*
X035955Y036205D01*
X036035Y036245D01*
X035995Y036165D01*
X036035Y036085D01*
X035955Y036125D01*
X035875Y036085D01*
X045473Y026627D02*
X04544Y02666D01*
X045373D01*
X04534Y026627D01*
Y026493D01*
X045373Y02646D01*
X04544D01*
X045473Y026493D01*
X033943Y026627D02*
X03391Y02666D01*
X033843D01*
X03381Y026627D01*
Y026493D01*
X033843Y02646D01*
X03391D01*
X033943Y026493D01*
X045523Y037937D02*
X04549Y03797D01*
X045423D01*
X04539Y037937D01*
Y037803D01*
X045423Y03777D01*
X04549D01*
X045523Y037803D01*
X033943Y037937D02*
X03391Y03797D01*
X033843D01*
X03381Y037937D01*
Y037803D01*
X033843Y03777D01*
X03391D01*
X033943Y037803D01*
X01743Y03495D02*
Y035083D01*
X017497Y03515D01*
X017563Y035083D01*
Y03495D01*
Y03505D01*
X01743D01*
X01688Y03479D02*
Y03459D01*
X01698D01*
X017013Y034623D01*
Y034657D01*
X01698Y03469D01*
X01688D01*
X01698D01*
X017013Y034723D01*
Y034757D01*
X01698Y03479D01*
X01688D01*
X01758Y02262D02*
Y02242D01*
X01768D01*
X017713Y022453D01*
Y022487D01*
X01768Y02252D01*
X01758D01*
X01768D01*
X017713Y022553D01*
Y022587D01*
X01768Y02262D01*
X01758D01*
X02079Y01952D02*
Y01932D01*
X02089D01*
X020923Y019353D01*
Y019387D01*
X02089Y01942D01*
X02079D01*
X02089D01*
X020923Y019453D01*
Y019487D01*
X02089Y01952D01*
X02079D01*
X01889Y019995D02*
Y019795D01*
X01899D01*
X019023Y019829D01*
Y019862D01*
X01899Y019895D01*
X01889D01*
X01899D01*
X019023Y019928D01*
Y019962D01*
X01899Y019995D01*
X01889D01*
X01834Y02152D02*
Y02132D01*
X01844D01*
X018473Y021353D01*
Y021387D01*
X01844Y02142D01*
X01834D01*
X01844D01*
X018473Y021453D01*
Y021487D01*
X01844Y02152D01*
X01834D01*
X0304Y03058D02*
Y03038D01*
X0305D01*
X030533Y030413D01*
Y030447D01*
X0305Y03048D01*
X0304D01*
X0305D01*
X030533Y030513D01*
Y030547D01*
X0305Y03058D01*
X0304D01*
X03575Y04295D02*
Y04275D01*
X03585D01*
X035883Y042783D01*
Y042817D01*
X03585Y04285D01*
X03575D01*
X03585D01*
X035883Y042883D01*
Y042917D01*
X03585Y04295D01*
X03575D01*
X03974Y04091D02*
Y04071D01*
X03984D01*
X039873Y040743D01*
Y040777D01*
X03984Y04081D01*
X03974D01*
X03984D01*
X039873Y040843D01*
Y040877D01*
X03984Y04091D01*
X03974D01*
X03224Y03352D02*
X03228Y0336D01*
X03224Y03368D01*
X03232Y03364D01*
X0324Y03368D01*
X03236Y0336D01*
X0324Y03352D01*
X03232Y03356D01*
X03224Y03352D01*
X03261Y03237D02*
X03265Y03245D01*
X03261Y03253D01*
X03269Y03249D01*
X03277Y03253D01*
X03273Y03245D01*
X03277Y03237D01*
X03269Y03241D01*
X03261Y03237D01*
X03445Y04055D02*
Y04035D01*
X03455D01*
X034583Y040383D01*
Y040417D01*
X03455Y04045D01*
X03445D01*
X03455D01*
X034583Y040483D01*
Y040517D01*
X03455Y04055D01*
X03445D01*
D192*
X03949Y0214D02*
G03*
X03949Y0214I-00008J0D01*
G01*
X0405D02*
G03*
X0405Y0214I-00008J0D01*
G01*
X04148D02*
G03*
X04148Y0214I-00008J0D01*
G01*
X04098Y04415D02*
G03*
X04098Y04415I-00008J0D01*
G01*
X03997D02*
G03*
X03997Y04415I-00008J0D01*
G01*
X01283Y04495D02*
G03*
X01283Y04495I-00008J0D01*
G01*
X01533D02*
G03*
X01533Y04495I-00008J0D01*
G01*
X03723Y039D02*
G03*
X03723Y039I-00008J0D01*
G01*
X03823D02*
G03*
X03823Y039I-00008J0D01*
G01*
X03623D02*
G03*
X03623Y039I-00008J0D01*
G01*
X03822Y038D02*
G03*
X03822Y038I-00008J0D01*
G01*
X03723D02*
G03*
X03723Y038I-00008J0D01*
G01*
X03623D02*
G03*
X03623Y038I-00008J0D01*
G01*
X03818Y0258D02*
G03*
X03818Y0258I-00008J0D01*
G01*
X03919D02*
G03*
X03919Y0258I-00008J0D01*
G01*
X04017D02*
G03*
X04017Y0258I-00008J0D01*
G01*
X04118D02*
G03*
X04118Y0258I-00008J0D01*
G01*
D193*
X01279Y04495D02*
G03*
X01279Y04495I-00004J0D01*
G01*
X01529D02*
G03*
X01529Y04495I-00004J0D01*
G01*
M02*
