G04*
G04 #@! TF.GenerationSoftware,Altium Limited,Altium Designer,18.1.6 (161)*
G04*
G04 Layer_Color=8388736*
%FSTAX24Y24*%
%MOIN*%
G70*
G01*
G75*
%ADD15C,0.0060*%
%ADD69O,0.0867X0.0316*%
%ADD70O,0.0316X0.0867*%
%ADD71R,0.0474X0.0630*%
%ADD72R,0.0580X0.0630*%
%ADD73R,0.1104X0.0710*%
%ADD74R,0.0434X0.0395*%
%ADD75R,0.0395X0.0434*%
%ADD76R,0.0552X0.0415*%
%ADD77R,0.0474X0.0580*%
%ADD78O,0.0946X0.0316*%
%ADD79R,0.0552X0.0631*%
%ADD80R,0.0630X0.0474*%
%ADD81R,0.0300X0.0660*%
%ADD82R,0.0631X0.0552*%
%ADD83R,0.0580X0.0474*%
%ADD84R,0.0671X0.0395*%
%ADD85R,0.0946X0.0474*%
%ADD86O,0.1064X0.0395*%
%ADD87R,0.0237X0.0395*%
%ADD88R,0.1064X0.1655*%
%ADD89R,0.0474X0.0474*%
%ADD90R,0.1064X0.1261*%
%ADD91R,0.0552X0.1458*%
%ADD92R,0.0867X0.0749*%
%ADD93R,0.0552X0.0395*%
%ADD94R,0.2049X0.2442*%
%ADD95R,0.1379X0.1064*%
%ADD96R,0.1025X0.1300*%
%ADD97R,0.0900X0.0310*%
%ADD98R,0.0415X0.0552*%
%ADD99R,0.0880X0.2580*%
%ADD100R,0.1064X0.1379*%
%ADD101R,0.2678X0.2737*%
%ADD102R,0.0867X0.0710*%
%ADD103R,0.1458X0.0671*%
%ADD104R,0.0860X0.0300*%
%ADD105R,0.0190X0.0660*%
%ADD106R,0.0660X0.0190*%
%ADD107R,0.1104X0.1064*%
%ADD108R,0.1025X0.1379*%
%ADD109R,0.1025X0.0474*%
%ADD110R,0.0710X0.1104*%
%ADD111O,0.0867X0.0671*%
%ADD112O,0.0730X0.0830*%
%ADD113C,0.1182*%
%ADD114C,0.0867*%
%ADD115C,0.0395*%
%ADD116C,0.0680*%
%ADD117R,0.1080X0.0780*%
%ADD118O,0.1080X0.0780*%
%ADD119R,0.1080X0.1080*%
%ADD120C,0.1080*%
%ADD121C,0.0780*%
%ADD122C,0.0880*%
%ADD123C,0.0789*%
%ADD124R,0.0789X0.0789*%
%ADD125R,0.1261X0.1261*%
%ADD126C,0.1261*%
%ADD127O,0.0980X0.0680*%
%ADD128R,0.0980X0.0680*%
%ADD129R,0.0780X0.0780*%
%ADD130R,0.0980X0.0830*%
%ADD131O,0.0980X0.0830*%
%ADD132O,0.0671X0.0789*%
%ADD133R,0.0671X0.0789*%
%ADD134C,0.0710*%
%ADD135R,0.0780X0.0780*%
%ADD136C,0.0356*%
%ADD137C,0.1655*%
%ADD138C,0.0474*%
%ADD139C,0.0316*%
%ADD140C,0.0592*%
%ADD141C,0.0671*%
G36*
X054551Y042871D02*
X054678Y042998D01*
X054693Y043013D01*
X054727Y043036D01*
X054766Y043052D01*
X054807Y04306D01*
X054827Y04306D01*
X054827Y04306D01*
X056782Y04306D01*
X056793Y043061D01*
X056816Y043065D01*
X056837Y043074D01*
X056856Y043086D01*
X056864Y043094D01*
X056864Y043094D01*
X05712Y04335D01*
X057127Y043358D01*
X057144Y043369D01*
X057162Y043376D01*
X057182Y04338D01*
X057192Y04338D01*
X057192Y04338D01*
X05779Y04338D01*
X057803Y043377D01*
X057826Y043364D01*
X057844Y043346D01*
X057857Y043323D01*
X05786Y04331D01*
X05786Y04331D01*
Y04296D01*
X057862Y042926D01*
X057875Y042858D01*
X057901Y042795D01*
X057939Y042738D01*
X057988Y042689D01*
X058045Y042651D01*
X058108Y042625D01*
X058176Y042612D01*
X05821Y04261D01*
X05821D01*
X058777Y04261D01*
X058792Y042611D01*
X058821Y042617D01*
X058849Y042628D01*
X058873Y042644D01*
X058884Y042654D01*
X058884Y042654D01*
X058992Y042762D01*
X059006Y042776D01*
X059038Y042797D01*
X059074Y042812D01*
X059113Y04282D01*
X059132Y04282D01*
X059132Y04282D01*
X059819Y04282D01*
X059841Y04282D01*
X059883Y042812D01*
X059923Y042795D01*
X059959Y042771D01*
X059974Y042756D01*
X059974Y042756D01*
X060141Y042589D01*
X060164Y042566D01*
X060201Y04251D01*
X060227Y042448D01*
X06024Y042383D01*
X06024Y042349D01*
X06024Y042349D01*
X06024Y041912D01*
X06024Y04189D01*
X060231Y041847D01*
X060215Y041807D01*
X06019Y04177D01*
X060175Y041755D01*
X060175D01*
X060042Y041622D01*
X060023Y041603D01*
X059977Y041572D01*
X059926Y041551D01*
X059871Y04154D01*
X059843D01*
X059843Y04154D01*
X059257D01*
X059226Y04154D01*
X059167Y041552D01*
X059112Y041575D01*
X059062Y041608D01*
X05904Y041629D01*
X05904Y04163D01*
X058898Y041772D01*
X058886Y041783D01*
X058859Y041801D01*
X05883Y041813D01*
X058798Y041819D01*
X058782Y04182D01*
X058782Y04182D01*
X05819Y04182D01*
X058156Y041818D01*
X058088Y041805D01*
X058025Y041779D01*
X057968Y041741D01*
X057919Y041692D01*
X057881Y041635D01*
X057855Y041572D01*
X057842Y041504D01*
X05784Y04147D01*
Y04147D01*
X05784Y04108D01*
X057838Y041073D01*
X057831Y04106D01*
X05782Y041049D01*
X057807Y041042D01*
X0578Y04104D01*
X0578D01*
X057154Y04104D01*
X057144Y04104D01*
X057123Y041044D01*
X057104Y041052D01*
X057086Y041064D01*
X057079Y041071D01*
X057079Y041071D01*
X056854Y041296D01*
X056848Y041301D01*
X056835Y04131D01*
X05682Y041316D01*
X056804Y04132D01*
X056796Y04132D01*
X056796Y04132D01*
X054892Y04132D01*
X05487Y04132D01*
X054827Y041329D01*
X054787Y041345D01*
X05475Y04137D01*
X054735Y041385D01*
X054735Y041385D01*
X054574Y041546D01*
X054568Y041551D01*
X054555Y04156D01*
X05454Y041566D01*
X054524Y04157D01*
X054516Y04157D01*
X054516Y04157D01*
X05326Y04157D01*
X053241Y041574D01*
X053208Y041592D01*
X053182Y041618D01*
X053164Y041651D01*
X05316Y04167D01*
X05316Y04167D01*
X05316Y04274D01*
Y042756D01*
X053172Y042785D01*
X053195Y042808D01*
X053224Y04282D01*
X05324D01*
X05324Y04282D01*
X054428Y04282D01*
X054445Y042821D01*
X054478Y042828D01*
X05451Y042841D01*
X054538Y04286D01*
X054551Y042871D01*
X054551Y042871D01*
D02*
G37*
D15*
X0505Y040053D02*
Y040447D01*
X050303Y04025D02*
X050697D01*
D69*
X047331Y042632D02*
D03*
Y042199D02*
D03*
Y041766D02*
D03*
Y041333D02*
D03*
Y0409D02*
D03*
Y040467D02*
D03*
Y040033D02*
D03*
Y0396D02*
D03*
Y039167D02*
D03*
Y038734D02*
D03*
Y038301D02*
D03*
Y037868D02*
D03*
X053669D02*
D03*
Y038301D02*
D03*
Y038734D02*
D03*
Y039167D02*
D03*
Y0396D02*
D03*
Y040033D02*
D03*
Y040467D02*
D03*
Y0409D02*
D03*
Y041333D02*
D03*
Y041766D02*
D03*
Y042199D02*
D03*
Y042632D02*
D03*
D70*
X048768Y036707D02*
D03*
X049201D02*
D03*
X049634D02*
D03*
X050067D02*
D03*
X0505D02*
D03*
X050933D02*
D03*
X051366D02*
D03*
X051799D02*
D03*
X052232D02*
D03*
Y043793D02*
D03*
X051799D02*
D03*
X051366D02*
D03*
X050933D02*
D03*
X0505D02*
D03*
X050067D02*
D03*
X049634D02*
D03*
X049201D02*
D03*
X048768D02*
D03*
D71*
X04425Y0486D02*
D03*
X04335D02*
D03*
X04555Y030924D02*
D03*
X04465D02*
D03*
X05435Y0245D02*
D03*
X05525D02*
D03*
X05645Y04565D02*
D03*
X05735D02*
D03*
X05645Y0465D02*
D03*
X05735D02*
D03*
X05645Y0474D02*
D03*
X05735D02*
D03*
X03635Y043D02*
D03*
X03725D02*
D03*
X02104Y01979D02*
D03*
X02194D02*
D03*
X02027Y019795D02*
D03*
X01937D02*
D03*
X01674Y02083D02*
D03*
X01584D02*
D03*
X01674Y01991D02*
D03*
X01584D02*
D03*
X05313Y03572D02*
D03*
X05223D02*
D03*
X0268Y04025D02*
D03*
X0277D02*
D03*
X02683Y04129D02*
D03*
X02773D02*
D03*
D72*
X04495Y0486D02*
D03*
X04585D02*
D03*
X054356Y02375D02*
D03*
X055256D02*
D03*
X0589Y04565D02*
D03*
X058D02*
D03*
Y0465D02*
D03*
X0589D02*
D03*
Y0474D02*
D03*
X058D02*
D03*
X016596Y037649D02*
D03*
X017496D02*
D03*
D73*
X0422Y04725D02*
D03*
Y04851D02*
D03*
X04075Y04724D02*
D03*
Y0485D02*
D03*
X02525Y04436D02*
D03*
Y0431D02*
D03*
X02355Y04436D02*
D03*
Y0431D02*
D03*
D74*
X043074Y0448D02*
D03*
X043665D02*
D03*
X041305Y032151D02*
D03*
X041895D02*
D03*
X054124Y027633D02*
D03*
X054715D02*
D03*
X054724Y026337D02*
D03*
X055315D02*
D03*
X048089Y0348D02*
D03*
X048679D02*
D03*
X030345Y044353D02*
D03*
X029755D02*
D03*
X044234Y039755D02*
D03*
X044825D02*
D03*
X044234Y0405D02*
D03*
X044825D02*
D03*
X043576D02*
D03*
X042985D02*
D03*
X043576Y039755D02*
D03*
X042985D02*
D03*
X043576Y0412D02*
D03*
X042985D02*
D03*
X037824Y0371D02*
D03*
X038415D02*
D03*
X032605Y03565D02*
D03*
X033195D02*
D03*
X032605Y03635D02*
D03*
X033195D02*
D03*
X031255Y036353D02*
D03*
X031845D02*
D03*
X031255Y03565D02*
D03*
X031845D02*
D03*
X035955Y035152D02*
D03*
X036545D02*
D03*
X035955Y035852D02*
D03*
X036545D02*
D03*
X029945Y03115D02*
D03*
X029355D02*
D03*
X029945Y0304D02*
D03*
X029355D02*
D03*
X035445Y028778D02*
D03*
X034855D02*
D03*
X035445Y02805D02*
D03*
X034855D02*
D03*
X032065Y028918D02*
D03*
X031475D02*
D03*
X032065Y02828D02*
D03*
X031475D02*
D03*
X035895Y037078D02*
D03*
X036486D02*
D03*
D75*
X043714Y042676D02*
D03*
Y042085D02*
D03*
X043Y042676D02*
D03*
Y042085D02*
D03*
X0404Y033581D02*
D03*
Y03299D02*
D03*
X0397Y033581D02*
D03*
Y03299D02*
D03*
X0559Y026318D02*
D03*
Y026908D02*
D03*
X0541Y026318D02*
D03*
Y026908D02*
D03*
X0491Y033715D02*
D03*
Y033125D02*
D03*
X0554Y040445D02*
D03*
Y039855D02*
D03*
X0547Y040445D02*
D03*
Y039855D02*
D03*
X02625Y034205D02*
D03*
Y034795D02*
D03*
Y032695D02*
D03*
Y032105D02*
D03*
X0494Y035376D02*
D03*
Y034785D02*
D03*
X0508Y035376D02*
D03*
Y034785D02*
D03*
X0501Y035376D02*
D03*
Y034785D02*
D03*
X043714Y043976D02*
D03*
Y043385D02*
D03*
X043Y043976D02*
D03*
Y043385D02*
D03*
X0285Y036195D02*
D03*
Y035605D02*
D03*
X03055Y036195D02*
D03*
Y035605D02*
D03*
D76*
X045492Y0437D02*
D03*
X04451Y04333D02*
D03*
X044508Y044074D02*
D03*
X045492Y0424D02*
D03*
X04451Y04203D02*
D03*
X044508Y042774D02*
D03*
X044408Y0298D02*
D03*
X04539Y03017D02*
D03*
X045392Y029426D02*
D03*
X053692Y024D02*
D03*
X05271Y02363D02*
D03*
X052708Y024374D02*
D03*
X049992Y024D02*
D03*
X04901Y02363D02*
D03*
X049008Y024374D02*
D03*
X018092Y028048D02*
D03*
X01711Y02842D02*
D03*
X017108Y027662D02*
D03*
X033474Y023636D02*
D03*
X033472Y022878D02*
D03*
X03249Y02325D02*
D03*
X037204Y023636D02*
D03*
X037202Y022878D02*
D03*
X03622Y02325D02*
D03*
D77*
X039657Y032151D02*
D03*
X040563D02*
D03*
X056306Y027633D02*
D03*
X0554D02*
D03*
X030607Y038296D02*
D03*
X031513D02*
D03*
X038457Y026996D02*
D03*
X039363D02*
D03*
X028713Y024474D02*
D03*
X027807D02*
D03*
X015884Y02189D02*
D03*
X01679D02*
D03*
D78*
X041355Y034455D02*
D03*
Y033955D02*
D03*
Y033455D02*
D03*
Y032955D02*
D03*
X043245Y034455D02*
D03*
Y033955D02*
D03*
Y033455D02*
D03*
Y032955D02*
D03*
D79*
X047Y03089D02*
D03*
X048D02*
D03*
X04797Y02806D02*
D03*
X04697D02*
D03*
X0523Y04589D02*
D03*
X0533D02*
D03*
X0523Y04679D02*
D03*
X0533D02*
D03*
X03805Y04299D02*
D03*
X03905D02*
D03*
X01835Y034992D02*
D03*
X01935D02*
D03*
X01853Y02188D02*
D03*
X01753D02*
D03*
X0345Y04111D02*
D03*
X0335D02*
D03*
D80*
X046232Y030104D02*
D03*
Y031004D02*
D03*
Y02855D02*
D03*
Y02945D02*
D03*
X052Y02455D02*
D03*
Y02365D02*
D03*
X0512Y02365D02*
D03*
Y02455D02*
D03*
X0483Y02445D02*
D03*
Y02355D02*
D03*
X0475Y02355D02*
D03*
Y02445D02*
D03*
X02855Y04255D02*
D03*
Y04165D02*
D03*
X02885Y04105D02*
D03*
Y04015D02*
D03*
X01484Y03179D02*
D03*
Y03089D02*
D03*
X017496Y02082D02*
D03*
Y01992D02*
D03*
X01795Y029936D02*
D03*
Y029036D02*
D03*
X01711Y029936D02*
D03*
Y029036D02*
D03*
X0208Y0311D02*
D03*
Y032D02*
D03*
X03349Y0428D02*
D03*
Y0419D02*
D03*
X0326Y04035D02*
D03*
Y04125D02*
D03*
X03175Y04034D02*
D03*
Y04124D02*
D03*
X03092Y04124D02*
D03*
Y04034D02*
D03*
X03442Y0228D02*
D03*
Y0237D02*
D03*
X03542Y0228D02*
D03*
Y0237D02*
D03*
X03802Y02285D02*
D03*
Y02375D02*
D03*
X01585Y03855D02*
D03*
Y03765D02*
D03*
D81*
X0477Y02906D02*
D03*
X046952D02*
D03*
Y03D02*
D03*
X047326D02*
D03*
X0477D02*
D03*
X0409Y04191D02*
D03*
X040152D02*
D03*
Y04285D02*
D03*
X040526D02*
D03*
X0409D02*
D03*
D82*
X04799Y0273D02*
D03*
Y0263D02*
D03*
X01836Y03585D02*
D03*
Y03685D02*
D03*
X01889Y02905D02*
D03*
Y03005D02*
D03*
X01995Y03205D02*
D03*
Y03105D02*
D03*
X02554Y0384D02*
D03*
Y0374D02*
D03*
X03451Y0418D02*
D03*
Y0428D02*
D03*
X02999Y0413D02*
D03*
Y0403D02*
D03*
X01709Y03875D02*
D03*
Y03975D02*
D03*
D83*
X047096Y027243D02*
D03*
Y026337D02*
D03*
D84*
X056788Y026318D02*
D03*
X056212Y0422D02*
D03*
D85*
X0573Y025727D02*
D03*
Y026908D02*
D03*
X0557Y041609D02*
D03*
Y042791D02*
D03*
D86*
X049281Y029332D02*
D03*
Y028899D02*
D03*
Y028466D02*
D03*
Y027167D02*
D03*
Y0276D02*
D03*
Y028033D02*
D03*
Y026734D02*
D03*
Y026301D02*
D03*
Y025868D02*
D03*
X0531D02*
D03*
Y026301D02*
D03*
Y026734D02*
D03*
Y028033D02*
D03*
Y0276D02*
D03*
Y027167D02*
D03*
Y028466D02*
D03*
Y028899D02*
D03*
Y029332D02*
D03*
D87*
X049744Y03392D02*
D03*
X050256D02*
D03*
X05D02*
D03*
X050256Y033062D02*
D03*
X05D02*
D03*
X049744D02*
D03*
D88*
X05616Y03749D02*
D03*
Y03055D02*
D03*
X0249Y0256D02*
D03*
Y03254D02*
D03*
D89*
X05616Y038972D02*
D03*
Y040445D02*
D03*
D90*
X055256Y0483D02*
D03*
X0525D02*
D03*
D91*
X0505Y046752D02*
D03*
Y048839D02*
D03*
X0476Y046752D02*
D03*
Y048839D02*
D03*
D92*
X043714Y04745D02*
D03*
X045485D02*
D03*
X016886Y0365D02*
D03*
X015115D02*
D03*
X016886Y03375D02*
D03*
X015115D02*
D03*
D93*
X039178Y0416D02*
D03*
X036422D02*
D03*
D94*
X033926Y0463D02*
D03*
X038374D02*
D03*
D95*
X0313Y048053D02*
D03*
Y0453D02*
D03*
D96*
X030997Y042944D02*
D03*
D97*
X032027Y043694D02*
D03*
Y043194D02*
D03*
Y042694D02*
D03*
Y042194D02*
D03*
X029967D02*
D03*
Y042694D02*
D03*
Y043194D02*
D03*
Y043694D02*
D03*
D98*
X02737Y043032D02*
D03*
X02774Y04205D02*
D03*
X026996Y042048D02*
D03*
D99*
X0295Y03605D02*
D03*
D100*
X012697Y04715D02*
D03*
X01545D02*
D03*
D101*
X022659Y0359D02*
D03*
D102*
X020257Y035002D02*
D03*
Y036798D02*
D03*
D103*
X018669Y03875D02*
D03*
Y03975D02*
D03*
Y04075D02*
D03*
X023Y03975D02*
D03*
D104*
X02156Y02045D02*
D03*
Y02095D02*
D03*
Y02145D02*
D03*
Y02195D02*
D03*
X01962D02*
D03*
Y02145D02*
D03*
Y02095D02*
D03*
Y02045D02*
D03*
D105*
X032299Y034365D02*
D03*
X032496D02*
D03*
X032693D02*
D03*
X03289D02*
D03*
X033087D02*
D03*
X033283D02*
D03*
X03348D02*
D03*
X033677D02*
D03*
X033874D02*
D03*
X034071D02*
D03*
X034268D02*
D03*
X034465D02*
D03*
X034661D02*
D03*
X034858D02*
D03*
X035055D02*
D03*
X035252D02*
D03*
Y029935D02*
D03*
X035055D02*
D03*
X034858D02*
D03*
X034661D02*
D03*
X034465D02*
D03*
X034268D02*
D03*
X034071D02*
D03*
X033874D02*
D03*
X033677D02*
D03*
X03348D02*
D03*
X033283D02*
D03*
X033087D02*
D03*
X03289D02*
D03*
X032693D02*
D03*
X032496D02*
D03*
X032299D02*
D03*
D106*
X035991Y033626D02*
D03*
Y03343D02*
D03*
Y033233D02*
D03*
Y033036D02*
D03*
Y032839D02*
D03*
Y032248D02*
D03*
Y032052D02*
D03*
Y031855D02*
D03*
Y031658D02*
D03*
X031561Y030674D02*
D03*
Y03087D02*
D03*
Y031067D02*
D03*
Y031264D02*
D03*
Y031461D02*
D03*
Y031658D02*
D03*
Y031855D02*
D03*
Y032052D02*
D03*
Y032248D02*
D03*
Y032445D02*
D03*
Y032642D02*
D03*
Y032839D02*
D03*
Y033036D02*
D03*
Y033233D02*
D03*
Y03343D02*
D03*
Y033626D02*
D03*
X035991Y032642D02*
D03*
Y031264D02*
D03*
Y031067D02*
D03*
Y03087D02*
D03*
Y030674D02*
D03*
Y031461D02*
D03*
Y032445D02*
D03*
D107*
X02735Y032485D02*
D03*
Y034415D02*
D03*
D108*
X029142Y0383D02*
D03*
D109*
X026858Y037394D02*
D03*
Y0383D02*
D03*
Y039206D02*
D03*
D110*
X01597Y04171D02*
D03*
X01723D02*
D03*
D111*
X01928Y03791D02*
D03*
X04023Y04572D02*
D03*
X04907Y04616D02*
D03*
D112*
X03941Y0214D02*
D03*
X04042D02*
D03*
X0414D02*
D03*
X0409Y04415D02*
D03*
X03989D02*
D03*
X0381Y0258D02*
D03*
X03911D02*
D03*
X04009D02*
D03*
X0411D02*
D03*
D113*
X0605Y027337D02*
D03*
Y025337D02*
D03*
X0585D02*
D03*
Y027337D02*
D03*
X0605Y0432D02*
D03*
Y0412D02*
D03*
X0585D02*
D03*
Y0432D02*
D03*
D114*
X0595Y026337D02*
D03*
Y0422D02*
D03*
D115*
X0308Y043337D02*
D03*
Y042944D02*
D03*
Y04255D02*
D03*
X031194D02*
D03*
Y042944D02*
D03*
Y043337D02*
D03*
X060236Y048425D02*
D03*
X059941Y049016D02*
D03*
X059646Y048425D02*
D03*
X05935Y049016D02*
D03*
X059055Y048425D02*
D03*
X05876Y049016D02*
D03*
X058465Y048425D02*
D03*
X058169Y049016D02*
D03*
X057874Y048425D02*
D03*
X057579Y049016D02*
D03*
X057283Y048425D02*
D03*
X056988Y049016D02*
D03*
X056398D02*
D03*
X054035D02*
D03*
X051378Y048425D02*
D03*
X051083Y049016D02*
D03*
X049902D02*
D03*
X049606Y048425D02*
D03*
X049311Y049016D02*
D03*
X049016Y048425D02*
D03*
X04872Y049016D02*
D03*
X048425Y048425D02*
D03*
X04813Y049016D02*
D03*
X046949D02*
D03*
X046654Y048425D02*
D03*
X042815Y049016D02*
D03*
X039862D02*
D03*
X039567Y048425D02*
D03*
X039272Y049016D02*
D03*
X038976Y048425D02*
D03*
X038681Y049016D02*
D03*
X038386Y048425D02*
D03*
X038091Y049016D02*
D03*
X037795Y048425D02*
D03*
X0375Y049016D02*
D03*
X037205Y048425D02*
D03*
X036909Y049016D02*
D03*
X036614Y048425D02*
D03*
X036319Y049016D02*
D03*
X036024Y048425D02*
D03*
X035728Y049016D02*
D03*
X035433Y048425D02*
D03*
X035138Y049016D02*
D03*
X034843Y048425D02*
D03*
X034547Y049016D02*
D03*
X034252Y048425D02*
D03*
X033957Y049016D02*
D03*
X033661Y048425D02*
D03*
X033366Y049016D02*
D03*
X033071Y048425D02*
D03*
X032776Y049016D02*
D03*
X03248Y048425D02*
D03*
X032185Y049016D02*
D03*
X031594D02*
D03*
X031004D02*
D03*
X030413D02*
D03*
X030118Y048425D02*
D03*
X029823Y049016D02*
D03*
X029528Y048425D02*
D03*
X029232Y049016D02*
D03*
X028937Y048425D02*
D03*
X028642Y049016D02*
D03*
X028051D02*
D03*
X027461D02*
D03*
X027165Y048425D02*
D03*
X02687Y049016D02*
D03*
X026575Y048425D02*
D03*
X02628Y049016D02*
D03*
X025984Y048425D02*
D03*
X025689Y049016D02*
D03*
X025394Y048425D02*
D03*
X025098Y049016D02*
D03*
X024508D02*
D03*
X023917D02*
D03*
X023622Y048425D02*
D03*
X023327Y049016D02*
D03*
X023031Y048425D02*
D03*
X022736Y049016D02*
D03*
X022146D02*
D03*
X021555D02*
D03*
X020965D02*
D03*
X020374D02*
D03*
X019783D02*
D03*
X019193D02*
D03*
X018602D02*
D03*
X018012D02*
D03*
X017421D02*
D03*
X016831D02*
D03*
X01624D02*
D03*
X01565D02*
D03*
X015059D02*
D03*
X014468D02*
D03*
X014173Y048425D02*
D03*
X013878Y049016D02*
D03*
X013583Y048425D02*
D03*
X013287Y049016D02*
D03*
X012992Y048425D02*
D03*
X061024Y023622D02*
D03*
Y021654D02*
D03*
X060039Y023622D02*
D03*
X060532Y022638D02*
D03*
X060039Y021654D02*
D03*
X060532Y020669D02*
D03*
X060039Y019685D02*
D03*
X059055Y023622D02*
D03*
X059547Y022638D02*
D03*
X059055Y021654D02*
D03*
X059547Y020669D02*
D03*
X059055Y019685D02*
D03*
X058071Y023622D02*
D03*
X058563Y022638D02*
D03*
X058071Y021654D02*
D03*
X058563Y020669D02*
D03*
X058071Y019685D02*
D03*
X057087Y023622D02*
D03*
X057579Y022638D02*
D03*
X057087Y021654D02*
D03*
X057579Y020669D02*
D03*
X057087Y019685D02*
D03*
X056102Y023622D02*
D03*
X056594Y022638D02*
D03*
X056102Y021654D02*
D03*
X056594Y020669D02*
D03*
X056102Y019685D02*
D03*
X05561Y022638D02*
D03*
X055118Y021654D02*
D03*
X05561Y020669D02*
D03*
X055118Y019685D02*
D03*
X054626Y022638D02*
D03*
X054134Y021654D02*
D03*
X054626Y020669D02*
D03*
X054134Y019685D02*
D03*
X053642Y022638D02*
D03*
X05315Y021654D02*
D03*
X053642Y020669D02*
D03*
X05315Y019685D02*
D03*
X052657Y022638D02*
D03*
X052165Y021654D02*
D03*
X052657Y020669D02*
D03*
X052165Y019685D02*
D03*
X051673Y022638D02*
D03*
X051181Y021654D02*
D03*
X051673Y020669D02*
D03*
X051181Y019685D02*
D03*
X050689Y022638D02*
D03*
X050197Y021654D02*
D03*
X050689Y020669D02*
D03*
X050197Y019685D02*
D03*
X049705Y022638D02*
D03*
X049213Y021654D02*
D03*
X049705Y020669D02*
D03*
X049213Y019685D02*
D03*
X04872Y022638D02*
D03*
X048228Y021654D02*
D03*
X04872Y020669D02*
D03*
X048228Y019685D02*
D03*
X047736Y022638D02*
D03*
X047244Y021654D02*
D03*
X047736Y020669D02*
D03*
X047244Y019685D02*
D03*
X04626Y023622D02*
D03*
X046752Y022638D02*
D03*
X04626Y021654D02*
D03*
X046752Y020669D02*
D03*
X04626Y019685D02*
D03*
X045276Y023622D02*
D03*
X045768Y022638D02*
D03*
X045276Y021654D02*
D03*
X045768Y020669D02*
D03*
X045276Y019685D02*
D03*
X044783Y020669D02*
D03*
X044291Y019685D02*
D03*
X043799Y020669D02*
D03*
X043307Y019685D02*
D03*
X042323Y023622D02*
D03*
X042815Y022638D02*
D03*
X042323Y021654D02*
D03*
Y019685D02*
D03*
X041339Y023622D02*
D03*
X041831Y022638D02*
D03*
X041339Y019685D02*
D03*
X040354D02*
D03*
X03937D02*
D03*
X038386D02*
D03*
X037402D02*
D03*
X036417D02*
D03*
X035433D02*
D03*
X034449D02*
D03*
X033465Y021654D02*
D03*
Y019685D02*
D03*
X032972Y022638D02*
D03*
X03248Y021654D02*
D03*
Y019685D02*
D03*
X031496Y023622D02*
D03*
X031988Y022638D02*
D03*
X031496Y021654D02*
D03*
Y019685D02*
D03*
X030512Y023622D02*
D03*
X031004Y022638D02*
D03*
X030512Y021654D02*
D03*
Y019685D02*
D03*
X029528Y023622D02*
D03*
X03002Y022638D02*
D03*
X029528Y021654D02*
D03*
Y019685D02*
D03*
X028543Y023622D02*
D03*
X029035Y022638D02*
D03*
X028543Y021654D02*
D03*
Y019685D02*
D03*
X028051Y022638D02*
D03*
X027559Y021654D02*
D03*
Y019685D02*
D03*
X027067Y022638D02*
D03*
X026575Y021654D02*
D03*
Y019685D02*
D03*
X026083Y022638D02*
D03*
X025591Y021654D02*
D03*
Y019685D02*
D03*
X025098Y022638D02*
D03*
X023622Y021654D02*
D03*
X061024Y04626D02*
D03*
Y044291D02*
D03*
Y042323D02*
D03*
Y040354D02*
D03*
Y038386D02*
D03*
Y036417D02*
D03*
Y034449D02*
D03*
Y03248D02*
D03*
Y030512D02*
D03*
Y028543D02*
D03*
Y026575D02*
D03*
Y024606D02*
D03*
X060532Y047244D02*
D03*
X060039Y04626D02*
D03*
X060532Y045276D02*
D03*
X060039Y044291D02*
D03*
Y040354D02*
D03*
X060532Y03937D02*
D03*
X060039Y038386D02*
D03*
X060532Y037402D02*
D03*
X060039Y036417D02*
D03*
X060532Y035433D02*
D03*
X060039Y034449D02*
D03*
X060532Y033465D02*
D03*
X060039Y03248D02*
D03*
X060532Y031496D02*
D03*
X060039Y030512D02*
D03*
X060532Y029528D02*
D03*
X060039Y028543D02*
D03*
Y024606D02*
D03*
X059547Y045276D02*
D03*
X059055Y044291D02*
D03*
X059547Y043307D02*
D03*
Y041339D02*
D03*
X059055Y040354D02*
D03*
X059547Y03937D02*
D03*
X059055Y038386D02*
D03*
X059547Y037402D02*
D03*
X059055Y036417D02*
D03*
X059547Y035433D02*
D03*
X059055Y034449D02*
D03*
X059547Y033465D02*
D03*
X059055Y03248D02*
D03*
X059547Y031496D02*
D03*
X059055Y030512D02*
D03*
X059547Y029528D02*
D03*
X059055Y028543D02*
D03*
X059547Y027559D02*
D03*
X059055Y024606D02*
D03*
X058071Y044291D02*
D03*
Y040354D02*
D03*
X058563Y03937D02*
D03*
X058071Y038386D02*
D03*
X058563Y037402D02*
D03*
X058071Y036417D02*
D03*
X058563Y035433D02*
D03*
X058071Y034449D02*
D03*
X058563Y033465D02*
D03*
X058071Y03248D02*
D03*
X058563Y031496D02*
D03*
X058071Y030512D02*
D03*
X058563Y029528D02*
D03*
X058071Y028543D02*
D03*
Y024606D02*
D03*
X057087Y044291D02*
D03*
X057579Y043307D02*
D03*
Y041339D02*
D03*
X057087Y040354D02*
D03*
X057579Y03937D02*
D03*
X057087Y038386D02*
D03*
X057579Y037402D02*
D03*
X057087Y036417D02*
D03*
X057579Y035433D02*
D03*
X057087Y034449D02*
D03*
X057579Y033465D02*
D03*
X057087Y03248D02*
D03*
X057579Y031496D02*
D03*
X057087Y030512D02*
D03*
X057579Y029528D02*
D03*
X057087Y028543D02*
D03*
X057579Y027559D02*
D03*
X057087Y024606D02*
D03*
X056102Y044291D02*
D03*
X056594Y043307D02*
D03*
Y041339D02*
D03*
X056102Y034449D02*
D03*
X056594Y033465D02*
D03*
Y029528D02*
D03*
X056102Y028543D02*
D03*
X056594Y025591D02*
D03*
X056102Y024606D02*
D03*
X055118Y044291D02*
D03*
X05561Y043307D02*
D03*
X055118Y03248D02*
D03*
Y030512D02*
D03*
X05561Y029528D02*
D03*
X055118Y028543D02*
D03*
X05561Y025591D02*
D03*
X054626Y047244D02*
D03*
X054134Y04626D02*
D03*
Y044291D02*
D03*
X054626Y043307D02*
D03*
Y041339D02*
D03*
X054134Y03248D02*
D03*
X054626Y031496D02*
D03*
X054134Y030512D02*
D03*
X054626Y029528D02*
D03*
X054134Y028543D02*
D03*
X054626Y025591D02*
D03*
X05315Y044291D02*
D03*
X053642Y043307D02*
D03*
X05315Y036417D02*
D03*
Y03248D02*
D03*
X053642Y031496D02*
D03*
X05315Y030512D02*
D03*
X052165Y042323D02*
D03*
X052657Y041339D02*
D03*
Y03937D02*
D03*
X052165Y038386D02*
D03*
X052657Y037402D02*
D03*
X052165Y03248D02*
D03*
X052657Y031496D02*
D03*
X052165Y030512D02*
D03*
Y028543D02*
D03*
Y026575D02*
D03*
X051181Y042323D02*
D03*
X051673Y041339D02*
D03*
Y03937D02*
D03*
X051181Y03248D02*
D03*
X051673Y031496D02*
D03*
X051181Y030512D02*
D03*
X051673Y029528D02*
D03*
X051181Y028543D02*
D03*
X051673Y027559D02*
D03*
X051181Y026575D02*
D03*
X051673Y025591D02*
D03*
X050197Y042323D02*
D03*
X050689Y041339D02*
D03*
X050197Y03248D02*
D03*
X050689Y031496D02*
D03*
X050197Y030512D02*
D03*
X050689Y029528D02*
D03*
X050197Y028543D02*
D03*
X049213Y042323D02*
D03*
X049705Y041339D02*
D03*
X049213Y03248D02*
D03*
X049705Y031496D02*
D03*
X049213Y030512D02*
D03*
X048228Y042323D02*
D03*
X04872Y041339D02*
D03*
X048228Y036417D02*
D03*
X04872Y031496D02*
D03*
X047244Y03248D02*
D03*
X046752Y037402D02*
D03*
X04626Y036417D02*
D03*
X046752Y035433D02*
D03*
Y033465D02*
D03*
X04626Y03248D02*
D03*
X046752Y031496D02*
D03*
Y025591D02*
D03*
X045768Y03937D02*
D03*
X045276Y036417D02*
D03*
X044291Y038386D02*
D03*
Y036417D02*
D03*
X044783Y033465D02*
D03*
X044291Y03248D02*
D03*
X044783Y027559D02*
D03*
X044291Y024606D02*
D03*
X043307Y038386D02*
D03*
X043799Y037402D02*
D03*
X043307Y036417D02*
D03*
X043799Y031496D02*
D03*
X043307Y030512D02*
D03*
Y028543D02*
D03*
X042323Y038386D02*
D03*
X042815Y037402D02*
D03*
X042323Y036417D02*
D03*
X042815Y031496D02*
D03*
Y029528D02*
D03*
Y027559D02*
D03*
Y025591D02*
D03*
X042323Y024606D02*
D03*
X041831Y037402D02*
D03*
X041339Y036417D02*
D03*
X040354Y030512D02*
D03*
X040846Y029528D02*
D03*
X040354Y028543D02*
D03*
X040846Y027559D02*
D03*
X03937Y042323D02*
D03*
Y030512D02*
D03*
X039862Y029528D02*
D03*
X03937Y028543D02*
D03*
X01944Y0301D02*
D03*
X01743Y03495D02*
D03*
X03445Y04035D02*
D03*
D116*
X03002Y03415D02*
D03*
X02902D02*
D03*
D117*
X0281Y04645D02*
D03*
X02445D02*
D03*
D118*
X0281Y04795D02*
D03*
X02445D02*
D03*
D119*
X018588Y043603D02*
D03*
D120*
X021344D02*
D03*
Y046752D02*
D03*
X018588D02*
D03*
D121*
X01675Y04565D02*
D03*
Y04365D02*
D03*
X0154Y0233D02*
D03*
Y0243D02*
D03*
Y0253D02*
D03*
X03442Y0214D02*
D03*
X03542D02*
D03*
X03642D02*
D03*
D122*
X01275Y04495D02*
D03*
X01525D02*
D03*
D123*
X0125Y03375D02*
D03*
Y03475D02*
D03*
Y03575D02*
D03*
X0152Y0285D02*
D03*
X0125D02*
D03*
Y0295D02*
D03*
Y0305D02*
D03*
D124*
Y03675D02*
D03*
X0152Y0295D02*
D03*
X0125Y0315D02*
D03*
D125*
X01351Y043425D02*
D03*
X0135Y02137D02*
D03*
D126*
X01351Y04185D02*
D03*
Y040275D02*
D03*
Y0387D02*
D03*
X0135Y019795D02*
D03*
D127*
X0189Y03215D02*
D03*
Y03115D02*
D03*
X0159D02*
D03*
D128*
Y03215D02*
D03*
D129*
X0154Y0263D02*
D03*
D130*
X0125Y026305D02*
D03*
D131*
Y025255D02*
D03*
Y024255D02*
D03*
D132*
X0278Y02351D02*
D03*
X0268D02*
D03*
X0258D02*
D03*
X0248D02*
D03*
X0238D02*
D03*
X0228D02*
D03*
X0218D02*
D03*
D133*
X0208D02*
D03*
D134*
X03715Y039D02*
D03*
X03815D02*
D03*
X03615D02*
D03*
X03814Y038D02*
D03*
X03715D02*
D03*
X03615D02*
D03*
D135*
X03742Y0214D02*
D03*
D136*
X01793Y02558D02*
D03*
X03229Y03691D02*
D03*
X04226Y0403D02*
D03*
X03713Y02444D02*
D03*
X04234Y04207D02*
D03*
X04183Y04005D02*
D03*
X04138Y04009D02*
D03*
X03542Y02407D02*
D03*
X03443Y02414D02*
D03*
X01792Y0251D02*
D03*
X029142Y0383D02*
D03*
X02128Y0311D02*
D03*
X02768Y03976D02*
D03*
X02132Y03011D02*
D03*
X04015Y04112D02*
D03*
X01688Y03459D02*
D03*
X01758Y02242D02*
D03*
X02079Y01932D02*
D03*
X01889Y019795D02*
D03*
X01834Y02132D02*
D03*
X0304Y03038D02*
D03*
X03575Y04275D02*
D03*
X03974Y04071D02*
D03*
D137*
X01174Y0491D02*
D03*
X02365Y01944D02*
D03*
X06156D02*
D03*
Y04911D02*
D03*
X04534Y02646D02*
D03*
X03381D02*
D03*
X04539Y03777D02*
D03*
X03381D02*
D03*
D138*
X025394Y04252D02*
D03*
Y041929D02*
D03*
Y041339D02*
D03*
Y040748D02*
D03*
Y040157D02*
D03*
Y039567D02*
D03*
Y038976D02*
D03*
X024803Y04252D02*
D03*
Y041929D02*
D03*
Y041339D02*
D03*
Y040748D02*
D03*
Y040157D02*
D03*
Y039567D02*
D03*
Y038976D02*
D03*
Y038386D02*
D03*
X024213Y04252D02*
D03*
Y041929D02*
D03*
Y041339D02*
D03*
Y040748D02*
D03*
Y040157D02*
D03*
Y039567D02*
D03*
Y038976D02*
D03*
Y038386D02*
D03*
Y037795D02*
D03*
Y037205D02*
D03*
Y036614D02*
D03*
Y036024D02*
D03*
Y035433D02*
D03*
Y034843D02*
D03*
X023622Y04252D02*
D03*
Y041929D02*
D03*
Y041339D02*
D03*
Y040748D02*
D03*
Y038976D02*
D03*
Y038386D02*
D03*
Y037795D02*
D03*
X023031Y04252D02*
D03*
Y041929D02*
D03*
Y041339D02*
D03*
Y040748D02*
D03*
Y038976D02*
D03*
Y038386D02*
D03*
Y037795D02*
D03*
X022441Y04311D02*
D03*
Y04252D02*
D03*
Y041929D02*
D03*
Y041339D02*
D03*
Y040748D02*
D03*
Y038976D02*
D03*
Y038386D02*
D03*
Y037795D02*
D03*
X02185Y04252D02*
D03*
Y041929D02*
D03*
Y041339D02*
D03*
Y040748D02*
D03*
Y040157D02*
D03*
Y039567D02*
D03*
Y038976D02*
D03*
Y038386D02*
D03*
Y037795D02*
D03*
X02126Y04252D02*
D03*
Y041929D02*
D03*
Y041339D02*
D03*
Y040748D02*
D03*
Y040157D02*
D03*
Y039567D02*
D03*
X018701Y047736D02*
D03*
X018209D02*
D03*
X017717D02*
D03*
Y047244D02*
D03*
Y046752D02*
D03*
X017224Y047736D02*
D03*
Y047244D02*
D03*
Y046752D02*
D03*
X016732Y047736D02*
D03*
Y047244D02*
D03*
Y046752D02*
D03*
X01624Y047736D02*
D03*
Y047244D02*
D03*
Y046752D02*
D03*
D139*
X03265Y03701D02*
D03*
X05604Y0465D02*
D03*
X05641Y04821D02*
D03*
X05487Y04564D02*
D03*
X0382Y03663D02*
D03*
X05346Y04831D02*
D03*
X05939Y04741D02*
D03*
X045492Y04409D02*
D03*
X05314Y03518D02*
D03*
X04451Y04167D02*
D03*
X0376Y03085D02*
D03*
X03761Y03122D02*
D03*
X03471Y03084D02*
D03*
X03442Y03121D02*
D03*
X03762Y03167D02*
D03*
X03442Y03164D02*
D03*
X03423Y02921D02*
D03*
X03715Y02734D02*
D03*
X03455Y03371D02*
D03*
X034268Y03339D02*
D03*
X034858Y034908D02*
D03*
X02444Y02222D02*
D03*
X04862Y02846D02*
D03*
X0486Y02891D02*
D03*
X04555Y03146D02*
D03*
X03452Y03491D02*
D03*
X03521Y03488D02*
D03*
Y02749D02*
D03*
X03369Y03367D02*
D03*
X03334D02*
D03*
X04234Y04481D02*
D03*
X03388Y02837D02*
D03*
X04686Y02445D02*
D03*
X04795Y02528D02*
D03*
X05435Y024924D02*
D03*
X03538Y03317D02*
D03*
X035252Y03386D02*
D03*
X04793Y03959D02*
D03*
X0487Y035152D02*
D03*
X0501Y03445D02*
D03*
X050582Y034568D02*
D03*
X05094Y03734D02*
D03*
X04449Y04012D02*
D03*
X04534D02*
D03*
X03274Y03047D02*
D03*
X02917Y02445D02*
D03*
X03254Y03761D02*
D03*
X03273Y034887D02*
D03*
X02575Y0256D02*
D03*
X03394Y03637D02*
D03*
X033677Y03484D02*
D03*
X03527Y037445D02*
D03*
X03655Y03623D02*
D03*
X035955Y036165D02*
D03*
X03232Y0336D02*
D03*
X03269Y03245D02*
D03*
D140*
X05616Y0329D02*
D03*
X0249Y03019D02*
D03*
D141*
X05617Y03583D02*
D03*
X02489Y02726D02*
D03*
M02*
