G04*
G04 #@! TF.GenerationSoftware,Altium Limited,Altium Designer,18.1.6 (161)*
G04*
G04 Layer_Color=255*
%FSTAX24Y24*%
%MOIN*%
G70*
G01*
G75*
%ADD38R,0.0550X0.0394*%
%ADD153O,0.0787X0.0591*%
%ADD154O,0.0650X0.0750*%
%ADD155C,0.1102*%
%ADD156C,0.0787*%
%ADD157C,0.0315*%
%ADD158C,0.0600*%
%ADD159R,0.1000X0.0700*%
%ADD160O,0.1000X0.0700*%
%ADD161R,0.1000X0.1000*%
%ADD162C,0.1000*%
%ADD163C,0.0700*%
%ADD164C,0.0800*%
%ADD165C,0.0709*%
%ADD166R,0.0709X0.0709*%
%ADD167R,0.1181X0.1181*%
%ADD168C,0.1181*%
%ADD169O,0.0900X0.0600*%
%ADD170R,0.0900X0.0600*%
%ADD171R,0.0700X0.0700*%
%ADD172R,0.0900X0.0750*%
%ADD173O,0.0900X0.0750*%
%ADD174O,0.0591X0.0709*%
%ADD175R,0.0591X0.0709*%
%ADD176C,0.0630*%
%ADD177R,0.0700X0.0700*%
%ADD184R,0.0906X0.0315*%
%ADD185R,0.1181X0.0709*%
D38*
X01626Y0254D02*
D03*
Y0263D02*
D03*
X01351Y02535D02*
D03*
Y02625D02*
D03*
D153*
X01928Y03791D02*
D03*
X04023Y04572D02*
D03*
X04907Y04616D02*
D03*
D154*
X03941Y0214D02*
D03*
X04042D02*
D03*
X0414D02*
D03*
X0409Y04415D02*
D03*
X03989D02*
D03*
X0381Y0258D02*
D03*
X03911D02*
D03*
X04009D02*
D03*
X0411D02*
D03*
D155*
X0605Y027337D02*
D03*
Y025337D02*
D03*
X0585D02*
D03*
Y027337D02*
D03*
X0605Y0432D02*
D03*
Y0412D02*
D03*
X0585D02*
D03*
Y0432D02*
D03*
D156*
X0595Y026337D02*
D03*
Y0422D02*
D03*
D157*
X0308Y043337D02*
D03*
Y042944D02*
D03*
Y04255D02*
D03*
X031194D02*
D03*
Y042944D02*
D03*
Y043337D02*
D03*
D158*
X03002Y03415D02*
D03*
X02902D02*
D03*
D159*
X0281Y04645D02*
D03*
X02445D02*
D03*
D160*
X0281Y04795D02*
D03*
X02445D02*
D03*
D161*
X018588Y043603D02*
D03*
D162*
X021344D02*
D03*
Y046752D02*
D03*
X018588D02*
D03*
D163*
X01675Y04565D02*
D03*
Y04365D02*
D03*
X0154Y0233D02*
D03*
Y0243D02*
D03*
Y0253D02*
D03*
X03442Y0214D02*
D03*
X03542D02*
D03*
X03642D02*
D03*
D164*
X01275Y04495D02*
D03*
X01525D02*
D03*
D165*
X0125Y03375D02*
D03*
Y03475D02*
D03*
Y03575D02*
D03*
X0152Y0285D02*
D03*
X0125D02*
D03*
Y0295D02*
D03*
Y0305D02*
D03*
D166*
Y03675D02*
D03*
X0152Y0295D02*
D03*
X0125Y0315D02*
D03*
D167*
X01351Y043425D02*
D03*
X0135Y02137D02*
D03*
D168*
X01351Y04185D02*
D03*
Y040275D02*
D03*
Y0387D02*
D03*
X0135Y019795D02*
D03*
D169*
X0189Y03215D02*
D03*
Y03115D02*
D03*
X0159D02*
D03*
D170*
Y03215D02*
D03*
D171*
X0154Y0263D02*
D03*
D172*
X0125Y026305D02*
D03*
D173*
Y025255D02*
D03*
Y024255D02*
D03*
D174*
X0278Y02351D02*
D03*
X0268D02*
D03*
X0258D02*
D03*
X0248D02*
D03*
X0238D02*
D03*
X0228D02*
D03*
X0218D02*
D03*
D175*
X0208D02*
D03*
D176*
X03715Y039D02*
D03*
X03815D02*
D03*
X03615D02*
D03*
X03814Y038D02*
D03*
X03715D02*
D03*
X03615D02*
D03*
D177*
X03742Y0214D02*
D03*
D184*
X0486Y037095D02*
D03*
Y037595D02*
D03*
Y038095D02*
D03*
Y038595D02*
D03*
Y039095D02*
D03*
Y039595D02*
D03*
D185*
X0497Y033845D02*
D03*
Y040445D02*
D03*
X0547Y033845D02*
D03*
Y040445D02*
D03*
M02*
