M48
;Layer_Color=9474304
;FILE_FORMAT=2:4
INCH,LZ
;TYPE=PLATED
T1F00S00C0.0157
T2F00S00C0.0197
T3F00S00C0.0236
T4F00S00C0.0276
T5F00S00C0.0300
T6F00S00C0.0310
T7F00S00C0.0315
T8F00S00C0.0320
T9F00S00C0.0340
T10F00S00C0.0350
T11F00S00C0.0360
T12F00S00C0.0394
T13F00S00C0.0450
T14F00S00C0.0472
T15F00S00C0.0512
T16F00S00C0.0591
T17F00S00C0.0630
T18F00S00C0.0669
T19F00S00C0.1181
;TYPE=NON_PLATED
T20F00S00C0.0394
%
T01
X04795Y02528
X04862Y02846
X0486Y02891
X05435Y024924
X04686Y02445
X03715Y02734
X03521Y02749
X03388Y02837
X03423Y02921
X03471Y03084
X03442Y03121
X03274Y03047
X0376Y03085
X03761Y03122
X031194Y04255
X0308
Y042944
X031194
Y043337
X0308
X03254Y03761
X03265Y03701
X03229Y03691
X03394Y03637
X033677Y03484
X03452Y03491
X034858Y034908
X03521Y03488
X035252Y03386
X03538Y03317
X034268Y03339
X03455Y03371
X03369Y03367
X03334
X03232Y0336
X03269Y03245
X03273Y034887
X035955Y036165
X03655Y03623
X0382Y03663
X03527Y037445
X03442Y03164
X03762Y03167
X04555Y03146
X04534Y04012
X04449
X04451Y04167
X04234Y04207
Y04481
X045492Y04409
X04793Y03959
X0487Y035152
X0501Y03445
X050582Y034568
X05094Y03734
X05314Y03518
X05487Y04564
X05604Y0465
X05641Y04821
X05346Y04831
X05939Y04741
T02
X03443Y02414
X03542Y02407
X03713Y02444
X02917Y02445
X02575Y0256
X02444Y02222
X02079Y01932
X01889Y019795
X01834Y02132
X01758Y02242
X01792Y0251
X01793Y02558
X01944Y0301
X02132Y03011
X02128Y0311
X0304Y03038
X029142Y0383
X02768Y03976
X01688Y03459
X03445Y04035
X03575Y04275
X04015Y04112
X03974Y04071
X04138Y04009
X04183Y04005
X04226Y0403
T03
X047244Y019685
X048228
X049213
X050197
X051181
X052165
X05315
X054134
X055118
X056102
X057087
X058071
X059055
X060039
X060532Y020669
X059547
X058563
X057579
X056594
X05561
X054626
X053642
X052657
X051673
X050689
X049705
X04872
X047736
X048228Y021654
X049213
X050197
X051181
X052165
X05315
X054134
X055118
X056102
X057087
X058071
X059055
X060039
X061024
X060532Y022638
X059547
X058563
X057579
X056594
X05561
X054626
X053642
X052657
X051673
X050689
X049705
X04872
X047736
X047244Y021654
X051673Y025591
X052165Y026575
X051181
X051673Y027559
X052165Y028543
X051181
X050197
X050689Y029528
X051673
X052165Y030512
X05315
X054134
X055118
X05561Y029528
X056594
X057579
X058563
X059547
X060532
X061024Y030512
X060039
X059055
X058071
X057087
Y028543
X058071
X059055
X060039
X061024
Y026575
Y024606
Y023622
X060039
X059055
X058071
X057087
X056102
Y024606
X057087
X058071
X059055
X060039
X059547Y027559
X057579
X056102Y028543
X055118
X054134
X054626Y029528
Y025591
X05561
X056594
X051181Y030512
X050197
X049213
X043307
X042815Y029528
X043307Y028543
X042815Y027559
X044783
X044291Y024606
X045276Y023622
X04626
X046752Y022638
X045768
X04626Y021654
X045276
X045768Y020669
X046752
X04626Y019685
X045276
X044291
X043307
X042323
X041339
X040354
X03937
X038386
X037402
X036417
X035433
X034449
X033465
X03248
X031496
Y021654
X03248
X033465
X032972Y022638
X031988
X031496Y023622
X041339
X042323
Y024606
X042815Y025591
Y022638
X041831
X042323Y021654
X043799Y020669
X044783
X046752Y025591
X040846Y027559
X040354Y028543
X03937
X039862Y029528
X040846
X040354Y030512
X03937
X030512Y023622
X029528
X028543
X029035Y022638
X03002
X031004
X030512Y021654
X029528
X028543
X027559
X026575
X025591
X026083Y022638
X027067
X028051
X025098
X023622Y021654
X025591Y019685
X026575
X027559
X028543
X029528
X030512
X024213Y034843
Y035433
Y036024
Y036614
Y037205
Y037795
Y038386
X024803
Y038976
X025394
Y039567
Y040157
Y040748
Y041339
Y041929
Y04252
X024803
Y041929
Y041339
Y040748
Y040157
Y039567
X024213
Y040157
Y040748
Y041339
Y041929
Y04252
X023622
Y041929
Y041339
Y040748
X023031
Y041339
Y041929
Y04252
X022441
Y04311
Y041929
Y041339
Y040748
X02185
Y041339
Y041929
Y04252
X02126
Y041929
Y041339
Y040748
Y040157
X02185
Y039567
Y038976
X022441
X023031
X023622
X024213
X023622Y038386
Y037795
X023031
Y038386
X022441
Y037795
X02185
Y038386
X02126Y039567
X01743Y03495
X017224Y046752
X017717
X016732
X01624
X03937Y042323
X042323Y038386
X043307
X044291
X043799Y037402
X042815
X041831
X042323Y036417
X043307
X044291
X045276
X04626
X046752Y037402
Y035433
Y033465
X04626Y03248
X046752Y031496
X043799
X042815
X044291Y03248
X044783Y033465
X041339Y036417
X045768Y03937
X04872Y041339
X049705
X050689
X051673
X052657
X052165Y042323
X051181
X050197
X049213
X048228
Y036417
X05315
X052657Y037402
X052165Y038386
X052657Y03937
X051673
X054626Y041339
X056594
X057579
X058071Y040354
X059055
X060039
X061024
X060532Y03937
X059547
X058563
X057579
X058071Y038386
X059055
X060039
X061024
X060532Y037402
X059547
X058563
X057579
X058071Y036417
X059055
X060039
X061024
X060532Y035433
X059547
X058563
X057579
X058071Y034449
X059055
X060039
X061024
X060532Y033465
X059547
X058563
X057579
X056594
X057087Y034449
X056102
X057087Y036417
Y038386
Y040354
X059547Y041339
Y043307
X060039Y044291
X061024
X060532Y045276
X059547
X060039Y04626
X061024
Y042323
X059055Y044291
X058071
X057087
X056102
X055118
X054134
X05315
X053642Y043307
X054626
X05561
X056594
X057579
X054134Y04626
Y03248
X055118
X054626Y031496
X053642
X052657
X051673
X050689
X049705
X04872
X049213Y03248
X050197
X051181
X052165
X05315
X057087
X058071
X059055
X060039
X061024
X060532Y031496
X059547
X058563
X057579
X047244Y03248
X046949Y049016
X04813
X04872
X049311
X049902
X049606Y048425
X049016
X048425
X051378
X051083Y049016
X054035
X056398
X056988
X057579
X058169
X05876
X05935
X059941
X059646Y048425
X060236
X059055
X058465
X057874
X057283
X054626Y047244
X060532
X046654Y048425
X042815Y049016
X039862
X039272
X038681
X038091
X0375
X036909
X036319
X035728
X035138
X034547
X033957
X033366
X032776
X032185
X031594
X03248Y048425
X033071
X033661
X034252
X034843
X035433
X036024
X036614
X037205
X037795
X038386
X038976
X039567
X031004Y049016
X030413
X029823
X029232
X028642
X028051
X027461
X02687
X02628
X025689
X025098
X024508
X023917
X023327
X022736
X022146
X021555
X020965
X020374
X019783
X019193
X018602
X018012
X017421
X016831
X01624
X01565
X01624Y047736
X016732
X017224
X017717
X018209
X018701
X017717Y047244
X017224
X016732
X01624
X023031Y048425
X023622
X025394
X025984
X026575
X027165
X028937
X029528
X030118
X015059Y049016
X014468
X013878
X013287
X012992Y048425
X013583
X014173
T04
X01928Y03791
X04023Y04572
X04907Y04616
T05
X02902Y03415
X03002
T06
X0159Y03115
X0189
Y03215
X0159
X01675Y04365
Y04565
T07
X0125Y0285
Y0295
Y0305
X0152Y0295
Y0285
X0125Y0315
Y03375
Y03475
Y03575
Y03675
T08
X02445Y04645
X0281
Y04795
X02445
T09
X0125Y024255
Y025255
Y026305
T10
X01275Y04495
X01525
T11
X03941Y0214
X04042
X0414
X0411Y0258
X04009
X03911
X0381
X03814Y038
X03715
Y039
X03815
X03615
Y038
X03989Y04415
X0409
T12
X0208Y02351
X0218
X0228
X0238
X0248
X0258
X0268
X0278
T13
X018588Y043603
X021344
Y046752
X018588
T14
X0595Y026337
Y0422
T15
X0249Y03019
X05616Y0329
T16
X02489Y02726
X05617Y03583
T17
X0135Y019795
Y02137
X01351Y0387
Y040275
Y04185
Y043425
T18
X0585Y025337
X0605
Y027337
X0585
Y0412
X0605
Y0432
X0585
T19
X06156Y01944
X04534Y02646
X03381
X02365Y01944
X03381Y03777
X04539
X06156Y04911
X01174Y0491
T20
X03442Y0214
X03542
X03642
X03742
X0154Y0233
Y0243
Y0253
Y0263
M30
