G04*
G04 #@! TF.GenerationSoftware,Altium Limited,Altium Designer,18.1.6 (161)*
G04*
G04 Layer_Physical_Order=2*
G04 Layer_Color=16711680*
%FSTAX24Y24*%
%MOIN*%
G70*
G01*
G75*
%ADD12C,0.0157*%
%ADD13C,0.0100*%
%ADD17C,0.0197*%
%ADD23C,0.0200*%
%ADD38R,0.0550X0.0394*%
%ADD142C,0.0118*%
%ADD143C,0.0394*%
%ADD147C,0.0300*%
%ADD148C,0.0276*%
%ADD149C,0.0354*%
%ADD151C,0.0800*%
%ADD153O,0.0787X0.0591*%
%ADD154O,0.0650X0.0750*%
%ADD155C,0.1102*%
%ADD156C,0.0787*%
%ADD157C,0.0315*%
%ADD158C,0.0600*%
%ADD159R,0.1000X0.0700*%
%ADD160O,0.1000X0.0700*%
%ADD161R,0.1000X0.1000*%
%ADD162C,0.1000*%
%ADD163C,0.0700*%
%ADD164C,0.0800*%
%ADD165C,0.0709*%
%ADD166R,0.0709X0.0709*%
%ADD167R,0.1181X0.1181*%
%ADD168C,0.1181*%
%ADD169O,0.0900X0.0600*%
%ADD170R,0.0900X0.0600*%
%ADD171R,0.0700X0.0700*%
%ADD172R,0.0900X0.0750*%
%ADD173O,0.0900X0.0750*%
%ADD174O,0.0591X0.0709*%
%ADD175R,0.0591X0.0709*%
%ADD176C,0.0630*%
%ADD177R,0.0700X0.0700*%
%ADD178C,0.0276*%
%ADD179C,0.1575*%
%ADD180C,0.0394*%
%ADD181C,0.0236*%
%ADD182C,0.0512*%
%ADD183C,0.0591*%
%ADD184R,0.0906X0.0315*%
%ADD185R,0.1181X0.0709*%
G36*
X01939Y04841D02*
X01939Y0462D01*
X01778Y0462D01*
X01755Y04643D01*
X01486D01*
X01486Y04841D01*
X01939Y04841D01*
D02*
G37*
G36*
X02235Y04695D02*
X0289D01*
Y04565D01*
X0197D01*
Y04835D01*
X02235D01*
Y04695D01*
D02*
G37*
G36*
X01459Y04614D02*
X01725D01*
Y04495D01*
X01674Y04444D01*
X01471Y04444D01*
X01445Y0447D01*
X01445Y0458D01*
X01168D01*
Y04786D01*
X01459D01*
Y04614D01*
D02*
G37*
G36*
X0194Y04595D02*
X0194Y0413D01*
X01168Y0413D01*
Y0425D01*
X01535Y0425D01*
X01615Y0433D01*
Y04415D01*
X01685Y04415D01*
X01755Y04485D01*
X01755Y04595D01*
X0194Y04595D01*
D02*
G37*
G36*
X01411Y04459D02*
X01455Y04415D01*
X01585Y04415D01*
X01585Y0434D01*
X0152Y04275D01*
X01168Y04275D01*
X01168Y04542D01*
X01411D01*
Y04459D01*
D02*
G37*
G36*
X060427Y0496D02*
X06048Y049562D01*
X060517Y04951D01*
X060565Y049403D01*
X060558Y049379D01*
X060545Y049326D01*
X060535Y049272D01*
X060528Y049218D01*
X060524Y049164D01*
X060522Y04911D01*
X060524Y049056D01*
X060528Y049002D01*
X060535Y048948D01*
X060545Y048894D01*
X060558Y048841D01*
X060573Y048789D01*
X060591Y048738D01*
X060612Y048688D01*
X060635Y048639D01*
X060661Y048591D01*
X06069Y048545D01*
X06072Y0485D01*
X060754Y048457D01*
X060789Y048416D01*
X060826Y048376D01*
X060866Y048339D01*
X060907Y048304D01*
X06095Y04827D01*
X060995Y04824D01*
X061041Y048211D01*
X061089Y048185D01*
X061138Y048162D01*
X061188Y048141D01*
X061239Y048123D01*
X061291Y048108D01*
X061344Y048095D01*
X061398Y048085D01*
X061452Y048078D01*
X061506Y048074D01*
X06154Y048073D01*
X06154Y020477D01*
X061506Y020476D01*
X061452Y020472D01*
X061398Y020465D01*
X061344Y020455D01*
X061291Y020442D01*
X061239Y020427D01*
X061188Y020409D01*
X061138Y020388D01*
X061089Y020365D01*
X061041Y020339D01*
X060995Y02031D01*
X06095Y02028D01*
X060907Y020246D01*
X060866Y020211D01*
X060826Y020174D01*
X060789Y020134D01*
X060754Y020093D01*
X06072Y02005D01*
X06069Y020005D01*
X060661Y019959D01*
X060635Y019911D01*
X060612Y019862D01*
X060591Y019812D01*
X060573Y019761D01*
X060558Y019709D01*
X060545Y019656D01*
X060535Y019602D01*
X060528Y019548D01*
X060524Y019494D01*
X060522Y01944D01*
X060524Y019386D01*
X060528Y019332D01*
X060535Y019278D01*
X060545Y019224D01*
X060558Y019171D01*
X060573Y019119D01*
X060585Y019087D01*
X060559Y019016D01*
X06051Y018935D01*
X060455Y01889D01*
X024755Y01889D01*
X0247Y018935D01*
X024651Y019016D01*
X024625Y019087D01*
X024637Y019119D01*
X024652Y019171D01*
X024665Y019224D01*
X024675Y019278D01*
X024682Y019332D01*
X024686Y019386D01*
X024688Y01944D01*
X024686Y019494D01*
X024682Y019548D01*
X024675Y019602D01*
X024665Y019656D01*
X024652Y019709D01*
X024637Y019761D01*
X024619Y019812D01*
X024598Y019862D01*
X024575Y019911D01*
X024549Y019959D01*
X02452Y020005D01*
X02449Y02005D01*
X024456Y020093D01*
X024421Y020134D01*
X024384Y020174D01*
X024344Y020211D01*
X024303Y020246D01*
X02426Y02028D01*
X024215Y02031D01*
X024169Y020339D01*
X024121Y020365D01*
X024072Y020388D01*
X024022Y020409D01*
X023971Y020427D01*
X023919Y020442D01*
X023866Y020455D01*
X023812Y020465D01*
X023758Y020472D01*
X023704Y020476D01*
X02365Y020478D01*
X023596Y020476D01*
X023542Y020472D01*
X023488Y020465D01*
X023434Y020455D01*
X023381Y020442D01*
X023329Y020427D01*
X023278Y020409D01*
X023228Y020388D01*
X023179Y020365D01*
X023131Y020339D01*
X023085Y02031D01*
X02304Y02028D01*
X022997Y020246D01*
X022956Y020211D01*
X022916Y020174D01*
X022879Y020134D01*
X022844Y020093D01*
X02281Y02005D01*
X02278Y020005D01*
X022751Y019959D01*
X022725Y019911D01*
X022702Y019862D01*
X022681Y019812D01*
X022663Y019761D01*
X022648Y019709D01*
X022635Y019656D01*
X022625Y019602D01*
X022618Y019548D01*
X022614Y019494D01*
X022612Y01944D01*
X022614Y019386D01*
X022618Y019332D01*
X022625Y019278D01*
X022635Y019224D01*
X022648Y019171D01*
X022663Y019119D01*
X022675Y019087D01*
X022649Y019016D01*
X0226Y018935D01*
X022545Y01889D01*
X021186D01*
X021134Y018957D01*
X021118Y018997D01*
X0211Y019087D01*
X021108Y019097D01*
X021126Y019126D01*
X021142Y019156D01*
X021155Y019187D01*
X021165Y01922D01*
X021172Y019253D01*
X021177Y019286D01*
X021178Y01932D01*
X021177Y019354D01*
X021172Y019387D01*
X021165Y01942D01*
X021155Y019453D01*
X021142Y019484D01*
X021126Y019514D01*
X021108Y019543D01*
X021087Y01957D01*
X021064Y019594D01*
X02104Y019617D01*
X021013Y019638D01*
X020984Y019656D01*
X020954Y019672D01*
X020923Y019685D01*
X02089Y019695D01*
X020857Y019702D01*
X020824Y019707D01*
X02079Y019708D01*
X020756Y019707D01*
X020723Y019702D01*
X02069Y019695D01*
X020657Y019685D01*
X020626Y019672D01*
X02062Y019669D01*
X01942D01*
X019381Y019683D01*
X019365Y019692D01*
X019239Y019795D01*
X019237Y019826D01*
X019233Y019856D01*
X019227Y019885D01*
X019218Y019914D01*
X019206Y019943D01*
X019192Y01997D01*
X019176Y019995D01*
X019157Y020019D01*
X019137Y020042D01*
X019114Y020062D01*
X01909Y020081D01*
X019064Y020097D01*
X019037Y020111D01*
X019009Y020123D01*
X01898Y020132D01*
X018951Y020139D01*
X01892Y020143D01*
X01889Y020144D01*
X018809D01*
X018689Y020264D01*
Y02132D01*
X018687Y02135D01*
X018683Y021381D01*
X018677Y02141D01*
X018668Y021439D01*
X018656Y021467D01*
X018642Y021494D01*
X018626Y02152D01*
X018607Y021544D01*
X018587Y021567D01*
X018564Y021587D01*
X01854Y021606D01*
X018514Y021622D01*
X018487Y021636D01*
X018459Y021648D01*
X01843Y021657D01*
X018401Y021663D01*
X018389Y021665D01*
Y02222D01*
X018387Y02225D01*
X018383Y022281D01*
X018377Y02231D01*
X018368Y022339D01*
X018356Y022367D01*
X018342Y022394D01*
X018326Y02242D01*
X018307Y022444D01*
X018287Y022467D01*
X018087Y022667D01*
X018064Y022687D01*
X01804Y022706D01*
X018014Y022722D01*
X017987Y022736D01*
X017959Y022748D01*
X01793Y022757D01*
X017901Y022763D01*
X01787Y022767D01*
X01784Y022769D01*
X01775D01*
X017744Y022772D01*
X017713Y022785D01*
X01768Y022795D01*
X017647Y022802D01*
X017614Y022807D01*
X01758Y022808D01*
X017546Y022807D01*
X017513Y022802D01*
X01748Y022795D01*
X017447Y022785D01*
X017416Y022772D01*
X017386Y022756D01*
X017357Y022738D01*
X01733Y022717D01*
X017306Y022694D01*
X017283Y02267D01*
X017262Y022643D01*
X017244Y022614D01*
X017228Y022584D01*
X017215Y022553D01*
X017205Y02252D01*
X017198Y022487D01*
X017193Y022454D01*
X017192Y02242D01*
X017193Y022386D01*
X017198Y022353D01*
X017205Y02232D01*
X017215Y022287D01*
X017228Y022256D01*
X017244Y022226D01*
X017262Y022197D01*
X017283Y02217D01*
X017306Y022146D01*
X01733Y022123D01*
X017357Y022102D01*
X017386Y022084D01*
X017416Y022068D01*
X017447Y022055D01*
X01748Y022045D01*
X017513Y022038D01*
X017546Y022033D01*
X01758Y022032D01*
X017673Y021895D01*
X017688Y021861D01*
X017691Y021846D01*
Y019785D01*
X017693Y019755D01*
X017697Y019725D01*
X017703Y019695D01*
X017712Y019666D01*
X017724Y019638D01*
X017738Y019611D01*
X017754Y019585D01*
X017773Y019561D01*
X017793Y019539D01*
X018245Y019087D01*
X018238Y019012D01*
X018223Y018968D01*
X01817Y01889D01*
X014072D01*
X014051Y01892D01*
X013978Y019103D01*
X014019Y019133D01*
X014058Y019166D01*
X014095Y019201D01*
X014129Y019238D01*
X014162Y019277D01*
X014192Y019317D01*
X01422Y01936D01*
X014245Y019404D01*
X014267Y01945D01*
X014286Y019497D01*
X014303Y019545D01*
X014317Y019594D01*
X014327Y019644D01*
X014335Y019694D01*
X014339Y019744D01*
X014341Y019795D01*
X014339Y019846D01*
X014335Y019897D01*
X014327Y019947D01*
X014317Y019996D01*
X014303Y020045D01*
X014286Y020093D01*
X014267Y02014D01*
X014245Y020186D01*
X01422Y02023D01*
X014192Y020273D01*
X014162Y020314D01*
X014146Y020333D01*
X014161Y02041D01*
X014223Y020521D01*
X014231Y020529D01*
X014341D01*
Y022075D01*
X014365Y022116D01*
X014384Y022136D01*
X014529Y022217D01*
X01456Y022213D01*
X01459Y022211D01*
X01606D01*
X01609Y022213D01*
X016121Y022217D01*
X01615Y022223D01*
X016179Y022232D01*
X016207Y022244D01*
X016234Y022258D01*
X01626Y022274D01*
X016284Y022293D01*
X016307Y022313D01*
X016807Y022813D01*
X016827Y022836D01*
X016846Y02286D01*
X016862Y022886D01*
X016876Y022913D01*
X016888Y022941D01*
X016897Y02297D01*
X016903Y022999D01*
X016907Y02303D01*
X016909Y02306D01*
Y024186D01*
X017004Y024281D01*
X01745D01*
X01748Y024283D01*
X017511Y024287D01*
X01754Y024293D01*
X017569Y024302D01*
X017597Y024314D01*
X017624Y024328D01*
X01765Y024344D01*
X017674Y024363D01*
X017697Y024383D01*
X018046Y024733D01*
X018053Y024735D01*
X018084Y024748D01*
X018114Y024764D01*
X018119Y024767D01*
X018233Y024736D01*
X018258Y024723D01*
X018316Y02467D01*
Y022945D01*
X018317Y022915D01*
X018321Y022885D01*
X018328Y022855D01*
X018337Y022826D01*
X018349Y022798D01*
X018363Y022771D01*
X018379Y022745D01*
X018398Y022721D01*
X018418Y022699D01*
X019143Y021973D01*
X019166Y021953D01*
X01919Y021934D01*
X019216Y021918D01*
X019243Y021904D01*
X019271Y021892D01*
X0193Y021883D01*
X019329Y021877D01*
X01936Y021873D01*
X01939Y021871D01*
X024322D01*
X024345Y021864D01*
X024376Y021857D01*
X024408Y021853D01*
X02444Y021852D01*
X024472Y021853D01*
X024504Y021857D01*
X024535Y021864D01*
X024566Y021874D01*
X024596Y021886D01*
X024624Y021901D01*
X024651Y021918D01*
X024677Y021938D01*
X024701Y021959D01*
X024722Y021983D01*
X024742Y022009D01*
X024759Y022036D01*
X024774Y022064D01*
X024786Y022094D01*
X024796Y022125D01*
X024803Y022156D01*
X024807Y022188D01*
X024808Y02222D01*
X024807Y022252D01*
X024803Y022284D01*
X024796Y022315D01*
X024786Y022346D01*
X024774Y022376D01*
X024759Y022404D01*
X024742Y022431D01*
X024722Y022457D01*
X024701Y022481D01*
X024677Y022502D01*
X024651Y022522D01*
X024624Y022539D01*
X024596Y022554D01*
X024566Y022566D01*
X024535Y022576D01*
X024504Y022583D01*
X024472Y022587D01*
X02444Y022588D01*
X024408Y022587D01*
X024376Y022583D01*
X024345Y022576D01*
X024322Y022569D01*
X019534D01*
X019014Y02309D01*
Y025955D01*
X019012Y025986D01*
X019008Y026016D01*
X019002Y026045D01*
X018993Y026074D01*
X018981Y026103D01*
X018967Y02613D01*
X01895Y026155D01*
X018932Y026179D01*
X018911Y026202D01*
X018567Y026547D01*
X018544Y026567D01*
X01852Y026586D01*
X018494Y026602D01*
X018467Y026616D01*
X018439Y026628D01*
X01841Y026637D01*
X018381Y026643D01*
X01835Y026647D01*
X01832Y026649D01*
X017476D01*
X017424Y026693D01*
X017412Y026709D01*
X017355Y026836D01*
X017367Y026868D01*
X017376Y0269D01*
X017382Y026933D01*
X017386Y026966D01*
X017387Y027D01*
X017387Y027D01*
Y03094D01*
X017569Y031015D01*
X017682Y030902D01*
X017705Y030882D01*
X017729Y030863D01*
X017755Y030847D01*
X017771Y030838D01*
X017782Y030832D01*
X01781Y030821D01*
X017839Y030812D01*
X017869Y030805D01*
X017899Y030801D01*
X01793Y0308D01*
X018263D01*
X018263Y0308D01*
X018307Y030799D01*
X018331Y030797D01*
X018333Y030795D01*
X018335Y030792D01*
X018337Y03079D01*
X018344Y030782D01*
X018351Y030774D01*
X018354Y030772D01*
X018356Y030769D01*
X018364Y030762D01*
X018372Y030755D01*
X018375Y030753D01*
X018377Y030751D01*
X018386Y030745D01*
X018395Y030739D01*
X018398Y030737D01*
X018401Y030735D01*
X01841Y03073D01*
X01842Y030725D01*
X018423Y030724D01*
X018426Y030723D01*
X018436Y030719D01*
X018446Y030714D01*
X018449Y030714D01*
X018452Y030712D01*
X018462Y03071D01*
X018473Y030707D01*
X018476Y030706D01*
X018479Y030705D01*
X01849Y030704D01*
X0185Y030702D01*
X018504Y030702D01*
X018507Y030701D01*
X018518Y030701D01*
X018529Y0307D01*
X018532Y030701D01*
X018535Y0307D01*
X018546Y030701D01*
X018557Y030702D01*
X01856Y030702D01*
X018563Y030703D01*
X018573Y030705D01*
X018584Y030707D01*
X018587Y030708D01*
X01859Y030708D01*
X018601Y030711D01*
X018611Y030714D01*
X018614Y030716D01*
X018617Y030717D01*
X018627Y030721D01*
X018637Y030725D01*
X01864Y030727D01*
X018643Y030728D01*
X018652Y030733D01*
X018662Y030739D01*
X018664Y030741D01*
X018667Y030742D01*
X018676Y030749D01*
X018685Y030755D01*
X018687Y030757D01*
X018689Y030759D01*
X018697Y030766D01*
X018706Y030774D01*
X018708Y030776D01*
X01871Y030778D01*
X018717Y030786D01*
X018724Y030795D01*
X018726Y030797D01*
X018728Y0308D01*
X018728Y0308D01*
X0189D01*
X018931Y030801D01*
X018961Y030805D01*
X018991Y030812D01*
X01902Y030821D01*
X019048Y030832D01*
X019075Y030847D01*
X019101Y030863D01*
X019125Y030882D01*
X019148Y030902D01*
X019168Y030925D01*
X019187Y030949D01*
X019203Y030975D01*
X019218Y031002D01*
X019229Y03103D01*
X019238Y031059D01*
X019245Y031089D01*
X019249Y031119D01*
X01925Y03115D01*
X019249Y031181D01*
X019245Y031211D01*
X019238Y031241D01*
X019229Y03127D01*
X019218Y031298D01*
X019203Y031325D01*
X019187Y031351D01*
X019168Y031375D01*
X019148Y031398D01*
X019136Y031408D01*
X019133Y031481D01*
X019142Y031527D01*
X019185Y031617D01*
X019205Y031622D01*
X019242Y031634D01*
X019279Y031649D01*
X019314Y031667D01*
X019348Y031687D01*
X01938Y031709D01*
X01941Y031734D01*
X019439Y031761D01*
X019466Y03179D01*
X019491Y03182D01*
X019513Y031852D01*
X019533Y031886D01*
X019551Y031921D01*
X019566Y031958D01*
X019578Y031995D01*
X019588Y032033D01*
X019595Y032072D01*
X019599Y032111D01*
X0196Y03215D01*
X019599Y032189D01*
X019595Y032228D01*
X019588Y032267D01*
X019578Y032305D01*
X019566Y032342D01*
X019551Y032379D01*
X019533Y032414D01*
X019513Y032448D01*
X019491Y03248D01*
X019466Y03251D01*
X019439Y032539D01*
X01941Y032566D01*
X01938Y032591D01*
X019348Y032613D01*
X019314Y032633D01*
X019279Y032651D01*
X019242Y032666D01*
X019205Y032678D01*
X019167Y032688D01*
X019128Y032695D01*
X019089Y032699D01*
X01905Y0327D01*
X01875D01*
X018711Y032699D01*
X018672Y032695D01*
X018633Y032688D01*
X018595Y032678D01*
X018558Y032666D01*
X018521Y032651D01*
X018486Y032633D01*
X018452Y032613D01*
X01842Y032591D01*
X01839Y032566D01*
X018361Y032539D01*
X018334Y03251D01*
X018309Y03248D01*
X018287Y032448D01*
X018267Y032414D01*
X018249Y032379D01*
X018234Y032342D01*
X018222Y032305D01*
X018212Y032267D01*
X018205Y032228D01*
X018201Y032189D01*
X0182Y03215D01*
X018201Y032111D01*
X018205Y032072D01*
X018212Y032033D01*
X018222Y031995D01*
X018234Y031958D01*
X018249Y031921D01*
X018267Y031886D01*
X018287Y031852D01*
X018309Y03182D01*
X018334Y03179D01*
X018361Y031761D01*
X018378Y031713D01*
X01838Y031705D01*
X01838Y031703D01*
X018379Y031648D01*
X018367Y031563D01*
X018357Y031535D01*
X018348Y031523D01*
X018344Y031518D01*
X018337Y03151D01*
X018335Y031508D01*
X018333Y031505D01*
X018332Y031504D01*
X018303Y031501D01*
X018263Y0315D01*
X018263Y0315D01*
X018075D01*
X01792Y031655D01*
Y03435D01*
X017919Y034381D01*
X017915Y034411D01*
X017908Y034441D01*
X017899Y03447D01*
X017888Y034498D01*
X017882Y034509D01*
X017873Y034525D01*
X017857Y034551D01*
X017838Y034575D01*
X017818Y034598D01*
X01778Y034635D01*
Y03495D01*
X017779Y034981D01*
X017775Y035011D01*
X017768Y035041D01*
X017759Y03507D01*
X017748Y035098D01*
X017733Y035125D01*
X017717Y035151D01*
X017698Y035175D01*
X017678Y035198D01*
X017655Y035218D01*
X017631Y035237D01*
X017605Y035253D01*
X017578Y035268D01*
X01755Y035279D01*
X017521Y035288D01*
X017491Y035295D01*
X017461Y035299D01*
X01743Y0353D01*
X017399Y035299D01*
X017369Y035295D01*
X017339Y035288D01*
X01731Y035279D01*
X017282Y035268D01*
X017255Y035253D01*
X017229Y035237D01*
X017205Y035218D01*
X017182Y035198D01*
X017162Y035175D01*
X017143Y035151D01*
X017127Y035125D01*
X017112Y035098D01*
X01709Y035061D01*
X01705Y035028D01*
X016999Y035012D01*
X016947Y035012D01*
X016914Y035016D01*
X01688Y035017D01*
X01672D01*
X01672Y035017D01*
X016686Y035016D01*
X016653Y035012D01*
X01662Y035006D01*
X016588Y034997D01*
X016556Y034985D01*
X016526Y034971D01*
X016497Y034955D01*
X016469Y034936D01*
X016442Y034915D01*
X016418Y034892D01*
X016395Y034868D01*
X016374Y034841D01*
X016356Y034813D01*
X016339Y034784D01*
X016325Y034754D01*
X016313Y034722D01*
X016304Y03469D01*
X016298Y034657D01*
X016294Y034624D01*
X016293Y03459D01*
X016294Y034556D01*
X016298Y034523D01*
X016304Y03449D01*
X016313Y034458D01*
X016325Y034426D01*
X016339Y034396D01*
X016356Y034367D01*
X016374Y034339D01*
X016395Y034312D01*
X016418Y034288D01*
X016533Y034173D01*
Y0327D01*
X0152D01*
Y0316D01*
X0152D01*
X015255Y031426D01*
X015262Y031403D01*
X015249Y031379D01*
X015234Y031342D01*
X015222Y031305D01*
X015212Y031267D01*
X015205Y031228D01*
X015201Y031189D01*
X0152Y03115D01*
X015201Y031111D01*
X015205Y031072D01*
X015212Y031033D01*
X015222Y030995D01*
X015234Y030958D01*
X015249Y030921D01*
X015267Y030886D01*
X015287Y030852D01*
X015309Y03082D01*
X015334Y03079D01*
X015361Y030761D01*
X01539Y030734D01*
X01542Y030709D01*
X015452Y030687D01*
X015486Y030667D01*
X015521Y030649D01*
X015558Y030634D01*
X015595Y030622D01*
X015633Y030612D01*
X015672Y030605D01*
X015711Y030601D01*
X01575Y0306D01*
X01605D01*
X016089Y030601D01*
X016128Y030605D01*
X016167Y030612D01*
X016205Y030622D01*
X016242Y030634D01*
X016279Y030649D01*
X016314Y030667D01*
X016336Y03068D01*
X016409Y030661D01*
X016462Y03064D01*
X016533Y03058D01*
Y027177D01*
X016283Y026927D01*
X016283Y026927D01*
X016237Y026884D01*
X016198Y02685D01*
X016197Y026849D01*
X016Y0269D01*
X016Y0269D01*
X0148D01*
Y026684D01*
X014793Y026683D01*
X01475Y026679D01*
X014691Y026677D01*
X014141D01*
X01414Y026678D01*
X014035Y026679D01*
Y026697D01*
X013625D01*
X013619Y0267D01*
X013587Y026712D01*
X013555Y026721D01*
X013522Y026727D01*
X013489Y026731D01*
X013455Y026732D01*
X013455Y026732D01*
X013309D01*
X01325Y026734D01*
X013207Y026738D01*
X0132Y026739D01*
Y02693D01*
X011867D01*
X01167Y027073D01*
Y029338D01*
X011862Y029373D01*
X011872Y029332D01*
X011884Y029291D01*
X011899Y029251D01*
X011917Y029212D01*
X011937Y029175D01*
X011959Y029139D01*
X011984Y029104D01*
X012011Y029071D01*
X01204Y02904D01*
X012071Y029011D01*
X012104Y028984D01*
X012139Y028959D01*
X012175Y028937D01*
X012212Y028917D01*
X012251Y028899D01*
X012291Y028884D01*
X012332Y028872D01*
X012373Y028862D01*
X012415Y028855D01*
X012457Y028851D01*
X0125Y02885D01*
X01315D01*
X013193Y028851D01*
X013235Y028855D01*
X013277Y028862D01*
X013318Y028872D01*
X013359Y028884D01*
X013399Y028899D01*
X013438Y028917D01*
X013475Y028937D01*
X013511Y028959D01*
X013546Y028984D01*
X013579Y029011D01*
X01361Y02904D01*
X01408Y02951D01*
X014109Y029541D01*
X014136Y029574D01*
X014161Y029609D01*
X014183Y029645D01*
X014203Y029682D01*
X014221Y029721D01*
X014236Y029761D01*
X014248Y029802D01*
X014258Y029843D01*
X014265Y029885D01*
X014269Y029927D01*
X01427Y02997D01*
Y03049D01*
Y03418D01*
X014269Y034223D01*
X014265Y034265D01*
X014258Y034307D01*
X014248Y034348D01*
X014236Y034389D01*
X014221Y034429D01*
X014203Y034468D01*
X014183Y034505D01*
X014161Y034541D01*
X014136Y034576D01*
X014109Y034609D01*
X01408Y03464D01*
X01351Y03521D01*
X013479Y035239D01*
X013446Y035266D01*
X013411Y035291D01*
X013375Y035313D01*
X013338Y035333D01*
X013299Y035351D01*
X013259Y035366D01*
X013218Y035378D01*
X013177Y035388D01*
X013135Y035395D01*
X013093Y035399D01*
X01305Y0354D01*
X0125D01*
X012457Y035399D01*
X012415Y035395D01*
X012373Y035388D01*
X012332Y035378D01*
X012291Y035366D01*
X012251Y035351D01*
X012212Y035333D01*
X012175Y035313D01*
X012139Y035291D01*
X012104Y035266D01*
X012071Y035239D01*
X01204Y03521D01*
X012011Y035179D01*
X011984Y035146D01*
X011959Y035111D01*
X011937Y035075D01*
X011917Y035038D01*
X011899Y034999D01*
X011884Y034959D01*
X011872Y034918D01*
X011862Y034877D01*
X01167Y034912D01*
Y040857D01*
X011867Y04105D01*
X013253D01*
X01326Y041047D01*
X013309Y041034D01*
X013358Y041023D01*
X013409Y041015D01*
X013459Y041011D01*
X01351Y041009D01*
X013561Y041011D01*
X013611Y041015D01*
X013662Y041023D01*
X013711Y041034D01*
X01376Y041047D01*
X013767Y04105D01*
X0194Y04105D01*
X019428Y041051D01*
X019456Y041056D01*
X019483Y041064D01*
X019509Y041074D01*
X019533Y041088D01*
X019556Y041104D01*
X019577Y041123D01*
X019596Y041144D01*
X019612Y041167D01*
X019626Y041191D01*
X019636Y041217D01*
X019644Y041244D01*
X019649Y041272D01*
X01965Y0413D01*
X01965Y04521D01*
X019655Y045227D01*
X019847Y0454D01*
X0289D01*
X028928Y045401D01*
X028956Y045406D01*
X028983Y045414D01*
X029009Y045424D01*
X029033Y045438D01*
X029056Y045454D01*
X029077Y045473D01*
X029096Y045494D01*
X029112Y045517D01*
X029126Y045541D01*
X029136Y045567D01*
X029144Y045594D01*
X029149Y045622D01*
X02915Y04565D01*
Y04695D01*
X029149Y046978D01*
X029144Y047006D01*
X029136Y047033D01*
X029126Y047059D01*
X029112Y047083D01*
X029096Y047106D01*
X029077Y047127D01*
X029056Y047146D01*
X029033Y047162D01*
X029009Y047176D01*
X028983Y047186D01*
X028956Y047194D01*
X028928Y047199D01*
X0289Y0472D01*
X0226D01*
Y04835D01*
X022599Y048378D01*
X022594Y048406D01*
X022586Y048433D01*
X022576Y048459D01*
X022562Y048483D01*
X022546Y048506D01*
X022527Y048527D01*
X022506Y048546D01*
X022483Y048562D01*
X022459Y048576D01*
X022433Y048586D01*
X022406Y048594D01*
X022378Y048599D01*
X02235Y0486D01*
X0197D01*
X019672Y048599D01*
X019644Y048594D01*
X019617Y048586D01*
X019591Y048576D01*
X019582Y04857D01*
X019567Y048587D01*
X019546Y048606D01*
X019523Y048622D01*
X019499Y048636D01*
X019473Y048646D01*
X019446Y048654D01*
X019418Y048659D01*
X01939Y04866D01*
X01486Y04866D01*
X014832Y048659D01*
X014804Y048654D01*
X014777Y048646D01*
X014751Y048636D01*
X014727Y048622D01*
X014704Y048606D01*
X014683Y048587D01*
X014664Y048566D01*
X014648Y048543D01*
X014634Y048519D01*
X014624Y048493D01*
X014616Y048466D01*
X014611Y048438D01*
X01461Y04841D01*
Y048299D01*
X014413Y04811D01*
X012478D01*
X012412Y048254D01*
X012409Y048307D01*
X012434Y048329D01*
X012474Y048366D01*
X012511Y048406D01*
X012546Y048447D01*
X01258Y04849D01*
X01261Y048535D01*
X012639Y048581D01*
X012665Y048629D01*
X012688Y048678D01*
X012709Y048728D01*
X012727Y048779D01*
X012742Y048831D01*
X012755Y048884D01*
X012765Y048938D01*
X012772Y048992D01*
X012776Y049046D01*
X012778Y0491D01*
X012776Y049154D01*
X012772Y049208D01*
X012765Y049262D01*
X012755Y049316D01*
X012742Y049369D01*
X012732Y049403D01*
X012737Y049437D01*
X012809Y049553D01*
X012867Y0496D01*
X060427Y0496D01*
D02*
G37*
G36*
X018529Y030951D02*
X018526Y03097D01*
X018518Y030986D01*
X018505Y031001D01*
X018487Y031014D01*
X018463Y031025D01*
X018435Y031034D01*
X018401Y031041D01*
X018362Y031046D01*
X018318Y031049D01*
X018268Y03105D01*
Y03125D01*
X018318Y031251D01*
X018401Y031259D01*
X018435Y031266D01*
X018463Y031275D01*
X018487Y031286D01*
X018505Y031299D01*
X018518Y031314D01*
X018526Y03133D01*
X018529Y031349D01*
Y030951D01*
D02*
G37*
G36*
X016784Y026574D02*
X016737Y026524D01*
X016657Y026426D01*
X016642Y026405D01*
X01666Y026402D01*
X016689Y0264D01*
X016762Y026398D01*
Y026202D01*
X016725Y026201D01*
X016693Y026201D01*
X01666Y026198D01*
X01663Y026193D01*
X016605Y026186D01*
X016583Y026177D01*
X016565Y026167D01*
X016552Y026154D01*
X016542Y026139D01*
X016536Y026123D01*
X016534Y026104D01*
X016421Y026185D01*
X016409Y026184D01*
X016394Y02618D01*
X016385Y026175D01*
Y026211D01*
X016103Y026412D01*
Y026123D01*
X016036Y026121D01*
X015986Y026117D01*
Y026104D01*
X015983Y026108D01*
X015972Y026111D01*
X015958Y026113D01*
X015922Y026107D01*
X015876Y026095D01*
X015837Y02608D01*
X015805Y026061D01*
X015781Y026039D01*
X015763Y026013D01*
X015752Y025984D01*
X015749Y025951D01*
Y026122D01*
X015632Y026123D01*
Y026477D01*
X015749Y026483D01*
Y026649D01*
X015752Y026616D01*
X015763Y026587D01*
X015781Y026561D01*
X015805Y026539D01*
X015837Y02652D01*
X015876Y026505D01*
X015922Y026493D01*
X015924Y026492D01*
X015986Y026496D01*
Y026483D01*
X016006Y026481D01*
X015986Y026496D01*
X01603Y026498D01*
X016075Y026506D01*
X01612Y026518D01*
X016166Y026536D01*
X016213Y026558D01*
X01626Y026586D01*
X016308Y026618D01*
X016357Y026656D01*
X016406Y026699D01*
X016456Y026746D01*
X016784Y026574D01*
D02*
G37*
G36*
X012951Y026626D02*
X012962Y026596D01*
X01298Y026569D01*
X013004Y026546D01*
X013036Y026526D01*
X013076Y026511D01*
X013122Y026498D01*
X013175Y026489D01*
X013236Y026484D01*
X013303Y026482D01*
Y026128D01*
X013236Y026126D01*
Y026054D01*
X013233Y026068D01*
X013222Y026081D01*
X013204Y026092D01*
X01318Y026101D01*
X013148Y026109D01*
X013128Y026113D01*
X013122Y026112D01*
X013076Y026099D01*
X013036Y026084D01*
X013004Y026064D01*
X01298Y026041D01*
X012962Y026014D01*
X012951Y025984D01*
X012948Y025951D01*
Y026127D01*
X012882Y026128D01*
Y026482D01*
X012948Y026475D01*
Y026659D01*
X012951Y026626D01*
D02*
G37*
G36*
X013787Y026442D02*
X013798Y026439D01*
X013816Y026436D01*
X01384Y026434D01*
X013957Y026429D01*
X014138Y026427D01*
Y026073D01*
X013784Y026054D01*
Y026446D01*
X013787Y026442D01*
D02*
G37*
G36*
X015051Y025951D02*
X015048Y025974D01*
X015037Y025995D01*
X015019Y026013D01*
X014995Y026029D01*
X014963Y026042D01*
X014924Y026053D01*
X014878Y026062D01*
X014824Y026068D01*
X014764Y026072D01*
X014697Y026073D01*
Y026427D01*
X014764Y026429D01*
X014825Y026434D01*
X014878Y026443D01*
X014924Y026456D01*
X014963Y026471D01*
X014995Y026491D01*
X01502Y026514D01*
X015038Y026541D01*
X015049Y026571D01*
X015052Y026604D01*
X015051Y025951D01*
D02*
G37*
G36*
X015986Y025204D02*
X015983Y025189D01*
X015972Y025175D01*
X015954Y025163D01*
X01593Y025152D01*
X015912Y025147D01*
Y025123D01*
X015874Y025122D01*
X015806Y025117D01*
X015776Y025112D01*
X015749Y025106D01*
X015724Y025098D01*
X015701Y02509D01*
X015682Y025079D01*
X015665Y025068D01*
X01565Y025055D01*
Y025123D01*
X015632Y025123D01*
Y025477D01*
X01565Y025477D01*
Y025545D01*
X015665Y025532D01*
X015682Y025521D01*
X015701Y02551D01*
X015724Y025502D01*
X015749Y025494D01*
X015776Y025488D01*
X01579Y025486D01*
X015813Y025488D01*
X015859Y025496D01*
X015898Y025507D01*
X01593Y02552D01*
X015954Y025535D01*
X015972Y025553D01*
X015983Y025573D01*
X015986Y025596D01*
Y025204D01*
D02*
G37*
G36*
X012816Y025527D02*
X012829Y025511D01*
X012847Y025496D01*
X012868Y025484D01*
X012895Y025473D01*
X012925Y025464D01*
X01296Y025457D01*
X013Y025452D01*
X013044Y025449D01*
X013062Y025449D01*
X013077Y025449D01*
X01311Y025452D01*
X01314Y025457D01*
X013165Y025464D01*
X013187Y025473D01*
X013205Y025483D01*
X013218Y025496D01*
X013228Y025511D01*
X013234Y025527D01*
X013236Y025546D01*
Y025154D01*
X013234Y025173D01*
X013228Y025189D01*
X013218Y025204D01*
X013205Y025217D01*
X013187Y025227D01*
X013165Y025236D01*
X01314Y025243D01*
X01311Y025248D01*
X01309Y025249D01*
X013025Y025243D01*
X012995Y025236D01*
X012971Y025227D01*
X012953Y025216D01*
X01294Y025203D01*
X012932Y025189D01*
X01293Y025172D01*
X012934Y025153D01*
X012808Y025546D01*
X012816Y025527D01*
D02*
G37*
G36*
X013688Y025154D02*
X013671Y025148D01*
X013657Y025138D01*
X013644Y025124D01*
X013633Y025106D01*
X013624Y025084D01*
X013617Y025058D01*
X013612Y025029D01*
X013609Y024995D01*
X013608Y024957D01*
X013412D01*
X013411Y024995D01*
X013408Y025029D01*
X013403Y025058D01*
X013396Y025084D01*
X013387Y025106D01*
X013376Y025124D01*
X013363Y025138D01*
X013349Y025148D01*
X013332Y025154D01*
X013313Y025156D01*
X013707D01*
X013688Y025154D01*
D02*
G37*
G36*
X0148Y0257D02*
X014837Y02551D01*
X014824Y025469D01*
X014813Y025428D01*
X014806Y025385D01*
X014801Y025343D01*
X0148Y0253D01*
X014801Y025257D01*
X014806Y025215D01*
X014813Y025172D01*
X014824Y025131D01*
X014837Y02509D01*
X014854Y025051D01*
X014873Y025012D01*
X014895Y024975D01*
X014919Y02494D01*
X014923Y024935D01*
X014948Y024903D01*
X014975Y024833D01*
Y024767D01*
X014948Y024697D01*
X014923Y024665D01*
X014919Y02466D01*
X014895Y024625D01*
X014873Y024588D01*
X014854Y024549D01*
X014837Y02451D01*
X014824Y024469D01*
X014813Y024428D01*
X014806Y024385D01*
X014801Y024343D01*
X0148Y0243D01*
X014801Y024257D01*
X014806Y024215D01*
X014813Y024172D01*
X014824Y024131D01*
X014837Y02409D01*
X014854Y024051D01*
X014873Y024012D01*
X014895Y023975D01*
X014919Y02394D01*
X014946Y023907D01*
X014975Y023875D01*
X015007Y023846D01*
X01504Y023819D01*
X015075Y023795D01*
X015112Y023773D01*
X015151Y023754D01*
X01519Y023737D01*
X015231Y023724D01*
X015272Y023713D01*
X015315Y023706D01*
X015357Y023701D01*
X0154Y0237D01*
X015443Y023701D01*
X015485Y023706D01*
X015528Y023713D01*
X015569Y023724D01*
X01561Y023737D01*
X015649Y023754D01*
X015688Y023773D01*
X015725Y023795D01*
X01576Y023819D01*
X015793Y023846D01*
X015825Y023875D01*
X015854Y023907D01*
X015881Y02394D01*
X015905Y023975D01*
X015927Y024012D01*
X015946Y024051D01*
X015963Y02409D01*
X015976Y024131D01*
X015987Y024172D01*
X015994Y024215D01*
X015999Y024257D01*
X016Y0243D01*
X015999Y024343D01*
X015994Y024385D01*
X015987Y024428D01*
X015976Y024469D01*
X015963Y02451D01*
X015946Y024549D01*
X015927Y024588D01*
X015905Y024625D01*
X015881Y02466D01*
X015877Y024665D01*
X01587Y024674D01*
X015877Y02476D01*
X015884Y024781D01*
X015905Y024816D01*
X015954Y024873D01*
X01616D01*
X01616Y024873D01*
X016194Y024874D01*
X016227Y024878D01*
X01626Y024884D01*
X016292Y024893D01*
X016324Y024905D01*
X016346Y024888D01*
X016375Y024638D01*
X016313Y024577D01*
X016293Y024554D01*
X016274Y02453D01*
X016258Y024504D01*
X016244Y024477D01*
X016232Y024449D01*
X016223Y02442D01*
X016217Y024391D01*
X016213Y02436D01*
X016211Y02433D01*
Y023204D01*
X015916Y022909D01*
X014734D01*
X013859Y023784D01*
Y024903D01*
X014035D01*
Y025797D01*
X014221Y025822D01*
X014654D01*
X0148Y0257D01*
D02*
G37*
G36*
X011883Y024942D02*
X011905Y024908D01*
X011929Y024874D01*
X011955Y024843D01*
X011983Y024813D01*
X012013Y024785D01*
X012044Y024759D01*
X012078Y024735D01*
X012112Y024713D01*
X012148Y024694D01*
X012186Y024677D01*
X012224Y024663D01*
X012263Y024651D01*
X012303Y024642D01*
X012343Y024635D01*
X012384Y024631D01*
X012425Y02463D01*
X012575D01*
X012616Y024631D01*
X012657Y024635D01*
X012697Y024642D01*
X012737Y024651D01*
X012776Y024663D01*
X012814Y024677D01*
X012852Y024694D01*
X012888Y024713D01*
X012922Y024735D01*
X012956Y024759D01*
X012964Y024766D01*
X013058Y024746D01*
X013132Y024706D01*
X013161Y024679D01*
Y02364D01*
X013163Y02361D01*
X013167Y023579D01*
X013173Y02355D01*
X013182Y023521D01*
X013194Y023493D01*
X013208Y023466D01*
X013224Y02344D01*
X013243Y023416D01*
X013263Y023393D01*
X014249Y022407D01*
X014168Y022211D01*
X012659D01*
Y020529D01*
X012769D01*
X012777Y020521D01*
X012839Y02041D01*
X012854Y020333D01*
X012838Y020314D01*
X012808Y020273D01*
X01278Y02023D01*
X012755Y020186D01*
X012733Y02014D01*
X012714Y020093D01*
X012697Y020045D01*
X012684Y019996D01*
X012673Y019947D01*
X012665Y019897D01*
X012661Y019846D01*
X012659Y019795D01*
X012661Y019744D01*
X012665Y019694D01*
X012673Y019644D01*
X012684Y019594D01*
X012697Y019545D01*
X012714Y019497D01*
X012733Y01945D01*
X012755Y019404D01*
X01278Y01936D01*
X012808Y019317D01*
X012838Y019277D01*
X012871Y019238D01*
X012905Y019201D01*
X012942Y019166D01*
X012981Y019133D01*
X013022Y019103D01*
X012949Y01892D01*
X012928Y01889D01*
X01167D01*
Y02493D01*
X011864Y024978D01*
X011883Y024942D01*
D02*
G37*
%LPC*%
G36*
X05346Y048678D02*
X053428Y048677D01*
X053396Y048673D01*
X053365Y048666D01*
X053334Y048656D01*
X053304Y048644D01*
X053276Y048629D01*
X053249Y048612D01*
X053223Y048592D01*
X053199Y048571D01*
X053178Y048547D01*
X053158Y048521D01*
X053141Y048494D01*
X053126Y048466D01*
X053114Y048436D01*
X053104Y048405D01*
X053097Y048374D01*
X053093Y048342D01*
X053092Y04831D01*
X053093Y048278D01*
X053097Y048246D01*
X053104Y048215D01*
X053114Y048184D01*
X053126Y048154D01*
X053141Y048126D01*
X053158Y048099D01*
X053178Y048073D01*
X053199Y048049D01*
X053223Y048028D01*
X053249Y048008D01*
X053276Y047991D01*
X053304Y047976D01*
X053334Y047964D01*
X053365Y047954D01*
X053396Y047947D01*
X053428Y047943D01*
X05346Y047942D01*
X053492Y047943D01*
X053524Y047947D01*
X053555Y047954D01*
X053586Y047964D01*
X053616Y047976D01*
X053625Y047981D01*
X053627Y047981D01*
X056D01*
X056074Y047925D01*
X056004Y04778D01*
X055956Y047728D01*
X055951Y047728D01*
X055923Y047724D01*
X055895Y047718D01*
X055867Y047709D01*
X055841Y047698D01*
X055815Y047685D01*
X055791Y04767D01*
X055768Y047652D01*
X055747Y047633D01*
X055747Y047633D01*
X055327Y047213D01*
X055308Y047192D01*
X05529Y047169D01*
X055275Y047145D01*
X055262Y047119D01*
X055251Y047093D01*
X055242Y047065D01*
X055236Y047037D01*
X055232Y047009D01*
X055231Y04698D01*
X055231Y04698D01*
Y046071D01*
X055162Y046012D01*
X055151Y046006D01*
X055034Y04597D01*
X055026Y045974D01*
X054996Y045986D01*
X054965Y045996D01*
X054934Y046003D01*
X054902Y046007D01*
X05487Y046008D01*
X054838Y046007D01*
X054806Y046003D01*
X054787Y045999D01*
X049892D01*
X049885Y046D01*
X049842Y04602D01*
X049827Y046032D01*
X049714Y04616D01*
X049713Y046199D01*
X049708Y046238D01*
X049702Y046276D01*
X049692Y046314D01*
X04968Y046351D01*
X049665Y046387D01*
X049647Y046421D01*
X049627Y046455D01*
X049605Y046487D01*
X049581Y046517D01*
X049554Y046546D01*
X049526Y046572D01*
X049495Y046597D01*
X049463Y046619D01*
X04943Y046639D01*
X049395Y046656D01*
X049359Y046671D01*
X049322Y046684D01*
X049284Y046693D01*
X049246Y0467D01*
X049207Y046704D01*
X049168Y046706D01*
X048972D01*
X048933Y046704D01*
X048894Y0467D01*
X048856Y046693D01*
X048818Y046684D01*
X048781Y046671D01*
X048745Y046656D01*
X04871Y046639D01*
X048677Y046619D01*
X048645Y046597D01*
X048614Y046572D01*
X048586Y046546D01*
X048559Y046517D01*
X048535Y046487D01*
X048513Y046455D01*
X048493Y046421D01*
X048475Y046387D01*
X04846Y046351D01*
X048448Y046314D01*
X048438Y046276D01*
X048432Y046238D01*
X048427Y046199D01*
X048426Y04616D01*
X048313Y046032D01*
X048298Y04602D01*
X048255Y046D01*
X048248Y045999D01*
X040797D01*
X040787Y046015D01*
X040765Y046047D01*
X040741Y046077D01*
X040714Y046106D01*
X040686Y046132D01*
X040655Y046157D01*
X040623Y046179D01*
X04059Y046199D01*
X040555Y046216D01*
X040519Y046231D01*
X040482Y046244D01*
X040444Y046253D01*
X040406Y04626D01*
X040367Y046264D01*
X040328Y046266D01*
X040132D01*
X040093Y046264D01*
X040054Y04626D01*
X040016Y046253D01*
X039978Y046244D01*
X039941Y046231D01*
X039905Y046216D01*
X03987Y046199D01*
X039837Y046179D01*
X039805Y046157D01*
X039774Y046132D01*
X039746Y046106D01*
X039719Y046077D01*
X039695Y046047D01*
X039673Y046015D01*
X039663Y045999D01*
X03073D01*
X0307Y045997D01*
X030669Y045993D01*
X03064Y045987D01*
X030611Y045978D01*
X030583Y045966D01*
X030556Y045952D01*
X03053Y045936D01*
X030506Y045917D01*
X030483Y045897D01*
X030023Y045437D01*
X030003Y045414D01*
X029984Y04539D01*
X029968Y045364D01*
X029954Y045337D01*
X029942Y045309D01*
X029933Y04528D01*
X029927Y045251D01*
X029923Y04522D01*
X029921Y04519D01*
Y041464D01*
X029466Y041009D01*
X02758D01*
X02755Y041007D01*
X027519Y041003D01*
X02749Y040997D01*
X027461Y040988D01*
X027433Y040976D01*
X027406Y040962D01*
X02738Y040946D01*
X027356Y040927D01*
X027333Y040907D01*
X027023Y040597D01*
X027003Y040574D01*
X026984Y04055D01*
X026968Y040524D01*
X026954Y040497D01*
X026942Y040469D01*
X026933Y04044D01*
X026927Y040411D01*
X026923Y04038D01*
X026921Y04035D01*
Y03958D01*
X026923Y03955D01*
X026927Y039519D01*
X026933Y03949D01*
X026942Y039461D01*
X026954Y039433D01*
X026968Y039406D01*
X026984Y03938D01*
X027003Y039356D01*
X027023Y039333D01*
X027323Y039033D01*
X027346Y039013D01*
X02737Y038994D01*
X027396Y038978D01*
X027423Y038964D01*
X027451Y038952D01*
X02748Y038943D01*
X027509Y038937D01*
X02754Y038933D01*
X02757Y038931D01*
X028666D01*
X028793Y038804D01*
Y03847D01*
X02879Y038464D01*
X028777Y038433D01*
X028767Y0384D01*
X028759Y038367D01*
X028755Y038334D01*
X028754Y0383D01*
X028755Y038266D01*
X028759Y038233D01*
X028767Y0382D01*
X028777Y038167D01*
X02879Y038136D01*
X028806Y038106D01*
X028824Y038077D01*
X028844Y03805D01*
X028867Y038026D01*
X028892Y038003D01*
X028919Y037982D01*
X028948Y037964D01*
X028978Y037948D01*
X029009Y037935D01*
X029041Y037925D01*
X029074Y037918D01*
X029108Y037913D01*
X029142Y037912D01*
X029176Y037913D01*
X029209Y037918D01*
X029242Y037925D01*
X029274Y037935D01*
X029306Y037948D01*
X029312Y037951D01*
X029576D01*
X031161Y036366D01*
Y032494D01*
X030986Y032319D01*
X02697D01*
X02694Y032317D01*
X026909Y032313D01*
X02688Y032307D01*
X026851Y032298D01*
X026823Y032286D01*
X026796Y032272D01*
X02677Y032256D01*
X026746Y032237D01*
X026723Y032217D01*
X025956Y031449D01*
X02145D01*
X021444Y031452D01*
X021413Y031465D01*
X02138Y031475D01*
X021347Y031482D01*
X021314Y031487D01*
X02128Y031488D01*
X021246Y031487D01*
X021213Y031482D01*
X02118Y031475D01*
X021147Y031465D01*
X021116Y031452D01*
X021086Y031436D01*
X021057Y031418D01*
X02103Y031397D01*
X021006Y031374D01*
X020983Y03135D01*
X020962Y031323D01*
X020944Y031294D01*
X020928Y031264D01*
X020915Y031233D01*
X020905Y0312D01*
X020898Y031167D01*
X020893Y031134D01*
X020892Y0311D01*
X020893Y031066D01*
X020898Y031033D01*
X020905Y031D01*
X020915Y030967D01*
X020928Y030936D01*
X020944Y030906D01*
X020962Y030877D01*
X020983Y03085D01*
X021006Y030826D01*
X02103Y030803D01*
X021057Y030782D01*
X021086Y030764D01*
X021116Y030748D01*
X021147Y030735D01*
X02118Y030725D01*
X021213Y030718D01*
X02127Y030589D01*
X021253Y030492D01*
X02122Y030485D01*
X021187Y030475D01*
X021156Y030462D01*
X021131Y030449D01*
X019651D01*
X019644Y030453D01*
X019612Y03047D01*
X019579Y030483D01*
X019546Y030494D01*
X019511Y030502D01*
X019476Y030506D01*
X01944Y030508D01*
X019404Y030506D01*
X019369Y030502D01*
X019334Y030494D01*
X019301Y030483D01*
X019268Y03047D01*
X019236Y030453D01*
X019206Y030434D01*
X019178Y030412D01*
X019152Y030388D01*
X019128Y030362D01*
X019106Y030334D01*
X019087Y030304D01*
X01907Y030272D01*
X019057Y03024D01*
X019046Y030206D01*
X019038Y030171D01*
X019034Y030136D01*
X019032Y0301D01*
X019034Y030064D01*
X019038Y030029D01*
X019046Y029994D01*
X019057Y02996D01*
X01907Y029928D01*
X019087Y029896D01*
X019106Y029866D01*
X019128Y029838D01*
X019152Y029812D01*
X019178Y029788D01*
X019206Y029766D01*
X019236Y029747D01*
X019268Y02973D01*
X019301Y029717D01*
X019334Y029706D01*
X019369Y029698D01*
X019404Y029694D01*
X01944Y029692D01*
X019476Y029694D01*
X019511Y029698D01*
X019546Y029706D01*
X019579Y029717D01*
X019612Y02973D01*
X019644Y029747D01*
X019651Y029751D01*
X021173D01*
X021187Y029745D01*
X02122Y029735D01*
X021253Y029728D01*
X021286Y029723D01*
X02132Y029722D01*
X021442Y029605D01*
X021449Y029596D01*
X021471Y029549D01*
X021471Y029548D01*
Y02509D01*
X021473Y02506D01*
X021477Y025029D01*
X021483Y025D01*
X021492Y024971D01*
X021504Y024943D01*
X021518Y024916D01*
X021534Y02489D01*
X021553Y024866D01*
X021573Y024843D01*
X022213Y024203D01*
X022236Y024183D01*
X022252Y02417D01*
X022244Y024098D01*
X022233Y024053D01*
X022127Y024006D01*
X022095Y024028D01*
X022061Y024048D01*
X022027Y024065D01*
X021991Y02408D01*
X021954Y024093D01*
X021916Y024102D01*
X021878Y024109D01*
X021839Y024113D01*
X0218Y024115D01*
X021761Y024113D01*
X021722Y024109D01*
X021684Y024102D01*
X021646Y024093D01*
X021609Y02408D01*
X021573Y024065D01*
X021539Y024048D01*
X021345Y024114D01*
Y024114D01*
X020255D01*
Y022906D01*
X021345D01*
Y022906D01*
X021539Y022972D01*
X021573Y022955D01*
X021609Y02294D01*
X021646Y022927D01*
X021684Y022918D01*
X021722Y022911D01*
X021761Y022907D01*
X0218Y022905D01*
X021839Y022907D01*
X021878Y022911D01*
X021916Y022918D01*
X021954Y022927D01*
X021991Y02294D01*
X022027Y022955D01*
X022061Y022972D01*
X022095Y022992D01*
X022127Y023014D01*
X022157Y023039D01*
X022174Y023054D01*
X022183Y02306D01*
X022208Y023072D01*
X02227Y023079D01*
X02233D01*
X022392Y023072D01*
X022417Y02306D01*
X022426Y023054D01*
X022443Y023039D01*
X022473Y023014D01*
X022505Y022992D01*
X022539Y022972D01*
X022573Y022955D01*
X022609Y02294D01*
X022646Y022927D01*
X022684Y022918D01*
X022722Y022911D01*
X022761Y022907D01*
X0228Y022905D01*
X022839Y022907D01*
X022878Y022911D01*
X022916Y022918D01*
X022954Y022927D01*
X022991Y02294D01*
X023027Y022955D01*
X023061Y022972D01*
X023095Y022992D01*
X023127Y023014D01*
X023157Y023039D01*
X023174Y023054D01*
X023183Y02306D01*
X023208Y023072D01*
X02327Y023079D01*
X02333D01*
X023392Y023072D01*
X023417Y02306D01*
X023426Y023054D01*
X023443Y023039D01*
X023473Y023014D01*
X023505Y022992D01*
X023539Y022972D01*
X023573Y022955D01*
X023609Y02294D01*
X023646Y022927D01*
X023684Y022918D01*
X023722Y022911D01*
X023761Y022907D01*
X0238Y022905D01*
X023839Y022907D01*
X023878Y022911D01*
X023916Y022918D01*
X023954Y022927D01*
X023991Y02294D01*
X024027Y022955D01*
X024061Y022972D01*
X024095Y022992D01*
X024127Y023014D01*
X024157Y023039D01*
X024174Y023054D01*
X024183Y02306D01*
X024208Y023072D01*
X02427Y023079D01*
X02433D01*
X024392Y023072D01*
X024417Y02306D01*
X024426Y023054D01*
X024443Y023039D01*
X024473Y023014D01*
X024505Y022992D01*
X024539Y022972D01*
X024573Y022955D01*
X024609Y02294D01*
X024646Y022927D01*
X024684Y022918D01*
X024722Y022911D01*
X024761Y022907D01*
X0248Y022905D01*
X024839Y022907D01*
X024878Y022911D01*
X024916Y022918D01*
X024954Y022927D01*
X024991Y02294D01*
X025027Y022955D01*
X025061Y022972D01*
X025095Y022992D01*
X025127Y023014D01*
X025157Y023039D01*
X025186Y023065D01*
X025212Y023094D01*
X025237Y023124D01*
X025259Y023156D01*
X025279Y023189D01*
X025296Y023224D01*
X025311Y02326D01*
X025324Y023297D01*
X025333Y023335D01*
X02534Y023373D01*
X025344Y023412D01*
X025346Y023451D01*
Y023569D01*
X025344Y023608D01*
X02534Y023647D01*
X025333Y023685D01*
X025324Y023723D01*
X025311Y02376D01*
X025296Y023796D01*
X025279Y023831D01*
X025259Y023864D01*
X025237Y023896D01*
X02523Y023904D01*
X02525Y023999D01*
X025283Y024063D01*
X025317Y024101D01*
X026283D01*
X026317Y024063D01*
X02635Y023999D01*
X02637Y023904D01*
X026363Y023896D01*
X026341Y023864D01*
X026321Y023831D01*
X026304Y023796D01*
X026289Y02376D01*
X026276Y023723D01*
X026267Y023685D01*
X02626Y023647D01*
X026256Y023608D01*
X026254Y023569D01*
Y023451D01*
X026256Y023412D01*
X02626Y023373D01*
X026267Y023335D01*
X026276Y023297D01*
X026289Y02326D01*
X026304Y023224D01*
X026321Y023189D01*
X026341Y023156D01*
X026363Y023124D01*
X026388Y023094D01*
X026414Y023065D01*
X026443Y023039D01*
X026473Y023014D01*
X026505Y022992D01*
X026539Y022972D01*
X026573Y022955D01*
X026609Y02294D01*
X026646Y022927D01*
X026684Y022918D01*
X026722Y022911D01*
X026761Y022907D01*
X0268Y022905D01*
X026839Y022907D01*
X026878Y022911D01*
X026916Y022918D01*
X026954Y022927D01*
X026991Y02294D01*
X027027Y022955D01*
X027061Y022972D01*
X027095Y022992D01*
X027127Y023014D01*
X027157Y023039D01*
X027174Y023054D01*
X027183Y02306D01*
X027208Y023072D01*
X02727Y023079D01*
X02733D01*
X027392Y023072D01*
X027417Y02306D01*
X027426Y023054D01*
X027443Y023039D01*
X027473Y023014D01*
X027505Y022992D01*
X027539Y022972D01*
X027573Y022955D01*
X027609Y02294D01*
X027646Y022927D01*
X027684Y022918D01*
X027722Y022911D01*
X027761Y022907D01*
X0278Y022905D01*
X027839Y022907D01*
X027878Y022911D01*
X027916Y022918D01*
X027954Y022927D01*
X027991Y02294D01*
X028027Y022955D01*
X028061Y022972D01*
X028095Y022992D01*
X028127Y023014D01*
X028157Y023039D01*
X028186Y023065D01*
X028212Y023094D01*
X028237Y023124D01*
X028259Y023156D01*
X028279Y023189D01*
X028296Y023224D01*
X028311Y02326D01*
X028324Y023297D01*
X028333Y023335D01*
X02834Y023373D01*
X028344Y023412D01*
X028346Y023451D01*
Y023569D01*
X028344Y023608D01*
X02834Y023647D01*
X028333Y023685D01*
X028324Y023723D01*
X028311Y02376D01*
X028296Y023796D01*
X028279Y023831D01*
X028259Y023864D01*
X028237Y023896D01*
X02823Y023904D01*
X02825Y023999D01*
X028283Y024063D01*
X028317Y024101D01*
X029052D01*
X029075Y024094D01*
X029106Y024087D01*
X029138Y024083D01*
X02917Y024082D01*
X029202Y024083D01*
X029234Y024087D01*
X029265Y024094D01*
X029296Y024104D01*
X029326Y024116D01*
X029354Y024131D01*
X029381Y024148D01*
X029407Y024168D01*
X029431Y024189D01*
X029452Y024213D01*
X029472Y024239D01*
X029489Y024266D01*
X029504Y024294D01*
X029516Y024324D01*
X029526Y024355D01*
X029533Y024386D01*
X029537Y024418D01*
X029538Y02445D01*
X029537Y024482D01*
X029533Y024514D01*
X029526Y024545D01*
X029516Y024576D01*
X029504Y024606D01*
X029489Y024634D01*
X029472Y024661D01*
X029452Y024687D01*
X029431Y024711D01*
X029407Y024732D01*
X029381Y024752D01*
X029354Y024769D01*
X029326Y024784D01*
X029296Y024796D01*
X029265Y024806D01*
X029234Y024813D01*
X029202Y024817D01*
X02917Y024818D01*
X029138Y024817D01*
X029106Y024813D01*
X029075Y024806D01*
X029052Y024799D01*
X022604D01*
X022169Y025234D01*
Y030751D01*
X024477D01*
X024538Y030636D01*
X024549Y030554D01*
X024542Y030548D01*
X024515Y030519D01*
X02449Y030488D01*
X024468Y030455D01*
X024449Y03042D01*
X024432Y030384D01*
X024418Y030346D01*
X024408Y030308D01*
X0244Y030269D01*
X024395Y03023D01*
X024394Y03019D01*
X024395Y03015D01*
X0244Y030111D01*
X024408Y030072D01*
X024418Y030034D01*
X024432Y029996D01*
X024449Y02996D01*
X024468Y029925D01*
X02449Y029892D01*
X024515Y029861D01*
X024542Y029832D01*
X024571Y029805D01*
X024602Y02978D01*
X024635Y029758D01*
X02467Y029739D01*
X024706Y029722D01*
X024744Y029708D01*
X024782Y029698D01*
X024821Y02969D01*
X02486Y029685D01*
X0249Y029684D01*
X02494Y029685D01*
X024979Y02969D01*
X025018Y029698D01*
X025056Y029708D01*
X025094Y029722D01*
X02513Y029739D01*
X025165Y029758D01*
X025198Y02978D01*
X025229Y029805D01*
X025258Y029832D01*
X025285Y029861D01*
X02531Y029892D01*
X025332Y029925D01*
X025511Y02987D01*
X025513Y029834D01*
X025512Y0298D01*
Y027662D01*
X025363Y027602D01*
X025315Y027602D01*
X025302Y027617D01*
X025276Y027646D01*
X025247Y027672D01*
X025217Y027697D01*
X025185Y027719D01*
X025151Y027739D01*
X025117Y027756D01*
X025081Y027771D01*
X025044Y027784D01*
X025006Y027793D01*
X024968Y0278D01*
X024929Y027804D01*
X02489Y027806D01*
X024851Y027804D01*
X024812Y0278D01*
X024774Y027793D01*
X024736Y027784D01*
X024699Y027771D01*
X024663Y027756D01*
X024629Y027739D01*
X024595Y027719D01*
X024563Y027697D01*
X024533Y027672D01*
X024504Y027646D01*
X024478Y027617D01*
X024453Y027587D01*
X024431Y027555D01*
X024411Y027521D01*
X024394Y027487D01*
X024379Y027451D01*
X024366Y027414D01*
X024357Y027376D01*
X02435Y027338D01*
X024346Y027299D01*
X024344Y02726D01*
X024346Y027221D01*
X02435Y027182D01*
X024357Y027144D01*
X024366Y027106D01*
X024379Y027069D01*
X024394Y027033D01*
X024411Y026999D01*
X024431Y026965D01*
X024453Y026933D01*
X024478Y026903D01*
X024504Y026874D01*
X024533Y026848D01*
X024563Y026823D01*
X024595Y026801D01*
X024629Y026781D01*
X024663Y026764D01*
X024699Y026749D01*
X024736Y026736D01*
X024774Y026727D01*
X024812Y02672D01*
X024851Y026716D01*
X02489Y026714D01*
X024929Y026716D01*
X024968Y02672D01*
X025006Y026727D01*
X025044Y026736D01*
X025081Y026749D01*
X025117Y026764D01*
X025151Y026781D01*
X025185Y026801D01*
X025217Y026823D01*
X025247Y026848D01*
X025276Y026874D01*
X025302Y026903D01*
X025315Y026918D01*
X025363Y026918D01*
X025512Y026858D01*
Y025911D01*
X025476Y025874D01*
X025453Y02585D01*
X025432Y025823D01*
X025414Y025794D01*
X025398Y025764D01*
X025385Y025733D01*
X025375Y0257D01*
X025368Y025667D01*
X025363Y025634D01*
X025362Y0256D01*
X025363Y025566D01*
X025368Y025533D01*
X025375Y0255D01*
X025385Y025467D01*
X025398Y025436D01*
X025414Y025406D01*
X025432Y025377D01*
X025453Y02535D01*
X025476Y025326D01*
X0255Y025303D01*
X025527Y025282D01*
X025556Y025264D01*
X025586Y025248D01*
X025617Y025235D01*
X02565Y025225D01*
X025683Y025218D01*
X025716Y025213D01*
X02575Y025212D01*
X025784Y025213D01*
X025817Y025218D01*
X02585Y025225D01*
X025883Y025235D01*
X025914Y025248D01*
X025944Y025264D01*
X025973Y025282D01*
X026Y025303D01*
X026024Y025326D01*
X026174Y025476D01*
X026197Y0255D01*
X026218Y025527D01*
X026236Y025556D01*
X026252Y025586D01*
X026265Y025617D01*
X026275Y02565D01*
X026282Y025683D01*
X026287Y025716D01*
X026288Y02575D01*
Y029639D01*
X027361Y030712D01*
X029921D01*
X02998Y030655D01*
X029983Y03065D01*
X030036Y030515D01*
X030035Y030513D01*
X030025Y03048D01*
X030018Y030447D01*
X030013Y030414D01*
X030012Y03038D01*
X030013Y030346D01*
X030018Y030313D01*
X030025Y03028D01*
X030035Y030247D01*
X030048Y030216D01*
X030064Y030186D01*
X030082Y030157D01*
X030103Y03013D01*
X030126Y030106D01*
X03015Y030083D01*
X030177Y030062D01*
X030206Y030044D01*
X030236Y030028D01*
X030267Y030015D01*
X0303Y030005D01*
X030333Y029998D01*
X030366Y029993D01*
X0304Y029992D01*
X030434Y029993D01*
X030467Y029998D01*
X0305Y030005D01*
X030533Y030015D01*
X030564Y030028D01*
X030594Y030044D01*
X030623Y030062D01*
X030633Y03007D01*
X03194D01*
X031971Y030071D01*
X032001Y030075D01*
X032031Y030082D01*
X03206Y030091D01*
X032088Y030102D01*
X032099Y030108D01*
X032115Y030117D01*
X032141Y030133D01*
X032165Y030152D01*
X032188Y030172D01*
X032234Y030219D01*
X032282Y030236D01*
X032298Y030238D01*
X032329Y030237D01*
X032479Y030209D01*
X032503Y030188D01*
X032529Y030168D01*
X032556Y030151D01*
X032584Y030136D01*
X032614Y030124D01*
X032645Y030114D01*
X03266Y030111D01*
Y0282D01*
X032661Y028169D01*
X032665Y028139D01*
X032672Y028109D01*
X032681Y02808D01*
X032692Y028052D01*
X032698Y028041D01*
X032707Y028025D01*
X032723Y027999D01*
X032742Y027975D01*
X032762Y027952D01*
X033082Y027632D01*
X033105Y027612D01*
X033129Y027593D01*
X033155Y027577D01*
X033182Y027562D01*
X03321Y027551D01*
X033224Y027546D01*
X033264Y027453D01*
X033257Y027338D01*
X033245Y02733D01*
X0332Y0273D01*
X033157Y027266D01*
X033116Y027231D01*
X033076Y027194D01*
X033039Y027154D01*
X033004Y027113D01*
X03297Y02707D01*
X03294Y027025D01*
X032911Y026979D01*
X032885Y026931D01*
X032862Y026882D01*
X032841Y026832D01*
X032823Y026781D01*
X032808Y026729D01*
X032795Y026676D01*
X032785Y026622D01*
X032778Y026568D01*
X032774Y026514D01*
X032772Y02646D01*
X032774Y026406D01*
X032778Y026352D01*
X032785Y026298D01*
X032795Y026244D01*
X032808Y026191D01*
X032823Y026139D01*
X032841Y026088D01*
X032862Y026038D01*
X032885Y025989D01*
X032911Y025941D01*
X03294Y025895D01*
X03297Y02585D01*
X033004Y025807D01*
X033039Y025766D01*
X033076Y025726D01*
X033116Y025689D01*
X033157Y025654D01*
X0332Y02562D01*
X033245Y02559D01*
X033291Y025561D01*
X033339Y025535D01*
X033388Y025512D01*
X033438Y025491D01*
X033489Y025473D01*
X033541Y025458D01*
X033594Y025445D01*
X0336Y025444D01*
X033659Y025328D01*
X033668Y025234D01*
X033177Y024743D01*
X033158Y024722D01*
X03314Y024699D01*
X033125Y024675D01*
X033112Y024649D01*
X033101Y024623D01*
X033092Y024595D01*
X033086Y024567D01*
X033082Y024539D01*
X033081Y02451D01*
X033081Y02451D01*
Y02377D01*
X033081Y02377D01*
X033082Y023741D01*
X033086Y023713D01*
X033092Y023685D01*
X033101Y023657D01*
X033112Y023631D01*
X033125Y023605D01*
X03314Y023581D01*
X033158Y023558D01*
X033177Y023537D01*
X033777Y022937D01*
X033798Y022918D01*
X033821Y0229D01*
X033845Y022885D01*
X033871Y022872D01*
X033897Y022861D01*
X033925Y022852D01*
X033953Y022846D01*
X033981Y022842D01*
X03401Y022841D01*
X037734D01*
X037911Y022664D01*
Y022D01*
X03682D01*
Y0208D01*
X03802D01*
Y0208D01*
X038087Y020828D01*
X038537Y020377D01*
X038537Y020377D01*
X038558Y020358D01*
X038581Y02034D01*
X038605Y020325D01*
X038631Y020312D01*
X038657Y020301D01*
X038685Y020292D01*
X038713Y020286D01*
X038741Y020282D01*
X03877Y020281D01*
X04298D01*
X04298Y020281D01*
X043009Y020282D01*
X043037Y020286D01*
X043065Y020292D01*
X043093Y020301D01*
X043119Y020312D01*
X043145Y020325D01*
X043169Y02034D01*
X043192Y020358D01*
X043213Y020377D01*
X044933Y022097D01*
X044933Y022097D01*
X044952Y022118D01*
X04497Y022141D01*
X044985Y022165D01*
X044998Y022191D01*
X045009Y022217D01*
X045018Y022245D01*
X045024Y022273D01*
X045028Y022301D01*
X045029Y02233D01*
Y023614D01*
X045536Y024121D01*
X046695D01*
X046704Y024116D01*
X046734Y024104D01*
X046765Y024094D01*
X046796Y024087D01*
X046828Y024083D01*
X04686Y024082D01*
X046892Y024083D01*
X046924Y024087D01*
X046955Y024094D01*
X046986Y024104D01*
X047016Y024116D01*
X047044Y024131D01*
X047071Y024148D01*
X047097Y024168D01*
X047121Y024189D01*
X047142Y024213D01*
X047162Y024239D01*
X047179Y024266D01*
X047194Y024294D01*
X047206Y024324D01*
X047216Y024355D01*
X047223Y024386D01*
X047227Y024418D01*
X047228Y02445D01*
X047227Y024482D01*
X047223Y024514D01*
X047216Y024545D01*
X047206Y024576D01*
X047194Y024606D01*
X047179Y024634D01*
X047162Y024661D01*
X047142Y024687D01*
X047121Y024711D01*
X047097Y024732D01*
X047071Y024752D01*
X047044Y024769D01*
X047016Y024784D01*
X046986Y024796D01*
X046955Y024806D01*
X046924Y024813D01*
X046892Y024817D01*
X04686Y024818D01*
X046828Y024817D01*
X046796Y024813D01*
X046765Y024806D01*
X046734Y024796D01*
X046704Y024784D01*
X046695Y024779D01*
X046693Y024779D01*
X0454D01*
X045371Y024778D01*
X045343Y024774D01*
X045315Y024768D01*
X045287Y024759D01*
X045261Y024748D01*
X045235Y024735D01*
X045211Y02472D01*
X045188Y024702D01*
X045167Y024683D01*
X045167Y024683D01*
X044467Y023983D01*
X044448Y023962D01*
X04443Y023939D01*
X044415Y023915D01*
X044402Y023889D01*
X044391Y023863D01*
X044382Y023835D01*
X044376Y023807D01*
X044372Y023779D01*
X044371Y02375D01*
X044371Y02375D01*
Y022466D01*
X042844Y020939D01*
X041074D01*
X041014Y020993D01*
X040997Y021021D01*
X040954Y021136D01*
X040959Y021149D01*
X040972Y021188D01*
X040982Y021228D01*
X04099Y021268D01*
X040994Y021309D01*
X040995Y02135D01*
Y02145D01*
X040994Y021491D01*
X04099Y021532D01*
X040982Y021572D01*
X040972Y021612D01*
X040959Y021651D01*
X040943Y021689D01*
X040925Y021726D01*
X040904Y021761D01*
X040881Y021795D01*
X040855Y021827D01*
X040827Y021857D01*
X040797Y021885D01*
X040765Y021911D01*
X040749Y021921D01*
X040749Y021927D01*
X040749Y021928D01*
Y02246D01*
X040748Y022489D01*
X040744Y022517D01*
X040738Y022545D01*
X040729Y022572D01*
Y024152D01*
X04077Y024192D01*
X041282D01*
X041282Y024192D01*
X041312Y024194D01*
X041342Y024198D01*
X041372Y024206D01*
X0414Y024216D01*
X041428Y024229D01*
X041454Y024245D01*
X041478Y024263D01*
X041501Y024283D01*
X042249Y025031D01*
X042249Y025031D01*
X042269Y025054D01*
X042287Y025078D01*
X042303Y025104D01*
X042316Y025132D01*
X042326Y02516D01*
X042333Y02519D01*
X042338Y02522D01*
X042339Y02525D01*
Y03397D01*
X042339Y03397D01*
X042338Y034D01*
X042333Y03403D01*
X042326Y03406D01*
X042316Y034088D01*
X042303Y034116D01*
X042287Y034142D01*
X042269Y034166D01*
X042249Y034189D01*
X042249Y034189D01*
X042049Y034389D01*
X042124Y034571D01*
X044902D01*
X045241Y034232D01*
Y031659D01*
X045231Y031644D01*
X045216Y031616D01*
X045204Y031586D01*
X045194Y031555D01*
X045187Y031524D01*
X045183Y031492D01*
X045182Y03146D01*
X045183Y031428D01*
X045187Y031396D01*
X045194Y031365D01*
X045204Y031334D01*
X045216Y031304D01*
X045231Y031276D01*
X045248Y031249D01*
X045268Y031223D01*
X045289Y031199D01*
X045313Y031178D01*
X045339Y031158D01*
X045366Y031141D01*
X045394Y031126D01*
X045424Y031114D01*
X045455Y031104D01*
X045486Y031097D01*
X045518Y031093D01*
X04555Y031092D01*
X045582Y031093D01*
X045614Y031097D01*
X045645Y031104D01*
X045676Y031114D01*
X045706Y031126D01*
X045734Y031141D01*
X045761Y031158D01*
X045787Y031178D01*
X045811Y031199D01*
X045832Y031223D01*
X045852Y031249D01*
X045869Y031276D01*
X045884Y031304D01*
X045896Y031334D01*
X045906Y031365D01*
X045913Y031396D01*
X045917Y031428D01*
X045918Y03146D01*
X045917Y031492D01*
X045913Y031524D01*
X045906Y031555D01*
X045896Y031586D01*
X045884Y031616D01*
X045869Y031644D01*
X045859Y031659D01*
Y03436D01*
X045858Y03439D01*
X045853Y03442D01*
X045846Y03445D01*
X045836Y034478D01*
X045823Y034506D01*
X045807Y034532D01*
X045789Y034556D01*
X045769Y034579D01*
X045769Y034579D01*
X045733Y034614D01*
X045809Y034812D01*
X045936Y034826D01*
X047671Y033092D01*
Y02868D01*
X047671Y02868D01*
X047672Y02865D01*
X047677Y02862D01*
X047684Y02859D01*
X047694Y028562D01*
X047707Y028534D01*
X047723Y028508D01*
X047741Y028484D01*
X047761Y028461D01*
X047981Y028241D01*
X048004Y028221D01*
X048028Y028203D01*
X048054Y028187D01*
X048082Y028174D01*
X04811Y028164D01*
X04814Y028157D01*
X04817Y028152D01*
X0482Y028151D01*
X0482Y028151D01*
X048421D01*
X048436Y028141D01*
X048464Y028126D01*
X048494Y028114D01*
X048525Y028104D01*
X048556Y028097D01*
X048588Y028093D01*
X04862Y028092D01*
X048652Y028093D01*
X048684Y028097D01*
X048715Y028104D01*
X048746Y028114D01*
X048776Y028126D01*
X048804Y028141D01*
X048831Y028158D01*
X048857Y028178D01*
X048881Y028199D01*
X048902Y028223D01*
X048922Y028249D01*
X048939Y028276D01*
X048954Y028304D01*
X048966Y028334D01*
X048976Y028365D01*
X048983Y028396D01*
X048987Y028428D01*
X048988Y02846D01*
X048987Y028492D01*
X048983Y028524D01*
X048976Y028555D01*
X048966Y028586D01*
X048954Y028616D01*
X048939Y028644D01*
X048922Y028671D01*
X048902Y028697D01*
X048901Y028698D01*
X048902Y028699D01*
X048919Y028726D01*
X048934Y028754D01*
X048946Y028784D01*
X048956Y028815D01*
X048963Y028846D01*
X048967Y028878D01*
X048968Y02891D01*
X048967Y028942D01*
X048963Y028974D01*
X048956Y029005D01*
X048946Y029036D01*
X048934Y029066D01*
X048919Y029094D01*
X048902Y029121D01*
X048882Y029147D01*
X048861Y029171D01*
X048837Y029192D01*
X048811Y029212D01*
X048784Y029229D01*
X048756Y029244D01*
X048726Y029256D01*
X048695Y029266D01*
X048664Y029273D01*
X048632Y029277D01*
X0486Y029278D01*
X048521Y029425D01*
X048508Y029466D01*
Y033322D01*
X048506Y033352D01*
X048502Y033382D01*
X048494Y033412D01*
X048484Y03344D01*
X048471Y033468D01*
X048455Y033494D01*
X048437Y033518D01*
X048417Y033541D01*
X048417Y033541D01*
X046339Y035619D01*
X046316Y035639D01*
X046292Y035657D01*
X046266Y035673D01*
X046238Y035686D01*
X04621Y035696D01*
X04618Y035703D01*
X04615Y035708D01*
X04612Y035709D01*
X04612Y035709D01*
X038284D01*
X038209Y035891D01*
X038419Y036101D01*
X038439Y036124D01*
X038457Y036148D01*
X038473Y036174D01*
X038486Y036202D01*
X038496Y03623D01*
X038503Y03626D01*
X038508Y03629D01*
X038509Y03632D01*
X038509Y03632D01*
Y036431D01*
X038519Y036446D01*
X038534Y036474D01*
X038546Y036504D01*
X038556Y036535D01*
X038563Y036566D01*
X038567Y036598D01*
X038568Y03663D01*
X038567Y036662D01*
X038563Y036694D01*
X038556Y036725D01*
X038546Y036756D01*
X038534Y036786D01*
X038519Y036814D01*
X038502Y036841D01*
X038482Y036867D01*
X038461Y036891D01*
X038468Y037056D01*
X038471Y03707D01*
X038491Y037115D01*
X038959Y037583D01*
X038979Y037605D01*
X038997Y03763D01*
X039013Y037656D01*
X039026Y037683D01*
X039036Y037712D01*
X039043Y037741D01*
X039048Y037771D01*
X039049Y037802D01*
Y039202D01*
X039068Y039221D01*
X03984D01*
X03984Y039221D01*
X03987Y039222D01*
X0399Y039227D01*
X03993Y039234D01*
X039958Y039244D01*
X039986Y039257D01*
X040012Y039273D01*
X040036Y039291D01*
X040059Y039311D01*
X040369Y039621D01*
X040369Y039621D01*
X040389Y039644D01*
X040407Y039668D01*
X040423Y039694D01*
X040436Y039722D01*
X040446Y03975D01*
X040453Y03978D01*
X040458Y03981D01*
X040459Y03984D01*
Y040886D01*
X040468Y040897D01*
X040486Y040926D01*
X040502Y040956D01*
X040515Y040987D01*
X040525Y04102D01*
X040532Y041053D01*
X040537Y041086D01*
X040538Y04112D01*
X040537Y041154D01*
X040532Y041187D01*
X040525Y04122D01*
X040515Y041253D01*
X040502Y041284D01*
X040486Y041314D01*
X040468Y041343D01*
X040447Y04137D01*
X040424Y041394D01*
X0404Y041417D01*
X040373Y041438D01*
X040344Y041456D01*
X040314Y041472D01*
X040283Y041485D01*
X04025Y041495D01*
X040217Y041502D01*
X040184Y041507D01*
X04015Y041508D01*
X040116Y041507D01*
X040083Y041502D01*
X04005Y041495D01*
X040017Y041485D01*
X039986Y041472D01*
X039956Y041456D01*
X039927Y041438D01*
X0399Y041417D01*
X039876Y041394D01*
X039853Y04137D01*
X039853Y04137D01*
X039744Y041331D01*
X039679Y041322D01*
X039658Y041324D01*
X039607Y041338D01*
X038998Y041948D01*
X038975Y041968D01*
X038951Y041987D01*
X038925Y042003D01*
X038909Y042012D01*
X038898Y042018D01*
X03887Y042029D01*
X038841Y042038D01*
X038811Y042045D01*
X038781Y042049D01*
X03875Y04205D01*
X03609D01*
Y042564D01*
X036102Y042586D01*
X036115Y042617D01*
X036125Y04265D01*
X036132Y042683D01*
X036137Y042716D01*
X036138Y04275D01*
X036137Y042784D01*
X036132Y042817D01*
X036125Y04285D01*
X036115Y042883D01*
X036102Y042914D01*
X036086Y042944D01*
X036068Y042973D01*
X036047Y043D01*
X036024Y043024D01*
X036Y043047D01*
X035973Y043068D01*
X035944Y043086D01*
X035914Y043102D01*
X035883Y043115D01*
X03585Y043125D01*
X035817Y043132D01*
X035784Y043137D01*
X03575Y043138D01*
X035716Y043137D01*
X035683Y043132D01*
X03565Y043125D01*
X035617Y043115D01*
X035586Y043102D01*
X035556Y043086D01*
X035527Y043068D01*
X0355Y043047D01*
X035476Y043024D01*
X035453Y043D01*
X035432Y042973D01*
X035414Y042944D01*
X035398Y042914D01*
X035385Y042883D01*
X035375Y04285D01*
X035368Y042817D01*
X035363Y042784D01*
X035362Y04275D01*
X035363Y042716D01*
X035368Y042683D01*
X035375Y04265D01*
X035385Y042617D01*
X03539Y042607D01*
Y04187D01*
X035391Y041839D01*
X035395Y041809D01*
X035402Y041779D01*
X035411Y04175D01*
X035422Y041722D01*
X035428Y041711D01*
X035437Y041695D01*
X035453Y041669D01*
X035472Y041645D01*
X035492Y041622D01*
X035662Y041452D01*
X035685Y041432D01*
X035709Y041413D01*
X035735Y041397D01*
X035762Y041382D01*
X03579Y041371D01*
X035819Y041362D01*
X035849Y041355D01*
X035879Y041351D01*
X03591Y04135D01*
X038605D01*
X039374Y04058D01*
X039375Y040577D01*
X039388Y040546D01*
X039404Y040516D01*
X039422Y040487D01*
X039443Y04046D01*
X039466Y040436D01*
X03949Y040413D01*
X039517Y040392D01*
X039546Y040374D01*
X039576Y040358D01*
X039607Y040345D01*
X03964Y040335D01*
X039673Y040328D01*
X039706Y040323D01*
X03974Y040322D01*
X039826Y040179D01*
X039841Y040137D01*
Y039968D01*
X039712Y039839D01*
X03894D01*
X03894Y039839D01*
X03891Y039838D01*
X03888Y039833D01*
X03885Y039826D01*
X038822Y039816D01*
X038794Y039803D01*
X038768Y039787D01*
X038747Y039772D01*
X038705Y039778D01*
X038624Y039796D01*
X03855Y039856D01*
X038549Y039875D01*
X038544Y03991D01*
X038537Y039944D01*
X038526Y039977D01*
X038513Y040009D01*
X038497Y04004D01*
X038478Y04007D01*
X038457Y040097D01*
X038433Y040123D01*
X037923Y040633D01*
X037897Y040657D01*
X03787Y040678D01*
X03784Y040697D01*
X037809Y040713D01*
X037777Y040726D01*
X037744Y040737D01*
X03771Y040744D01*
X037675Y040749D01*
X03764Y04075D01*
X032166D01*
X031594Y041322D01*
Y04255D01*
X031593Y042585D01*
X031588Y04262D01*
X03158Y042654D01*
X03157Y042687D01*
X031557Y042719D01*
X03154Y04275D01*
X031522Y04278D01*
X0315Y042807D01*
X031477Y042833D01*
X031451Y042857D01*
X031423Y042878D01*
X031394Y042897D01*
X031363Y042913D01*
X031331Y042926D01*
X031297Y042937D01*
X031263Y042944D01*
X031229Y042949D01*
X031194Y04295D01*
X031159Y042949D01*
X031124Y042944D01*
X03109Y042937D01*
X031057Y042926D01*
X031024Y042913D01*
X030994Y042897D01*
X030964Y042878D01*
X030936Y042857D01*
X030911Y042833D01*
X030887Y042807D01*
X030866Y04278D01*
X030847Y04275D01*
X030831Y042719D01*
X030817Y042687D01*
X030807Y042654D01*
X030619Y042702D01*
Y045046D01*
X030874Y045301D01*
X039782D01*
X039805Y045283D01*
X039837Y045261D01*
X03987Y045241D01*
X039905Y045224D01*
X039941Y045209D01*
X039978Y045196D01*
X040016Y045187D01*
X040054Y04518D01*
X040093Y045176D01*
X040132Y045174D01*
X040328D01*
X040367Y045176D01*
X040406Y04518D01*
X040444Y045187D01*
X040482Y045196D01*
X040519Y045209D01*
X040555Y045224D01*
X04059Y045241D01*
X040623Y045261D01*
X040655Y045283D01*
X040678Y045301D01*
X042024D01*
X042121Y045128D01*
X042119Y045104D01*
X042103Y045092D01*
X042079Y045071D01*
X042058Y045047D01*
X042038Y045021D01*
X042021Y044994D01*
X042006Y044966D01*
X041994Y044936D01*
X041984Y044905D01*
X041977Y044874D01*
X041973Y044842D01*
X041972Y04481D01*
X041973Y044778D01*
X041977Y044746D01*
X041984Y044715D01*
X041994Y044684D01*
X042006Y044654D01*
X042021Y044626D01*
X042031Y044611D01*
Y044488D01*
X041672Y04413D01*
X041497Y044192D01*
X041475Y044211D01*
X041474Y044241D01*
X04147Y044282D01*
X041462Y044322D01*
X041452Y044362D01*
X041439Y044401D01*
X041423Y044439D01*
X041405Y044476D01*
X041384Y044511D01*
X041361Y044545D01*
X041335Y044577D01*
X041307Y044607D01*
X041277Y044635D01*
X041245Y044661D01*
X041211Y044684D01*
X041176Y044705D01*
X041139Y044723D01*
X041101Y044739D01*
X041062Y044752D01*
X041022Y044762D01*
X040982Y04477D01*
X040941Y044774D01*
X0409Y044775D01*
X040859Y044774D01*
X040818Y04477D01*
X040778Y044762D01*
X040738Y044752D01*
X040699Y044739D01*
X040661Y044723D01*
X040624Y044705D01*
X040589Y044684D01*
X040555Y044661D01*
X040526Y044637D01*
X040522Y044634D01*
X040504Y044625D01*
X040437Y044607D01*
X040353D01*
X040286Y044625D01*
X040268Y044634D01*
X040264Y044637D01*
X040235Y044661D01*
X040201Y044684D01*
X040166Y044705D01*
X040129Y044723D01*
X040091Y044739D01*
X040052Y044752D01*
X040012Y044762D01*
X039972Y04477D01*
X039931Y044774D01*
X03989Y044775D01*
X039849Y044774D01*
X039808Y04477D01*
X039768Y044762D01*
X039728Y044752D01*
X039689Y044739D01*
X039651Y044723D01*
X039614Y044705D01*
X039579Y044684D01*
X039545Y044661D01*
X039513Y044635D01*
X039483Y044607D01*
X039455Y044577D01*
X039429Y044545D01*
X039406Y044511D01*
X039385Y044476D01*
X039367Y044439D01*
X039351Y044401D01*
X039338Y044362D01*
X039328Y044322D01*
X03932Y044282D01*
X039316Y044241D01*
X039315Y0442D01*
Y0441D01*
X039316Y044059D01*
X03932Y044018D01*
X039328Y043978D01*
X039338Y043938D01*
X039351Y043899D01*
X039367Y043861D01*
X039385Y043824D01*
X039406Y043789D01*
X039429Y043755D01*
X039455Y043723D01*
X039483Y043693D01*
X039513Y043665D01*
X039545Y043639D01*
X039579Y043616D01*
X039614Y043595D01*
X039651Y043577D01*
X039689Y043561D01*
X039728Y043548D01*
X039768Y043538D01*
X039808Y04353D01*
X039849Y043526D01*
X03989Y043525D01*
X039931Y043526D01*
X039972Y04353D01*
X040012Y043538D01*
X040052Y043548D01*
X040091Y043561D01*
X040129Y043577D01*
X040166Y043595D01*
X040201Y043616D01*
X040235Y043639D01*
X040264Y043663D01*
X040268Y043666D01*
X040286Y043675D01*
X040353Y043693D01*
X040437D01*
X040504Y043675D01*
X040522Y043666D01*
X040526Y043663D01*
X040555Y043639D01*
X040589Y043616D01*
X040624Y043595D01*
X040661Y043577D01*
X040699Y043561D01*
X040738Y043548D01*
X040778Y043538D01*
X040818Y04353D01*
X040859Y043526D01*
X04089Y043525D01*
X040909Y043522D01*
X040909Y043521D01*
X040946Y043501D01*
X040979Y043474D01*
X04101Y043444D01*
X041047Y0434D01*
X041068Y043358D01*
X041071Y043347D01*
Y040324D01*
X041062Y040313D01*
X041044Y040284D01*
X041028Y040254D01*
X041015Y040223D01*
X041005Y04019D01*
X040998Y040157D01*
X040993Y040124D01*
X040992Y04009D01*
X040993Y040056D01*
X040998Y040023D01*
X041005Y03999D01*
X041015Y039957D01*
X041028Y039926D01*
X041044Y039896D01*
X041062Y039867D01*
X041083Y03984D01*
X041106Y039816D01*
X04113Y039793D01*
X041157Y039772D01*
X041186Y039754D01*
X041216Y039738D01*
X041247Y039725D01*
X04128Y039715D01*
X041313Y039708D01*
X041346Y039703D01*
X04138Y039702D01*
X041414Y039703D01*
X041447Y039708D01*
X04148Y039715D01*
X041513Y039725D01*
X041544Y039738D01*
X041574Y039754D01*
X041577Y039756D01*
X04158Y039753D01*
X041607Y039732D01*
X041636Y039714D01*
X041666Y039698D01*
X041697Y039685D01*
X04173Y039675D01*
X041763Y039668D01*
X041796Y039663D01*
X04183Y039662D01*
X041864Y039663D01*
X041897Y039668D01*
X04193Y039675D01*
X041963Y039685D01*
X041994Y039698D01*
X042024Y039714D01*
X042053Y039732D01*
X04208Y039753D01*
X042104Y039776D01*
X042127Y0398D01*
X042148Y039827D01*
X042166Y039856D01*
X042182Y039886D01*
X042195Y039917D01*
X042195Y039917D01*
X042226Y039913D01*
X04226Y039912D01*
X042294Y039913D01*
X042327Y039918D01*
X04236Y039925D01*
X042393Y039935D01*
X042424Y039948D01*
X042454Y039964D01*
X042483Y039982D01*
X04251Y040003D01*
X042534Y040026D01*
X042557Y04005D01*
X042578Y040077D01*
X042596Y040106D01*
X042612Y040136D01*
X042625Y040167D01*
X042635Y0402D01*
X042642Y040233D01*
X042647Y040266D01*
X042648Y0403D01*
X042647Y040334D01*
X042642Y040367D01*
X042635Y0404D01*
X042625Y040433D01*
X042612Y040464D01*
X042596Y040494D01*
X042578Y040523D01*
X042569Y040534D01*
Y0414D01*
X042879Y041709D01*
X042879Y041709D01*
X042899Y041732D01*
X042917Y041756D01*
X042933Y041782D01*
X042946Y04181D01*
X042956Y041838D01*
X042963Y041868D01*
X042968Y041898D01*
X042969Y041928D01*
X042969Y041928D01*
Y043222D01*
X043058Y043311D01*
X045795D01*
X045795Y043311D01*
X045826Y043312D01*
X045856Y043317D01*
X045885Y043324D01*
X045914Y043334D01*
X045941Y043347D01*
X045967Y043363D01*
X045992Y043381D01*
X046014Y043401D01*
X046199Y043586D01*
X046199Y043586D01*
X046219Y043608D01*
X046237Y043633D01*
X046253Y043659D01*
X046266Y043686D01*
X046276Y043715D01*
X046283Y043744D01*
X046288Y043774D01*
X046289Y043805D01*
Y044456D01*
X046374Y044541D01*
X05557D01*
X05557Y044541D01*
X0556Y044542D01*
X05563Y044547D01*
X05566Y044554D01*
X055688Y044564D01*
X055716Y044577D01*
X055742Y044593D01*
X055766Y044611D01*
X055789Y044631D01*
X056169Y045011D01*
X056189Y045034D01*
X056207Y045058D01*
X056223Y045084D01*
X056236Y045112D01*
X056246Y04514D01*
X056253Y04517D01*
X056258Y0452D01*
X056259Y04523D01*
Y046204D01*
X056277Y046218D01*
X056301Y046239D01*
X056322Y046263D01*
X056342Y046289D01*
X056359Y046316D01*
X056374Y046344D01*
X056386Y046374D01*
X056396Y046405D01*
X056403Y046436D01*
X056407Y046468D01*
X056408Y0465D01*
X056407Y046532D01*
X056403Y046564D01*
X056396Y046595D01*
X056386Y046626D01*
X056374Y046656D01*
X056359Y046684D01*
X056342Y046711D01*
X056322Y046737D01*
X056301Y046761D01*
X056277Y046782D01*
X056251Y046802D01*
X056224Y046819D01*
X056233Y046987D01*
X056242Y047028D01*
X056268Y047071D01*
X059238D01*
X059239Y047071D01*
X059247Y047071D01*
X059264Y047064D01*
X059295Y047054D01*
X059326Y047047D01*
X059358Y047043D01*
X05939Y047042D01*
X059422Y047043D01*
X059454Y047047D01*
X059485Y047054D01*
X059516Y047064D01*
X059546Y047076D01*
X059574Y047091D01*
X059601Y047108D01*
X059627Y047128D01*
X059651Y047149D01*
X059672Y047173D01*
X059692Y047199D01*
X059709Y047226D01*
X059724Y047254D01*
X059736Y047284D01*
X059746Y047315D01*
X059753Y047346D01*
X059757Y047378D01*
X059758Y04741D01*
X059757Y047442D01*
X059753Y047474D01*
X059746Y047505D01*
X059736Y047536D01*
X059724Y047566D01*
X059709Y047594D01*
X059692Y047621D01*
X059672Y047647D01*
X059651Y047671D01*
X059627Y047692D01*
X059601Y047712D01*
X059574Y047729D01*
X059546Y047744D01*
X059516Y047756D01*
X059485Y047766D01*
X059454Y047773D01*
X059422Y047777D01*
X05939Y047778D01*
X059358Y047777D01*
X059326Y047773D01*
X059295Y047766D01*
X059264Y047756D01*
X059234Y047744D01*
X059206Y047729D01*
X059206Y047729D01*
X056707D01*
X056649Y047851D01*
X056644Y047926D01*
X056647Y047928D01*
X056671Y047949D01*
X056692Y047973D01*
X056712Y047999D01*
X056729Y048026D01*
X056744Y048054D01*
X056756Y048084D01*
X056766Y048115D01*
X056773Y048146D01*
X056777Y048178D01*
X056778Y04821D01*
X056777Y048242D01*
X056773Y048274D01*
X056766Y048305D01*
X056758Y04833D01*
X056758Y048339D01*
X056754Y048367D01*
X056748Y048395D01*
X056739Y048423D01*
X056733Y048438D01*
X056728Y048449D01*
X056715Y048475D01*
X0567Y048499D01*
X056682Y048522D01*
X056663Y048543D01*
X056642Y048562D01*
X056619Y04858D01*
X056595Y048595D01*
X056569Y048608D01*
X056558Y048613D01*
X056543Y048619D01*
X056515Y048628D01*
X056487Y048634D01*
X056459Y048638D01*
X05643Y048639D01*
X053625D01*
X053616Y048644D01*
X053586Y048656D01*
X053555Y048666D01*
X053524Y048673D01*
X053492Y048677D01*
X05346Y048678D01*
D02*
G37*
G36*
X0595Y042844D02*
X059458Y042843D01*
X059416Y042839D01*
X059374Y042832D01*
X059333Y042822D01*
X059293Y04281D01*
X059254Y042795D01*
X059215Y042778D01*
X059178Y042758D01*
X059142Y042736D01*
X059108Y042711D01*
X059075Y042684D01*
X059045Y042655D01*
X059016Y042625D01*
X058989Y042592D01*
X058964Y042558D01*
X058942Y042522D01*
X058922Y042485D01*
X058905Y042446D01*
X05889Y042407D01*
X058878Y042367D01*
X058868Y042326D01*
X058861Y042284D01*
X058857Y042242D01*
X058856Y0422D01*
X058857Y042158D01*
X058861Y042116D01*
X058868Y042074D01*
X058878Y042033D01*
X05889Y041993D01*
X058905Y041954D01*
X058922Y041915D01*
X058942Y041878D01*
X058964Y041842D01*
X058989Y041808D01*
X059016Y041775D01*
X059045Y041745D01*
X059075Y041716D01*
X059108Y041689D01*
X059142Y041664D01*
X059178Y041642D01*
X059215Y041622D01*
X059254Y041605D01*
X059293Y04159D01*
X059333Y041578D01*
X059374Y041568D01*
X059416Y041561D01*
X059458Y041557D01*
X0595Y041556D01*
X059542Y041557D01*
X059584Y041561D01*
X059626Y041568D01*
X059667Y041578D01*
X059707Y04159D01*
X059746Y041605D01*
X059785Y041622D01*
X059822Y041642D01*
X059858Y041664D01*
X059892Y041689D01*
X059925Y041716D01*
X059955Y041745D01*
X059984Y041775D01*
X060011Y041808D01*
X060036Y041842D01*
X060058Y041878D01*
X060078Y041915D01*
X060095Y041954D01*
X06011Y041993D01*
X060122Y042033D01*
X060132Y042074D01*
X060139Y042116D01*
X060143Y042158D01*
X060144Y0422D01*
X060143Y042242D01*
X060139Y042284D01*
X060132Y042326D01*
X060122Y042367D01*
X06011Y042407D01*
X060095Y042446D01*
X060078Y042485D01*
X060058Y042522D01*
X060036Y042558D01*
X060011Y042592D01*
X059984Y042625D01*
X059955Y042655D01*
X059925Y042684D01*
X059892Y042711D01*
X059858Y042736D01*
X059822Y042758D01*
X059785Y042778D01*
X059746Y042795D01*
X059707Y04281D01*
X059667Y042822D01*
X059626Y042832D01*
X059584Y042839D01*
X059542Y042843D01*
X0595Y042844D01*
D02*
G37*
G36*
X04534Y040488D02*
X045308Y040487D01*
X045276Y040483D01*
X045245Y040476D01*
X045214Y040466D01*
X045184Y040454D01*
X045175Y040449D01*
X045173Y040449D01*
X044655D01*
X044646Y040454D01*
X044616Y040466D01*
X044585Y040476D01*
X044554Y040483D01*
X044522Y040487D01*
X04449Y040488D01*
X044458Y040487D01*
X044426Y040483D01*
X044395Y040476D01*
X044364Y040466D01*
X044334Y040454D01*
X044306Y040439D01*
X044279Y040422D01*
X044253Y040402D01*
X044229Y040381D01*
X044208Y040357D01*
X044188Y040331D01*
X044171Y040304D01*
X044156Y040276D01*
X044144Y040246D01*
X044134Y040215D01*
X044127Y040184D01*
X044123Y040152D01*
X044122Y04012D01*
X044123Y040088D01*
X044127Y040056D01*
X044134Y040025D01*
X044144Y039994D01*
X044156Y039964D01*
X044171Y039936D01*
X044188Y039909D01*
X044208Y039883D01*
X044229Y039859D01*
X044253Y039838D01*
X044279Y039818D01*
X044306Y039801D01*
X044334Y039786D01*
X044364Y039774D01*
X044395Y039764D01*
X044426Y039757D01*
X044458Y039753D01*
X04449Y039752D01*
X044522Y039753D01*
X044554Y039757D01*
X044585Y039764D01*
X044616Y039774D01*
X044646Y039786D01*
X044655Y039791D01*
X044657Y039791D01*
X045175D01*
X045184Y039786D01*
X045214Y039774D01*
X045245Y039764D01*
X045276Y039757D01*
X045308Y039753D01*
X04534Y039752D01*
X045372Y039753D01*
X045404Y039757D01*
X045435Y039764D01*
X045466Y039774D01*
X045496Y039786D01*
X045524Y039801D01*
X045551Y039818D01*
X045577Y039838D01*
X045601Y039859D01*
X045622Y039883D01*
X045642Y039909D01*
X045659Y039936D01*
X045674Y039964D01*
X045686Y039994D01*
X045696Y040025D01*
X045703Y040056D01*
X045707Y040088D01*
X045708Y04012D01*
X045707Y040152D01*
X045703Y040184D01*
X045696Y040215D01*
X045686Y040246D01*
X045674Y040276D01*
X045659Y040304D01*
X045642Y040331D01*
X045622Y040357D01*
X045601Y040381D01*
X045577Y040402D01*
X045551Y040422D01*
X045524Y040439D01*
X045496Y040454D01*
X045466Y040466D01*
X045435Y040476D01*
X045404Y040483D01*
X045372Y040487D01*
X04534Y040488D01*
D02*
G37*
G36*
X01351Y039541D02*
X013459Y03954D01*
X013409Y039535D01*
X013358Y039528D01*
X013309Y039517D01*
X01326Y039503D01*
X013212Y039487D01*
X013165Y039467D01*
X013119Y039445D01*
X013075Y03942D01*
X013032Y039392D01*
X012991Y039362D01*
X012952Y03933D01*
X012915Y039295D01*
X012881Y039258D01*
X012848Y039219D01*
X012818Y039178D01*
X01279Y039135D01*
X012765Y039091D01*
X012743Y039046D01*
X012724Y038999D01*
X012707Y038951D01*
X012694Y038902D01*
X012683Y038852D01*
X012675Y038802D01*
X012671Y038751D01*
X012669Y0387D01*
X012671Y03865D01*
X012675Y038599D01*
X012683Y038549D01*
X012694Y038499D01*
X012707Y03845D01*
X012724Y038402D01*
X012743Y038355D01*
X012765Y03831D01*
X01279Y038265D01*
X012818Y038223D01*
X012848Y038182D01*
X012881Y038143D01*
X012915Y038106D01*
X012952Y038071D01*
X012991Y038038D01*
X013032Y038008D01*
X013075Y037981D01*
X013119Y037956D01*
X013165Y037934D01*
X013212Y037914D01*
X01326Y037898D01*
X013309Y037884D01*
X013358Y037873D01*
X013409Y037866D01*
X013459Y037861D01*
X01351Y037859D01*
X013561Y037861D01*
X013611Y037866D01*
X013662Y037873D01*
X013711Y037884D01*
X01376Y037898D01*
X013808Y037914D01*
X013855Y037934D01*
X013901Y037956D01*
X013945Y037981D01*
X013988Y038008D01*
X014029Y038038D01*
X014068Y038071D01*
X014105Y038106D01*
X014139Y038143D01*
X014172Y038182D01*
X014202Y038223D01*
X01423Y038265D01*
X014255Y03831D01*
X014277Y038355D01*
X014296Y038402D01*
X014313Y03845D01*
X014326Y038499D01*
X014337Y038549D01*
X014345Y038599D01*
X014349Y03865D01*
X014351Y0387D01*
X014349Y038751D01*
X014345Y038802D01*
X014337Y038852D01*
X014326Y038902D01*
X014313Y038951D01*
X014296Y038999D01*
X014277Y039046D01*
X014255Y039091D01*
X01423Y039135D01*
X014202Y039178D01*
X014172Y039219D01*
X014139Y039258D01*
X014105Y039295D01*
X014068Y03933D01*
X014029Y039362D01*
X013988Y039392D01*
X013945Y03942D01*
X013901Y039445D01*
X013855Y039467D01*
X013808Y039487D01*
X01376Y039503D01*
X013711Y039517D01*
X013662Y039528D01*
X013611Y039535D01*
X013561Y03954D01*
X01351Y039541D01*
D02*
G37*
G36*
X019378Y038456D02*
X019182D01*
X019143Y038454D01*
X019104Y03845D01*
X019066Y038443D01*
X019028Y038434D01*
X018991Y038421D01*
X018955Y038406D01*
X01892Y038389D01*
X018887Y038369D01*
X018855Y038347D01*
X018824Y038322D01*
X018796Y038296D01*
X018769Y038267D01*
X018745Y038237D01*
X018723Y038205D01*
X018703Y038171D01*
X018685Y038137D01*
X01867Y038101D01*
X018658Y038064D01*
X018648Y038026D01*
X018642Y037988D01*
X018637Y037949D01*
X018636Y03791D01*
X018637Y037871D01*
X018642Y037832D01*
X018648Y037794D01*
X018658Y037756D01*
X01867Y037719D01*
X018685Y037683D01*
X018703Y037649D01*
X018723Y037615D01*
X018745Y037583D01*
X018769Y037553D01*
X018796Y037524D01*
X018824Y037498D01*
X018855Y037473D01*
X018887Y037451D01*
X01892Y037431D01*
X018955Y037414D01*
X018991Y037399D01*
X019028Y037386D01*
X019066Y037377D01*
X019104Y03737D01*
X019143Y037366D01*
X019182Y037364D01*
X019378D01*
X019417Y037366D01*
X019456Y03737D01*
X019494Y037377D01*
X019532Y037386D01*
X019569Y037399D01*
X019605Y037414D01*
X01964Y037431D01*
X019673Y037451D01*
X019705Y037473D01*
X019736Y037498D01*
X019764Y037524D01*
X019791Y037553D01*
X019815Y037583D01*
X019837Y037615D01*
X019857Y037649D01*
X019875Y037683D01*
X01989Y037719D01*
X019902Y037756D01*
X019912Y037794D01*
X019919Y037832D01*
X019923Y037871D01*
X019924Y03791D01*
X019923Y037949D01*
X019919Y037988D01*
X019912Y038026D01*
X019902Y038064D01*
X01989Y038101D01*
X019875Y038137D01*
X019857Y038171D01*
X019837Y038205D01*
X019815Y038237D01*
X019791Y038267D01*
X019764Y038296D01*
X019736Y038322D01*
X019705Y038347D01*
X019673Y038369D01*
X01964Y038389D01*
X019605Y038406D01*
X019569Y038421D01*
X019532Y038434D01*
X019494Y038443D01*
X019456Y03845D01*
X019417Y038454D01*
X019378Y038456D01*
D02*
G37*
G36*
X04539Y038808D02*
X045336Y038806D01*
X045282Y038802D01*
X045228Y038795D01*
X045174Y038785D01*
X045121Y038772D01*
X045069Y038757D01*
X045018Y038739D01*
X044968Y038718D01*
X044919Y038695D01*
X044871Y038669D01*
X044825Y03864D01*
X04478Y03861D01*
X044737Y038576D01*
X044696Y038541D01*
X044656Y038504D01*
X044619Y038464D01*
X044584Y038423D01*
X04455Y03838D01*
X04452Y038335D01*
X044491Y038289D01*
X044465Y038241D01*
X044442Y038192D01*
X044421Y038142D01*
X044403Y038091D01*
X044388Y038039D01*
X044375Y037986D01*
X044365Y037932D01*
X044358Y037878D01*
X044354Y037824D01*
X044352Y03777D01*
X044354Y037716D01*
X044358Y037662D01*
X044365Y037608D01*
X044375Y037554D01*
X044388Y037501D01*
X044403Y037449D01*
X044421Y037398D01*
X044442Y037348D01*
X044465Y037299D01*
X044491Y037251D01*
X04452Y037205D01*
X04455Y03716D01*
X044584Y037117D01*
X044619Y037076D01*
X044656Y037036D01*
X044696Y036999D01*
X044737Y036964D01*
X04478Y03693D01*
X044825Y0369D01*
X044871Y036871D01*
X044919Y036845D01*
X044968Y036822D01*
X045018Y036801D01*
X045069Y036783D01*
X045121Y036768D01*
X045174Y036755D01*
X045228Y036745D01*
X045282Y036738D01*
X045336Y036734D01*
X04539Y036732D01*
X045444Y036734D01*
X045498Y036738D01*
X045552Y036745D01*
X045606Y036755D01*
X045659Y036768D01*
X045711Y036783D01*
X045762Y036801D01*
X045812Y036822D01*
X045861Y036845D01*
X045909Y036871D01*
X045955Y0369D01*
X046Y03693D01*
X046043Y036964D01*
X046084Y036999D01*
X046124Y037036D01*
X046161Y037076D01*
X046196Y037117D01*
X04623Y03716D01*
X04626Y037205D01*
X046289Y037251D01*
X046315Y037299D01*
X046338Y037348D01*
X046359Y037398D01*
X046377Y037449D01*
X046392Y037501D01*
X046405Y037554D01*
X046415Y037608D01*
X046422Y037662D01*
X046426Y037716D01*
X046428Y03777D01*
X046426Y037824D01*
X046422Y037878D01*
X046415Y037932D01*
X046405Y037986D01*
X046392Y038039D01*
X046377Y038091D01*
X046359Y038142D01*
X046338Y038192D01*
X046315Y038241D01*
X046289Y038289D01*
X04626Y038335D01*
X04623Y03838D01*
X046196Y038423D01*
X046161Y038464D01*
X046124Y038504D01*
X046084Y038541D01*
X046043Y038576D01*
X046Y03861D01*
X045955Y03864D01*
X045909Y038669D01*
X045861Y038695D01*
X045812Y038718D01*
X045762Y038739D01*
X045711Y038757D01*
X045659Y038772D01*
X045606Y038785D01*
X045552Y038795D01*
X045498Y038802D01*
X045444Y038806D01*
X04539Y038808D01*
D02*
G37*
G36*
X013104Y037354D02*
X011896D01*
Y036146D01*
X013104D01*
Y037354D01*
D02*
G37*
G36*
X05617Y036376D02*
X056131Y036374D01*
X056092Y03637D01*
X056054Y036363D01*
X056016Y036354D01*
X055979Y036341D01*
X055943Y036326D01*
X055909Y036309D01*
X055875Y036289D01*
X055843Y036267D01*
X055813Y036242D01*
X055784Y036216D01*
X055758Y036187D01*
X055733Y036157D01*
X055711Y036125D01*
X055691Y036091D01*
X055674Y036057D01*
X055659Y036021D01*
X055646Y035984D01*
X055637Y035946D01*
X05563Y035908D01*
X055626Y035869D01*
X055624Y03583D01*
X055626Y035791D01*
X05563Y035752D01*
X055637Y035714D01*
X055646Y035676D01*
X055659Y035639D01*
X055674Y035603D01*
X055691Y035569D01*
X055711Y035535D01*
X055733Y035503D01*
X055758Y035473D01*
X055784Y035444D01*
X055813Y035418D01*
X055843Y035393D01*
X055875Y035371D01*
X055909Y035351D01*
X055943Y035334D01*
X055979Y035319D01*
X056016Y035306D01*
X056054Y035297D01*
X056092Y03529D01*
X056131Y035286D01*
X05617Y035284D01*
X056209Y035286D01*
X056248Y03529D01*
X056286Y035297D01*
X056324Y035306D01*
X056361Y035319D01*
X056397Y035334D01*
X056431Y035351D01*
X056465Y035371D01*
X056497Y035393D01*
X056527Y035418D01*
X056556Y035444D01*
X056582Y035473D01*
X056607Y035503D01*
X056629Y035535D01*
X056649Y035569D01*
X056666Y035603D01*
X056681Y035639D01*
X056694Y035676D01*
X056703Y035714D01*
X05671Y035752D01*
X056714Y035791D01*
X056716Y03583D01*
X056714Y035869D01*
X05671Y035908D01*
X056703Y035946D01*
X056694Y035984D01*
X056681Y036021D01*
X056666Y036057D01*
X056649Y036091D01*
X056629Y036125D01*
X056607Y036157D01*
X056582Y036187D01*
X056556Y036216D01*
X056527Y036242D01*
X056497Y036267D01*
X056465Y036289D01*
X056431Y036309D01*
X056397Y036326D01*
X056361Y036341D01*
X056324Y036354D01*
X056286Y036363D01*
X056248Y03637D01*
X056209Y036374D01*
X05617Y036376D01*
D02*
G37*
G36*
X03002Y0347D02*
X029981Y034699D01*
X029942Y034695D01*
X029903Y034688D01*
X029865Y034678D01*
X029828Y034666D01*
X029791Y034651D01*
X029756Y034633D01*
X029722Y034613D01*
X02969Y034591D01*
X02966Y034566D01*
X029646Y034553D01*
X029598Y034534D01*
X029571Y03453D01*
X029469D01*
X029442Y034534D01*
X029394Y034553D01*
X02938Y034566D01*
X02935Y034591D01*
X029318Y034613D01*
X029284Y034633D01*
X029249Y034651D01*
X029212Y034666D01*
X029175Y034678D01*
X029137Y034688D01*
X029098Y034695D01*
X029059Y034699D01*
X02902Y0347D01*
X028981Y034699D01*
X028942Y034695D01*
X028903Y034688D01*
X028865Y034678D01*
X028828Y034666D01*
X028791Y034651D01*
X028756Y034633D01*
X028722Y034613D01*
X02869Y034591D01*
X02866Y034566D01*
X028631Y034539D01*
X028604Y03451D01*
X028579Y03448D01*
X028557Y034448D01*
X028537Y034414D01*
X028519Y034379D01*
X028504Y034342D01*
X028492Y034305D01*
X028482Y034267D01*
X028475Y034228D01*
X028471Y034189D01*
X02847Y03415D01*
X028471Y034111D01*
X028475Y034072D01*
X028482Y034033D01*
X028492Y033995D01*
X028504Y033958D01*
X028519Y033921D01*
X028537Y033886D01*
X028557Y033852D01*
X028579Y03382D01*
X028604Y03379D01*
X028631Y033761D01*
X02866Y033734D01*
X02869Y033709D01*
X028722Y033687D01*
X028756Y033667D01*
X028791Y033649D01*
X028828Y033634D01*
X028865Y033622D01*
X028903Y033612D01*
X028942Y033605D01*
X028981Y033601D01*
X02902Y0336D01*
X029059Y033601D01*
X029098Y033605D01*
X029137Y033612D01*
X029175Y033622D01*
X029212Y033634D01*
X029249Y033649D01*
X029284Y033667D01*
X029318Y033687D01*
X02935Y033709D01*
X02938Y033734D01*
X029394Y033747D01*
X029442Y033766D01*
X029469Y03377D01*
X029571D01*
X029598Y033766D01*
X029646Y033747D01*
X02966Y033734D01*
X02969Y033709D01*
X029722Y033687D01*
X029756Y033667D01*
X029791Y033649D01*
X029828Y033634D01*
X029865Y033622D01*
X029903Y033612D01*
X029942Y033605D01*
X029981Y033601D01*
X03002Y0336D01*
X030059Y033601D01*
X030098Y033605D01*
X030137Y033612D01*
X030175Y033622D01*
X030212Y033634D01*
X030249Y033649D01*
X030284Y033667D01*
X030318Y033687D01*
X03035Y033709D01*
X03038Y033734D01*
X030409Y033761D01*
X030436Y03379D01*
X030461Y03382D01*
X030483Y033852D01*
X030503Y033886D01*
X030521Y033921D01*
X030536Y033958D01*
X030548Y033995D01*
X030558Y034033D01*
X030565Y034072D01*
X030569Y034111D01*
X03057Y03415D01*
X030569Y034189D01*
X030565Y034228D01*
X030558Y034267D01*
X030548Y034305D01*
X030536Y034342D01*
X030521Y034379D01*
X030503Y034414D01*
X030483Y034448D01*
X030461Y03448D01*
X030436Y03451D01*
X030409Y034539D01*
X03038Y034566D01*
X03035Y034591D01*
X030318Y034613D01*
X030284Y034633D01*
X030249Y034651D01*
X030212Y034666D01*
X030175Y034678D01*
X030137Y034688D01*
X030098Y034695D01*
X030059Y034699D01*
X03002Y0347D01*
D02*
G37*
G36*
X044594Y042003D02*
X044584Y042002D01*
X044574Y042002D01*
X04457Y042002D01*
X044566Y042002D01*
X044556Y042D01*
X044551Y041999D01*
X04451D01*
X044481Y041998D01*
X044453Y041994D01*
X044425Y041988D01*
X044397Y041979D01*
X044371Y041968D01*
X044345Y041955D01*
X044321Y04194D01*
X044298Y041922D01*
X044277Y041903D01*
X044258Y041882D01*
X04424Y041859D01*
X044225Y041835D01*
X044212Y041809D01*
X044201Y041783D01*
X044192Y041755D01*
X044186Y041727D01*
X044182Y041699D01*
X044181Y04167D01*
X044182Y041641D01*
X044186Y041613D01*
X044192Y041585D01*
X044201Y041557D01*
X044212Y041531D01*
X044225Y041505D01*
X04424Y041481D01*
X044258Y041458D01*
X044277Y041437D01*
X044298Y041418D01*
X044321Y0414D01*
X044345Y041385D01*
X044371Y041372D01*
X044397Y041361D01*
X044425Y041352D01*
X044453Y041346D01*
X044481Y041342D01*
X04451Y041341D01*
X04455D01*
X044552Y041341D01*
X044559Y04134D01*
X044566Y041339D01*
X044573Y041338D01*
X044579Y041337D01*
X044587Y041337D01*
X044594Y041337D01*
X044601Y041337D01*
X044608Y041337D01*
X044677Y041341D01*
X047404D01*
X047601Y041144D01*
Y039751D01*
X047601Y03975D01*
X047601Y039739D01*
X0476Y039714D01*
X047599Y03971D01*
X047599Y039706D01*
X047599Y039702D01*
X047598Y039692D01*
X047597Y039682D01*
X047597Y039678D01*
X047597Y039674D01*
X047598Y039664D01*
X047598Y039654D01*
X047598Y03965D01*
X047599Y039646D01*
X0476Y039636D01*
X047601Y039631D01*
Y03959D01*
X047602Y039561D01*
X047606Y039533D01*
X047612Y039505D01*
X047621Y039477D01*
X047632Y039451D01*
X047645Y039425D01*
X04766Y039401D01*
X047678Y039378D01*
X047697Y039357D01*
X047718Y039338D01*
X047741Y03932D01*
X047765Y039305D01*
X047791Y039292D01*
X047817Y039281D01*
X047845Y039272D01*
X047873Y039266D01*
X047897Y039263D01*
Y038688D01*
Y038188D01*
Y037924D01*
X047765D01*
X047737Y037923D01*
X047708Y037919D01*
X04768Y037913D01*
X047653Y037904D01*
X047626Y037893D01*
X047601Y03788D01*
X047577Y037865D01*
X047554Y037847D01*
X047533Y037828D01*
X047533Y037828D01*
X047327Y037623D01*
X047308Y037602D01*
X04729Y037579D01*
X047275Y037555D01*
X047262Y037529D01*
X047251Y037503D01*
X047242Y037475D01*
X047236Y037447D01*
X047232Y037419D01*
X047231Y03739D01*
X047231Y03739D01*
Y03568D01*
X047231Y03568D01*
X047232Y035651D01*
X047236Y035623D01*
X047242Y035595D01*
X047251Y035567D01*
X047262Y035541D01*
X047275Y035515D01*
X04729Y035491D01*
X047308Y035468D01*
X047327Y035447D01*
X047855Y03492D01*
X047855Y03492D01*
X047876Y0349D01*
X047899Y034883D01*
X047923Y034867D01*
X047949Y034854D01*
X047975Y034843D01*
X048002Y034835D01*
X048031Y034828D01*
X048059Y034825D01*
X048088Y034823D01*
X048088Y034823D01*
X048535D01*
X048544Y034818D01*
X048574Y034806D01*
X048605Y034796D01*
X048636Y03479D01*
X048668Y034785D01*
X0487Y034784D01*
X048732Y034785D01*
X048764Y03479D01*
X048795Y034796D01*
X048826Y034806D01*
X048856Y034818D01*
X048884Y034833D01*
X048911Y034851D01*
X048937Y03487D01*
X048961Y034892D01*
X048982Y034916D01*
X049002Y034941D01*
X049019Y034968D01*
X049034Y034997D01*
X049046Y035026D01*
X049056Y035057D01*
X049063Y035088D01*
X049067Y03512D01*
X049068Y035152D01*
X049067Y035184D01*
X049063Y035216D01*
X049056Y035248D01*
X049046Y035278D01*
X049034Y035308D01*
X049019Y035337D01*
X049002Y035364D01*
X048982Y035389D01*
X048961Y035413D01*
X048937Y035435D01*
X048911Y035454D01*
X048884Y035471D01*
X048856Y035486D01*
X048826Y035499D01*
X048795Y035508D01*
X048764Y035515D01*
X048732Y035519D01*
X0487Y035521D01*
X048668Y035519D01*
X048636Y035515D01*
X048605Y035508D01*
X048574Y035499D01*
X048544Y035486D01*
X048535Y035482D01*
X048533Y035481D01*
X048224D01*
X047889Y035816D01*
Y036494D01*
X047897Y036688D01*
X049303D01*
Y036766D01*
X049608D01*
X049771Y036604D01*
Y034615D01*
X049766Y034606D01*
X049754Y034576D01*
X049744Y034545D01*
X049737Y034514D01*
X049733Y034482D01*
X049732Y03445D01*
X049731Y03445D01*
X048859D01*
Y033241D01*
X050541D01*
Y033389D01*
X050623Y033397D01*
X050688Y033398D01*
X053712D01*
X05378Y033397D01*
X053833Y033393D01*
X053859Y033389D01*
Y033241D01*
X055541D01*
Y03445D01*
X055159D01*
X055153Y034481D01*
X055149Y034531D01*
X055147Y034597D01*
Y039693D01*
X055149Y039759D01*
X055153Y039809D01*
X055159Y039841D01*
X055541D01*
Y04105D01*
X053859D01*
Y040902D01*
X053777Y040894D01*
X053712Y040892D01*
X050688D01*
X05062Y040894D01*
X050567Y040898D01*
X050541Y040901D01*
Y04105D01*
X048859D01*
Y04005D01*
X048815Y039992D01*
X048813Y03999D01*
X048719Y039934D01*
X048663Y039918D01*
X048657Y039919D01*
X048629Y039923D01*
X0486Y039924D01*
X048571Y039923D01*
X048543Y039919D01*
X048542Y039919D01*
X048332D01*
X048327Y039924D01*
X048327Y039924D01*
X048326Y039925D01*
X048316Y039934D01*
X048307Y039943D01*
X048306Y039943D01*
X048305Y039944D01*
X048294Y039951D01*
X048284Y039959D01*
X048283Y039959D01*
X048282Y03996D01*
X048271Y039966D01*
X048259Y039973D01*
X048259Y039973D01*
Y04128D01*
X048258Y041309D01*
X048254Y041337D01*
X048248Y041365D01*
X048239Y041393D01*
X048228Y041419D01*
X048215Y041445D01*
X0482Y041469D01*
X048182Y041492D01*
X048163Y041513D01*
X048163Y041513D01*
X047773Y041903D01*
X047752Y041922D01*
X047729Y04194D01*
X047705Y041955D01*
X047679Y041968D01*
X047653Y041979D01*
X047625Y041988D01*
X047597Y041994D01*
X047569Y041998D01*
X04754Y041999D01*
X04754Y041999D01*
X044671D01*
X04467Y041999D01*
X044659Y041999D01*
X044634Y042D01*
X04463Y042001D01*
X044626Y042001D01*
X044622Y042002D01*
X044612Y042002D01*
X044602Y042003D01*
X044598Y042003D01*
X044594Y042003D01*
D02*
G37*
G36*
X05616Y033406D02*
X05612Y033405D01*
X056081Y0334D01*
X056042Y033392D01*
X056004Y033382D01*
X055966Y033368D01*
X05593Y033351D01*
X055895Y033332D01*
X055862Y03331D01*
X055831Y033285D01*
X055802Y033258D01*
X055775Y033229D01*
X05575Y033198D01*
X055728Y033165D01*
X055709Y03313D01*
X055692Y033094D01*
X055678Y033056D01*
X055668Y033018D01*
X05566Y032979D01*
X055655Y03294D01*
X055654Y0329D01*
X055655Y03286D01*
X05566Y032821D01*
X055668Y032782D01*
X055678Y032744D01*
X055692Y032706D01*
X055709Y03267D01*
X055728Y032635D01*
X05575Y032602D01*
X055775Y032571D01*
X055802Y032542D01*
X055831Y032515D01*
X055862Y03249D01*
X055895Y032468D01*
X05593Y032449D01*
X055966Y032432D01*
X056004Y032418D01*
X056042Y032408D01*
X056081Y0324D01*
X05612Y032395D01*
X05616Y032394D01*
X0562Y032395D01*
X056239Y0324D01*
X056278Y032408D01*
X056316Y032418D01*
X056354Y032432D01*
X05639Y032449D01*
X056425Y032468D01*
X056458Y03249D01*
X056489Y032515D01*
X056518Y032542D01*
X056545Y032571D01*
X05657Y032602D01*
X056592Y032635D01*
X056611Y03267D01*
X056628Y032706D01*
X056642Y032744D01*
X056652Y032782D01*
X05666Y032821D01*
X056665Y03286D01*
X056666Y0329D01*
X056665Y03294D01*
X05666Y032979D01*
X056652Y033018D01*
X056642Y033056D01*
X056628Y033094D01*
X056611Y03313D01*
X056592Y033165D01*
X05657Y033198D01*
X056545Y033229D01*
X056518Y033258D01*
X056489Y033285D01*
X056458Y03331D01*
X056425Y033332D01*
X05639Y033351D01*
X056354Y033368D01*
X056316Y033382D01*
X056278Y033392D01*
X056239Y0334D01*
X0562Y033405D01*
X05616Y033406D01*
D02*
G37*
G36*
X015804Y030104D02*
X014596D01*
Y028896D01*
X015804D01*
Y030104D01*
D02*
G37*
G36*
X0595Y026981D02*
X059458Y02698D01*
X059416Y026976D01*
X059374Y026969D01*
X059333Y026959D01*
X059293Y026947D01*
X059254Y026932D01*
X059215Y026915D01*
X059178Y026895D01*
X059142Y026873D01*
X059108Y026848D01*
X059075Y026821D01*
X059045Y026793D01*
X059016Y026762D01*
X058989Y026729D01*
X058964Y026695D01*
X058942Y026659D01*
X058922Y026622D01*
X058905Y026584D01*
X05889Y026544D01*
X058878Y026504D01*
X058868Y026463D01*
X058861Y026421D01*
X058857Y026379D01*
X058856Y026337D01*
X058857Y026295D01*
X058861Y026253D01*
X058868Y026212D01*
X058878Y026171D01*
X05889Y02613D01*
X058905Y026091D01*
X058922Y026052D01*
X058942Y026015D01*
X058964Y025979D01*
X058989Y025945D01*
X059016Y025913D01*
X059045Y025882D01*
X059075Y025853D01*
X059108Y025826D01*
X059142Y025802D01*
X059178Y025779D01*
X059215Y02576D01*
X059254Y025742D01*
X059293Y025727D01*
X059333Y025715D01*
X059374Y025706D01*
X059416Y025699D01*
X059458Y025695D01*
X0595Y025693D01*
X059542Y025695D01*
X059584Y025699D01*
X059626Y025706D01*
X059667Y025715D01*
X059707Y025727D01*
X059746Y025742D01*
X059785Y02576D01*
X059822Y025779D01*
X059858Y025802D01*
X059892Y025826D01*
X059925Y025853D01*
X059955Y025882D01*
X059984Y025913D01*
X060011Y025945D01*
X060036Y025979D01*
X060058Y026015D01*
X060078Y026052D01*
X060095Y026091D01*
X06011Y02613D01*
X060122Y026171D01*
X060132Y026212D01*
X060139Y026253D01*
X060143Y026295D01*
X060144Y026337D01*
X060143Y026379D01*
X060139Y026421D01*
X060132Y026463D01*
X060122Y026504D01*
X06011Y026544D01*
X060095Y026584D01*
X060078Y026622D01*
X060058Y026659D01*
X060036Y026695D01*
X060011Y026729D01*
X059984Y026762D01*
X059955Y026793D01*
X059925Y026821D01*
X059892Y026848D01*
X059858Y026873D01*
X059822Y026895D01*
X059785Y026915D01*
X059746Y026932D01*
X059707Y026947D01*
X059667Y026959D01*
X059626Y026969D01*
X059584Y026976D01*
X059542Y02698D01*
X0595Y026981D01*
D02*
G37*
G36*
X04534Y027498D02*
X045286Y027496D01*
X045232Y027492D01*
X045178Y027485D01*
X045124Y027475D01*
X045071Y027462D01*
X045019Y027447D01*
X044968Y027429D01*
X044918Y027408D01*
X044869Y027385D01*
X044821Y027359D01*
X044775Y02733D01*
X04473Y0273D01*
X044687Y027266D01*
X044646Y027231D01*
X044606Y027194D01*
X044569Y027154D01*
X044534Y027113D01*
X0445Y02707D01*
X04447Y027025D01*
X044441Y026979D01*
X044415Y026931D01*
X044392Y026882D01*
X044371Y026832D01*
X044353Y026781D01*
X044338Y026729D01*
X044325Y026676D01*
X044315Y026622D01*
X044308Y026568D01*
X044304Y026514D01*
X044302Y02646D01*
X044304Y026406D01*
X044308Y026352D01*
X044315Y026298D01*
X044325Y026244D01*
X044338Y026191D01*
X044353Y026139D01*
X044371Y026088D01*
X044392Y026038D01*
X044415Y025989D01*
X044441Y025941D01*
X04447Y025895D01*
X0445Y02585D01*
X044534Y025807D01*
X044569Y025766D01*
X044606Y025726D01*
X044646Y025689D01*
X044687Y025654D01*
X04473Y02562D01*
X044775Y02559D01*
X044821Y025561D01*
X044869Y025535D01*
X044918Y025512D01*
X044968Y025491D01*
X045019Y025473D01*
X045071Y025458D01*
X045124Y025445D01*
X045178Y025435D01*
X045232Y025428D01*
X045286Y025424D01*
X04534Y025422D01*
X045394Y025424D01*
X045448Y025428D01*
X045502Y025435D01*
X045556Y025445D01*
X045609Y025458D01*
X045661Y025473D01*
X045712Y025491D01*
X045762Y025512D01*
X045811Y025535D01*
X045859Y025561D01*
X045905Y02559D01*
X04595Y02562D01*
X045993Y025654D01*
X046034Y025689D01*
X046074Y025726D01*
X046111Y025766D01*
X046146Y025807D01*
X04618Y02585D01*
X04621Y025895D01*
X046239Y025941D01*
X046265Y025989D01*
X046288Y026038D01*
X046309Y026088D01*
X046327Y026139D01*
X046342Y026191D01*
X046355Y026244D01*
X046365Y026298D01*
X046372Y026352D01*
X046376Y026406D01*
X046378Y02646D01*
X046376Y026514D01*
X046372Y026568D01*
X046365Y026622D01*
X046355Y026676D01*
X046342Y026729D01*
X046327Y026781D01*
X046309Y026832D01*
X046288Y026882D01*
X046265Y026931D01*
X046239Y026979D01*
X04621Y027025D01*
X04618Y02707D01*
X046146Y027113D01*
X046111Y027154D01*
X046074Y027194D01*
X046034Y027231D01*
X045993Y027266D01*
X04595Y0273D01*
X045905Y02733D01*
X045859Y027359D01*
X045811Y027385D01*
X045762Y027408D01*
X045712Y027429D01*
X045661Y027447D01*
X045609Y027462D01*
X045556Y027475D01*
X045502Y027485D01*
X045448Y027492D01*
X045394Y027496D01*
X04534Y027498D01*
D02*
G37*
G36*
X04795Y025648D02*
X047918Y025647D01*
X047886Y025643D01*
X047855Y025636D01*
X047824Y025626D01*
X047794Y025614D01*
X047766Y025599D01*
X047739Y025582D01*
X047713Y025562D01*
X047689Y025541D01*
X047668Y025517D01*
X047648Y025491D01*
X047631Y025464D01*
X047616Y025436D01*
X047604Y025406D01*
X047594Y025375D01*
X047587Y025344D01*
X047583Y025312D01*
X047582Y02528D01*
X047583Y025248D01*
X047587Y025216D01*
X047594Y025185D01*
X047604Y025154D01*
X047616Y025124D01*
X047631Y025096D01*
X047648Y025069D01*
X047668Y025043D01*
X047689Y025019D01*
X047713Y024998D01*
X047739Y024978D01*
X047766Y024961D01*
X047794Y024946D01*
X047824Y024934D01*
X047855Y024924D01*
X047886Y024917D01*
X047888Y024917D01*
X048113Y024691D01*
X048134Y024672D01*
X048157Y024655D01*
X048181Y024639D01*
X048207Y024626D01*
X048233Y024615D01*
X048261Y024606D01*
X048289Y0246D01*
X048317Y024596D01*
X048346Y024595D01*
X054185D01*
X054194Y02459D01*
X054224Y024578D01*
X054255Y024568D01*
X054286Y024561D01*
X054318Y024557D01*
X05435Y024556D01*
X054382Y024557D01*
X054414Y024561D01*
X054445Y024568D01*
X054476Y024578D01*
X054506Y02459D01*
X054534Y024605D01*
X054561Y024622D01*
X054587Y024642D01*
X054611Y024664D01*
X054632Y024687D01*
X054652Y024713D01*
X054669Y02474D01*
X054684Y024768D01*
X054696Y024798D01*
X054706Y024829D01*
X054713Y02486D01*
X054717Y024892D01*
X054718Y024924D01*
X054717Y024956D01*
X054713Y024988D01*
X054706Y025019D01*
X054696Y02505D01*
X054684Y02508D01*
X054669Y025108D01*
X054652Y025135D01*
X054632Y025161D01*
X054611Y025185D01*
X054587Y025206D01*
X054561Y025226D01*
X054534Y025243D01*
X054506Y025258D01*
X054476Y02527D01*
X054445Y02528D01*
X054414Y025287D01*
X054382Y025291D01*
X05435Y025293D01*
X054318Y025291D01*
X054286Y025287D01*
X054255Y02528D01*
X054224Y02527D01*
X054194Y025258D01*
X054185Y025253D01*
X054183Y025253D01*
X048482D01*
X048289Y025446D01*
X048288Y025447D01*
X048287Y025448D01*
X048286Y025449D01*
X048286Y02545D01*
X048266Y02547D01*
X048252Y025491D01*
X048232Y025517D01*
X048211Y025541D01*
X048187Y025562D01*
X048161Y025582D01*
X048134Y025599D01*
X048106Y025614D01*
X048076Y025626D01*
X048045Y025636D01*
X048014Y025643D01*
X047982Y025647D01*
X04795Y025648D01*
D02*
G37*
G36*
X03542Y022D02*
X035377Y021999D01*
X035335Y021994D01*
X035292Y021987D01*
X035251Y021976D01*
X03521Y021963D01*
X035171Y021946D01*
X035132Y021927D01*
X035095Y021905D01*
X03506Y021881D01*
X035055Y021877D01*
X035023Y021852D01*
X034953Y021825D01*
X034887D01*
X034817Y021852D01*
X034785Y021877D01*
X03478Y021881D01*
X034745Y021905D01*
X034708Y021927D01*
X034669Y021946D01*
X03463Y021963D01*
X034589Y021976D01*
X034548Y021987D01*
X034505Y021994D01*
X034463Y021999D01*
X03442Y022D01*
X034377Y021999D01*
X034335Y021994D01*
X034292Y021987D01*
X034251Y021976D01*
X03421Y021963D01*
X034171Y021946D01*
X034132Y021927D01*
X034095Y021905D01*
X03406Y021881D01*
X034027Y021854D01*
X033995Y021825D01*
X033966Y021793D01*
X033939Y02176D01*
X033915Y021725D01*
X033893Y021688D01*
X033874Y021649D01*
X033857Y02161D01*
X033844Y021569D01*
X033833Y021528D01*
X033826Y021485D01*
X033821Y021443D01*
X03382Y0214D01*
X033821Y021357D01*
X033826Y021315D01*
X033833Y021272D01*
X033844Y021231D01*
X033857Y02119D01*
X033874Y021151D01*
X033893Y021112D01*
X033915Y021075D01*
X033939Y02104D01*
X033966Y021007D01*
X033995Y020975D01*
X034027Y020946D01*
X03406Y020919D01*
X034095Y020895D01*
X034132Y020873D01*
X034171Y020854D01*
X03421Y020837D01*
X034251Y020824D01*
X034292Y020813D01*
X034335Y020806D01*
X034377Y020801D01*
X03442Y0208D01*
X034463Y020801D01*
X034505Y020806D01*
X034548Y020813D01*
X034589Y020824D01*
X03463Y020837D01*
X034669Y020854D01*
X034708Y020873D01*
X034745Y020895D01*
X03478Y020919D01*
X034785Y020923D01*
X034817Y020948D01*
X034887Y020975D01*
X034953D01*
X035023Y020948D01*
X035055Y020923D01*
X03506Y020919D01*
X035095Y020895D01*
X035132Y020873D01*
X035171Y020854D01*
X03521Y020837D01*
X035251Y020824D01*
X035292Y020813D01*
X035335Y020806D01*
X035377Y020801D01*
X03542Y0208D01*
X035463Y020801D01*
X035505Y020806D01*
X035548Y020813D01*
X035589Y020824D01*
X03563Y020837D01*
X035669Y020854D01*
X035708Y020873D01*
X035745Y020895D01*
X03578Y020919D01*
X035813Y020946D01*
X035845Y020975D01*
X035874Y021007D01*
X035901Y02104D01*
X035925Y021075D01*
X035947Y021112D01*
X035966Y021151D01*
X035983Y02119D01*
X035996Y021231D01*
X036007Y021272D01*
X036014Y021315D01*
X036019Y021357D01*
X03602Y0214D01*
X036019Y021443D01*
X036014Y021485D01*
X036007Y021528D01*
X035996Y021569D01*
X035983Y02161D01*
X035966Y021649D01*
X035947Y021688D01*
X035925Y021725D01*
X035901Y02176D01*
X035874Y021793D01*
X035845Y021825D01*
X035813Y021854D01*
X03578Y021881D01*
X035745Y021905D01*
X035708Y021927D01*
X035669Y021946D01*
X03563Y021963D01*
X035589Y021976D01*
X035548Y021987D01*
X035505Y021994D01*
X035463Y021999D01*
X03542Y022D01*
D02*
G37*
%LPD*%
G36*
X053546Y048392D02*
X053549Y048391D01*
X053553Y048391D01*
X053565Y04839D01*
X053605Y048389D01*
X053619Y048389D01*
Y048231D01*
X053544Y048227D01*
Y048393D01*
X053546Y048392D01*
D02*
G37*
G36*
X059313Y04732D02*
X059312Y047321D01*
X05931Y047321D01*
X059241Y047321D01*
X059223Y047479D01*
X059237Y047479D01*
X05929Y047482D01*
X059294Y047483D01*
X059297Y047484D01*
X059299Y047485D01*
X059313Y04732D01*
D02*
G37*
G36*
X042418Y044721D02*
X042414Y044715D01*
X042411Y044708D01*
X042408Y0447D01*
X042405Y044692D01*
X042403Y044683D01*
X042401Y044672D01*
X0424Y044661D01*
X042399Y044637D01*
X042281D01*
X042281Y04465D01*
X042279Y044672D01*
X042277Y044683D01*
X042275Y044692D01*
X042272Y0447D01*
X042269Y044708D01*
X042266Y044715D01*
X042262Y044721D01*
X042257Y044726D01*
X042423D01*
X042418Y044721D01*
D02*
G37*
G36*
X045575Y044174D02*
X045409D01*
X04541Y044176D01*
X045411Y044179D01*
X045411Y044183D01*
X045412Y044195D01*
X045413Y044235D01*
X045413Y044249D01*
X045571D01*
X045575Y044174D01*
D02*
G37*
G36*
X042339Y041952D02*
X042332Y041951D01*
X042325Y04195D01*
X042318Y041948D01*
X04231Y041945D01*
X042302Y041941D01*
X042294Y041935D01*
X042286Y041929D01*
X042277Y041922D01*
X042259Y041906D01*
X042176Y041989D01*
X042185Y041998D01*
X042199Y042016D01*
X042205Y042024D01*
X042211Y042032D01*
X042215Y04204D01*
X042218Y042048D01*
X04222Y042055D01*
X042221Y042062D01*
X042222Y042069D01*
X042339Y041952D01*
D02*
G37*
G36*
X040228Y041031D02*
X040224Y041025D01*
X040221Y041018D01*
X040218Y04101D01*
X040215Y041002D01*
X040213Y040993D01*
X040211Y040982D01*
X04021Y040971D01*
X040209Y040947D01*
X040091D01*
X040091Y04096D01*
X040089Y040982D01*
X040087Y040993D01*
X040085Y041002D01*
X040082Y04101D01*
X040079Y041018D01*
X040076Y041025D01*
X040072Y041031D01*
X040067Y041036D01*
X040233D01*
X040228Y041031D01*
D02*
G37*
G36*
X042319Y04046D02*
X042321Y040438D01*
X042323Y040427D01*
X042325Y040418D01*
X042328Y04041D01*
X042331Y040402D01*
X042334Y040395D01*
X042338Y040389D01*
X042343Y040384D01*
X042177D01*
X042182Y040389D01*
X042186Y040395D01*
X042189Y040402D01*
X042192Y04041D01*
X042195Y040418D01*
X042197Y040427D01*
X042199Y040438D01*
X0422Y040449D01*
X042201Y040473D01*
X042319D01*
X042319Y04046D01*
D02*
G37*
G36*
X041439Y04025D02*
X041441Y040228D01*
X041443Y040217D01*
X041445Y040208D01*
X041448Y0402D01*
X041451Y040192D01*
X041454Y040185D01*
X041458Y040179D01*
X041463Y040174D01*
X041297D01*
X041302Y040179D01*
X041306Y040185D01*
X041309Y040192D01*
X041312Y0402D01*
X041315Y040208D01*
X041317Y040217D01*
X041319Y040228D01*
X04132Y040239D01*
X041321Y040263D01*
X041439D01*
X041439Y04025D01*
D02*
G37*
G36*
X041889Y04021D02*
X041891Y040188D01*
X041893Y040177D01*
X041895Y040168D01*
X041898Y04016D01*
X041901Y040152D01*
X041904Y040145D01*
X041908Y040139D01*
X041913Y040134D01*
X041747D01*
X041752Y040139D01*
X041756Y040145D01*
X041759Y040152D01*
X041762Y04016D01*
X041765Y040168D01*
X041767Y040177D01*
X041769Y040188D01*
X04177Y040199D01*
X041771Y040223D01*
X041889D01*
X041889Y04021D01*
D02*
G37*
G36*
X027766Y039842D02*
X027769Y039841D01*
X027773Y039841D01*
X027785Y03984D01*
X027825Y039839D01*
X027839Y039839D01*
Y039681D01*
X027764Y039677D01*
Y039843D01*
X027766Y039842D01*
D02*
G37*
G36*
X038301Y039433D02*
X038306Y039372D01*
X038311Y039345D01*
X038318Y03932D01*
X038325Y039297D01*
X038335Y039276D01*
X038345Y039257D01*
X038357Y03924D01*
X03837Y039225D01*
X03793D01*
X037943Y03924D01*
X037955Y039257D01*
X037965Y039276D01*
X037975Y039297D01*
X037982Y03932D01*
X037989Y039345D01*
X037994Y039372D01*
X037997Y039401D01*
X037999Y039433D01*
X038Y039466D01*
X0383D01*
X038301Y039433D01*
D02*
G37*
G36*
X032456Y037527D02*
X032454Y037528D01*
X032451Y037529D01*
X032447Y037529D01*
X032435Y03753D01*
X032395Y037531D01*
X032381Y037531D01*
Y037689D01*
X032456Y037693D01*
Y037527D01*
D02*
G37*
G36*
X038317Y037735D02*
X038292Y037711D01*
X03827Y037686D01*
X038251Y037661D01*
X038235Y037636D01*
X038222Y037611D01*
X038212Y037586D01*
X038205Y037561D01*
X038201Y037535D01*
X038199Y03751D01*
X038081D01*
X038079Y037535D01*
X038075Y037561D01*
X038068Y037586D01*
X038058Y037611D01*
X038045Y037636D01*
X038029Y037661D01*
X03801Y037686D01*
X037988Y037711D01*
X037963Y037735D01*
X037936Y03776D01*
X038344D01*
X038317Y037735D01*
D02*
G37*
G36*
X035269Y037327D02*
X035267Y037326D01*
X035265Y037325D01*
X035262Y037322D01*
X035252Y037314D01*
X035223Y037286D01*
X035213Y037277D01*
X035102Y037388D01*
X035152Y037444D01*
X035269Y037327D01*
D02*
G37*
G36*
X038278Y036541D02*
X038274Y036535D01*
X038271Y036528D01*
X038268Y03652D01*
X038265Y036512D01*
X038263Y036503D01*
X038261Y036492D01*
X03826Y036481D01*
X038259Y036457D01*
X038141D01*
X038141Y03647D01*
X038139Y036492D01*
X038137Y036503D01*
X038135Y036512D01*
X038132Y03652D01*
X038129Y036528D01*
X038126Y036535D01*
X038122Y036541D01*
X038117Y036546D01*
X038283D01*
X038278Y036541D01*
D02*
G37*
G36*
X036609Y03639D02*
X036611Y036368D01*
X036613Y036357D01*
X036615Y036348D01*
X036618Y03634D01*
X036621Y036332D01*
X036624Y036325D01*
X036628Y036319D01*
X036633Y036314D01*
X036467D01*
X036472Y036319D01*
X036476Y036325D01*
X036479Y036332D01*
X036482Y03634D01*
X036485Y036348D01*
X036487Y036357D01*
X036489Y036368D01*
X03649Y036379D01*
X036491Y036403D01*
X036609D01*
X036609Y03639D01*
D02*
G37*
G36*
X036014Y036326D02*
X036016Y036303D01*
X036018Y036293D01*
X03602Y036283D01*
X036022Y036275D01*
X036025Y036267D01*
X036029Y036261D01*
X036033Y036255D01*
X036037Y03625D01*
X035872D01*
X035877Y036255D01*
X035881Y036261D01*
X035884Y036267D01*
X035887Y036275D01*
X03589Y036283D01*
X035892Y036293D01*
X035894Y036303D01*
X035895Y036314D01*
X035896Y036338D01*
X036014D01*
X036014Y036326D01*
D02*
G37*
G36*
X034059Y036362D02*
X03406Y036355D01*
X034062Y036348D01*
X034065Y03634D01*
X034069Y036332D01*
X034075Y036324D01*
X034081Y036316D01*
X034088Y036307D01*
X034104Y036289D01*
X034021Y036206D01*
X034012Y036215D01*
X033994Y036229D01*
X033986Y036235D01*
X033978Y036241D01*
X03397Y036245D01*
X033962Y036248D01*
X033955Y03625D01*
X033948Y036251D01*
X033941Y036252D01*
X034058Y036369D01*
X034059Y036362D01*
D02*
G37*
G36*
X03587Y036083D02*
X035865Y036087D01*
X035859Y036091D01*
X035853Y036095D01*
X035845Y036098D01*
X035837Y0361D01*
X035827Y036102D01*
X035817Y036104D01*
X035806Y036105D01*
X035782Y036106D01*
Y036224D01*
X035794Y036225D01*
X035817Y036226D01*
X035827Y036228D01*
X035837Y03623D01*
X035845Y036233D01*
X035853Y036236D01*
X035859Y036239D01*
X035865Y036243D01*
X03587Y036248D01*
Y036083D01*
D02*
G37*
G36*
X034579Y03507D02*
X034581Y035048D01*
X034583Y035037D01*
X034585Y035028D01*
X034588Y03502D01*
X034591Y035012D01*
X034594Y035005D01*
X034598Y034999D01*
X034603Y034994D01*
X034437D01*
X034442Y034999D01*
X034446Y035005D01*
X034449Y035012D01*
X034452Y03502D01*
X034455Y035028D01*
X034457Y035037D01*
X034459Y035048D01*
X03446Y035059D01*
X034461Y035083D01*
X034579D01*
X034579Y03507D01*
D02*
G37*
G36*
X032813Y034971D02*
X032647D01*
X032648Y034973D01*
X032649Y034976D01*
X032649Y03498D01*
X03265Y034992D01*
X032651Y035033D01*
X032651Y035046D01*
X032809D01*
X032813Y034971D01*
D02*
G37*
G36*
X033736Y035D02*
X033738Y034978D01*
X03374Y034967D01*
X033742Y034958D01*
X033745Y03495D01*
X033748Y034942D01*
X033751Y034935D01*
X033755Y034929D01*
X03376Y034924D01*
X033594D01*
X033599Y034929D01*
X033603Y034935D01*
X033607Y034942D01*
X03361Y03495D01*
X033612Y034958D01*
X033614Y034967D01*
X033616Y034978D01*
X033617Y034989D01*
X033618Y035013D01*
X033736D01*
X033736Y035D01*
D02*
G37*
G36*
X035022Y034989D02*
X035014Y03498D01*
X034999Y034962D01*
X034993Y034954D01*
X034988Y034946D01*
X034984Y034938D01*
X03498Y034931D01*
X034978Y034923D01*
X034977Y034916D01*
X034976Y034909D01*
X034859Y035026D01*
X034866Y035027D01*
X034873Y035028D01*
X03488Y03503D01*
X034888Y035034D01*
X034896Y035038D01*
X034904Y035043D01*
X034912Y035049D01*
X034921Y035056D01*
X034939Y035072D01*
X035022Y034989D01*
D02*
G37*
G36*
X035299Y034958D02*
X035305Y034954D01*
X035312Y034951D01*
X03532Y034948D01*
X035328Y034945D01*
X035337Y034943D01*
X035348Y034941D01*
X035359Y03494D01*
X035383Y034939D01*
Y034821D01*
X03537Y034821D01*
X035348Y034819D01*
X035337Y034817D01*
X035328Y034815D01*
X03532Y034812D01*
X035312Y034809D01*
X035305Y034806D01*
X035299Y034802D01*
X035294Y034797D01*
Y034963D01*
X035299Y034958D01*
D02*
G37*
G36*
X034609Y03387D02*
X034611Y033848D01*
X034613Y033837D01*
X034615Y033828D01*
X034618Y03382D01*
X034621Y033812D01*
X034624Y033805D01*
X034628Y033799D01*
X034633Y033794D01*
X034467D01*
X034472Y033799D01*
X034476Y033805D01*
X034479Y033812D01*
X034482Y03382D01*
X034485Y033828D01*
X034487Y033837D01*
X034489Y033848D01*
X03449Y033859D01*
X034491Y033883D01*
X034609D01*
X034609Y03387D01*
D02*
G37*
G36*
X03533Y033771D02*
X035326Y033765D01*
X035323Y033758D01*
X03532Y03375D01*
X035317Y033742D01*
X035315Y033733D01*
X035313Y033722D01*
X035312Y033711D01*
X035311Y033687D01*
X035193D01*
X035193Y0337D01*
X035191Y033722D01*
X035189Y033733D01*
X035187Y033742D01*
X035184Y03375D01*
X035181Y033758D01*
X035178Y033765D01*
X035174Y033771D01*
X035169Y033776D01*
X035335D01*
X03533Y033771D01*
D02*
G37*
G36*
X03376Y033574D02*
X033757Y03357D01*
X033756Y033565D01*
X033754Y033559D01*
X033752Y033552D01*
X033751Y033543D01*
X03375Y033522D01*
X033749Y033497D01*
X033631D01*
X033631Y03351D01*
X033628Y033552D01*
X033626Y033559D01*
X033624Y033565D01*
X033623Y03357D01*
X03362Y033574D01*
X033618Y033577D01*
X033762D01*
X03376Y033574D01*
D02*
G37*
G36*
X033357Y033553D02*
X033352Y033552D01*
X033347Y033549D01*
X033343Y033545D01*
X033339Y03354D01*
X033336Y033533D01*
X033334Y033525D01*
X033332Y033516D01*
X033331Y033506D01*
X03333Y033494D01*
X033329Y033482D01*
X033211Y033504D01*
X033226Y033641D01*
X033357Y033553D01*
D02*
G37*
G36*
X034357Y033468D02*
X034363Y033464D01*
X03437Y033461D01*
X034377Y033458D01*
X034386Y033455D01*
X034395Y033453D01*
X034405Y033451D01*
X034416Y03345D01*
X034441Y033449D01*
Y033331D01*
X034428Y033331D01*
X034405Y033329D01*
X034395Y033327D01*
X034386Y033325D01*
X034377Y033322D01*
X03437Y033319D01*
X034363Y033316D01*
X034357Y033312D01*
X034352Y033307D01*
Y033473D01*
X034357Y033468D01*
D02*
G37*
G36*
X035296Y033087D02*
X035291Y033092D01*
X035285Y033096D01*
X035278Y033099D01*
X03527Y033102D01*
X035262Y033105D01*
X035253Y033107D01*
X035242Y033109D01*
X035231Y03311D01*
X035207Y033111D01*
Y033229D01*
X03522Y033229D01*
X035242Y033231D01*
X035253Y033233D01*
X035262Y033235D01*
X03527Y033238D01*
X035278Y033241D01*
X035285Y033244D01*
X035291Y033248D01*
X035296Y033253D01*
Y033087D01*
D02*
G37*
G36*
X041481Y033632D02*
Y025578D01*
X041022Y025119D01*
X040535D01*
X040487Y025201D01*
X040468Y02531D01*
X040468Y025316D01*
X040497Y025343D01*
X040525Y025373D01*
X040551Y025405D01*
X040574Y025439D01*
X040595Y025474D01*
X040613Y025511D01*
X040629Y025549D01*
X040642Y025588D01*
X040652Y025628D01*
X04066Y025668D01*
X040664Y025709D01*
X040665Y02575D01*
Y02585D01*
X040664Y025891D01*
X04066Y025932D01*
X040652Y025972D01*
X040642Y026012D01*
X040629Y026051D01*
X040613Y026089D01*
X040595Y026126D01*
X040574Y026161D01*
X040551Y026195D01*
X040525Y026227D01*
X040497Y026257D01*
X040467Y026285D01*
X040435Y026311D01*
X040401Y026334D01*
X040366Y026355D01*
X040329Y026373D01*
X040291Y026389D01*
X040252Y026402D01*
X040212Y026412D01*
X040172Y02642D01*
X040131Y026424D01*
X04009Y026425D01*
X040049Y026424D01*
X040008Y02642D01*
X039968Y026412D01*
X039928Y026402D01*
X039889Y026389D01*
X039851Y026373D01*
X039814Y026355D01*
X039779Y026334D01*
X039745Y026311D01*
X039735Y026303D01*
X039702Y026281D01*
X039632Y026257D01*
X039568D01*
X039498Y026281D01*
X039465Y026303D01*
X039455Y026311D01*
X039421Y026334D01*
X039386Y026355D01*
X039349Y026373D01*
X039311Y026389D01*
X039272Y026402D01*
X039232Y026412D01*
X039192Y02642D01*
X039151Y026424D01*
X03911Y026425D01*
X039069Y026424D01*
X039028Y02642D01*
X038988Y026412D01*
X038948Y026402D01*
X038909Y026389D01*
X038871Y026373D01*
X038834Y026355D01*
X038799Y026334D01*
X038765Y026311D01*
X038736Y026287D01*
X038732Y026284D01*
X038714Y026275D01*
X038647Y026257D01*
X038563D01*
X038496Y026275D01*
X038478Y026284D01*
X038474Y026287D01*
X038445Y026311D01*
X038411Y026334D01*
X038376Y026355D01*
X038339Y026373D01*
X038301Y026389D01*
X038262Y026402D01*
X038222Y026412D01*
X038182Y02642D01*
X038141Y026424D01*
X0381Y026425D01*
X038059Y026424D01*
X038018Y02642D01*
X037978Y026412D01*
X037938Y026402D01*
X037899Y026389D01*
X037861Y026373D01*
X037824Y026355D01*
X037789Y026334D01*
X037755Y026311D01*
X037723Y026285D01*
X037693Y026257D01*
X037676Y026238D01*
X037627Y026241D01*
X037519Y02628D01*
X037479Y026308D01*
Y027175D01*
X037484Y027184D01*
X037496Y027214D01*
X037506Y027245D01*
X037513Y027276D01*
X037517Y027308D01*
X037518Y02734D01*
X037517Y027372D01*
X037513Y027404D01*
X037506Y027435D01*
X037496Y027466D01*
X037484Y027496D01*
X037469Y027524D01*
X037452Y027551D01*
X037432Y027577D01*
X037411Y027601D01*
X037387Y027622D01*
X037361Y027642D01*
X037334Y027659D01*
X037306Y027674D01*
X037276Y027686D01*
X037245Y027696D01*
X037214Y027703D01*
X037182Y027707D01*
X03715Y027708D01*
X037118Y027707D01*
X037086Y027703D01*
X037055Y027696D01*
X037024Y027686D01*
X036994Y027674D01*
X036966Y027659D01*
X036953Y027651D01*
X036859Y027673D01*
X036836Y027682D01*
X036756Y027744D01*
Y028154D01*
X036756Y028154D01*
X036754Y028184D01*
X03675Y028214D01*
X036742Y028244D01*
X036732Y028272D01*
X036719Y0283D01*
X036704Y028326D01*
X036685Y02835D01*
X036665Y028373D01*
X036665Y028373D01*
X035469Y029569D01*
X035446Y029589D01*
X035422Y029607D01*
X035396Y029623D01*
X035368Y029636D01*
X03534Y029646D01*
X03531Y029653D01*
X03528Y029658D01*
X03525Y029659D01*
X03525Y029659D01*
X035007D01*
X034452Y030214D01*
Y030337D01*
X034476Y030377D01*
X034496Y030399D01*
X034497Y030399D01*
X034646Y030477D01*
X034649Y030477D01*
X034678Y030473D01*
X03471Y030472D01*
X034742Y030473D01*
X034774Y030477D01*
X034805Y030484D01*
X034836Y030494D01*
X034866Y030506D01*
X034894Y030521D01*
X034909Y030531D01*
X037416D01*
X037444Y030516D01*
X037474Y030504D01*
X037505Y030494D01*
X037536Y030487D01*
X037568Y030483D01*
X0376Y030482D01*
X037632Y030483D01*
X037664Y030487D01*
X037695Y030494D01*
X037726Y030504D01*
X037756Y030516D01*
X037784Y030531D01*
X037811Y030548D01*
X037837Y030568D01*
X037861Y030589D01*
X037882Y030613D01*
X037902Y030639D01*
X037919Y030666D01*
X037934Y030694D01*
X037946Y030724D01*
X037956Y030755D01*
X037963Y030786D01*
X037967Y030818D01*
X037968Y03085D01*
X037967Y030882D01*
X037963Y030914D01*
X037956Y030945D01*
X037946Y030976D01*
X037934Y031006D01*
X037923Y031026D01*
X037929Y031036D01*
X037944Y031064D01*
X037956Y031094D01*
X037966Y031125D01*
X037973Y031156D01*
X037977Y031188D01*
X037978Y03122D01*
X037977Y031252D01*
X037973Y031284D01*
X037966Y031315D01*
X037956Y031346D01*
X037944Y031376D01*
X037929Y031404D01*
X037912Y031431D01*
X037906Y031438D01*
X037922Y031459D01*
X037939Y031486D01*
X037954Y031514D01*
X037966Y031544D01*
X037976Y031575D01*
X037983Y031606D01*
X037987Y031638D01*
X037988Y03167D01*
X037987Y031702D01*
X037983Y031734D01*
X037976Y031765D01*
X037966Y031796D01*
X037954Y031826D01*
X037939Y031854D01*
X037922Y031881D01*
X037902Y031907D01*
X037881Y031931D01*
X037857Y031952D01*
X037831Y031972D01*
X037804Y031989D01*
X037776Y032004D01*
X037746Y032016D01*
X037715Y032026D01*
X037684Y032033D01*
X037652Y032037D01*
X03762Y032038D01*
X037588Y032037D01*
X037556Y032033D01*
X037525Y032026D01*
X037494Y032016D01*
X037464Y032004D01*
X037436Y031989D01*
X037409Y031972D01*
X037383Y031952D01*
X03738Y031949D01*
X034619D01*
X034604Y031959D01*
X034576Y031974D01*
X034546Y031986D01*
X034515Y031996D01*
X034484Y032003D01*
X034452Y032007D01*
Y032515D01*
X03448Y032542D01*
X03483D01*
X03483Y032542D01*
X034861Y032544D01*
X034891Y032548D01*
X03492Y032556D01*
X034949Y032566D01*
X034976Y032579D01*
X035002Y032595D01*
X035027Y032613D01*
X035049Y032633D01*
X035244Y032828D01*
X035254Y032824D01*
X035285Y032814D01*
X035316Y032807D01*
X035348Y032803D01*
X03538Y032802D01*
X035412Y032803D01*
X035444Y032807D01*
X035475Y032814D01*
X035506Y032824D01*
X035536Y032836D01*
X035564Y032851D01*
X035591Y032868D01*
X035617Y032888D01*
X035641Y032909D01*
X035662Y032933D01*
X035682Y032959D01*
X035699Y032986D01*
X035714Y033014D01*
X035726Y033044D01*
X035736Y033075D01*
X035743Y033106D01*
X035747Y033138D01*
X035748Y03317D01*
X035747Y033202D01*
X035743Y033234D01*
X035736Y033265D01*
X035726Y033296D01*
X035714Y033326D01*
X035699Y033354D01*
X035682Y033381D01*
X035662Y033407D01*
X035641Y033431D01*
X035617Y033452D01*
X035591Y033472D01*
X035571Y033661D01*
X035571Y033665D01*
X035572Y033677D01*
X035586Y033704D01*
X035598Y033734D01*
X035608Y033765D01*
X035615Y033796D01*
X035619Y033828D01*
X03562Y03386D01*
X035621Y033861D01*
X041252D01*
X041481Y033632D01*
D02*
G37*
G36*
X032773Y032534D02*
X032607D01*
X032608Y032536D01*
X032609Y032539D01*
X032609Y032543D01*
X03261Y032555D01*
X032611Y032595D01*
X032611Y032609D01*
X032769D01*
X032773Y032534D01*
D02*
G37*
G36*
X037559Y031569D02*
X037555Y031571D01*
X037549Y031573D01*
X037543Y031575D01*
X037535Y031576D01*
X037518Y031579D01*
X037508Y03158D01*
X037472Y031581D01*
X037435Y031699D01*
X037447Y031699D01*
X03747Y031702D01*
X03748Y031704D01*
X037488Y031706D01*
X037496Y03171D01*
X037503Y031714D01*
X037509Y031718D01*
X037514Y031723D01*
X037517Y031729D01*
X037559Y031569D01*
D02*
G37*
G36*
X034509Y031718D02*
X034515Y031714D01*
X034522Y031711D01*
X03453Y031708D01*
X034538Y031705D01*
X034547Y031703D01*
X034558Y031701D01*
X034569Y0317D01*
X034593Y031699D01*
Y031581D01*
X03458Y031581D01*
X034558Y031579D01*
X034547Y031577D01*
X034538Y031575D01*
X03453Y031572D01*
X034522Y031569D01*
X034515Y031566D01*
X034509Y031562D01*
X034504Y031557D01*
Y031723D01*
X034509Y031718D01*
D02*
G37*
G36*
X045609Y03162D02*
X045611Y031598D01*
X045613Y031587D01*
X045615Y031578D01*
X045618Y03157D01*
X045621Y031562D01*
X045624Y031555D01*
X045628Y031549D01*
X045633Y031544D01*
X045467D01*
X045472Y031549D01*
X045476Y031555D01*
X045479Y031562D01*
X045482Y03157D01*
X045485Y031578D01*
X045487Y031587D01*
X045489Y031598D01*
X04549Y031609D01*
X045491Y031633D01*
X045609D01*
X045609Y03162D01*
D02*
G37*
G36*
X037533Y03113D02*
X037528Y031134D01*
X037522Y031138D01*
X037515Y031141D01*
X037507Y031144D01*
X037499Y031146D01*
X037489Y031148D01*
X037479Y031149D01*
X037456Y031151D01*
X037443Y031151D01*
X037432Y031269D01*
X037444Y031269D01*
X037467Y031271D01*
X037477Y031273D01*
X037486Y031276D01*
X037495Y031278D01*
X037502Y031282D01*
X037509Y031286D01*
X037514Y03129D01*
X037519Y031295D01*
X037533Y03113D01*
D02*
G37*
G36*
X034509Y031288D02*
X034515Y031284D01*
X034522Y031281D01*
X03453Y031278D01*
X034538Y031275D01*
X034547Y031273D01*
X034558Y031271D01*
X034569Y03127D01*
X034593Y031269D01*
Y031151D01*
X03458Y031151D01*
X034558Y031149D01*
X034547Y031147D01*
X034538Y031145D01*
X03453Y031142D01*
X034522Y031139D01*
X034515Y031136D01*
X034509Y031132D01*
X034504Y031127D01*
Y031293D01*
X034509Y031288D01*
D02*
G37*
G36*
X03311Y03149D02*
X03291Y031049D01*
X032909Y031085D01*
X032904Y031115D01*
X032897Y031138D01*
X032887Y031154D01*
X032875Y031163D01*
X032859Y031166D01*
X032841Y031161D01*
X032819Y03115D01*
X032795Y031132D01*
X032769Y031107D01*
Y03139D01*
X032795Y031419D01*
X032819Y031449D01*
X032841Y03148D01*
X032859Y031513D01*
X032875Y031546D01*
X032887Y031581D01*
X032897Y031617D01*
X032904Y031654D01*
X032909Y031692D01*
X03291Y031731D01*
X03311Y03149D01*
D02*
G37*
G36*
X022115Y031002D02*
X022078Y031D01*
X022044Y030994D01*
X022015Y030984D01*
X021989Y03097D01*
X021968Y030952D01*
X02195Y030931D01*
X021936Y030905D01*
X021926Y030876D01*
X02192Y030842D01*
X021918Y030805D01*
X021722D01*
X02172Y030842D01*
X021714Y030876D01*
X021704Y030905D01*
X02169Y030931D01*
X021672Y030952D01*
X021651Y03097D01*
X021625Y030984D01*
X021596Y030994D01*
X021562Y031D01*
X021525Y031002D01*
X02182Y031198D01*
X022115Y031002D01*
D02*
G37*
G36*
X037523Y03076D02*
X037518Y030764D01*
X037512Y030768D01*
X037505Y030771D01*
X037497Y030774D01*
X037489Y030776D01*
X037479Y030778D01*
X037469Y030779D01*
X037446Y030781D01*
X037433Y030781D01*
X037422Y030899D01*
X037434Y030899D01*
X037457Y030901D01*
X037467Y030903D01*
X037476Y030906D01*
X037485Y030908D01*
X037492Y030912D01*
X037499Y030916D01*
X037504Y03092D01*
X037509Y030925D01*
X037523Y03076D01*
D02*
G37*
G36*
X034799Y030918D02*
X034805Y030914D01*
X034812Y030911D01*
X03482Y030908D01*
X034828Y030905D01*
X034837Y030903D01*
X034848Y030901D01*
X034859Y0309D01*
X034883Y030899D01*
Y030781D01*
X03487Y030781D01*
X034848Y030779D01*
X034837Y030777D01*
X034828Y030775D01*
X03482Y030772D01*
X034812Y030769D01*
X034805Y030766D01*
X034799Y030762D01*
X034794Y030757D01*
Y030923D01*
X034799Y030918D01*
D02*
G37*
G36*
X032831Y030546D02*
X032838Y030541D01*
X032846Y030536D01*
X032855Y030532D01*
X032864Y030528D01*
X032873Y030525D01*
X032884Y030523D01*
X032894Y030521D01*
X032906Y03052D01*
X032918Y03052D01*
Y03042D01*
X032906Y03042D01*
X032894Y030419D01*
X032884Y030417D01*
X032873Y030415D01*
X032864Y030412D01*
X032855Y030408D01*
X032846Y030404D01*
X032838Y030399D01*
X032831Y030394D01*
X032824Y030387D01*
Y030553D01*
X032831Y030546D01*
D02*
G37*
G36*
X034146Y029127D02*
X034141Y029132D01*
X034135Y029136D01*
X034128Y029139D01*
X03412Y029142D01*
X034112Y029145D01*
X034103Y029147D01*
X034092Y029149D01*
X034081Y02915D01*
X034057Y029151D01*
Y029269D01*
X03407Y029269D01*
X034092Y029271D01*
X034103Y029273D01*
X034112Y029275D01*
X03412Y029278D01*
X034128Y029281D01*
X034135Y029284D01*
X034141Y029288D01*
X034146Y029293D01*
Y029127D01*
D02*
G37*
G36*
X048516Y028827D02*
X048511Y028832D01*
X048505Y028836D01*
X048498Y028839D01*
X04849Y028842D01*
X048482Y028845D01*
X048473Y028847D01*
X048462Y028849D01*
X048451Y02885D01*
X048427Y028851D01*
Y028969D01*
X04844Y028969D01*
X048462Y028971D01*
X048473Y028973D01*
X048482Y028975D01*
X04849Y028978D01*
X048498Y028981D01*
X048505Y028984D01*
X048511Y028988D01*
X048516Y028993D01*
Y028827D01*
D02*
G37*
G36*
X048536Y028377D02*
X048531Y028382D01*
X048525Y028386D01*
X048518Y028389D01*
X04851Y028392D01*
X048502Y028395D01*
X048493Y028397D01*
X048482Y028399D01*
X048471Y0284D01*
X048447Y028401D01*
Y028519D01*
X04846Y028519D01*
X048482Y028521D01*
X048493Y028523D01*
X048502Y028525D01*
X04851Y028528D01*
X048518Y028531D01*
X048525Y028534D01*
X048531Y028538D01*
X048536Y028543D01*
Y028377D01*
D02*
G37*
G36*
X033958Y028459D02*
X03396Y028459D01*
X034029Y028459D01*
X034047Y028301D01*
X034033Y028301D01*
X03398Y028298D01*
X033976Y028297D01*
X033973Y028296D01*
X033971Y028295D01*
X033957Y02846D01*
X033958Y028459D01*
D02*
G37*
G36*
X037232Y027254D02*
X037231Y027251D01*
X037231Y027247D01*
X03723Y027235D01*
X037229Y027195D01*
X037229Y027181D01*
X037071D01*
X037067Y027256D01*
X037233D01*
X037232Y027254D01*
D02*
G37*
G36*
X039217Y025447D02*
X039207Y025443D01*
X039198Y025436D01*
X03919Y025427D01*
X039184Y025415D01*
X039178Y0254D01*
X039174Y025382D01*
X039171Y025361D01*
X03917Y025338D01*
X039169Y025312D01*
X039051D01*
X03905Y025338D01*
X039049Y025361D01*
X039046Y025382D01*
X039042Y0254D01*
X039036Y025415D01*
X03903Y025427D01*
X039022Y025436D01*
X039013Y025443D01*
X039003Y025447D01*
X038992Y025449D01*
X039228D01*
X039217Y025447D01*
D02*
G37*
G36*
X038207D02*
X038197Y025443D01*
X038188Y025436D01*
X03818Y025427D01*
X038174Y025415D01*
X038168Y0254D01*
X038164Y025382D01*
X038161Y025361D01*
X03816Y025338D01*
X038159Y025312D01*
X038041D01*
X03804Y025338D01*
X038039Y025361D01*
X038036Y025382D01*
X038032Y0254D01*
X038026Y025415D01*
X03802Y025427D01*
X038012Y025436D01*
X038003Y025443D01*
X037993Y025447D01*
X037982Y025449D01*
X038218D01*
X038207Y025447D01*
D02*
G37*
G36*
X037229Y024576D02*
X037226Y024509D01*
X037063Y024537D01*
X037064Y024539D01*
X037066Y024542D01*
X037067Y024546D01*
X037068Y024552D01*
X037069Y024559D01*
X037071Y024577D01*
X037071Y024613D01*
X037229Y024576D01*
D02*
G37*
G36*
X046776Y024367D02*
X046774Y024368D01*
X046771Y024369D01*
X046767Y024369D01*
X046755Y02437D01*
X046715Y024371D01*
X046701Y024371D01*
Y024529D01*
X046776Y024533D01*
Y024367D01*
D02*
G37*
G36*
X034489Y0243D02*
X034491Y024278D01*
X034493Y024267D01*
X034495Y024258D01*
X034498Y02425D01*
X034501Y024242D01*
X034504Y024235D01*
X034508Y024229D01*
X034513Y024224D01*
X034347D01*
X034352Y024229D01*
X034356Y024235D01*
X034359Y024242D01*
X034362Y02425D01*
X034365Y024258D01*
X034367Y024267D01*
X034369Y024278D01*
X03437Y024289D01*
X034371Y024313D01*
X034489D01*
X034489Y0243D01*
D02*
G37*
G36*
X035336Y023987D02*
X035331Y023992D01*
X035325Y023996D01*
X035318Y023999D01*
X03531Y024002D01*
X035302Y024005D01*
X035293Y024007D01*
X035282Y024009D01*
X035271Y02401D01*
X035247Y024011D01*
Y024129D01*
X03526Y024129D01*
X035282Y024131D01*
X035293Y024133D01*
X035302Y024135D01*
X03531Y024138D01*
X035318Y024141D01*
X035325Y024144D01*
X035331Y024148D01*
X035336Y024153D01*
Y023987D01*
D02*
G37*
G36*
X03947Y021862D02*
X039471Y021839D01*
X039474Y021818D01*
X039478Y0218D01*
X039484Y021785D01*
X03949Y021773D01*
X039498Y021764D01*
X039507Y021757D01*
X039517Y021753D01*
X039528Y021751D01*
X039292D01*
X039303Y021753D01*
X039313Y021757D01*
X039322Y021764D01*
X03933Y021773D01*
X039336Y021785D01*
X039342Y0218D01*
X039346Y021818D01*
X039349Y021839D01*
X03935Y021862D01*
X039351Y021888D01*
X039469D01*
X03947Y021862D01*
D02*
G37*
G36*
X0405Y021886D02*
X040506Y021825D01*
X040511Y0218D01*
X040518Y021779D01*
X040527Y021762D01*
X040537Y021749D01*
X040549Y02174D01*
X040562Y021734D01*
X040577Y021732D01*
X040263D01*
X040278Y021734D01*
X040291Y02174D01*
X040303Y021749D01*
X040313Y021762D01*
X040322Y021779D01*
X040329Y0218D01*
X040334Y021825D01*
X040338Y021854D01*
X04034Y021886D01*
X040341Y021922D01*
X040499D01*
X0405Y021886D01*
D02*
G37*
G36*
X045256Y040037D02*
X045254Y040038D01*
X045251Y040039D01*
X045247Y040039D01*
X045235Y04004D01*
X045195Y040041D01*
X045181Y040041D01*
Y040199D01*
X045256Y040203D01*
Y040037D01*
D02*
G37*
G36*
X044576Y040202D02*
X044579Y040201D01*
X044583Y040201D01*
X044595Y0402D01*
X044635Y040199D01*
X044649Y040199D01*
Y040041D01*
X044574Y040037D01*
Y040203D01*
X044576Y040202D01*
D02*
G37*
G36*
X044596Y041752D02*
X044599Y041751D01*
X044603Y041751D01*
X044615Y04175D01*
X044655Y041749D01*
X044669Y041749D01*
Y041591D01*
X044594Y041587D01*
Y041753D01*
X044596Y041752D01*
D02*
G37*
G36*
X054111Y040092D02*
X054107Y040122D01*
X054095Y040148D01*
X054075Y040172D01*
X054048Y040192D01*
X054012Y040209D01*
X053969Y040223D01*
X053918Y040234D01*
X053859Y040242D01*
X053792Y040247D01*
X053717Y040248D01*
Y040642D01*
X053792Y040644D01*
X053918Y040656D01*
X053969Y040667D01*
X054012Y040681D01*
X054048Y040698D01*
X054075Y040719D01*
X054095Y040742D01*
X054107Y040769D01*
X054111Y040798D01*
Y040092D01*
D02*
G37*
G36*
X050293Y040769D02*
X050305Y040742D01*
X050325Y040719D01*
X050352Y040698D01*
X050388Y040681D01*
X050431Y040667D01*
X050482Y040656D01*
X050541Y040648D01*
X050608Y040644D01*
X050683Y040642D01*
Y040248D01*
X050608Y040247D01*
X050482Y040234D01*
X050431Y040223D01*
X050388Y040209D01*
X050352Y040192D01*
X050325Y040172D01*
X050305Y040148D01*
X050293Y040122D01*
X050289Y040092D01*
Y040798D01*
X050293Y040769D01*
D02*
G37*
G36*
X055056Y040089D02*
X055023Y040078D01*
X054993Y040058D01*
X054968Y04003D01*
X054946Y039995D01*
X054928Y039951D01*
X054915Y0399D01*
X054905Y039841D01*
X054899Y039773D01*
X054897Y039698D01*
X054503D01*
X054501Y039773D01*
X054495Y039841D01*
X054485Y0399D01*
X054472Y039951D01*
X054454Y039995D01*
X054432Y04003D01*
X054407Y040058D01*
X054377Y040078D01*
X054344Y040089D01*
X054306Y040093D01*
X055094D01*
X055056Y040089D01*
D02*
G37*
G36*
X048013Y039674D02*
X047847D01*
X047848Y039676D01*
X047849Y039679D01*
X047849Y039683D01*
X04785Y039695D01*
X047851Y039735D01*
X047851Y039749D01*
X048009D01*
X048013Y039674D01*
D02*
G37*
G36*
X048148Y039439D02*
X048147Y039453D01*
X048142Y039465D01*
X048134Y039476D01*
X048123Y039485D01*
X048109Y039493D01*
X048092Y0395D01*
X048071Y039505D01*
X048048Y039508D01*
X048042Y039509D01*
X048014Y039507D01*
Y039511D01*
X047991Y039511D01*
Y039669D01*
X048014Y039669D01*
Y039673D01*
X048016Y039672D01*
X048019Y039671D01*
X048023Y039671D01*
X048029Y03967D01*
X048048Y039672D01*
X048072Y039676D01*
X048092Y039681D01*
X04811Y039688D01*
X048124Y039697D01*
X048135Y039707D01*
X048143Y039719D01*
X048148Y039733D01*
X04815Y039747D01*
X048148Y039439D01*
D02*
G37*
G36*
X049053Y039237D02*
X049058Y039224D01*
X049066Y039212D01*
X049077Y039202D01*
X049091Y039193D01*
X049108Y039186D01*
X049129Y039181D01*
X049152Y039177D01*
X049179Y039175D01*
X049209Y039174D01*
Y039017D01*
X049179Y039016D01*
X049152Y039013D01*
X049129Y03901D01*
X049108Y039004D01*
X049091Y038997D01*
X049077Y038989D01*
X049066Y038979D01*
X049058Y038967D01*
X049053Y038954D01*
X049052Y038939D01*
Y039252D01*
X049053Y039237D01*
D02*
G37*
G36*
Y038237D02*
X049058Y038224D01*
X049066Y038212D01*
X049077Y038202D01*
X049091Y038193D01*
X049108Y038186D01*
X049129Y038181D01*
X049152Y038177D01*
X049179Y038175D01*
X049209Y038174D01*
Y038017D01*
X049179Y038016D01*
X049152Y038013D01*
X049129Y03801D01*
X049108Y038004D01*
X049091Y037997D01*
X049077Y037989D01*
X049066Y037979D01*
X049058Y037967D01*
X049053Y037954D01*
X049052Y037939D01*
Y038252D01*
X049053Y038237D01*
D02*
G37*
G36*
X048148Y037439D02*
X048147Y037454D01*
X048142Y037467D01*
X048134Y037479D01*
X048123Y037489D01*
X048109Y037497D01*
X048092Y037504D01*
X048071Y03751D01*
X048048Y037513D01*
X048021Y037516D01*
X047991Y037517D01*
Y037674D01*
X048021Y037675D01*
X048048Y037677D01*
X048071Y037681D01*
X048092Y037686D01*
X048109Y037693D01*
X048123Y037702D01*
X048134Y037712D01*
X048142Y037724D01*
X048147Y037737D01*
X048148Y037752D01*
Y037439D01*
D02*
G37*
G36*
X051023Y037424D02*
X050857D01*
X050858Y037426D01*
X050859Y037429D01*
X050859Y037433D01*
X05086Y037445D01*
X050861Y037485D01*
X050861Y037499D01*
X051019D01*
X051023Y037424D01*
D02*
G37*
G36*
X049053Y037237D02*
X049058Y037224D01*
X049066Y037212D01*
X049077Y037202D01*
X049091Y037193D01*
X049108Y037186D01*
X049129Y037181D01*
X049152Y037177D01*
X049179Y037175D01*
X049209Y037174D01*
Y037017D01*
X049179Y037016D01*
X049152Y037013D01*
X049129Y03701D01*
X049108Y037004D01*
X049091Y036997D01*
X049077Y036989D01*
X049066Y036979D01*
X049058Y036967D01*
X049053Y036954D01*
X049052Y036939D01*
Y037252D01*
X049053Y037237D01*
D02*
G37*
G36*
X048616Y03507D02*
X048614Y03507D01*
X048611Y035071D01*
X048607Y035072D01*
X048595Y035073D01*
X048555Y035074D01*
X048541Y035074D01*
Y035231D01*
X048616Y035235D01*
Y03507D01*
D02*
G37*
G36*
X050665Y034652D02*
X0505D01*
X050501Y034653D01*
X050501Y034656D01*
X050502Y03466D01*
X050503Y034672D01*
X050504Y034713D01*
X050504Y034726D01*
X050661D01*
X050665Y034652D01*
D02*
G37*
G36*
X050183Y034534D02*
X050017D01*
X050018Y034536D01*
X050019Y034539D01*
X050019Y034543D01*
X05002Y034555D01*
X050021Y034595D01*
X050021Y034609D01*
X050179D01*
X050183Y034534D01*
D02*
G37*
G36*
X05378Y039997D02*
X053833Y039993D01*
X053859Y039989D01*
Y039841D01*
X054241D01*
X054247Y039809D01*
X054251Y039759D01*
X054253Y039693D01*
Y034597D01*
X054251Y034531D01*
X054247Y034481D01*
X054241Y03445D01*
X053859D01*
Y034302D01*
X053777Y034294D01*
X053712Y034292D01*
X053489D01*
Y035062D01*
X053496Y035085D01*
X053503Y035116D01*
X053507Y035148D01*
X053508Y03518D01*
X053507Y035212D01*
X053503Y035244D01*
X053496Y035275D01*
X053486Y035306D01*
X053474Y035336D01*
X053459Y035364D01*
X053442Y035391D01*
X053422Y035417D01*
X053401Y035441D01*
X053377Y035462D01*
X053351Y035482D01*
X053324Y035499D01*
X053296Y035514D01*
X053266Y035526D01*
X053235Y035536D01*
X053204Y035543D01*
X053172Y035547D01*
X05314Y035548D01*
X053108Y035547D01*
X053076Y035543D01*
X053045Y035536D01*
X053014Y035526D01*
X052984Y035514D01*
X052956Y035499D01*
X052929Y035482D01*
X052903Y035462D01*
X052879Y035441D01*
X052858Y035417D01*
X052838Y035391D01*
X052821Y035364D01*
X052806Y035336D01*
X052794Y035306D01*
X052784Y035275D01*
X052777Y035244D01*
X052773Y035212D01*
X052772Y03518D01*
X052773Y035148D01*
X052777Y035116D01*
X052784Y035085D01*
X052791Y035062D01*
Y034292D01*
X051076D01*
X051017Y034337D01*
X051013Y034341D01*
X050946Y034459D01*
X050942Y034489D01*
X050945Y034504D01*
X05095Y034535D01*
X050951Y034568D01*
X05095Y0346D01*
X050945Y034632D01*
X050938Y034663D01*
X050929Y034694D01*
X050916Y034723D01*
X050912Y034732D01*
X050912Y034735D01*
Y036944D01*
X05094Y036972D01*
X050972Y036973D01*
X051004Y036977D01*
X051035Y036984D01*
X051066Y036994D01*
X051096Y037006D01*
X051124Y037021D01*
X051151Y037038D01*
X051177Y037058D01*
X051201Y037079D01*
X051222Y037103D01*
X051242Y037129D01*
X051259Y037156D01*
X051274Y037184D01*
X051286Y037214D01*
X051296Y037245D01*
X051303Y037276D01*
X051307Y037308D01*
X051308Y03734D01*
X051307Y037372D01*
X051303Y037404D01*
X051296Y037435D01*
X051286Y037466D01*
X051274Y037496D01*
X051269Y037505D01*
X051269Y037507D01*
Y0387D01*
X051269Y0387D01*
X051268Y038729D01*
X051264Y038757D01*
X051258Y038785D01*
X051249Y038813D01*
X051238Y038839D01*
X051225Y038865D01*
X05121Y038889D01*
X051192Y038912D01*
X051173Y038933D01*
X050777Y039328D01*
X050756Y039347D01*
X050733Y039365D01*
X050709Y03938D01*
X050684Y039393D01*
X050657Y039404D01*
X05063Y039413D01*
X050602Y039419D01*
X050573Y039423D01*
X050545Y039424D01*
X050545Y039424D01*
X049303D01*
Y039503D01*
X049115D01*
X049112Y039503D01*
X049073Y039517D01*
X049056Y039526D01*
X049019Y039663D01*
X049166Y039841D01*
X050541D01*
Y039989D01*
X050623Y039997D01*
X050688Y039998D01*
X053712D01*
X05378Y039997D01*
D02*
G37*
G36*
X054899Y034517D02*
X054905Y03445D01*
X054915Y034391D01*
X054928Y034339D01*
X054946Y034296D01*
X054968Y03426D01*
X054993Y034233D01*
X055023Y034213D01*
X055056Y034201D01*
X055094Y034197D01*
X054306D01*
X054344Y034201D01*
X054377Y034213D01*
X054407Y034233D01*
X054432Y03426D01*
X054454Y034296D01*
X054472Y034339D01*
X054485Y034391D01*
X054495Y03445D01*
X054501Y034517D01*
X054503Y034592D01*
X054897D01*
X054899Y034517D01*
D02*
G37*
G36*
X054111Y033492D02*
X054107Y033522D01*
X054095Y033548D01*
X054075Y033572D01*
X054048Y033592D01*
X054012Y033609D01*
X053969Y033623D01*
X053918Y033634D01*
X053859Y033642D01*
X053792Y033647D01*
X053717Y033648D01*
Y034042D01*
X053792Y034044D01*
X053918Y034056D01*
X053969Y034067D01*
X054012Y034081D01*
X054048Y034098D01*
X054075Y034119D01*
X054095Y034142D01*
X054107Y034169D01*
X054111Y034198D01*
Y033492D01*
D02*
G37*
G36*
X050293Y034169D02*
X050305Y034142D01*
X050325Y034119D01*
X050352Y034098D01*
X050388Y034081D01*
X050431Y034067D01*
X050482Y034056D01*
X050541Y034048D01*
X050608Y034044D01*
X050683Y034042D01*
Y033648D01*
X050608Y033647D01*
X050482Y033634D01*
X050431Y033623D01*
X050388Y033609D01*
X050352Y033592D01*
X050325Y033572D01*
X050305Y033548D01*
X050293Y033522D01*
X050289Y033492D01*
Y034198D01*
X050293Y034169D01*
D02*
G37*
G36*
X048111Y02527D02*
X04804Y025119D01*
X04803Y025128D01*
X047994Y025159D01*
X047989Y025163D01*
X047985Y025165D01*
X047982Y025166D01*
X047979Y025166D01*
X048065Y025307D01*
X048111Y02527D01*
D02*
G37*
G36*
X054266Y024841D02*
X054264Y024842D01*
X054261Y024843D01*
X054257Y024843D01*
X054245Y024844D01*
X054205Y024845D01*
X054191Y024845D01*
Y025003D01*
X054266Y025007D01*
Y024841D01*
D02*
G37*
D12*
X03265Y03701D02*
X03266D01*
X03273Y03694D01*
X034551Y036725D02*
X03527Y037445D01*
X03336Y036725D02*
X034551D01*
X032775Y03731D02*
X03336Y036725D01*
X03824Y02114D02*
Y0228D01*
X03787Y02317D02*
X03824Y0228D01*
X03401Y02317D02*
X03787D01*
X03109Y03761D02*
X03254D01*
X02894Y03976D02*
X03109Y03761D01*
X02768Y03976D02*
X02894D01*
X04574Y0452D02*
X05541D01*
X045492Y044952D02*
X04574Y0452D01*
X045492Y04409D02*
Y044952D01*
X05556Y04535D02*
Y04698D01*
X05541Y0452D02*
X05556Y04535D01*
Y04698D02*
X05598Y0474D01*
X05938D01*
X05346Y04831D02*
X05643D01*
X05641Y04821D02*
Y04829D01*
X05643Y04831D01*
X05938Y0474D02*
X05939Y04741D01*
X05314Y033875D02*
X05317Y033845D01*
X04451Y04167D02*
X04754D01*
X04793Y04128D01*
Y03959D02*
Y04128D01*
X03269Y03245D02*
Y03374D01*
X03713Y02444D02*
X03715Y02446D01*
Y02734D01*
X04042Y0214D02*
Y02246D01*
X0454Y02445D02*
X04686D01*
X0447Y02375D02*
X0454Y02445D01*
X0447Y02233D02*
Y02375D01*
X04298Y02061D02*
X0447Y02233D01*
X03877Y02061D02*
X04298D01*
X03824Y02114D02*
X03877Y02061D01*
X03558Y02668D02*
Y0276D01*
X03341Y02451D02*
X03558Y02668D01*
X03341Y02377D02*
Y02451D01*
Y02377D02*
X03401Y02317D01*
X0348Y02838D02*
X03558Y0276D01*
X03389Y02838D02*
X0348D01*
X03388Y02837D02*
X03389Y02838D01*
X04795Y02528D02*
X04799D01*
X048346Y024924D01*
X05435D01*
X048595Y03959D02*
X0486Y039595D01*
X04793Y03959D02*
X048595D01*
X048088Y035152D02*
X0487D01*
X04756Y03568D02*
X048088Y035152D01*
X04756Y03568D02*
Y03739D01*
X047765Y037595D01*
X0486D01*
Y037095D02*
X049745D01*
X0501Y03674D01*
Y03445D02*
Y03674D01*
X050582Y034568D02*
Y037778D01*
X050265Y038095D02*
X050582Y037778D01*
X0486Y038095D02*
X050265D01*
X05094Y03734D02*
Y0387D01*
X050545Y039095D02*
X05094Y0387D01*
X0486Y039095D02*
X050545D01*
X04449Y04012D02*
X04534D01*
X03273Y034887D02*
Y03694D01*
X03223Y03731D02*
X032775D01*
X03194Y03702D02*
X03223Y03731D01*
X03194Y03449D02*
Y03702D01*
Y03449D02*
X03269Y03374D01*
D13*
X033Y03047D02*
X03301Y03048D01*
X03274Y03047D02*
X033D01*
D17*
X017456Y02558D02*
X01793D01*
X017276Y0254D02*
X017456Y02558D01*
X01626Y0254D02*
X017276D01*
X029142Y0383D02*
X02972D01*
X03151Y03651D01*
Y03235D02*
Y03651D01*
X03113Y03197D02*
X03151Y03235D01*
X02697Y03197D02*
X03113D01*
X03073Y04565D02*
X05486D01*
X05487Y04564D01*
X05314Y033875D02*
Y03518D01*
X03027Y04519D02*
X03073Y04565D01*
X03027Y04132D02*
Y04519D01*
X02961Y04066D02*
X03027Y04132D01*
X02758Y04066D02*
X02961D01*
X02727Y04035D02*
X02758Y04066D01*
X02727Y03958D02*
Y04035D01*
Y03958D02*
X02757Y03928D01*
X02881D01*
X029142Y038948D01*
Y0383D02*
Y038948D01*
X01626Y0263D02*
X01832D01*
X01626D02*
X01626D01*
X01832D02*
X018665Y025955D01*
Y022945D02*
Y025955D01*
Y022945D02*
X01939Y02222D01*
X02444D01*
X02182Y0311D02*
X0261D01*
X02128D02*
X02182D01*
X02246Y02445D02*
X02917D01*
X02182Y02509D02*
X02246Y02445D01*
X02182Y02509D02*
Y0311D01*
X012595Y02535D02*
X01351D01*
X0125Y025255D02*
X012595Y02535D01*
X01745Y02463D02*
X01792Y0251D01*
X01686Y02463D02*
X01745D01*
X01656Y02433D02*
X01686Y02463D01*
X01656Y02306D02*
Y02433D01*
X01606Y02256D02*
X01656Y02306D01*
X01459Y02256D02*
X01606D01*
X01351Y02364D02*
X01459Y02256D01*
X01351Y02364D02*
Y02535D01*
X0261Y0311D02*
X02697Y03197D01*
X02131Y0301D02*
X02132Y03011D01*
X01944Y0301D02*
X02131D01*
X01758Y02242D02*
X01784D01*
X01804Y02222D01*
Y019785D02*
Y02222D01*
Y019785D02*
X018505Y01932D01*
X02079D01*
X01834Y02012D02*
Y02132D01*
Y02012D02*
X018665Y019795D01*
X01889D01*
D23*
X03229Y03458D02*
X03301Y03386D01*
X03229Y03458D02*
Y03691D01*
X03301Y03149D02*
Y03386D01*
X01743Y03449D02*
X01757Y03435D01*
Y03151D02*
Y03435D01*
Y03151D02*
X01793Y03115D01*
X0189D01*
X03482Y02788D02*
X03521Y02749D01*
X03333Y02788D02*
X03482D01*
X03301Y0282D02*
X03333Y02788D01*
X03301Y0282D02*
Y03048D01*
Y03149D01*
X03875Y0417D02*
X03974Y04071D01*
X03591Y0417D02*
X03875D01*
X03574Y04187D02*
X03591Y0417D01*
X01743Y03449D02*
Y03495D01*
X01362Y03049D02*
X01368Y03043D01*
X0304Y03038D02*
X03044Y03042D01*
X03194D01*
X03301Y03149D01*
X03574Y04187D02*
Y04274D01*
X03575Y04275D01*
D38*
X01626Y0254D02*
D03*
Y0263D02*
D03*
X01351Y02535D02*
D03*
Y02625D02*
D03*
D142*
X03975Y02481D02*
X04115D01*
X03941Y02447D02*
X03975Y02481D01*
X03941Y0214D02*
Y02447D01*
X0381Y024238D02*
Y0258D01*
X03755Y023688D02*
X0381Y024238D01*
X034222Y023688D02*
X03755D01*
X03911Y02395D02*
Y0258D01*
X03863Y02347D02*
X03911Y02395D01*
X03413Y02347D02*
X03863D01*
X045795Y04362D02*
X04598Y043805D01*
X04293Y04362D02*
X045795D01*
X04266Y04335D02*
X04293Y04362D01*
X04266Y041928D02*
Y04335D01*
X042266Y041535D02*
X04266Y041928D01*
X04226Y041535D02*
X042266D01*
X04226Y0403D02*
Y041535D01*
X04598Y043805D02*
Y044584D01*
X046246Y04485D01*
X05557D01*
X05595Y04523D01*
Y04641D01*
X05604Y0465D01*
X0382Y03632D02*
Y03663D01*
X03754Y03566D02*
X0382Y03632D01*
X03471Y03084D02*
X03761D01*
X0376Y03085D02*
X03761Y03084D01*
X0376Y03121D02*
X03761Y03122D01*
X03442Y03121D02*
X0376D01*
X034143Y030086D02*
Y032643D01*
X033925Y029995D02*
Y032755D01*
X033707Y029393D02*
Y033107D01*
X033489Y029271D02*
Y033289D01*
X03327Y02918D02*
Y0336D01*
X03759Y03164D02*
X03762Y03167D01*
X03442Y03164D02*
X03759D01*
X033489Y029271D02*
X03385Y02891D01*
X033489Y033289D02*
X03369Y03349D01*
X03327Y02918D02*
X03374Y02871D01*
X034143Y032643D02*
X034352Y032852D01*
X034143Y030086D02*
X034878Y02935D01*
X033925Y032755D02*
X03424Y03307D01*
X033925Y029995D02*
X034792Y029128D01*
X033707Y033107D02*
X03399Y03339D01*
X033707Y029393D02*
X03389Y02921D01*
X03327Y0336D02*
X03334Y03367D01*
X036446Y026129D02*
Y028154D01*
X03525Y02935D02*
X036446Y028154D01*
X034858Y024541D02*
X036446Y026129D01*
X034858Y024352D02*
Y024541D01*
Y024352D02*
X03514Y02407D01*
X03542D01*
X034878Y02935D02*
X03525D01*
X034352Y032852D02*
X03483D01*
X035148Y03317D01*
X03538D01*
X036228Y02622D02*
Y02798D01*
X03508Y029128D02*
X036228Y02798D01*
X034792Y029128D02*
X03508D01*
X035252Y033582D02*
Y03386D01*
X03474Y03307D02*
X035252Y033582D01*
X03424Y03307D02*
X03474D01*
X03443Y024422D02*
X036228Y02622D01*
X03443Y02414D02*
Y024422D01*
X03389Y02921D02*
X03423D01*
X03399Y03339D02*
Y0353D01*
X03385Y02891D02*
X03499D01*
X03484Y02871D02*
X03578Y02777D01*
X03374Y02871D02*
X03484D01*
X0351Y03417D02*
X04138D01*
X03478Y03439D02*
X04161D01*
X04138Y03417D02*
X04179Y03376D01*
X04161Y03439D02*
X04203Y03397D01*
X04179Y02545D02*
Y03376D01*
X04203Y02525D02*
Y03397D01*
X04115Y02481D02*
X04179Y02545D01*
X041282Y024502D02*
X04203Y02525D01*
X040642Y024502D02*
X041282D01*
X04042Y02428D02*
X040642Y024502D01*
X04042Y02246D02*
Y02428D01*
X03455Y03371D02*
Y03416D01*
X03478Y03439D01*
X03489Y03396D02*
X0351Y03417D01*
X03489Y03353D02*
Y03396D01*
X03475Y03339D02*
X03489Y03353D01*
X034268Y03339D02*
X03475D01*
X034858Y034908D02*
X03511Y03516D01*
X0482Y02846D02*
X04862D01*
X04829Y02891D02*
X0486D01*
X048198Y029002D02*
X04829Y02891D01*
X048198Y029002D02*
Y033322D01*
X04612Y0354D02*
X048198Y033322D01*
X03471Y0354D02*
X04612D01*
X03452Y03521D02*
X03471Y0354D01*
X03452Y03491D02*
Y03521D01*
X03435Y03566D02*
X03754D01*
X03399Y0353D02*
X03435Y03566D01*
X04798Y02868D02*
X0482Y02846D01*
X04798Y02868D02*
Y03322D01*
X04604Y03516D02*
X04798Y03322D01*
X03511Y03516D02*
X04604D01*
X04555Y03146D02*
Y03436D01*
X04503Y03488D02*
X04555Y03436D01*
X03521Y03488D02*
X04503D01*
X034Y03589D02*
X035838D01*
X033677Y035567D02*
X034Y03589D01*
X033677Y03484D02*
Y035567D01*
X0381Y037162D02*
X03874Y037802D01*
X03713Y037162D02*
X0381D01*
X03814Y03751D02*
Y038D01*
X03801Y03738D02*
X03814Y03751D01*
X03704Y03738D02*
X03801D01*
X036827Y036859D02*
X03713Y037162D01*
X036827Y036115D02*
Y036859D01*
X0366Y035888D02*
X036827Y036115D01*
X03584Y035888D02*
X0366D01*
X03655Y03689D02*
X03704Y03738D01*
X035838Y03589D02*
X03584Y035888D01*
X03655Y03623D02*
Y03689D01*
X03984Y03953D02*
X04015Y03984D01*
X03894Y03953D02*
X03984D01*
X03874Y03933D02*
X03894Y03953D01*
X03874Y037802D02*
Y03933D01*
X04015Y03984D02*
Y04112D01*
X03401Y0239D02*
X034222Y023688D01*
X03401Y0239D02*
Y02431D01*
X03601Y02631D01*
Y02789D01*
X03499Y02891D02*
X03601Y02789D01*
X03369Y03349D02*
Y03367D01*
X03372Y02388D02*
X03413Y02347D01*
X03372Y02388D02*
Y0244D01*
X03578Y02646D01*
Y02777D01*
X04183Y04156D02*
X04234Y04207D01*
X04183Y04005D02*
Y04156D01*
X04234Y04436D02*
Y04481D01*
X04138Y0434D02*
X04234Y04436D01*
X04138Y04009D02*
Y0434D01*
X034145Y036165D02*
X035955D01*
X03394Y03637D02*
X034145Y036165D01*
X03615Y03764D02*
Y038D01*
X035955Y037445D02*
X03615Y03764D01*
X035955Y036165D02*
Y037445D01*
D143*
X05317Y033845D02*
X0547D01*
X0497D02*
X05317D01*
X0547D02*
Y040445D01*
X0497D02*
X0547D01*
X02445Y04645D02*
X0281D01*
X02345D02*
X02445D01*
X023148Y046752D02*
X02345Y04645D01*
X021344Y046752D02*
X023148D01*
X018541Y04365D02*
X018588Y043603D01*
X01675Y04365D02*
X018541D01*
X01675Y04275D02*
Y04365D01*
X01585Y04185D02*
X01675Y04275D01*
X01351Y04185D02*
X01585D01*
X01351Y043425D02*
Y04419D01*
X01275Y04495D02*
X01351Y04419D01*
X01675Y04532D02*
Y04565D01*
X01638Y04495D02*
X01675Y04532D01*
X01525Y04495D02*
X01638D01*
D147*
X03815Y039D02*
Y03984D01*
X03764Y04035D02*
X03815Y03984D01*
X03445Y04035D02*
X03764D01*
X03277D02*
X03445D01*
X032D02*
X03277D01*
X031194Y041156D02*
X032Y04035D01*
X031194Y041156D02*
Y04255D01*
D148*
X02575Y0256D02*
X0259Y02575D01*
Y0298D01*
X0272Y0311D01*
X03277Y04035D02*
X03281Y04031D01*
X03232Y03215D02*
Y0336D01*
X03127Y0311D02*
X03232Y03215D01*
X0272Y0311D02*
X03127D01*
D149*
X01672Y03459D02*
X01696Y03435D01*
X01626Y0263D02*
X01696Y027D01*
Y03435D01*
X01672Y03459D02*
X01688D01*
X01616Y0253D02*
X01626Y0254D01*
X0154Y0253D02*
X01616D01*
X0154Y0263D02*
X01626D01*
X01535Y02625D02*
X0154Y0263D01*
X01351Y02625D02*
X01535D01*
X013455Y026305D02*
X01351Y02625D01*
X0125Y026305D02*
X013455D01*
D151*
X01362Y03049D02*
Y03418D01*
Y02997D02*
Y03049D01*
X0125Y03475D02*
X01305D01*
X01362Y03418D01*
X01315Y0295D02*
X01362Y02997D01*
X0125Y0295D02*
X01315D01*
D153*
X01928Y03791D02*
D03*
X04023Y04572D02*
D03*
X04907Y04616D02*
D03*
D154*
X03941Y0214D02*
D03*
X04042D02*
D03*
X0414D02*
D03*
X0409Y04415D02*
D03*
X03989D02*
D03*
X0381Y0258D02*
D03*
X03911D02*
D03*
X04009D02*
D03*
X0411D02*
D03*
D155*
X0605Y027337D02*
D03*
Y025337D02*
D03*
X0585D02*
D03*
Y027337D02*
D03*
X0605Y0432D02*
D03*
Y0412D02*
D03*
X0585D02*
D03*
Y0432D02*
D03*
D156*
X0595Y026337D02*
D03*
Y0422D02*
D03*
D157*
X0308Y043337D02*
D03*
Y042944D02*
D03*
Y04255D02*
D03*
X031194D02*
D03*
Y042944D02*
D03*
Y043337D02*
D03*
X060236Y048425D02*
D03*
X059941Y049016D02*
D03*
X059646Y048425D02*
D03*
X05935Y049016D02*
D03*
X059055Y048425D02*
D03*
X05876Y049016D02*
D03*
X058465Y048425D02*
D03*
X058169Y049016D02*
D03*
X057874Y048425D02*
D03*
X057579Y049016D02*
D03*
X057283Y048425D02*
D03*
X056988Y049016D02*
D03*
X056398D02*
D03*
X054035D02*
D03*
X051378Y048425D02*
D03*
X051083Y049016D02*
D03*
X049902D02*
D03*
X049606Y048425D02*
D03*
X049311Y049016D02*
D03*
X049016Y048425D02*
D03*
X04872Y049016D02*
D03*
X048425Y048425D02*
D03*
X04813Y049016D02*
D03*
X046949D02*
D03*
X046654Y048425D02*
D03*
X042815Y049016D02*
D03*
X039862D02*
D03*
X039567Y048425D02*
D03*
X039272Y049016D02*
D03*
X038976Y048425D02*
D03*
X038681Y049016D02*
D03*
X038386Y048425D02*
D03*
X038091Y049016D02*
D03*
X037795Y048425D02*
D03*
X0375Y049016D02*
D03*
X037205Y048425D02*
D03*
X036909Y049016D02*
D03*
X036614Y048425D02*
D03*
X036319Y049016D02*
D03*
X036024Y048425D02*
D03*
X035728Y049016D02*
D03*
X035433Y048425D02*
D03*
X035138Y049016D02*
D03*
X034843Y048425D02*
D03*
X034547Y049016D02*
D03*
X034252Y048425D02*
D03*
X033957Y049016D02*
D03*
X033661Y048425D02*
D03*
X033366Y049016D02*
D03*
X033071Y048425D02*
D03*
X032776Y049016D02*
D03*
X03248Y048425D02*
D03*
X032185Y049016D02*
D03*
X031594D02*
D03*
X031004D02*
D03*
X030413D02*
D03*
X030118Y048425D02*
D03*
X029823Y049016D02*
D03*
X029528Y048425D02*
D03*
X029232Y049016D02*
D03*
X028937Y048425D02*
D03*
X028642Y049016D02*
D03*
X028051D02*
D03*
X027461D02*
D03*
X027165Y048425D02*
D03*
X02687Y049016D02*
D03*
X026575Y048425D02*
D03*
X02628Y049016D02*
D03*
X025984Y048425D02*
D03*
X025689Y049016D02*
D03*
X025394Y048425D02*
D03*
X025098Y049016D02*
D03*
X024508D02*
D03*
X023917D02*
D03*
X023622Y048425D02*
D03*
X023327Y049016D02*
D03*
X023031Y048425D02*
D03*
X022736Y049016D02*
D03*
X022146D02*
D03*
X021555D02*
D03*
X020965D02*
D03*
X020374D02*
D03*
X019783D02*
D03*
X019193D02*
D03*
X018602D02*
D03*
X018012D02*
D03*
X017421D02*
D03*
X016831D02*
D03*
X01624D02*
D03*
X01565D02*
D03*
X015059D02*
D03*
X014468D02*
D03*
X014173Y048425D02*
D03*
X013878Y049016D02*
D03*
X013583Y048425D02*
D03*
X013287Y049016D02*
D03*
X012992Y048425D02*
D03*
X061024Y023622D02*
D03*
Y021654D02*
D03*
X060039Y023622D02*
D03*
X060532Y022638D02*
D03*
X060039Y021654D02*
D03*
X060532Y020669D02*
D03*
X060039Y019685D02*
D03*
X059055Y023622D02*
D03*
X059547Y022638D02*
D03*
X059055Y021654D02*
D03*
X059547Y020669D02*
D03*
X059055Y019685D02*
D03*
X058071Y023622D02*
D03*
X058563Y022638D02*
D03*
X058071Y021654D02*
D03*
X058563Y020669D02*
D03*
X058071Y019685D02*
D03*
X057087Y023622D02*
D03*
X057579Y022638D02*
D03*
X057087Y021654D02*
D03*
X057579Y020669D02*
D03*
X057087Y019685D02*
D03*
X056102Y023622D02*
D03*
X056594Y022638D02*
D03*
X056102Y021654D02*
D03*
X056594Y020669D02*
D03*
X056102Y019685D02*
D03*
X05561Y022638D02*
D03*
X055118Y021654D02*
D03*
X05561Y020669D02*
D03*
X055118Y019685D02*
D03*
X054626Y022638D02*
D03*
X054134Y021654D02*
D03*
X054626Y020669D02*
D03*
X054134Y019685D02*
D03*
X053642Y022638D02*
D03*
X05315Y021654D02*
D03*
X053642Y020669D02*
D03*
X05315Y019685D02*
D03*
X052657Y022638D02*
D03*
X052165Y021654D02*
D03*
X052657Y020669D02*
D03*
X052165Y019685D02*
D03*
X051673Y022638D02*
D03*
X051181Y021654D02*
D03*
X051673Y020669D02*
D03*
X051181Y019685D02*
D03*
X050689Y022638D02*
D03*
X050197Y021654D02*
D03*
X050689Y020669D02*
D03*
X050197Y019685D02*
D03*
X049705Y022638D02*
D03*
X049213Y021654D02*
D03*
X049705Y020669D02*
D03*
X049213Y019685D02*
D03*
X04872Y022638D02*
D03*
X048228Y021654D02*
D03*
X04872Y020669D02*
D03*
X048228Y019685D02*
D03*
X047736Y022638D02*
D03*
X047244Y021654D02*
D03*
X047736Y020669D02*
D03*
X047244Y019685D02*
D03*
X04626Y023622D02*
D03*
X046752Y022638D02*
D03*
X04626Y021654D02*
D03*
X046752Y020669D02*
D03*
X04626Y019685D02*
D03*
X045276Y023622D02*
D03*
X045768Y022638D02*
D03*
X045276Y021654D02*
D03*
X045768Y020669D02*
D03*
X045276Y019685D02*
D03*
X044783Y020669D02*
D03*
X044291Y019685D02*
D03*
X043799Y020669D02*
D03*
X043307Y019685D02*
D03*
X042323Y023622D02*
D03*
X042815Y022638D02*
D03*
X042323Y021654D02*
D03*
Y019685D02*
D03*
X041339Y023622D02*
D03*
X041831Y022638D02*
D03*
X041339Y019685D02*
D03*
X040354D02*
D03*
X03937D02*
D03*
X038386D02*
D03*
X037402D02*
D03*
X036417D02*
D03*
X035433D02*
D03*
X034449D02*
D03*
X033465Y021654D02*
D03*
Y019685D02*
D03*
X032972Y022638D02*
D03*
X03248Y021654D02*
D03*
Y019685D02*
D03*
X031496Y023622D02*
D03*
X031988Y022638D02*
D03*
X031496Y021654D02*
D03*
Y019685D02*
D03*
X030512Y023622D02*
D03*
X031004Y022638D02*
D03*
X030512Y021654D02*
D03*
Y019685D02*
D03*
X029528Y023622D02*
D03*
X03002Y022638D02*
D03*
X029528Y021654D02*
D03*
Y019685D02*
D03*
X028543Y023622D02*
D03*
X029035Y022638D02*
D03*
X028543Y021654D02*
D03*
Y019685D02*
D03*
X028051Y022638D02*
D03*
X027559Y021654D02*
D03*
Y019685D02*
D03*
X027067Y022638D02*
D03*
X026575Y021654D02*
D03*
Y019685D02*
D03*
X026083Y022638D02*
D03*
X025591Y021654D02*
D03*
Y019685D02*
D03*
X025098Y022638D02*
D03*
X023622Y021654D02*
D03*
X061024Y04626D02*
D03*
Y044291D02*
D03*
Y042323D02*
D03*
Y040354D02*
D03*
Y038386D02*
D03*
Y036417D02*
D03*
Y034449D02*
D03*
Y03248D02*
D03*
Y030512D02*
D03*
Y028543D02*
D03*
Y026575D02*
D03*
Y024606D02*
D03*
X060532Y047244D02*
D03*
X060039Y04626D02*
D03*
X060532Y045276D02*
D03*
X060039Y044291D02*
D03*
Y040354D02*
D03*
X060532Y03937D02*
D03*
X060039Y038386D02*
D03*
X060532Y037402D02*
D03*
X060039Y036417D02*
D03*
X060532Y035433D02*
D03*
X060039Y034449D02*
D03*
X060532Y033465D02*
D03*
X060039Y03248D02*
D03*
X060532Y031496D02*
D03*
X060039Y030512D02*
D03*
X060532Y029528D02*
D03*
X060039Y028543D02*
D03*
Y024606D02*
D03*
X059547Y045276D02*
D03*
X059055Y044291D02*
D03*
X059547Y043307D02*
D03*
Y041339D02*
D03*
X059055Y040354D02*
D03*
X059547Y03937D02*
D03*
X059055Y038386D02*
D03*
X059547Y037402D02*
D03*
X059055Y036417D02*
D03*
X059547Y035433D02*
D03*
X059055Y034449D02*
D03*
X059547Y033465D02*
D03*
X059055Y03248D02*
D03*
X059547Y031496D02*
D03*
X059055Y030512D02*
D03*
X059547Y029528D02*
D03*
X059055Y028543D02*
D03*
X059547Y027559D02*
D03*
X059055Y024606D02*
D03*
X058071Y044291D02*
D03*
Y040354D02*
D03*
X058563Y03937D02*
D03*
X058071Y038386D02*
D03*
X058563Y037402D02*
D03*
X058071Y036417D02*
D03*
X058563Y035433D02*
D03*
X058071Y034449D02*
D03*
X058563Y033465D02*
D03*
X058071Y03248D02*
D03*
X058563Y031496D02*
D03*
X058071Y030512D02*
D03*
X058563Y029528D02*
D03*
X058071Y028543D02*
D03*
Y024606D02*
D03*
X057087Y044291D02*
D03*
X057579Y043307D02*
D03*
Y041339D02*
D03*
X057087Y040354D02*
D03*
X057579Y03937D02*
D03*
X057087Y038386D02*
D03*
X057579Y037402D02*
D03*
X057087Y036417D02*
D03*
X057579Y035433D02*
D03*
X057087Y034449D02*
D03*
X057579Y033465D02*
D03*
X057087Y03248D02*
D03*
X057579Y031496D02*
D03*
X057087Y030512D02*
D03*
X057579Y029528D02*
D03*
X057087Y028543D02*
D03*
X057579Y027559D02*
D03*
X057087Y024606D02*
D03*
X056102Y044291D02*
D03*
X056594Y043307D02*
D03*
Y041339D02*
D03*
X056102Y034449D02*
D03*
X056594Y033465D02*
D03*
Y029528D02*
D03*
X056102Y028543D02*
D03*
X056594Y025591D02*
D03*
X056102Y024606D02*
D03*
X055118Y044291D02*
D03*
X05561Y043307D02*
D03*
X055118Y03248D02*
D03*
Y030512D02*
D03*
X05561Y029528D02*
D03*
X055118Y028543D02*
D03*
X05561Y025591D02*
D03*
X054626Y047244D02*
D03*
X054134Y04626D02*
D03*
Y044291D02*
D03*
X054626Y043307D02*
D03*
Y041339D02*
D03*
X054134Y03248D02*
D03*
X054626Y031496D02*
D03*
X054134Y030512D02*
D03*
X054626Y029528D02*
D03*
X054134Y028543D02*
D03*
X054626Y025591D02*
D03*
X05315Y044291D02*
D03*
X053642Y043307D02*
D03*
X05315Y036417D02*
D03*
Y03248D02*
D03*
X053642Y031496D02*
D03*
X05315Y030512D02*
D03*
X052165Y042323D02*
D03*
X052657Y041339D02*
D03*
Y03937D02*
D03*
X052165Y038386D02*
D03*
X052657Y037402D02*
D03*
X052165Y03248D02*
D03*
X052657Y031496D02*
D03*
X052165Y030512D02*
D03*
Y028543D02*
D03*
Y026575D02*
D03*
X051181Y042323D02*
D03*
X051673Y041339D02*
D03*
Y03937D02*
D03*
X051181Y03248D02*
D03*
X051673Y031496D02*
D03*
X051181Y030512D02*
D03*
X051673Y029528D02*
D03*
X051181Y028543D02*
D03*
X051673Y027559D02*
D03*
X051181Y026575D02*
D03*
X051673Y025591D02*
D03*
X050197Y042323D02*
D03*
X050689Y041339D02*
D03*
X050197Y03248D02*
D03*
X050689Y031496D02*
D03*
X050197Y030512D02*
D03*
X050689Y029528D02*
D03*
X050197Y028543D02*
D03*
X049213Y042323D02*
D03*
X049705Y041339D02*
D03*
X049213Y03248D02*
D03*
X049705Y031496D02*
D03*
X049213Y030512D02*
D03*
X048228Y042323D02*
D03*
X04872Y041339D02*
D03*
X048228Y036417D02*
D03*
X04872Y031496D02*
D03*
X047244Y03248D02*
D03*
X046752Y037402D02*
D03*
X04626Y036417D02*
D03*
X046752Y035433D02*
D03*
Y033465D02*
D03*
X04626Y03248D02*
D03*
X046752Y031496D02*
D03*
Y025591D02*
D03*
X045768Y03937D02*
D03*
X045276Y036417D02*
D03*
X044291Y038386D02*
D03*
Y036417D02*
D03*
X044783Y033465D02*
D03*
X044291Y03248D02*
D03*
X044783Y027559D02*
D03*
X044291Y024606D02*
D03*
X043307Y038386D02*
D03*
X043799Y037402D02*
D03*
X043307Y036417D02*
D03*
X043799Y031496D02*
D03*
X043307Y030512D02*
D03*
Y028543D02*
D03*
X042323Y038386D02*
D03*
X042815Y037402D02*
D03*
X042323Y036417D02*
D03*
X042815Y031496D02*
D03*
Y029528D02*
D03*
Y027559D02*
D03*
Y025591D02*
D03*
X042323Y024606D02*
D03*
X041831Y037402D02*
D03*
X041339Y036417D02*
D03*
X040354Y030512D02*
D03*
X040846Y029528D02*
D03*
X040354Y028543D02*
D03*
X040846Y027559D02*
D03*
X03937Y042323D02*
D03*
Y030512D02*
D03*
X039862Y029528D02*
D03*
X03937Y028543D02*
D03*
X01944Y0301D02*
D03*
X01743Y03495D02*
D03*
X03445Y04035D02*
D03*
D158*
X03002Y03415D02*
D03*
X02902D02*
D03*
D159*
X0281Y04645D02*
D03*
X02445D02*
D03*
D160*
X0281Y04795D02*
D03*
X02445D02*
D03*
D161*
X018588Y043603D02*
D03*
D162*
X021344D02*
D03*
Y046752D02*
D03*
X018588D02*
D03*
D163*
X01675Y04565D02*
D03*
Y04365D02*
D03*
X0154Y0233D02*
D03*
Y0243D02*
D03*
Y0253D02*
D03*
X03442Y0214D02*
D03*
X03542D02*
D03*
X03642D02*
D03*
D164*
X01275Y04495D02*
D03*
X01525D02*
D03*
D165*
X0125Y03375D02*
D03*
Y03475D02*
D03*
Y03575D02*
D03*
X0152Y0285D02*
D03*
X0125D02*
D03*
Y0295D02*
D03*
Y0305D02*
D03*
D166*
Y03675D02*
D03*
X0152Y0295D02*
D03*
X0125Y0315D02*
D03*
D167*
X01351Y043425D02*
D03*
X0135Y02137D02*
D03*
D168*
X01351Y04185D02*
D03*
Y040275D02*
D03*
Y0387D02*
D03*
X0135Y019795D02*
D03*
D169*
X0189Y03215D02*
D03*
Y03115D02*
D03*
X0159D02*
D03*
D170*
Y03215D02*
D03*
D171*
X0154Y0263D02*
D03*
D172*
X0125Y026305D02*
D03*
D173*
Y025255D02*
D03*
Y024255D02*
D03*
D174*
X0278Y02351D02*
D03*
X0268D02*
D03*
X0258D02*
D03*
X0248D02*
D03*
X0238D02*
D03*
X0228D02*
D03*
X0218D02*
D03*
D175*
X0208D02*
D03*
D176*
X03715Y039D02*
D03*
X03815D02*
D03*
X03615D02*
D03*
X03814Y038D02*
D03*
X03715D02*
D03*
X03615D02*
D03*
D177*
X03742Y0214D02*
D03*
D178*
X01793Y02558D02*
D03*
X03229Y03691D02*
D03*
X04226Y0403D02*
D03*
X03713Y02444D02*
D03*
X04234Y04207D02*
D03*
X04183Y04005D02*
D03*
X04138Y04009D02*
D03*
X03542Y02407D02*
D03*
X03443Y02414D02*
D03*
X01792Y0251D02*
D03*
X029142Y0383D02*
D03*
X02128Y0311D02*
D03*
X02768Y03976D02*
D03*
X02132Y03011D02*
D03*
X04015Y04112D02*
D03*
X01688Y03459D02*
D03*
X01758Y02242D02*
D03*
X02079Y01932D02*
D03*
X01889Y019795D02*
D03*
X01834Y02132D02*
D03*
X0304Y03038D02*
D03*
X03575Y04275D02*
D03*
X03974Y04071D02*
D03*
D179*
X01174Y0491D02*
D03*
X02365Y01944D02*
D03*
X06156D02*
D03*
Y04911D02*
D03*
X04534Y02646D02*
D03*
X03381D02*
D03*
X04539Y03777D02*
D03*
X03381D02*
D03*
D180*
X025394Y04252D02*
D03*
Y041929D02*
D03*
Y041339D02*
D03*
Y040748D02*
D03*
Y040157D02*
D03*
Y039567D02*
D03*
Y038976D02*
D03*
X024803Y04252D02*
D03*
Y041929D02*
D03*
Y041339D02*
D03*
Y040748D02*
D03*
Y040157D02*
D03*
Y039567D02*
D03*
Y038976D02*
D03*
Y038386D02*
D03*
X024213Y04252D02*
D03*
Y041929D02*
D03*
Y041339D02*
D03*
Y040748D02*
D03*
Y040157D02*
D03*
Y039567D02*
D03*
Y038976D02*
D03*
Y038386D02*
D03*
Y037795D02*
D03*
Y037205D02*
D03*
Y036614D02*
D03*
Y036024D02*
D03*
Y035433D02*
D03*
Y034843D02*
D03*
X023622Y04252D02*
D03*
Y041929D02*
D03*
Y041339D02*
D03*
Y040748D02*
D03*
Y038976D02*
D03*
Y038386D02*
D03*
Y037795D02*
D03*
X023031Y04252D02*
D03*
Y041929D02*
D03*
Y041339D02*
D03*
Y040748D02*
D03*
Y038976D02*
D03*
Y038386D02*
D03*
Y037795D02*
D03*
X022441Y04311D02*
D03*
Y04252D02*
D03*
Y041929D02*
D03*
Y041339D02*
D03*
Y040748D02*
D03*
Y038976D02*
D03*
Y038386D02*
D03*
Y037795D02*
D03*
X02185Y04252D02*
D03*
Y041929D02*
D03*
Y041339D02*
D03*
Y040748D02*
D03*
Y040157D02*
D03*
Y039567D02*
D03*
Y038976D02*
D03*
Y038386D02*
D03*
Y037795D02*
D03*
X02126Y04252D02*
D03*
Y041929D02*
D03*
Y041339D02*
D03*
Y040748D02*
D03*
Y040157D02*
D03*
Y039567D02*
D03*
X018701Y047736D02*
D03*
X018209D02*
D03*
X017717D02*
D03*
Y047244D02*
D03*
Y046752D02*
D03*
X017224Y047736D02*
D03*
Y047244D02*
D03*
Y046752D02*
D03*
X016732Y047736D02*
D03*
Y047244D02*
D03*
Y046752D02*
D03*
X01624Y047736D02*
D03*
Y047244D02*
D03*
Y046752D02*
D03*
D181*
X03265Y03701D02*
D03*
X05604Y0465D02*
D03*
X05641Y04821D02*
D03*
X05487Y04564D02*
D03*
X0382Y03663D02*
D03*
X05346Y04831D02*
D03*
X05939Y04741D02*
D03*
X045492Y04409D02*
D03*
X05314Y03518D02*
D03*
X04451Y04167D02*
D03*
X0376Y03085D02*
D03*
X03761Y03122D02*
D03*
X03471Y03084D02*
D03*
X03442Y03121D02*
D03*
X03762Y03167D02*
D03*
X03442Y03164D02*
D03*
X03423Y02921D02*
D03*
X03715Y02734D02*
D03*
X03455Y03371D02*
D03*
X034268Y03339D02*
D03*
X034858Y034908D02*
D03*
X02444Y02222D02*
D03*
X04862Y02846D02*
D03*
X0486Y02891D02*
D03*
X04555Y03146D02*
D03*
X03452Y03491D02*
D03*
X03521Y03488D02*
D03*
Y02749D02*
D03*
X03369Y03367D02*
D03*
X03334D02*
D03*
X04234Y04481D02*
D03*
X03388Y02837D02*
D03*
X04686Y02445D02*
D03*
X04795Y02528D02*
D03*
X05435Y024924D02*
D03*
X03538Y03317D02*
D03*
X035252Y03386D02*
D03*
X04793Y03959D02*
D03*
X0487Y035152D02*
D03*
X0501Y03445D02*
D03*
X050582Y034568D02*
D03*
X05094Y03734D02*
D03*
X04449Y04012D02*
D03*
X04534D02*
D03*
X03274Y03047D02*
D03*
X02917Y02445D02*
D03*
X03254Y03761D02*
D03*
X03273Y034887D02*
D03*
X02575Y0256D02*
D03*
X03394Y03637D02*
D03*
X033677Y03484D02*
D03*
X03527Y037445D02*
D03*
X03655Y03623D02*
D03*
X035955Y036165D02*
D03*
X03232Y0336D02*
D03*
X03269Y03245D02*
D03*
D182*
X05616Y0329D02*
D03*
X0249Y03019D02*
D03*
D183*
X05617Y03583D02*
D03*
X02489Y02726D02*
D03*
D184*
X0486Y037095D02*
D03*
Y037595D02*
D03*
Y038095D02*
D03*
Y038595D02*
D03*
Y039095D02*
D03*
Y039595D02*
D03*
D185*
X0497Y033845D02*
D03*
Y040445D02*
D03*
X0547Y033845D02*
D03*
Y040445D02*
D03*
M02*
