G04*
G04 #@! TF.GenerationSoftware,Altium Limited,Altium Designer,18.1.6 (161)*
G04*
G04 Layer_Color=0*
%FSTAX24Y24*%
%MOIN*%
G70*
G01*
G75*
%ADD13C,0.0100*%
%ADD21C,0.0059*%
D13*
X026641Y031836D02*
Y035064D01*
X028059D01*
Y031836D02*
Y035064D01*
X026641Y031836D02*
X028059D01*
D21*
X042818Y044524D02*
X043921D01*
X042818D02*
Y045076D01*
X043921D01*
Y044524D02*
Y045076D01*
X043438Y041829D02*
Y042931D01*
X043989D01*
Y041829D02*
Y042931D01*
X043438Y041829D02*
X043989D01*
X042724D02*
Y042931D01*
X043276D01*
Y041829D02*
Y042931D01*
X042724Y041829D02*
X043276D01*
X040124Y032734D02*
Y033837D01*
X040676D01*
Y032734D02*
Y033837D01*
X040124Y032734D02*
X040676D01*
X039424D02*
Y033837D01*
X039976D01*
Y032734D02*
Y033837D01*
X039424Y032734D02*
X039976D01*
X041049Y031875D02*
X042151D01*
X041049D02*
Y032426D01*
X042151D01*
Y031875D02*
Y032426D01*
X053868Y027357D02*
X054971D01*
X053868D02*
Y027909D01*
X054971D01*
Y027357D02*
Y027909D01*
X054468Y026062D02*
X055571D01*
X054468D02*
Y026613D01*
X055571D01*
Y026062D02*
Y026613D01*
X056176Y026062D02*
Y027164D01*
X055624Y026062D02*
X056176D01*
X055624D02*
Y027164D01*
X056176D01*
X054376Y026062D02*
Y027164D01*
X053824Y026062D02*
X054376D01*
X053824D02*
Y027164D01*
X054376D01*
X047833Y034524D02*
X048935D01*
X047833D02*
Y035076D01*
X048935D01*
Y034524D02*
Y035076D01*
X048824Y032869D02*
Y033971D01*
X049376D01*
Y032869D02*
Y033971D01*
X048824Y032869D02*
X049376D01*
X055124Y039599D02*
Y040701D01*
X055676D01*
Y039599D02*
Y040701D01*
X055124Y039599D02*
X055676D01*
X054424D02*
Y040701D01*
X054976D01*
Y039599D02*
Y040701D01*
X054424Y039599D02*
X054976D01*
X029499Y044628D02*
X030601D01*
Y044077D02*
Y044628D01*
X029499Y044077D02*
X030601D01*
X029499D02*
Y044628D01*
X026526Y033949D02*
Y035051D01*
X025974Y033949D02*
X026526D01*
X025974D02*
Y035051D01*
X026526D01*
X025974Y031849D02*
Y032951D01*
X026526D01*
Y031849D02*
Y032951D01*
X025974Y031849D02*
X026526D01*
X049124Y034529D02*
Y035631D01*
X049676D01*
Y034529D02*
Y035631D01*
X049124Y034529D02*
X049676D01*
X050524D02*
Y035631D01*
X051076D01*
Y034529D02*
Y035631D01*
X050524Y034529D02*
X051076D01*
X049824D02*
Y035631D01*
X050376D01*
Y034529D02*
Y035631D01*
X049824Y034529D02*
X050376D01*
X043979Y039479D02*
X045081D01*
X043979D02*
Y040031D01*
X045081D01*
Y039479D02*
Y040031D01*
X043979Y040224D02*
X045081D01*
X043979D02*
Y040776D01*
X045081D01*
Y040224D02*
Y040776D01*
X042729D02*
X043832D01*
Y040224D02*
Y040776D01*
X042729Y040224D02*
X043832D01*
X042729D02*
Y040776D01*
Y040031D02*
X043832D01*
Y039479D02*
Y040031D01*
X042729Y039479D02*
X043832D01*
X042729D02*
Y040031D01*
Y041476D02*
X043832D01*
Y040924D02*
Y041476D01*
X042729Y040924D02*
X043832D01*
X042729D02*
Y041476D01*
X043438Y043129D02*
Y044232D01*
X043989D01*
Y043129D02*
Y044232D01*
X043438Y043129D02*
X043989D01*
X042724D02*
Y044232D01*
X043276D01*
Y043129D02*
Y044232D01*
X042724Y043129D02*
X043276D01*
X037569Y036824D02*
X038671D01*
X037569D02*
Y037376D01*
X038671D01*
Y036824D02*
Y037376D01*
X032349Y035374D02*
X033451D01*
X032349D02*
Y035926D01*
X033451D01*
Y035374D02*
Y035926D01*
X032349Y036074D02*
X033451D01*
X032349D02*
Y036626D01*
X033451D01*
Y036074D02*
Y036626D01*
X030999Y036078D02*
X032101D01*
X030999D02*
Y036629D01*
X032101D01*
Y036078D02*
Y036629D01*
X030999Y035374D02*
X032101D01*
X030999D02*
Y035926D01*
X032101D01*
Y035374D02*
Y035926D01*
X028224Y035349D02*
Y036451D01*
X028776D01*
Y035349D02*
Y036451D01*
X028224Y035349D02*
X028776D01*
X030274D02*
Y036451D01*
X030826D01*
Y035349D02*
Y036451D01*
X030274Y035349D02*
X030826D01*
X035699Y034877D02*
X036801D01*
X035699D02*
Y035428D01*
X036801D01*
Y034877D02*
Y035428D01*
X035699Y035577D02*
X036801D01*
X035699D02*
Y036128D01*
X036801D01*
Y035577D02*
Y036128D01*
X029099Y031426D02*
X030201D01*
Y030874D02*
Y031426D01*
X029099Y030874D02*
X030201D01*
X029099D02*
Y031426D01*
Y030676D02*
X030201D01*
Y030124D02*
Y030676D01*
X029099Y030124D02*
X030201D01*
X029099D02*
Y030676D01*
X034599Y029054D02*
X035701D01*
Y028502D02*
Y029054D01*
X034599Y028502D02*
X035701D01*
X034599D02*
Y029054D01*
Y028326D02*
X035701D01*
Y027774D02*
Y028326D01*
X034599Y027774D02*
X035701D01*
X034599D02*
Y028326D01*
X031219Y029194D02*
X032321D01*
Y028642D02*
Y029194D01*
X031219Y028642D02*
X032321D01*
X031219D02*
Y029194D01*
Y028556D02*
X032321D01*
Y028004D02*
Y028556D01*
X031219Y028004D02*
X032321D01*
X031219D02*
Y028556D01*
X035639Y036802D02*
Y037354D01*
Y036802D02*
X036741D01*
Y037354D01*
X035639D02*
X036741D01*
M02*
