G04*
G04 #@! TF.GenerationSoftware,Altium Limited,Altium Designer,18.1.6 (161)*
G04*
G04 Layer_Color=65535*
%FSTAX24Y24*%
%MOIN*%
G70*
G01*
G75*
%ADD10C,0.0100*%
%ADD11C,0.0098*%
%ADD12C,0.0080*%
%ADD13C,0.0500*%
%ADD14C,0.0157*%
%ADD15C,0.0070*%
%ADD16C,0.0060*%
%ADD17C,0.0050*%
%ADD18C,0.0197*%
%ADD19C,0.0150*%
%ADD20C,0.0079*%
%ADD21C,0.0039*%
%ADD22C,0.0040*%
%ADD23C,0.0059*%
%ADD24C,0.0070*%
%ADD25C,0.0118*%
%ADD26R,0.1181X0.1969*%
%ADD27R,0.1000X0.0500*%
G36*
X06218Y05019D02*
X06218Y05019D01*
X062227Y05019D01*
X062318Y050174D01*
X062406Y050144D01*
X062488Y050098D01*
X06256Y05004D01*
X062622Y049971D01*
X062671Y049892D01*
X062707Y049805D01*
X062717Y04976D01*
X01056Y04976D01*
Y049802D01*
X010577Y049885D01*
X010609Y049964D01*
X010656Y050034D01*
X010716Y050094D01*
X010786Y050141D01*
X010865Y050173D01*
X010948Y05019D01*
X01099D01*
X06218Y05019D01*
D02*
G37*
G36*
X0289Y0487D02*
X0293Y0484D01*
X0296Y048D01*
X0298Y04745D01*
X0284D01*
Y0475D01*
X028412Y047501D01*
X028435Y047505D01*
X028457Y047514D01*
X028477Y047527D01*
X028485Y047535D01*
X0286Y04765D01*
Y04765D01*
X028623Y047675D01*
X02866Y04773D01*
X028685Y047792D01*
X028698Y047858D01*
X0287Y047891D01*
Y048029D01*
X028699Y048046D01*
X028693Y048079D01*
X02868Y04811D01*
X028661Y048138D01*
X02865Y04815D01*
X028649Y048162D01*
X028645Y048185D01*
X028636Y048207D01*
X028623Y048227D01*
X028615Y048235D01*
X0285Y04835D01*
X0285Y04835D01*
X028488Y048361D01*
X02846Y04838D01*
X028429Y048393D01*
X028396Y048399D01*
X028379Y0484D01*
X027871D01*
X027854Y048399D01*
X027821Y048393D01*
X02779Y04838D01*
X027762Y048361D01*
X02775Y04835D01*
X0277Y0483D01*
X027688Y048299D01*
X027665Y048295D01*
X027643Y048286D01*
X027623Y048273D01*
X027615Y048265D01*
X02755Y0482D01*
Y0482D01*
X027539Y048188D01*
X02752Y04816D01*
X027507Y048129D01*
X027501Y048096D01*
X0275Y048079D01*
Y0478D01*
X02785Y04745D01*
X0264D01*
X02645Y04765D01*
X02665Y0481D01*
X02695Y04845D01*
X0274Y04875D01*
X0279Y0489D01*
X0283D01*
X0289Y0487D01*
D02*
G37*
G36*
X02525D02*
X02565Y0484D01*
X02595Y048D01*
X02615Y04745D01*
X02475D01*
Y0475D01*
X024762Y047501D01*
X024785Y047505D01*
X024807Y047514D01*
X024827Y047527D01*
X024835Y047535D01*
X02495Y04765D01*
Y04765D01*
X024973Y047675D01*
X02501Y04773D01*
X025035Y047792D01*
X025048Y047858D01*
X02505Y047891D01*
Y048029D01*
X025049Y048046D01*
X025043Y048079D01*
X02503Y04811D01*
X025011Y048138D01*
X025Y04815D01*
X024999Y048162D01*
X024995Y048185D01*
X024986Y048207D01*
X024973Y048227D01*
X024965Y048235D01*
X02485Y04835D01*
X02485Y04835D01*
X024838Y048361D01*
X02481Y04838D01*
X024779Y048393D01*
X024746Y048399D01*
X024729Y0484D01*
X024221D01*
X024204Y048399D01*
X024171Y048393D01*
X02414Y04838D01*
X024112Y048361D01*
X0241Y04835D01*
X02405Y0483D01*
X024038Y048299D01*
X024015Y048295D01*
X023993Y048286D01*
X023973Y048273D01*
X023965Y048265D01*
X0239Y0482D01*
Y0482D01*
X023889Y048188D01*
X02387Y04816D01*
X023857Y048129D01*
X023851Y048096D01*
X02385Y048079D01*
Y0478D01*
X0242Y04745D01*
X02275D01*
X0228Y04765D01*
X023Y0481D01*
X0233Y04845D01*
X02375Y04875D01*
X02425Y0489D01*
X02465D01*
X02525Y0487D01*
D02*
G37*
G36*
X01258Y041035D02*
X01233Y040785D01*
Y040935D01*
X01208D01*
Y041135D01*
X01233D01*
Y041285D01*
X01258Y041035D01*
D02*
G37*
G36*
X04405Y032755D02*
X04385Y032955D01*
X04405Y033155D01*
Y032755D01*
D02*
G37*
G36*
X0411Y02637D02*
X04085Y02662D01*
X04135D01*
X0411Y02637D01*
D02*
G37*
G36*
X011365Y02625D02*
X011355D01*
X011005Y0259D01*
Y02661D01*
X011365Y02625D01*
D02*
G37*
G36*
X03966Y02059D02*
X03916D01*
X03941Y02084D01*
X03966Y02059D01*
D02*
G37*
G36*
X01251Y02049D02*
X01226Y02024D01*
Y02039D01*
X01201D01*
Y02059D01*
X01226D01*
Y02074D01*
X01251Y02049D01*
D02*
G37*
G36*
X062757Y01875D02*
Y018708D01*
X062741Y018625D01*
X062708Y018546D01*
X062661Y018476D01*
X062601Y018416D01*
X062531Y018369D01*
X062453Y018337D01*
X062369Y01832D01*
X011137D01*
X011083Y01832D01*
X010977Y018341D01*
X010877Y018383D01*
X010786Y018443D01*
X01071Y018519D01*
X01065Y018609D01*
X010608Y01871D01*
X010587Y018816D01*
X010587Y01887D01*
X062763Y01887D01*
X062757Y01875D01*
D02*
G37*
G36*
X014775Y023392D02*
X014718D01*
Y02359D01*
X014775D01*
Y023392D01*
D02*
G37*
G36*
Y023098D02*
X014718D01*
Y023295D01*
X014775D01*
Y023098D01*
D02*
G37*
G36*
X014692Y026337D02*
X014865D01*
Y026285D01*
X014692D01*
Y026112D01*
X014642D01*
Y026285D01*
X014469D01*
Y026337D01*
X014642D01*
Y02651D01*
X014692D01*
Y026337D01*
D02*
G37*
G36*
X012481Y019633D02*
X01248Y019622D01*
Y01961D01*
X012479Y019597D01*
X012478Y019585D01*
X012477Y019574D01*
Y019573D01*
X012476Y01957D01*
X012475Y019565D01*
X012474Y019558D01*
X012471Y019551D01*
X012469Y019542D01*
X012466Y019533D01*
X012461Y019525D01*
X012461Y019523D01*
X012459Y01952D01*
X012455Y019516D01*
X012452Y01951D01*
X012447Y019504D01*
X01244Y019498D01*
X012434Y019493D01*
X012426Y019487D01*
X012425Y019487D01*
X012422Y019485D01*
X012418Y019484D01*
X012412Y019481D01*
X012404Y019479D01*
X012396Y019477D01*
X012385Y019476D01*
X012375Y019475D01*
X012374D01*
X012369D01*
X012364Y019476D01*
X012356Y019477D01*
X012347Y019479D01*
X012337Y019482D01*
X012327Y019487D01*
X012318Y019493D01*
X012317Y019493D01*
X012314Y019495D01*
X01231Y019499D01*
X012305Y019504D01*
X012298Y019511D01*
X012292Y019519D01*
X012286Y019528D01*
X01228Y019538D01*
X012278D01*
Y019537D01*
X012277Y019536D01*
X012276Y019533D01*
X012275Y01953D01*
X012272Y019521D01*
X012269Y019511D01*
X012263Y019498D01*
X012256Y019486D01*
X012246Y019474D01*
X012235Y019463D01*
X012234Y019461D01*
X012229Y019458D01*
X012223Y019454D01*
X012213Y019449D01*
X012202Y019444D01*
X012188Y019439D01*
X012172Y019436D01*
X012154Y019435D01*
X012154D01*
X012153D01*
X012149D01*
X012142Y019436D01*
X012133Y019436D01*
X012124Y019439D01*
X012114Y019441D01*
X012103Y019444D01*
X012092Y019449D01*
X012091Y01945D01*
X012088Y019451D01*
X012083Y019454D01*
X012077Y019458D01*
X01207Y019463D01*
X012062Y019469D01*
X012055Y019477D01*
X012048Y019485D01*
X012047Y019486D01*
X012044Y019489D01*
X012041Y019495D01*
X012037Y019501D01*
X012032Y01951D01*
X012027Y01952D01*
X012022Y019531D01*
X012019Y019543D01*
Y019544D01*
X012017Y019549D01*
X012016Y019555D01*
X012014Y019565D01*
X012013Y019576D01*
X012011Y01959D01*
X012011Y019606D01*
X01201Y019624D01*
Y01979D01*
X012481D01*
Y019633D01*
D02*
G37*
G36*
Y021459D02*
Y021375D01*
X01201Y021203D01*
Y02127D01*
X012141Y021316D01*
Y021521D01*
X01201Y021567D01*
Y02163D01*
X012481Y021459D01*
D02*
G37*
%LPC*%
G36*
X012427Y019727D02*
X012291D01*
Y019636D01*
X012292Y01963D01*
Y019622D01*
X012293Y019614D01*
X012294Y019607D01*
X012294Y0196D01*
Y019599D01*
X012295Y019597D01*
X012296Y019593D01*
X012297Y019589D01*
X012301Y019579D01*
X012307Y019568D01*
X012307Y019567D01*
X012308Y019565D01*
X01231Y019563D01*
X012313Y019559D01*
X012321Y019552D01*
X012326Y019549D01*
X012331Y019547D01*
X012331D01*
X012334Y019546D01*
X012337Y019544D01*
X012341Y019543D01*
X012346Y019542D01*
X012353Y019541D01*
X012366Y01954D01*
X012367D01*
X012369D01*
X012372D01*
X012377Y019541D01*
X012385Y019542D01*
X012395Y019546D01*
X012396D01*
X012397Y019547D01*
X012401Y01955D01*
X012408Y019556D01*
X012414Y019564D01*
X012415Y019565D01*
X012415Y019567D01*
X012417Y01957D01*
X012418Y019574D01*
X01242Y019579D01*
X012422Y019586D01*
X012424Y019592D01*
X012425Y0196D01*
Y019601D01*
X012426Y019604D01*
Y019608D01*
X012426Y019615D01*
Y019622D01*
X012427Y019632D01*
Y019727D01*
D02*
G37*
G36*
X012239D02*
X012064D01*
Y01963D01*
X012065Y019621D01*
Y01961D01*
X012065Y019599D01*
X012066Y019587D01*
X012068Y019577D01*
Y019576D01*
X012068Y019573D01*
X01207Y019568D01*
X012071Y019562D01*
X012073Y019555D01*
X012076Y019548D01*
X012079Y019541D01*
X012084Y019534D01*
X012084Y019533D01*
X012086Y019531D01*
X012089Y019528D01*
X012092Y019525D01*
X0121Y019516D01*
X012105Y019512D01*
X012111Y019509D01*
X012112Y019508D01*
X012114Y019507D01*
X012118Y019506D01*
X012122Y019504D01*
X012128Y019503D01*
X012135Y019501D01*
X012143Y0195D01*
X012152D01*
X012154D01*
X012157D01*
X012162Y019501D01*
X012168D01*
X012175Y019502D01*
X012184Y019504D01*
X012191Y019506D01*
X012197Y019509D01*
X012198Y019509D01*
X0122Y01951D01*
X012203Y019512D01*
X012208Y019516D01*
X012212Y01952D01*
X012216Y019525D01*
X012221Y019532D01*
X012226Y01954D01*
X012227Y019541D01*
X012227Y019543D01*
X012229Y019546D01*
X01223Y01955D01*
X012232Y019556D01*
X012234Y019562D01*
X012235Y019569D01*
X012236Y019577D01*
Y019578D01*
X012237Y019581D01*
Y019585D01*
X012237Y019592D01*
X012238Y019599D01*
Y019608D01*
X012239Y019619D01*
Y019727D01*
D02*
G37*
G36*
X012195Y021501D02*
Y021335D01*
X012426Y021419D01*
X012195Y021501D01*
D02*
G37*
%LPD*%
D10*
X024471Y020981D02*
G03*
X024471Y020981I-00005J0D01*
G01*
X049734Y03342D02*
G03*
X049734Y03342I-00001J0D01*
G01*
X0275Y04795D02*
G03*
X02795Y0475I00045J0D01*
G01*
X0282D02*
G03*
X0287Y0479I00005J00045D01*
G01*
D02*
G03*
X0283Y0484I-00045J00005D01*
G01*
X02795D02*
G03*
X0275Y04795I0J-00045D01*
G01*
X02385D02*
G03*
X0243Y0475I00045J0D01*
G01*
X02455D02*
G03*
X02505Y0479I00005J00045D01*
G01*
D02*
G03*
X02465Y0484I-00045J00005D01*
G01*
X0243D02*
G03*
X02385Y04795I0J-00045D01*
G01*
X049594Y0333D02*
Y03367D01*
Y0333D02*
X050344D01*
Y03367D01*
X049594D02*
X050344D01*
X0518Y047068D02*
Y049102D01*
X051234Y046502D02*
X0518Y047068D01*
X049766Y046502D02*
X051234D01*
X0492Y047068D02*
Y049102D01*
Y047068D02*
X049766Y046502D01*
X0492Y049102D02*
X0518D01*
X0489Y047068D02*
Y049102D01*
X048334Y046502D02*
X0489Y047068D01*
X046866Y046502D02*
X048334D01*
X0463Y047068D02*
Y049102D01*
Y047068D02*
X046866Y046502D01*
X0463Y049102D02*
X0489D01*
X03891Y04087D02*
Y04132D01*
Y04188D02*
Y04233D01*
X0373Y04135D02*
Y04185D01*
Y04135D02*
X0383D01*
Y04185D01*
X0373D02*
X0383D01*
X03669Y04233D02*
X03891D01*
X03669Y04087D02*
X03891D01*
X03669D02*
Y04132D01*
Y04188D02*
Y04233D01*
X0281Y04555D02*
Y046D01*
X02785Y04578D02*
X02835D01*
X0278Y0475D02*
X0283D01*
X02795Y0484D02*
X0283D01*
X02785Y04745D02*
Y0475D01*
X02645Y04745D02*
X02975D01*
X02445Y04555D02*
Y046D01*
X0242Y04578D02*
X0247D01*
X02415Y0475D02*
X02465D01*
X0243Y0484D02*
X02465D01*
X0242Y04745D02*
Y0475D01*
X0228Y04745D02*
X0261D01*
X014691Y037913D02*
Y044212D01*
X011542Y037913D02*
X015085D01*
X011542Y044212D02*
X015085D01*
X011542Y037913D02*
Y044212D01*
X015085Y037913D02*
Y044212D01*
X01426Y02724D02*
X01656D01*
Y02238D02*
Y02724D01*
X01426Y02238D02*
X01656D01*
X01426D02*
Y02724D01*
X015075Y019008D02*
Y022157D01*
X011531Y019008D02*
Y022157D01*
X015075D01*
X011531Y019008D02*
X015075D01*
X014681D02*
Y022157D01*
X03847Y02D02*
Y02235D01*
X03337Y02D02*
X03847D01*
X03337D02*
Y02235D01*
X03847D01*
X03777Y02205D02*
Y02235D01*
X03707Y02205D02*
X03777D01*
X03707D02*
Y02235D01*
X03477Y02205D02*
Y02235D01*
X03407Y02205D02*
X03477D01*
X03407D02*
Y02235D01*
X03308Y03951D02*
Y03891D01*
X03348D01*
X03408Y03941D02*
X03398Y03951D01*
X03378D01*
X03368Y03941D01*
Y03901D01*
X03378Y03891D01*
X03398D01*
X03408Y03901D01*
X03428Y03951D02*
Y03891D01*
X03458D01*
X034679Y03901D01*
Y03941D01*
X03458Y03951D01*
X03428D01*
X034879Y03891D02*
X035079D01*
X034979D01*
Y03951D01*
X034879Y03941D01*
D11*
X02447Y020981D02*
G03*
X02447Y020981I-000049J0D01*
G01*
X056458Y041846D02*
G03*
X056458Y041846I-000049J0D01*
G01*
X036811Y022949D02*
G03*
X036811Y022949I-000049J0D01*
G01*
X044931Y043306D02*
G03*
X044931Y043306I-000049J0D01*
G01*
Y042006D02*
G03*
X044931Y042006I-000049J0D01*
G01*
X042444Y03297D02*
G03*
X042444Y03297I-000049J0D01*
G01*
X045067Y030194D02*
G03*
X045067Y030194I-000049J0D01*
G01*
X056641Y026672D02*
G03*
X056641Y026672I-000049J0D01*
G01*
X053131Y023606D02*
G03*
X053131Y023606I-000049J0D01*
G01*
X049431D02*
G03*
X049431Y023606I-000049J0D01*
G01*
X027813Y042422D02*
G03*
X027813Y042422I-000049J0D01*
G01*
X017599Y028349D02*
G03*
X017599Y028349I-000049J0D01*
G01*
X026907Y039619D02*
G03*
X026907Y039619I-000049J0D01*
G01*
X033081Y022949D02*
G03*
X033081Y022949I-000049J0D01*
G01*
X047154Y042957D02*
Y043596D01*
X047547Y04399D01*
X048384D01*
X052616D02*
X053846D01*
Y042957D02*
Y04399D01*
Y03651D02*
Y037543D01*
X052665Y03651D02*
X053846D01*
X052596D02*
X052665D01*
X047154D02*
X048433D01*
X047154D02*
Y037543D01*
X032569Y020253D02*
X032524Y020208D01*
X032502Y020141D01*
Y020051D01*
X032524Y019983D01*
X032569Y019938D01*
X032614D01*
X032659Y019961D01*
X032682Y019983D01*
X032704Y020028D01*
X032749Y020163D01*
X032772Y020208D01*
X032794Y020231D01*
X032839Y020253D01*
X032907D01*
X032952Y020208D01*
X032974Y020141D01*
Y020051D01*
X032952Y019983D01*
X032907Y019938D01*
X032502Y020516D02*
X032974D01*
X032502Y020359D02*
Y020674D01*
X033132Y02073D02*
Y02109D01*
X032502Y021151D02*
X032974D01*
Y021421D01*
X032502Y021472D02*
X032974D01*
X032502Y021571D02*
X032974D01*
X032502D02*
X032974Y021886D01*
X032502D02*
X032974D01*
X032502Y022017D02*
X032974D01*
X032502Y022332D02*
X032817Y022017D01*
X032704Y022129D02*
X032974Y022332D01*
X017134Y02474D02*
X01674D01*
X017134D02*
Y024609D01*
X017115Y024553D01*
X017077Y024515D01*
X01704Y024496D01*
X016984Y024478D01*
X01689D01*
X016834Y024496D01*
X016796Y024515D01*
X016759Y024553D01*
X01674Y024609D01*
Y02474D01*
X017134Y024389D02*
X01674D01*
X017134Y024127D02*
X01674D01*
X016946Y024389D02*
Y024127D01*
X017134Y023887D02*
X01674D01*
X017134Y024018D02*
Y023756D01*
X017059Y023709D02*
X017077Y023672D01*
X017134Y023615D01*
X01674D01*
X017059Y02342D02*
X017077Y023383D01*
X017134Y023327D01*
X01674D01*
X02636Y019454D02*
Y019172D01*
X026379Y019116D01*
X026416Y019079D01*
X026472Y01906D01*
X02651D01*
X026566Y019079D01*
X026604Y019116D01*
X026622Y019172D01*
Y019454D01*
X026994Y019397D02*
X026956Y019435D01*
X0269Y019454D01*
X026825D01*
X026769Y019435D01*
X026731Y019397D01*
Y01936D01*
X02675Y019322D01*
X026769Y019304D01*
X026806Y019285D01*
X026919Y019247D01*
X026956Y019229D01*
X026975Y01921D01*
X026994Y019172D01*
Y019116D01*
X026956Y019079D01*
X0269Y01906D01*
X026825D01*
X026769Y019079D01*
X026731Y019116D01*
X027082Y019454D02*
Y01906D01*
Y019454D02*
X02725D01*
X027307Y019435D01*
X027325Y019416D01*
X027344Y019379D01*
Y019341D01*
X027325Y019304D01*
X027307Y019285D01*
X02725Y019266D01*
X027082D02*
X02725D01*
X027307Y019247D01*
X027325Y019229D01*
X027344Y019191D01*
Y019135D01*
X027325Y019097D01*
X027307Y019079D01*
X02725Y01906D01*
X027082D01*
D12*
X048219Y043203D02*
G03*
X048219Y043203I-000278J0D01*
G01*
X017604Y04813D02*
X022328D01*
Y042225D02*
Y04813D01*
X020571Y046743D02*
X020871D01*
X019071D02*
X019371D01*
X019061Y043603D02*
X019361D01*
X020561D02*
X020861D01*
X017604Y042618D02*
Y04813D01*
Y042618D02*
X017998Y042225D01*
X022328D01*
D13*
X05622Y02072D02*
G03*
X05622Y02072I-0002J0D01*
G01*
X04748Y02073D02*
G03*
X04748Y02073I-0002J0D01*
G01*
X051866Y02072D02*
G03*
X051866Y02072I-0002J0D01*
G01*
D14*
X04999Y02999D02*
G03*
X04999Y02999I-000079J0D01*
G01*
X03139Y03408D02*
G03*
X03139Y03408I-000079J0D01*
G01*
X02936Y04381D02*
G03*
X02936Y04381I-000079J0D01*
G01*
X012559Y03734D02*
G03*
X012559Y03734I-000049J0D01*
G01*
X020326Y037298D02*
G03*
X020326Y037298I-000049J0D01*
G01*
X015259Y03009D02*
G03*
X015259Y03009I-000049J0D01*
G01*
X012559Y03209D02*
G03*
X012559Y03209I-000049J0D01*
G01*
X022559Y02045D02*
G03*
X022559Y02045I-000079J0D01*
G01*
D15*
X058113Y032013D02*
G03*
X056267Y032013I-000923J002537D01*
G01*
X0298Y0472D02*
G03*
X0298Y0472I-0017J0D01*
G01*
X02615D02*
G03*
X02615Y0472I-0017J0D01*
G01*
X019371Y046743D02*
G03*
X019971Y046743I0003J0D01*
G01*
X020571D02*
G03*
X019971Y046743I-0003J0D01*
G01*
X020561Y043603D02*
G03*
X019961Y043603I-0003J0D01*
G01*
X019361D02*
G03*
X019961Y043603I0003J0D01*
G01*
X01715Y04565D02*
G03*
X01635Y04565I-0004J0D01*
G01*
Y04365D02*
G03*
X01715Y04365I0004J0D01*
G01*
X01525Y04445D02*
G03*
X01525Y04545I0J0005D01*
G01*
X01275D02*
G03*
X01275Y04445I0J-0005D01*
G01*
X025823Y026613D02*
G03*
X023977Y026613I-000923J002537D01*
G01*
X0169Y032654D02*
G03*
X0179Y03265I0005J-000017D01*
G01*
X04739Y02568D02*
X04757D01*
X0474Y02522D02*
X04758D01*
X05039Y03136D02*
Y03154D01*
X04993Y03135D02*
Y03153D01*
X03022Y04071D02*
Y04089D01*
X02976Y0407D02*
Y04088D01*
X01686Y03915D02*
Y03933D01*
X01732Y03916D02*
Y03934D01*
X02018Y03146D02*
Y03164D01*
X01972Y03145D02*
Y03163D01*
X04756Y02247D02*
X04774D01*
X04757Y02201D02*
X04775D01*
X05202Y02247D02*
X0522D01*
X05203Y02201D02*
X05221D01*
X05634Y02247D02*
X05652D01*
X05635Y02201D02*
X05653D01*
X03986Y0209D02*
Y02189D01*
X04191Y0209D02*
Y0219D01*
X03891D02*
X04191D01*
X03891Y0209D02*
Y0219D01*
Y0209D02*
X04191D01*
X04742Y03066D02*
X0476D01*
X04741Y03112D02*
X04759D01*
X04737Y02829D02*
X04755D01*
X04738Y02783D02*
X04756D01*
X04776Y0267D02*
Y02688D01*
X04822Y02671D02*
Y02689D01*
X05585Y03279D02*
X05659D01*
X05623Y03245D02*
Y03316D01*
X05526Y03186D02*
Y03201D01*
Y03186D02*
X05896D01*
Y03201D01*
X05526D02*
X05896D01*
X05272Y04566D02*
X0529D01*
X05271Y04612D02*
X05289D01*
X05272Y04656D02*
X0529D01*
X05271Y04702D02*
X05289D01*
X03939Y04365D02*
X04139D01*
X03939D02*
Y04465D01*
X04139D01*
Y04365D02*
Y04465D01*
X04034Y04365D02*
Y04464D01*
X03847Y04276D02*
X03865D01*
X03846Y04322D02*
X03864D01*
X02902Y034239D02*
Y034379D01*
X03015D01*
Y037089D01*
X02894D02*
X03015D01*
X02894Y034379D02*
Y037089D01*
X03004Y034229D02*
Y034379D01*
X02894D02*
X02902D01*
X01675Y04485D02*
Y04515D01*
Y0441D02*
Y0444D01*
X01645Y04485D02*
X017D01*
X01645Y0444D02*
X017D01*
X01715Y04365D02*
Y04565D01*
X01635Y04365D02*
Y04565D01*
X01275Y04445D02*
X01525D01*
X01275Y04545D02*
X01525D01*
X0125Y03275D02*
X0139D01*
X0115Y03775D02*
X0139D01*
X0115Y03275D02*
Y03775D01*
Y03275D02*
X0125D01*
X0139D02*
Y03775D01*
X0115Y03673D02*
X0118D01*
Y03623D02*
Y03673D01*
X0115Y03623D02*
X0118D01*
X01152Y03425D02*
X01182D01*
Y03375D02*
Y03425D01*
X01152Y03375D02*
X01182D01*
X02356Y02739D02*
X0243D01*
X02394Y02705D02*
Y02776D01*
X02297Y02646D02*
Y02661D01*
Y02646D02*
X02667D01*
Y02661D01*
X02297D02*
X02667D01*
X01859Y03627D02*
Y03645D01*
X01813Y03626D02*
Y03644D01*
X01877Y034762D02*
X01895D01*
X01876Y035222D02*
X01894D01*
X0154Y03265D02*
X0169D01*
X01791D02*
X0194D01*
X0154Y03065D02*
Y03265D01*
Y03065D02*
X0194D01*
Y03265D01*
X01419Y02799D02*
X01449D01*
Y02849D01*
X01419D02*
X01449D01*
X01421Y02951D02*
X01451D01*
Y03001D01*
X01421D02*
X01451D01*
X0166Y0275D02*
Y0305D01*
X0142Y0275D02*
X0166D01*
X0142D02*
Y0305D01*
X0166D01*
X0125Y0275D02*
X0139D01*
X0115Y0325D02*
X0139D01*
X0115Y0275D02*
Y0325D01*
Y0275D02*
X0125D01*
X0139D02*
Y0325D01*
X0115Y03148D02*
X0118D01*
Y03098D02*
Y03148D01*
X0115Y03098D02*
X0118D01*
X01152Y029D02*
X01182D01*
Y0285D02*
Y029D01*
X01152Y0285D02*
X01182D01*
X0139Y023255D02*
Y027255D01*
X0115Y023255D02*
X0125D01*
X0115D02*
Y027255D01*
X0139D01*
X0125Y023255D02*
X0139D01*
X01151Y026535D02*
X01181D01*
Y026035D02*
Y026535D01*
X01151Y026035D02*
X01181D01*
X0115Y024545D02*
X0118D01*
Y024045D02*
Y024545D01*
X0115Y024045D02*
X0118D01*
X01793Y02211D02*
X01811D01*
X01794Y02165D02*
X01812D01*
X03565Y0375D02*
X03868D01*
X03565D02*
Y0385D01*
Y0395D01*
X03868D01*
Y0375D02*
Y0395D01*
X01912Y02947D02*
Y02965D01*
X01866Y02946D02*
Y02964D01*
X02531Y0378D02*
Y03798D01*
X02577Y03781D02*
Y03799D01*
X0339Y04134D02*
X03408D01*
X03391Y04088D02*
X03409D01*
X03474Y04222D02*
Y0424D01*
X03428Y04221D02*
Y04239D01*
D16*
X041017Y042429D02*
G03*
X041017Y042331I000109J-000049D01*
G01*
X02071Y020215D02*
G03*
X02047Y020215I-00012J0D01*
G01*
X047193Y029185D02*
X047459D01*
X041126Y042261D02*
Y042499D01*
X040393Y042035D02*
X040659D01*
X039926Y042261D02*
Y042499D01*
X030162Y043974D02*
X031832D01*
X030162Y041914D02*
X031832D01*
X020049Y022185D02*
X021131D01*
X020049Y020215D02*
X021131D01*
X031736Y03011D02*
Y030488D01*
Y033812D02*
Y03419D01*
X035438D02*
X035816D01*
Y03011D02*
Y030488D01*
X031736Y03011D02*
X032113D01*
X035438D02*
X035816D01*
Y033812D02*
Y03419D01*
X031736D02*
X032113D01*
D17*
X0136Y04495D02*
G03*
X014Y04495I0002J0D01*
G01*
X0144D02*
G03*
X014Y04495I-0002J0D01*
G01*
X02276Y0199D02*
X02416D01*
Y02057D01*
X02276D02*
X02416D01*
X02276Y0199D02*
Y02057D01*
X05478Y04013D02*
Y0408D01*
X05618D01*
Y04013D02*
Y0408D01*
X05478Y04013D02*
X05618D01*
X03836Y0226D02*
Y024D01*
X03769D02*
X03836D01*
X03769Y0226D02*
Y024D01*
Y0226D02*
X03836D01*
X03576Y02255D02*
Y02395D01*
X03509D02*
X03576D01*
X03509Y02255D02*
Y02395D01*
Y02255D02*
X03576D01*
X03476D02*
Y02395D01*
X03409D02*
X03476D01*
X03409Y02255D02*
Y02395D01*
Y02255D02*
X03476D01*
X03749Y04267D02*
Y04334D01*
X03609Y04267D02*
X03749D01*
X03609D02*
Y04334D01*
X03749D01*
X03141Y04149D02*
X03208D01*
Y04009D02*
Y04149D01*
X03141Y04009D02*
X03208D01*
X03141D02*
Y04149D01*
X03059Y04009D02*
X03126D01*
X03059D02*
Y04149D01*
X03126D01*
Y04009D02*
Y04149D01*
X01551Y0374D02*
Y0388D01*
Y0374D02*
X01618D01*
Y0388D01*
X01551D02*
X01618D01*
X05198Y03606D02*
X05338D01*
X05198Y03539D02*
Y03606D01*
Y03539D02*
X05338D01*
Y03606D01*
X04669Y021876D02*
Y022546D01*
X04529Y021876D02*
X04669D01*
X04529D02*
Y022546D01*
X04669D01*
X05106Y021876D02*
Y022546D01*
X04966Y021876D02*
X05106D01*
X04966D02*
Y022546D01*
X05106D01*
X055405Y021876D02*
Y022546D01*
X054005Y021876D02*
X055405D01*
X054005D02*
Y022546D01*
X055405D01*
X0431Y04826D02*
X0445D01*
Y04893D01*
X0431D02*
X0445D01*
X0431Y04826D02*
Y04893D01*
X0444Y030584D02*
X0458D01*
Y031254D01*
X0444D02*
X0458D01*
X0444Y030584D02*
Y031254D01*
X045892Y029854D02*
Y031254D01*
Y029854D02*
X046562D01*
Y031254D01*
X045892D02*
X046562D01*
X045892Y0283D02*
Y0297D01*
Y0283D02*
X046562D01*
Y0297D01*
X045892D02*
X046562D01*
X0541Y02484D02*
X0555D01*
X0541Y02417D02*
Y02484D01*
Y02417D02*
X0555D01*
Y02484D01*
X05234Y0234D02*
Y0248D01*
X05167D02*
X05234D01*
X05167Y0234D02*
Y0248D01*
Y0234D02*
X05234D01*
X05086D02*
Y0248D01*
Y0234D02*
X05153D01*
Y0248D01*
X05086D02*
X05153D01*
X04864Y0233D02*
Y0247D01*
X04797D02*
X04864D01*
X04797Y0233D02*
Y0247D01*
Y0233D02*
X04864D01*
X04716D02*
Y0247D01*
Y0233D02*
X04783D01*
Y0247D01*
X04716D02*
X04783D01*
X0562Y04599D02*
X0576D01*
X0562Y04532D02*
Y04599D01*
Y04532D02*
X0576D01*
Y04599D01*
X0562Y04684D02*
X0576D01*
X0562Y04617D02*
Y04684D01*
Y04617D02*
X0576D01*
Y04684D01*
X0562Y04774D02*
X0576D01*
X0562Y04707D02*
Y04774D01*
Y04707D02*
X0576D01*
Y04774D01*
X02889Y0414D02*
Y0428D01*
X02822D02*
X02889D01*
X02822Y0414D02*
Y0428D01*
Y0414D02*
X02889D01*
X02919Y0399D02*
Y0413D01*
X02852D02*
X02919D01*
X02852Y0399D02*
Y0413D01*
Y0399D02*
X02919D01*
X0144Y04495D02*
X01475D01*
X01325D02*
X0136D01*
X01518Y03064D02*
Y03204D01*
X01451D02*
X01518D01*
X01451Y03064D02*
Y03204D01*
Y03064D02*
X01518D01*
X02079Y02013D02*
X02219D01*
X02079Y01946D02*
Y02013D01*
Y01946D02*
X02219D01*
Y02013D01*
X01912Y019455D02*
X02052D01*
Y020125D01*
X01912D02*
X02052D01*
X01912Y019455D02*
Y020125D01*
X017836Y01967D02*
Y02107D01*
X017166D02*
X017836D01*
X017166Y01967D02*
Y02107D01*
Y01967D02*
X017836D01*
X01559Y02049D02*
X01699D01*
Y02116D01*
X01559D02*
X01699D01*
X01559Y02049D02*
Y02116D01*
Y01957D02*
X01699D01*
Y02024D01*
X01559D02*
X01699D01*
X01559Y01957D02*
Y02024D01*
X01829Y028786D02*
Y030186D01*
X01762D02*
X01829D01*
X01762Y028786D02*
Y030186D01*
Y028786D02*
X01829D01*
X01745D02*
Y030186D01*
X01678D02*
X01745D01*
X01678Y028786D02*
Y030186D01*
Y028786D02*
X01745D01*
X02046Y03085D02*
Y03225D01*
Y03085D02*
X02113D01*
Y03225D01*
X02046D02*
X02113D01*
X03383Y04165D02*
Y04305D01*
X03316D02*
X03383D01*
X03316Y04165D02*
Y04305D01*
Y04165D02*
X03383D01*
X03226Y0401D02*
Y0415D01*
Y0401D02*
X03293D01*
Y0415D01*
X03226D02*
X03293D01*
X02655Y04059D02*
X02795D01*
X02655Y03992D02*
Y04059D01*
Y03992D02*
X02795D01*
Y04059D01*
X02658Y04163D02*
X02798D01*
X02658Y04096D02*
Y04163D01*
Y04096D02*
X02798D01*
Y04163D01*
D18*
X018719Y041589D02*
G03*
X018719Y041589I-000049J0D01*
G01*
X05437Y01952D02*
X054815D01*
X05402Y01987D02*
X05437Y01952D01*
X05402Y01987D02*
Y02157D01*
X05792D01*
Y01987D02*
Y02157D01*
X05757Y01952D02*
X05792Y01987D01*
X054815Y01952D02*
X05757D01*
X04563Y01953D02*
X046075D01*
X04528Y01988D02*
X04563Y01953D01*
X04528Y01988D02*
Y02158D01*
X04918D01*
Y01988D02*
Y02158D01*
X04883Y01953D02*
X04918Y01988D01*
X046075Y01953D02*
X04883D01*
X050016Y01952D02*
X050461D01*
X049666Y01987D02*
X050016Y01952D01*
X049666Y01987D02*
Y02157D01*
X053566D01*
Y01987D02*
Y02157D01*
X053216Y01952D02*
X053566Y01987D01*
X050461Y01952D02*
X053216D01*
D19*
X01675Y03214D02*
G03*
X01675Y03214I-00008J0D01*
G01*
D20*
X04733Y0258D02*
X04828D01*
X04668D02*
X047336D01*
X04668Y0251D02*
X047336D01*
X04735D02*
X04828D01*
X04668D02*
Y0258D01*
X04828Y0251D02*
Y0258D01*
X025672Y019902D02*
Y020217D01*
X024682Y019912D02*
Y020227D01*
X024481Y019259D02*
Y01981D01*
X023379Y019259D02*
X024481D01*
X023379D02*
Y01981D01*
X024481D01*
X026052Y020952D02*
Y021267D01*
X027042Y020942D02*
Y021257D01*
X035639Y036802D02*
Y037354D01*
X036741D01*
Y036802D02*
Y037354D01*
X035639Y036802D02*
X036741D01*
X05051Y03065D02*
Y0316D01*
Y031594D02*
Y03225D01*
X04981Y031594D02*
Y03225D01*
Y03065D02*
Y03158D01*
Y03225D02*
X05051D01*
X04981Y03065D02*
X05051D01*
X050699Y032664D02*
X051881D01*
X050699Y030616D02*
Y032664D01*
Y030616D02*
X051881D01*
Y032664D01*
X029099Y030874D02*
X030201D01*
Y031426D01*
X029099D02*
X030201D01*
X029099Y030874D02*
Y031426D01*
Y030124D02*
X030201D01*
Y030676D01*
X029099D02*
X030201D01*
X029099Y030124D02*
Y030676D01*
X034599Y027774D02*
X035701D01*
Y028326D01*
X034599D02*
X035701D01*
X034599Y027774D02*
Y028326D01*
Y028502D02*
X035701D01*
Y029054D01*
X034599D02*
X035701D01*
X034599Y028502D02*
Y029054D01*
X03034Y04D02*
Y04095D01*
Y040944D02*
Y0416D01*
X02964Y040944D02*
Y0416D01*
Y04D02*
Y04093D01*
Y0416D02*
X03034D01*
X02964Y04D02*
X03034D01*
X026641Y031836D02*
X028059D01*
X026641D02*
Y035064D01*
X028059D01*
Y031836D02*
Y035064D01*
X015576Y042301D02*
X017624D01*
Y041119D02*
Y042301D01*
X015576Y041119D02*
X017624D01*
X015576D02*
Y042301D01*
X01674Y03845D02*
X01744D01*
X01674Y04005D02*
X01744D01*
X01674Y03845D02*
Y03938D01*
Y039394D02*
Y04005D01*
X01744Y039394D02*
Y04005D01*
Y03845D02*
Y0394D01*
X0203Y03075D02*
Y0317D01*
Y031694D02*
Y03235D01*
X0196Y031694D02*
Y03235D01*
Y03075D02*
Y03168D01*
Y03235D02*
X0203D01*
X0196Y03075D02*
X0203D01*
X02598Y02414D02*
X0275D01*
Y02481D01*
X02598Y02414D02*
Y02481D01*
X0275D01*
X0475Y02259D02*
X04845D01*
X04685D02*
X047506D01*
X04685Y02189D02*
X047506D01*
X04752D02*
X04845D01*
X04685D02*
Y02259D01*
X04845Y02189D02*
Y02259D01*
X05196D02*
X05291D01*
X05131D02*
X051966D01*
X05131Y02189D02*
X051966D01*
X05198D02*
X05291D01*
X05131D02*
Y02259D01*
X05291Y02189D02*
Y02259D01*
X05628D02*
X05723D01*
X05563D02*
X056286D01*
X05563Y02189D02*
X056286D01*
X0563D02*
X05723D01*
X05563D02*
Y02259D01*
X05723Y02189D02*
Y02259D01*
X0213Y02301D02*
Y02401D01*
X028398Y02301D02*
Y02401D01*
X020202Y02301D02*
X028398D01*
X020202D02*
Y02401D01*
X028398D01*
X042791Y046856D02*
Y048904D01*
X041609Y046856D02*
X042791D01*
X041609D02*
Y048904D01*
X042791D01*
X041341Y046846D02*
Y048894D01*
X040159Y046846D02*
X041341D01*
X040159D02*
Y048894D01*
X041341D01*
X04307Y0356D02*
Y03788D01*
X04165Y0356D02*
Y03788D01*
X04162D02*
X04165D01*
X04038Y03677D02*
X04431D01*
X04038Y0356D02*
Y03788D01*
Y0356D02*
X0443D01*
Y03788D01*
X04038D02*
X0443D01*
X03466Y02D02*
X03594D01*
X043921Y044524D02*
Y045076D01*
X042818Y044524D02*
X043921D01*
X042818D02*
Y045076D01*
X043921D01*
X043438Y041829D02*
X043989D01*
X043438D02*
Y042931D01*
X043989D01*
Y041829D02*
Y042931D01*
X042724Y041829D02*
X043276D01*
X042724D02*
Y042931D01*
X043276D01*
Y041829D02*
Y042931D01*
X040124Y032734D02*
X040676D01*
X040124D02*
Y033837D01*
X040676D01*
Y032734D02*
Y033837D01*
X039424Y032734D02*
X039976D01*
X039424D02*
Y033837D01*
X039976D01*
Y032734D02*
Y033837D01*
X03935Y032485D02*
X04087D01*
X03935Y031815D02*
Y032485D01*
X04087Y031815D02*
Y032485D01*
X03935Y031815D02*
X04087D01*
X042151Y031875D02*
Y032426D01*
X041049Y031875D02*
X042151D01*
X041049D02*
Y032426D01*
X042151D01*
X041946Y034689D02*
X042654D01*
X041946Y032721D02*
X042654D01*
X041946D02*
Y034689D01*
X042654Y032721D02*
Y034689D01*
X0483Y03054D02*
Y03124D01*
X0467Y03054D02*
Y03124D01*
X04737Y03054D02*
X0483D01*
X0467D02*
X047356D01*
X0467Y03124D02*
X047356D01*
X04735D02*
X0483D01*
X0467Y0304D02*
X04795D01*
X0467Y02865D02*
Y0304D01*
Y02865D02*
X04795D01*
Y0304D01*
X04667Y02771D02*
Y02841D01*
X04827Y02771D02*
Y02841D01*
X04667D02*
X0476D01*
X047614D02*
X04827D01*
X047614Y02771D02*
X04827D01*
X04667D02*
X04762D01*
X04764Y026D02*
X04834D01*
X04764Y0276D02*
X04834D01*
X04764Y026D02*
Y02693D01*
Y026944D02*
Y0276D01*
X04834Y026944D02*
Y0276D01*
Y026D02*
Y02695D01*
X04743Y02603D02*
Y02755D01*
X04676D02*
X04743D01*
X04676Y02603D02*
X04743D01*
X04676D02*
Y02755D01*
X054971Y027357D02*
Y027909D01*
X053868Y027357D02*
X054971D01*
X053868D02*
Y027909D01*
X054971D01*
X055093Y027299D02*
X056613D01*
Y027969D01*
X055093Y027299D02*
Y027969D01*
X056613D01*
X055571Y026062D02*
Y026613D01*
X054468Y026062D02*
X055571D01*
X054468D02*
Y026613D01*
X055571D01*
X055624Y027164D02*
X056176D01*
Y026062D02*
Y027164D01*
X055624Y026062D02*
X056176D01*
X055624D02*
Y027164D01*
X053824D02*
X054376D01*
Y026062D02*
Y027164D01*
X053824Y026062D02*
X054376D01*
X053824D02*
Y027164D01*
X060681Y026046D02*
Y026629D01*
X058319Y026046D02*
Y026629D01*
X059209Y025156D02*
X059791D01*
X059209Y027518D02*
X059791D01*
X062059Y025451D02*
Y027223D01*
X061209Y025451D02*
X062059D01*
X061209Y027223D02*
X062059D01*
X049872Y029647D02*
X052529D01*
Y025533D02*
Y029647D01*
X049872Y025533D02*
X052529D01*
X049872D02*
Y029647D01*
X048404Y034529D02*
X048956D01*
X048404D02*
Y035631D01*
X048956D01*
Y034529D02*
Y035631D01*
X048824Y032869D02*
X049376D01*
X048824D02*
Y033971D01*
X049376D01*
Y032869D02*
Y033971D01*
X0492Y04432D02*
Y04595D01*
X0518D01*
Y04432D02*
Y04595D01*
X0492Y04432D02*
X0518D01*
X060681Y041909D02*
Y042491D01*
X058319Y041909D02*
Y042491D01*
X059209Y041019D02*
X059791D01*
X059209Y043381D02*
X059791D01*
X062059Y041314D02*
Y043086D01*
X061209Y041314D02*
X062059D01*
X061209Y043086D02*
X062059D01*
X0536Y04554D02*
Y04624D01*
X052Y04554D02*
Y04624D01*
X05267Y04554D02*
X0536D01*
X052D02*
X052656D01*
X052Y04624D02*
X052656D01*
X05265D02*
X0536D01*
Y04644D02*
Y04714D01*
X052Y04644D02*
Y04714D01*
X05267Y04644D02*
X0536D01*
X052D02*
X052656D01*
X052Y04714D02*
X052656D01*
X05265D02*
X0536D01*
X0531Y0474D02*
Y0492D01*
X05235Y048973D02*
Y04923D01*
Y04736D02*
Y047617D01*
X05541Y04736D02*
Y047617D01*
Y048973D02*
Y04923D01*
X05235D02*
X05541D01*
X05235Y04736D02*
X05541D01*
X043278Y046859D02*
Y048044D01*
Y046859D02*
X045915D01*
Y048044D01*
X043278D02*
X045915D01*
X04505Y046867D02*
Y048033D01*
X03935Y04264D02*
Y04334D01*
X03775Y04264D02*
Y04334D01*
X03842Y04264D02*
X03935D01*
X03775D02*
X038406D01*
X03775Y04334D02*
X038406D01*
X0384D02*
X03935D01*
X0384Y04756D02*
Y04882D01*
X03391D02*
X0384D01*
X03391Y04758D02*
Y04882D01*
X03396Y04378D02*
Y04505D01*
Y04378D02*
X03837D01*
X03838Y04379D01*
Y04504D01*
X03005Y045267D02*
Y048117D01*
X03255Y045267D02*
Y048117D01*
X03005D02*
X03057D01*
X03005Y045267D02*
X03057D01*
X03203Y048117D02*
X03255D01*
X03203Y045267D02*
X03255D01*
X03005Y046048D02*
X03255D01*
X029499Y044077D02*
Y044628D01*
X030601D01*
Y044077D02*
Y044628D01*
X029499Y044077D02*
X030601D01*
X0303Y03863D02*
X03182D01*
X0303Y03796D02*
Y03863D01*
X03182Y03796D02*
Y03863D01*
X0303Y03796D02*
X03182D01*
X03814Y02801D02*
X03966D01*
X03814Y02734D02*
Y02801D01*
X03966Y02734D02*
Y02801D01*
X03814Y02734D02*
X03966D01*
X025974Y035051D02*
X026526D01*
Y033949D02*
Y035051D01*
X025974Y033949D02*
X026526D01*
X025974D02*
Y035051D01*
Y031849D02*
X026526D01*
X025974D02*
Y032951D01*
X026526D01*
Y031849D02*
Y032951D01*
X024659Y042706D02*
Y044754D01*
X025841D01*
Y042706D02*
Y044754D01*
X024659Y042706D02*
X025841D01*
X022959D02*
Y044754D01*
X024141D01*
Y042706D02*
Y044754D01*
X022959Y042706D02*
X024141D01*
X012633Y0459D02*
X015483D01*
X012633Y0484D02*
X015483D01*
X012633Y0459D02*
Y04642D01*
X015483Y0459D02*
Y04642D01*
X012633Y04788D02*
Y0484D01*
X015483Y04788D02*
Y0484D01*
X014702Y0459D02*
Y0484D01*
X024732Y037703D02*
Y041797D01*
X020141Y037703D02*
X024732D01*
X020141Y041797D02*
X024732D01*
X020141Y040931D02*
Y041797D01*
X019471Y040931D02*
X020141D01*
Y040577D02*
Y040931D01*
X019471Y040577D02*
X020141D01*
X019471Y039947D02*
X020141D01*
Y039553D02*
Y039947D01*
X019471Y039553D02*
X020141D01*
X019471Y038923D02*
X020141D01*
Y038569D02*
Y038923D01*
X019471Y038569D02*
X020141D01*
Y037703D02*
Y038569D01*
X01801Y03715D02*
X01871D01*
X01801Y03555D02*
X01871D01*
Y03622D02*
Y03715D01*
Y03555D02*
Y036206D01*
X01801Y03555D02*
Y036206D01*
Y0362D02*
Y03715D01*
X01965Y034642D02*
Y035342D01*
X01805Y034642D02*
Y035342D01*
X01872Y034642D02*
X01965D01*
X01805D02*
X018706D01*
X01805Y035342D02*
X018706D01*
X0187D02*
X01965D01*
X017322Y035906D02*
Y037091D01*
X014685D02*
X017322D01*
X014685Y035906D02*
Y037091D01*
Y035906D02*
X017322D01*
X01555Y035917D02*
Y037083D01*
X017322Y033156D02*
Y034341D01*
X014685D02*
X017322D01*
X014685Y033156D02*
Y034341D01*
Y033156D02*
X017322D01*
X01555Y033167D02*
Y034333D01*
X0275Y02414D02*
X02902D01*
Y02481D01*
X0275Y02414D02*
Y02481D01*
X02902D01*
X015577Y022224D02*
X017097D01*
X015577Y021554D02*
Y022224D01*
X017097Y021554D02*
Y022224D01*
X015577Y021554D02*
X017097D01*
X01723Y02153D02*
Y02223D01*
X01883Y02153D02*
Y02223D01*
X01723D02*
X01816D01*
X018174D02*
X01883D01*
X018174Y02153D02*
X01883D01*
X01723D02*
X01818D01*
X049124Y034529D02*
X049676D01*
X049124D02*
Y035631D01*
X049676D01*
Y034529D02*
Y035631D01*
X050524Y034529D02*
X051076D01*
X050524D02*
Y035631D01*
X051076D01*
Y034529D02*
Y035631D01*
X049824Y034529D02*
X050376D01*
X049824D02*
Y035631D01*
X050376D01*
Y034529D02*
Y035631D01*
X045081Y039479D02*
Y040031D01*
X043979Y039479D02*
X045081D01*
X043979D02*
Y040031D01*
X045081D01*
Y040224D02*
Y040776D01*
X043979Y040224D02*
X045081D01*
X043979D02*
Y040776D01*
X045081D01*
X042729Y040224D02*
Y040776D01*
X043832D01*
Y040224D02*
Y040776D01*
X042729Y040224D02*
X043832D01*
X042729Y039479D02*
Y040031D01*
X043832D01*
Y039479D02*
Y040031D01*
X042729Y039479D02*
X043832D01*
X042729Y040924D02*
Y041476D01*
X043832D01*
Y040924D02*
Y041476D01*
X042729Y040924D02*
X043832D01*
X043438Y043129D02*
X043989D01*
X043438D02*
Y044232D01*
X043989D01*
Y043129D02*
Y044232D01*
X042724Y043129D02*
X043276D01*
X042724D02*
Y044232D01*
X043276D01*
Y043129D02*
Y044232D01*
X038671Y036824D02*
Y037376D01*
X037569Y036824D02*
X038671D01*
X037569D02*
Y037376D01*
X038671D01*
X033451Y035374D02*
Y035926D01*
X032349Y035374D02*
X033451D01*
X032349D02*
Y035926D01*
X033451D01*
Y036074D02*
Y036626D01*
X032349Y036074D02*
X033451D01*
X032349D02*
Y036626D01*
X033451D01*
X032101Y036078D02*
Y036629D01*
X030999Y036078D02*
X032101D01*
X030999D02*
Y036629D01*
X032101D01*
Y035374D02*
Y035926D01*
X030999Y035374D02*
X032101D01*
X030999D02*
Y035926D01*
X032101D01*
X028224Y035349D02*
X028776D01*
X028224D02*
Y036451D01*
X028776D01*
Y035349D02*
Y036451D01*
X030274Y035349D02*
X030826D01*
X030274D02*
Y036451D01*
X030826D01*
Y035349D02*
Y036451D01*
X036801Y034877D02*
Y035428D01*
X035699Y034877D02*
X036801D01*
X035699D02*
Y035428D01*
X036801D01*
Y035577D02*
Y036128D01*
X035699Y035577D02*
X036801D01*
X035699D02*
Y036128D01*
X036801D01*
X031219Y028642D02*
Y029194D01*
X032321D01*
Y028642D02*
Y029194D01*
X031219Y028642D02*
X032321D01*
X031219Y028004D02*
Y028556D01*
X032321D01*
Y028004D02*
Y028556D01*
X031219Y028004D02*
X032321D01*
X01854Y03035D02*
X01924D01*
X01854Y02875D02*
X01924D01*
Y02942D02*
Y03035D01*
Y02875D02*
Y029406D01*
X01854Y02875D02*
Y029406D01*
Y0294D02*
Y03035D01*
X02519Y0371D02*
X02589D01*
X02519Y0387D02*
X02589D01*
X02519Y0371D02*
Y03803D01*
Y038044D02*
Y0387D01*
X02589Y038044D02*
Y0387D01*
Y0371D02*
Y03805D01*
X027449Y036981D02*
X028551D01*
X027449Y039619D02*
X028551D01*
Y036981D02*
Y039619D01*
X027449Y036981D02*
Y039619D01*
X0332Y04076D02*
Y04146D01*
X0348Y04076D02*
Y04146D01*
X0332D02*
X03413D01*
X034144D02*
X0348D01*
X034144Y04076D02*
X0348D01*
X0332D02*
X03415D01*
X03416Y0431D02*
X03486D01*
X03416Y0415D02*
X03486D01*
Y04217D02*
Y0431D01*
Y0415D02*
Y042156D01*
X03416Y0415D02*
Y042156D01*
Y04215D02*
Y0431D01*
X039099Y022502D02*
Y022109D01*
Y022502D02*
X039267D01*
X039324Y022484D01*
X039342Y022465D01*
X039361Y022427D01*
Y02239D01*
X039342Y022352D01*
X039324Y022334D01*
X039267Y022315D01*
X039099D01*
X03923D02*
X039361Y022109D01*
X039449Y022502D02*
X039712Y022109D01*
Y022502D02*
X039449Y022109D01*
X043601Y037562D02*
X043545Y037544D01*
X043507Y037487D01*
X043489Y037394D01*
Y037337D01*
X043507Y037244D01*
X043545Y037187D01*
X043601Y037169D01*
X043639D01*
X043695Y037187D01*
X043732Y037244D01*
X043751Y037337D01*
Y037394D01*
X043732Y037487D01*
X043695Y037544D01*
X043639Y037562D01*
X043601D01*
X043839D02*
X043989Y037169D01*
X044139Y037562D02*
X043989Y037169D01*
X03364Y019702D02*
Y019309D01*
X033509Y019702D02*
X033771D01*
X034099Y019609D02*
X03408Y019646D01*
X034043Y019684D01*
X034005Y019702D01*
X03393D01*
X033893Y019684D01*
X033856Y019646D01*
X033837Y019609D01*
X033818Y019552D01*
Y019459D01*
X033837Y019402D01*
X033856Y019365D01*
X033893Y019327D01*
X03393Y019309D01*
X034005D01*
X034043Y019327D01*
X03408Y019365D01*
X034099Y019402D01*
X03421Y019702D02*
Y019309D01*
X034472Y019702D02*
X03421Y01944D01*
X034303Y019534D02*
X034472Y019309D01*
X042169Y037562D02*
Y037169D01*
Y037562D02*
X042337D01*
X042394Y037544D01*
X042412Y037525D01*
X042431Y037487D01*
Y03745D01*
X042412Y037412D01*
X042394Y037394D01*
X042337Y037375D01*
X042169D02*
X042337D01*
X042394Y037356D01*
X042412Y037337D01*
X042431Y0373D01*
Y037244D01*
X042412Y037206D01*
X042394Y037187D01*
X042337Y037169D01*
X042169D01*
X042519Y037487D02*
X042557Y037506D01*
X042613Y037562D01*
Y037169D01*
X043581Y036452D02*
X043525Y036434D01*
X043487Y036377D01*
X043469Y036284D01*
Y036227D01*
X043487Y036134D01*
X043525Y036077D01*
X043581Y036059D01*
X043619D01*
X043675Y036077D01*
X043712Y036134D01*
X043731Y036227D01*
Y036284D01*
X043712Y036377D01*
X043675Y036434D01*
X043619Y036452D01*
X043581D01*
X043819D02*
X043969Y036059D01*
X044119Y036452D02*
X043969Y036059D01*
X041061Y02447D02*
X041024Y024451D01*
X040986Y024414D01*
X040968Y024376D01*
Y024301D01*
X040986Y024264D01*
X041024Y024226D01*
X041061Y024207D01*
X041118Y024189D01*
X041211D01*
X041268Y024207D01*
X041305Y024226D01*
X041343Y024264D01*
X041361Y024301D01*
Y024376D01*
X041343Y024414D01*
X041305Y024451D01*
X041268Y02447D01*
X041211D01*
Y024376D02*
Y02447D01*
X040968Y02456D02*
X041361D01*
X040968D02*
X041361Y024822D01*
X040968D02*
X041361D01*
X040968Y024931D02*
X041361D01*
X040968D02*
Y025062D01*
X040986Y025118D01*
X041024Y025156D01*
X041061Y025175D01*
X041118Y025193D01*
X041211D01*
X041268Y025175D01*
X041305Y025156D01*
X041343Y025118D01*
X041361Y025062D01*
Y024931D01*
X051249Y028764D02*
X051294Y028786D01*
X051339Y028831D01*
X051361Y028876D01*
Y028966D01*
X051339Y029011D01*
X051294Y029056D01*
X051249Y029079D01*
X051181Y029101D01*
X051069D01*
X051001Y029079D01*
X050956Y029056D01*
X050911Y029011D01*
X050889Y028966D01*
Y028876D01*
X050911Y028831D01*
X050956Y028786D01*
X051001Y028764D01*
X051069D01*
Y028876D02*
Y028764D01*
X051114Y028656D02*
Y028453D01*
X051136Y028386D01*
X051159Y028364D01*
X051204Y028341D01*
X051271D01*
X051316Y028364D01*
X051339Y028386D01*
X051361Y028453D01*
Y028656D01*
X050889D01*
X051294Y02792D02*
X051339Y027965D01*
X051361Y028033D01*
Y028123D01*
X051339Y02819D01*
X051294Y028235D01*
X051249D01*
X051204Y028213D01*
X051181Y02819D01*
X051159Y028145D01*
X051114Y02801D01*
X051091Y027965D01*
X051069Y027943D01*
X051024Y02792D01*
X050956D01*
X050911Y027965D01*
X050889Y028033D01*
Y028123D01*
X050911Y02819D01*
X050956Y028235D01*
X051361Y027444D02*
X050889D01*
Y027174D01*
X051361Y026807D02*
X050889Y027032D01*
X051361Y027122D02*
Y026807D01*
Y026566D02*
X051339Y026634D01*
X051271Y026679D01*
X051159Y026701D01*
X051091D01*
X050979Y026679D01*
X050911Y026634D01*
X050889Y026566D01*
Y026521D01*
X050911Y026454D01*
X050979Y026409D01*
X051091Y026386D01*
X051159D01*
X051271Y026409D01*
X051339Y026454D01*
X051361Y026521D01*
Y026566D01*
X039878Y024191D02*
X040271Y024341D01*
X039878Y024491D02*
X040271Y024341D01*
X039971Y024822D02*
X039934Y024804D01*
X039896Y024766D01*
X039878Y024729D01*
Y024654D01*
X039896Y024616D01*
X039934Y024579D01*
X039971Y02456D01*
X040028Y024541D01*
X040121D01*
X040178Y02456D01*
X040215Y024579D01*
X040253Y024616D01*
X040271Y024654D01*
Y024729D01*
X040253Y024766D01*
X040215Y024804D01*
X040178Y024822D01*
X039971Y025214D02*
X039934Y025195D01*
X039896Y025158D01*
X039878Y02512D01*
Y025045D01*
X039896Y025008D01*
X039934Y02497D01*
X039971Y024952D01*
X040028Y024933D01*
X040121D01*
X040178Y024952D01*
X040215Y02497D01*
X040253Y025008D01*
X040271Y025045D01*
Y02512D01*
X040253Y025158D01*
X040215Y025195D01*
X040178Y025214D01*
X052146Y029026D02*
X052124Y029071D01*
X052079Y029116D01*
X052034Y029139D01*
X051966Y029161D01*
X051854D01*
X051786Y029139D01*
X051741Y029116D01*
X051696Y029071D01*
X051674Y029026D01*
Y028936D01*
X051696Y028891D01*
X051741Y028846D01*
X051786Y028824D01*
X051854Y028801D01*
X051966D01*
X052034Y028824D01*
X052079Y028846D01*
X052124Y028891D01*
X052146Y028936D01*
Y029026D01*
X051764Y028959D02*
X051629Y028824D01*
X052146Y028691D02*
X051809D01*
X051741Y028669D01*
X051696Y028624D01*
X051674Y028556D01*
Y028511D01*
X051696Y028444D01*
X051741Y028399D01*
X051809Y028376D01*
X052146D01*
Y027953D02*
Y028246D01*
X051674D01*
Y027953D01*
X051921Y028246D02*
Y028066D01*
X052034Y027537D02*
X052079Y02756D01*
X052124Y027605D01*
X052146Y02765D01*
Y02774D01*
X052124Y027785D01*
X052079Y02783D01*
X052034Y027852D01*
X051966Y027875D01*
X051854D01*
X051786Y027852D01*
X051741Y02783D01*
X051696Y027785D01*
X051674Y02774D01*
Y02765D01*
X051696Y027605D01*
X051741Y02756D01*
X051786Y027537D01*
X052146Y027247D02*
X051674D01*
X052146Y027405D02*
Y02709D01*
Y026741D02*
Y027033D01*
X051674D01*
Y026741D01*
X051921Y027033D02*
Y026854D01*
X052146Y026662D02*
X051674D01*
Y026392D01*
X03487Y019702D02*
Y019309D01*
X034739Y019702D02*
X035001D01*
X035048D02*
Y019309D01*
Y019702D02*
X035198Y019309D01*
X035348Y019702D02*
X035198Y019309D01*
X035348Y019702D02*
Y019309D01*
X035723Y019646D02*
X035685Y019684D01*
X035629Y019702D01*
X035554D01*
X035498Y019684D01*
X03546Y019646D01*
Y019609D01*
X035479Y019571D01*
X035498Y019552D01*
X035535Y019534D01*
X035648Y019496D01*
X035685Y019477D01*
X035704Y019459D01*
X035723Y019421D01*
Y019365D01*
X035685Y019327D01*
X035629Y019309D01*
X035554D01*
X035498Y019327D01*
X03546Y019365D01*
X042149Y036452D02*
Y036059D01*
Y036452D02*
X042317D01*
X042374Y036434D01*
X042392Y036415D01*
X042411Y036377D01*
Y03634D01*
X042392Y036302D01*
X042374Y036284D01*
X042317Y036265D01*
X042149D02*
X042317D01*
X042374Y036246D01*
X042392Y036227D01*
X042411Y03619D01*
Y036134D01*
X042392Y036096D01*
X042374Y036077D01*
X042317Y036059D01*
X042149D01*
X042612Y036452D02*
X042555Y036434D01*
X042518Y036377D01*
X042499Y036284D01*
Y036227D01*
X042518Y036134D01*
X042555Y036077D01*
X042612Y036059D01*
X042649D01*
X042705Y036077D01*
X042743Y036134D01*
X042762Y036227D01*
Y036284D01*
X042743Y036377D01*
X042705Y036434D01*
X042649Y036452D01*
X042612D01*
X040556D02*
X040762D01*
X04065Y036302D01*
X040706D01*
X040744Y036284D01*
X040762Y036265D01*
X040781Y036209D01*
Y036171D01*
X040762Y036115D01*
X040725Y036077D01*
X040669Y036059D01*
X040612D01*
X040556Y036077D01*
X040537Y036096D01*
X040519Y036134D01*
X040869Y036452D02*
X041019Y036059D01*
X041169Y036452D02*
X041019Y036059D01*
X041257Y036452D02*
X041463D01*
X041351Y036302D01*
X041407D01*
X041445Y036284D01*
X041463Y036265D01*
X041482Y036209D01*
Y036171D01*
X041463Y036115D01*
X041426Y036077D01*
X04137Y036059D01*
X041313D01*
X041257Y036077D01*
X041238Y036096D01*
X04122Y036134D01*
X036371Y019692D02*
X036315Y019674D01*
X036277Y019617D01*
X036259Y019524D01*
Y019467D01*
X036277Y019374D01*
X036315Y019317D01*
X036371Y019299D01*
X036409D01*
X036465Y019317D01*
X036502Y019374D01*
X036521Y019467D01*
Y019524D01*
X036502Y019617D01*
X036465Y019674D01*
X036409Y019692D01*
X036371D01*
X036609D02*
X036759Y019299D01*
X036909Y019692D02*
X036759Y019299D01*
X037426Y019702D02*
X037632D01*
X03752Y019552D01*
X037576D01*
X037614Y019534D01*
X037632Y019515D01*
X037651Y019459D01*
Y019421D01*
X037632Y019365D01*
X037595Y019327D01*
X037539Y019309D01*
X037482D01*
X037426Y019327D01*
X037407Y019346D01*
X037389Y019384D01*
X037739Y019702D02*
X037889Y019309D01*
X038039Y019702D02*
X037889Y019309D01*
X038127Y019702D02*
X038333D01*
X038221Y019552D01*
X038277D01*
X038315Y019534D01*
X038333Y019515D01*
X038352Y019459D01*
Y019421D01*
X038333Y019365D01*
X038296Y019327D01*
X03824Y019309D01*
X038183D01*
X038127Y019327D01*
X038108Y019346D01*
X03809Y019384D01*
X038944Y024453D02*
X038906Y024416D01*
X038888Y024359D01*
Y024284D01*
X038906Y024228D01*
X038944Y024191D01*
X038981D01*
X039019Y024209D01*
X039038Y024228D01*
X039056Y024266D01*
X039094Y024378D01*
X039113Y024416D01*
X039131Y024434D01*
X039169Y024453D01*
X039225D01*
X039263Y024416D01*
X039281Y024359D01*
Y024284D01*
X039263Y024228D01*
X039225Y024191D01*
X038981Y024822D02*
X038944Y024804D01*
X038906Y024766D01*
X038888Y024729D01*
Y024654D01*
X038906Y024616D01*
X038944Y024579D01*
X038981Y02456D01*
X039038Y024541D01*
X039131D01*
X039188Y02456D01*
X039225Y024579D01*
X039263Y024616D01*
X039281Y024654D01*
Y024729D01*
X039263Y024766D01*
X039225Y024804D01*
X039188Y024822D01*
X038888Y024933D02*
X039281D01*
Y025158D01*
X056749Y024106D02*
X056918D01*
X056974Y024125D01*
X056993Y024144D01*
X057011Y024181D01*
Y024237D01*
X056993Y024275D01*
X056974Y024294D01*
X056918Y024312D01*
X056749D01*
Y023919D01*
X0571Y024312D02*
Y024031D01*
X057118Y023975D01*
X057156Y023937D01*
X057212Y023919D01*
X057249D01*
X057306Y023937D01*
X057343Y023975D01*
X057362Y024031D01*
Y024312D01*
X057471D02*
Y023919D01*
X057696D01*
X058001Y024256D02*
X057964Y024294D01*
X057907Y024312D01*
X057832D01*
X057776Y024294D01*
X057739Y024256D01*
Y024219D01*
X057757Y024181D01*
X057776Y024162D01*
X057814Y024144D01*
X057926Y024106D01*
X057964Y024087D01*
X057982Y024069D01*
X058001Y024031D01*
Y023975D01*
X057964Y023937D01*
X057907Y023919D01*
X057832D01*
X057776Y023937D01*
X057739Y023975D01*
X058333Y024312D02*
X058089D01*
Y023919D01*
X058333D01*
X058089Y024125D02*
X058239D01*
X040576Y037562D02*
X040782D01*
X04067Y037412D01*
X040726D01*
X040764Y037394D01*
X040782Y037375D01*
X040801Y037319D01*
Y037281D01*
X040782Y037225D01*
X040745Y037187D01*
X040689Y037169D01*
X040632D01*
X040576Y037187D01*
X040557Y037206D01*
X040539Y037244D01*
X040889Y037562D02*
X041039Y037169D01*
X041189Y037562D02*
X041039Y037169D01*
X041277Y037562D02*
X041483D01*
X041371Y037412D01*
X041427D01*
X041465Y037394D01*
X041483Y037375D01*
X041502Y037319D01*
Y037281D01*
X041483Y037225D01*
X041446Y037187D01*
X04139Y037169D01*
X041333D01*
X041277Y037187D01*
X041259Y037206D01*
X04124Y037244D01*
X037944Y024476D02*
X037906Y024438D01*
X037888Y024382D01*
Y024307D01*
X037906Y024251D01*
X037944Y024213D01*
X037981D01*
X038019Y024232D01*
X038038Y024251D01*
X038056Y024288D01*
X038094Y024401D01*
X038113Y024438D01*
X038131Y024457D01*
X038169Y024476D01*
X038225D01*
X038263Y024438D01*
X038281Y024382D01*
Y024307D01*
X038263Y024251D01*
X038225Y024213D01*
X037888Y024564D02*
X038281D01*
X037888D02*
Y024695D01*
X037906Y024751D01*
X037944Y024789D01*
X037981Y024807D01*
X038038Y024826D01*
X038131D01*
X038188Y024807D01*
X038225Y024789D01*
X038263Y024751D01*
X038281Y024695D01*
Y024564D01*
Y025214D02*
X037888Y025064D01*
X038281Y024914D01*
X03815Y02497D02*
Y025158D01*
X04032Y022502D02*
Y022109D01*
X040189Y022502D02*
X040451D01*
X040498D02*
X04076Y022109D01*
Y022502D02*
X040498Y022109D01*
X041291Y022502D02*
X041235Y022484D01*
X041197Y022427D01*
X041179Y022334D01*
Y022277D01*
X041197Y022184D01*
X041235Y022127D01*
X041291Y022109D01*
X041329D01*
X041385Y022127D01*
X041422Y022184D01*
X041441Y022277D01*
Y022334D01*
X041422Y022427D01*
X041385Y022484D01*
X041329Y022502D01*
X041291D01*
X041529D02*
X041679Y022109D01*
X041829Y022502D02*
X041679Y022109D01*
X038989Y020441D02*
Y020104D01*
X039011Y020036D01*
X039056Y019991D01*
X039124Y019969D01*
X039169D01*
X039236Y019991D01*
X039281Y020036D01*
X039304Y020104D01*
Y020441D01*
X039749Y020374D02*
X039704Y020419D01*
X039637Y020441D01*
X039547D01*
X039479Y020419D01*
X039434Y020374D01*
Y020329D01*
X039457Y020284D01*
X039479Y020261D01*
X039524Y020239D01*
X039659Y020194D01*
X039704Y020171D01*
X039726Y020149D01*
X039749Y020104D01*
Y020036D01*
X039704Y019991D01*
X039637Y019969D01*
X039547D01*
X039479Y019991D01*
X039434Y020036D01*
X040215Y019969D02*
X040035Y020441D01*
X039855Y019969D01*
X039922Y020126D02*
X040147D01*
X040325Y020441D02*
Y019969D01*
Y020441D02*
X040527D01*
X040595Y020419D01*
X040617Y020396D01*
X04064Y020351D01*
Y020306D01*
X040617Y020261D01*
X040595Y020239D01*
X040527Y020216D01*
X040325D01*
X040482D02*
X04064Y019969D01*
X040903Y020441D02*
Y019969D01*
X040745Y020441D02*
X04106D01*
X041386D02*
X041161D01*
X041139Y020239D01*
X041161Y020261D01*
X041229Y020284D01*
X041296D01*
X041364Y020261D01*
X041409Y020216D01*
X041431Y020149D01*
Y020104D01*
X041409Y020036D01*
X041364Y019991D01*
X041296Y019969D01*
X041229D01*
X041161Y019991D01*
X041139Y020014D01*
X041117Y020059D01*
X045801Y02528D02*
X045782Y025317D01*
X045745Y025355D01*
X045707Y025374D01*
X045632D01*
X045595Y025355D01*
X045557Y025317D01*
X045539Y02528D01*
X04552Y025224D01*
Y02513D01*
X045539Y025074D01*
X045557Y025036D01*
X045595Y024999D01*
X045632Y02498D01*
X045707D01*
X045745Y024999D01*
X045782Y025036D01*
X045801Y025074D01*
X046137Y025374D02*
X045949D01*
X04593Y025205D01*
X045949Y025224D01*
X046005Y025242D01*
X046062D01*
X046118Y025224D01*
X046155Y025186D01*
X046174Y02513D01*
Y025092D01*
X046155Y025036D01*
X046118Y024999D01*
X046062Y02498D01*
X046005D01*
X045949Y024999D01*
X04593Y025017D01*
X045912Y025055D01*
X046281Y02528D02*
Y025299D01*
X0463Y025336D01*
X046318Y025355D01*
X046356Y025374D01*
X046431D01*
X046468Y025355D01*
X046487Y025336D01*
X046506Y025299D01*
Y025261D01*
X046487Y025224D01*
X04645Y025167D01*
X046262Y02498D01*
X046525D01*
X03947Y04566D02*
X039732D01*
X039601D01*
Y045267D01*
X039864D02*
Y04566D01*
X04006D01*
X040126Y045595D01*
Y045463D01*
X04006Y045398D01*
X039864D01*
X040257Y045267D02*
X040388D01*
X040323D01*
Y04566D01*
X040257Y045595D01*
X04564Y045884D02*
X045902D01*
X045771D01*
Y04549D01*
X046034D02*
Y045884D01*
X04623D01*
X046296Y045818D01*
Y045687D01*
X04623Y045621D01*
X046034D01*
X046427Y045818D02*
X046493Y045884D01*
X046624D01*
X04669Y045818D01*
Y045556D01*
X046624Y04549D01*
X046493D01*
X046427Y045556D01*
Y045818D01*
X04931Y044844D02*
Y04445D01*
X049535D01*
X049822Y044844D02*
X049578D01*
Y04445D01*
X049822D01*
X049578Y044656D02*
X049728D01*
X049887Y044844D02*
Y04445D01*
Y044844D02*
X050019D01*
X050075Y044825D01*
X050112Y044787D01*
X050131Y04475D01*
X05015Y044694D01*
Y0446D01*
X050131Y044544D01*
X050112Y044506D01*
X050075Y044469D01*
X050019Y04445D01*
X049887D01*
X050585Y044844D02*
X050791D01*
X050678Y044694D01*
X050735D01*
X050772Y044675D01*
X050791Y044656D01*
X050809Y0446D01*
Y044562D01*
X050791Y044506D01*
X050753Y044469D01*
X050697Y04445D01*
X050641D01*
X050585Y044469D01*
X050566Y044487D01*
X050547Y044525D01*
X050898Y044844D02*
X051048Y04445D01*
X051197Y044844D02*
X051048Y04445D01*
X051286Y044844D02*
X051492D01*
X051379Y044694D01*
X051436D01*
X051473Y044675D01*
X051492Y044656D01*
X051511Y0446D01*
Y044562D01*
X051492Y044506D01*
X051454Y044469D01*
X051398Y04445D01*
X051342D01*
X051286Y044469D01*
X051267Y044487D01*
X051248Y044525D01*
X04931Y045344D02*
Y04495D01*
X049535D01*
X049822Y045344D02*
X049578D01*
Y04495D01*
X049822D01*
X049578Y045156D02*
X049728D01*
X049887Y045344D02*
Y04495D01*
Y045344D02*
X050019D01*
X050075Y045325D01*
X050112Y045287D01*
X050131Y04525D01*
X05015Y045194D01*
Y0451D01*
X050131Y045044D01*
X050112Y045006D01*
X050075Y044969D01*
X050019Y04495D01*
X049887D01*
X050547Y045137D02*
X050716D01*
X050772Y045156D01*
X050791Y045175D01*
X050809Y045212D01*
Y045269D01*
X050791Y045306D01*
X050772Y045325D01*
X050716Y045344D01*
X050547D01*
Y04495D01*
X051197D02*
X051048Y045344D01*
X050898Y04495D01*
X050954Y045081D02*
X051141D01*
X051383Y045344D02*
X051327Y045325D01*
X051308Y045287D01*
Y04525D01*
X051327Y045212D01*
X051364Y045194D01*
X051439Y045175D01*
X051496Y045156D01*
X051533Y045119D01*
X051552Y045081D01*
Y045025D01*
X051533Y044987D01*
X051514Y044969D01*
X051458Y04495D01*
X051383D01*
X051327Y044969D01*
X051308Y044987D01*
X051289Y045025D01*
Y045081D01*
X051308Y045119D01*
X051346Y045156D01*
X051402Y045175D01*
X051477Y045194D01*
X051514Y045212D01*
X051533Y04525D01*
Y045287D01*
X051514Y045325D01*
X051458Y045344D01*
X051383D01*
X04931Y045844D02*
Y04545D01*
X049535D01*
X049822Y045844D02*
X049578D01*
Y04545D01*
X049822D01*
X049578Y045656D02*
X049728D01*
X049887Y045844D02*
Y04545D01*
Y045844D02*
X050019D01*
X050075Y045825D01*
X050112Y045787D01*
X050131Y04575D01*
X05015Y045694D01*
Y0456D01*
X050131Y045544D01*
X050112Y045506D01*
X050075Y045469D01*
X050019Y04545D01*
X049887D01*
X050828Y04575D02*
X050809Y045787D01*
X050772Y045825D01*
X050735Y045844D01*
X05066D01*
X050622Y045825D01*
X050585Y045787D01*
X050566Y04575D01*
X050547Y045694D01*
Y0456D01*
X050566Y045544D01*
X050585Y045506D01*
X050622Y045469D01*
X05066Y04545D01*
X050735D01*
X050772Y045469D01*
X050809Y045506D01*
X050828Y045544D01*
Y0456D01*
X050735D02*
X050828D01*
X051181Y045787D02*
X051143Y045825D01*
X051087Y045844D01*
X051012D01*
X050956Y045825D01*
X050918Y045787D01*
Y04575D01*
X050937Y045712D01*
X050956Y045694D01*
X050993Y045675D01*
X051106Y045637D01*
X051143Y045619D01*
X051162Y0456D01*
X051181Y045562D01*
Y045506D01*
X051143Y045469D01*
X051087Y04545D01*
X051012D01*
X050956Y045469D01*
X050918Y045506D01*
X051269Y045844D02*
Y04545D01*
Y045844D02*
X051419Y04545D01*
X051569Y045844D02*
X051419Y04545D01*
X051569Y045844D02*
Y04545D01*
X03667Y040654D02*
Y04026D01*
Y040654D02*
X036839D01*
X036895Y040635D01*
X036914Y040616D01*
X036932Y040579D01*
Y040541D01*
X036914Y040504D01*
X036895Y040485D01*
X036839Y040466D01*
X03667D01*
X036801D02*
X036932Y04026D01*
X037264Y040654D02*
X037021D01*
Y04026D01*
X037264D01*
X037021Y040466D02*
X03717D01*
X037592Y040597D02*
X037555Y040635D01*
X037498Y040654D01*
X037423D01*
X037367Y040635D01*
X03733Y040597D01*
Y04056D01*
X037349Y040522D01*
X037367Y040504D01*
X037405Y040485D01*
X037517Y040447D01*
X037555Y040429D01*
X037573Y04041D01*
X037592Y040372D01*
Y040316D01*
X037555Y040279D01*
X037498Y04026D01*
X037423D01*
X037367Y040279D01*
X03733Y040316D01*
X037924Y040654D02*
X03768D01*
Y04026D01*
X037924D01*
X03768Y040466D02*
X03783D01*
X038121Y040654D02*
Y04026D01*
X03799Y040654D02*
X038252D01*
X036752Y031552D02*
X036686Y031487D01*
Y031356D01*
X036752Y03129D01*
X036818D01*
X036883Y031356D01*
Y031487D01*
X036949Y031552D01*
X037014D01*
X03708Y031487D01*
Y031356D01*
X037014Y03129D01*
X036686Y031684D02*
Y031946D01*
Y031815D01*
X03708D01*
Y032077D02*
X036686D01*
X036818Y032208D01*
X036686Y03234D01*
X03708D01*
X036752Y032471D02*
X036686Y032536D01*
Y032668D01*
X036752Y032733D01*
X036818D01*
X036883Y032668D01*
Y032602D01*
Y032668D01*
X036949Y032733D01*
X037014D01*
X03708Y032668D01*
Y032536D01*
X037014Y032471D01*
X03708Y033127D02*
Y032864D01*
X036818Y033127D01*
X036752D01*
X036686Y033061D01*
Y03293D01*
X036752Y032864D01*
X02158Y027192D02*
X021524Y027164D01*
X021468Y027107D01*
X02144Y027051D01*
Y026939D01*
X021468Y026882D01*
X021524Y026826D01*
X02158Y026798D01*
X021665Y02677D01*
X021805D01*
X021889Y026798D01*
X021946Y026826D01*
X022002Y026882D01*
X02203Y026939D01*
Y027051D01*
X022002Y027107D01*
X021946Y027164D01*
X021889Y027192D01*
X02144Y027358D02*
X02203D01*
X02144D02*
Y027611D01*
X021468Y027695D01*
X021496Y027723D01*
X021552Y027751D01*
X021608D01*
X021665Y027723D01*
X021693Y027695D01*
X021721Y027611D01*
Y027358D01*
Y027554D02*
X02203Y027751D01*
X021552Y027883D02*
X021524Y02794D01*
X02144Y028024D01*
X02203D01*
X02158Y028344D02*
X021552D01*
X021496Y028373D01*
X021468Y028401D01*
X02144Y028457D01*
Y028569D01*
X021468Y028626D01*
X021496Y028654D01*
X021552Y028682D01*
X021608D01*
X021665Y028654D01*
X021749Y028598D01*
X02203Y028316D01*
Y02871D01*
X02158Y02887D02*
X021552D01*
X021496Y028898D01*
X021468Y028926D01*
X02144Y028983D01*
Y029095D01*
X021468Y029151D01*
X021496Y029179D01*
X021552Y029208D01*
X021608D01*
X021665Y029179D01*
X021749Y029123D01*
X02203Y028842D01*
Y029236D01*
X02144Y029537D02*
X021468Y029452D01*
X021552Y029396D01*
X021693Y029368D01*
X021777D01*
X021918Y029396D01*
X022002Y029452D01*
X02203Y029537D01*
Y029593D01*
X022002Y029677D01*
X021918Y029733D01*
X021777Y029761D01*
X021693D01*
X021552Y029733D01*
X021468Y029677D01*
X02144Y029593D01*
Y029537D01*
X02214Y022364D02*
Y022082D01*
X022159Y022026D01*
X022196Y021989D01*
X022252Y02197D01*
X02229D01*
X022346Y021989D01*
X022384Y022026D01*
X022402Y022082D01*
Y022364D01*
X022605D02*
X022549Y022345D01*
X02253Y022307D01*
Y02227D01*
X022549Y022232D01*
X022586Y022214D01*
X022661Y022195D01*
X022717Y022176D01*
X022755Y022139D01*
X022774Y022101D01*
Y022045D01*
X022755Y022007D01*
X022736Y021989D01*
X02268Y02197D01*
X022605D01*
X022549Y021989D01*
X02253Y022007D01*
X022511Y022045D01*
Y022101D01*
X02253Y022139D01*
X022567Y022176D01*
X022624Y022195D01*
X022699Y022214D01*
X022736Y022232D01*
X022755Y02227D01*
Y022307D01*
X022736Y022345D01*
X02268Y022364D01*
X022605D01*
X030676Y02447D02*
X03107D01*
X030676D02*
Y024639D01*
X030695Y024695D01*
X030714Y024714D01*
X030751Y024732D01*
X030789D01*
X030826Y024714D01*
X030845Y024695D01*
X030864Y024639D01*
Y02447D01*
Y024601D02*
X03107Y024732D01*
X03077Y024839D02*
X030751D01*
X030714Y024858D01*
X030695Y024877D01*
X030676Y024914D01*
Y024989D01*
X030695Y025027D01*
X030714Y025045D01*
X030751Y025064D01*
X030789D01*
X030826Y025045D01*
X030883Y025008D01*
X03107Y024821D01*
Y025083D01*
X030676Y025433D02*
X03107Y025246D01*
X030676Y025171D02*
Y025433D01*
X030076Y02447D02*
X03047D01*
X030076D02*
Y024639D01*
X030095Y024695D01*
X030114Y024714D01*
X030151Y024732D01*
X030189D01*
X030226Y024714D01*
X030245Y024695D01*
X030264Y024639D01*
Y02447D01*
Y024601D02*
X03047Y024732D01*
X03017Y024839D02*
X030151D01*
X030114Y024858D01*
X030095Y024877D01*
X030076Y024914D01*
Y024989D01*
X030095Y025027D01*
X030114Y025045D01*
X030151Y025064D01*
X030189D01*
X030226Y025045D01*
X030283Y025008D01*
X03047Y024821D01*
Y025083D01*
X030133Y025396D02*
X030095Y025377D01*
X030076Y025321D01*
Y025283D01*
X030095Y025227D01*
X030151Y02519D01*
X030245Y025171D01*
X030339D01*
X030414Y02519D01*
X030451Y025227D01*
X03047Y025283D01*
Y025302D01*
X030451Y025358D01*
X030414Y025396D01*
X030358Y025415D01*
X030339D01*
X030283Y025396D01*
X030245Y025358D01*
X030226Y025302D01*
Y025283D01*
X030245Y025227D01*
X030283Y02519D01*
X030339Y025171D01*
X031246Y02447D02*
X03164D01*
X031246D02*
Y024639D01*
X031265Y024695D01*
X031284Y024714D01*
X031321Y024732D01*
X031359D01*
X031396Y024714D01*
X031415Y024695D01*
X031434Y024639D01*
Y02447D01*
Y024601D02*
X03164Y024732D01*
X03134Y024839D02*
X031321D01*
X031284Y024858D01*
X031265Y024877D01*
X031246Y024914D01*
Y024989D01*
X031265Y025027D01*
X031284Y025045D01*
X031321Y025064D01*
X031359D01*
X031396Y025045D01*
X031453Y025008D01*
X03164Y024821D01*
Y025083D01*
X031246Y025358D02*
X031509Y025171D01*
Y025452D01*
X031246Y025358D02*
X03164D01*
X029536Y02447D02*
X02993D01*
X029536D02*
Y024639D01*
X029555Y024695D01*
X029574Y024714D01*
X029611Y024732D01*
X029649D01*
X029686Y024714D01*
X029705Y024695D01*
X029724Y024639D01*
Y02447D01*
Y024601D02*
X02993Y024732D01*
X02963Y024839D02*
X029611D01*
X029574Y024858D01*
X029555Y024877D01*
X029536Y024914D01*
Y024989D01*
X029555Y025027D01*
X029574Y025045D01*
X029611Y025064D01*
X029649D01*
X029686Y025045D01*
X029743Y025008D01*
X02993Y024821D01*
Y025083D01*
X029536Y025283D02*
X029555Y025227D01*
X029611Y02519D01*
X029705Y025171D01*
X029761D01*
X029855Y02519D01*
X029911Y025227D01*
X02993Y025283D01*
Y025321D01*
X029911Y025377D01*
X029855Y025415D01*
X029761Y025433D01*
X029705D01*
X029611Y025415D01*
X029555Y025377D01*
X029536Y025321D01*
Y025283D01*
X022246Y02087D02*
X02264D01*
X022246D02*
Y021039D01*
X022265Y021095D01*
X022284Y021114D01*
X022321Y021132D01*
X022359D01*
X022396Y021114D01*
X022415Y021095D01*
X022434Y021039D01*
Y02087D01*
Y021001D02*
X02264Y021132D01*
X022321Y021221D02*
X022303Y021258D01*
X022246Y021314D01*
X02264D01*
X022246Y021772D02*
X02264Y021584D01*
X022246Y021509D02*
Y021772D01*
X026052Y022634D02*
Y02224D01*
Y022634D02*
X026296D01*
X026052Y022446D02*
X026202D01*
X02636Y02254D02*
Y022559D01*
X026378Y022596D01*
X026397Y022615D01*
X026435Y022634D01*
X026509D01*
X026547Y022615D01*
X026566Y022596D01*
X026584Y022559D01*
Y022521D01*
X026566Y022484D01*
X026528Y022427D01*
X026341Y02224D01*
X026603D01*
X02528Y021461D02*
X025243Y021442D01*
X025205Y021405D01*
X025186Y021367D01*
Y021292D01*
X025205Y021255D01*
X025243Y021217D01*
X02528Y021199D01*
X025336Y02118D01*
X02543D01*
X025486Y021199D01*
X025524Y021217D01*
X025561Y021255D01*
X02558Y021292D01*
Y021367D01*
X025561Y021405D01*
X025524Y021442D01*
X025486Y021461D01*
X025186Y021609D02*
Y021815D01*
X025336Y021703D01*
Y021759D01*
X025355Y021797D01*
X025374Y021815D01*
X02543Y021834D01*
X025468D01*
X025524Y021815D01*
X025561Y021778D01*
X02558Y021722D01*
Y021665D01*
X025561Y021609D01*
X025543Y02159D01*
X025505Y021572D01*
X025318Y022166D02*
X025374Y022147D01*
X025411Y02211D01*
X02543Y022053D01*
Y022035D01*
X025411Y021978D01*
X025374Y021941D01*
X025318Y021922D01*
X025299D01*
X025243Y021941D01*
X025205Y021978D01*
X025186Y022035D01*
Y022053D01*
X025205Y02211D01*
X025243Y022147D01*
X025318Y022166D01*
X025411D01*
X025505Y022147D01*
X025561Y02211D01*
X02558Y022053D01*
Y022016D01*
X025561Y02196D01*
X025524Y021941D01*
X022571Y01963D02*
X022552Y019667D01*
X022515Y019705D01*
X022477Y019724D01*
X022402D01*
X022365Y019705D01*
X022327Y019667D01*
X022309Y01963D01*
X02229Y019574D01*
Y01948D01*
X022309Y019424D01*
X022327Y019386D01*
X022365Y019349D01*
X022402Y01933D01*
X022477D01*
X022515Y019349D01*
X022552Y019386D01*
X022571Y019424D01*
X022719Y019724D02*
X022925D01*
X022813Y019574D01*
X022869D01*
X022907Y019555D01*
X022925Y019536D01*
X022944Y01948D01*
Y019442D01*
X022925Y019386D01*
X022888Y019349D01*
X022832Y01933D01*
X022775D01*
X022719Y019349D01*
X0227Y019367D01*
X022682Y019405D01*
X023126Y019724D02*
X02307Y019705D01*
X023051Y019667D01*
Y01963D01*
X02307Y019592D01*
X023107Y019574D01*
X023182Y019555D01*
X023238Y019536D01*
X023276Y019499D01*
X023295Y019461D01*
Y019405D01*
X023276Y019367D01*
X023257Y019349D01*
X023201Y01933D01*
X023126D01*
X02307Y019349D01*
X023051Y019367D01*
X023032Y019405D01*
Y019461D01*
X023051Y019499D01*
X023088Y019536D01*
X023145Y019555D01*
X02322Y019574D01*
X023257Y019592D01*
X023276Y01963D01*
Y019667D01*
X023257Y019705D01*
X023201Y019724D01*
X023126D01*
X05466Y039864D02*
Y03947D01*
Y039864D02*
X054829D01*
X054885Y039845D01*
X054904Y039826D01*
X054922Y039789D01*
Y039751D01*
X054904Y039714D01*
X054885Y039695D01*
X054829Y039676D01*
X05466D01*
X054791D02*
X054922Y03947D01*
X055235Y039864D02*
X055048D01*
X055029Y039695D01*
X055048Y039714D01*
X055104Y039732D01*
X05516D01*
X055217Y039714D01*
X055254Y039676D01*
X055273Y03962D01*
Y039582D01*
X055254Y039526D01*
X055217Y039489D01*
X05516Y03947D01*
X055104D01*
X055048Y039489D01*
X055029Y039507D01*
X055011Y039545D01*
X05538Y03977D02*
Y039789D01*
X055399Y039826D01*
X055417Y039845D01*
X055455Y039864D01*
X05553D01*
X055567Y039845D01*
X055586Y039826D01*
X055605Y039789D01*
Y039751D01*
X055586Y039714D01*
X055548Y039657D01*
X055361Y03947D01*
X055623D01*
X056032Y019307D02*
X055995Y019345D01*
X055939Y019364D01*
X055864D01*
X055807Y019345D01*
X05577Y019307D01*
Y01927D01*
X055789Y019232D01*
X055807Y019214D01*
X055845Y019195D01*
X055957Y019157D01*
X055995Y019139D01*
X056014Y01912D01*
X056032Y019082D01*
Y019026D01*
X055995Y018989D01*
X055939Y01897D01*
X055864D01*
X055807Y018989D01*
X05577Y019026D01*
X056308Y019364D02*
X056121Y019101D01*
X056402D01*
X056308Y019364D02*
Y01897D01*
X047139Y019317D02*
X047102Y019355D01*
X047046Y019374D01*
X046971D01*
X046914Y019355D01*
X046877Y019317D01*
Y01928D01*
X046896Y019242D01*
X046914Y019224D01*
X046952Y019205D01*
X047064Y019167D01*
X047102Y019149D01*
X047121Y01913D01*
X047139Y019092D01*
Y019036D01*
X047102Y018999D01*
X047046Y01898D01*
X046971D01*
X046914Y018999D01*
X046877Y019036D01*
X047246Y01928D02*
Y019299D01*
X047265Y019336D01*
X047284Y019355D01*
X047321Y019374D01*
X047396D01*
X047434Y019355D01*
X047452Y019336D01*
X047471Y019299D01*
Y019261D01*
X047452Y019224D01*
X047415Y019167D01*
X047227Y01898D01*
X04749D01*
X051402Y019337D02*
X051365Y019375D01*
X051308Y019394D01*
X051233D01*
X051177Y019375D01*
X05114Y019337D01*
Y0193D01*
X051158Y019262D01*
X051177Y019244D01*
X051215Y019225D01*
X051327Y019187D01*
X051365Y019169D01*
X051383Y01915D01*
X051402Y019112D01*
Y019056D01*
X051365Y019019D01*
X051308Y019D01*
X051233D01*
X051177Y019019D01*
X05114Y019056D01*
X051528Y019394D02*
X051734D01*
X051621Y019244D01*
X051678D01*
X051715Y019225D01*
X051734Y019206D01*
X051753Y01915D01*
Y019112D01*
X051734Y019056D01*
X051696Y019019D01*
X05164Y019D01*
X051584D01*
X051528Y019019D01*
X051509Y019037D01*
X05149Y019075D01*
X0248Y024674D02*
Y02428D01*
Y024674D02*
X024969D01*
X025025Y024655D01*
X025044Y024636D01*
X025062Y024599D01*
Y024561D01*
X025044Y024524D01*
X025025Y024505D01*
X024969Y024486D01*
X0248D01*
X024931D02*
X025062Y02428D01*
X025375Y024617D02*
X025357Y024655D01*
X0253Y024674D01*
X025263D01*
X025207Y024655D01*
X025169Y024599D01*
X025151Y024505D01*
Y024411D01*
X025169Y024336D01*
X025207Y024299D01*
X025263Y02428D01*
X025282D01*
X025338Y024299D01*
X025375Y024336D01*
X025394Y024392D01*
Y024411D01*
X025375Y024467D01*
X025338Y024505D01*
X025282Y024524D01*
X025263D01*
X025207Y024505D01*
X025169Y024467D01*
X025151Y024411D01*
X025705Y024617D02*
X025687Y024655D01*
X02563Y024674D01*
X025593D01*
X025537Y024655D01*
X025499Y024599D01*
X02548Y024505D01*
Y024411D01*
X025499Y024336D01*
X025537Y024299D01*
X025593Y02428D01*
X025612D01*
X025668Y024299D01*
X025705Y024336D01*
X025724Y024392D01*
Y024411D01*
X025705Y024467D01*
X025668Y024505D01*
X025612Y024524D01*
X025593D01*
X025537Y024505D01*
X025499Y024467D01*
X02548Y024411D01*
X05423Y023054D02*
Y02266D01*
Y023054D02*
X054399D01*
X054455Y023035D01*
X054474Y023016D01*
X054492Y022979D01*
Y022941D01*
X054474Y022904D01*
X054455Y022885D01*
X054399Y022866D01*
X05423D01*
X054361D02*
X054492Y02266D01*
X054618Y023054D02*
X054824D01*
X054712Y022904D01*
X054768D01*
X054805Y022885D01*
X054824Y022866D01*
X054843Y02281D01*
Y022772D01*
X054824Y022716D01*
X054787Y022679D01*
X05473Y02266D01*
X054674D01*
X054618Y022679D01*
X054599Y022697D01*
X054581Y022735D01*
X055043Y023054D02*
X054987Y023035D01*
X05495Y022979D01*
X054931Y022885D01*
Y022829D01*
X05495Y022735D01*
X054987Y022679D01*
X055043Y02266D01*
X055081D01*
X055137Y022679D01*
X055175Y022735D01*
X055193Y022829D01*
Y022885D01*
X055175Y022979D01*
X055137Y023035D01*
X055081Y023054D01*
X055043D01*
X04557Y023044D02*
Y02265D01*
Y023044D02*
X045739D01*
X045795Y023025D01*
X045814Y023006D01*
X045832Y022969D01*
Y022931D01*
X045814Y022894D01*
X045795Y022875D01*
X045739Y022856D01*
X04557D01*
X045701D02*
X045832Y02265D01*
X045939Y02295D02*
Y022969D01*
X045958Y023006D01*
X045977Y023025D01*
X046014Y023044D01*
X046089D01*
X046127Y023025D01*
X046145Y023006D01*
X046164Y022969D01*
Y022931D01*
X046145Y022894D01*
X046108Y022837D01*
X045921Y02265D01*
X046183D01*
X046365Y023044D02*
X046308Y023025D01*
X04629Y022987D01*
Y02295D01*
X046308Y022912D01*
X046346Y022894D01*
X046421Y022875D01*
X046477Y022856D01*
X046515Y022819D01*
X046533Y022781D01*
Y022725D01*
X046515Y022687D01*
X046496Y022669D01*
X04644Y02265D01*
X046365D01*
X046308Y022669D01*
X04629Y022687D01*
X046271Y022725D01*
Y022781D01*
X04629Y022819D01*
X046327Y022856D01*
X046383Y022875D01*
X046458Y022894D01*
X046496Y022912D01*
X046515Y02295D01*
Y022987D01*
X046496Y023025D01*
X04644Y023044D01*
X046365D01*
X04982D02*
Y02265D01*
Y023044D02*
X049989D01*
X050045Y023025D01*
X050064Y023006D01*
X050082Y022969D01*
Y022931D01*
X050064Y022894D01*
X050045Y022875D01*
X049989Y022856D01*
X04982D01*
X049951D02*
X050082Y02265D01*
X050189Y02295D02*
Y022969D01*
X050208Y023006D01*
X050227Y023025D01*
X050264Y023044D01*
X050339D01*
X050377Y023025D01*
X050395Y023006D01*
X050414Y022969D01*
Y022931D01*
X050395Y022894D01*
X050358Y022837D01*
X050171Y02265D01*
X050433D01*
X050765Y022912D02*
X050746Y022856D01*
X050708Y022819D01*
X050652Y0228D01*
X050633D01*
X050577Y022819D01*
X05054Y022856D01*
X050521Y022912D01*
Y022931D01*
X05054Y022987D01*
X050577Y023025D01*
X050633Y023044D01*
X050652D01*
X050708Y023025D01*
X050746Y022987D01*
X050765Y022912D01*
Y022819D01*
X050746Y022725D01*
X050708Y022669D01*
X050652Y02265D01*
X050615D01*
X050559Y022669D01*
X05054Y022706D01*
X035496Y04252D02*
X03589D01*
X035496D02*
Y042689D01*
X035515Y042745D01*
X035534Y042764D01*
X035571Y042782D01*
X035609D01*
X035646Y042764D01*
X035665Y042745D01*
X035684Y042689D01*
Y04252D01*
Y042651D02*
X03589Y042782D01*
X035571Y042871D02*
X035553Y042908D01*
X035496Y042964D01*
X03589D01*
X035628Y043403D02*
X035684Y043384D01*
X035721Y043347D01*
X03574Y04329D01*
Y043272D01*
X035721Y043215D01*
X035684Y043178D01*
X035628Y043159D01*
X035609D01*
X035553Y043178D01*
X035515Y043215D01*
X035496Y043272D01*
Y04329D01*
X035515Y043347D01*
X035553Y043384D01*
X035628Y043403D01*
X035721D01*
X035815Y043384D01*
X035871Y043347D01*
X03589Y04329D01*
Y043253D01*
X035871Y043197D01*
X035834Y043178D01*
X056131Y02299D02*
X056112Y023027D01*
X056075Y023065D01*
X056037Y023084D01*
X055962D01*
X055925Y023065D01*
X055887Y023027D01*
X055869Y02299D01*
X05585Y022934D01*
Y02284D01*
X055869Y022784D01*
X055887Y022746D01*
X055925Y022709D01*
X055962Y02269D01*
X056037D01*
X056075Y022709D01*
X056112Y022746D01*
X056131Y022784D01*
X056429Y023084D02*
X056242Y022821D01*
X056523D01*
X056429Y023084D02*
Y02269D01*
X056705Y023084D02*
X056648Y023065D01*
X056611Y023009D01*
X056592Y022915D01*
Y022859D01*
X056611Y022765D01*
X056648Y022709D01*
X056705Y02269D01*
X056742D01*
X056798Y022709D01*
X056836Y022765D01*
X056855Y022859D01*
Y022915D01*
X056836Y023009D01*
X056798Y023065D01*
X056742Y023084D01*
X056705D01*
X047391Y02299D02*
X047372Y023027D01*
X047335Y023065D01*
X047297Y023084D01*
X047222D01*
X047185Y023065D01*
X047147Y023027D01*
X047129Y02299D01*
X04711Y022934D01*
Y02284D01*
X047129Y022784D01*
X047147Y022746D01*
X047185Y022709D01*
X047222Y02269D01*
X047297D01*
X047335Y022709D01*
X047372Y022746D01*
X047391Y022784D01*
X047539Y023084D02*
X047745D01*
X047633Y022934D01*
X047689D01*
X047727Y022915D01*
X047745Y022896D01*
X047764Y02284D01*
Y022802D01*
X047745Y022746D01*
X047708Y022709D01*
X047652Y02269D01*
X047595D01*
X047539Y022709D01*
X04752Y022727D01*
X047502Y022765D01*
X048077Y023027D02*
X048058Y023065D01*
X048002Y023084D01*
X047965D01*
X047908Y023065D01*
X047871Y023009D01*
X047852Y022915D01*
Y022821D01*
X047871Y022746D01*
X047908Y022709D01*
X047965Y02269D01*
X047983D01*
X04804Y022709D01*
X048077Y022746D01*
X048096Y022802D01*
Y022821D01*
X048077Y022877D01*
X04804Y022915D01*
X047983Y022934D01*
X047965D01*
X047908Y022915D01*
X047871Y022877D01*
X047852Y022821D01*
X051791Y02299D02*
X051772Y023027D01*
X051735Y023065D01*
X051697Y023084D01*
X051622D01*
X051585Y023065D01*
X051547Y023027D01*
X051529Y02299D01*
X05151Y022934D01*
Y02284D01*
X051529Y022784D01*
X051547Y022746D01*
X051585Y022709D01*
X051622Y02269D01*
X051697D01*
X051735Y022709D01*
X051772Y022746D01*
X051791Y022784D01*
X051939Y023084D02*
X052145D01*
X052033Y022934D01*
X052089D01*
X052127Y022915D01*
X052145Y022896D01*
X052164Y02284D01*
Y022802D01*
X052145Y022746D01*
X052108Y022709D01*
X052052Y02269D01*
X051995D01*
X051939Y022709D01*
X05192Y022727D01*
X051902Y022765D01*
X052515Y023084D02*
X052327Y02269D01*
X052252Y023084D02*
X052515D01*
X02023Y02495D02*
Y02435D01*
Y02495D02*
X020487D01*
X020573Y024921D01*
X020601Y024893D01*
X02063Y024836D01*
Y024778D01*
X020601Y024721D01*
X020573Y024693D01*
X020487Y024664D01*
X02023D01*
X02043D02*
X02063Y02435D01*
X020764Y02495D02*
Y02435D01*
Y02495D02*
X021136D01*
X020764Y024664D02*
X020993D01*
X021204Y02495D02*
Y02435D01*
X02133Y02495D02*
Y02435D01*
Y02495D02*
X02153D01*
X021615Y024921D01*
X021673Y024864D01*
X021701Y024807D01*
X02173Y024721D01*
Y024579D01*
X021701Y024493D01*
X021673Y024436D01*
X021615Y024379D01*
X02153Y02435D01*
X02133D01*
X021864Y024836D02*
X021921Y024864D01*
X022007Y02495D01*
Y02435D01*
X04683Y044484D02*
Y04409D01*
Y044484D02*
X04698Y04409D01*
X04713Y044484D02*
X04698Y04409D01*
X04713Y044484D02*
Y04409D01*
X047242Y044409D02*
X04728Y044427D01*
X047336Y044484D01*
Y04409D01*
X05922Y047453D02*
Y04702D01*
X059467D01*
X059783Y047453D02*
X059515D01*
Y04702D01*
X059783D01*
X059515Y047247D02*
X05968D01*
X059855Y047453D02*
Y04702D01*
Y047453D02*
X059999D01*
X060061Y047432D01*
X060102Y047391D01*
X060123Y04735D01*
X060144Y047288D01*
Y047185D01*
X060123Y047123D01*
X060102Y047082D01*
X060061Y047041D01*
X059999Y04702D01*
X059855D01*
X060282Y047453D02*
X060509D01*
X060385Y047288D01*
X060447D01*
X060488Y047267D01*
X060509Y047247D01*
X060529Y047185D01*
Y047144D01*
X060509Y047082D01*
X060467Y047041D01*
X060406Y04702D01*
X060344D01*
X060282Y047041D01*
X060261Y047061D01*
X060241Y047102D01*
X05922Y046763D02*
Y04633D01*
X059467D01*
X059783Y046763D02*
X059515D01*
Y04633D01*
X059783D01*
X059515Y046557D02*
X05968D01*
X059855Y046763D02*
Y04633D01*
Y046763D02*
X059999D01*
X060061Y046742D01*
X060102Y046701D01*
X060123Y04666D01*
X060144Y046598D01*
Y046495D01*
X060123Y046433D01*
X060102Y046392D01*
X060061Y046351D01*
X059999Y04633D01*
X059855D01*
X060261Y04666D02*
Y046681D01*
X060282Y046722D01*
X060302Y046742D01*
X060344Y046763D01*
X060426D01*
X060467Y046742D01*
X060488Y046722D01*
X060509Y046681D01*
Y046639D01*
X060488Y046598D01*
X060447Y046536D01*
X060241Y04633D01*
X060529D01*
X05922Y045913D02*
Y04548D01*
X059467D01*
X059783Y045913D02*
X059515D01*
Y04548D01*
X059783D01*
X059515Y045707D02*
X05968D01*
X059855Y045913D02*
Y04548D01*
Y045913D02*
X059999D01*
X060061Y045892D01*
X060102Y045851D01*
X060123Y04581D01*
X060144Y045748D01*
Y045645D01*
X060123Y045583D01*
X060102Y045542D01*
X060061Y045501D01*
X059999Y04548D01*
X059855D01*
X060241Y045831D02*
X060282Y045851D01*
X060344Y045913D01*
Y04548D01*
X035877Y040204D02*
Y039904D01*
X035859Y039847D01*
X03584Y039829D01*
X035802Y03981D01*
X035765D01*
X035727Y039829D01*
X035709Y039847D01*
X03569Y039904D01*
Y039941D01*
X036016Y040204D02*
X036222D01*
X03611Y040054D01*
X036166D01*
X036204Y040035D01*
X036222Y040016D01*
X036241Y03996D01*
Y039922D01*
X036222Y039866D01*
X036185Y039829D01*
X036129Y03981D01*
X036072D01*
X036016Y039829D01*
X035997Y039847D01*
X035979Y039885D01*
X03602Y034373D02*
Y034091D01*
X036039Y034035D01*
X036076Y033998D01*
X036132Y033979D01*
X03617D01*
X036226Y033998D01*
X036264Y034035D01*
X036282Y034091D01*
Y034373D01*
X036616Y034316D02*
X036597Y034354D01*
X036541Y034373D01*
X036504D01*
X036447Y034354D01*
X03641Y034298D01*
X036391Y034204D01*
Y03411D01*
X03641Y034035D01*
X036447Y033998D01*
X036504Y033979D01*
X036522D01*
X036579Y033998D01*
X036616Y034035D01*
X036635Y034091D01*
Y03411D01*
X036616Y034166D01*
X036579Y034204D01*
X036522Y034223D01*
X036504D01*
X036447Y034204D01*
X03641Y034166D01*
X036391Y03411D01*
X053453Y03538D02*
X053846D01*
X053453D02*
Y035549D01*
X053472Y035605D01*
X05349Y035624D01*
X053528Y035642D01*
X053565D01*
X053603Y035624D01*
X053622Y035605D01*
X05364Y035549D01*
Y03538D01*
Y035511D02*
X053846Y035642D01*
X053453Y035918D02*
X053715Y035731D01*
Y036012D01*
X053453Y035918D02*
X053846D01*
X053453Y036119D02*
Y036325D01*
X053603Y036212D01*
Y036268D01*
X053622Y036306D01*
X05364Y036325D01*
X053697Y036343D01*
X053734D01*
X05379Y036325D01*
X053828Y036287D01*
X053846Y036231D01*
Y036175D01*
X053828Y036119D01*
X053809Y0361D01*
X053771Y036081D01*
X03849Y028584D02*
Y02819D01*
Y028584D02*
X038734D01*
X03849Y028396D02*
X03864D01*
X038779Y028584D02*
Y02819D01*
Y028584D02*
X038947D01*
X039004Y028565D01*
X039022Y028546D01*
X039041Y028509D01*
Y028471D01*
X039022Y028434D01*
X039004Y028415D01*
X038947Y028396D01*
X038779D02*
X038947D01*
X039004Y028377D01*
X039022Y028359D01*
X039041Y028321D01*
Y028265D01*
X039022Y028227D01*
X039004Y028209D01*
X038947Y02819D01*
X038779D01*
X039354Y028584D02*
X039167D01*
X039148Y028415D01*
X039167Y028434D01*
X039223Y028452D01*
X039279D01*
X039335Y028434D01*
X039373Y028396D01*
X039392Y02834D01*
Y028302D01*
X039373Y028246D01*
X039335Y028209D01*
X039279Y02819D01*
X039223D01*
X039167Y028209D01*
X039148Y028227D01*
X039129Y028265D01*
X02779Y025494D02*
Y0251D01*
Y025494D02*
X028034D01*
X02779Y025306D02*
X02794D01*
X028079Y025494D02*
Y0251D01*
Y025494D02*
X028247D01*
X028304Y025475D01*
X028322Y025456D01*
X028341Y025419D01*
Y025381D01*
X028322Y025344D01*
X028304Y025325D01*
X028247Y025306D01*
X028079D02*
X028247D01*
X028304Y025287D01*
X028322Y025269D01*
X028341Y025231D01*
Y025175D01*
X028322Y025137D01*
X028304Y025119D01*
X028247Y0251D01*
X028079D01*
X028617Y025494D02*
X028429Y025231D01*
X02871D01*
X028617Y025494D02*
Y0251D01*
X01821Y027714D02*
Y02732D01*
Y027714D02*
X018341D01*
X018397Y027695D01*
X018435Y027657D01*
X018454Y02762D01*
X018472Y027564D01*
Y02747D01*
X018454Y027414D01*
X018435Y027376D01*
X018397Y027339D01*
X018341Y02732D01*
X01821D01*
X018561Y027639D02*
X018598Y027657D01*
X018654Y027714D01*
Y02732D01*
X018849Y027639D02*
X018887Y027657D01*
X018943Y027714D01*
Y02732D01*
X020484Y02989D02*
X02009D01*
X020484D02*
Y029721D01*
X020465Y029665D01*
X020446Y029646D01*
X020409Y029628D01*
X020371D01*
X020334Y029646D01*
X020315Y029665D01*
X020296Y029721D01*
Y02989D01*
Y029759D02*
X02009Y029628D01*
X020427Y029315D02*
X020465Y029333D01*
X020484Y02939D01*
Y029427D01*
X020465Y029483D01*
X020409Y029521D01*
X020315Y029539D01*
X020221D01*
X020146Y029521D01*
X020109Y029483D01*
X02009Y029427D01*
Y029408D01*
X020109Y029352D01*
X020146Y029315D01*
X020202Y029296D01*
X020221D01*
X020277Y029315D01*
X020315Y029352D01*
X020334Y029408D01*
Y029427D01*
X020315Y029483D01*
X020277Y029521D01*
X020221Y029539D01*
X020484Y029022D02*
X020221Y02921D01*
Y028928D01*
X020484Y029022D02*
X02009D01*
X019864Y02989D02*
X01947D01*
X019864D02*
Y029721D01*
X019845Y029665D01*
X019826Y029646D01*
X019789Y029628D01*
X019751D01*
X019714Y029646D01*
X019695Y029665D01*
X019676Y029721D01*
Y02989D01*
Y029759D02*
X01947Y029628D01*
X019807Y029315D02*
X019845Y029333D01*
X019864Y02939D01*
Y029427D01*
X019845Y029483D01*
X019789Y029521D01*
X019695Y029539D01*
X019601D01*
X019526Y029521D01*
X019489Y029483D01*
X01947Y029427D01*
Y029408D01*
X019489Y029352D01*
X019526Y029315D01*
X019582Y029296D01*
X019601D01*
X019657Y029315D01*
X019695Y029352D01*
X019714Y029408D01*
Y029427D01*
X019695Y029483D01*
X019657Y029521D01*
X019601Y029539D01*
X019864Y029172D02*
Y028966D01*
X019714Y029078D01*
Y029022D01*
X019695Y028985D01*
X019676Y028966D01*
X01962Y028947D01*
X019582D01*
X019526Y028966D01*
X019489Y029003D01*
X01947Y02906D01*
Y029116D01*
X019489Y029172D01*
X019507Y029191D01*
X019545Y02921D01*
X03229Y024524D02*
Y02413D01*
Y024524D02*
X032421D01*
X032477Y024505D01*
X032515Y024467D01*
X032534Y02443D01*
X032552Y024374D01*
Y02428D01*
X032534Y024224D01*
X032515Y024186D01*
X032477Y024149D01*
X032421Y02413D01*
X03229D01*
X032903Y024524D02*
X032715Y02413D01*
X032641Y024524D02*
X032903D01*
X03631Y024374D02*
Y02398D01*
Y024374D02*
X036441D01*
X036497Y024355D01*
X036535Y024317D01*
X036554Y02428D01*
X036572Y024224D01*
Y02413D01*
X036554Y024074D01*
X036535Y024036D01*
X036497Y023999D01*
X036441Y02398D01*
X03631D01*
X036885Y024317D02*
X036867Y024355D01*
X03681Y024374D01*
X036773D01*
X036717Y024355D01*
X036679Y024299D01*
X036661Y024205D01*
Y024111D01*
X036679Y024036D01*
X036717Y023999D01*
X036773Y02398D01*
X036792D01*
X036848Y023999D01*
X036885Y024036D01*
X036904Y024092D01*
Y024111D01*
X036885Y024167D01*
X036848Y024205D01*
X036792Y024224D01*
X036773D01*
X036717Y024205D01*
X036679Y024167D01*
X036661Y024111D01*
X02096Y029609D02*
X020997Y029628D01*
X021035Y029665D01*
X021054Y029703D01*
Y029778D01*
X021035Y029815D01*
X020997Y029853D01*
X02096Y029871D01*
X020904Y02989D01*
X02081D01*
X020754Y029871D01*
X020716Y029853D01*
X020679Y029815D01*
X02066Y029778D01*
Y029703D01*
X020679Y029665D01*
X020716Y029628D01*
X020754Y029609D01*
X021054Y029273D02*
Y029461D01*
X020885Y02948D01*
X020904Y029461D01*
X020922Y029405D01*
Y029348D01*
X020904Y029292D01*
X020866Y029255D01*
X02081Y029236D01*
X020772D01*
X020716Y029255D01*
X020679Y029292D01*
X02066Y029348D01*
Y029405D01*
X020679Y029461D01*
X020697Y02948D01*
X020735Y029498D01*
X020997Y028923D02*
X021035Y028942D01*
X021054Y028998D01*
Y029035D01*
X021035Y029092D01*
X020979Y029129D01*
X020885Y029148D01*
X020791D01*
X020716Y029129D01*
X020679Y029092D01*
X02066Y029035D01*
Y029017D01*
X020679Y02896D01*
X020716Y028923D01*
X020772Y028904D01*
X020791D01*
X020847Y028923D01*
X020885Y02896D01*
X020904Y029017D01*
Y029035D01*
X020885Y029092D01*
X020847Y029129D01*
X020791Y029148D01*
X036332Y042277D02*
X036295Y042315D01*
X036239Y042334D01*
X036164D01*
X036107Y042315D01*
X03607Y042277D01*
Y04224D01*
X036089Y042202D01*
X036107Y042184D01*
X036145Y042165D01*
X036257Y042127D01*
X036295Y042109D01*
X036314Y04209D01*
X036332Y042052D01*
Y041996D01*
X036295Y041959D01*
X036239Y04194D01*
X036164D01*
X036107Y041959D01*
X03607Y041996D01*
X036421Y042259D02*
X036458Y042277D01*
X036514Y042334D01*
Y04194D01*
X033656Y0241D02*
X03405D01*
X033656D02*
Y024269D01*
X033675Y024325D01*
X033694Y024344D01*
X033731Y024362D01*
X033769D01*
X033806Y024344D01*
X033825Y024325D01*
X033844Y024269D01*
Y0241D01*
Y024231D02*
X03405Y024362D01*
X03375Y024469D02*
X033731D01*
X033694Y024488D01*
X033675Y024507D01*
X033656Y024544D01*
Y024619D01*
X033675Y024657D01*
X033694Y024675D01*
X033731Y024694D01*
X033769D01*
X033806Y024675D01*
X033863Y024638D01*
X03405Y024451D01*
Y024713D01*
X033656Y025026D02*
Y024839D01*
X033825Y02482D01*
X033806Y024839D01*
X033788Y024895D01*
Y024951D01*
X033806Y025007D01*
X033844Y025045D01*
X0339Y025063D01*
X033938D01*
X033994Y025045D01*
X034031Y025007D01*
X03405Y024951D01*
Y024895D01*
X034031Y024839D01*
X034013Y02482D01*
X033975Y024801D01*
X03496Y024804D02*
Y02441D01*
Y024804D02*
X035129D01*
X035185Y024785D01*
X035204Y024766D01*
X035222Y024729D01*
Y024691D01*
X035204Y024654D01*
X035185Y024635D01*
X035129Y024616D01*
X03496D01*
X035091D02*
X035222Y02441D01*
X035329Y02471D02*
Y024729D01*
X035348Y024766D01*
X035367Y024785D01*
X035404Y024804D01*
X035479D01*
X035517Y024785D01*
X035535Y024766D01*
X035554Y024729D01*
Y024691D01*
X035535Y024654D01*
X035498Y024597D01*
X035311Y02441D01*
X035573D01*
X035698Y024804D02*
X035905D01*
X035792Y024654D01*
X035848D01*
X035886Y024635D01*
X035905Y024616D01*
X035923Y02456D01*
Y024522D01*
X035905Y024466D01*
X035867Y024429D01*
X035811Y02441D01*
X035755D01*
X035698Y024429D01*
X03568Y024447D01*
X035661Y024485D01*
X038526Y02283D02*
X03892D01*
X038526D02*
Y022999D01*
X038545Y023055D01*
X038564Y023074D01*
X038601Y023092D01*
X038639D01*
X038676Y023074D01*
X038695Y023055D01*
X038714Y022999D01*
Y02283D01*
Y022961D02*
X03892Y023092D01*
X038601Y023181D02*
X038583Y023218D01*
X038526Y023274D01*
X03892D01*
X038526Y023563D02*
X038545Y023507D01*
X038583Y023488D01*
X03862D01*
X038658Y023507D01*
X038676Y023544D01*
X038695Y023619D01*
X038714Y023675D01*
X038751Y023713D01*
X038789Y023732D01*
X038845D01*
X038883Y023713D01*
X038901Y023694D01*
X03892Y023638D01*
Y023563D01*
X038901Y023507D01*
X038883Y023488D01*
X038845Y023469D01*
X038789D01*
X038751Y023488D01*
X038714Y023525D01*
X038695Y023582D01*
X038676Y023657D01*
X038658Y023694D01*
X03862Y023713D01*
X038583D01*
X038545Y023694D01*
X038526Y023638D01*
Y023563D01*
X033587Y023074D02*
Y022774D01*
X033569Y022717D01*
X03355Y022699D01*
X033512Y02268D01*
X033475D01*
X033437Y022699D01*
X033419Y022717D01*
X0334Y022774D01*
Y022811D01*
X033707Y02298D02*
Y022999D01*
X033726Y023036D01*
X033745Y023055D01*
X033782Y023074D01*
X033857D01*
X033895Y023055D01*
X033914Y023036D01*
X033932Y022999D01*
Y022961D01*
X033914Y022924D01*
X033876Y022867D01*
X033689Y02268D01*
X033951D01*
X017164Y026333D02*
X016864D01*
X016807Y026351D01*
X016789Y02637D01*
X01677Y026408D01*
Y026445D01*
X016789Y026483D01*
X016807Y026501D01*
X016864Y02652D01*
X016901D01*
X017089Y026231D02*
X017107Y026194D01*
X017164Y026138D01*
X01677D01*
X017107Y025718D02*
X017145Y025737D01*
X017164Y025793D01*
Y02583D01*
X017145Y025886D01*
X017089Y025924D01*
X016995Y025943D01*
X016901D01*
X016826Y025924D01*
X016789Y025886D01*
X01677Y02583D01*
Y025811D01*
X016789Y025755D01*
X016826Y025718D01*
X016882Y025699D01*
X016901D01*
X016957Y025718D01*
X016995Y025755D01*
X017014Y025811D01*
Y02583D01*
X016995Y025886D01*
X016957Y025924D01*
X016901Y025943D01*
X011264Y025423D02*
X010964D01*
X010907Y025441D01*
X010889Y02546D01*
X01087Y025498D01*
Y025535D01*
X010889Y025573D01*
X010907Y025591D01*
X010964Y02561D01*
X011001D01*
X011189Y025321D02*
X011207Y025284D01*
X011264Y025228D01*
X01087D01*
X011264Y024808D02*
Y024995D01*
X011095Y025014D01*
X011114Y024995D01*
X011132Y024939D01*
Y024883D01*
X011114Y024827D01*
X011076Y024789D01*
X01102Y02477D01*
X010982D01*
X010926Y024789D01*
X010889Y024827D01*
X01087Y024883D01*
Y024939D01*
X010889Y024995D01*
X010907Y025014D01*
X010945Y025033D01*
X05544Y028524D02*
Y02813D01*
X055665D01*
X055746Y028524D02*
X055952D01*
X055839Y028374D01*
X055895D01*
X055933Y028355D01*
X055952Y028336D01*
X05597Y02828D01*
Y028242D01*
X055952Y028186D01*
X055914Y028149D01*
X055858Y02813D01*
X055802D01*
X055746Y028149D01*
X055727Y028167D01*
X055708Y028205D01*
X02659Y035704D02*
X02674Y035516D01*
Y03531D01*
X02689Y035704D02*
X02674Y035516D01*
X026941Y035629D02*
X026978Y035647D01*
X027034Y035704D01*
Y03531D01*
X02926Y033883D02*
X029522Y033489D01*
Y033883D02*
X02926Y033489D01*
X029611Y033808D02*
X029648Y033826D01*
X029704Y033883D01*
Y033489D01*
X02016Y022804D02*
Y022522D01*
X020179Y022466D01*
X020216Y022429D01*
X020272Y02241D01*
X02031D01*
X020366Y022429D01*
X020404Y022466D01*
X020422Y022522D01*
Y022804D01*
X020531Y022729D02*
X020569Y022747D01*
X020625Y022804D01*
Y02241D01*
X020839Y02271D02*
Y022729D01*
X020857Y022766D01*
X020876Y022785D01*
X020913Y022804D01*
X020988D01*
X021026Y022785D01*
X021045Y022766D01*
X021063Y022729D01*
Y022691D01*
X021045Y022654D01*
X021007Y022597D01*
X02082Y02241D01*
X021082D01*
X04302Y032544D02*
Y032262D01*
X043039Y032206D01*
X043076Y032169D01*
X043132Y03215D01*
X04317D01*
X043226Y032169D01*
X043264Y032206D01*
X043282Y032262D01*
Y032544D01*
X043391Y032469D02*
X043429Y032487D01*
X043485Y032544D01*
Y03215D01*
X04368Y032469D02*
X043717Y032487D01*
X043773Y032544D01*
Y03215D01*
X050787Y033754D02*
Y033472D01*
X050806Y033416D01*
X050844Y033379D01*
X0509Y03336D01*
X050937D01*
X050994Y033379D01*
X051031Y033416D01*
X05105Y033472D01*
Y033754D01*
X051159Y033679D02*
X051196Y033697D01*
X051252Y033754D01*
Y03336D01*
X05156Y033754D02*
X051503Y033735D01*
X051466Y033679D01*
X051447Y033585D01*
Y033529D01*
X051466Y033435D01*
X051503Y033379D01*
X05156Y03336D01*
X051597D01*
X051653Y033379D01*
X051691Y033435D01*
X05171Y033529D01*
Y033585D01*
X051691Y033679D01*
X051653Y033735D01*
X051597Y033754D01*
X05156D01*
X049Y030164D02*
Y029882D01*
X049019Y029826D01*
X049056Y029789D01*
X049112Y02977D01*
X04915D01*
X049206Y029789D01*
X049244Y029826D01*
X049262Y029882D01*
Y030164D01*
X049615Y030032D02*
X049596Y029976D01*
X049559Y029939D01*
X049502Y02992D01*
X049484D01*
X049427Y029939D01*
X04939Y029976D01*
X049371Y030032D01*
Y030051D01*
X04939Y030107D01*
X049427Y030145D01*
X049484Y030164D01*
X049502D01*
X049559Y030145D01*
X049596Y030107D01*
X049615Y030032D01*
Y029939D01*
X049596Y029845D01*
X049559Y029789D01*
X049502Y02977D01*
X049465D01*
X049409Y029789D01*
X04939Y029826D01*
X0397Y041884D02*
Y041602D01*
X039719Y041546D01*
X039756Y041509D01*
X039812Y04149D01*
X03985D01*
X039906Y041509D01*
X039944Y041546D01*
X039962Y041602D01*
Y041884D01*
X040334D02*
X040146Y04149D01*
X040071Y041884D02*
X040334D01*
X04821Y030214D02*
Y029932D01*
X048229Y029876D01*
X048266Y029839D01*
X048322Y02982D01*
X04836D01*
X048416Y029839D01*
X048454Y029876D01*
X048472Y029932D01*
Y030214D01*
X048581Y030139D02*
X048619Y030157D01*
X048675Y030214D01*
Y02982D01*
X01937Y019324D02*
Y01893D01*
Y019324D02*
X019539D01*
X019595Y019305D01*
X019614Y019286D01*
X019632Y019249D01*
Y019211D01*
X019614Y019174D01*
X019595Y019155D01*
X019539Y019136D01*
X01937D01*
X019501D02*
X019632Y01893D01*
X019945Y019324D02*
X019758D01*
X019739Y019155D01*
X019758Y019174D01*
X019814Y019192D01*
X01987D01*
X019927Y019174D01*
X019964Y019136D01*
X019983Y01908D01*
Y019042D01*
X019964Y018986D01*
X019927Y018949D01*
X01987Y01893D01*
X019814D01*
X019758Y018949D01*
X019739Y018967D01*
X019721Y019005D01*
X020315Y019192D02*
X020296Y019136D01*
X020258Y019099D01*
X020202Y01908D01*
X020183D01*
X020127Y019099D01*
X02009Y019136D01*
X020071Y019192D01*
Y019211D01*
X02009Y019267D01*
X020127Y019305D01*
X020183Y019324D01*
X020202D01*
X020258Y019305D01*
X020296Y019267D01*
X020315Y019192D01*
Y019099D01*
X020296Y019005D01*
X020258Y018949D01*
X020202Y01893D01*
X020165D01*
X020108Y018949D01*
X02009Y018986D01*
X01577Y019374D02*
Y01898D01*
Y019374D02*
X015939D01*
X015995Y019355D01*
X016014Y019336D01*
X016032Y019299D01*
Y019261D01*
X016014Y019224D01*
X015995Y019205D01*
X015939Y019186D01*
X01577D01*
X015901D02*
X016032Y01898D01*
X016345Y019374D02*
X016158D01*
X016139Y019205D01*
X016158Y019224D01*
X016214Y019242D01*
X01627D01*
X016327Y019224D01*
X016364Y019186D01*
X016383Y01913D01*
Y019092D01*
X016364Y019036D01*
X016327Y018999D01*
X01627Y01898D01*
X016214D01*
X016158Y018999D01*
X016139Y019017D01*
X016121Y019055D01*
X016565Y019374D02*
X016509Y019355D01*
X01649Y019317D01*
Y01928D01*
X016509Y019242D01*
X016546Y019224D01*
X016621Y019205D01*
X016677Y019186D01*
X016715Y019149D01*
X016733Y019111D01*
Y019055D01*
X016715Y019017D01*
X016696Y018999D01*
X01664Y01898D01*
X016565D01*
X016509Y018999D01*
X01649Y019017D01*
X016471Y019055D01*
Y019111D01*
X01649Y019149D01*
X016527Y019186D01*
X016583Y019205D01*
X016658Y019224D01*
X016696Y019242D01*
X016715Y01928D01*
Y019317D01*
X016696Y019355D01*
X01664Y019374D01*
X016565D01*
X01715Y019554D02*
Y01916D01*
Y019554D02*
X017319D01*
X017375Y019535D01*
X017394Y019516D01*
X017412Y019479D01*
Y019441D01*
X017394Y019404D01*
X017375Y019385D01*
X017319Y019366D01*
X01715D01*
X017281D02*
X017412Y01916D01*
X017725Y019554D02*
X017538D01*
X017519Y019385D01*
X017538Y019404D01*
X017594Y019422D01*
X01765D01*
X017707Y019404D01*
X017744Y019366D01*
X017763Y01931D01*
Y019272D01*
X017744Y019216D01*
X017707Y019179D01*
X01765Y01916D01*
X017594D01*
X017538Y019179D01*
X017519Y019197D01*
X017501Y019235D01*
X018113Y019554D02*
X017926Y01916D01*
X017851Y019554D02*
X018113D01*
X015106Y02041D02*
X0155D01*
X015106D02*
Y020579D01*
X015125Y020635D01*
X015144Y020654D01*
X015181Y020672D01*
X015219D01*
X015256Y020654D01*
X015275Y020635D01*
X015294Y020579D01*
Y02041D01*
Y020541D02*
X0155Y020672D01*
X015106Y020985D02*
Y020798D01*
X015275Y020779D01*
X015256Y020798D01*
X015238Y020854D01*
Y02091D01*
X015256Y020967D01*
X015294Y021004D01*
X01535Y021023D01*
X015388D01*
X015444Y021004D01*
X015481Y020967D01*
X0155Y02091D01*
Y020854D01*
X015481Y020798D01*
X015463Y020779D01*
X015425Y020761D01*
X015163Y021336D02*
X015125Y021317D01*
X015106Y021261D01*
Y021223D01*
X015125Y021167D01*
X015181Y02113D01*
X015275Y021111D01*
X015369D01*
X015444Y02113D01*
X015481Y021167D01*
X0155Y021223D01*
Y021242D01*
X015481Y021298D01*
X015444Y021336D01*
X015388Y021355D01*
X015369D01*
X015313Y021336D01*
X015275Y021298D01*
X015256Y021242D01*
Y021223D01*
X015275Y021167D01*
X015313Y02113D01*
X015369Y021111D01*
X02116Y019324D02*
Y01893D01*
Y019324D02*
X021329D01*
X021385Y019305D01*
X021404Y019286D01*
X021422Y019249D01*
Y019211D01*
X021404Y019174D01*
X021385Y019155D01*
X021329Y019136D01*
X02116D01*
X021291D02*
X021422Y01893D01*
X021735Y019324D02*
X021548D01*
X021529Y019155D01*
X021548Y019174D01*
X021604Y019192D01*
X02166D01*
X021717Y019174D01*
X021754Y019136D01*
X021773Y01908D01*
Y019042D01*
X021754Y018986D01*
X021717Y018949D01*
X02166Y01893D01*
X021604D01*
X021548Y018949D01*
X021529Y018967D01*
X021511Y019005D01*
X022086Y019324D02*
X021899D01*
X02188Y019155D01*
X021899Y019174D01*
X021955Y019192D01*
X022011D01*
X022067Y019174D01*
X022105Y019136D01*
X022123Y01908D01*
Y019042D01*
X022105Y018986D01*
X022067Y018949D01*
X022011Y01893D01*
X021955D01*
X021899Y018949D01*
X02188Y018967D01*
X021861Y019005D01*
X040166Y03399D02*
X04056D01*
X040166D02*
Y034159D01*
X040185Y034215D01*
X040204Y034234D01*
X040241Y034252D01*
X040279D01*
X040316Y034234D01*
X040335Y034215D01*
X040354Y034159D01*
Y03399D01*
Y034121D02*
X04056Y034252D01*
X040166Y034565D02*
Y034378D01*
X040335Y034359D01*
X040316Y034378D01*
X040298Y034434D01*
Y03449D01*
X040316Y034547D01*
X040354Y034584D01*
X04041Y034603D01*
X040448D01*
X040504Y034584D01*
X040541Y034547D01*
X04056Y03449D01*
Y034434D01*
X040541Y034378D01*
X040523Y034359D01*
X040485Y034341D01*
X040166Y034878D02*
X040429Y034691D01*
Y034972D01*
X040166Y034878D02*
X04056D01*
X039466Y033979D02*
X03986D01*
X039466D02*
Y034148D01*
X039485Y034204D01*
X039504Y034223D01*
X039541Y034241D01*
X039579D01*
X039616Y034223D01*
X039635Y034204D01*
X039654Y034148D01*
Y033979D01*
Y03411D02*
X03986Y034241D01*
X039466Y034554D02*
Y034367D01*
X039635Y034348D01*
X039616Y034367D01*
X039598Y034423D01*
Y034479D01*
X039616Y034536D01*
X039654Y034573D01*
X03971Y034592D01*
X039748D01*
X039804Y034573D01*
X039841Y034536D01*
X03986Y034479D01*
Y034423D01*
X039841Y034367D01*
X039823Y034348D01*
X039785Y034329D01*
X039466Y034717D02*
Y034924D01*
X039616Y034811D01*
Y034867D01*
X039635Y034905D01*
X039654Y034924D01*
X03971Y034942D01*
X039748D01*
X039804Y034924D01*
X039841Y034886D01*
X03986Y03483D01*
Y034774D01*
X039841Y034717D01*
X039823Y034699D01*
X039785Y03468D01*
X041676Y04314D02*
X04207D01*
X041676D02*
Y043309D01*
X041695Y043365D01*
X041714Y043384D01*
X041751Y043402D01*
X041789D01*
X041826Y043384D01*
X041845Y043365D01*
X041864Y043309D01*
Y04314D01*
Y043271D02*
X04207Y043402D01*
X041676Y043715D02*
Y043528D01*
X041845Y043509D01*
X041826Y043528D01*
X041808Y043584D01*
Y04364D01*
X041826Y043697D01*
X041864Y043734D01*
X04192Y043753D01*
X041958D01*
X042014Y043734D01*
X042051Y043697D01*
X04207Y04364D01*
Y043584D01*
X042051Y043528D01*
X042033Y043509D01*
X041995Y043491D01*
X041751Y043841D02*
X041733Y043878D01*
X041676Y043935D01*
X04207D01*
X04283Y045664D02*
Y04527D01*
Y045664D02*
X042999D01*
X043055Y045645D01*
X043074Y045626D01*
X043092Y045589D01*
Y045551D01*
X043074Y045514D01*
X043055Y045495D01*
X042999Y045476D01*
X04283D01*
X042961D02*
X043092Y04527D01*
X043405Y045664D02*
X043218D01*
X043199Y045495D01*
X043218Y045514D01*
X043274Y045532D01*
X04333D01*
X043387Y045514D01*
X043424Y045476D01*
X043443Y04542D01*
Y045382D01*
X043424Y045326D01*
X043387Y045289D01*
X04333Y04527D01*
X043274D01*
X043218Y045289D01*
X043199Y045307D01*
X043181Y045345D01*
X043643Y045664D02*
X043587Y045645D01*
X04355Y045589D01*
X043531Y045495D01*
Y045439D01*
X04355Y045345D01*
X043587Y045289D01*
X043643Y04527D01*
X043681D01*
X043737Y045289D01*
X043775Y045345D01*
X043793Y045439D01*
Y045495D01*
X043775Y045589D01*
X043737Y045645D01*
X043681Y045664D01*
X043643D01*
X042206Y04314D02*
X0426D01*
X042206D02*
Y043309D01*
X042225Y043365D01*
X042244Y043384D01*
X042281Y043402D01*
X042319D01*
X042356Y043384D01*
X042375Y043365D01*
X042394Y043309D01*
Y04314D01*
Y043271D02*
X0426Y043402D01*
X042206Y043678D02*
X042469Y043491D01*
Y043772D01*
X042206Y043678D02*
X0426D01*
X042338Y044085D02*
X042394Y044066D01*
X042431Y044028D01*
X04245Y043972D01*
Y043953D01*
X042431Y043897D01*
X042394Y04386D01*
X042338Y043841D01*
X042319D01*
X042263Y04386D01*
X042225Y043897D01*
X042206Y043953D01*
Y043972D01*
X042225Y044028D01*
X042263Y044066D01*
X042338Y044085D01*
X042431D01*
X042525Y044066D01*
X042581Y044028D01*
X0426Y043972D01*
Y043935D01*
X042581Y043878D01*
X042544Y04386D01*
X05396Y028464D02*
Y02807D01*
Y028464D02*
X054129D01*
X054185Y028445D01*
X054204Y028426D01*
X054222Y028389D01*
Y028351D01*
X054204Y028314D01*
X054185Y028295D01*
X054129Y028276D01*
X05396D01*
X054091D02*
X054222Y02807D01*
X054498Y028464D02*
X054311Y028201D01*
X054592D01*
X054498Y028464D02*
Y02807D01*
X054755Y028464D02*
X054699Y028445D01*
X05468Y028407D01*
Y02837D01*
X054699Y028332D01*
X054736Y028314D01*
X054811Y028295D01*
X054867Y028276D01*
X054905Y028239D01*
X054923Y028201D01*
Y028145D01*
X054905Y028107D01*
X054886Y028089D01*
X05483Y02807D01*
X054755D01*
X054699Y028089D01*
X05468Y028107D01*
X054661Y028145D01*
Y028201D01*
X05468Y028239D01*
X054717Y028276D01*
X054773Y028295D01*
X054848Y028314D01*
X054886Y028332D01*
X054905Y02837D01*
Y028407D01*
X054886Y028445D01*
X05483Y028464D01*
X054755D01*
X05458Y025954D02*
Y02556D01*
Y025954D02*
X054749D01*
X054805Y025935D01*
X054824Y025916D01*
X054842Y025879D01*
Y025841D01*
X054824Y025804D01*
X054805Y025785D01*
X054749Y025766D01*
X05458D01*
X054711D02*
X054842Y02556D01*
X055118Y025954D02*
X054931Y025691D01*
X055212D01*
X055118Y025954D02*
Y02556D01*
X055543Y025954D02*
X055356Y02556D01*
X055281Y025954D02*
X055543D01*
X052376Y03412D02*
X05277D01*
X052376D02*
Y034289D01*
X052395Y034345D01*
X052414Y034364D01*
X052451Y034382D01*
X052489D01*
X052526Y034364D01*
X052545Y034345D01*
X052564Y034289D01*
Y03412D01*
Y034251D02*
X05277Y034382D01*
X052376Y034658D02*
X052639Y034471D01*
Y034752D01*
X052376Y034658D02*
X05277D01*
X052433Y035046D02*
X052395Y035027D01*
X052376Y034971D01*
Y034933D01*
X052395Y034877D01*
X052451Y03484D01*
X052545Y034821D01*
X052639D01*
X052714Y03484D01*
X052751Y034877D01*
X05277Y034933D01*
Y034952D01*
X052751Y035008D01*
X052714Y035046D01*
X052658Y035065D01*
X052639D01*
X052583Y035046D01*
X052545Y035008D01*
X052526Y034952D01*
Y034933D01*
X052545Y034877D01*
X052583Y03484D01*
X052639Y034821D01*
X051776Y03412D02*
X05217D01*
X051776D02*
Y034289D01*
X051795Y034345D01*
X051814Y034364D01*
X051851Y034382D01*
X051889D01*
X051926Y034364D01*
X051945Y034345D01*
X051964Y034289D01*
Y03412D01*
Y034251D02*
X05217Y034382D01*
X051776Y034658D02*
X052039Y034471D01*
Y034752D01*
X051776Y034658D02*
X05217D01*
X051776Y035046D02*
Y034859D01*
X051945Y03484D01*
X051926Y034859D01*
X051908Y034915D01*
Y034971D01*
X051926Y035027D01*
X051964Y035065D01*
X05202Y035083D01*
X052058D01*
X052114Y035065D01*
X052151Y035027D01*
X05217Y034971D01*
Y034915D01*
X052151Y034859D01*
X052133Y03484D01*
X052095Y034821D01*
X051226Y03412D02*
X05162D01*
X051226D02*
Y034289D01*
X051245Y034345D01*
X051264Y034364D01*
X051301Y034382D01*
X051339D01*
X051376Y034364D01*
X051395Y034345D01*
X051414Y034289D01*
Y03412D01*
Y034251D02*
X05162Y034382D01*
X051226Y034658D02*
X051489Y034471D01*
Y034752D01*
X051226Y034658D02*
X05162D01*
X051226Y035008D02*
X051489Y034821D01*
Y035102D01*
X051226Y035008D02*
X05162D01*
X046266Y02362D02*
X04666D01*
X046266D02*
Y023789D01*
X046285Y023845D01*
X046304Y023864D01*
X046341Y023882D01*
X046379D01*
X046416Y023864D01*
X046435Y023845D01*
X046454Y023789D01*
Y02362D01*
Y023751D02*
X04666Y023882D01*
X046266Y024158D02*
X046529Y023971D01*
Y024252D01*
X046266Y024158D02*
X04666D01*
X04636Y02434D02*
X046341D01*
X046304Y024358D01*
X046285Y024377D01*
X046266Y024415D01*
Y02449D01*
X046285Y024527D01*
X046304Y024546D01*
X046341Y024565D01*
X046379D01*
X046416Y024546D01*
X046473Y024508D01*
X04666Y024321D01*
Y024583D01*
X05158Y025324D02*
Y02493D01*
Y025324D02*
X051749D01*
X051805Y025305D01*
X051824Y025286D01*
X051842Y025249D01*
Y025211D01*
X051824Y025174D01*
X051805Y025155D01*
X051749Y025136D01*
X05158D01*
X051711D02*
X051842Y02493D01*
X052118Y025324D02*
X051931Y025061D01*
X052212D01*
X052118Y025324D02*
Y02493D01*
X052281Y025249D02*
X052319Y025267D01*
X052375Y025324D01*
Y02493D01*
X045656Y02362D02*
X04605D01*
X045656D02*
Y023789D01*
X045675Y023845D01*
X045694Y023864D01*
X045731Y023882D01*
X045769D01*
X045806Y023864D01*
X045825Y023845D01*
X045844Y023789D01*
Y02362D01*
Y023751D02*
X04605Y023882D01*
X045656Y024158D02*
X045919Y023971D01*
Y024252D01*
X045656Y024158D02*
X04605D01*
X045656Y024433D02*
X045675Y024377D01*
X045731Y02434D01*
X045825Y024321D01*
X045881D01*
X045975Y02434D01*
X046031Y024377D01*
X04605Y024433D01*
Y024471D01*
X046031Y024527D01*
X045975Y024565D01*
X045881Y024583D01*
X045825D01*
X045731Y024565D01*
X045675Y024527D01*
X045656Y024471D01*
Y024433D01*
X050356Y02357D02*
X05075D01*
X050356D02*
Y023739D01*
X050375Y023795D01*
X050394Y023814D01*
X050431Y023832D01*
X050469D01*
X050506Y023814D01*
X050525Y023795D01*
X050544Y023739D01*
Y02357D01*
Y023701D02*
X05075Y023832D01*
X050356Y023958D02*
Y024164D01*
X050506Y024052D01*
Y024108D01*
X050525Y024145D01*
X050544Y024164D01*
X0506Y024183D01*
X050638D01*
X050694Y024164D01*
X050731Y024127D01*
X05075Y02407D01*
Y024014D01*
X050731Y023958D01*
X050713Y023939D01*
X050675Y023921D01*
X050488Y024515D02*
X050544Y024496D01*
X050581Y024458D01*
X0506Y024402D01*
Y024383D01*
X050581Y024327D01*
X050544Y02429D01*
X050488Y024271D01*
X050469D01*
X050413Y02429D01*
X050375Y024327D01*
X050356Y024383D01*
Y024402D01*
X050375Y024458D01*
X050413Y024496D01*
X050488Y024515D01*
X050581D01*
X050675Y024496D01*
X050731Y024458D01*
X05075Y024402D01*
Y024365D01*
X050731Y024309D01*
X050694Y02429D01*
X0454Y040694D02*
Y0403D01*
Y040694D02*
X045569D01*
X045625Y040675D01*
X045644Y040656D01*
X045662Y040619D01*
Y040581D01*
X045644Y040544D01*
X045625Y040525D01*
X045569Y040506D01*
X0454D01*
X045531D02*
X045662Y0403D01*
X045788Y040694D02*
X045994D01*
X045882Y040544D01*
X045938D01*
X045975Y040525D01*
X045994Y040506D01*
X046013Y04045D01*
Y040412D01*
X045994Y040356D01*
X045957Y040319D01*
X0459Y0403D01*
X045844D01*
X045788Y040319D01*
X045769Y040337D01*
X045751Y040375D01*
X046195Y040694D02*
X046139Y040675D01*
X04612Y040637D01*
Y0406D01*
X046139Y040562D01*
X046176Y040544D01*
X046251Y040525D01*
X046307Y040506D01*
X046345Y040469D01*
X046363Y040431D01*
Y040375D01*
X046345Y040337D01*
X046326Y040319D01*
X04627Y0403D01*
X046195D01*
X046139Y040319D01*
X04612Y040337D01*
X046101Y040375D01*
Y040431D01*
X04612Y040469D01*
X046157Y040506D01*
X046213Y040525D01*
X046288Y040544D01*
X046326Y040562D01*
X046345Y0406D01*
Y040637D01*
X046326Y040675D01*
X04627Y040694D01*
X046195D01*
X04145Y041394D02*
Y041D01*
Y041394D02*
X041619D01*
X041675Y041375D01*
X041694Y041356D01*
X041712Y041319D01*
Y041281D01*
X041694Y041244D01*
X041675Y041225D01*
X041619Y041206D01*
X04145D01*
X041581D02*
X041712Y041D01*
X041838Y041394D02*
X042044D01*
X041932Y041244D01*
X041988D01*
X042025Y041225D01*
X042044Y041206D01*
X042063Y04115D01*
Y041112D01*
X042044Y041056D01*
X042007Y041019D01*
X04195Y041D01*
X041894D01*
X041838Y041019D01*
X041819Y041037D01*
X041801Y041075D01*
X042376Y041394D02*
X042189D01*
X04217Y041225D01*
X042189Y041244D01*
X042245Y041262D01*
X042301D01*
X042357Y041244D01*
X042395Y041206D01*
X042413Y04115D01*
Y041112D01*
X042395Y041056D01*
X042357Y041019D01*
X042301Y041D01*
X042245D01*
X042189Y041019D01*
X04217Y041037D01*
X042151Y041075D01*
X0454Y039954D02*
Y03956D01*
Y039954D02*
X045569D01*
X045625Y039935D01*
X045644Y039916D01*
X045662Y039879D01*
Y039841D01*
X045644Y039804D01*
X045625Y039785D01*
X045569Y039766D01*
X0454D01*
X045531D02*
X045662Y03956D01*
X045788Y039954D02*
X045994D01*
X045882Y039804D01*
X045938D01*
X045975Y039785D01*
X045994Y039766D01*
X046013Y03971D01*
Y039672D01*
X045994Y039616D01*
X045957Y039579D01*
X0459Y03956D01*
X045844D01*
X045788Y039579D01*
X045769Y039597D01*
X045751Y039635D01*
X046288Y039954D02*
X046101Y039691D01*
X046382D01*
X046288Y039954D02*
Y03956D01*
X04145Y039954D02*
Y03956D01*
Y039954D02*
X041619D01*
X041675Y039935D01*
X041694Y039916D01*
X041712Y039879D01*
Y039841D01*
X041694Y039804D01*
X041675Y039785D01*
X041619Y039766D01*
X04145D01*
X041581D02*
X041712Y03956D01*
X041838Y039954D02*
X042044D01*
X041932Y039804D01*
X041988D01*
X042025Y039785D01*
X042044Y039766D01*
X042063Y03971D01*
Y039672D01*
X042044Y039616D01*
X042007Y039579D01*
X04195Y03956D01*
X041894D01*
X041838Y039579D01*
X041819Y039597D01*
X041801Y039635D01*
X042189Y039954D02*
X042395D01*
X042282Y039804D01*
X042338D01*
X042376Y039785D01*
X042395Y039766D01*
X042413Y03971D01*
Y039672D01*
X042395Y039616D01*
X042357Y039579D01*
X042301Y03956D01*
X042245D01*
X042189Y039579D01*
X04217Y039597D01*
X042151Y039635D01*
X041676Y041826D02*
X04207D01*
X041676D02*
Y041995D01*
X041695Y042051D01*
X041714Y04207D01*
X041751Y042089D01*
X041789D01*
X041826Y04207D01*
X041845Y042051D01*
X041864Y041995D01*
Y041826D01*
Y041958D02*
X04207Y042089D01*
X041676Y042214D02*
Y04242D01*
X041826Y042308D01*
Y042364D01*
X041845Y042402D01*
X041864Y04242D01*
X04192Y042439D01*
X041958D01*
X042014Y04242D01*
X042051Y042383D01*
X04207Y042327D01*
Y042271D01*
X042051Y042214D01*
X042033Y042196D01*
X041995Y042177D01*
X041751Y042527D02*
X041733Y042565D01*
X041676Y042621D01*
X04207D01*
X0388Y037344D02*
Y03695D01*
Y037344D02*
X038969D01*
X039025Y037325D01*
X039044Y037306D01*
X039062Y037269D01*
Y037231D01*
X039044Y037194D01*
X039025Y037175D01*
X038969Y037156D01*
X0388D01*
X038931D02*
X039062Y03695D01*
X039169Y03725D02*
Y037269D01*
X039188Y037306D01*
X039207Y037325D01*
X039244Y037344D01*
X039319D01*
X039357Y037325D01*
X039375Y037306D01*
X039394Y037269D01*
Y037231D01*
X039375Y037194D01*
X039338Y037137D01*
X039151Y03695D01*
X039413D01*
X03952Y03725D02*
Y037269D01*
X039539Y037306D01*
X039557Y037325D01*
X039595Y037344D01*
X03967D01*
X039707Y037325D01*
X039726Y037306D01*
X039745Y037269D01*
Y037231D01*
X039726Y037194D01*
X039688Y037137D01*
X039501Y03695D01*
X039763D01*
X03457Y037184D02*
Y03679D01*
Y037184D02*
X034739D01*
X034795Y037165D01*
X034814Y037146D01*
X034832Y037109D01*
Y037071D01*
X034814Y037034D01*
X034795Y037015D01*
X034739Y036996D01*
X03457D01*
X034701D02*
X034832Y03679D01*
X034939Y03709D02*
Y037109D01*
X034958Y037146D01*
X034977Y037165D01*
X035014Y037184D01*
X035089D01*
X035127Y037165D01*
X035145Y037146D01*
X035164Y037109D01*
Y037071D01*
X035145Y037034D01*
X035108Y036977D01*
X034921Y03679D01*
X035183D01*
X035271Y037109D02*
X035308Y037127D01*
X035365Y037184D01*
Y03679D01*
X05515Y047404D02*
Y04701D01*
Y047404D02*
X055319D01*
X055375Y047385D01*
X055394Y047366D01*
X055412Y047329D01*
Y047291D01*
X055394Y047254D01*
X055375Y047235D01*
X055319Y047216D01*
X05515D01*
X055281D02*
X055412Y04701D01*
X055501Y047329D02*
X055538Y047347D01*
X055594Y047404D01*
Y04701D01*
X056014Y047347D02*
X055995Y047385D01*
X055939Y047404D01*
X055902D01*
X055845Y047385D01*
X055808Y047329D01*
X055789Y047235D01*
Y047141D01*
X055808Y047066D01*
X055845Y047029D01*
X055902Y04701D01*
X05592D01*
X055977Y047029D01*
X056014Y047066D01*
X056033Y047122D01*
Y047141D01*
X056014Y047197D01*
X055977Y047235D01*
X05592Y047254D01*
X055902D01*
X055845Y047235D01*
X055808Y047197D01*
X055789Y047141D01*
X05515Y046686D02*
Y046292D01*
Y046686D02*
X055319D01*
X055375Y046667D01*
X055394Y046648D01*
X055412Y046611D01*
Y046573D01*
X055394Y046536D01*
X055375Y046517D01*
X055319Y046498D01*
X05515D01*
X055281D02*
X055412Y046292D01*
X055501Y046611D02*
X055538Y04663D01*
X055594Y046686D01*
Y046292D01*
X056014Y046686D02*
X055827D01*
X055808Y046517D01*
X055827Y046536D01*
X055883Y046555D01*
X055939D01*
X055995Y046536D01*
X056033Y046498D01*
X056052Y046442D01*
Y046405D01*
X056033Y046348D01*
X055995Y046311D01*
X055939Y046292D01*
X055883D01*
X055827Y046311D01*
X055808Y04633D01*
X055789Y046367D01*
X05515Y045836D02*
Y045442D01*
Y045836D02*
X055319D01*
X055375Y045817D01*
X055394Y045798D01*
X055412Y045761D01*
Y045723D01*
X055394Y045686D01*
X055375Y045667D01*
X055319Y045648D01*
X05515D01*
X055281D02*
X055412Y045442D01*
X055501Y045761D02*
X055538Y04578D01*
X055594Y045836D01*
Y045442D01*
X055977Y045836D02*
X055789Y045573D01*
X05607D01*
X055977Y045836D02*
Y045442D01*
X046016Y03145D02*
X04641D01*
X046016D02*
Y031619D01*
X046035Y031675D01*
X046054Y031694D01*
X046091Y031712D01*
X046129D01*
X046166Y031694D01*
X046185Y031675D01*
X046204Y031619D01*
Y03145D01*
Y031581D02*
X04641Y031712D01*
X046148Y032044D02*
X046204Y032025D01*
X046241Y031988D01*
X04626Y031932D01*
Y031913D01*
X046241Y031857D01*
X046204Y031819D01*
X046148Y031801D01*
X046129D01*
X046073Y031819D01*
X046035Y031857D01*
X046016Y031913D01*
Y031932D01*
X046035Y031988D01*
X046073Y032025D01*
X046148Y032044D01*
X046241D01*
X046335Y032025D01*
X046391Y031988D01*
X04641Y031932D01*
Y031894D01*
X046391Y031838D01*
X046354Y031819D01*
X04457Y031794D02*
Y0314D01*
Y031794D02*
X044739D01*
X044795Y031775D01*
X044814Y031756D01*
X044832Y031719D01*
Y031681D01*
X044814Y031644D01*
X044795Y031625D01*
X044739Y031606D01*
X04457D01*
X044701D02*
X044832Y0314D01*
X045145Y031737D02*
X045127Y031775D01*
X04507Y031794D01*
X045033D01*
X044977Y031775D01*
X044939Y031719D01*
X044921Y031625D01*
Y031531D01*
X044939Y031456D01*
X044977Y031419D01*
X045033Y0314D01*
X045052D01*
X045108Y031419D01*
X045145Y031456D01*
X045164Y031512D01*
Y031531D01*
X045145Y031587D01*
X045108Y031625D01*
X045052Y031644D01*
X045033D01*
X044977Y031625D01*
X044939Y031587D01*
X044921Y031531D01*
X045306Y02857D02*
X0457D01*
X045306D02*
Y028739D01*
X045325Y028795D01*
X045344Y028814D01*
X045381Y028832D01*
X045419D01*
X045456Y028814D01*
X045475Y028795D01*
X045494Y028739D01*
Y02857D01*
Y028701D02*
X0457Y028832D01*
X045381Y028921D02*
X045363Y028958D01*
X045306Y029014D01*
X0457D01*
X044522Y044814D02*
X044485Y044795D01*
X044447Y044757D01*
X044429Y04472D01*
X04441Y044664D01*
Y04457D01*
X044429Y044514D01*
X044447Y044476D01*
X044485Y044439D01*
X044522Y04442D01*
X044597D01*
X044635Y044439D01*
X044672Y044476D01*
X044691Y044514D01*
X04471Y04457D01*
Y044664D01*
X044691Y04472D01*
X044672Y044757D01*
X044635Y044795D01*
X044597Y044814D01*
X044522D01*
X044579Y044495D02*
X044691Y044383D01*
X045027Y044757D02*
X045008Y044795D01*
X044952Y044814D01*
X044914D01*
X044858Y044795D01*
X04482Y044739D01*
X044802Y044645D01*
Y044551D01*
X04482Y044476D01*
X044858Y044439D01*
X044914Y04442D01*
X044933D01*
X044989Y044439D01*
X045027Y044476D01*
X045045Y044532D01*
Y044551D01*
X045027Y044607D01*
X044989Y044645D01*
X044933Y044664D01*
X044914D01*
X044858Y044645D01*
X04482Y044607D01*
X044802Y044551D01*
X049362Y025144D02*
X049325Y025125D01*
X049287Y025087D01*
X049269Y02505D01*
X04925Y024994D01*
Y0249D01*
X049269Y024844D01*
X049287Y024806D01*
X049325Y024769D01*
X049362Y02475D01*
X049437D01*
X049475Y024769D01*
X049512Y024806D01*
X049531Y024844D01*
X04955Y0249D01*
Y024994D01*
X049531Y02505D01*
X049512Y025087D01*
X049475Y025125D01*
X049437Y025144D01*
X049362D01*
X049419Y024825D02*
X049531Y024713D01*
X049867Y025144D02*
X049679D01*
X04966Y024975D01*
X049679Y024994D01*
X049735Y025012D01*
X049792D01*
X049848Y024994D01*
X049885Y024956D01*
X049904Y0249D01*
Y024862D01*
X049885Y024806D01*
X049848Y024769D01*
X049792Y02475D01*
X049735D01*
X049679Y024769D01*
X04966Y024787D01*
X049642Y024825D01*
X052862Y025204D02*
X052825Y025185D01*
X052787Y025147D01*
X052769Y02511D01*
X05275Y025054D01*
Y02496D01*
X052769Y024904D01*
X052787Y024866D01*
X052825Y024829D01*
X052862Y02481D01*
X052937D01*
X052975Y024829D01*
X053012Y024866D01*
X053031Y024904D01*
X05305Y02496D01*
Y025054D01*
X053031Y02511D01*
X053012Y025147D01*
X052975Y025185D01*
X052937Y025204D01*
X052862D01*
X052919Y024885D02*
X053031Y024773D01*
X053329Y025204D02*
X053142Y024941D01*
X053423D01*
X053329Y025204D02*
Y02481D01*
X044533Y041724D02*
X044496Y041705D01*
X044458Y041667D01*
X044439Y04163D01*
X044421Y041574D01*
Y04148D01*
X044439Y041424D01*
X044458Y041386D01*
X044496Y041349D01*
X044533Y04133D01*
X044608D01*
X044645Y041349D01*
X044683Y041386D01*
X044702Y041424D01*
X04472Y04148D01*
Y041574D01*
X044702Y04163D01*
X044683Y041667D01*
X044645Y041705D01*
X044608Y041724D01*
X044533D01*
X044589Y041405D02*
X044702Y041293D01*
X04485Y041724D02*
X045056D01*
X044943Y041574D01*
X045D01*
X045037Y041555D01*
X045056Y041536D01*
X045075Y04148D01*
Y041442D01*
X045056Y041386D01*
X045018Y041349D01*
X044962Y04133D01*
X044906D01*
X04485Y041349D01*
X044831Y041367D01*
X044812Y041405D01*
X044522Y029074D02*
X044485Y029055D01*
X044447Y029017D01*
X044429Y02898D01*
X04441Y028924D01*
Y02883D01*
X044429Y028774D01*
X044447Y028736D01*
X044485Y028699D01*
X044522Y02868D01*
X044597D01*
X044635Y028699D01*
X044672Y028736D01*
X044691Y028774D01*
X04471Y02883D01*
Y028924D01*
X044691Y02898D01*
X044672Y029017D01*
X044635Y029055D01*
X044597Y029074D01*
X044522D01*
X044579Y028755D02*
X044691Y028643D01*
X044802Y028999D02*
X044839Y029017D01*
X044895Y029074D01*
Y02868D01*
X03988Y031694D02*
Y0313D01*
X040105D01*
X040335Y031694D02*
X040148Y031431D01*
X040429D01*
X040335Y031694D02*
Y0313D01*
X011264Y020723D02*
X010964D01*
X010907Y020741D01*
X010889Y02076D01*
X01087Y020798D01*
Y020835D01*
X010889Y020873D01*
X010907Y020891D01*
X010964Y02091D01*
X011001D01*
X011189Y020621D02*
X011207Y020584D01*
X011264Y020528D01*
X01087D01*
X011264Y02022D02*
X011245Y020276D01*
X011189Y020314D01*
X011095Y020333D01*
X011039D01*
X010945Y020314D01*
X010889Y020276D01*
X01087Y02022D01*
Y020183D01*
X010889Y020127D01*
X010945Y020089D01*
X011039Y02007D01*
X011095D01*
X011189Y020089D01*
X011245Y020127D01*
X011264Y020183D01*
Y02022D01*
X057157Y027654D02*
Y027354D01*
X057139Y027297D01*
X05712Y027279D01*
X057082Y02726D01*
X057045D01*
X057007Y027279D01*
X056989Y027297D01*
X05697Y027354D01*
Y027391D01*
X057352Y027654D02*
X057296Y027635D01*
X057277Y027597D01*
Y02756D01*
X057296Y027522D01*
X057334Y027504D01*
X057409Y027485D01*
X057465Y027466D01*
X057502Y027429D01*
X057521Y027391D01*
Y027335D01*
X057502Y027297D01*
X057484Y027279D01*
X057427Y02726D01*
X057352D01*
X057296Y027279D01*
X057277Y027297D01*
X057259Y027335D01*
Y027391D01*
X057277Y027429D01*
X057315Y027466D01*
X057371Y027485D01*
X057446Y027504D01*
X057484Y027522D01*
X057502Y02756D01*
Y027597D01*
X057484Y027635D01*
X057427Y027654D01*
X057352D01*
X056237Y041334D02*
Y041034D01*
X056219Y040977D01*
X0562Y040959D01*
X056162Y04094D01*
X056125D01*
X056087Y040959D01*
X056069Y040977D01*
X05605Y041034D01*
Y041071D01*
X056564Y041277D02*
X056545Y041315D01*
X056489Y041334D01*
X056451D01*
X056395Y041315D01*
X056357Y041259D01*
X056339Y041165D01*
Y041071D01*
X056357Y040996D01*
X056395Y040959D01*
X056451Y04094D01*
X05647D01*
X056526Y040959D01*
X056564Y040996D01*
X056582Y041052D01*
Y041071D01*
X056564Y041127D01*
X056526Y041165D01*
X05647Y041184D01*
X056451D01*
X056395Y041165D01*
X056357Y041127D01*
X056339Y041071D01*
X042237Y021584D02*
Y021284D01*
X042219Y021227D01*
X0422Y021209D01*
X042162Y02119D01*
X042125D01*
X042087Y021209D01*
X042069Y021227D01*
X04205Y021284D01*
Y021321D01*
X042526Y021584D02*
X042339Y021321D01*
X04262D01*
X042526Y021584D02*
Y02119D01*
X039037Y044604D02*
Y044304D01*
X039019Y044247D01*
X039Y044229D01*
X038962Y04421D01*
X038925D01*
X038887Y044229D01*
X038869Y044247D01*
X03885Y044304D01*
Y044341D01*
X039139Y044529D02*
X039176Y044547D01*
X039232Y044604D01*
Y04421D01*
X01554Y022884D02*
Y02249D01*
Y022884D02*
X015784D01*
X01554Y022696D02*
X01569D01*
X015829Y022884D02*
Y02249D01*
Y022884D02*
X015997D01*
X016054Y022865D01*
X016072Y022846D01*
X016091Y022809D01*
Y022771D01*
X016072Y022734D01*
X016054Y022715D01*
X015997Y022696D01*
X015829D02*
X015997D01*
X016054Y022677D01*
X016072Y022659D01*
X016091Y022621D01*
Y022565D01*
X016072Y022527D01*
X016054Y022509D01*
X015997Y02249D01*
X015829D01*
X016217Y022884D02*
X016423D01*
X01631Y022734D01*
X016367D01*
X016404Y022715D01*
X016423Y022696D01*
X016442Y02264D01*
Y022602D01*
X016423Y022546D01*
X016385Y022509D01*
X016329Y02249D01*
X016273D01*
X016217Y022509D01*
X016198Y022527D01*
X016179Y022565D01*
X046226Y02645D02*
X04662D01*
X046226D02*
Y026694D01*
X046414Y02645D02*
Y0266D01*
X046226Y026739D02*
X04662D01*
X046226D02*
Y026907D01*
X046245Y026964D01*
X046264Y026982D01*
X046301Y027001D01*
X046339D01*
X046376Y026982D01*
X046395Y026964D01*
X046414Y026907D01*
Y026739D02*
Y026907D01*
X046433Y026964D01*
X046451Y026982D01*
X046489Y027001D01*
X046545D01*
X046583Y026982D01*
X046601Y026964D01*
X04662Y026907D01*
Y026739D01*
X04632Y027108D02*
X046301D01*
X046264Y027127D01*
X046245Y027145D01*
X046226Y027183D01*
Y027258D01*
X046245Y027295D01*
X046264Y027314D01*
X046301Y027333D01*
X046339D01*
X046376Y027314D01*
X046433Y027277D01*
X04662Y027089D01*
Y027352D01*
X03075Y039124D02*
Y03873D01*
Y039124D02*
X030994D01*
X03075Y038936D02*
X0309D01*
X031039Y039124D02*
Y03873D01*
Y039124D02*
X031207D01*
X031264Y039105D01*
X031282Y039086D01*
X031301Y039049D01*
Y039011D01*
X031282Y038974D01*
X031264Y038955D01*
X031207Y038936D01*
X031039D02*
X031207D01*
X031264Y038917D01*
X031282Y038899D01*
X031301Y038861D01*
Y038805D01*
X031282Y038767D01*
X031264Y038749D01*
X031207Y03873D01*
X031039D01*
X031389Y039049D02*
X031427Y039067D01*
X031483Y039124D01*
Y03873D01*
X05564Y023884D02*
Y02349D01*
Y023884D02*
X055771D01*
X055827Y023865D01*
X055865Y023827D01*
X055884Y02379D01*
X055902Y023734D01*
Y02364D01*
X055884Y023584D01*
X055865Y023546D01*
X055827Y023509D01*
X055771Y02349D01*
X05564D01*
X056084Y023884D02*
X056028Y023865D01*
X056009Y023827D01*
Y02379D01*
X056028Y023752D01*
X056065Y023734D01*
X05614Y023715D01*
X056197Y023696D01*
X056234Y023659D01*
X056253Y023621D01*
Y023565D01*
X056234Y023527D01*
X056215Y023509D01*
X056159Y02349D01*
X056084D01*
X056028Y023509D01*
X056009Y023527D01*
X055991Y023565D01*
Y023621D01*
X056009Y023659D01*
X056047Y023696D01*
X056103Y023715D01*
X056178Y023734D01*
X056215Y023752D01*
X056234Y02379D01*
Y023827D01*
X056215Y023865D01*
X056159Y023884D01*
X056084D01*
X018311Y02278D02*
X018292Y022817D01*
X018255Y022855D01*
X018217Y022874D01*
X018142D01*
X018105Y022855D01*
X018067Y022817D01*
X018049Y02278D01*
X01803Y022724D01*
Y02263D01*
X018049Y022574D01*
X018067Y022536D01*
X018105Y022499D01*
X018142Y02248D01*
X018217D01*
X018255Y022499D01*
X018292Y022536D01*
X018311Y022574D01*
X018647Y022874D02*
X018459D01*
X01844Y022705D01*
X018459Y022724D01*
X018515Y022742D01*
X018572D01*
X018628Y022724D01*
X018665Y022686D01*
X018684Y02263D01*
Y022592D01*
X018665Y022536D01*
X018628Y022499D01*
X018572Y02248D01*
X018515D01*
X018459Y022499D01*
X01844Y022517D01*
X018422Y022555D01*
X01896Y022874D02*
X018772Y022611D01*
X019053D01*
X01896Y022874D02*
Y02248D01*
X041431Y03159D02*
X041412Y031627D01*
X041375Y031665D01*
X041337Y031684D01*
X041262D01*
X041225Y031665D01*
X041187Y031627D01*
X041169Y03159D01*
X04115Y031534D01*
Y03144D01*
X041169Y031384D01*
X041187Y031346D01*
X041225Y031309D01*
X041262Y03129D01*
X041337D01*
X041375Y031309D01*
X041412Y031346D01*
X041431Y031384D01*
X041767Y031684D02*
X041579D01*
X04156Y031515D01*
X041579Y031534D01*
X041635Y031552D01*
X041692D01*
X041748Y031534D01*
X041785Y031496D01*
X041804Y03144D01*
Y031402D01*
X041785Y031346D01*
X041748Y031309D01*
X041692Y03129D01*
X041635D01*
X041579Y031309D01*
X04156Y031327D01*
X041542Y031365D01*
X04193Y031684D02*
X042136D01*
X042023Y031534D01*
X04208D01*
X042117Y031515D01*
X042136Y031496D01*
X042155Y03144D01*
Y031402D01*
X042136Y031346D01*
X042098Y031309D01*
X042042Y03129D01*
X041986D01*
X04193Y031309D01*
X041911Y031327D01*
X041892Y031365D01*
X04952Y031879D02*
X049557Y031898D01*
X049595Y031935D01*
X049614Y031973D01*
Y032048D01*
X049595Y032085D01*
X049557Y032123D01*
X04952Y032141D01*
X049464Y03216D01*
X04937D01*
X049314Y032141D01*
X049276Y032123D01*
X049239Y032085D01*
X04922Y032048D01*
Y031973D01*
X049239Y031935D01*
X049276Y031898D01*
X049314Y031879D01*
X049614Y031543D02*
Y031731D01*
X049445Y03175D01*
X049464Y031731D01*
X049482Y031675D01*
Y031618D01*
X049464Y031562D01*
X049426Y031525D01*
X04937Y031506D01*
X049332D01*
X049276Y031525D01*
X049239Y031562D01*
X04922Y031618D01*
Y031675D01*
X049239Y031731D01*
X049257Y03175D01*
X049295Y031768D01*
X04952Y031399D02*
X049539D01*
X049576Y03138D01*
X049595Y031362D01*
X049614Y031324D01*
Y031249D01*
X049595Y031212D01*
X049576Y031193D01*
X049539Y031174D01*
X049501D01*
X049464Y031193D01*
X049407Y03123D01*
X04922Y031418D01*
Y031155D01*
X052531Y03183D02*
X052512Y031867D01*
X052475Y031905D01*
X052437Y031924D01*
X052362D01*
X052325Y031905D01*
X052287Y031867D01*
X052269Y03183D01*
X05225Y031774D01*
Y03168D01*
X052269Y031624D01*
X052287Y031586D01*
X052325Y031549D01*
X052362Y03153D01*
X052437D01*
X052475Y031549D01*
X052512Y031586D01*
X052531Y031624D01*
X052867Y031924D02*
X052679D01*
X05266Y031755D01*
X052679Y031774D01*
X052735Y031792D01*
X052792D01*
X052848Y031774D01*
X052885Y031736D01*
X052904Y03168D01*
Y031642D01*
X052885Y031586D01*
X052848Y031549D01*
X052792Y03153D01*
X052735D01*
X052679Y031549D01*
X05266Y031567D01*
X052642Y031605D01*
X052992Y031849D02*
X05303Y031867D01*
X053086Y031924D01*
Y03153D01*
X05386Y025241D02*
X053823Y025222D01*
X053785Y025185D01*
X053766Y025147D01*
Y025072D01*
X053785Y025035D01*
X053823Y024997D01*
X05386Y024979D01*
X053916Y02496D01*
X05401D01*
X054066Y024979D01*
X054104Y024997D01*
X054141Y025035D01*
X05416Y025072D01*
Y025147D01*
X054141Y025185D01*
X054104Y025222D01*
X054066Y025241D01*
X053766Y025577D02*
Y025389D01*
X053935Y02537D01*
X053916Y025389D01*
X053898Y025445D01*
Y025502D01*
X053916Y025558D01*
X053954Y025595D01*
X05401Y025614D01*
X054048D01*
X054104Y025595D01*
X054141Y025558D01*
X05416Y025502D01*
Y025445D01*
X054141Y025389D01*
X054123Y02537D01*
X054085Y025352D01*
X053766Y025815D02*
X053785Y025758D01*
X053841Y025721D01*
X053935Y025702D01*
X053991D01*
X054085Y025721D01*
X054141Y025758D01*
X05416Y025815D01*
Y025852D01*
X054141Y025908D01*
X054085Y025946D01*
X053991Y025965D01*
X053935D01*
X053841Y025946D01*
X053785Y025908D01*
X053766Y025852D01*
Y025815D01*
X0559Y025241D02*
X055863Y025222D01*
X055825Y025185D01*
X055806Y025147D01*
Y025072D01*
X055825Y025035D01*
X055863Y024997D01*
X0559Y024979D01*
X055956Y02496D01*
X05605D01*
X056106Y024979D01*
X056144Y024997D01*
X056181Y025035D01*
X0562Y025072D01*
Y025147D01*
X056181Y025185D01*
X056144Y025222D01*
X056106Y025241D01*
X055806Y025539D02*
X056069Y025352D01*
Y025633D01*
X055806Y025539D02*
X0562D01*
X055938Y025946D02*
X055994Y025927D01*
X056031Y02589D01*
X05605Y025833D01*
Y025815D01*
X056031Y025758D01*
X055994Y025721D01*
X055938Y025702D01*
X055919D01*
X055863Y025721D01*
X055825Y025758D01*
X055806Y025815D01*
Y025833D01*
X055825Y02589D01*
X055863Y025927D01*
X055938Y025946D01*
X056031D01*
X056125Y025927D01*
X056181Y02589D01*
X0562Y025833D01*
Y025796D01*
X056181Y02574D01*
X056144Y025721D01*
X04838Y033141D02*
X048343Y033122D01*
X048305Y033085D01*
X048286Y033047D01*
Y032972D01*
X048305Y032935D01*
X048343Y032897D01*
X04838Y032879D01*
X048436Y03286D01*
X04853D01*
X048586Y032879D01*
X048624Y032897D01*
X048661Y032935D01*
X04868Y032972D01*
Y033047D01*
X048661Y033085D01*
X048624Y033122D01*
X048586Y033141D01*
X048286Y033439D02*
X048549Y033252D01*
Y033533D01*
X048286Y033439D02*
X04868D01*
X048286Y033696D02*
X048305Y03364D01*
X048343Y033621D01*
X04838D01*
X048418Y03364D01*
X048436Y033677D01*
X048455Y033752D01*
X048474Y033808D01*
X048511Y033846D01*
X048549Y033865D01*
X048605D01*
X048643Y033846D01*
X048661Y033827D01*
X04868Y033771D01*
Y033696D01*
X048661Y03364D01*
X048643Y033621D01*
X048605Y033602D01*
X048549D01*
X048511Y033621D01*
X048474Y033658D01*
X048455Y033715D01*
X048436Y03379D01*
X048418Y033827D01*
X04838Y033846D01*
X048343D01*
X048305Y033827D01*
X048286Y033771D01*
Y033696D01*
X04793Y034871D02*
X047893Y034852D01*
X047855Y034815D01*
X047836Y034777D01*
Y034702D01*
X047855Y034665D01*
X047893Y034627D01*
X04793Y034609D01*
X047986Y03459D01*
X04808D01*
X048136Y034609D01*
X048174Y034627D01*
X048211Y034665D01*
X04823Y034702D01*
Y034777D01*
X048211Y034815D01*
X048174Y034852D01*
X048136Y034871D01*
X047836Y035169D02*
X048099Y034982D01*
Y035263D01*
X047836Y035169D02*
X04823D01*
X047836Y035595D02*
X04823Y035407D01*
X047836Y035332D02*
Y035595D01*
X04852Y026005D02*
X04849Y02599D01*
X04846Y02596D01*
X048445Y02593D01*
Y02587D01*
X04846Y02584D01*
X04849Y02581D01*
X04852Y025795D01*
X048565Y02578D01*
X04864D01*
X048685Y025795D01*
X048715Y02581D01*
X048745Y02584D01*
X04876Y02587D01*
Y02593D01*
X048745Y02596D01*
X048715Y02599D01*
X048685Y026005D01*
X048445Y026243D02*
X048655Y026093D01*
Y026318D01*
X048445Y026243D02*
X04876D01*
X04849Y026554D02*
X04846Y026539D01*
X048445Y026494D01*
Y026464D01*
X04846Y026419D01*
X048505Y026389D01*
X04858Y026374D01*
X048655D01*
X048715Y026389D01*
X048745Y026419D01*
X04876Y026464D01*
Y026479D01*
X048745Y026524D01*
X048715Y026554D01*
X04867Y026569D01*
X048655D01*
X04861Y026554D01*
X04858Y026524D01*
X048565Y026479D01*
Y026464D01*
X04858Y026419D01*
X04861Y026389D01*
X048655Y026374D01*
X054071Y04604D02*
X054052Y046077D01*
X054015Y046115D01*
X053977Y046134D01*
X053902D01*
X053865Y046115D01*
X053827Y046077D01*
X053809Y04604D01*
X05379Y045984D01*
Y04589D01*
X053809Y045834D01*
X053827Y045796D01*
X053865Y045759D01*
X053902Y04574D01*
X053977D01*
X054015Y045759D01*
X054052Y045796D01*
X054071Y045834D01*
X054369Y046134D02*
X054182Y045871D01*
X054463D01*
X054369Y046134D02*
Y04574D01*
X054757Y046134D02*
X05457D01*
X054551Y045965D01*
X05457Y045984D01*
X054626Y046002D01*
X054682D01*
X054738Y045984D01*
X054776Y045946D01*
X054795Y04589D01*
Y045852D01*
X054776Y045796D01*
X054738Y045759D01*
X054682Y04574D01*
X054626D01*
X05457Y045759D01*
X054551Y045777D01*
X054532Y045815D01*
X054071Y04686D02*
X054052Y046897D01*
X054015Y046935D01*
X053977Y046954D01*
X053902D01*
X053865Y046935D01*
X053827Y046897D01*
X053809Y04686D01*
X05379Y046804D01*
Y04671D01*
X053809Y046654D01*
X053827Y046616D01*
X053865Y046579D01*
X053902Y04656D01*
X053977D01*
X054015Y046579D01*
X054052Y046616D01*
X054071Y046654D01*
X054369Y046954D02*
X054182Y046691D01*
X054463D01*
X054369Y046954D02*
Y04656D01*
X05472Y046954D02*
X054532Y046691D01*
X054813D01*
X05472Y046954D02*
Y04656D01*
X054181Y04964D02*
X054162Y049677D01*
X054125Y049715D01*
X054087Y049734D01*
X054012D01*
X053975Y049715D01*
X053937Y049677D01*
X053919Y04964D01*
X0539Y049584D01*
Y04949D01*
X053919Y049434D01*
X053937Y049396D01*
X053975Y049359D01*
X054012Y04934D01*
X054087D01*
X054125Y049359D01*
X054162Y049396D01*
X054181Y049434D01*
X054479Y049734D02*
X054292Y049471D01*
X054573D01*
X054479Y049734D02*
Y04934D01*
X05468Y049734D02*
X054886D01*
X054773Y049584D01*
X05483D01*
X054867Y049565D01*
X054886Y049546D01*
X054905Y04949D01*
Y049452D01*
X054886Y049396D01*
X054848Y049359D01*
X054792Y04934D01*
X054736D01*
X05468Y049359D01*
X054661Y049377D01*
X054642Y049415D01*
X049401Y04954D02*
X049382Y049577D01*
X049345Y049615D01*
X049307Y049634D01*
X049232D01*
X049195Y049615D01*
X049157Y049577D01*
X049139Y04954D01*
X04912Y049484D01*
Y04939D01*
X049139Y049334D01*
X049157Y049296D01*
X049195Y049259D01*
X049232Y04924D01*
X049307D01*
X049345Y049259D01*
X049382Y049296D01*
X049401Y049334D01*
X049699Y049634D02*
X049512Y049371D01*
X049793D01*
X049699Y049634D02*
Y04924D01*
X049881Y04954D02*
Y049559D01*
X0499Y049596D01*
X049918Y049615D01*
X049956Y049634D01*
X050031D01*
X050068Y049615D01*
X050087Y049596D01*
X050106Y049559D01*
Y049521D01*
X050087Y049484D01*
X05005Y049427D01*
X049862Y04924D01*
X050125D01*
X046521Y04957D02*
X046502Y049607D01*
X046465Y049645D01*
X046427Y049664D01*
X046352D01*
X046315Y049645D01*
X046277Y049607D01*
X046259Y04957D01*
X04624Y049514D01*
Y04942D01*
X046259Y049364D01*
X046277Y049326D01*
X046315Y049289D01*
X046352Y04927D01*
X046427D01*
X046465Y049289D01*
X046502Y049326D01*
X046521Y049364D01*
X046819Y049664D02*
X046632Y049401D01*
X046913D01*
X046819Y049664D02*
Y04927D01*
X046982Y049589D02*
X04702Y049607D01*
X047076Y049664D01*
Y04927D01*
X038591Y04372D02*
X038572Y043757D01*
X038535Y043795D01*
X038497Y043814D01*
X038422D01*
X038385Y043795D01*
X038347Y043757D01*
X038329Y04372D01*
X03831Y043664D01*
Y04357D01*
X038329Y043514D01*
X038347Y043476D01*
X038385Y043439D01*
X038422Y04342D01*
X038497D01*
X038535Y043439D01*
X038572Y043476D01*
X038591Y043514D01*
X038739Y043814D02*
X038945D01*
X038833Y043664D01*
X038889D01*
X038927Y043645D01*
X038945Y043626D01*
X038964Y04357D01*
Y043532D01*
X038945Y043476D01*
X038908Y043439D01*
X038852Y04342D01*
X038795D01*
X038739Y043439D01*
X03872Y043457D01*
X038702Y043495D01*
X039277Y043814D02*
X03909D01*
X039071Y043645D01*
X03909Y043664D01*
X039146Y043682D01*
X039202D01*
X039258Y043664D01*
X039296Y043626D01*
X039315Y04357D01*
Y043532D01*
X039296Y043476D01*
X039258Y043439D01*
X039202Y04342D01*
X039146D01*
X03909Y043439D01*
X039071Y043457D01*
X039052Y043495D01*
X02772Y035741D02*
X027683Y035722D01*
X027645Y035685D01*
X027626Y035647D01*
Y035572D01*
X027645Y035535D01*
X027683Y035497D01*
X02772Y035479D01*
X027776Y03546D01*
X02787D01*
X027926Y035479D01*
X027964Y035497D01*
X028001Y035535D01*
X02802Y035572D01*
Y035647D01*
X028001Y035685D01*
X027964Y035722D01*
X027926Y035741D01*
X027626Y035889D02*
Y036095D01*
X027776Y035983D01*
Y036039D01*
X027795Y036077D01*
X027814Y036095D01*
X02787Y036114D01*
X027908D01*
X027964Y036095D01*
X028001Y036058D01*
X02802Y036002D01*
Y035945D01*
X028001Y035889D01*
X027983Y03587D01*
X027945Y035852D01*
X027626Y03639D02*
X027889Y036202D01*
Y036483D01*
X027626Y03639D02*
X02802D01*
X03045Y036891D02*
X030413Y036872D01*
X030375Y036835D01*
X030356Y036797D01*
Y036722D01*
X030375Y036685D01*
X030413Y036647D01*
X03045Y036629D01*
X030506Y03661D01*
X0306D01*
X030656Y036629D01*
X030694Y036647D01*
X030731Y036685D01*
X03075Y036722D01*
Y036797D01*
X030731Y036835D01*
X030694Y036872D01*
X030656Y036891D01*
X030356Y037039D02*
Y037245D01*
X030506Y037133D01*
Y037189D01*
X030525Y037227D01*
X030544Y037245D01*
X0306Y037264D01*
X030638D01*
X030694Y037245D01*
X030731Y037208D01*
X03075Y037152D01*
Y037095D01*
X030731Y037039D01*
X030713Y03702D01*
X030675Y037002D01*
X030356Y03739D02*
Y037596D01*
X030506Y037483D01*
Y03754D01*
X030525Y037577D01*
X030544Y037596D01*
X0306Y037615D01*
X030638D01*
X030694Y037596D01*
X030731Y037558D01*
X03075Y037502D01*
Y037446D01*
X030731Y03739D01*
X030713Y037371D01*
X030675Y037352D01*
X031271Y03715D02*
X031252Y037187D01*
X031215Y037225D01*
X031177Y037244D01*
X031102D01*
X031065Y037225D01*
X031027Y037187D01*
X031009Y03715D01*
X03099Y037094D01*
Y037D01*
X031009Y036944D01*
X031027Y036906D01*
X031065Y036869D01*
X031102Y03685D01*
X031177D01*
X031215Y036869D01*
X031252Y036906D01*
X031271Y036944D01*
X031419Y037244D02*
X031625D01*
X031513Y037094D01*
X031569D01*
X031607Y037075D01*
X031625Y037056D01*
X031644Y037D01*
Y036962D01*
X031625Y036906D01*
X031588Y036869D01*
X031532Y03685D01*
X031475D01*
X031419Y036869D01*
X0314Y036887D01*
X031382Y036925D01*
X031751Y03715D02*
Y037169D01*
X03177Y037206D01*
X031788Y037225D01*
X031826Y037244D01*
X031901D01*
X031938Y037225D01*
X031957Y037206D01*
X031976Y037169D01*
Y037131D01*
X031957Y037094D01*
X03192Y037037D01*
X031732Y03685D01*
X031995D01*
X031291Y03517D02*
X031272Y035207D01*
X031235Y035245D01*
X031197Y035264D01*
X031122D01*
X031085Y035245D01*
X031047Y035207D01*
X031029Y03517D01*
X03101Y035114D01*
Y03502D01*
X031029Y034964D01*
X031047Y034926D01*
X031085Y034889D01*
X031122Y03487D01*
X031197D01*
X031235Y034889D01*
X031272Y034926D01*
X031291Y034964D01*
X031439Y035264D02*
X031645D01*
X031533Y035114D01*
X031589D01*
X031627Y035095D01*
X031645Y035076D01*
X031664Y03502D01*
Y034982D01*
X031645Y034926D01*
X031608Y034889D01*
X031552Y03487D01*
X031495D01*
X031439Y034889D01*
X03142Y034907D01*
X031402Y034945D01*
X031752Y035189D02*
X03179Y035207D01*
X031846Y035264D01*
Y03487D01*
X02554Y032181D02*
X025503Y032162D01*
X025465Y032125D01*
X025446Y032087D01*
Y032012D01*
X025465Y031975D01*
X025503Y031937D01*
X02554Y031919D01*
X025596Y0319D01*
X02569D01*
X025746Y031919D01*
X025784Y031937D01*
X025821Y031975D01*
X02584Y032012D01*
Y032087D01*
X025821Y032125D01*
X025784Y032162D01*
X025746Y032181D01*
X025446Y032329D02*
Y032535D01*
X025596Y032423D01*
Y032479D01*
X025615Y032517D01*
X025634Y032535D01*
X02569Y032554D01*
X025728D01*
X025784Y032535D01*
X025821Y032498D01*
X02584Y032442D01*
Y032385D01*
X025821Y032329D01*
X025803Y03231D01*
X025765Y032292D01*
X025446Y032755D02*
X025465Y032698D01*
X025521Y032661D01*
X025615Y032642D01*
X025671D01*
X025765Y032661D01*
X025821Y032698D01*
X02584Y032755D01*
Y032792D01*
X025821Y032848D01*
X025765Y032886D01*
X025671Y032905D01*
X025615D01*
X025521Y032886D01*
X025465Y032848D01*
X025446Y032792D01*
Y032755D01*
X02548Y034391D02*
X025443Y034372D01*
X025405Y034335D01*
X025386Y034297D01*
Y034222D01*
X025405Y034185D01*
X025443Y034147D01*
X02548Y034129D01*
X025536Y03411D01*
X02563D01*
X025686Y034129D01*
X025724Y034147D01*
X025761Y034185D01*
X02578Y034222D01*
Y034297D01*
X025761Y034335D01*
X025724Y034372D01*
X025686Y034391D01*
X02548Y03452D02*
X025461D01*
X025424Y034539D01*
X025405Y034558D01*
X025386Y034595D01*
Y03467D01*
X025405Y034708D01*
X025424Y034727D01*
X025461Y034745D01*
X025499D01*
X025536Y034727D01*
X025593Y034689D01*
X02578Y034502D01*
Y034764D01*
X025518Y035096D02*
X025574Y035077D01*
X025611Y03504D01*
X02563Y034983D01*
Y034965D01*
X025611Y034908D01*
X025574Y034871D01*
X025518Y034852D01*
X025499D01*
X025443Y034871D01*
X025405Y034908D01*
X025386Y034965D01*
Y034983D01*
X025405Y03504D01*
X025443Y035077D01*
X025518Y035096D01*
X025611D01*
X025705Y035077D01*
X025761Y03504D01*
X02578Y034983D01*
Y034946D01*
X025761Y03489D01*
X025724Y034871D01*
X030181Y02838D02*
X030162Y028417D01*
X030125Y028455D01*
X030087Y028474D01*
X030012D01*
X029975Y028455D01*
X029937Y028417D01*
X029919Y02838D01*
X0299Y028324D01*
Y02823D01*
X029919Y028174D01*
X029937Y028136D01*
X029975Y028099D01*
X030012Y02808D01*
X030087D01*
X030125Y028099D01*
X030162Y028136D01*
X030181Y028174D01*
X03031Y02838D02*
Y028399D01*
X030329Y028436D01*
X030348Y028455D01*
X030385Y028474D01*
X03046D01*
X030498Y028455D01*
X030517Y028436D01*
X030535Y028399D01*
Y028361D01*
X030517Y028324D01*
X030479Y028267D01*
X030292Y02808D01*
X030554D01*
X030736Y028474D02*
X03068Y028455D01*
X030661Y028417D01*
Y02838D01*
X03068Y028342D01*
X030717Y028324D01*
X030792Y028305D01*
X030848Y028286D01*
X030886Y028249D01*
X030905Y028211D01*
Y028155D01*
X030886Y028117D01*
X030867Y028099D01*
X030811Y02808D01*
X030736D01*
X03068Y028099D01*
X030661Y028117D01*
X030642Y028155D01*
Y028211D01*
X030661Y028249D01*
X030698Y028286D01*
X030755Y028305D01*
X03083Y028324D01*
X030867Y028342D01*
X030886Y02838D01*
Y028417D01*
X030867Y028455D01*
X030811Y028474D01*
X030736D01*
X030181Y02902D02*
X030162Y029057D01*
X030125Y029095D01*
X030087Y029114D01*
X030012D01*
X029975Y029095D01*
X029937Y029057D01*
X029919Y02902D01*
X0299Y028964D01*
Y02887D01*
X029919Y028814D01*
X029937Y028776D01*
X029975Y028739D01*
X030012Y02872D01*
X030087D01*
X030125Y028739D01*
X030162Y028776D01*
X030181Y028814D01*
X03031Y02902D02*
Y029039D01*
X030329Y029076D01*
X030348Y029095D01*
X030385Y029114D01*
X03046D01*
X030498Y029095D01*
X030517Y029076D01*
X030535Y029039D01*
Y029001D01*
X030517Y028964D01*
X030479Y028907D01*
X030292Y02872D01*
X030554D01*
X030905Y029114D02*
X030717Y02872D01*
X030642Y029114D02*
X030905D01*
X033841Y03643D02*
X033822Y036467D01*
X033785Y036505D01*
X033747Y036524D01*
X033672D01*
X033635Y036505D01*
X033597Y036467D01*
X033579Y03643D01*
X03356Y036374D01*
Y03628D01*
X033579Y036224D01*
X033597Y036186D01*
X033635Y036149D01*
X033672Y03613D01*
X033747D01*
X033785Y036149D01*
X033822Y036186D01*
X033841Y036224D01*
X03397Y03643D02*
Y036449D01*
X033989Y036486D01*
X034008Y036505D01*
X034045Y036524D01*
X03412D01*
X034158Y036505D01*
X034177Y036486D01*
X034195Y036449D01*
Y036411D01*
X034177Y036374D01*
X034139Y036317D01*
X033952Y03613D01*
X034214D01*
X034527Y036467D02*
X034508Y036505D01*
X034452Y036524D01*
X034415D01*
X034358Y036505D01*
X034321Y036449D01*
X034302Y036355D01*
Y036261D01*
X034321Y036186D01*
X034358Y036149D01*
X034415Y03613D01*
X034433D01*
X03449Y036149D01*
X034527Y036186D01*
X034546Y036242D01*
Y036261D01*
X034527Y036317D01*
X03449Y036355D01*
X034433Y036374D01*
X034415D01*
X034358Y036355D01*
X034321Y036317D01*
X034302Y036261D01*
X033841Y035728D02*
X033822Y035765D01*
X033785Y035803D01*
X033747Y035822D01*
X033672D01*
X033635Y035803D01*
X033597Y035765D01*
X033579Y035728D01*
X03356Y035672D01*
Y035578D01*
X033579Y035522D01*
X033597Y035484D01*
X033635Y035447D01*
X033672Y035428D01*
X033747D01*
X033785Y035447D01*
X033822Y035484D01*
X033841Y035522D01*
X03397Y035728D02*
Y035747D01*
X033989Y035784D01*
X034008Y035803D01*
X034045Y035822D01*
X03412D01*
X034158Y035803D01*
X034177Y035784D01*
X034195Y035747D01*
Y035709D01*
X034177Y035672D01*
X034139Y035615D01*
X033952Y035428D01*
X034214D01*
X034527Y035822D02*
X03434D01*
X034321Y035653D01*
X03434Y035672D01*
X034396Y03569D01*
X034452D01*
X034508Y035672D01*
X034546Y035634D01*
X034565Y035578D01*
Y03554D01*
X034546Y035484D01*
X034508Y035447D01*
X034452Y035428D01*
X034396D01*
X03434Y035447D01*
X034321Y035465D01*
X034302Y035503D01*
X037401Y03596D02*
X037382Y035997D01*
X037345Y036035D01*
X037307Y036054D01*
X037232D01*
X037195Y036035D01*
X037157Y035997D01*
X037139Y03596D01*
X03712Y035904D01*
Y03581D01*
X037139Y035754D01*
X037157Y035716D01*
X037195Y035679D01*
X037232Y03566D01*
X037307D01*
X037345Y035679D01*
X037382Y035716D01*
X037401Y035754D01*
X03753Y03596D02*
Y035979D01*
X037549Y036016D01*
X037568Y036035D01*
X037605Y036054D01*
X03768D01*
X037718Y036035D01*
X037737Y036016D01*
X037755Y035979D01*
Y035941D01*
X037737Y035904D01*
X037699Y035847D01*
X037512Y03566D01*
X037774D01*
X03805Y036054D02*
X037862Y035791D01*
X038143D01*
X03805Y036054D02*
Y03566D01*
X037401Y03526D02*
X037382Y035297D01*
X037345Y035335D01*
X037307Y035354D01*
X037232D01*
X037195Y035335D01*
X037157Y035297D01*
X037139Y03526D01*
X03712Y035204D01*
Y03511D01*
X037139Y035054D01*
X037157Y035016D01*
X037195Y034979D01*
X037232Y03496D01*
X037307D01*
X037345Y034979D01*
X037382Y035016D01*
X037401Y035054D01*
X03753Y03526D02*
Y035279D01*
X037549Y035316D01*
X037568Y035335D01*
X037605Y035354D01*
X03768D01*
X037718Y035335D01*
X037737Y035316D01*
X037755Y035279D01*
Y035241D01*
X037737Y035204D01*
X037699Y035147D01*
X037512Y03496D01*
X037774D01*
X0379Y035354D02*
X038106D01*
X037993Y035204D01*
X03805D01*
X038087Y035185D01*
X038106Y035166D01*
X038125Y03511D01*
Y035072D01*
X038106Y035016D01*
X038068Y034979D01*
X038012Y03496D01*
X037956D01*
X0379Y034979D01*
X037881Y034997D01*
X037862Y035035D01*
X036201Y02815D02*
X036182Y028187D01*
X036145Y028225D01*
X036107Y028244D01*
X036032D01*
X035995Y028225D01*
X035957Y028187D01*
X035939Y02815D01*
X03592Y028094D01*
Y028D01*
X035939Y027944D01*
X035957Y027906D01*
X035995Y027869D01*
X036032Y02785D01*
X036107D01*
X036145Y027869D01*
X036182Y027906D01*
X036201Y027944D01*
X03633Y02815D02*
Y028169D01*
X036349Y028206D01*
X036368Y028225D01*
X036405Y028244D01*
X03648D01*
X036518Y028225D01*
X036537Y028206D01*
X036555Y028169D01*
Y028131D01*
X036537Y028094D01*
X036499Y028037D01*
X036312Y02785D01*
X036574D01*
X036681Y02815D02*
Y028169D01*
X0367Y028206D01*
X036718Y028225D01*
X036756Y028244D01*
X036831D01*
X036868Y028225D01*
X036887Y028206D01*
X036906Y028169D01*
Y028131D01*
X036887Y028094D01*
X03685Y028037D01*
X036662Y02785D01*
X036925D01*
X036201Y02889D02*
X036182Y028927D01*
X036145Y028965D01*
X036107Y028984D01*
X036032D01*
X035995Y028965D01*
X035957Y028927D01*
X035939Y02889D01*
X03592Y028834D01*
Y02874D01*
X035939Y028684D01*
X035957Y028646D01*
X035995Y028609D01*
X036032Y02859D01*
X036107D01*
X036145Y028609D01*
X036182Y028646D01*
X036201Y028684D01*
X03633Y02889D02*
Y028909D01*
X036349Y028946D01*
X036368Y028965D01*
X036405Y028984D01*
X03648D01*
X036518Y028965D01*
X036537Y028946D01*
X036555Y028909D01*
Y028871D01*
X036537Y028834D01*
X036499Y028777D01*
X036312Y02859D01*
X036574D01*
X036662Y028909D02*
X0367Y028927D01*
X036756Y028984D01*
Y02859D01*
X028121Y03052D02*
X028102Y030557D01*
X028065Y030595D01*
X028027Y030614D01*
X027952D01*
X027915Y030595D01*
X027877Y030557D01*
X027859Y03052D01*
X02784Y030464D01*
Y03037D01*
X027859Y030314D01*
X027877Y030276D01*
X027915Y030239D01*
X027952Y03022D01*
X028027D01*
X028065Y030239D01*
X028102Y030276D01*
X028121Y030314D01*
X02825Y03052D02*
Y030539D01*
X028269Y030576D01*
X028288Y030595D01*
X028325Y030614D01*
X0284D01*
X028438Y030595D01*
X028457Y030576D01*
X028475Y030539D01*
Y030501D01*
X028457Y030464D01*
X028419Y030407D01*
X028232Y03022D01*
X028494D01*
X028695Y030614D02*
X028638Y030595D01*
X028601Y030539D01*
X028582Y030445D01*
Y030389D01*
X028601Y030295D01*
X028638Y030239D01*
X028695Y03022D01*
X028732D01*
X028788Y030239D01*
X028826Y030295D01*
X028845Y030389D01*
Y030445D01*
X028826Y030539D01*
X028788Y030595D01*
X028732Y030614D01*
X028695D01*
X028121Y03127D02*
X028102Y031307D01*
X028065Y031345D01*
X028027Y031364D01*
X027952D01*
X027915Y031345D01*
X027877Y031307D01*
X027859Y03127D01*
X02784Y031214D01*
Y03112D01*
X027859Y031064D01*
X027877Y031026D01*
X027915Y030989D01*
X027952Y03097D01*
X028027D01*
X028065Y030989D01*
X028102Y031026D01*
X028121Y031064D01*
X028232Y031289D02*
X028269Y031307D01*
X028325Y031364D01*
Y03097D01*
X028764Y031232D02*
X028745Y031176D01*
X028708Y031139D01*
X028652Y03112D01*
X028633D01*
X028577Y031139D01*
X028539Y031176D01*
X02852Y031232D01*
Y031251D01*
X028539Y031307D01*
X028577Y031345D01*
X028633Y031364D01*
X028652D01*
X028708Y031345D01*
X028745Y031307D01*
X028764Y031232D01*
Y031139D01*
X028745Y031045D01*
X028708Y030989D01*
X028652Y03097D01*
X028614D01*
X028558Y030989D01*
X028539Y031026D01*
X047351Y03175D02*
X047332Y031787D01*
X047295Y031825D01*
X047257Y031844D01*
X047182D01*
X047145Y031825D01*
X047107Y031787D01*
X047089Y03175D01*
X04707Y031694D01*
Y0316D01*
X047089Y031544D01*
X047107Y031506D01*
X047145Y031469D01*
X047182Y03145D01*
X047257D01*
X047295Y031469D01*
X047332Y031506D01*
X047351Y031544D01*
X047555Y031844D02*
X047499Y031825D01*
X04748Y031787D01*
Y03175D01*
X047499Y031712D01*
X047537Y031694D01*
X047612Y031675D01*
X047668Y031656D01*
X047705Y031619D01*
X047724Y031581D01*
Y031525D01*
X047705Y031487D01*
X047687Y031469D01*
X04763Y03145D01*
X047555D01*
X047499Y031469D01*
X04748Y031487D01*
X047462Y031525D01*
Y031581D01*
X04748Y031619D01*
X047518Y031656D01*
X047574Y031675D01*
X047649Y031694D01*
X047687Y031712D01*
X047705Y03175D01*
Y031787D01*
X047687Y031825D01*
X04763Y031844D01*
X047555D01*
X046151Y02806D02*
X046132Y028097D01*
X046095Y028135D01*
X046057Y028154D01*
X045982D01*
X045945Y028135D01*
X045907Y028097D01*
X045889Y02806D01*
X04587Y028004D01*
Y02791D01*
X045889Y027854D01*
X045907Y027816D01*
X045945Y027779D01*
X045982Y02776D01*
X046057D01*
X046095Y027779D01*
X046132Y027816D01*
X046151Y027854D01*
X046524Y028154D02*
X046337Y02776D01*
X046262Y028154D02*
X046524D01*
X05671Y033696D02*
Y03409D01*
Y033696D02*
X056541D01*
X056485Y033715D01*
X056466Y033734D01*
X056448Y033771D01*
Y033809D01*
X056466Y033846D01*
X056485Y033865D01*
X056541Y033884D01*
X05671D02*
X056541D01*
X056485Y033903D01*
X056466Y033921D01*
X056448Y033959D01*
Y034015D01*
X056466Y034053D01*
X056485Y034071D01*
X056541Y03409D01*
X05671D01*
X056228Y033696D02*
Y03409D01*
X056359Y033696D02*
X056097D01*
X056031Y03379D02*
Y033771D01*
X056013Y033734D01*
X055994Y033715D01*
X055957Y033696D01*
X055882D01*
X055844Y033715D01*
X055825Y033734D01*
X055807Y033771D01*
Y033809D01*
X055825Y033846D01*
X055863Y033903D01*
X05605Y03409D01*
X055788D01*
X02569Y027764D02*
Y02737D01*
Y027764D02*
X025859D01*
X025915Y027745D01*
X025934Y027726D01*
X025952Y027689D01*
Y027651D01*
X025934Y027614D01*
X025915Y027595D01*
X025859Y027576D01*
X02569D02*
X025859D01*
X025915Y027557D01*
X025934Y027539D01*
X025952Y027501D01*
Y027445D01*
X025934Y027407D01*
X025915Y027389D01*
X025859Y02737D01*
X02569D01*
X026172Y027764D02*
Y02737D01*
X026041Y027764D02*
X026303D01*
X02635Y027689D02*
X026387Y027707D01*
X026443Y027764D01*
Y02737D01*
X04145Y040694D02*
Y0403D01*
Y040694D02*
X041619D01*
X041675Y040675D01*
X041694Y040656D01*
X041712Y040619D01*
Y040581D01*
X041694Y040544D01*
X041675Y040525D01*
X041619Y040506D01*
X04145D01*
X041581D02*
X041712Y0403D01*
X041838Y040694D02*
X042044D01*
X041932Y040544D01*
X041988D01*
X042025Y040525D01*
X042044Y040506D01*
X042063Y04045D01*
Y040412D01*
X042044Y040356D01*
X042007Y040319D01*
X04195Y0403D01*
X041894D01*
X041838Y040319D01*
X041819Y040337D01*
X041801Y040375D01*
X042413Y040694D02*
X042226Y0403D01*
X042151Y040694D02*
X042413D01*
X05561Y024674D02*
Y02428D01*
Y024674D02*
X055779D01*
X055835Y024655D01*
X055854Y024636D01*
X055872Y024599D01*
Y024561D01*
X055854Y024524D01*
X055835Y024505D01*
X055779Y024486D01*
X05561D01*
X055741D02*
X055872Y02428D01*
X055998Y024674D02*
X056204D01*
X056092Y024524D01*
X056148D01*
X056185Y024505D01*
X056204Y024486D01*
X056223Y02443D01*
Y024392D01*
X056204Y024336D01*
X056167Y024299D01*
X05611Y02428D01*
X056054D01*
X055998Y024299D01*
X055979Y024317D01*
X055961Y024355D01*
X056536Y024617D02*
X056517Y024655D01*
X056461Y024674D01*
X056423D01*
X056367Y024655D01*
X05633Y024599D01*
X056311Y024505D01*
Y024411D01*
X05633Y024336D01*
X056367Y024299D01*
X056423Y02428D01*
X056442D01*
X056498Y024299D01*
X056536Y024336D01*
X056555Y024392D01*
Y024411D01*
X056536Y024467D01*
X056498Y024505D01*
X056442Y024524D01*
X056423D01*
X056367Y024505D01*
X05633Y024467D01*
X056311Y024411D01*
X042206Y041826D02*
X0426D01*
X042206D02*
Y041995D01*
X042225Y042051D01*
X042244Y04207D01*
X042281Y042089D01*
X042319D01*
X042356Y04207D01*
X042375Y042051D01*
X042394Y041995D01*
Y041826D01*
Y041958D02*
X0426Y042089D01*
X042206Y042214D02*
Y04242D01*
X042356Y042308D01*
Y042364D01*
X042375Y042402D01*
X042394Y04242D01*
X04245Y042439D01*
X042488D01*
X042544Y04242D01*
X042581Y042383D01*
X0426Y042327D01*
Y042271D01*
X042581Y042214D01*
X042563Y042196D01*
X042525Y042177D01*
X0423Y042546D02*
X042281D01*
X042244Y042565D01*
X042225Y042584D01*
X042206Y042621D01*
Y042696D01*
X042225Y042733D01*
X042244Y042752D01*
X042281Y042771D01*
X042319D01*
X042356Y042752D01*
X042413Y042715D01*
X0426Y042527D01*
Y04279D01*
X016404Y028253D02*
X016104D01*
X016047Y028271D01*
X016029Y02829D01*
X01601Y028328D01*
Y028365D01*
X016029Y028403D01*
X016047Y028421D01*
X016104Y02844D01*
X016141D01*
X016329Y028151D02*
X016347Y028114D01*
X016404Y028058D01*
X01601D01*
X016404Y027675D02*
X016141Y027863D01*
Y027582D01*
X016404Y027675D02*
X01601D01*
X01556Y034874D02*
Y03448D01*
Y034874D02*
X015691D01*
X015747Y034855D01*
X015785Y034817D01*
X015804Y03478D01*
X015822Y034724D01*
Y03463D01*
X015804Y034574D01*
X015785Y034536D01*
X015747Y034499D01*
X015691Y03448D01*
X01556D01*
X016154Y034742D02*
X016135Y034686D01*
X016098Y034649D01*
X016042Y03463D01*
X016023D01*
X015967Y034649D01*
X015929Y034686D01*
X015911Y034742D01*
Y034761D01*
X015929Y034817D01*
X015967Y034855D01*
X016023Y034874D01*
X016042D01*
X016098Y034855D01*
X016135Y034817D01*
X016154Y034742D01*
Y034649D01*
X016135Y034555D01*
X016098Y034499D01*
X016042Y03448D01*
X016004D01*
X015948Y034499D01*
X015929Y034536D01*
X01987Y032821D02*
X019833Y032802D01*
X019795Y032765D01*
X019776Y032727D01*
Y032652D01*
X019795Y032615D01*
X019833Y032577D01*
X01987Y032559D01*
X019926Y03254D01*
X02002D01*
X020076Y032559D01*
X020114Y032577D01*
X020151Y032615D01*
X02017Y032652D01*
Y032727D01*
X020151Y032765D01*
X020114Y032802D01*
X020076Y032821D01*
X019776Y033157D02*
Y032969D01*
X019945Y03295D01*
X019926Y032969D01*
X019908Y033025D01*
Y033082D01*
X019926Y033138D01*
X019964Y033175D01*
X02002Y033194D01*
X020058D01*
X020114Y033175D01*
X020151Y033138D01*
X02017Y033082D01*
Y033025D01*
X020151Y032969D01*
X020133Y03295D01*
X020095Y032932D01*
X019776Y033507D02*
Y03332D01*
X019945Y033301D01*
X019926Y03332D01*
X019908Y033376D01*
Y033432D01*
X019926Y033488D01*
X019964Y033526D01*
X02002Y033545D01*
X020058D01*
X020114Y033526D01*
X020151Y033488D01*
X02017Y033432D01*
Y033376D01*
X020151Y03332D01*
X020133Y033301D01*
X020095Y033282D01*
X01813Y033214D02*
Y032932D01*
X018149Y032876D01*
X018186Y032839D01*
X018242Y03282D01*
X01828D01*
X018336Y032839D01*
X018374Y032876D01*
X018392Y032932D01*
Y033214D01*
X018501Y033139D02*
X018539Y033157D01*
X018595Y033214D01*
Y03282D01*
X018827Y033214D02*
X019033D01*
X018921Y033064D01*
X018977D01*
X019015Y033045D01*
X019033Y033026D01*
X019052Y03297D01*
Y032932D01*
X019033Y032876D01*
X018996Y032839D01*
X01894Y03282D01*
X018883D01*
X018827Y032839D01*
X018809Y032857D01*
X01879Y032895D01*
X01423Y032584D02*
Y03219D01*
Y032584D02*
X014399D01*
X014455Y032565D01*
X014474Y032546D01*
X014492Y032509D01*
Y032471D01*
X014474Y032434D01*
X014455Y032415D01*
X014399Y032396D01*
X01423D01*
X014361D02*
X014492Y03219D01*
X014805Y032527D02*
X014787Y032565D01*
X01473Y032584D01*
X014693D01*
X014637Y032565D01*
X014599Y032509D01*
X014581Y032415D01*
Y032321D01*
X014599Y032246D01*
X014637Y032209D01*
X014693Y03219D01*
X014712D01*
X014768Y032209D01*
X014805Y032246D01*
X014824Y032302D01*
Y032321D01*
X014805Y032377D01*
X014768Y032415D01*
X014712Y032434D01*
X014693D01*
X014637Y032415D01*
X014599Y032377D01*
X014581Y032321D01*
X01491Y032509D02*
X014948Y032527D01*
X015004Y032584D01*
Y03219D01*
X020596Y03246D02*
X02099D01*
X020596D02*
Y032629D01*
X020615Y032685D01*
X020634Y032704D01*
X020671Y032722D01*
X020709D01*
X020746Y032704D01*
X020765Y032685D01*
X020784Y032629D01*
Y03246D01*
Y032591D02*
X02099Y032722D01*
X020653Y033035D02*
X020615Y033017D01*
X020596Y03296D01*
Y032923D01*
X020615Y032867D01*
X020671Y032829D01*
X020765Y032811D01*
X020859D01*
X020934Y032829D01*
X020971Y032867D01*
X02099Y032923D01*
Y032942D01*
X020971Y032998D01*
X020934Y033035D01*
X020878Y033054D01*
X020859D01*
X020803Y033035D01*
X020765Y032998D01*
X020746Y032942D01*
Y032923D01*
X020765Y032867D01*
X020803Y032829D01*
X020859Y032811D01*
X020596Y033253D02*
X020615Y033197D01*
X020671Y033159D01*
X020765Y03314D01*
X020821D01*
X020915Y033159D01*
X020971Y033197D01*
X02099Y033253D01*
Y03329D01*
X020971Y033347D01*
X020915Y033384D01*
X020821Y033403D01*
X020765D01*
X020671Y033384D01*
X020615Y033347D01*
X020596Y03329D01*
Y033253D01*
X011264Y030383D02*
X010964D01*
X010907Y030401D01*
X010889Y03042D01*
X01087Y030458D01*
Y030495D01*
X010889Y030533D01*
X010907Y030551D01*
X010964Y03057D01*
X011001D01*
X011189Y030281D02*
X011207Y030244D01*
X011264Y030188D01*
X01087D01*
X011264Y029955D02*
Y029749D01*
X011114Y029861D01*
Y029805D01*
X011095Y029768D01*
X011076Y029749D01*
X01102Y02973D01*
X010982D01*
X010926Y029749D01*
X010889Y029787D01*
X01087Y029843D01*
Y029899D01*
X010889Y029955D01*
X010907Y029974D01*
X010945Y029993D01*
X011274Y035493D02*
X010974D01*
X010917Y035511D01*
X010899Y03553D01*
X01088Y035568D01*
Y035605D01*
X010899Y035643D01*
X010917Y035661D01*
X010974Y03568D01*
X011011D01*
X011199Y035391D02*
X011217Y035354D01*
X011274Y035298D01*
X01088D01*
X01118Y035084D02*
X011199D01*
X011236Y035065D01*
X011255Y035046D01*
X011274Y035009D01*
Y034934D01*
X011255Y034897D01*
X011236Y034878D01*
X011199Y034859D01*
X011161D01*
X011124Y034878D01*
X011067Y034915D01*
X01088Y035103D01*
Y03484D01*
X011274Y041543D02*
X010974D01*
X010917Y041561D01*
X010899Y04158D01*
X01088Y041618D01*
Y041655D01*
X010899Y041693D01*
X010917Y041711D01*
X010974Y04173D01*
X011011D01*
X011199Y041441D02*
X011217Y041404D01*
X011274Y041348D01*
X01088D01*
X011199Y041153D02*
X011217Y041115D01*
X011274Y041059D01*
X01088D01*
X015576Y035744D02*
Y03535D01*
Y035744D02*
X015708D01*
X015764Y035725D01*
X015801Y035687D01*
X01582Y03565D01*
X015839Y035594D01*
Y0355D01*
X01582Y035444D01*
X015801Y035406D01*
X015764Y035369D01*
X015708Y03535D01*
X015576D01*
X015927Y035669D02*
X015964Y035687D01*
X016021Y035744D01*
Y03535D01*
X016328Y035744D02*
X016272Y035725D01*
X016234Y035669D01*
X016215Y035575D01*
Y035519D01*
X016234Y035425D01*
X016272Y035369D01*
X016328Y03535D01*
X016365D01*
X016422Y035369D01*
X016459Y035425D01*
X016478Y035519D01*
Y035575D01*
X016459Y035669D01*
X016422Y035725D01*
X016365Y035744D01*
X016328D01*
X026751Y04559D02*
X026732Y045627D01*
X026695Y045665D01*
X026657Y045684D01*
X026582D01*
X026545Y045665D01*
X026507Y045627D01*
X026489Y04559D01*
X02647Y045534D01*
Y04544D01*
X026489Y045384D01*
X026507Y045346D01*
X026545Y045309D01*
X026582Y04529D01*
X026657D01*
X026695Y045309D01*
X026732Y045346D01*
X026751Y045384D01*
X02688Y04559D02*
Y045609D01*
X026899Y045646D01*
X026918Y045665D01*
X026955Y045684D01*
X02703D01*
X027068Y045665D01*
X027087Y045646D01*
X027105Y045609D01*
Y045571D01*
X027087Y045534D01*
X027049Y045477D01*
X026862Y04529D01*
X027124D01*
X02098Y034454D02*
Y034172D01*
X020999Y034116D01*
X021036Y034079D01*
X021092Y03406D01*
X02113D01*
X021186Y034079D01*
X021224Y034116D01*
X021242Y034172D01*
Y034454D01*
X021576D02*
X021389D01*
X02137Y034285D01*
X021389Y034304D01*
X021445Y034322D01*
X021501D01*
X021557Y034304D01*
X021595Y034266D01*
X021614Y03421D01*
Y034172D01*
X021595Y034116D01*
X021557Y034079D01*
X021501Y03406D01*
X021445D01*
X021389Y034079D01*
X02137Y034097D01*
X021351Y034135D01*
X024171Y042324D02*
Y042042D01*
X02419Y041986D01*
X024227Y041949D01*
X024284Y04193D01*
X024321D01*
X024377Y041949D01*
X024415Y041986D01*
X024434Y042042D01*
Y042324D01*
X02473D02*
X024542Y042061D01*
X024823D01*
X02473Y042324D02*
Y04193D01*
X02663Y036974D02*
Y036692D01*
X026649Y036636D01*
X026686Y036599D01*
X026742Y03658D01*
X02678D01*
X026836Y036599D01*
X026874Y036636D01*
X026892Y036692D01*
Y036974D01*
X027039D02*
X027245D01*
X027132Y036824D01*
X027189D01*
X027226Y036805D01*
X027245Y036786D01*
X027264Y03673D01*
Y036692D01*
X027245Y036636D01*
X027207Y036599D01*
X027151Y03658D01*
X027095D01*
X027039Y036599D01*
X02702Y036617D01*
X027001Y036655D01*
X03229Y044471D02*
Y04419D01*
X032309Y044133D01*
X032346Y044096D01*
X032402Y044077D01*
X03244D01*
X032496Y044096D01*
X032534Y044133D01*
X032552Y04419D01*
Y044471D01*
X03268Y044377D02*
Y044396D01*
X032699Y044433D01*
X032717Y044452D01*
X032755Y044471D01*
X03283D01*
X032867Y044452D01*
X032886Y044433D01*
X032905Y044396D01*
Y044358D01*
X032886Y044321D01*
X032849Y044265D01*
X032661Y044077D01*
X032924D01*
X04337Y049414D02*
Y04902D01*
Y049414D02*
X043539D01*
X043595Y049395D01*
X043614Y049376D01*
X043632Y049339D01*
Y049301D01*
X043614Y049264D01*
X043595Y049245D01*
X043539Y049226D01*
X04337D01*
X043501D02*
X043632Y04902D01*
X043721Y049339D02*
X043758Y049357D01*
X043814Y049414D01*
Y04902D01*
X044047Y049414D02*
X044253D01*
X04414Y049264D01*
X044197D01*
X044234Y049245D01*
X044253Y049226D01*
X044272Y04917D01*
Y049132D01*
X044253Y049076D01*
X044215Y049039D01*
X044159Y04902D01*
X044103D01*
X044047Y049039D01*
X044028Y049057D01*
X044009Y049095D01*
X01552Y039424D02*
Y03903D01*
Y039424D02*
X015689D01*
X015745Y039405D01*
X015764Y039386D01*
X015782Y039349D01*
Y039311D01*
X015764Y039274D01*
X015745Y039255D01*
X015689Y039236D01*
X01552D01*
X015651D02*
X015782Y03903D01*
X015871Y039349D02*
X015908Y039367D01*
X015964Y039424D01*
Y03903D01*
X016178Y03933D02*
Y039349D01*
X016197Y039386D01*
X016215Y039405D01*
X016253Y039424D01*
X016328D01*
X016365Y039405D01*
X016384Y039386D01*
X016403Y039349D01*
Y039311D01*
X016384Y039274D01*
X016347Y039217D01*
X016159Y03903D01*
X016422D01*
X02554Y041494D02*
Y0411D01*
Y041494D02*
X025709D01*
X025765Y041475D01*
X025784Y041456D01*
X025802Y041419D01*
Y041381D01*
X025784Y041344D01*
X025765Y041325D01*
X025709Y041306D01*
X02554D01*
X025671D02*
X025802Y0411D01*
X025891Y041419D02*
X025928Y041437D01*
X025984Y041494D01*
Y0411D01*
X026179Y041419D02*
X026217Y041437D01*
X026273Y041494D01*
Y0411D01*
X02534Y040454D02*
Y04006D01*
Y040454D02*
X025509D01*
X025565Y040435D01*
X025584Y040416D01*
X025602Y040379D01*
Y040341D01*
X025584Y040304D01*
X025565Y040285D01*
X025509Y040266D01*
X02534D01*
X025471D02*
X025602Y04006D01*
X025691Y040379D02*
X025728Y040397D01*
X025784Y040454D01*
Y04006D01*
X026092Y040454D02*
X026035Y040435D01*
X025998Y040379D01*
X025979Y040285D01*
Y040229D01*
X025998Y040135D01*
X026035Y040079D01*
X026092Y04006D01*
X026129D01*
X026185Y040079D01*
X026223Y040135D01*
X026242Y040229D01*
Y040285D01*
X026223Y040379D01*
X026185Y040435D01*
X026129Y040454D01*
X026092D01*
X028041Y0399D02*
X028435D01*
X028041D02*
Y040069D01*
X02806Y040125D01*
X028079Y040144D01*
X028116Y040162D01*
X028154D01*
X028191Y040144D01*
X02821Y040125D01*
X028229Y040069D01*
Y0399D01*
Y040031D02*
X028435Y040162D01*
X028041Y040344D02*
X02806Y040288D01*
X028098Y040269D01*
X028135D01*
X028173Y040288D01*
X028191Y040325D01*
X02821Y0404D01*
X028229Y040457D01*
X028266Y040494D01*
X028304Y040513D01*
X02836D01*
X028398Y040494D01*
X028416Y040475D01*
X028435Y040419D01*
Y040344D01*
X028416Y040288D01*
X028398Y040269D01*
X02836Y040251D01*
X028304D01*
X028266Y040269D01*
X028229Y040307D01*
X02821Y040363D01*
X028191Y040438D01*
X028173Y040475D01*
X028135Y040494D01*
X028098D01*
X02806Y040475D01*
X028041Y040419D01*
Y040344D01*
X030726Y03929D02*
X03112D01*
X030726D02*
Y039459D01*
X030745Y039515D01*
X030764Y039534D01*
X030801Y039552D01*
X030839D01*
X030876Y039534D01*
X030895Y039515D01*
X030914Y039459D01*
Y03929D01*
Y039421D02*
X03112Y039552D01*
X030726Y039903D02*
X03112Y039715D01*
X030726Y039641D02*
Y039903D01*
X0283Y043394D02*
Y043D01*
Y043394D02*
X028469D01*
X028525Y043375D01*
X028544Y043356D01*
X028562Y043319D01*
Y043281D01*
X028544Y043244D01*
X028525Y043225D01*
X028469Y043206D01*
X0283D01*
X028431D02*
X028562Y043D01*
X028875Y043394D02*
X028688D01*
X028669Y043225D01*
X028688Y043244D01*
X028744Y043262D01*
X0288D01*
X028857Y043244D01*
X028894Y043206D01*
X028913Y04315D01*
Y043112D01*
X028894Y043056D01*
X028857Y043019D01*
X0288Y043D01*
X028744D01*
X028688Y043019D01*
X028669Y043037D01*
X028651Y043075D01*
X031516Y03929D02*
X03191D01*
X031516D02*
Y039459D01*
X031535Y039515D01*
X031554Y039534D01*
X031591Y039552D01*
X031629D01*
X031666Y039534D01*
X031685Y039515D01*
X031704Y039459D01*
Y03929D01*
Y039421D02*
X03191Y039552D01*
X031516Y039828D02*
X031779Y039641D01*
Y039922D01*
X031516Y039828D02*
X03191D01*
X03319Y043744D02*
Y04335D01*
Y043744D02*
X033359D01*
X033415Y043725D01*
X033434Y043706D01*
X033452Y043669D01*
Y043631D01*
X033434Y043594D01*
X033415Y043575D01*
X033359Y043556D01*
X03319D01*
X033321D02*
X033452Y04335D01*
X033578Y043744D02*
X033784D01*
X033672Y043594D01*
X033728D01*
X033765Y043575D01*
X033784Y043556D01*
X033803Y0435D01*
Y043462D01*
X033784Y043406D01*
X033747Y043369D01*
X03369Y04335D01*
X033634D01*
X033578Y043369D01*
X033559Y043387D01*
X033541Y043425D01*
X032366Y03929D02*
X03276D01*
X032366D02*
Y039459D01*
X032385Y039515D01*
X032404Y039534D01*
X032441Y039552D01*
X032479D01*
X032516Y039534D01*
X032535Y039515D01*
X032554Y039459D01*
Y03929D01*
Y039421D02*
X03276Y039552D01*
X03246Y039659D02*
X032441D01*
X032404Y039678D01*
X032385Y039697D01*
X032366Y039734D01*
Y039809D01*
X032385Y039847D01*
X032404Y039865D01*
X032441Y039884D01*
X032479D01*
X032516Y039865D01*
X032573Y039828D01*
X03276Y039641D01*
Y039903D01*
X026832Y043724D02*
X026795Y043705D01*
X026757Y043667D01*
X026739Y04363D01*
X02672Y043574D01*
Y04348D01*
X026739Y043424D01*
X026757Y043386D01*
X026795Y043349D01*
X026832Y04333D01*
X026907D01*
X026945Y043349D01*
X026982Y043386D01*
X027001Y043424D01*
X02702Y04348D01*
Y043574D01*
X027001Y04363D01*
X026982Y043667D01*
X026945Y043705D01*
X026907Y043724D01*
X026832D01*
X026889Y043405D02*
X027001Y043293D01*
X02713Y04363D02*
Y043649D01*
X027149Y043686D01*
X027168Y043705D01*
X027205Y043724D01*
X02728D01*
X027318Y043705D01*
X027337Y043686D01*
X027355Y043649D01*
Y043611D01*
X027337Y043574D01*
X027299Y043517D01*
X027112Y04333D01*
X027374D01*
X03311Y048155D02*
Y047761D01*
X033335D01*
X033397Y048061D02*
Y04808D01*
X033416Y048118D01*
X033434Y048136D01*
X033472Y048155D01*
X033547D01*
X033584Y048136D01*
X033603Y048118D01*
X033622Y04808D01*
Y048043D01*
X033603Y048005D01*
X033565Y047949D01*
X033378Y047761D01*
X03364D01*
X01699Y048064D02*
Y04767D01*
X017215D01*
X017258Y047989D02*
X017296Y048007D01*
X017352Y048064D01*
Y04767D01*
X01165Y045174D02*
Y04478D01*
Y045174D02*
X011894D01*
X01165Y044986D02*
X0118D01*
X011939Y045099D02*
X011976Y045117D01*
X012032Y045174D01*
Y04478D01*
X04511Y049454D02*
Y04906D01*
Y049454D02*
X045241D01*
X045297Y049435D01*
X045335Y049397D01*
X045354Y04936D01*
X045372Y049304D01*
Y04921D01*
X045354Y049154D01*
X045335Y049116D01*
X045297Y049079D01*
X045241Y04906D01*
X04511D01*
X045685Y049454D02*
X045498D01*
X045479Y049285D01*
X045498Y049304D01*
X045554Y049322D01*
X04561D01*
X045667Y049304D01*
X045704Y049266D01*
X045723Y04921D01*
Y049172D01*
X045704Y049116D01*
X045667Y049079D01*
X04561Y04906D01*
X045554D01*
X045498Y049079D01*
X045479Y049097D01*
X045461Y049135D01*
X018Y037864D02*
Y03747D01*
Y037864D02*
X018131D01*
X018187Y037845D01*
X018225Y037807D01*
X018244Y03777D01*
X018262Y037714D01*
Y03762D01*
X018244Y037564D01*
X018225Y037526D01*
X018187Y037489D01*
X018131Y03747D01*
X018D01*
X018538Y037864D02*
X018351Y037601D01*
X018632D01*
X018538Y037864D02*
Y03747D01*
X02994Y048755D02*
Y048361D01*
Y048755D02*
X030071D01*
X030127Y048736D01*
X030165Y048699D01*
X030184Y048661D01*
X030202Y048605D01*
Y048511D01*
X030184Y048455D01*
X030165Y048417D01*
X030127Y04838D01*
X030071Y048361D01*
X02994D01*
X030328Y048755D02*
X030534D01*
X030422Y048605D01*
X030478D01*
X030515Y048586D01*
X030534Y048567D01*
X030553Y048511D01*
Y048474D01*
X030534Y048417D01*
X030497Y04838D01*
X03044Y048361D01*
X030384D01*
X030328Y04838D01*
X030309Y048399D01*
X030291Y048436D01*
X04418Y046694D02*
Y0463D01*
Y046694D02*
X044311D01*
X044367Y046675D01*
X044405Y046637D01*
X044424Y0466D01*
X044442Y046544D01*
Y04645D01*
X044424Y046394D01*
X044405Y046356D01*
X044367Y046319D01*
X044311Y0463D01*
X04418D01*
X044549Y0466D02*
Y046619D01*
X044568Y046656D01*
X044587Y046675D01*
X044624Y046694D01*
X044699D01*
X044737Y046675D01*
X044755Y046656D01*
X044774Y046619D01*
Y046581D01*
X044755Y046544D01*
X044718Y046487D01*
X044531Y0463D01*
X044793D01*
X01172Y046264D02*
Y04587D01*
Y046264D02*
X011851D01*
X011907Y046245D01*
X011945Y046207D01*
X011964Y04617D01*
X011982Y046114D01*
Y04602D01*
X011964Y045964D01*
X011945Y045926D01*
X011907Y045889D01*
X011851Y04587D01*
X01172D01*
X012071Y046189D02*
X012108Y046207D01*
X012164Y046264D01*
Y04587D01*
X029881Y03969D02*
X029862Y039727D01*
X029825Y039765D01*
X029787Y039784D01*
X029712D01*
X029675Y039765D01*
X029637Y039727D01*
X029619Y03969D01*
X0296Y039634D01*
Y03954D01*
X029619Y039484D01*
X029637Y039446D01*
X029675Y039409D01*
X029712Y03939D01*
X029787D01*
X029825Y039409D01*
X029862Y039446D01*
X029881Y039484D01*
X029992Y039709D02*
X030029Y039727D01*
X030085Y039784D01*
Y03939D01*
X030374Y039784D02*
X030318Y039765D01*
X030299Y039727D01*
Y03969D01*
X030318Y039652D01*
X030355Y039634D01*
X03043Y039615D01*
X030487Y039596D01*
X030524Y039559D01*
X030543Y039521D01*
Y039465D01*
X030524Y039427D01*
X030505Y039409D01*
X030449Y03939D01*
X030374D01*
X030318Y039409D01*
X030299Y039427D01*
X03028Y039465D01*
Y039521D01*
X030299Y039559D01*
X030337Y039596D01*
X030393Y039615D01*
X030468Y039634D01*
X030505Y039652D01*
X030524Y03969D01*
Y039727D01*
X030505Y039765D01*
X030449Y039784D01*
X030374D01*
X025361Y0368D02*
X025342Y036837D01*
X025305Y036875D01*
X025267Y036894D01*
X025192D01*
X025155Y036875D01*
X025117Y036837D01*
X025099Y0368D01*
X02508Y036744D01*
Y03665D01*
X025099Y036594D01*
X025117Y036556D01*
X025155Y036519D01*
X025192Y0365D01*
X025267D01*
X025305Y036519D01*
X025342Y036556D01*
X025361Y036594D01*
X025472Y036819D02*
X025509Y036837D01*
X025565Y036894D01*
Y0365D01*
X026023Y036894D02*
X025835Y0365D01*
X02576Y036894D02*
X026023D01*
X018341Y03443D02*
X018322Y034467D01*
X018285Y034505D01*
X018247Y034524D01*
X018172D01*
X018135Y034505D01*
X018097Y034467D01*
X018079Y03443D01*
X01806Y034374D01*
Y03428D01*
X018079Y034224D01*
X018097Y034186D01*
X018135Y034149D01*
X018172Y03413D01*
X018247D01*
X018285Y034149D01*
X018322Y034186D01*
X018341Y034224D01*
X018452Y034449D02*
X018489Y034467D01*
X018545Y034524D01*
Y03413D01*
X018965Y034467D02*
X018947Y034505D01*
X01889Y034524D01*
X018853D01*
X018797Y034505D01*
X018759Y034449D01*
X01874Y034355D01*
Y034261D01*
X018759Y034186D01*
X018797Y034149D01*
X018853Y03413D01*
X018872D01*
X018928Y034149D01*
X018965Y034186D01*
X018984Y034242D01*
Y034261D01*
X018965Y034317D01*
X018928Y034355D01*
X018872Y034374D01*
X018853D01*
X018797Y034355D01*
X018759Y034317D01*
X01874Y034261D01*
X01758Y036151D02*
X017543Y036132D01*
X017505Y036095D01*
X017486Y036057D01*
Y035982D01*
X017505Y035945D01*
X017543Y035907D01*
X01758Y035889D01*
X017636Y03587D01*
X01773D01*
X017786Y035889D01*
X017824Y035907D01*
X017861Y035945D01*
X01788Y035982D01*
Y036057D01*
X017861Y036095D01*
X017824Y036132D01*
X017786Y036151D01*
X017561Y036262D02*
X017543Y036299D01*
X017486Y036355D01*
X01788D01*
X017486Y036775D02*
Y036588D01*
X017655Y036569D01*
X017636Y036588D01*
X017618Y036644D01*
Y0367D01*
X017636Y036757D01*
X017674Y036794D01*
X01773Y036813D01*
X017768D01*
X017824Y036794D01*
X017861Y036757D01*
X01788Y0367D01*
Y036644D01*
X017861Y036588D01*
X017843Y036569D01*
X017805Y03655D01*
X016991Y04058D02*
X016972Y040617D01*
X016935Y040655D01*
X016897Y040674D01*
X016822D01*
X016785Y040655D01*
X016747Y040617D01*
X016729Y04058D01*
X01671Y040524D01*
Y04043D01*
X016729Y040374D01*
X016747Y040336D01*
X016785Y040299D01*
X016822Y04028D01*
X016897D01*
X016935Y040299D01*
X016972Y040336D01*
X016991Y040374D01*
X017102Y040599D02*
X017139Y040617D01*
X017195Y040674D01*
Y04028D01*
X017578Y040674D02*
X01739Y040411D01*
X017672D01*
X017578Y040674D02*
Y04028D01*
X015857Y04282D02*
X015839Y042857D01*
X015801Y042895D01*
X015764Y042914D01*
X015689D01*
X015651Y042895D01*
X015614Y042857D01*
X015595Y04282D01*
X015576Y042764D01*
Y04267D01*
X015595Y042614D01*
X015614Y042576D01*
X015651Y042539D01*
X015689Y04252D01*
X015764D01*
X015801Y042539D01*
X015839Y042576D01*
X015857Y042614D01*
X015968Y042839D02*
X016006Y042857D01*
X016062Y042914D01*
Y04252D01*
X016294Y042914D02*
X0165D01*
X016388Y042764D01*
X016444D01*
X016482Y042745D01*
X0165Y042726D01*
X016519Y04267D01*
Y042632D01*
X0165Y042576D01*
X016463Y042539D01*
X016407Y04252D01*
X01635D01*
X016294Y042539D01*
X016275Y042557D01*
X016257Y042595D01*
X0353Y041119D02*
X035337Y041138D01*
X035375Y041175D01*
X035394Y041213D01*
Y041288D01*
X035375Y041325D01*
X035337Y041363D01*
X0353Y041381D01*
X035244Y0414D01*
X03515D01*
X035094Y041381D01*
X035056Y041363D01*
X035019Y041325D01*
X035Y041288D01*
Y041213D01*
X035019Y041175D01*
X035056Y041138D01*
X035094Y041119D01*
X035319Y041008D02*
X035337Y040971D01*
X035394Y040915D01*
X035D01*
X0353Y040701D02*
X035319D01*
X035356Y040682D01*
X035375Y040663D01*
X035394Y040626D01*
Y040551D01*
X035375Y040513D01*
X035356Y040495D01*
X035319Y040476D01*
X035281D01*
X035244Y040495D01*
X035187Y040532D01*
X035Y04072D01*
Y040457D01*
X034401Y04372D02*
X034382Y043757D01*
X034345Y043795D01*
X034307Y043814D01*
X034232D01*
X034195Y043795D01*
X034157Y043757D01*
X034139Y04372D01*
X03412Y043664D01*
Y04357D01*
X034139Y043514D01*
X034157Y043476D01*
X034195Y043439D01*
X034232Y04342D01*
X034307D01*
X034345Y043439D01*
X034382Y043476D01*
X034401Y043514D01*
X034512Y043739D02*
X034549Y043757D01*
X034605Y043814D01*
Y04342D01*
X0348Y043739D02*
X034838Y043757D01*
X034894Y043814D01*
Y04342D01*
X02253Y043441D02*
X022493Y043422D01*
X022455Y043385D01*
X022436Y043347D01*
Y043272D01*
X022455Y043235D01*
X022493Y043197D01*
X02253Y043179D01*
X022586Y04316D01*
X02268D01*
X022736Y043179D01*
X022774Y043197D01*
X022811Y043235D01*
X02283Y043272D01*
Y043347D01*
X022811Y043385D01*
X022774Y043422D01*
X022736Y043441D01*
X022511Y043552D02*
X022493Y043589D01*
X022436Y043645D01*
X02283D01*
X022436Y043953D02*
X022455Y043897D01*
X022511Y043859D01*
X022605Y04384D01*
X022661D01*
X022755Y043859D01*
X022811Y043897D01*
X02283Y043953D01*
Y04399D01*
X022811Y044047D01*
X022755Y044084D01*
X022661Y044103D01*
X022605D01*
X022511Y044084D01*
X022455Y044047D01*
X022436Y04399D01*
Y043953D01*
X025511Y04249D02*
X025492Y042527D01*
X025455Y042565D01*
X025417Y042584D01*
X025342D01*
X025305Y042565D01*
X025267Y042527D01*
X025249Y04249D01*
X02523Y042434D01*
Y04234D01*
X025249Y042284D01*
X025267Y042246D01*
X025305Y042209D01*
X025342Y04219D01*
X025417D01*
X025455Y042209D01*
X025492Y042246D01*
X025511Y042284D01*
X025865Y042452D02*
X025847Y042396D01*
X025809Y042359D01*
X025753Y04234D01*
X025734D01*
X025678Y042359D01*
X02564Y042396D01*
X025622Y042452D01*
Y042471D01*
X02564Y042527D01*
X025678Y042565D01*
X025734Y042584D01*
X025753D01*
X025809Y042565D01*
X025847Y042527D01*
X025865Y042452D01*
Y042359D01*
X025847Y042265D01*
X025809Y042209D01*
X025753Y04219D01*
X025715D01*
X025659Y042209D01*
X02564Y042246D01*
X040721Y04655D02*
X040702Y046587D01*
X040665Y046625D01*
X040627Y046644D01*
X040552D01*
X040515Y046625D01*
X040477Y046587D01*
X040459Y04655D01*
X04044Y046494D01*
Y0464D01*
X040459Y046344D01*
X040477Y046306D01*
X040515Y046269D01*
X040552Y04625D01*
X040627D01*
X040665Y046269D01*
X040702Y046306D01*
X040721Y046344D01*
X041057Y046587D02*
X041038Y046625D01*
X040982Y046644D01*
X040944D01*
X040888Y046625D01*
X04085Y046569D01*
X040832Y046475D01*
Y046381D01*
X04085Y046306D01*
X040888Y046269D01*
X040944Y04625D01*
X040963D01*
X041019Y046269D01*
X041057Y046306D01*
X041075Y046362D01*
Y046381D01*
X041057Y046437D01*
X041019Y046475D01*
X040963Y046494D01*
X040944D01*
X040888Y046475D01*
X04085Y046437D01*
X040832Y046381D01*
X042061Y04659D02*
X042042Y046627D01*
X042005Y046665D01*
X041967Y046684D01*
X041892D01*
X041855Y046665D01*
X041817Y046627D01*
X041799Y04659D01*
X04178Y046534D01*
Y04644D01*
X041799Y046384D01*
X041817Y046346D01*
X041855Y046309D01*
X041892Y04629D01*
X041967D01*
X042005Y046309D01*
X042042Y046346D01*
X042061Y046384D01*
X042397Y046684D02*
X042209D01*
X04219Y046515D01*
X042209Y046534D01*
X042265Y046552D01*
X042322D01*
X042378Y046534D01*
X042415Y046496D01*
X042434Y04644D01*
Y046402D01*
X042415Y046346D01*
X042378Y046309D01*
X042322Y04629D01*
X042265D01*
X042209Y046309D01*
X04219Y046327D01*
X042172Y046365D01*
X029921Y04504D02*
X029902Y045077D01*
X029865Y045115D01*
X029827Y045134D01*
X029752D01*
X029715Y045115D01*
X029677Y045077D01*
X029659Y04504D01*
X02964Y044984D01*
Y04489D01*
X029659Y044834D01*
X029677Y044796D01*
X029715Y044759D01*
X029752Y04474D01*
X029827D01*
X029865Y044759D01*
X029902Y044796D01*
X029921Y044834D01*
X030219Y045134D02*
X030032Y044871D01*
X030313D01*
X030219Y045134D02*
Y04474D01*
X01579Y043831D02*
X015753Y043812D01*
X015715Y043775D01*
X015696Y043737D01*
Y043662D01*
X015715Y043625D01*
X015753Y043587D01*
X01579Y043569D01*
X015846Y04355D01*
X01594D01*
X015996Y043569D01*
X016034Y043587D01*
X016071Y043625D01*
X01609Y043662D01*
Y043737D01*
X016071Y043775D01*
X016034Y043812D01*
X015996Y043831D01*
X015696Y043979D02*
Y044185D01*
X015846Y044073D01*
Y044129D01*
X015865Y044167D01*
X015884Y044185D01*
X01594Y044204D01*
X015978D01*
X016034Y044185D01*
X016071Y044148D01*
X01609Y044092D01*
Y044035D01*
X016071Y043979D01*
X016053Y04396D01*
X016015Y043942D01*
X023171Y04559D02*
X023152Y045627D01*
X023115Y045665D01*
X023077Y045684D01*
X023002D01*
X022965Y045665D01*
X022927Y045627D01*
X022909Y04559D01*
X02289Y045534D01*
Y04544D01*
X022909Y045384D01*
X022927Y045346D01*
X022965Y045309D01*
X023002Y04529D01*
X023077D01*
X023115Y045309D01*
X023152Y045346D01*
X023171Y045384D01*
X023282Y045609D02*
X023319Y045627D01*
X023375Y045684D01*
Y04529D01*
D21*
X02946Y02323D02*
Y02353D01*
X02906Y02323D02*
Y02353D01*
X02951Y02283D02*
Y02393D01*
X02901Y02283D02*
X02951D01*
X02901D02*
Y02303D01*
Y02393D01*
X02951D01*
X03005Y02323D02*
Y02353D01*
X02965Y02323D02*
Y02353D01*
X0301Y02283D02*
Y02393D01*
X0296Y02283D02*
X0301D01*
X0296D02*
Y02303D01*
Y02393D01*
X0301D01*
X03023Y02323D02*
Y02353D01*
X03063Y02323D02*
Y02353D01*
X03018Y02283D02*
Y02393D01*
X03068D01*
Y02373D02*
Y02393D01*
Y02283D02*
Y02373D01*
X03018Y02283D02*
X03068D01*
X03122Y02323D02*
Y02353D01*
X03082Y02323D02*
Y02353D01*
X03127Y02283D02*
Y02393D01*
X03077Y02283D02*
X03127D01*
X03077D02*
Y02303D01*
Y02393D01*
X03127D01*
X02455Y020984D02*
X02581D01*
X02455Y019134D02*
Y020984D01*
Y019134D02*
X02581D01*
Y020984D01*
X02718Y02022D02*
Y022024D01*
X02592Y02022D02*
X02718D01*
X02592D02*
Y022024D01*
X02718D01*
D22*
X02308Y020861D02*
X02468D01*
X02483D02*
Y022519D01*
X02283D02*
X02483D01*
X02283Y020861D02*
Y022519D01*
Y020861D02*
X02483D01*
X02329Y02049D02*
X02363D01*
X02329Y01999D02*
X02363D01*
X05531Y04022D02*
X05565D01*
X05531Y04072D02*
X05565D01*
X03777Y02313D02*
Y02347D01*
X03827Y02313D02*
Y02347D01*
X03517Y02308D02*
Y02342D01*
X03567Y02308D02*
Y02342D01*
X03417Y02308D02*
Y02342D01*
X03467Y02308D02*
Y02342D01*
X03662Y04325D02*
X03696D01*
X03662Y04275D02*
X03696D01*
X0315Y04062D02*
Y04096D01*
X032Y04062D02*
Y04096D01*
X03117Y04062D02*
Y04096D01*
X03067Y04062D02*
Y04096D01*
X0161Y03793D02*
Y03827D01*
X0156Y03793D02*
Y03827D01*
X016596Y037299D02*
Y037349D01*
Y037299D02*
X017496D01*
Y037349D01*
X016596Y037949D02*
Y037999D01*
X017496D01*
Y037949D02*
Y037999D01*
X05251Y03547D02*
X05285D01*
X05251Y03597D02*
X05285D01*
X04582Y022456D02*
X04616D01*
X04582Y021956D02*
X04616D01*
X05019Y022456D02*
X05053D01*
X05019Y021956D02*
X05053D01*
X054535Y022456D02*
X054875D01*
X054535Y021956D02*
X054875D01*
X04363Y04885D02*
X04397D01*
X04363Y04835D02*
X04397D01*
X04585Y0489D02*
Y04895D01*
X04495D02*
X04585D01*
X04495Y0489D02*
Y04895D01*
X04585Y04825D02*
Y0483D01*
X04495Y04825D02*
X04585D01*
X04495D02*
Y0483D01*
X04493Y031174D02*
X04527D01*
X04493Y030674D02*
X04527D01*
X046482Y030384D02*
Y030724D01*
X045982Y030384D02*
Y030724D01*
X046482Y02883D02*
Y02917D01*
X045982Y02883D02*
Y02917D01*
X05463Y02425D02*
X05497D01*
X05463Y02475D02*
X05497D01*
X055256Y02405D02*
Y0241D01*
X054356D02*
X055256D01*
X054356Y02405D02*
Y0241D01*
X055256Y0234D02*
Y02345D01*
X054356Y0234D02*
X055256D01*
X054356D02*
Y02345D01*
X05175Y02393D02*
Y02427D01*
X05225Y02393D02*
Y02427D01*
X05145Y02393D02*
Y02427D01*
X05095Y02393D02*
Y02427D01*
X04805Y02383D02*
Y02417D01*
X04855Y02383D02*
Y02417D01*
X04775Y02383D02*
Y02417D01*
X04725Y02383D02*
Y02417D01*
X058Y0453D02*
Y04535D01*
Y0453D02*
X0589D01*
Y04535D01*
X058Y04595D02*
Y046D01*
X0589D01*
Y04595D02*
Y046D01*
Y0468D02*
Y04685D01*
X058D02*
X0589D01*
X058Y0468D02*
Y04685D01*
X0589Y04615D02*
Y0462D01*
X058Y04615D02*
X0589D01*
X058D02*
Y0462D01*
Y04705D02*
Y0471D01*
Y04705D02*
X0589D01*
Y0471D01*
X058Y0477D02*
Y04775D01*
X0589D01*
Y0477D02*
Y04775D01*
X05673Y0454D02*
X05707D01*
X05673Y0459D02*
X05707D01*
X05673Y04625D02*
X05707D01*
X05673Y04675D02*
X05707D01*
X05673Y04715D02*
X05707D01*
X05673Y04765D02*
X05707D01*
X0283Y04193D02*
Y04227D01*
X0288Y04193D02*
Y04227D01*
X0286Y04043D02*
Y04077D01*
X0291Y04043D02*
Y04077D01*
X01459Y03117D02*
Y03151D01*
X01509Y03117D02*
Y03151D01*
X02132Y01954D02*
X02166D01*
X02132Y02004D02*
X02166D01*
X01965Y020045D02*
X01999D01*
X01965Y019545D02*
X01999D01*
X017246Y0202D02*
Y02054D01*
X017746Y0202D02*
Y02054D01*
X01612Y02108D02*
X01646D01*
X01612Y02058D02*
X01646D01*
X01612Y02016D02*
X01646D01*
X01612Y01966D02*
X01646D01*
X0177Y029316D02*
Y029656D01*
X0182Y029316D02*
Y029656D01*
X01686Y029316D02*
Y029656D01*
X01736Y029316D02*
Y029656D01*
X02105Y03138D02*
Y03172D01*
X02055Y03138D02*
Y03172D01*
X03324Y04218D02*
Y04252D01*
X03374Y04218D02*
Y04252D01*
X03285Y04063D02*
Y04097D01*
X03235Y04063D02*
Y04097D01*
X02708Y04D02*
X02742D01*
X02708Y0405D02*
X02742D01*
X02711Y04104D02*
X02745D01*
X02711Y04154D02*
X02745D01*
D23*
X03624Y02266D02*
Y02301D01*
Y02266D02*
X03627D01*
X03695D01*
X03717Y02309D02*
Y02342D01*
X03624Y02383D02*
X03694D01*
X03624Y02355D02*
Y02383D01*
X03335Y02309D02*
Y02342D01*
X03252Y02269D02*
Y02305D01*
Y02269D02*
X03318D01*
X03252Y02385D02*
X03318D01*
X03252Y02347D02*
Y02385D01*
X021131Y020215D02*
Y022185D01*
X020049Y020215D02*
X021131D01*
X020049D02*
Y022185D01*
X0377Y02534D02*
Y02631D01*
Y02534D02*
X04158D01*
Y02631D01*
X0377D02*
X04158D01*
X045472Y043897D02*
Y044251D01*
X044803D02*
X045472D01*
Y043149D02*
Y043503D01*
X044803Y043149D02*
X045472D01*
X044488Y043543D02*
Y043857D01*
X045472Y042597D02*
Y042951D01*
X044803D02*
X045472D01*
Y041849D02*
Y042203D01*
X044803Y041849D02*
X045472D01*
X044488Y042243D02*
Y042557D01*
X044428Y029249D02*
Y029603D01*
Y029249D02*
X045097D01*
X044428Y029997D02*
Y030351D01*
X045097D01*
X045412Y029643D02*
Y029957D01*
X053672Y024197D02*
Y024551D01*
X053003D02*
X053672D01*
Y023449D02*
Y023803D01*
X053003Y023449D02*
X053672D01*
X052688Y023843D02*
Y024157D01*
X049972Y024197D02*
Y024551D01*
X049303D02*
X049972D01*
Y023449D02*
Y023803D01*
X049303Y023449D02*
X049972D01*
X048988Y023843D02*
Y024157D01*
X026819Y043012D02*
X027173D01*
X026819Y042343D02*
Y043012D01*
X027567D02*
X027921D01*
Y042343D02*
Y043012D01*
X027213Y042028D02*
X027527D01*
D24*
X020946Y034581D02*
X021202D01*
X020946D02*
Y037219D01*
X021202D01*
D25*
X048834Y038343D02*
X048759Y038418D01*
X048646Y038455D01*
X048496D01*
X048384Y038418D01*
X048309Y038343D01*
Y038268D01*
X048346Y038193D01*
X048384Y038155D01*
X048459Y038118D01*
X048684Y038043D01*
X048759Y038005D01*
X048796Y037968D01*
X048834Y037893D01*
Y037781D01*
X048759Y037706D01*
X048646Y037668D01*
X048496D01*
X048384Y037706D01*
X048309Y037781D01*
X04901Y038455D02*
Y037668D01*
X049175Y038455D02*
Y037668D01*
Y038455D02*
X049475Y037668D01*
X049774Y038455D02*
X049475Y037668D01*
X049774Y038455D02*
Y037668D01*
X050187Y038455D02*
X050074Y038418D01*
X050037Y038343D01*
Y038268D01*
X050074Y038193D01*
X050149Y038155D01*
X050299Y038118D01*
X050412Y03808D01*
X050487Y038005D01*
X050524Y037931D01*
Y037818D01*
X050487Y037743D01*
X050449Y037706D01*
X050337Y037668D01*
X050187D01*
X050074Y037706D01*
X050037Y037743D01*
X049999Y037818D01*
Y037931D01*
X050037Y038005D01*
X050112Y03808D01*
X050224Y038118D01*
X050374Y038155D01*
X050449Y038193D01*
X050487Y038268D01*
Y038343D01*
X050449Y038418D01*
X050337Y038455D01*
X050187D01*
X050925D02*
X050813Y038418D01*
X050738Y038305D01*
X0507Y038118D01*
Y038005D01*
X050738Y037818D01*
X050813Y037706D01*
X050925Y037668D01*
X051D01*
X051113Y037706D01*
X051188Y037818D01*
X051225Y038005D01*
Y038118D01*
X051188Y038305D01*
X051113Y038418D01*
X051Y038455D01*
X050925D01*
X051626D02*
X051514Y038418D01*
X051439Y038305D01*
X051401Y038118D01*
Y038005D01*
X051439Y037818D01*
X051514Y037706D01*
X051626Y037668D01*
X051701D01*
X051814Y037706D01*
X051889Y037818D01*
X051926Y038005D01*
Y038118D01*
X051889Y038305D01*
X051814Y038418D01*
X051701Y038455D01*
X051626D01*
X052665Y038268D02*
X052627Y038343D01*
X052552Y038418D01*
X052477Y038455D01*
X052327D01*
X052252Y038418D01*
X052177Y038343D01*
X05214Y038268D01*
X052102Y038155D01*
Y037968D01*
X05214Y037856D01*
X052177Y037781D01*
X052252Y037706D01*
X052327Y037668D01*
X052477D01*
X052552Y037706D01*
X052627Y037781D01*
X052665Y037856D01*
X05699Y02835D02*
X056765Y02894D01*
X05654Y02835D01*
X056624Y028547D02*
X056905D01*
X057128Y02894D02*
Y02835D01*
Y02894D02*
X057521Y02835D01*
Y02894D02*
Y02835D01*
X057881Y02894D02*
Y02835D01*
X057684Y02894D02*
X058078D01*
X058514D02*
X058148D01*
Y02835D01*
X058514D01*
X058148Y028659D02*
X058373D01*
X058612Y02894D02*
Y02835D01*
Y02894D02*
X059006Y02835D01*
Y02894D02*
Y02835D01*
X060054Y0288D02*
X060026Y028856D01*
X05997Y028912D01*
X059914Y02894D01*
X059801D01*
X059745Y028912D01*
X059689Y028856D01*
X059661Y0288D01*
X059633Y028716D01*
Y028575D01*
X059661Y028491D01*
X059689Y028434D01*
X059745Y028378D01*
X059801Y02835D01*
X059914D01*
X05997Y028378D01*
X060026Y028434D01*
X060054Y028491D01*
Y028575D01*
X059914D02*
X060054D01*
X060189Y028631D02*
X060442D01*
X060527Y028659D01*
X060555Y028687D01*
X060583Y028744D01*
Y028828D01*
X060555Y028884D01*
X060527Y028912D01*
X060442Y02894D01*
X060189D01*
Y02835D01*
X061109Y028856D02*
X061053Y028912D01*
X060968Y02894D01*
X060856D01*
X060771Y028912D01*
X060715Y028856D01*
Y0288D01*
X060743Y028744D01*
X060771Y028716D01*
X060828Y028687D01*
X060996Y028631D01*
X061053Y028603D01*
X061081Y028575D01*
X061109Y028519D01*
Y028434D01*
X061053Y028378D01*
X060968Y02835D01*
X060856D01*
X060771Y028378D01*
X060715Y028434D01*
X0569Y04447D02*
X056675Y04506D01*
X05645Y04447D01*
X056534Y044667D02*
X056816D01*
X057038Y04506D02*
Y04447D01*
Y04506D02*
X057431Y04447D01*
Y04506D02*
Y04447D01*
X057791Y04506D02*
Y04447D01*
X057594Y04506D02*
X057988D01*
X058424D02*
X058058D01*
Y04447D01*
X058424D01*
X058058Y044779D02*
X058283D01*
X058522Y04506D02*
Y04447D01*
Y04506D02*
X058916Y04447D01*
Y04506D02*
Y04447D01*
X059964Y04492D02*
X059936Y044976D01*
X05988Y045032D01*
X059824Y04506D01*
X059711D01*
X059655Y045032D01*
X059599Y044976D01*
X059571Y04492D01*
X059543Y044836D01*
Y044695D01*
X059571Y044611D01*
X059599Y044554D01*
X059655Y044498D01*
X059711Y04447D01*
X059824D01*
X05988Y044498D01*
X059936Y044554D01*
X059964Y044611D01*
Y044695D01*
X059824D02*
X059964D01*
X060493Y044976D02*
X060437Y045032D01*
X060352Y04506D01*
X06024D01*
X060156Y045032D01*
X060099Y044976D01*
Y04492D01*
X060128Y044864D01*
X060156Y044836D01*
X060212Y044807D01*
X060381Y044751D01*
X060437Y044723D01*
X060465Y044695D01*
X060493Y044639D01*
Y044554D01*
X060437Y044498D01*
X060352Y04447D01*
X06024D01*
X060156Y044498D01*
X060099Y044554D01*
X060625Y04506D02*
Y04447D01*
Y04506D02*
X06085Y04447D01*
X061075Y04506D02*
X06085Y04447D01*
X061075Y04506D02*
Y04447D01*
D26*
X052469Y041825D02*
D03*
D27*
X0378Y0416D02*
D03*
M02*
