G04*
G04 #@! TF.GenerationSoftware,Altium Limited,Altium Designer,18.1.6 (161)*
G04*
G04 Layer_Color=16711935*
%FSTAX24Y24*%
%MOIN*%
G70*
G01*
G75*
%ADD89R,0.0630X0.0474*%
%ADD124O,0.0730X0.0830*%
%ADD125C,0.0730*%
%ADD126O,0.0867X0.0671*%
%ADD127R,0.0671X0.0789*%
%ADD128O,0.0671X0.0789*%
%ADD129C,0.1182*%
%ADD130C,0.0867*%
%ADD131C,0.0395*%
%ADD132C,0.0680*%
%ADD133R,0.1080X0.0780*%
%ADD134O,0.1080X0.0780*%
%ADD135R,0.1080X0.1080*%
%ADD136C,0.1080*%
%ADD137C,0.0780*%
%ADD138C,0.0880*%
%ADD139C,0.0789*%
%ADD140R,0.0789X0.0789*%
%ADD141R,0.1261X0.1261*%
%ADD142C,0.1261*%
%ADD143O,0.0980X0.0680*%
%ADD144R,0.0980X0.0680*%
%ADD145R,0.0780X0.0780*%
%ADD146R,0.0980X0.0830*%
%ADD147O,0.0980X0.0830*%
%ADD148C,0.0710*%
%ADD149R,0.0780X0.0780*%
%ADD150C,0.0316*%
%ADD151C,0.0356*%
%ADD152C,0.1655*%
%ADD153C,0.0552*%
%ADD154C,0.0592*%
%ADD155C,0.0671*%
%ADD201R,0.0986X0.0395*%
%ADD202R,0.1261X0.0789*%
D89*
X01626Y0254D02*
D03*
Y0263D02*
D03*
X01351Y02535D02*
D03*
Y02625D02*
D03*
D124*
X0411Y02581D02*
D03*
X04009D02*
D03*
X03911D02*
D03*
X0381D02*
D03*
X03941Y0214D02*
D03*
X04042D02*
D03*
X0414D02*
D03*
X0409Y04415D02*
D03*
X03989D02*
D03*
D125*
X05734Y021D02*
D03*
X05459D02*
D03*
X05686Y01997D02*
D03*
X05512D02*
D03*
X0486Y02101D02*
D03*
X04585D02*
D03*
X04812Y01998D02*
D03*
X04638D02*
D03*
X052986Y021D02*
D03*
X050236D02*
D03*
X052506Y01997D02*
D03*
X050766D02*
D03*
D126*
X03959Y04626D02*
D03*
X01928Y03791D02*
D03*
X04617Y04631D02*
D03*
D127*
X0208Y02351D02*
D03*
D128*
X0218D02*
D03*
X0228D02*
D03*
X0238D02*
D03*
X0248D02*
D03*
X0258D02*
D03*
X0268D02*
D03*
X0278D02*
D03*
D129*
X0605Y027337D02*
D03*
Y025337D02*
D03*
X0585D02*
D03*
Y027337D02*
D03*
X0605Y0432D02*
D03*
Y0412D02*
D03*
X0585D02*
D03*
Y0432D02*
D03*
D130*
X0595Y026337D02*
D03*
Y0422D02*
D03*
D131*
X0308Y043337D02*
D03*
Y042944D02*
D03*
Y04255D02*
D03*
X031194D02*
D03*
Y042944D02*
D03*
Y043337D02*
D03*
X055906Y044095D02*
D03*
X055118D02*
D03*
X054331D02*
D03*
X053543D02*
D03*
X061024Y027953D02*
D03*
X061221Y026772D02*
D03*
X061024Y026378D02*
D03*
X061221Y025984D02*
D03*
X06063Y026378D02*
D03*
X059843Y027953D02*
D03*
Y024803D02*
D03*
X059449Y027953D02*
D03*
X059646Y027559D02*
D03*
X059449Y027165D02*
D03*
X059646Y025197D02*
D03*
X059449Y024803D02*
D03*
X059055Y027953D02*
D03*
X059252Y027559D02*
D03*
Y025197D02*
D03*
X059055Y024803D02*
D03*
X060236Y048425D02*
D03*
X059941Y049016D02*
D03*
X059646Y048425D02*
D03*
X05935Y049016D02*
D03*
X059055Y048425D02*
D03*
X05876Y049016D02*
D03*
X058465Y048425D02*
D03*
X058169Y049016D02*
D03*
X057874Y048425D02*
D03*
X057579Y049016D02*
D03*
X057283Y048425D02*
D03*
X056988Y049016D02*
D03*
X056398D02*
D03*
X054035D02*
D03*
X051378Y048425D02*
D03*
X051083Y049016D02*
D03*
X049902D02*
D03*
X049606Y048425D02*
D03*
X049311Y049016D02*
D03*
X049016Y048425D02*
D03*
X04872Y049016D02*
D03*
X048425Y048425D02*
D03*
X04813Y049016D02*
D03*
X046949D02*
D03*
X046654Y048425D02*
D03*
X042815Y049016D02*
D03*
X039862D02*
D03*
X039567Y048425D02*
D03*
X039272Y049016D02*
D03*
X038976Y048425D02*
D03*
X038681Y049016D02*
D03*
X038386Y048425D02*
D03*
X038091Y049016D02*
D03*
X037795Y048425D02*
D03*
X0375Y049016D02*
D03*
X037205Y048425D02*
D03*
X036909Y049016D02*
D03*
X036614Y048425D02*
D03*
X036319Y049016D02*
D03*
X036024Y048425D02*
D03*
X035728Y049016D02*
D03*
X035433Y048425D02*
D03*
X035138Y049016D02*
D03*
X034843Y048425D02*
D03*
X034547Y049016D02*
D03*
X034252Y048425D02*
D03*
X033957Y049016D02*
D03*
X033661Y048425D02*
D03*
X033366Y049016D02*
D03*
X033071Y048425D02*
D03*
X032776Y049016D02*
D03*
X03248Y048425D02*
D03*
X032185Y049016D02*
D03*
X031594D02*
D03*
X031004D02*
D03*
X030413D02*
D03*
X030118Y048425D02*
D03*
X029823Y049016D02*
D03*
X029528Y048425D02*
D03*
X029232Y049016D02*
D03*
X028937Y048425D02*
D03*
X028642Y049016D02*
D03*
X028051D02*
D03*
X027461D02*
D03*
X027165Y048425D02*
D03*
X02687Y049016D02*
D03*
X026575Y048425D02*
D03*
X02628Y049016D02*
D03*
X025984Y048425D02*
D03*
X025689Y049016D02*
D03*
X025394Y048425D02*
D03*
X025098Y049016D02*
D03*
X024508D02*
D03*
X023917D02*
D03*
X023622Y048425D02*
D03*
X023327Y049016D02*
D03*
X023031Y048425D02*
D03*
X022736Y049016D02*
D03*
X022146D02*
D03*
X021555D02*
D03*
X020965D02*
D03*
X020374D02*
D03*
X019783D02*
D03*
X019193D02*
D03*
X018602D02*
D03*
X018012D02*
D03*
X017421D02*
D03*
X016831D02*
D03*
X01624D02*
D03*
X01565D02*
D03*
X015059D02*
D03*
X014468D02*
D03*
X014173Y048425D02*
D03*
X013878Y049016D02*
D03*
X013583Y048425D02*
D03*
X013287Y049016D02*
D03*
X012992Y048425D02*
D03*
X026378Y043307D02*
D03*
X025984Y04252D02*
D03*
Y040945D02*
D03*
Y03937D02*
D03*
X025197Y04252D02*
D03*
X025591Y041732D02*
D03*
X025197Y040945D02*
D03*
X025591Y040157D02*
D03*
X025197Y03937D02*
D03*
X024409Y04252D02*
D03*
Y03622D02*
D03*
Y034646D02*
D03*
X023622Y04252D02*
D03*
X022835D02*
D03*
X022441Y043307D02*
D03*
X022047Y04252D02*
D03*
X02126D02*
D03*
X014173Y024409D02*
D03*
X013386Y022835D02*
D03*
X012992Y023622D02*
D03*
X012598Y022835D02*
D03*
X012205Y023622D02*
D03*
Y022047D02*
D03*
Y020472D02*
D03*
X061024Y023622D02*
D03*
X06063Y022835D02*
D03*
X061024Y022047D02*
D03*
X06063Y02126D02*
D03*
X060236Y023622D02*
D03*
X059843Y022835D02*
D03*
X060236Y022047D02*
D03*
X059843Y02126D02*
D03*
X060236Y020472D02*
D03*
X059843Y019685D02*
D03*
X059449Y023622D02*
D03*
X059055Y022835D02*
D03*
X059449Y022047D02*
D03*
X059055Y02126D02*
D03*
X059449Y020472D02*
D03*
X059055Y019685D02*
D03*
X058661Y023622D02*
D03*
X058268Y022835D02*
D03*
X058661Y022047D02*
D03*
X058268Y02126D02*
D03*
X058661Y020472D02*
D03*
X058268Y019685D02*
D03*
X057874Y023622D02*
D03*
X05748Y022835D02*
D03*
X057874Y022047D02*
D03*
Y020472D02*
D03*
X055906Y029921D02*
D03*
X055118D02*
D03*
X054331D02*
D03*
X051969D02*
D03*
Y028346D02*
D03*
Y026772D02*
D03*
X051181Y029921D02*
D03*
X051575Y029134D02*
D03*
X051181Y028346D02*
D03*
X051575Y027559D02*
D03*
X051181Y026772D02*
D03*
X051575Y025984D02*
D03*
X050394Y029921D02*
D03*
X050787Y029134D02*
D03*
X044095Y038583D02*
D03*
X043307D02*
D03*
X04252D02*
D03*
X041732D02*
D03*
X047244Y032283D02*
D03*
X04685Y03622D02*
D03*
Y033071D02*
D03*
X046063Y03622D02*
D03*
Y033071D02*
D03*
X045276Y03622D02*
D03*
X044882Y033858D02*
D03*
X044095D02*
D03*
X052756Y041732D02*
D03*
Y038583D02*
D03*
X052362Y04252D02*
D03*
X051969Y041732D02*
D03*
X052362Y03937D02*
D03*
X051969Y038583D02*
D03*
X051575Y04252D02*
D03*
X051181Y041732D02*
D03*
X051575Y03937D02*
D03*
X050787Y04252D02*
D03*
X050394Y041732D02*
D03*
X049606D02*
D03*
X048819D02*
D03*
X057087Y03937D02*
D03*
Y034646D02*
D03*
X056693Y033858D02*
D03*
X056299Y03937D02*
D03*
X055906Y038583D02*
D03*
X056299Y037795D02*
D03*
X055906Y037008D02*
D03*
X056299Y03622D02*
D03*
X055906Y035433D02*
D03*
X056299Y034646D02*
D03*
X055906Y033858D02*
D03*
X056299Y033071D02*
D03*
X055906Y032283D02*
D03*
X055512Y03937D02*
D03*
Y037795D02*
D03*
Y03622D02*
D03*
Y034646D02*
D03*
Y033071D02*
D03*
X055118Y032283D02*
D03*
X054724Y033071D02*
D03*
X054331Y032283D02*
D03*
X053937Y034646D02*
D03*
Y033071D02*
D03*
X053543Y032283D02*
D03*
X05315Y033071D02*
D03*
X052756Y032283D02*
D03*
X06063Y03937D02*
D03*
X061024Y038583D02*
D03*
X06063Y037795D02*
D03*
X061024Y037008D02*
D03*
X06063Y03622D02*
D03*
X061024Y035433D02*
D03*
X06063Y034646D02*
D03*
X061024Y033858D02*
D03*
X06063Y033071D02*
D03*
X061024Y032283D02*
D03*
X06063Y031496D02*
D03*
X061024Y030709D02*
D03*
X06063Y029921D02*
D03*
X059843Y03937D02*
D03*
X060236Y038583D02*
D03*
X059843Y037795D02*
D03*
X060236Y037008D02*
D03*
X059843Y03622D02*
D03*
X060236Y035433D02*
D03*
X059843Y034646D02*
D03*
X060236Y033858D02*
D03*
X059843Y033071D02*
D03*
X060236Y032283D02*
D03*
X059843Y031496D02*
D03*
X060236Y030709D02*
D03*
X059843Y029921D02*
D03*
X060906Y044016D02*
D03*
Y04248D02*
D03*
Y041968D02*
D03*
Y040433D02*
D03*
X060394Y044016D02*
D03*
Y041968D02*
D03*
Y040433D02*
D03*
X059882Y044016D02*
D03*
Y040433D02*
D03*
X05937Y044016D02*
D03*
Y043504D02*
D03*
Y040945D02*
D03*
Y040433D02*
D03*
X058858Y044016D02*
D03*
Y040433D02*
D03*
X058346Y044016D02*
D03*
Y040433D02*
D03*
X057835Y044016D02*
D03*
Y040433D02*
D03*
X057323Y044016D02*
D03*
Y043504D02*
D03*
Y042992D02*
D03*
Y041457D02*
D03*
Y040945D02*
D03*
X056811Y043504D02*
D03*
Y042992D02*
D03*
Y041457D02*
D03*
X054764Y042992D02*
D03*
Y041457D02*
D03*
X054252Y042992D02*
D03*
Y041457D02*
D03*
X037008Y020472D02*
D03*
X03622D02*
D03*
X035433D02*
D03*
X034646D02*
D03*
X033858D02*
D03*
X040945Y028346D02*
D03*
Y026772D02*
D03*
X040551Y029134D02*
D03*
X040157Y028346D02*
D03*
X040551Y027559D02*
D03*
X039764Y029134D02*
D03*
X041339Y023622D02*
D03*
X040945Y022835D02*
D03*
X06063Y047244D02*
D03*
X061024Y046457D02*
D03*
X06063Y045669D02*
D03*
X017717Y047244D02*
D03*
X016929D02*
D03*
X026772Y046457D02*
D03*
X025984D02*
D03*
X025197D02*
D03*
X023622D02*
D03*
X022835D02*
D03*
X022047D02*
D03*
X020472D02*
D03*
X01944Y0301D02*
D03*
X01743Y03495D02*
D03*
X03445Y04035D02*
D03*
D132*
X03003Y033889D02*
D03*
X02903D02*
D03*
D133*
X0281Y04645D02*
D03*
X02445D02*
D03*
D134*
X0281Y04795D02*
D03*
X02445D02*
D03*
D135*
X018588Y043603D02*
D03*
D136*
X021344D02*
D03*
Y046752D02*
D03*
X018588D02*
D03*
D137*
X01675Y04565D02*
D03*
Y04365D02*
D03*
X0154Y0233D02*
D03*
Y0243D02*
D03*
Y0253D02*
D03*
X03442Y0214D02*
D03*
X03542D02*
D03*
X03642D02*
D03*
D138*
X01275Y04495D02*
D03*
X01525D02*
D03*
D139*
X0125Y03375D02*
D03*
Y03475D02*
D03*
Y03575D02*
D03*
X0152Y0285D02*
D03*
X0125D02*
D03*
Y0295D02*
D03*
Y0305D02*
D03*
D140*
Y03675D02*
D03*
X0152Y0295D02*
D03*
X0125Y0315D02*
D03*
D141*
X01351Y043425D02*
D03*
X0135Y02137D02*
D03*
D142*
X01351Y04185D02*
D03*
Y040275D02*
D03*
Y0387D02*
D03*
X0135Y019795D02*
D03*
D143*
X0189Y03215D02*
D03*
Y03115D02*
D03*
X0159D02*
D03*
D144*
Y03215D02*
D03*
D145*
X0154Y0263D02*
D03*
D146*
X0125Y026305D02*
D03*
D147*
Y025255D02*
D03*
Y024255D02*
D03*
D148*
X03715Y039D02*
D03*
X03815D02*
D03*
X03615D02*
D03*
X03814Y038D02*
D03*
X03715D02*
D03*
X03615D02*
D03*
D149*
X03742Y0214D02*
D03*
D150*
X04872Y02526D02*
D03*
X02939Y02742D02*
D03*
X03062Y02745D02*
D03*
X04941Y03449D02*
D03*
X03275Y01991D02*
D03*
X03372Y01989D02*
D03*
X03285Y02397D02*
D03*
X03043Y023986D02*
D03*
X02999Y02109D02*
D03*
X03281Y02529D02*
D03*
X033472Y02248D02*
D03*
X03102Y02403D02*
D03*
X02257Y02024D02*
D03*
X04454Y0194D02*
D03*
X02917Y02445D02*
D03*
X041361Y030321D02*
D03*
X04136Y02961D02*
D03*
X041361Y03071D02*
D03*
Y02995D02*
D03*
X037609Y030321D02*
D03*
X0376Y029612D02*
D03*
X03761Y02996D02*
D03*
X04136Y03113D02*
D03*
X03495Y03251D02*
D03*
X0353Y03245D02*
D03*
X03529Y03317D02*
D03*
X04799Y0396D02*
D03*
X04947Y03086D02*
D03*
X04991Y02716D02*
D03*
X02804Y02758D02*
D03*
X0304Y03081D02*
D03*
X04492Y02216D02*
D03*
X03817Y02054D02*
D03*
X04262Y02043D02*
D03*
X04309D02*
D03*
X04348Y02044D02*
D03*
X03423Y02921D02*
D03*
X03388Y02837D02*
D03*
X03265Y03701D02*
D03*
X05604Y0465D02*
D03*
X05641Y04821D02*
D03*
X05487Y04564D02*
D03*
X0382Y03663D02*
D03*
X05346Y04831D02*
D03*
X05939Y04741D02*
D03*
X045492Y04409D02*
D03*
X05314Y03518D02*
D03*
X04451Y04167D02*
D03*
X0376Y03085D02*
D03*
X03761Y03122D02*
D03*
X03471Y03084D02*
D03*
X03442Y03121D02*
D03*
X03762Y03167D02*
D03*
X03442Y03164D02*
D03*
X03715Y02734D02*
D03*
X03455Y03371D02*
D03*
X034268Y03339D02*
D03*
X034858Y034908D02*
D03*
X04862Y02846D02*
D03*
X0486Y02891D02*
D03*
X04555Y03146D02*
D03*
X03452Y03491D02*
D03*
X03521Y03488D02*
D03*
Y02749D02*
D03*
X03369Y03367D02*
D03*
X03334D02*
D03*
X04234Y04481D02*
D03*
X04686Y02445D02*
D03*
X05435Y024924D02*
D03*
X035252Y03386D02*
D03*
X0501Y03445D02*
D03*
X050582Y034568D02*
D03*
X05094Y03734D02*
D03*
X04449Y04012D02*
D03*
X04534D02*
D03*
X03274Y03047D02*
D03*
X03254Y03761D02*
D03*
X03273Y034887D02*
D03*
X02575Y0256D02*
D03*
X03394Y03637D02*
D03*
X033677Y03484D02*
D03*
X03527Y037445D02*
D03*
X03655Y03623D02*
D03*
X035955Y036165D02*
D03*
X03232Y0336D02*
D03*
X03269Y03245D02*
D03*
D151*
X02147Y03053D02*
D03*
X01793Y02558D02*
D03*
X03229Y03691D02*
D03*
X04226Y0403D02*
D03*
X03713Y02444D02*
D03*
X04234Y04207D02*
D03*
X04183Y04005D02*
D03*
X04138Y04009D02*
D03*
X03542Y02407D02*
D03*
X03443Y02414D02*
D03*
X01792Y0251D02*
D03*
X029142Y0383D02*
D03*
X02128Y0311D02*
D03*
X02768Y03976D02*
D03*
X04015Y04112D02*
D03*
X01688Y03459D02*
D03*
X01758Y02242D02*
D03*
X02079Y01932D02*
D03*
X01889Y019795D02*
D03*
X01834Y02132D02*
D03*
X0304Y03038D02*
D03*
X03575Y04275D02*
D03*
X03974Y04071D02*
D03*
D152*
X01803Y02372D02*
D03*
X03381Y03778D02*
D03*
X04539D02*
D03*
X03381Y02647D02*
D03*
X04534D02*
D03*
X01174Y0491D02*
D03*
X06156Y01944D02*
D03*
Y04911D02*
D03*
D153*
X028774Y020774D02*
D03*
X030506D02*
D03*
D154*
X05719Y03559D02*
D03*
X0249Y03019D02*
D03*
D155*
X05718Y03266D02*
D03*
X02489Y02726D02*
D03*
D201*
X0486Y037095D02*
D03*
Y037595D02*
D03*
Y038095D02*
D03*
Y038595D02*
D03*
Y039095D02*
D03*
Y039595D02*
D03*
D202*
X0497Y033845D02*
D03*
Y040445D02*
D03*
X0547Y033845D02*
D03*
Y040445D02*
D03*
M02*
