M48
;Layer_Color=9474304
;FILE_FORMAT=2:4
INCH,LZ
;TYPE=PLATED
T1F00S00C0.0157
T2F00S00C0.0197
T3F00S00C0.0236
T4F00S00C0.0276
T5F00S00C0.0300
T6F00S00C0.0310
T7F00S00C0.0315
T8F00S00C0.0320
T9F00S00C0.0340
T10F00S00C0.0350
T11F00S00C0.0360
T12F00S00C0.0394
T13F00S00C0.0433
T14F00S00C0.0450
T15F00S00C0.0472
T16F00S00C0.0512
T17F00S00C0.0591
T18F00S00C0.0630
T19F00S00C0.0669
T20F00S00C0.1181
;TYPE=NON_PLATED
T21F00S00C0.0394
%
T01
X04872Y02526
X04991Y02716
X04862Y02846
X0486Y02891
X04947Y03086
X05435Y024924
X04686Y02445
X04492Y02216
X04454Y0194
X04348Y02044
X04309Y02043
X04262
X03817Y02054
X03372Y01989
X03275Y01991
X033472Y02248
X03285Y02397
X03281Y02529
X03388Y02837
X03423Y02921
X03471Y03084
X03442Y03121
X03274Y03047
X037609Y030321
X03761Y02996
X0376Y029612
Y03085
X03761Y03122
X04136Y03113
X041361Y03071
Y030321
Y02995
X04136Y02961
X03715Y02734
X03521Y02749
X03062Y02745
X02939Y02742
X02804Y02758
X0304Y03081
X03043Y023986
X03102Y02403
X02999Y02109
X02257Y02024
X0308Y04255
X031194
Y042944
X0308
Y043337
X031194
X03254Y03761
X03265Y03701
X03229Y03691
X03394Y03637
X033677Y03484
X03452Y03491
X034858Y034908
X03521Y03488
X035252Y03386
X03529Y03317
X0353Y03245
X03495Y03251
X03442Y03164
X034268Y03339
X03455Y03371
X03369Y03367
X03334
X03232Y0336
X03269Y03245
X03273Y034887
X035955Y036165
X03655Y03623
X0382Y03663
X03527Y037445
X03762Y03167
X04555Y03146
X04534Y04012
X04449
X04451Y04167
X04234Y04207
Y04481
X045492Y04409
X04799Y0396
X05094Y03734
X050582Y034568
X0501Y03445
X04941Y03449
X05314Y03518
X05487Y04564
X05604Y0465
X05641Y04821
X05346Y04831
X05939Y04741
T02
X051575Y025984
X051969Y026772
X051181
X051575Y027559
X051969Y028346
X051181
X051575Y029134
X050787
X051181Y029921
X051969
X050394
X054331
X055118
X055906
X059843
X06063
X061024Y030709
X060236
X059843Y027953
X059449
X059055
X059252Y027559
X059646
X059449Y027165
X06063Y026378
X061024
X061221Y026772
Y025984
X061024Y027953
X059646Y025197
X059252
X059055Y024803
X059449
X059843
X060236Y023622
X061024
X06063Y022835
X059843
X059055
X058268
X05748
X057874Y023622
X058661
X059449
Y022047
X060236
X061024
X06063Y02126
X059843
X059055
X058268
X058661Y022047
X057874
Y020472
X058661
X059449
X060236
X059843Y019685
X059055
X058268
X040945Y022835
X041339Y023622
X040945Y026772
X040551Y027559
X040945Y028346
X040157
X040551Y029134
X039764
X03713Y02444
X03542Y02407
X03443Y02414
X034646Y020472
X035433
X03622
X037008
X033858
X02917Y02445
X02575Y0256
X01793Y02558
X01792Y0251
X01758Y02242
X01834Y02132
X01889Y019795
X02079Y01932
X02147Y03053
X02128Y0311
X01944Y0301
X0304Y03038
X014173Y024409
X012992Y023622
X012205
X012598Y022835
X013386
X012205Y022047
Y020472
X01688Y03459
X024409Y034646
Y03622
X025197Y03937
X025984
X025591Y040157
X025984Y040945
X025197
X025591Y041732
X025984Y04252
X025197
X024409
X023622
X022835
X022047
X02126
X022441Y043307
X026378
X02768Y03976
X029142Y0383
X03445Y04035
X03575Y04275
X04015Y04112
X03974Y04071
X04138Y04009
X04183Y04005
X04226Y0403
X04252Y038583
X043307
X044095
X041732
X045276Y03622
X046063
X04685
Y033071
X046063
X044882Y033858
X044095
X047244Y032283
X052756
X053543
X054331
X055118
X055906
X056299Y033071
X055512
X054724
X053937
X05315
X053937Y034646
X055512
X056299
X057087
X056693Y033858
X055906
Y035433
X056299Y03622
X055512
X055906Y037008
X056299Y037795
X055512
X055906Y038583
X056299Y03937
X057087
X055512
X054764Y041457
X054252
Y042992
X054764
X055118Y044095
X055906
X057323Y044016
X057835
X058346
X058858
X05937
X059882
X060394
X060906
Y04248
Y041968
X060394
Y040433
X060906
X059882
X05937
Y040945
X058858Y040433
X058346
X057835
X057323Y040945
Y041457
X056811
Y042992
X057323
Y043504
X056811
X05937
X06063Y045669
X061024Y046457
X06063Y03937
X059843
X060236Y038583
X061024
X06063Y037795
X059843
X060236Y037008
X061024
X06063Y03622
X059843
X060236Y035433
X061024
X06063Y034646
X059843
X060236Y033858
X061024
X06063Y033071
X059843
X060236Y032283
X061024
X06063Y031496
X059843
X052756Y038583
X051969
X052362Y03937
X051575
X051969Y041732
X052756
X052362Y04252
X051575
X050787
X051181Y041732
X050394
X049606
X048819
X053543Y044095
X054331
X06063Y047244
T03
X01743Y03495
X020472Y046457
X022047
X022835
X023622
X025197
X025984
X026772
X046949Y049016
X04813
X04872
X049311
X049902
X049606Y048425
X049016
X048425
X051378
X051083Y049016
X054035
X056398
X056988
X057579
X058169
X05876
X05935
X059941
X059646Y048425
X060236
X059055
X058465
X057874
X057283
X046654
X042815Y049016
X039862
X039272
X038681
X038091
X0375
X036909
X036319
X035728
X035138
X034547
X033957
X033366
X032776
X032185
X031594
X03248Y048425
X033071
X033661
X034252
X034843
X035433
X036024
X036614
X037205
X037795
X038386
X038976
X039567
X031004Y049016
X030413
X029823
X029232
X028642
X028051
X027461
X02687
X02628
X025689
X025098
X024508
X023917
X023327
X022736
X022146
X021555
X020965
X020374
X019783
X019193
X018602
X018012
X017421
X016831
X01624
X01565
X016929Y047244
X017717
X023031Y048425
X023622
X025394
X025984
X026575
X027165
X028937
X029528
X030118
X015059Y049016
X014468
X013878
X013287
X012992Y048425
X013583
X014173
T04
X01928Y03791
X03959Y04626
X04617Y04631
T05
X02903Y033889
X03003
T06
X0159Y03115
X0189
Y03215
X0159
X01675Y04365
Y04565
T07
X04812Y01998
X050766Y01997
X052506
X05512
X05686
X04638Y01998
X0152Y0285
Y0295
X0125
Y0285
Y0305
Y0315
Y03375
Y03475
Y03575
Y03675
T08
X02445Y04645
X0281
Y04795
X02445
T09
X0125Y024255
Y025255
Y026305
T10
X01275Y04495
X01525
T11
X03941Y0214
X04042
X0414
X0411Y02581
X04009
X03911
X0381
X03814Y038
X03715
Y039
X03815
X03615
Y038
X03989Y04415
X0409
T12
X0208Y02351
X0218
X0228
X0238
X0248
X0258
X0268
X0278
X028774Y020774
X030506
T13
X0486Y02101
X050236Y021
X052986
X05459
X05734
X04585Y02101
T14
X018588Y043603
X021344
Y046752
X018588
T15
X0595Y026337
Y0422
T16
X0249Y03019
X05719Y03559
T17
X02489Y02726
X05718Y03266
T18
X0135Y019795
Y02137
X01351Y0387
Y040275
Y04185
Y043425
T19
X0585Y025337
X0605
Y027337
X0585
Y0412
X0605
Y0432
X0585
T20
X06156Y01944
X04534Y02647
X03381
X01803Y02372
X03381Y03778
X04539
X06156Y04911
X01174Y0491
T21
X03442Y0214
X03542
X03642
X03742
X0154Y0233
Y0243
Y0253
Y0263
M30
