G04*
G04 #@! TF.GenerationSoftware,Altium Limited,Altium Designer,18.1.6 (161)*
G04*
G04 Layer_Color=8388736*
%FSTAX24Y24*%
%MOIN*%
G70*
G01*
G75*
%ADD16C,0.0060*%
%ADD76R,0.0552X0.0631*%
%ADD77R,0.0434X0.0316*%
%ADD78R,0.1143X0.0592*%
%ADD79R,0.0671X0.0316*%
%ADD80R,0.0474X0.0630*%
%ADD81R,0.0434X0.0395*%
%ADD82R,0.1379X0.0671*%
%ADD83R,0.0277X0.0966*%
%ADD84R,0.0867X0.1064*%
%ADD85R,0.0631X0.0552*%
%ADD86R,0.1104X0.0710*%
%ADD87R,0.0671X0.0395*%
%ADD88R,0.0946X0.0474*%
%ADD89R,0.0630X0.0474*%
%ADD90O,0.0316X0.0867*%
%ADD91O,0.0867X0.0316*%
%ADD92R,0.1104X0.1064*%
%ADD93R,0.0710X0.1104*%
%ADD94R,0.0580X0.0630*%
%ADD95R,0.0474X0.0580*%
%ADD96R,0.0552X0.0415*%
%ADD97R,0.0395X0.0434*%
%ADD98O,0.0946X0.0316*%
%ADD99R,0.0300X0.0660*%
%ADD100R,0.0580X0.0474*%
%ADD101O,0.1064X0.0395*%
%ADD102R,0.0237X0.0395*%
%ADD103R,0.1064X0.1655*%
%ADD104R,0.1064X0.1261*%
%ADD105R,0.0552X0.1458*%
%ADD106R,0.0867X0.0749*%
%ADD107R,0.0552X0.0395*%
%ADD108R,0.2049X0.2442*%
%ADD109R,0.1379X0.1064*%
%ADD110R,0.1025X0.1300*%
%ADD111R,0.0900X0.0310*%
%ADD112R,0.0415X0.0552*%
%ADD113R,0.0880X0.2580*%
%ADD114R,0.1064X0.1379*%
%ADD115R,0.2678X0.2737*%
%ADD116R,0.0867X0.0710*%
%ADD117R,0.1458X0.0671*%
%ADD118R,0.3623X0.4017*%
%ADD119R,0.0860X0.0300*%
%ADD120R,0.0190X0.0660*%
%ADD121R,0.0660X0.0190*%
%ADD122R,0.1025X0.1379*%
%ADD123R,0.1025X0.0474*%
%ADD124O,0.0730X0.0830*%
%ADD125C,0.0730*%
%ADD126O,0.0867X0.0671*%
%ADD127R,0.0671X0.0789*%
%ADD128O,0.0671X0.0789*%
%ADD129C,0.1182*%
%ADD130C,0.0867*%
%ADD131C,0.0395*%
%ADD132C,0.0680*%
%ADD133R,0.1080X0.0780*%
%ADD134O,0.1080X0.0780*%
%ADD135R,0.1080X0.1080*%
%ADD136C,0.1080*%
%ADD137C,0.0780*%
%ADD138C,0.0880*%
%ADD139C,0.0789*%
%ADD140R,0.0789X0.0789*%
%ADD141R,0.1261X0.1261*%
%ADD142C,0.1261*%
%ADD143O,0.0980X0.0680*%
%ADD144R,0.0980X0.0680*%
%ADD145R,0.0780X0.0780*%
%ADD146R,0.0980X0.0830*%
%ADD147O,0.0980X0.0830*%
%ADD148C,0.0710*%
%ADD149R,0.0780X0.0780*%
%ADD150C,0.0316*%
%ADD151C,0.0356*%
%ADD152C,0.1655*%
%ADD153C,0.0552*%
%ADD154C,0.0592*%
%ADD155C,0.0671*%
D16*
X050303Y04025D02*
X050697D01*
X0505Y040053D02*
Y040447D01*
D76*
X04798Y02545D02*
D03*
X04698D02*
D03*
X04815Y02224D02*
D03*
X04715D02*
D03*
X05261D02*
D03*
X05161D02*
D03*
X05693D02*
D03*
X05593D02*
D03*
X047Y03089D02*
D03*
X048D02*
D03*
X04797Y02806D02*
D03*
X04697D02*
D03*
X0523Y04589D02*
D03*
X0533D02*
D03*
X0523Y04679D02*
D03*
X0533D02*
D03*
X03805Y04299D02*
D03*
X03905D02*
D03*
X01835Y034992D02*
D03*
X01935D02*
D03*
X01853Y02188D02*
D03*
X01753D02*
D03*
X0345Y04111D02*
D03*
X0335D02*
D03*
D77*
X02926Y023015D02*
D03*
X02926Y02373D02*
D03*
X02985Y023015D02*
D03*
X02985Y02373D02*
D03*
X03043Y023745D02*
D03*
X03043Y02303D02*
D03*
X03102Y023015D02*
D03*
X03102Y02373D02*
D03*
D78*
X02518Y02063D02*
D03*
Y019488D02*
D03*
D79*
X023239Y021316D02*
D03*
Y022064D02*
D03*
X024421D02*
D03*
Y02169D02*
D03*
Y021316D02*
D03*
X023239Y02169D02*
D03*
D80*
X02391Y02024D02*
D03*
X02301D02*
D03*
X05503Y04047D02*
D03*
X05593D02*
D03*
X03724Y043D02*
D03*
X03634D02*
D03*
X05223Y03572D02*
D03*
X05313D02*
D03*
X04644Y022206D02*
D03*
X04554D02*
D03*
X05081D02*
D03*
X04991D02*
D03*
X055155D02*
D03*
X054255D02*
D03*
X04425Y0486D02*
D03*
X04335D02*
D03*
X04555Y030924D02*
D03*
X04465D02*
D03*
X05435Y0245D02*
D03*
X05525D02*
D03*
X05645Y04565D02*
D03*
X05735D02*
D03*
X05645Y0465D02*
D03*
X05735D02*
D03*
X05645Y0474D02*
D03*
X05735D02*
D03*
X02104Y01979D02*
D03*
X02194D02*
D03*
X02027Y019795D02*
D03*
X01937D02*
D03*
X01674Y02083D02*
D03*
X01584D02*
D03*
X01674Y01991D02*
D03*
X01584D02*
D03*
X0268Y04025D02*
D03*
X0277D02*
D03*
X02683Y04129D02*
D03*
X02773D02*
D03*
D81*
X023635Y019535D02*
D03*
X024225D02*
D03*
X036486Y037078D02*
D03*
X035895D02*
D03*
X029355Y03115D02*
D03*
X029945D02*
D03*
X029355Y0304D02*
D03*
X029945D02*
D03*
X034855Y02805D02*
D03*
X035445D02*
D03*
X034855Y028778D02*
D03*
X035445D02*
D03*
X043074Y0448D02*
D03*
X043665D02*
D03*
X041305Y032151D02*
D03*
X041895D02*
D03*
X054124Y027633D02*
D03*
X054715D02*
D03*
X054724Y026337D02*
D03*
X055315D02*
D03*
X030345Y044353D02*
D03*
X029755D02*
D03*
X044234Y039755D02*
D03*
X044825D02*
D03*
X044234Y0405D02*
D03*
X044825D02*
D03*
X043576D02*
D03*
X042985D02*
D03*
X043576Y039755D02*
D03*
X042985D02*
D03*
X043576Y0412D02*
D03*
X042985D02*
D03*
X037824Y0371D02*
D03*
X038415D02*
D03*
X032605Y03565D02*
D03*
X033195D02*
D03*
X032605Y03635D02*
D03*
X033195D02*
D03*
X031255Y036353D02*
D03*
X031845D02*
D03*
X031255Y03565D02*
D03*
X031845D02*
D03*
X035955Y035152D02*
D03*
X036545D02*
D03*
X035955Y035852D02*
D03*
X036545D02*
D03*
X032065Y028918D02*
D03*
X031475D02*
D03*
X032065Y02828D02*
D03*
X031475D02*
D03*
D82*
X02655Y02022D02*
D03*
X02655Y022006D02*
D03*
D83*
X03026Y02193D02*
D03*
X02995Y021925D02*
D03*
X02964Y02192D02*
D03*
X02933Y021915D02*
D03*
X02902Y02191D02*
D03*
D84*
X031412Y02179D02*
D03*
X03141Y01953D02*
D03*
X027867D02*
D03*
X027868Y02179D02*
D03*
D85*
X05016Y03095D02*
D03*
Y03195D02*
D03*
X02999Y0403D02*
D03*
Y0413D02*
D03*
X01709Y03975D02*
D03*
Y03875D02*
D03*
X01995Y03105D02*
D03*
Y03205D02*
D03*
X04799Y0273D02*
D03*
Y0263D02*
D03*
X01836Y03585D02*
D03*
Y03685D02*
D03*
X01889Y02905D02*
D03*
Y03005D02*
D03*
X02554Y0384D02*
D03*
Y0374D02*
D03*
X03451Y0418D02*
D03*
Y0428D02*
D03*
D86*
X05129Y03227D02*
D03*
Y03101D02*
D03*
X0422Y04725D02*
D03*
Y04851D02*
D03*
X04075Y04724D02*
D03*
Y0485D02*
D03*
X02525Y04436D02*
D03*
Y0431D02*
D03*
X02355Y04436D02*
D03*
Y0431D02*
D03*
D87*
X056212Y0422D02*
D03*
X056788Y026318D02*
D03*
D88*
X0557Y042791D02*
D03*
Y041609D02*
D03*
X0573Y025727D02*
D03*
Y026908D02*
D03*
D89*
X03802Y02375D02*
D03*
Y02285D02*
D03*
X03542Y0237D02*
D03*
Y0228D02*
D03*
X03442Y0237D02*
D03*
Y0228D02*
D03*
X03175Y04124D02*
D03*
Y04034D02*
D03*
X03092Y04034D02*
D03*
Y04124D02*
D03*
X01585Y03765D02*
D03*
Y03855D02*
D03*
X046232Y030104D02*
D03*
Y031004D02*
D03*
Y02855D02*
D03*
Y02945D02*
D03*
X052Y02455D02*
D03*
Y02365D02*
D03*
X0512Y02365D02*
D03*
Y02455D02*
D03*
X0483Y02445D02*
D03*
Y02355D02*
D03*
X0475Y02355D02*
D03*
Y02445D02*
D03*
X02855Y04255D02*
D03*
Y04165D02*
D03*
X02885Y04105D02*
D03*
Y04015D02*
D03*
X01484Y03179D02*
D03*
Y03089D02*
D03*
X017496Y02082D02*
D03*
Y01992D02*
D03*
X01795Y029936D02*
D03*
Y029036D02*
D03*
X01711Y029936D02*
D03*
Y029036D02*
D03*
X0208Y0311D02*
D03*
Y032D02*
D03*
X03349Y0428D02*
D03*
Y0419D02*
D03*
X0326Y04035D02*
D03*
Y04125D02*
D03*
D90*
X048768Y043793D02*
D03*
X049201D02*
D03*
X049634D02*
D03*
X050067D02*
D03*
X0505D02*
D03*
X050933D02*
D03*
X051366D02*
D03*
X051799D02*
D03*
X052232D02*
D03*
Y036707D02*
D03*
X051799D02*
D03*
X051366D02*
D03*
X050933D02*
D03*
X0505D02*
D03*
X050067D02*
D03*
X049634D02*
D03*
X049201D02*
D03*
X048768D02*
D03*
D91*
X053669Y042632D02*
D03*
Y042199D02*
D03*
Y041766D02*
D03*
Y041333D02*
D03*
Y0409D02*
D03*
Y040467D02*
D03*
Y040033D02*
D03*
Y0396D02*
D03*
Y039167D02*
D03*
Y038734D02*
D03*
Y038301D02*
D03*
Y037868D02*
D03*
X047331D02*
D03*
Y038301D02*
D03*
Y038734D02*
D03*
Y039167D02*
D03*
Y0396D02*
D03*
Y040033D02*
D03*
Y040467D02*
D03*
Y0409D02*
D03*
Y041333D02*
D03*
Y041766D02*
D03*
Y042199D02*
D03*
Y042632D02*
D03*
D92*
X02735Y034415D02*
D03*
Y032485D02*
D03*
D93*
X01723Y04171D02*
D03*
X01597D02*
D03*
D94*
X017496Y037649D02*
D03*
X016596D02*
D03*
X04495Y0486D02*
D03*
X04585D02*
D03*
X054356Y02375D02*
D03*
X055256D02*
D03*
X0589Y04565D02*
D03*
X058D02*
D03*
Y0465D02*
D03*
X0589D02*
D03*
Y0474D02*
D03*
X058D02*
D03*
D95*
X027193Y024476D02*
D03*
X026287D02*
D03*
X039657Y032151D02*
D03*
X040563D02*
D03*
X056306Y027633D02*
D03*
X0554D02*
D03*
X030607Y038296D02*
D03*
X031513D02*
D03*
X038447Y027676D02*
D03*
X039353D02*
D03*
X028713Y024474D02*
D03*
X027807D02*
D03*
X015884Y02189D02*
D03*
X01679D02*
D03*
D96*
X03622Y02325D02*
D03*
X037202Y022878D02*
D03*
X037204Y023636D02*
D03*
X045492Y0437D02*
D03*
X04451Y04333D02*
D03*
X044508Y044074D02*
D03*
X045492Y0424D02*
D03*
X04451Y04203D02*
D03*
X044508Y042774D02*
D03*
X044408Y0298D02*
D03*
X04539Y03017D02*
D03*
X045392Y029426D02*
D03*
X053692Y024D02*
D03*
X05271Y02363D02*
D03*
X052708Y024374D02*
D03*
X049992Y024D02*
D03*
X04901Y02363D02*
D03*
X049008Y024374D02*
D03*
X018092Y028048D02*
D03*
X01711Y02842D02*
D03*
X017108Y027662D02*
D03*
X033474Y023636D02*
D03*
X033472Y022878D02*
D03*
X03249Y02325D02*
D03*
D97*
X043714Y042676D02*
D03*
Y042085D02*
D03*
X043Y042676D02*
D03*
Y042085D02*
D03*
X0404Y033581D02*
D03*
Y03299D02*
D03*
X0397Y033581D02*
D03*
Y03299D02*
D03*
X0559Y026318D02*
D03*
Y026908D02*
D03*
X0541Y026318D02*
D03*
Y026908D02*
D03*
X04868Y035376D02*
D03*
Y034785D02*
D03*
X0491Y033715D02*
D03*
Y033125D02*
D03*
X02625Y034205D02*
D03*
Y034795D02*
D03*
Y032695D02*
D03*
Y032105D02*
D03*
X0494Y035376D02*
D03*
Y034785D02*
D03*
X0508Y035376D02*
D03*
Y034785D02*
D03*
X0501Y035376D02*
D03*
Y034785D02*
D03*
X043714Y043976D02*
D03*
Y043385D02*
D03*
X043Y043976D02*
D03*
Y043385D02*
D03*
X0285Y036195D02*
D03*
Y035605D02*
D03*
X03055Y036195D02*
D03*
Y035605D02*
D03*
D98*
X041355Y034455D02*
D03*
Y033955D02*
D03*
Y033455D02*
D03*
Y032955D02*
D03*
X043245Y034455D02*
D03*
Y033955D02*
D03*
Y033455D02*
D03*
Y032955D02*
D03*
D99*
X0477Y02906D02*
D03*
X046952D02*
D03*
Y03D02*
D03*
X047326D02*
D03*
X0477D02*
D03*
X0409Y04191D02*
D03*
X040152D02*
D03*
Y04285D02*
D03*
X040526D02*
D03*
X0409D02*
D03*
D100*
X047096Y027243D02*
D03*
Y026337D02*
D03*
D101*
X049281Y029332D02*
D03*
Y028899D02*
D03*
Y028466D02*
D03*
Y027167D02*
D03*
Y0276D02*
D03*
Y028033D02*
D03*
Y026734D02*
D03*
Y026301D02*
D03*
Y025868D02*
D03*
X0531D02*
D03*
Y026301D02*
D03*
Y026734D02*
D03*
Y028033D02*
D03*
Y0276D02*
D03*
Y027167D02*
D03*
Y028466D02*
D03*
Y028899D02*
D03*
Y029332D02*
D03*
D102*
X049744Y03392D02*
D03*
X050256D02*
D03*
X05D02*
D03*
X050256Y033062D02*
D03*
X05D02*
D03*
X049744D02*
D03*
D103*
X05719Y031D02*
D03*
Y03794D02*
D03*
X0249Y0256D02*
D03*
Y03254D02*
D03*
D104*
X055256Y0483D02*
D03*
X0525D02*
D03*
D105*
X0505Y046752D02*
D03*
Y048839D02*
D03*
X0476Y046752D02*
D03*
Y048839D02*
D03*
D106*
X043714Y04745D02*
D03*
X045485D02*
D03*
X016886Y0365D02*
D03*
X015115D02*
D03*
X016886Y03375D02*
D03*
X015115D02*
D03*
D107*
X039178Y0416D02*
D03*
X036422D02*
D03*
D108*
X033926Y0463D02*
D03*
X038374D02*
D03*
D109*
X0313Y048053D02*
D03*
Y0453D02*
D03*
D110*
X030997Y042944D02*
D03*
D111*
X032027Y043694D02*
D03*
Y043194D02*
D03*
Y042694D02*
D03*
Y042194D02*
D03*
X029967D02*
D03*
Y042694D02*
D03*
Y043194D02*
D03*
Y043694D02*
D03*
D112*
X02737Y043032D02*
D03*
X02774Y04205D02*
D03*
X026996Y042048D02*
D03*
D113*
X02951Y035789D02*
D03*
D114*
X012697Y04715D02*
D03*
X01545D02*
D03*
D115*
X022659Y0359D02*
D03*
D116*
X020257Y035002D02*
D03*
Y036798D02*
D03*
D117*
X018669Y03875D02*
D03*
Y03975D02*
D03*
Y04075D02*
D03*
D118*
X023Y03975D02*
D03*
D119*
X02156Y02045D02*
D03*
Y02095D02*
D03*
Y02145D02*
D03*
Y02195D02*
D03*
X01962D02*
D03*
Y02145D02*
D03*
Y02095D02*
D03*
Y02045D02*
D03*
D120*
X032299Y034365D02*
D03*
X032496D02*
D03*
X032693D02*
D03*
X03289D02*
D03*
X033087D02*
D03*
X033283D02*
D03*
X03348D02*
D03*
X033677D02*
D03*
X033874D02*
D03*
X034071D02*
D03*
X034268D02*
D03*
X034465D02*
D03*
X034661D02*
D03*
X034858D02*
D03*
X035055D02*
D03*
X035252D02*
D03*
Y029935D02*
D03*
X035055D02*
D03*
X034858D02*
D03*
X034661D02*
D03*
X034465D02*
D03*
X034268D02*
D03*
X034071D02*
D03*
X033874D02*
D03*
X033677D02*
D03*
X03348D02*
D03*
X033283D02*
D03*
X033087D02*
D03*
X03289D02*
D03*
X032693D02*
D03*
X032496D02*
D03*
X032299D02*
D03*
D121*
X035991Y033626D02*
D03*
Y03343D02*
D03*
Y033233D02*
D03*
Y033036D02*
D03*
Y032839D02*
D03*
Y032248D02*
D03*
Y032052D02*
D03*
Y031855D02*
D03*
Y031658D02*
D03*
X031561Y030674D02*
D03*
Y03087D02*
D03*
Y031067D02*
D03*
Y031264D02*
D03*
Y031461D02*
D03*
Y031658D02*
D03*
Y031855D02*
D03*
Y032052D02*
D03*
Y032248D02*
D03*
Y032445D02*
D03*
Y032642D02*
D03*
Y032839D02*
D03*
Y033036D02*
D03*
Y033233D02*
D03*
Y03343D02*
D03*
Y033626D02*
D03*
X035991Y032642D02*
D03*
Y031264D02*
D03*
Y031067D02*
D03*
Y03087D02*
D03*
Y030674D02*
D03*
Y031461D02*
D03*
Y032445D02*
D03*
D122*
X029142Y0383D02*
D03*
D123*
X026858Y037394D02*
D03*
Y0383D02*
D03*
Y039206D02*
D03*
D124*
X0411Y02581D02*
D03*
X04009D02*
D03*
X03911D02*
D03*
X0381D02*
D03*
X03941Y0214D02*
D03*
X04042D02*
D03*
X0414D02*
D03*
X0409Y04415D02*
D03*
X03989D02*
D03*
D125*
X05734Y021D02*
D03*
X05459D02*
D03*
X05686Y01997D02*
D03*
X05512D02*
D03*
X0486Y02101D02*
D03*
X04585D02*
D03*
X04812Y01998D02*
D03*
X04638D02*
D03*
X052986Y021D02*
D03*
X050236D02*
D03*
X052506Y01997D02*
D03*
X050766D02*
D03*
D126*
X03959Y04626D02*
D03*
X01928Y03791D02*
D03*
X04617Y04631D02*
D03*
D127*
X0208Y02351D02*
D03*
D128*
X0218D02*
D03*
X0228D02*
D03*
X0238D02*
D03*
X0248D02*
D03*
X0258D02*
D03*
X0268D02*
D03*
X0278D02*
D03*
D129*
X0605Y027337D02*
D03*
Y025337D02*
D03*
X0585D02*
D03*
Y027337D02*
D03*
X0605Y0432D02*
D03*
Y0412D02*
D03*
X0585D02*
D03*
Y0432D02*
D03*
D130*
X0595Y026337D02*
D03*
Y0422D02*
D03*
D131*
X0308Y043337D02*
D03*
Y042944D02*
D03*
Y04255D02*
D03*
X031194D02*
D03*
Y042944D02*
D03*
Y043337D02*
D03*
X055906Y044095D02*
D03*
X055118D02*
D03*
X054331D02*
D03*
X053543D02*
D03*
X061024Y027953D02*
D03*
X061221Y026772D02*
D03*
X061024Y026378D02*
D03*
X061221Y025984D02*
D03*
X06063Y026378D02*
D03*
X059843Y027953D02*
D03*
Y024803D02*
D03*
X059449Y027953D02*
D03*
X059646Y027559D02*
D03*
X059449Y027165D02*
D03*
X059646Y025197D02*
D03*
X059449Y024803D02*
D03*
X059055Y027953D02*
D03*
X059252Y027559D02*
D03*
Y025197D02*
D03*
X059055Y024803D02*
D03*
X060236Y048425D02*
D03*
X059941Y049016D02*
D03*
X059646Y048425D02*
D03*
X05935Y049016D02*
D03*
X059055Y048425D02*
D03*
X05876Y049016D02*
D03*
X058465Y048425D02*
D03*
X058169Y049016D02*
D03*
X057874Y048425D02*
D03*
X057579Y049016D02*
D03*
X057283Y048425D02*
D03*
X056988Y049016D02*
D03*
X056398D02*
D03*
X054035D02*
D03*
X051378Y048425D02*
D03*
X051083Y049016D02*
D03*
X049902D02*
D03*
X049606Y048425D02*
D03*
X049311Y049016D02*
D03*
X049016Y048425D02*
D03*
X04872Y049016D02*
D03*
X048425Y048425D02*
D03*
X04813Y049016D02*
D03*
X046949D02*
D03*
X046654Y048425D02*
D03*
X042815Y049016D02*
D03*
X039862D02*
D03*
X039567Y048425D02*
D03*
X039272Y049016D02*
D03*
X038976Y048425D02*
D03*
X038681Y049016D02*
D03*
X038386Y048425D02*
D03*
X038091Y049016D02*
D03*
X037795Y048425D02*
D03*
X0375Y049016D02*
D03*
X037205Y048425D02*
D03*
X036909Y049016D02*
D03*
X036614Y048425D02*
D03*
X036319Y049016D02*
D03*
X036024Y048425D02*
D03*
X035728Y049016D02*
D03*
X035433Y048425D02*
D03*
X035138Y049016D02*
D03*
X034843Y048425D02*
D03*
X034547Y049016D02*
D03*
X034252Y048425D02*
D03*
X033957Y049016D02*
D03*
X033661Y048425D02*
D03*
X033366Y049016D02*
D03*
X033071Y048425D02*
D03*
X032776Y049016D02*
D03*
X03248Y048425D02*
D03*
X032185Y049016D02*
D03*
X031594D02*
D03*
X031004D02*
D03*
X030413D02*
D03*
X030118Y048425D02*
D03*
X029823Y049016D02*
D03*
X029528Y048425D02*
D03*
X029232Y049016D02*
D03*
X028937Y048425D02*
D03*
X028642Y049016D02*
D03*
X028051D02*
D03*
X027461D02*
D03*
X027165Y048425D02*
D03*
X02687Y049016D02*
D03*
X026575Y048425D02*
D03*
X02628Y049016D02*
D03*
X025984Y048425D02*
D03*
X025689Y049016D02*
D03*
X025394Y048425D02*
D03*
X025098Y049016D02*
D03*
X024508D02*
D03*
X023917D02*
D03*
X023622Y048425D02*
D03*
X023327Y049016D02*
D03*
X023031Y048425D02*
D03*
X022736Y049016D02*
D03*
X022146D02*
D03*
X021555D02*
D03*
X020965D02*
D03*
X020374D02*
D03*
X019783D02*
D03*
X019193D02*
D03*
X018602D02*
D03*
X018012D02*
D03*
X017421D02*
D03*
X016831D02*
D03*
X01624D02*
D03*
X01565D02*
D03*
X015059D02*
D03*
X014468D02*
D03*
X014173Y048425D02*
D03*
X013878Y049016D02*
D03*
X013583Y048425D02*
D03*
X013287Y049016D02*
D03*
X012992Y048425D02*
D03*
X026378Y043307D02*
D03*
X025984Y04252D02*
D03*
Y040945D02*
D03*
Y03937D02*
D03*
X025197Y04252D02*
D03*
X025591Y041732D02*
D03*
X025197Y040945D02*
D03*
X025591Y040157D02*
D03*
X025197Y03937D02*
D03*
X024409Y04252D02*
D03*
Y03622D02*
D03*
Y034646D02*
D03*
X023622Y04252D02*
D03*
X022835D02*
D03*
X022441Y043307D02*
D03*
X022047Y04252D02*
D03*
X02126D02*
D03*
X014173Y024409D02*
D03*
X013386Y022835D02*
D03*
X012992Y023622D02*
D03*
X012598Y022835D02*
D03*
X012205Y023622D02*
D03*
Y022047D02*
D03*
Y020472D02*
D03*
X061024Y023622D02*
D03*
X06063Y022835D02*
D03*
X061024Y022047D02*
D03*
X06063Y02126D02*
D03*
X060236Y023622D02*
D03*
X059843Y022835D02*
D03*
X060236Y022047D02*
D03*
X059843Y02126D02*
D03*
X060236Y020472D02*
D03*
X059843Y019685D02*
D03*
X059449Y023622D02*
D03*
X059055Y022835D02*
D03*
X059449Y022047D02*
D03*
X059055Y02126D02*
D03*
X059449Y020472D02*
D03*
X059055Y019685D02*
D03*
X058661Y023622D02*
D03*
X058268Y022835D02*
D03*
X058661Y022047D02*
D03*
X058268Y02126D02*
D03*
X058661Y020472D02*
D03*
X058268Y019685D02*
D03*
X057874Y023622D02*
D03*
X05748Y022835D02*
D03*
X057874Y022047D02*
D03*
Y020472D02*
D03*
X055906Y029921D02*
D03*
X055118D02*
D03*
X054331D02*
D03*
X051969D02*
D03*
Y028346D02*
D03*
Y026772D02*
D03*
X051181Y029921D02*
D03*
X051575Y029134D02*
D03*
X051181Y028346D02*
D03*
X051575Y027559D02*
D03*
X051181Y026772D02*
D03*
X051575Y025984D02*
D03*
X050394Y029921D02*
D03*
X050787Y029134D02*
D03*
X044095Y038583D02*
D03*
X043307D02*
D03*
X04252D02*
D03*
X041732D02*
D03*
X047244Y032283D02*
D03*
X04685Y03622D02*
D03*
Y033071D02*
D03*
X046063Y03622D02*
D03*
Y033071D02*
D03*
X045276Y03622D02*
D03*
X044882Y033858D02*
D03*
X044095D02*
D03*
X052756Y041732D02*
D03*
Y038583D02*
D03*
X052362Y04252D02*
D03*
X051969Y041732D02*
D03*
X052362Y03937D02*
D03*
X051969Y038583D02*
D03*
X051575Y04252D02*
D03*
X051181Y041732D02*
D03*
X051575Y03937D02*
D03*
X050787Y04252D02*
D03*
X050394Y041732D02*
D03*
X049606D02*
D03*
X048819D02*
D03*
X057087Y03937D02*
D03*
Y034646D02*
D03*
X056693Y033858D02*
D03*
X056299Y03937D02*
D03*
X055906Y038583D02*
D03*
X056299Y037795D02*
D03*
X055906Y037008D02*
D03*
X056299Y03622D02*
D03*
X055906Y035433D02*
D03*
X056299Y034646D02*
D03*
X055906Y033858D02*
D03*
X056299Y033071D02*
D03*
X055906Y032283D02*
D03*
X055512Y03937D02*
D03*
Y037795D02*
D03*
Y03622D02*
D03*
Y034646D02*
D03*
Y033071D02*
D03*
X055118Y032283D02*
D03*
X054724Y033071D02*
D03*
X054331Y032283D02*
D03*
X053937Y034646D02*
D03*
Y033071D02*
D03*
X053543Y032283D02*
D03*
X05315Y033071D02*
D03*
X052756Y032283D02*
D03*
X06063Y03937D02*
D03*
X061024Y038583D02*
D03*
X06063Y037795D02*
D03*
X061024Y037008D02*
D03*
X06063Y03622D02*
D03*
X061024Y035433D02*
D03*
X06063Y034646D02*
D03*
X061024Y033858D02*
D03*
X06063Y033071D02*
D03*
X061024Y032283D02*
D03*
X06063Y031496D02*
D03*
X061024Y030709D02*
D03*
X06063Y029921D02*
D03*
X059843Y03937D02*
D03*
X060236Y038583D02*
D03*
X059843Y037795D02*
D03*
X060236Y037008D02*
D03*
X059843Y03622D02*
D03*
X060236Y035433D02*
D03*
X059843Y034646D02*
D03*
X060236Y033858D02*
D03*
X059843Y033071D02*
D03*
X060236Y032283D02*
D03*
X059843Y031496D02*
D03*
X060236Y030709D02*
D03*
X059843Y029921D02*
D03*
X060906Y044016D02*
D03*
Y04248D02*
D03*
Y041968D02*
D03*
Y040433D02*
D03*
X060394Y044016D02*
D03*
Y041968D02*
D03*
Y040433D02*
D03*
X059882Y044016D02*
D03*
Y040433D02*
D03*
X05937Y044016D02*
D03*
Y043504D02*
D03*
Y040945D02*
D03*
Y040433D02*
D03*
X058858Y044016D02*
D03*
Y040433D02*
D03*
X058346Y044016D02*
D03*
Y040433D02*
D03*
X057835Y044016D02*
D03*
Y040433D02*
D03*
X057323Y044016D02*
D03*
Y043504D02*
D03*
Y042992D02*
D03*
Y041457D02*
D03*
Y040945D02*
D03*
X056811Y043504D02*
D03*
Y042992D02*
D03*
Y041457D02*
D03*
X054764Y042992D02*
D03*
Y041457D02*
D03*
X054252Y042992D02*
D03*
Y041457D02*
D03*
X037008Y020472D02*
D03*
X03622D02*
D03*
X035433D02*
D03*
X034646D02*
D03*
X033858D02*
D03*
X040945Y028346D02*
D03*
Y026772D02*
D03*
X040551Y029134D02*
D03*
X040157Y028346D02*
D03*
X040551Y027559D02*
D03*
X039764Y029134D02*
D03*
X041339Y023622D02*
D03*
X040945Y022835D02*
D03*
X06063Y047244D02*
D03*
X061024Y046457D02*
D03*
X06063Y045669D02*
D03*
X017717Y047244D02*
D03*
X016929D02*
D03*
X026772Y046457D02*
D03*
X025984D02*
D03*
X025197D02*
D03*
X023622D02*
D03*
X022835D02*
D03*
X022047D02*
D03*
X020472D02*
D03*
X01944Y0301D02*
D03*
X01743Y03495D02*
D03*
X03445Y04035D02*
D03*
D132*
X03003Y033889D02*
D03*
X02903D02*
D03*
D133*
X0281Y04645D02*
D03*
X02445D02*
D03*
D134*
X0281Y04795D02*
D03*
X02445D02*
D03*
D135*
X018588Y043603D02*
D03*
D136*
X021344D02*
D03*
Y046752D02*
D03*
X018588D02*
D03*
D137*
X01675Y04565D02*
D03*
Y04365D02*
D03*
X0154Y0233D02*
D03*
Y0243D02*
D03*
Y0253D02*
D03*
X03442Y0214D02*
D03*
X03542D02*
D03*
X03642D02*
D03*
D138*
X01275Y04495D02*
D03*
X01525D02*
D03*
D139*
X0125Y03375D02*
D03*
Y03475D02*
D03*
Y03575D02*
D03*
X0152Y0285D02*
D03*
X0125D02*
D03*
Y0295D02*
D03*
Y0305D02*
D03*
D140*
Y03675D02*
D03*
X0152Y0295D02*
D03*
X0125Y0315D02*
D03*
D141*
X01351Y043425D02*
D03*
X0135Y02137D02*
D03*
D142*
X01351Y04185D02*
D03*
Y040275D02*
D03*
Y0387D02*
D03*
X0135Y019795D02*
D03*
D143*
X0189Y03215D02*
D03*
Y03115D02*
D03*
X0159D02*
D03*
D144*
Y03215D02*
D03*
D145*
X0154Y0263D02*
D03*
D146*
X0125Y026305D02*
D03*
D147*
Y025255D02*
D03*
Y024255D02*
D03*
D148*
X03715Y039D02*
D03*
X03815D02*
D03*
X03615D02*
D03*
X03814Y038D02*
D03*
X03715D02*
D03*
X03615D02*
D03*
D149*
X03742Y0214D02*
D03*
D150*
X04872Y02526D02*
D03*
X02939Y02742D02*
D03*
X03062Y02745D02*
D03*
X04941Y03449D02*
D03*
X03275Y01991D02*
D03*
X03372Y01989D02*
D03*
X03285Y02397D02*
D03*
X03043Y023986D02*
D03*
X02999Y02109D02*
D03*
X03281Y02529D02*
D03*
X033472Y02248D02*
D03*
X03102Y02403D02*
D03*
X02257Y02024D02*
D03*
X04454Y0194D02*
D03*
X02917Y02445D02*
D03*
X041361Y030321D02*
D03*
X04136Y02961D02*
D03*
X041361Y03071D02*
D03*
Y02995D02*
D03*
X037609Y030321D02*
D03*
X0376Y029612D02*
D03*
X03761Y02996D02*
D03*
X04136Y03113D02*
D03*
X03495Y03251D02*
D03*
X0353Y03245D02*
D03*
X03529Y03317D02*
D03*
X04799Y0396D02*
D03*
X04947Y03086D02*
D03*
X04991Y02716D02*
D03*
X02804Y02758D02*
D03*
X0304Y03081D02*
D03*
X04492Y02216D02*
D03*
X03817Y02054D02*
D03*
X04262Y02043D02*
D03*
X04309D02*
D03*
X04348Y02044D02*
D03*
X03423Y02921D02*
D03*
X03388Y02837D02*
D03*
X03265Y03701D02*
D03*
X05604Y0465D02*
D03*
X05641Y04821D02*
D03*
X05487Y04564D02*
D03*
X0382Y03663D02*
D03*
X05346Y04831D02*
D03*
X05939Y04741D02*
D03*
X045492Y04409D02*
D03*
X05314Y03518D02*
D03*
X04451Y04167D02*
D03*
X0376Y03085D02*
D03*
X03761Y03122D02*
D03*
X03471Y03084D02*
D03*
X03442Y03121D02*
D03*
X03762Y03167D02*
D03*
X03442Y03164D02*
D03*
X03715Y02734D02*
D03*
X03455Y03371D02*
D03*
X034268Y03339D02*
D03*
X034858Y034908D02*
D03*
X04862Y02846D02*
D03*
X0486Y02891D02*
D03*
X04555Y03146D02*
D03*
X03452Y03491D02*
D03*
X03521Y03488D02*
D03*
Y02749D02*
D03*
X03369Y03367D02*
D03*
X03334D02*
D03*
X04234Y04481D02*
D03*
X04686Y02445D02*
D03*
X05435Y024924D02*
D03*
X035252Y03386D02*
D03*
X0501Y03445D02*
D03*
X050582Y034568D02*
D03*
X05094Y03734D02*
D03*
X04449Y04012D02*
D03*
X04534D02*
D03*
X03274Y03047D02*
D03*
X03254Y03761D02*
D03*
X03273Y034887D02*
D03*
X02575Y0256D02*
D03*
X03394Y03637D02*
D03*
X033677Y03484D02*
D03*
X03527Y037445D02*
D03*
X03655Y03623D02*
D03*
X035955Y036165D02*
D03*
X03232Y0336D02*
D03*
X03269Y03245D02*
D03*
D151*
X02147Y03053D02*
D03*
X01793Y02558D02*
D03*
X03229Y03691D02*
D03*
X04226Y0403D02*
D03*
X03713Y02444D02*
D03*
X04234Y04207D02*
D03*
X04183Y04005D02*
D03*
X04138Y04009D02*
D03*
X03542Y02407D02*
D03*
X03443Y02414D02*
D03*
X01792Y0251D02*
D03*
X029142Y0383D02*
D03*
X02128Y0311D02*
D03*
X02768Y03976D02*
D03*
X04015Y04112D02*
D03*
X01688Y03459D02*
D03*
X01758Y02242D02*
D03*
X02079Y01932D02*
D03*
X01889Y019795D02*
D03*
X01834Y02132D02*
D03*
X0304Y03038D02*
D03*
X03575Y04275D02*
D03*
X03974Y04071D02*
D03*
D152*
X01803Y02372D02*
D03*
X03381Y03778D02*
D03*
X04539D02*
D03*
X03381Y02647D02*
D03*
X04534D02*
D03*
X01174Y0491D02*
D03*
X06156Y01944D02*
D03*
Y04911D02*
D03*
D153*
X028774Y020774D02*
D03*
X030506D02*
D03*
D154*
X05719Y03559D02*
D03*
X0249Y03019D02*
D03*
D155*
X05718Y03266D02*
D03*
X02489Y02726D02*
D03*
M02*
