G04*
G04 #@! TF.GenerationSoftware,Altium Limited,Altium Designer,18.1.6 (161)*
G04*
G04 Layer_Color=32896*
%FSTAX24Y24*%
%MOIN*%
G70*
G01*
G75*
%ADD10C,0.0100*%
%ADD11C,0.0098*%
%ADD17C,0.0050*%
%ADD20C,0.0079*%
%ADD22C,0.0040*%
%ADD203C,0.0010*%
G36*
X062352Y05017D02*
X062446Y050131D01*
X062531Y050074D01*
X062604Y050001D01*
X062661Y049916D01*
X0627Y049822D01*
X06272Y049721D01*
Y0493D01*
X06154D01*
X06272Y0493D01*
X06272Y01922D01*
X06274D01*
Y01883D01*
X06274Y01883D01*
X06274D01*
Y018781D01*
X062721Y018684D01*
X062683Y018593D01*
X062628Y018511D01*
X062559Y018442D01*
X062477Y018387D01*
X062386Y018349D01*
X062289Y01833D01*
X011049D01*
X010948Y01835D01*
X010854Y018389D01*
X010769Y018446D01*
X010696Y018519D01*
X010639Y018604D01*
X0106Y018698D01*
X01058Y018799D01*
Y01922D01*
X06154D01*
Y0493D01*
X01056D01*
Y04969D01*
X01056Y04969D01*
X01056Y04969D01*
Y049739D01*
X010579Y049836D01*
X010617Y049927D01*
X010672Y050009D01*
X010741Y050078D01*
X010823Y050133D01*
X010914Y050171D01*
X011011Y05019D01*
X062251D01*
X062352Y05017D01*
D02*
G37*
G36*
X040797Y046368D02*
X040831Y046367D01*
X040861Y046364D01*
X040889Y04636D01*
X040911Y046355D01*
X040921Y046354D01*
X040929Y046352D01*
X040936Y046351D01*
X04094D01*
X040943Y046349D01*
X040945D01*
X040977Y046342D01*
X041004Y046335D01*
X041028Y046329D01*
X041048Y046323D01*
X041064Y046317D01*
X041076Y046313D01*
X041082Y046311D01*
X041085Y04631D01*
Y046106D01*
X041061D01*
X041036Y046119D01*
X041013Y046131D01*
X040991Y046141D01*
X040969Y04615D01*
X040952Y046155D01*
X040939Y04616D01*
X04093Y046163D01*
X040929Y046164D01*
X040927D01*
X040901Y046171D01*
X040877Y046176D01*
X040856Y04618D01*
X040835Y046182D01*
X040819Y046183D01*
X040808Y046185D01*
X040778D01*
X040759Y046183D01*
X040752Y046182D01*
X040746D01*
X040742Y04618D01*
X04074D01*
X040717Y046176D01*
X040707Y046174D01*
X040698Y046171D01*
X040692Y046169D01*
X040686Y046167D01*
X040684Y046166D01*
X040682D01*
X040666Y046157D01*
X040654Y046148D01*
X040647Y046141D01*
X040644Y046139D01*
Y046138D01*
X040635Y046123D01*
X040631Y046109D01*
X04063Y046103D01*
Y046097D01*
Y046094D01*
Y046093D01*
Y04608D01*
X040633Y046068D01*
X040634Y046058D01*
X040637Y046049D01*
X04064Y046043D01*
X040641Y046039D01*
X040644Y046036D01*
Y046034D01*
X040657Y046021D01*
X04067Y046013D01*
X040676Y046008D01*
X040682Y046005D01*
X040685Y046004D01*
X040686D01*
X040707Y045997D01*
X040729Y045992D01*
X040738Y045991D01*
X040745Y045989D01*
X040751D01*
X04078Y045988D01*
X040794D01*
X040809Y045986D01*
X040892Y045986D01*
Y045819D01*
X040786Y045819D01*
X040775Y045817D01*
X040759D01*
X040743Y045816D01*
X040729Y045814D01*
X040717Y045813D01*
X040705Y045811D01*
X040697Y045808D01*
X040691Y045807D01*
X040686Y045806D01*
X040685D01*
X040665Y045797D01*
X040649Y045787D01*
X040643Y045781D01*
X040638Y045778D01*
X040637Y045775D01*
X040635Y045773D01*
X040628Y045765D01*
X040624Y045754D01*
X040618Y045734D01*
X040617Y045725D01*
X040615Y045718D01*
Y045712D01*
Y045711D01*
Y045695D01*
X040618Y045682D01*
X040619Y045671D01*
X040622Y045661D01*
X040625Y045654D01*
X040627Y04565D01*
X04063Y045647D01*
Y045645D01*
X040641Y045631D01*
X040654Y045617D01*
X040663Y04561D01*
X040666Y045609D01*
X040668Y045607D01*
X040691Y045594D01*
X040714Y045587D01*
X040724Y045584D01*
X040733Y045582D01*
X040739Y045581D01*
X04074D01*
X040771Y045578D01*
X040784Y045577D01*
X040796D01*
X040806Y045575D01*
X040819D01*
X040842Y045577D01*
X040867Y04558D01*
X040891Y045582D01*
X040912Y045587D01*
X04093Y045591D01*
X040945Y045596D01*
X04095Y045597D01*
X040955D01*
X040956Y045598D01*
X040958D01*
X040985Y045609D01*
X04101Y045617D01*
X041032Y045628D01*
X041051Y045636D01*
X041067Y045645D01*
X041079Y045651D01*
X041086Y045655D01*
X041089Y045657D01*
X041112D01*
Y045448D01*
X041092Y045441D01*
X041068Y045432D01*
X041047Y045426D01*
X041025Y045421D01*
X041006Y045416D01*
X04099Y045412D01*
X040984Y04541D01*
X04098D01*
X040978Y045409D01*
X040977D01*
X040943Y045403D01*
X04091Y045399D01*
X040876Y045394D01*
X040844Y045393D01*
X040816Y045391D01*
X040805Y04539D01*
X040775D01*
X040739Y045391D01*
X040705Y045393D01*
X040676Y045396D01*
X04065Y0454D01*
X04063Y045405D01*
X040615Y045407D01*
X040609Y045409D01*
X040605D01*
X040603Y04541D01*
X040602D01*
X040576Y045419D01*
X040551Y045429D01*
X04053Y04544D01*
X040512Y04545D01*
X040497Y045459D01*
X040485Y045466D01*
X040479Y04547D01*
X040477Y045472D01*
X040458Y045488D01*
X040442Y045504D01*
X040427Y045521D01*
X040417Y045536D01*
X040408Y045549D01*
X040401Y045561D01*
X040398Y045566D01*
X040396Y045569D01*
X040388Y045591D01*
X04038Y045613D01*
X040376Y045635D01*
X040372Y045654D01*
X04037Y04567D01*
X040369Y045683D01*
Y045692D01*
Y045695D01*
X04037Y045715D01*
X040372Y045734D01*
X040374Y04575D01*
X040377Y045763D01*
X040382Y045773D01*
X040385Y045782D01*
X040386Y045787D01*
X040388Y045788D01*
X040404Y045813D01*
X040411Y045824D01*
X04042Y045833D01*
X040427Y045841D01*
X040431Y045846D01*
X040436Y045849D01*
X040437Y045851D01*
X040459Y045867D01*
X040481Y045878D01*
X04049Y045883D01*
X040497Y045886D01*
X040501Y045889D01*
X040503D01*
X040529Y045897D01*
X040541Y0459D01*
X040551Y045902D01*
X04056Y045905D01*
X040565D01*
X04057Y045906D01*
X040571D01*
Y045916D01*
X040542Y045924D01*
X040517Y045935D01*
X040496Y045948D01*
X040477Y045962D01*
X040462Y045973D01*
X040452Y045983D01*
X040444Y045991D01*
X040443Y045994D01*
X040427Y046018D01*
X040414Y046042D01*
X040405Y046065D01*
X040399Y046087D01*
X040396Y046106D01*
X040393Y04612D01*
Y046126D01*
Y046131D01*
Y046132D01*
Y046134D01*
X040395Y046155D01*
X040398Y046174D01*
X040402Y046193D01*
X040407Y046208D01*
X040411Y04622D01*
X040415Y04623D01*
X040418Y046236D01*
X04042Y046237D01*
X04043Y046253D01*
X040442Y046268D01*
X040455Y046281D01*
X040468Y046291D01*
X040479Y0463D01*
X040488Y046307D01*
X040494Y046311D01*
X040497Y046313D01*
X040514Y046322D01*
X040532Y04633D01*
X040551Y046336D01*
X040568Y046342D01*
X040584Y046348D01*
X040596Y046351D01*
X040605Y046354D01*
X040608D01*
X040634Y04636D01*
X04066Y046362D01*
X040686Y046365D01*
X040711Y046368D01*
X040732D01*
X040749Y04637D01*
X040764D01*
X040797Y046368D01*
D02*
G37*
G36*
X044989Y045409D02*
X044746D01*
Y045824D01*
X044387D01*
Y045409D01*
X044143D01*
Y046351D01*
X044387D01*
Y046007D01*
X044746D01*
Y046351D01*
X044989D01*
Y045409D01*
D02*
G37*
G36*
X053482Y045762D02*
Y045409D01*
X053238D01*
Y045772D01*
X052891Y046351D01*
X05316D01*
X053355Y045986D01*
X053558Y046351D01*
X053835D01*
X053482Y045762D01*
D02*
G37*
G36*
X048322Y045409D02*
X048093D01*
Y046039D01*
X04792Y045631D01*
X047751D01*
X047576Y046039D01*
Y045409D01*
X047332D01*
Y046351D01*
X047616D01*
X047828Y045878D01*
X048041Y046351D01*
X048322D01*
Y045409D01*
D02*
G37*
G36*
X056249Y045409D02*
X056026D01*
Y046055D01*
X055625Y045409D01*
X05539D01*
Y046351D01*
X055613D01*
Y04581D01*
X055959Y046351D01*
X056249D01*
Y045409D01*
D02*
G37*
G36*
X04942Y045409D02*
X049197D01*
Y046055D01*
X048796Y045409D01*
X048561D01*
Y046351D01*
X048784D01*
Y04581D01*
X04913Y046351D01*
X04942D01*
Y045409D01*
D02*
G37*
G36*
X046087Y045409D02*
X045864D01*
Y046055D01*
X045463Y045409D01*
X045228D01*
Y046351D01*
X045451D01*
Y04581D01*
X045797Y046351D01*
X046087D01*
Y045409D01*
D02*
G37*
G36*
X043222D02*
X042951D01*
X042605Y046351D01*
X042855D01*
X043083Y045686D01*
X043312Y046351D01*
X043566D01*
X043222Y045409D01*
D02*
G37*
G36*
X05688Y046368D02*
X056921Y046364D01*
X056962Y046357D01*
X056999Y046349D01*
X057032Y046338D01*
X057064Y046327D01*
X057092Y046314D01*
X057118Y046303D01*
X057141Y04629D01*
X05716Y046276D01*
X057178Y046266D01*
X057193Y046256D01*
X057203Y046247D01*
X057211Y04624D01*
X057216Y046236D01*
X057217Y046234D01*
X057242Y046208D01*
X057263Y04618D01*
X057281Y046153D01*
X057296Y046122D01*
X057309Y046093D01*
X057321Y046064D01*
X05733Y046034D01*
X057337Y046008D01*
X057343Y045982D01*
X057347Y045957D01*
X05735Y045937D01*
X057351Y045918D01*
X057353Y045902D01*
X057354Y045892D01*
Y045884D01*
Y045881D01*
X057353Y045839D01*
X057349Y0458D01*
X057341Y045762D01*
X057332Y045728D01*
X057322Y045695D01*
X057312Y045666D01*
X057299Y045639D01*
X057286Y045615D01*
X057274Y045593D01*
X057261Y045574D01*
X057251Y045558D01*
X057239Y045545D01*
X057232Y045533D01*
X057225Y045526D01*
X05722Y045521D01*
X057219Y04552D01*
X057193Y045496D01*
X057163Y045477D01*
X057134Y04546D01*
X057102Y045445D01*
X057071Y045432D01*
X057039Y045422D01*
X057009Y045413D01*
X05698Y045406D01*
X056952Y0454D01*
X056926Y045397D01*
X056902Y045394D01*
X056882Y045391D01*
X056866D01*
X056853Y04539D01*
X056843D01*
X056803Y045391D01*
X056767Y045394D01*
X056732Y045397D01*
X0567Y045402D01*
X056687Y045405D01*
X056673Y045406D01*
X056663Y045407D01*
X056653Y04541D01*
X056646Y045412D01*
X05664D01*
X056637Y045413D01*
X056636D01*
X056598Y045422D01*
X056564Y045432D01*
X056536Y04544D01*
X056512Y045447D01*
X056493Y045454D01*
X056478Y045459D01*
X056469Y045461D01*
X056466Y045463D01*
Y045928D01*
X056901D01*
Y04575D01*
X056713D01*
Y045565D01*
X056724Y045564D01*
X056776D01*
X056805Y045565D01*
X056832Y045566D01*
X056859Y045571D01*
X056882Y045577D01*
X056904Y045582D01*
X056924Y04559D01*
X056942Y045597D01*
X056959Y045604D01*
X056972Y045612D01*
X056985Y045619D01*
X056996Y045626D01*
X057004Y045632D01*
X057012Y045638D01*
X057016Y045642D01*
X057019Y045644D01*
X05702Y045645D01*
X057035Y045661D01*
X057047Y045679D01*
X057058Y045698D01*
X057067Y045718D01*
X057082Y045757D01*
X057092Y045795D01*
X057095Y045814D01*
X057098Y04583D01*
X057099Y045845D01*
X057101Y045858D01*
X057102Y04587D01*
Y045877D01*
Y045883D01*
Y045884D01*
X057101Y045912D01*
X057099Y045937D01*
X057095Y04596D01*
X05709Y04598D01*
X057088Y045997D01*
X057083Y046008D01*
X057082Y046015D01*
X05708Y046018D01*
X057071Y04604D01*
X05706Y046059D01*
X05705Y046075D01*
X057039Y04609D01*
X057031Y046101D01*
X057023Y046109D01*
X057019Y046115D01*
X057018Y046116D01*
X057002Y046131D01*
X056985Y046142D01*
X056969Y046153D01*
X056955Y04616D01*
X056942Y046166D01*
X056932Y046171D01*
X056926Y046173D01*
X056923Y046174D01*
X056902Y04618D01*
X056882Y046186D01*
X056863Y046189D01*
X056844Y04619D01*
X056829Y046192D01*
X056816Y046193D01*
X056786D01*
X056767Y04619D01*
X056749Y046189D01*
X056733Y046186D01*
X05672Y046183D01*
X056711Y046182D01*
X056704Y046179D01*
X056703D01*
X056685Y046173D01*
X056668Y046167D01*
X056653Y046161D01*
X056641Y046155D01*
X056631Y046151D01*
X056622Y046147D01*
X056618Y046145D01*
X056617Y046144D01*
X056593Y046129D01*
X056582Y046123D01*
X056571Y046116D01*
X056563Y04611D01*
X056557Y046106D01*
X056552Y046103D01*
X056551Y046101D01*
X056539Y046093D01*
X056528Y046085D01*
X056519Y04608D01*
X056512Y046075D01*
X056506Y046071D01*
X056501Y046068D01*
X0565Y046065D01*
X056471D01*
Y046285D01*
X056509Y046303D01*
X056544Y046317D01*
X056576Y046329D01*
X056603Y046338D01*
X056627Y046344D01*
X056636Y046346D01*
X056644Y046349D01*
X05665Y046351D01*
X056655D01*
X056657Y046352D01*
X056659D01*
X056691Y046358D01*
X056722Y046362D01*
X056751Y046365D01*
X056778Y046368D01*
X056802D01*
X056811Y04637D01*
X056835D01*
X05688Y046368D01*
D02*
G37*
G36*
X06089Y045409D02*
X060559D01*
X060518Y04541D01*
X06048Y045412D01*
X060447Y045415D01*
X060419Y045418D01*
X060406Y045419D01*
X060396Y045421D01*
X060386D01*
X060378Y045422D01*
X060372Y045424D01*
X060368Y045425D01*
X060364D01*
X060333Y045432D01*
X060305Y045441D01*
X060279Y045451D01*
X060257Y04546D01*
X060238Y045469D01*
X060224Y045476D01*
X060215Y045482D01*
X060213Y045483D01*
X060212D01*
X060178Y045507D01*
X060149Y045531D01*
X060123Y045558D01*
X060101Y045584D01*
X060084Y045607D01*
X060076Y045616D01*
X060071Y045625D01*
X060066Y045632D01*
X060063Y045638D01*
X06006Y045641D01*
Y045642D01*
X06004Y045683D01*
X060025Y045724D01*
X060014Y045763D01*
X060006Y0458D01*
X060004Y045816D01*
X060002Y045832D01*
X060001Y045845D01*
Y045857D01*
X059999Y045865D01*
Y045873D01*
Y045877D01*
Y045878D01*
X060002Y045928D01*
X060008Y045973D01*
X060017Y046014D01*
X060022Y046032D01*
X060027Y046049D01*
X060033Y046064D01*
X060039Y046077D01*
X060043Y046088D01*
X060047Y046099D01*
X06005Y046106D01*
X060053Y046112D01*
X060056Y046115D01*
Y046116D01*
X060078Y046153D01*
X060103Y046183D01*
X060129Y046211D01*
X060154Y046234D01*
X060176Y046252D01*
X060184Y046259D01*
X060193Y046266D01*
X0602Y046271D01*
X060205Y046274D01*
X060208Y046276D01*
X060209D01*
X060231Y04629D01*
X060256Y0463D01*
X060279Y046309D01*
X060301Y046317D01*
X060321Y046323D01*
X060336Y046327D01*
X060342Y046329D01*
X060346D01*
X060349Y04633D01*
X060351D01*
X060383Y046338D01*
X060416Y046342D01*
X06045Y046346D01*
X06048Y046348D01*
X060508Y046349D01*
X06052Y046351D01*
X06089D01*
Y045409D01*
D02*
G37*
G36*
X059814D02*
X059132D01*
Y045591D01*
X059571D01*
Y045824D01*
X059164D01*
Y046007D01*
X059571D01*
Y046169D01*
X059132D01*
Y046351D01*
X059814D01*
Y045409D01*
D02*
G37*
G36*
X05805Y046183D02*
X057895Y046183D01*
Y045577D01*
X05805Y045577D01*
Y045409D01*
X057497Y045409D01*
Y045577D01*
X057652D01*
Y046183D01*
X057497D01*
Y046351D01*
X05805Y046351D01*
Y046183D01*
D02*
G37*
G36*
X054708Y045409D02*
X054297D01*
X05426Y04541D01*
X054227Y045412D01*
X054199Y045415D01*
X054174Y045418D01*
X054154Y045421D01*
X054139Y045424D01*
X054135Y045425D01*
X054131Y045426D01*
X054128D01*
X054103Y045434D01*
X05408Y045442D01*
X054059Y045453D01*
X054042Y045463D01*
X054026Y045472D01*
X054016Y045477D01*
X054008Y045483D01*
X054005Y045485D01*
X053988Y045499D01*
X053973Y045514D01*
X05396Y045529D01*
X05395Y045543D01*
X053941Y045555D01*
X053934Y045565D01*
X053931Y045571D01*
X05393Y045574D01*
X053921Y045594D01*
X053913Y045616D01*
X053909Y045636D01*
X053905Y045655D01*
X053903Y045671D01*
X053902Y045685D01*
Y045693D01*
Y045695D01*
Y045696D01*
X053905Y04573D01*
X053911Y04576D01*
X053919Y045787D01*
X05393Y045807D01*
X05394Y045824D01*
X053948Y045838D01*
X053954Y045845D01*
X053957Y045848D01*
X053979Y045868D01*
X054002Y045884D01*
X054027Y045897D01*
X054051Y045908D01*
X054071Y045915D01*
X054088Y045921D01*
X054094Y045922D01*
X054099D01*
X054102Y045924D01*
X054103D01*
Y045929D01*
X05408Y045941D01*
X054059Y045954D01*
X054042Y045969D01*
X054027Y045982D01*
X054016Y045994D01*
X054008Y046002D01*
X054002Y046008D01*
X054001Y046011D01*
X053989Y046032D01*
X053981Y046052D01*
X053973Y046072D01*
X053969Y046091D01*
X053966Y046107D01*
X053965Y046119D01*
Y046128D01*
Y046131D01*
X053966Y046153D01*
X053969Y046173D01*
X053973Y04619D01*
X053978Y046205D01*
X053983Y046218D01*
X053988Y046228D01*
X053991Y046234D01*
X053992Y046236D01*
X054002Y046252D01*
X054016Y046266D01*
X054029Y046279D01*
X054042Y04629D01*
X054053Y046298D01*
X054062Y046304D01*
X054068Y046307D01*
X054071Y046309D01*
X05409Y046317D01*
X054109Y046325D01*
X054128Y04633D01*
X054142Y046335D01*
X054157Y046339D01*
X054167Y046341D01*
X054173Y046342D01*
X054176D01*
X054186Y046344D01*
X054198Y046345D01*
X054224Y046348D01*
X054252Y046349D01*
X054279D01*
X054304Y046351D01*
X054708D01*
Y045409D01*
D02*
G37*
G36*
X052416Y046169D02*
X052122Y046169D01*
Y045409D01*
X051878D01*
Y046169D01*
X051584D01*
Y046351D01*
X052416Y046351D01*
Y046169D01*
D02*
G37*
G36*
X051439Y045409D02*
X051196D01*
Y045754D01*
X051086D01*
X05083Y045409D01*
X050531D01*
X050846Y045811D01*
X050814Y045829D01*
X050788Y045846D01*
X050763Y045865D01*
X050744Y045883D01*
X050729Y045897D01*
X050718Y045911D01*
X050712Y045918D01*
X050709Y045921D01*
X050693Y045947D01*
X05068Y045976D01*
X050671Y046004D01*
X050665Y046032D01*
X050662Y046055D01*
X050661Y046065D01*
X050659Y046074D01*
Y046081D01*
Y046087D01*
Y04609D01*
Y046091D01*
X050661Y046119D01*
X050664Y046142D01*
X050669Y046164D01*
X050675Y046183D01*
X050681Y046198D01*
X050687Y046208D01*
X05069Y046214D01*
X050691Y046217D01*
X050703Y046236D01*
X050718Y046252D01*
X050732Y046265D01*
X050745Y046278D01*
X050757Y046287D01*
X050767Y046294D01*
X050773Y046298D01*
X050776Y0463D01*
X050796Y04631D01*
X050815Y046319D01*
X050834Y046326D01*
X050852Y046332D01*
X050868Y046336D01*
X050879Y046339D01*
X050887Y046341D01*
X05089D01*
X050913Y046344D01*
X050938Y046346D01*
X050961Y046348D01*
X050983Y046349D01*
X051003Y046351D01*
X051439D01*
Y045409D01*
D02*
G37*
G36*
X050531D02*
X050286D01*
X05022Y045598D01*
X049873D01*
X049808Y045409D01*
X049554D01*
X049903Y046351D01*
X050184D01*
X050531Y045409D01*
D02*
G37*
G36*
X047198D02*
X046953D01*
X046887Y045598D01*
X04654Y045598D01*
X046475Y045409D01*
X046221D01*
X04657Y046351D01*
X046851Y046351D01*
X047198Y045409D01*
D02*
G37*
G36*
X042198Y046339D02*
X042201Y046327D01*
X042204Y046316D01*
X042209Y046307D01*
X042212Y0463D01*
X042214Y046294D01*
X042216Y046291D01*
X042217Y04629D01*
X042225Y046281D01*
X042232Y046272D01*
X042248Y04626D01*
X042254Y046255D01*
X04226Y046252D01*
X042264Y04625D01*
X042266Y046249D01*
X042287Y04624D01*
X042311Y046234D01*
X042321Y046233D01*
X042328Y046231D01*
X042334Y04623D01*
X042335D01*
X042366Y046227D01*
X042381D01*
X042394Y046225D01*
X042422D01*
Y046072D01*
X042223D01*
Y045574D01*
X042422D01*
Y045409D01*
X041793D01*
Y045574D01*
X041987D01*
Y046354D01*
X042197D01*
X042198Y046339D01*
D02*
G37*
G36*
X041554Y045409D02*
X041318D01*
Y045658D01*
X041554D01*
Y045409D01*
D02*
G37*
G36*
X058586Y046368D02*
X05862Y046367D01*
X058651Y046362D01*
X05868Y046357D01*
X058706Y046351D01*
X058731Y046344D01*
X058754Y046335D01*
X058774Y046327D01*
X058793Y04632D01*
X058811Y046311D01*
X058824Y046304D01*
X058836Y046298D01*
X058846Y046293D01*
X058852Y04629D01*
X058856Y046287D01*
X058858Y046285D01*
X058878Y046269D01*
X058895Y046252D01*
X058911Y046234D01*
X058925Y046217D01*
X058936Y046199D01*
X058945Y04618D01*
X058954Y046164D01*
X05896Y046147D01*
X058964Y046131D01*
X058968Y046118D01*
X058971Y046104D01*
X058973Y046093D01*
Y046084D01*
X058974Y046077D01*
Y046072D01*
Y046071D01*
X058971Y046036D01*
X058965Y046004D01*
X058958Y045975D01*
X058948Y045951D01*
X058939Y045931D01*
X05893Y045916D01*
X058928Y045912D01*
X058925Y045908D01*
X058923Y045906D01*
Y045905D01*
X058913Y045893D01*
X058901Y045881D01*
X058874Y045861D01*
X058846Y045843D01*
X058817Y045829D01*
X058792Y045817D01*
X05878Y045811D01*
X05877Y045808D01*
X058763Y045806D01*
X058757Y045803D01*
X058753Y045801D01*
X058751D01*
X058712Y045789D01*
X058693Y045784D01*
X058675Y045781D01*
X058662Y045776D01*
X058651Y045773D01*
X058643Y045772D01*
X05864D01*
X058618Y045768D01*
X058597Y045765D01*
X058578Y04576D01*
X058562Y045756D01*
X058547Y045753D01*
X058535Y045752D01*
X05853Y045749D01*
X058527D01*
X058509Y045744D01*
X058493Y045738D01*
X058481Y045733D01*
X05847Y045727D01*
X058461Y045722D01*
X058455Y045718D01*
X058452Y045715D01*
X058451Y045714D01*
X058442Y045705D01*
X058435Y045696D01*
X05843Y045687D01*
X058426Y045679D01*
X058425Y045671D01*
X058423Y045667D01*
Y045663D01*
Y045661D01*
X058425Y04565D01*
X058426Y045639D01*
X058429Y045631D01*
X058432Y045623D01*
X058436Y045617D01*
X058439Y045613D01*
X058441Y045612D01*
X058442Y04561D01*
X058457Y045598D01*
X058471Y04559D01*
X058477Y045585D01*
X058483Y045582D01*
X058486Y045581D01*
X058487D01*
X058506Y045575D01*
X058525Y045571D01*
X058534Y045569D01*
X058541D01*
X058546Y045568D01*
X058547D01*
X05856Y045566D01*
X058582D01*
X058589Y045565D01*
X058605D01*
X058637Y045566D01*
X058669Y045569D01*
X0587Y045575D01*
X058728Y045581D01*
X058751Y045587D01*
X05876Y04559D01*
X058769Y045593D01*
X058776Y045594D01*
X05878Y045596D01*
X058783Y045597D01*
X058785D01*
X058818Y04561D01*
X05885Y045625D01*
X058879Y045641D01*
X058904Y045655D01*
X058925Y04567D01*
X058941Y04568D01*
X058946Y045685D01*
X058951Y045687D01*
X058952Y04569D01*
X05898D01*
Y045463D01*
X058923Y045442D01*
X058895Y045434D01*
X058871Y045426D01*
X058849Y045421D01*
X058833Y045416D01*
X058827Y045413D01*
X058823D01*
X05882Y045412D01*
X058818D01*
X058785Y045405D01*
X05875Y0454D01*
X058715Y045396D01*
X058683Y045394D01*
X058655Y045393D01*
X058643Y045391D01*
X058614D01*
X058578Y045393D01*
X058543Y045396D01*
X058509Y045399D01*
X058478Y045405D01*
X058449Y045412D01*
X058423Y045419D01*
X0584Y045426D01*
X058378Y045435D01*
X058359Y045442D01*
X058341Y04545D01*
X058327Y045457D01*
X058315Y045464D01*
X058305Y04547D01*
X058299Y045473D01*
X058295Y045476D01*
X058293Y045477D01*
X058273Y045495D01*
X058254Y045512D01*
X058238Y045531D01*
X058225Y04555D01*
X058213Y045569D01*
X058203Y045588D01*
X058196Y045606D01*
X058188Y045625D01*
X058184Y045641D01*
X05818Y045655D01*
X058177Y04567D01*
X058175Y045682D01*
Y045692D01*
X058174Y045699D01*
Y045703D01*
Y045705D01*
X058177Y04574D01*
X058182Y045771D01*
X05819Y045798D01*
X0582Y045822D01*
X05821Y045839D01*
X058217Y045852D01*
X058223Y045861D01*
X058226Y045864D01*
X058248Y045886D01*
X058273Y045905D01*
X058299Y045921D01*
X058325Y045935D01*
X058349Y045946D01*
X05836Y04595D01*
X058369Y045954D01*
X058376Y045957D01*
X058382Y045959D01*
X058385Y04596D01*
X058387D01*
X058407Y045966D01*
X058426Y045972D01*
X058443Y045976D01*
X05846Y04598D01*
X058473Y045983D01*
X058481Y045986D01*
X058487Y045988D01*
X05849D01*
X058525Y045995D01*
X058543Y045999D01*
X058557Y046002D01*
X05857Y046005D01*
X058581Y046008D01*
X058586Y04601D01*
X058589D01*
X058617Y046015D01*
X058639Y046021D01*
X058658Y046027D01*
X058672Y046033D01*
X058684Y046037D01*
X058691Y046042D01*
X058696Y046043D01*
X058697Y046045D01*
X058706Y046053D01*
X058713Y046062D01*
X058718Y046072D01*
X058722Y046081D01*
X058723Y04609D01*
X058725Y046097D01*
Y046101D01*
Y046103D01*
X058723Y046112D01*
X058722Y04612D01*
X058716Y046134D01*
X058713Y046139D01*
X05871Y046144D01*
X058707Y046145D01*
Y046147D01*
X058693Y04616D01*
X05868Y046169D01*
X058674Y046171D01*
X058669Y046174D01*
X058667Y046176D01*
X058665D01*
X058645Y046183D01*
X058626Y046189D01*
X058618Y04619D01*
X058613D01*
X05861Y046192D01*
X058608D01*
X058586Y046195D01*
X058566Y046196D01*
X058547D01*
X058515Y046195D01*
X058484Y046192D01*
X058455Y046186D01*
X05843Y046182D01*
X058408Y046176D01*
X0584Y046173D01*
X058392Y04617D01*
X058387Y046169D01*
X058382Y046167D01*
X058379Y046166D01*
X058378D01*
X058347Y046154D01*
X058321Y046141D01*
X058298Y046128D01*
X058277Y046116D01*
X05826Y046106D01*
X058248Y046097D01*
X058241Y046091D01*
X058238Y04609D01*
X058212D01*
Y046306D01*
X058238Y046316D01*
X058264Y046325D01*
X058292Y046332D01*
X058317Y046339D01*
X058338Y046344D01*
X058347Y046346D01*
X058355Y046348D01*
X058362Y046349D01*
X058366D01*
X058369Y046351D01*
X058371D01*
X058404Y046357D01*
X058438Y046362D01*
X058468Y046365D01*
X058496Y046367D01*
X058519Y046368D01*
X058528Y04637D01*
X058553D01*
X058586Y046368D01*
D02*
G37*
G36*
X041178Y047099D02*
X040934D01*
Y047514D01*
X040576Y047514D01*
Y047099D01*
X040332D01*
Y048041D01*
X040576D01*
Y047697D01*
X040934Y047697D01*
Y048041D01*
X041178D01*
Y047099D01*
D02*
G37*
G36*
X050671Y047452D02*
Y047099D01*
X050427D01*
Y047462D01*
X05008Y048041D01*
X050349D01*
X050544Y047676D01*
X050747Y048041D01*
X051024D01*
X050671Y047452D01*
D02*
G37*
G36*
X058072Y047099D02*
X057843Y047099D01*
Y047729D01*
X057669Y047321D01*
X0575D01*
X057325Y047729D01*
Y047099D01*
X057082D01*
Y048041D01*
X057366D01*
X057577Y047568D01*
X05779Y048041D01*
X058072Y048041D01*
Y047099D01*
D02*
G37*
G36*
X053145Y047099D02*
X052916D01*
Y047729D01*
X052743Y047321D01*
X052574D01*
X052399Y047729D01*
Y047099D01*
X052155Y047099D01*
Y048041D01*
X052439Y048041D01*
X052651Y047568D01*
X052864Y048041D01*
X053145D01*
Y047099D01*
D02*
G37*
G36*
X047472Y047099D02*
X047249D01*
Y047745D01*
X046848Y047099D01*
X046613D01*
Y048041D01*
X046836D01*
Y0475D01*
X047182Y048041D01*
X047472D01*
Y047099D01*
D02*
G37*
G36*
X042276Y047099D02*
X042053D01*
Y047745D01*
X041652Y047099D01*
X041417D01*
Y048041D01*
X04164D01*
Y0475D01*
X041986Y048041D01*
X042276D01*
Y047099D01*
D02*
G37*
G36*
X049125Y048058D02*
X049162Y048054D01*
X049195Y048048D01*
X049225Y048042D01*
X049238Y048039D01*
X049249Y048036D01*
X04926Y048034D01*
X049268Y048031D01*
X049276Y048028D01*
X04928Y048026D01*
X049283Y048025D01*
X049284D01*
X049316Y048012D01*
X049346Y047996D01*
X049372Y04798D01*
X049394Y047964D01*
X049411Y04795D01*
X049424Y047939D01*
X049433Y047931D01*
X049434Y04793D01*
X049436Y047929D01*
X049458Y047902D01*
X049478Y047876D01*
X049496Y04785D01*
X049509Y047825D01*
X049519Y047803D01*
X049523Y047794D01*
X049528Y047787D01*
X049531Y04778D01*
X049532Y047775D01*
X049534Y047773D01*
Y047771D01*
X049544Y047736D01*
X049553Y047701D01*
X049558Y047668D01*
X049561Y047635D01*
X049564Y047609D01*
Y047598D01*
X049566Y047587D01*
Y04758D01*
Y047573D01*
Y04757D01*
Y047568D01*
X049564Y047525D01*
X04956Y047484D01*
X049554Y047447D01*
X049548Y047417D01*
X049545Y047404D01*
X049542Y047391D01*
X049539Y04738D01*
X049537Y047372D01*
X049534Y047364D01*
X049532Y04736D01*
X049531Y047357D01*
Y047356D01*
X049516Y047322D01*
X0495Y047293D01*
X049484Y047267D01*
X049468Y047245D01*
X049455Y047227D01*
X049443Y047214D01*
X049436Y047205D01*
X049433Y047204D01*
Y047202D01*
X049408Y047181D01*
X049382Y047162D01*
X049356Y047147D01*
X049332Y047134D01*
X049312Y047124D01*
X049295Y047116D01*
X049289Y047114D01*
X049284Y047112D01*
X049281Y047111D01*
X04928D01*
X049246Y0471D01*
X049211Y047093D01*
X049179Y047087D01*
X04915Y047084D01*
X049124Y047081D01*
X049114D01*
X049104Y04708D01*
X049061D01*
X049038Y047081D01*
X049019Y047083D01*
X049004Y047084D01*
X048991D01*
X048983Y047086D01*
X048977Y047087D01*
X048975D01*
X048945Y047093D01*
X04893Y047096D01*
X048915Y047099D01*
X048905Y047102D01*
X048895Y047105D01*
X048889Y047106D01*
X048888D01*
X048863Y047114D01*
X048851Y047118D01*
X048841Y047122D01*
X048832Y047125D01*
X048827Y047128D01*
X048822Y04713D01*
X048821D01*
X048796Y047141D01*
X048784Y047146D01*
X048774Y04715D01*
X048765Y047154D01*
X048758Y047157D01*
X048754Y04716D01*
X048752D01*
Y047386D01*
X048778D01*
X048793Y047373D01*
X048806Y047361D01*
X048813Y047357D01*
X048818Y047353D01*
X048821Y047351D01*
X048822Y04735D01*
X048843Y047335D01*
X04886Y047322D01*
X048867Y047318D01*
X048873Y047313D01*
X048878Y047312D01*
X048879Y04731D01*
X048907Y047296D01*
X04892Y04729D01*
X048933Y047284D01*
X048943Y047281D01*
X048952Y047278D01*
X048958Y047275D01*
X048959D01*
X048991Y047268D01*
X049006Y047265D01*
X049019Y047264D01*
X049031D01*
X049039Y047262D01*
X049047D01*
X049082Y047265D01*
X049098Y047267D01*
X049111Y04727D01*
X049124Y047272D01*
X049133Y047274D01*
X049139Y047277D01*
X049141D01*
X049159Y047283D01*
X049175Y047291D01*
X049188Y047299D01*
X049201Y047307D01*
X049211Y047315D01*
X049219Y047321D01*
X049225Y047325D01*
X049226Y047326D01*
X049239Y04734D01*
X049252Y047356D01*
X049262Y04737D01*
X049271Y047386D01*
X049278Y047399D01*
X049284Y04741D01*
X049287Y047417D01*
X049289Y04742D01*
X049297Y047443D01*
X049303Y047468D01*
X049308Y047493D01*
X049311Y047516D01*
X049312Y047536D01*
X049313Y047552D01*
Y047558D01*
Y047563D01*
Y047566D01*
Y047567D01*
X049312Y047598D01*
X049311Y047625D01*
X049306Y04765D01*
X049302Y047672D01*
X049299Y047688D01*
X049295Y047701D01*
X049293Y047708D01*
X049292Y047711D01*
X049283Y047733D01*
X049273Y047752D01*
X049262Y047768D01*
X049252Y047781D01*
X049243Y047793D01*
X049236Y0478D01*
X049232Y047806D01*
X04923Y047808D01*
X049216Y047821D01*
X049201Y047831D01*
X049187Y04784D01*
X049174Y047847D01*
X049162Y047853D01*
X049153Y047857D01*
X049147Y04786D01*
X049146D01*
X049128Y047866D01*
X049111Y04787D01*
X049095Y047873D01*
X049079Y047876D01*
X049067D01*
X049057Y047878D01*
X049048D01*
X049015Y047875D01*
X049Y047873D01*
X048987Y04787D01*
X048977Y047867D01*
X048969Y047866D01*
X048964Y047863D01*
X048962D01*
X048933Y047851D01*
X04892Y047845D01*
X048908Y04784D01*
X048899Y047835D01*
X048892Y047831D01*
X048888Y047829D01*
X048886Y047828D01*
X048863Y047813D01*
X048853Y047806D01*
X048844Y0478D01*
X048837Y047794D01*
X048831Y047792D01*
X048828Y047789D01*
X048827Y047787D01*
X048808Y047773D01*
X048793Y047762D01*
X048789Y047758D01*
X048784Y047755D01*
X048783Y047752D01*
X048752D01*
Y047981D01*
X048773Y04799D01*
X048793Y047999D01*
X0488Y048001D01*
X048808Y048004D01*
X048812Y048007D01*
X048813D01*
X04884Y048019D01*
X048853Y048023D01*
X048864Y048028D01*
X048876Y048031D01*
X048883Y048034D01*
X048889Y048035D01*
X048891D01*
X048921Y048042D01*
X048936Y048045D01*
X048949Y048048D01*
X048961Y04805D01*
X048969Y048051D01*
X048975Y048052D01*
X048978D01*
X049015Y048057D01*
X049034Y048058D01*
X04905D01*
X049064Y04806D01*
X049086D01*
X049125Y048058D01*
D02*
G37*
G36*
X060416Y048058D02*
X060457Y048054D01*
X060498Y048047D01*
X060534Y048039D01*
X060568Y048028D01*
X0606Y048017D01*
X060628Y048004D01*
X060654Y047993D01*
X060677Y04798D01*
X060696Y047966D01*
X060714Y047956D01*
X060728Y047946D01*
X060738Y047937D01*
X060747Y04793D01*
X060751Y047926D01*
X060753Y047924D01*
X060778Y047898D01*
X060798Y04787D01*
X060817Y047843D01*
X060832Y047812D01*
X060845Y047783D01*
X060856Y047754D01*
X060865Y047724D01*
X060873Y047698D01*
X060878Y047672D01*
X060883Y047647D01*
X060886Y047627D01*
X060887Y047608D01*
X060889Y047592D01*
X06089Y047582D01*
Y047574D01*
Y047571D01*
X060889Y047529D01*
X060884Y04749D01*
X060877Y047452D01*
X060868Y047418D01*
X060858Y047385D01*
X060848Y047356D01*
X060835Y047329D01*
X060821Y047305D01*
X06081Y047283D01*
X060797Y047264D01*
X060786Y047248D01*
X060775Y047235D01*
X060768Y047223D01*
X06076Y047216D01*
X060756Y047211D01*
X060754Y04721D01*
X060728Y047186D01*
X060699Y047167D01*
X06067Y04715D01*
X060638Y047135D01*
X060607Y047122D01*
X060575Y047112D01*
X060544Y047103D01*
X060515Y047096D01*
X060488Y04709D01*
X060461Y047087D01*
X060438Y047084D01*
X060418Y047081D01*
X060402D01*
X060388Y04708D01*
X060378D01*
X060339Y047081D01*
X060302Y047084D01*
X060267Y047087D01*
X060235Y047092D01*
X060222Y047095D01*
X060209Y047096D01*
X060199Y047098D01*
X060189Y0471D01*
X060181Y047102D01*
X060176D01*
X060173Y047103D01*
X060171D01*
X060133Y047112D01*
X0601Y047122D01*
X060072Y04713D01*
X060047Y047137D01*
X060028Y047144D01*
X060014Y047149D01*
X060005Y047151D01*
X060002Y047153D01*
Y047618D01*
X060437D01*
Y04744D01*
X060248D01*
Y047255D01*
X06026Y047253D01*
X060311D01*
X06034Y047255D01*
X060368Y047256D01*
X060394Y047261D01*
X060418Y047267D01*
X060439Y047272D01*
X06046Y04728D01*
X060477Y047287D01*
X060495Y047294D01*
X060508Y047302D01*
X060521Y047309D01*
X060531Y047316D01*
X06054Y047322D01*
X060547Y047328D01*
X060552Y047332D01*
X060555Y047334D01*
X060556Y047335D01*
X060571Y047351D01*
X060582Y047369D01*
X060594Y047388D01*
X060603Y047408D01*
X060617Y047447D01*
X060628Y047485D01*
X06063Y047504D01*
X060633Y04752D01*
X060635Y047535D01*
X060636Y047548D01*
X060638Y04756D01*
Y047567D01*
Y047573D01*
Y047574D01*
X060636Y047602D01*
X060635Y047627D01*
X06063Y04765D01*
X060626Y04767D01*
X060623Y047687D01*
X060619Y047698D01*
X060617Y047705D01*
X060616Y047708D01*
X060607Y04773D01*
X060595Y047749D01*
X060585Y047765D01*
X060575Y04778D01*
X060566Y047792D01*
X060559Y047799D01*
X060555Y047805D01*
X060553Y047806D01*
X060537Y047821D01*
X060521Y047832D01*
X060505Y047843D01*
X060491Y04785D01*
X060477Y047856D01*
X060467Y047861D01*
X060461Y047863D01*
X060458Y047864D01*
X060438Y04787D01*
X060418Y047876D01*
X060399Y047879D01*
X06038Y04788D01*
X060365Y047882D01*
X060352Y047883D01*
X060321D01*
X060302Y04788D01*
X060285Y047879D01*
X060269Y047876D01*
X060256Y047873D01*
X060247Y047872D01*
X06024Y047869D01*
X060238D01*
X060221Y047863D01*
X060203Y047857D01*
X060189Y047851D01*
X060177Y047845D01*
X060167Y047841D01*
X060158Y047837D01*
X060154Y047835D01*
X060152Y047834D01*
X060129Y047819D01*
X060117Y047813D01*
X060107Y047806D01*
X060098Y0478D01*
X060092Y047796D01*
X060088Y047793D01*
X060087Y047792D01*
X060075Y047783D01*
X060063Y047775D01*
X060055Y04777D01*
X060047Y047765D01*
X060041Y047761D01*
X060037Y047758D01*
X060036Y047755D01*
X060006D01*
Y047975D01*
X060044Y047993D01*
X060079Y048007D01*
X060111Y048019D01*
X060139Y048028D01*
X060162Y048034D01*
X060171Y048036D01*
X06018Y048039D01*
X060186Y048041D01*
X06019D01*
X060193Y048042D01*
X060195D01*
X060227Y048048D01*
X060257Y048052D01*
X060286Y048055D01*
X060314Y048058D01*
X060337D01*
X060346Y04806D01*
X060371D01*
X060416Y048058D01*
D02*
G37*
G36*
X045954Y048058D02*
X045995Y048054D01*
X046036Y048047D01*
X046072Y048039D01*
X046106Y048028D01*
X046138Y048017D01*
X046166Y048004D01*
X046192Y047993D01*
X046215Y04798D01*
X046234Y047966D01*
X046252Y047956D01*
X046266Y047946D01*
X046276Y047937D01*
X046285Y04793D01*
X04629Y047926D01*
X046291Y047924D01*
X046316Y047898D01*
X046336Y04787D01*
X046355Y047843D01*
X04637Y047812D01*
X046383Y047783D01*
X046395Y047754D01*
X046403Y047724D01*
X046411Y047698D01*
X046416Y047672D01*
X046421Y047647D01*
X046424Y047627D01*
X046425Y047608D01*
X046427Y047592D01*
X046428Y047582D01*
Y047574D01*
Y047571D01*
X046427Y047529D01*
X046422Y04749D01*
X046415Y047452D01*
X046406Y047418D01*
X046396Y047385D01*
X046386Y047356D01*
X046373Y047329D01*
X04636Y047305D01*
X046348Y047283D01*
X046335Y047264D01*
X046325Y047248D01*
X046313Y047235D01*
X046306Y047223D01*
X046298Y047216D01*
X046294Y047211D01*
X046293Y04721D01*
X046266Y047186D01*
X046237Y047167D01*
X046208Y04715D01*
X046176Y047135D01*
X046145Y047122D01*
X046113Y047112D01*
X046083Y047103D01*
X046053Y047096D01*
X046026Y04709D01*
X045999Y047087D01*
X045976Y047084D01*
X045956Y047081D01*
X04594D01*
X045927Y04708D01*
X045916D01*
X045877Y047081D01*
X045841Y047084D01*
X045806Y047087D01*
X045773Y047092D01*
X04576Y047095D01*
X045747Y047096D01*
X045737Y047097D01*
X045727Y0471D01*
X04572Y047102D01*
X045714D01*
X045711Y047103D01*
X045709D01*
X045671Y047112D01*
X045638Y047122D01*
X04561Y04713D01*
X045585Y047137D01*
X045566Y047144D01*
X045552Y047149D01*
X045543Y047151D01*
X04554Y047153D01*
Y047618D01*
X045975D01*
Y04744D01*
X045787D01*
Y047255D01*
X045798Y047253D01*
X045849D01*
X045878Y047255D01*
X045906Y047256D01*
X045932Y047261D01*
X045956Y047267D01*
X045978Y047272D01*
X045998Y04728D01*
X046015Y047287D01*
X046033Y047294D01*
X046046Y047302D01*
X046059Y047309D01*
X046069Y047316D01*
X046078Y047322D01*
X046085Y047328D01*
X04609Y047332D01*
X046093Y047334D01*
X046094Y047335D01*
X046109Y047351D01*
X04612Y047369D01*
X046132Y047388D01*
X046141Y047408D01*
X046155Y047447D01*
X046166Y047485D01*
X046169Y047504D01*
X046171Y04752D01*
X046173Y047535D01*
X046174Y047548D01*
X046176Y04756D01*
Y047567D01*
Y047573D01*
Y047574D01*
X046174Y047602D01*
X046173Y047627D01*
X046169Y04765D01*
X046164Y04767D01*
X046161Y047687D01*
X046157Y047698D01*
X046155Y047705D01*
X046154Y047708D01*
X046145Y04773D01*
X046134Y047749D01*
X046123Y047765D01*
X046113Y04778D01*
X046104Y047792D01*
X046097Y047799D01*
X046093Y047805D01*
X046091Y047806D01*
X046075Y047821D01*
X046059Y047832D01*
X046043Y047843D01*
X046029Y04785D01*
X046015Y047856D01*
X046005Y047861D01*
X045999Y047863D01*
X045997Y047864D01*
X045976Y04787D01*
X045956Y047876D01*
X045937Y047879D01*
X045918Y04788D01*
X045903Y047882D01*
X04589Y047883D01*
X045859D01*
X045841Y04788D01*
X045823Y047879D01*
X045807Y047876D01*
X045794Y047873D01*
X045785Y047872D01*
X045778Y047869D01*
X045776D01*
X045759Y047863D01*
X045741Y047857D01*
X045727Y047851D01*
X045715Y047845D01*
X045705Y047841D01*
X045696Y047837D01*
X045692Y047835D01*
X04569Y047834D01*
X045667Y047819D01*
X045655Y047813D01*
X045645Y047806D01*
X045636Y0478D01*
X045631Y047796D01*
X045626Y047793D01*
X045625Y047792D01*
X045613Y047783D01*
X045601Y047775D01*
X045593Y04777D01*
X045585Y047765D01*
X04558Y047761D01*
X045575Y047758D01*
X045574Y047755D01*
X045545D01*
Y047975D01*
X045582Y047993D01*
X045617Y048007D01*
X04565Y048019D01*
X045677Y048028D01*
X045701Y048034D01*
X045709Y048036D01*
X045718Y048039D01*
X045724Y048041D01*
X045728D01*
X045731Y048042D01*
X045733D01*
X045765Y048048D01*
X045795Y048052D01*
X045824Y048055D01*
X045852Y048058D01*
X045876D01*
X045884Y04806D01*
X045909D01*
X045954Y048058D01*
D02*
G37*
G36*
X059827Y047873D02*
X059673D01*
Y047267D01*
X059827D01*
Y047099D01*
X059275D01*
Y047267D01*
X059429D01*
Y047873D01*
X059275D01*
Y048041D01*
X059827D01*
Y047873D01*
D02*
G37*
G36*
X059183Y047099D02*
X058938D01*
X058872Y047288D01*
X058525D01*
X05846Y047099D01*
X058206D01*
X058554Y048041D01*
X058836D01*
X059183Y047099D01*
D02*
G37*
G36*
X055583Y047099D02*
X055338D01*
X055272Y047288D01*
X054925D01*
X05486Y047099D01*
X054606D01*
X054954Y048041D01*
X055236D01*
X055583Y047099D01*
D02*
G37*
G36*
X054565Y047859D02*
X054271D01*
Y047099D01*
X054027D01*
Y047859D01*
X053733D01*
Y048041D01*
X054565D01*
Y047859D01*
D02*
G37*
G36*
X052021Y047099D02*
X051776D01*
X05171Y047288D01*
X051363D01*
X051298Y047099D01*
X051044D01*
X051393Y048041D01*
X051674D01*
X052021Y047099D01*
D02*
G37*
G36*
X044973Y047859D02*
X044679D01*
Y047099D01*
X044435D01*
Y047859D01*
X044141D01*
Y048041D01*
X044973D01*
Y047859D01*
D02*
G37*
G36*
X043996Y047099D02*
X043753D01*
Y047445D01*
X043643D01*
X043387Y047099D01*
X043088D01*
X043403Y047501D01*
X043371Y047519D01*
X043344Y047536D01*
X04332Y047555D01*
X043301Y047573D01*
X043286Y047587D01*
X043274Y0476D01*
X043269Y047608D01*
X043266Y047611D01*
X04325Y047637D01*
X043237Y047666D01*
X043228Y047694D01*
X043222Y047722D01*
X043219Y047745D01*
X043218Y047755D01*
X043216Y047764D01*
Y047771D01*
Y047777D01*
Y04778D01*
Y047781D01*
X043218Y047809D01*
X043221Y047832D01*
X043226Y047854D01*
X043232Y047873D01*
X043238Y047888D01*
X043244Y047898D01*
X043247Y047904D01*
X043248Y047907D01*
X04326Y047926D01*
X043274Y047942D01*
X043289Y047955D01*
X043302Y047968D01*
X043314Y047977D01*
X043324Y047984D01*
X04333Y047988D01*
X043333Y04799D01*
X043353Y048D01*
X043372Y048009D01*
X043391Y048016D01*
X043409Y048022D01*
X043425Y048026D01*
X043436Y048029D01*
X043444Y048031D01*
X043446D01*
X04347Y048034D01*
X043495Y048036D01*
X043518Y048038D01*
X04354Y048039D01*
X04356Y048041D01*
X043996D01*
Y047099D01*
D02*
G37*
G36*
X043025Y047873D02*
X042871D01*
Y047267D01*
X043025D01*
Y047099D01*
X042473D01*
Y047267D01*
X042627D01*
Y047873D01*
X042473D01*
Y048041D01*
X043025D01*
Y047873D01*
D02*
G37*
G36*
X056057Y048058D02*
X05609Y048057D01*
X056121Y048052D01*
X05615Y048047D01*
X056176Y048041D01*
X056201Y048034D01*
X056224Y048025D01*
X056245Y048017D01*
X056264Y04801D01*
X056281Y048001D01*
X056294Y047994D01*
X056306Y047988D01*
X056316Y047983D01*
X056322Y04798D01*
X056326Y047977D01*
X056328Y047975D01*
X056348Y047959D01*
X056366Y047942D01*
X056382Y047924D01*
X056395Y047907D01*
X056407Y047889D01*
X056415Y04787D01*
X056424Y047854D01*
X05643Y047837D01*
X056434Y047821D01*
X056439Y047808D01*
X056442Y047794D01*
X056443Y047783D01*
Y047774D01*
X056445Y047767D01*
Y047762D01*
Y047761D01*
X056442Y047726D01*
X056436Y047694D01*
X056429Y047665D01*
X056418Y047641D01*
X05641Y047621D01*
X056401Y047606D01*
X056398Y047602D01*
X056395Y047598D01*
X056394Y047596D01*
Y047595D01*
X056383Y047583D01*
X056372Y047571D01*
X056344Y047551D01*
X056316Y047533D01*
X056287Y047519D01*
X056262Y047507D01*
X056251Y047501D01*
X05624Y047498D01*
X056233Y047496D01*
X056227Y047493D01*
X056223Y047491D01*
X056221D01*
X056182Y047479D01*
X056163Y047474D01*
X056146Y047471D01*
X056133Y047466D01*
X056121Y047463D01*
X056114Y047462D01*
X056111D01*
X056089Y047458D01*
X056067Y047455D01*
X056048Y04745D01*
X056032Y047446D01*
X056017Y047443D01*
X056006Y047442D01*
X056Y047439D01*
X055997D01*
X055979Y047434D01*
X055963Y047428D01*
X055952Y047423D01*
X05594Y047417D01*
X055931Y047412D01*
X055926Y047408D01*
X055923Y047405D01*
X055921Y047404D01*
X055912Y047395D01*
X055905Y047386D01*
X055901Y047377D01*
X055896Y047369D01*
X055895Y047361D01*
X055893Y047357D01*
Y047353D01*
Y047351D01*
X055895Y04734D01*
X055896Y047329D01*
X055899Y047321D01*
X055902Y047313D01*
X055907Y047307D01*
X055909Y047303D01*
X055911Y047302D01*
X055912Y0473D01*
X055927Y047288D01*
X055942Y04728D01*
X055947Y047275D01*
X055953Y047272D01*
X055956Y047271D01*
X055958D01*
X055977Y047265D01*
X055995Y047261D01*
X056004Y047259D01*
X056012D01*
X056016Y047258D01*
X056017D01*
X05603Y047256D01*
X056052D01*
X05606Y047255D01*
X056076D01*
X056108Y047256D01*
X05614Y047259D01*
X05617Y047265D01*
X056198Y047271D01*
X056221Y047277D01*
X05623Y04728D01*
X056239Y047283D01*
X056246Y047284D01*
X056251Y047286D01*
X056254Y047287D01*
X056255D01*
X056289Y0473D01*
X056321Y047315D01*
X05635Y047331D01*
X056375Y047345D01*
X056395Y04736D01*
X056411Y04737D01*
X056417Y047375D01*
X056421Y047377D01*
X056423Y04738D01*
X05645D01*
Y047153D01*
X056394Y047132D01*
X056366Y047124D01*
X056341Y047116D01*
X056319Y047111D01*
X056303Y047106D01*
X056297Y047103D01*
X056293D01*
X05629Y047102D01*
X056289D01*
X056255Y047095D01*
X05622Y04709D01*
X056185Y047086D01*
X056153Y047084D01*
X056125Y047083D01*
X056114Y047081D01*
X056084D01*
X056048Y047083D01*
X056013Y047086D01*
X055979Y047089D01*
X055949Y047095D01*
X05592Y047102D01*
X055893Y047109D01*
X05587Y047116D01*
X055848Y047125D01*
X055829Y047132D01*
X055812Y04714D01*
X055797Y047147D01*
X055786Y047154D01*
X055775Y04716D01*
X05577Y047163D01*
X055765Y047166D01*
X055764Y047167D01*
X055743Y047185D01*
X055724Y047202D01*
X055708Y047221D01*
X055695Y04724D01*
X055683Y047259D01*
X055673Y047278D01*
X055666Y047296D01*
X055659Y047315D01*
X055654Y047331D01*
X05565Y047345D01*
X055647Y04736D01*
X055646Y047372D01*
Y047382D01*
X055644Y047389D01*
Y047393D01*
Y047395D01*
X055647Y04743D01*
X055653Y047461D01*
X05566Y047488D01*
X05567Y047512D01*
X055681Y047529D01*
X055688Y047542D01*
X055694Y047551D01*
X055697Y047554D01*
X055718Y047576D01*
X055743Y047595D01*
X05577Y047611D01*
X055796Y047625D01*
X055819Y047635D01*
X055831Y04764D01*
X055839Y047644D01*
X055847Y047647D01*
X055853Y047649D01*
X055856Y04765D01*
X055857D01*
X055877Y047656D01*
X055896Y047662D01*
X055914Y047666D01*
X05593Y04767D01*
X055943Y047673D01*
X055952Y047676D01*
X055958Y047678D01*
X05596D01*
X055995Y047685D01*
X056013Y047689D01*
X056028Y047692D01*
X056041Y047695D01*
X056051Y047698D01*
X056057Y0477D01*
X05606D01*
X056087Y047705D01*
X056109Y047711D01*
X056128Y047717D01*
X056143Y047723D01*
X056154Y047727D01*
X056162Y047732D01*
X056166Y047733D01*
X056168Y047735D01*
X056176Y047743D01*
X056184Y047752D01*
X056188Y047762D01*
X056192Y047771D01*
X056194Y04778D01*
X056195Y047787D01*
Y047792D01*
Y047793D01*
X056194Y047802D01*
X056192Y04781D01*
X056186Y047824D01*
X056184Y047829D01*
X056181Y047834D01*
X056178Y047835D01*
Y047837D01*
X056163Y04785D01*
X05615Y047859D01*
X056144Y047861D01*
X05614Y047864D01*
X056137Y047866D01*
X056135D01*
X056115Y047873D01*
X056096Y047879D01*
X056089Y04788D01*
X056083D01*
X05608Y047882D01*
X056079D01*
X056057Y047885D01*
X056036Y047886D01*
X056017D01*
X055985Y047885D01*
X055955Y047882D01*
X055926Y047876D01*
X055901Y047872D01*
X055879Y047866D01*
X05587Y047863D01*
X055863Y04786D01*
X055857Y047859D01*
X055853Y047857D01*
X05585Y047856D01*
X055848D01*
X055818Y047844D01*
X055791Y047831D01*
X055768Y047818D01*
X055748Y047806D01*
X05573Y047796D01*
X055718Y047787D01*
X055711Y047781D01*
X055708Y04778D01*
X055682D01*
Y047996D01*
X055708Y048006D01*
X055735Y048015D01*
X055762Y048022D01*
X055787Y048029D01*
X055809Y048034D01*
X055818Y048036D01*
X055825Y048038D01*
X055832Y048039D01*
X055837D01*
X055839Y048041D01*
X055841D01*
X055874Y048047D01*
X055908Y048052D01*
X055939Y048055D01*
X055966Y048057D01*
X05599Y048058D01*
X055998Y04806D01*
X056023D01*
X056057Y048058D01*
D02*
G37*
G36*
X048185Y048058D02*
X048224Y048054D01*
X048261Y048048D01*
X048294Y048039D01*
X048326Y048029D01*
X048356Y048017D01*
X048383Y048006D01*
X048407Y047994D01*
X048428Y047981D01*
X048447Y047969D01*
X048463Y047958D01*
X048477Y047948D01*
X048487Y047939D01*
X048494Y047933D01*
X048498Y047929D01*
X0485Y047927D01*
X048522Y047901D01*
X048542Y047875D01*
X04856Y047845D01*
X048574Y047816D01*
X048586Y047786D01*
X048596Y047757D01*
X048605Y047727D01*
X048612Y047698D01*
X048618Y047672D01*
X048621Y047647D01*
X048624Y047625D01*
X048627Y047606D01*
Y04759D01*
X048628Y047579D01*
Y047571D01*
Y047568D01*
X048627Y047528D01*
X048622Y047488D01*
X048617Y047452D01*
X048608Y047418D01*
X048599Y047386D01*
X048587Y047357D01*
X048576Y047329D01*
X048564Y047306D01*
X048552Y047284D01*
X048541Y047265D01*
X048529Y047249D01*
X04852Y047236D01*
X048512Y047224D01*
X048506Y047217D01*
X048501Y047213D01*
X0485Y047211D01*
X048475Y047188D01*
X048447Y047167D01*
X048418Y04715D01*
X048389Y047135D01*
X04836Y047122D01*
X048331Y047112D01*
X048302Y047103D01*
X048274Y047096D01*
X048246Y047092D01*
X048223Y047087D01*
X048201Y047084D01*
X048182Y047081D01*
X048166D01*
X048154Y04708D01*
X048144D01*
X048103Y047081D01*
X048064Y047086D01*
X048026Y047092D01*
X047993Y0471D01*
X04796Y047111D01*
X047931Y047122D01*
X047905Y047134D01*
X04788Y047146D01*
X047858Y047157D01*
X047839Y04717D01*
X047823Y047181D01*
X04781Y047191D01*
X0478Y0472D01*
X047793Y047205D01*
X047788Y04721D01*
X047787Y047211D01*
X047764Y047237D01*
X047745Y047265D01*
X047727Y047293D01*
X047713Y047323D01*
X047699Y047353D01*
X047689Y047383D01*
X047681Y047411D01*
X047673Y04744D01*
X047667Y047466D01*
X047664Y047491D01*
X047662Y047513D01*
X047659Y047532D01*
Y047547D01*
X047657Y047558D01*
Y047566D01*
Y047568D01*
X047659Y047611D01*
X047663Y047649D01*
X047669Y047687D01*
X047678Y04772D01*
X047688Y047752D01*
X047698Y047781D01*
X04771Y047809D01*
X047721Y047834D01*
X047734Y047854D01*
X047746Y047873D01*
X047756Y047889D01*
X047767Y047904D01*
X047775Y047914D01*
X047781Y047921D01*
X047786Y047926D01*
X047787Y047927D01*
X047812Y04795D01*
X047839Y047971D01*
X047869Y047988D01*
X047898Y048004D01*
X047927Y048016D01*
X047958Y048028D01*
X047987Y048036D01*
X048014Y048044D01*
X048041Y048048D01*
X048065Y048052D01*
X048087Y048055D01*
X048106Y048058D01*
X048122D01*
X048134Y04806D01*
X048144D01*
X048185Y048058D01*
D02*
G37*
G36*
X011855Y029025D02*
X011798D01*
Y029222D01*
X011855D01*
Y029025D01*
D02*
G37*
G36*
Y02873D02*
X011798D01*
Y028928D01*
X011855D01*
Y02873D01*
D02*
G37*
G36*
X011802Y031585D02*
X011975D01*
Y031533D01*
X011802D01*
Y03136D01*
X011752D01*
Y031533D01*
X011579D01*
Y031585D01*
X011752D01*
Y031758D01*
X011802D01*
Y031585D01*
D02*
G37*
G36*
X011845Y024285D02*
X011788D01*
Y024482D01*
X011845D01*
Y024285D01*
D02*
G37*
G36*
Y02399D02*
X011788D01*
Y024188D01*
X011845D01*
Y02399D01*
D02*
G37*
G36*
X011802Y026335D02*
X011975D01*
Y026283D01*
X011802D01*
Y02611D01*
X011752D01*
Y026283D01*
X011579D01*
Y026335D01*
X011752D01*
Y026508D01*
X011802D01*
Y026335D01*
D02*
G37*
%LPC*%
G36*
X060647Y046174D02*
X060559D01*
X060536Y046173D01*
X060515Y046171D01*
X060499D01*
X060486Y04617D01*
X060477Y046169D01*
X060472Y046167D01*
X06047D01*
X060441Y04616D01*
X060428Y046155D01*
X060416Y046153D01*
X060407Y046148D01*
X060399Y046145D01*
X060394Y046144D01*
X060393Y046142D01*
X060367Y046128D01*
X060345Y04611D01*
X060327Y046093D01*
X060313Y046077D01*
X060301Y046062D01*
X060292Y046049D01*
X060288Y046042D01*
X060286Y04604D01*
Y046039D01*
X060275Y046013D01*
X060266Y045986D01*
X06026Y04596D01*
X060256Y045935D01*
X060253Y045913D01*
Y045903D01*
X060251Y045896D01*
Y045889D01*
Y045884D01*
Y045881D01*
Y04588D01*
X060253Y045846D01*
X060256Y045816D01*
X060262Y045789D01*
X060267Y045768D01*
X060273Y045749D01*
X060279Y045736D01*
X060282Y045727D01*
X060283Y045725D01*
Y045724D01*
X060297Y045702D01*
X060311Y045682D01*
X060327Y045664D01*
X060343Y04565D01*
X060358Y045639D01*
X060369Y045631D01*
X060377Y045625D01*
X060378Y045623D01*
X06038D01*
X060409Y04561D01*
X060422Y045604D01*
X060435Y0456D01*
X060445Y045597D01*
X060453Y045596D01*
X060458Y045594D01*
X06046D01*
X060476Y045591D01*
X060496Y04559D01*
X060517Y045588D01*
X060539D01*
X060558Y045587D01*
X060647D01*
Y046174D01*
D02*
G37*
G36*
X054465Y046177D02*
X054361D01*
X054349Y046176D01*
X054333D01*
X054319Y046174D01*
X054307Y046173D01*
X054295Y046171D01*
X054285Y04617D01*
X054278Y046167D01*
X054272Y046166D01*
X054269Y046164D01*
X054268D01*
X054258Y04616D01*
X054249Y046154D01*
X054242Y04615D01*
X054236Y046144D01*
X054228Y046135D01*
X054225Y046132D01*
Y046131D01*
X054218Y046113D01*
X054215Y046099D01*
X054214Y046093D01*
Y046088D01*
Y046085D01*
Y046084D01*
X054215Y046062D01*
X054218Y046046D01*
X054221Y046039D01*
X054223Y046034D01*
X054224Y046032D01*
Y04603D01*
X054228Y046021D01*
X054236Y046014D01*
X05425Y046002D01*
X054256Y045998D01*
X054262Y045995D01*
X054266Y045992D01*
X054268D01*
X054277Y045989D01*
X054288Y045986D01*
X054309Y045982D01*
X054317D01*
X054325Y04598D01*
X054348D01*
X054364Y045979D01*
X054465D01*
Y046177D01*
D02*
G37*
G36*
Y045816D02*
X054341D01*
X054328Y045814D01*
X054291D01*
X054275Y045813D01*
X054262Y045811D01*
X054252Y04581D01*
X054243Y045808D01*
X054236Y045807D01*
X054233Y045806D01*
X054231D01*
X054217Y045801D01*
X054204Y045795D01*
X054193Y045789D01*
X054186Y045784D01*
X054179Y045778D01*
X054174Y045773D01*
X054173Y045771D01*
X054172Y045769D01*
X054166Y045759D01*
X054161Y045749D01*
X054156Y045727D01*
Y045717D01*
X054154Y045708D01*
Y045702D01*
Y045701D01*
X054157Y045677D01*
X054158Y045667D01*
X054161Y045658D01*
X054164Y045651D01*
X054166Y045645D01*
X054169Y045642D01*
Y045641D01*
X054174Y045632D01*
X054183Y045623D01*
X054201Y04561D01*
X054208Y045604D01*
X054215Y045601D01*
X05422Y0456D01*
X054221Y045598D01*
X054236Y045593D01*
X054249Y04559D01*
X054263Y045587D01*
X054275Y045584D01*
X054287D01*
X054295Y045582D01*
X054465D01*
Y045816D01*
D02*
G37*
G36*
X051196Y046177D02*
X051079D01*
X051066Y046176D01*
X051047D01*
X05104Y046174D01*
X051034D01*
X051011Y046171D01*
X051Y04617D01*
X050992Y046167D01*
X050986Y046166D01*
X05098Y046164D01*
X050977Y046163D01*
X050976D01*
X050964Y046157D01*
X050954Y04615D01*
X050945Y046144D01*
X050938Y046136D01*
X050932Y046131D01*
X050929Y046126D01*
X050926Y046123D01*
Y046122D01*
X050917Y046101D01*
X050913Y046083D01*
X050911Y046075D01*
Y046068D01*
Y046064D01*
Y046062D01*
Y046048D01*
X050913Y046036D01*
X050914Y046024D01*
X050917Y046015D01*
X050919Y046008D01*
X050922Y046002D01*
X050923Y045999D01*
Y045998D01*
X050933Y045982D01*
X050946Y045969D01*
X050952Y045963D01*
X050957Y045959D01*
X05096Y045957D01*
X050961Y045956D01*
X050983Y045943D01*
X051003Y045935D01*
X051012Y045932D01*
X051019Y045931D01*
X051025Y045929D01*
X051027D01*
X051041Y045928D01*
X051057Y045927D01*
X051073D01*
X051089Y045925D01*
X051196D01*
Y046177D01*
D02*
G37*
G36*
X050047Y046104D02*
X049932Y045772D01*
X050162D01*
X050047Y046104D01*
D02*
G37*
G36*
X046714D02*
X046599Y045772D01*
X046829D01*
X046714Y046104D01*
D02*
G37*
G36*
X058699Y047794D02*
X058583Y047462D01*
X058814D01*
X058699Y047794D01*
D02*
G37*
G36*
X055099Y047794D02*
X054984Y047462D01*
X055214D01*
X055099Y047794D01*
D02*
G37*
G36*
X051537Y047794D02*
X051422Y047462D01*
X051652D01*
X051537Y047794D01*
D02*
G37*
G36*
X043753Y047867D02*
X043636D01*
X043623Y047866D01*
X043604D01*
X043597Y047864D01*
X043591D01*
X043568Y047861D01*
X043557Y04786D01*
X043549Y047857D01*
X043543Y047856D01*
X043537Y047854D01*
X043534Y047853D01*
X043533D01*
X043521Y047847D01*
X043511Y04784D01*
X043502Y047834D01*
X043495Y047826D01*
X043489Y047821D01*
X043486Y047816D01*
X043483Y047813D01*
Y047812D01*
X043474Y047792D01*
X04347Y047773D01*
X043468Y047765D01*
Y047758D01*
Y047754D01*
Y047752D01*
Y047738D01*
X04347Y047726D01*
X043471Y047714D01*
X043474Y047705D01*
X043476Y047698D01*
X043479Y047692D01*
X04348Y047689D01*
Y047688D01*
X04349Y047672D01*
X043503Y047659D01*
X043509Y047653D01*
X043514Y047649D01*
X043516Y047647D01*
X043518Y047646D01*
X04354Y047633D01*
X04356Y047625D01*
X043569Y047622D01*
X043576Y047621D01*
X043582Y047619D01*
X043584D01*
X043598Y047618D01*
X043614Y047617D01*
X04363D01*
X043646Y047615D01*
X043753D01*
Y047867D01*
D02*
G37*
G36*
X04815Y047882D02*
X048125D01*
X048111Y047879D01*
X048095Y047876D01*
X048081Y047873D01*
X048071Y04787D01*
X048063Y047867D01*
X048057Y047866D01*
X048055Y047864D01*
X048039Y047857D01*
X048026Y047848D01*
X048013Y04784D01*
X048003Y047831D01*
X047993Y047822D01*
X047987Y047815D01*
X047982Y04781D01*
X047981Y047809D01*
X047969Y047794D01*
X047959Y047778D01*
X04795Y047762D01*
X047943Y047748D01*
X047937Y047733D01*
X047933Y047723D01*
X047931Y047716D01*
X04793Y047713D01*
X047923Y047689D01*
X047918Y047666D01*
X047914Y047641D01*
X047912Y047619D01*
X047911Y047599D01*
X047909Y047584D01*
Y047579D01*
Y047574D01*
Y047571D01*
Y04757D01*
Y047541D01*
X047912Y047516D01*
X047915Y047493D01*
X047918Y047472D01*
X047921Y047456D01*
X047924Y047443D01*
X047925Y047436D01*
X047927Y047433D01*
X047934Y047412D01*
X047943Y047392D01*
X047952Y047375D01*
X047959Y04736D01*
X047968Y047348D01*
X047974Y047338D01*
X047978Y047332D01*
X047979Y047331D01*
X047991Y047318D01*
X048004Y047306D01*
X048017Y047297D01*
X048029Y047288D01*
X048039Y047283D01*
X048046Y047278D01*
X048052Y047277D01*
X048054Y047275D01*
X04807Y04727D01*
X048086Y047265D01*
X0481Y047262D01*
X048114Y047261D01*
X048125Y047259D01*
X048135Y047258D01*
X048143D01*
X04816Y047259D01*
X048176Y047261D01*
X048192Y047264D01*
X048205Y047267D01*
X048217Y04727D01*
X048226Y047272D01*
X048232Y047275D01*
X048233D01*
X048248Y047283D01*
X048262Y047291D01*
X048275Y0473D01*
X048286Y047309D01*
X048294Y047316D01*
X0483Y047323D01*
X048305Y047328D01*
X048306Y047329D01*
X048318Y047344D01*
X048328Y04736D01*
X048337Y047376D01*
X048344Y047392D01*
X04835Y047405D01*
X048354Y047415D01*
X048356Y047423D01*
X048357Y047426D01*
X048363Y047449D01*
X048367Y047474D01*
X048372Y047497D01*
X048373Y047519D01*
X048375Y047539D01*
X048376Y047554D01*
Y047561D01*
Y047566D01*
Y047567D01*
Y047568D01*
X048375Y047599D01*
X048373Y047627D01*
X04837Y04765D01*
X048366Y047672D01*
X048363Y047689D01*
X04836Y047703D01*
X048358Y04771D01*
X048357Y047713D01*
X048348Y047735D01*
X04834Y047755D01*
X048331Y047771D01*
X048323Y047786D01*
X048316Y047796D01*
X04831Y047805D01*
X048306Y047809D01*
X048305Y04781D01*
X048291Y047824D01*
X048278Y047835D01*
X048267Y047844D01*
X048255Y047851D01*
X048245Y047857D01*
X048237Y047861D01*
X048232Y047864D01*
X04823D01*
X048214Y04787D01*
X0482Y047875D01*
X048185Y047878D01*
X04817Y04788D01*
X04816D01*
X04815Y047882D01*
D02*
G37*
%LPD*%
D10*
X0486Y033845D02*
Y036845D01*
Y033845D02*
X049D01*
X0503D02*
X054D01*
X0553D02*
X0555D01*
Y040345D01*
X0554D02*
X0555D01*
X0486Y039745D02*
Y040345D01*
X0491D01*
X0503D02*
X0541D01*
D11*
X055164Y04174D02*
Y041283D01*
X055193Y041197D01*
X055221Y041169D01*
X055279Y04114D01*
X055336D01*
X055393Y041169D01*
X055421Y041197D01*
X05545Y041283D01*
Y04134D01*
X05461Y04174D02*
X054896Y04114D01*
X05501Y04174D02*
X05461D01*
D17*
X01592Y02515D02*
X01659D01*
Y02655D01*
X01592D02*
X01659D01*
X01592Y02515D02*
Y02655D01*
X01317Y0251D02*
X01384D01*
Y0265D01*
X01317D02*
X01384D01*
X01317Y0251D02*
Y0265D01*
D20*
X01404Y03943D02*
X01424D01*
X01403Y04265D02*
X01424D01*
X01505Y04104D02*
X01525D01*
X01422Y02751D02*
Y0305D01*
Y02751D02*
X01663D01*
Y0305D01*
X01422D02*
X01663D01*
X01151Y03943D02*
X01404D01*
X01151D02*
Y04265D01*
X01403D01*
X01424Y03788D02*
Y04421D01*
X01154Y04104D02*
X01505D01*
X01151Y03789D02*
Y04422D01*
Y03789D02*
X01525D01*
Y04422D01*
X01151D02*
X01525D01*
X01149Y03421D02*
X01387D01*
X01149Y03629D02*
X01164D01*
X01391D01*
X01148Y03275D02*
Y03775D01*
X01395D01*
Y03275D02*
Y03775D01*
X01148Y03275D02*
X01395D01*
X01149Y02753D02*
Y03253D01*
Y02753D02*
X01394D01*
Y03253D01*
X01149D02*
X01394D01*
X0115Y02323D02*
Y02723D01*
Y02323D02*
X01396D01*
Y02723D01*
X0115D02*
X01396D01*
X0115Y01897D02*
Y02214D01*
Y01897D02*
X01509D01*
Y02214D01*
X0115D02*
X01509D01*
X019599Y038704D02*
Y03831D01*
X01973Y038704D02*
X019468D01*
X019421Y038497D02*
X019252D01*
X019196Y038516D01*
X019177Y038535D01*
X019158Y038572D01*
Y038629D01*
X019177Y038666D01*
X019196Y038685D01*
X019252Y038704D01*
X019421D01*
Y03831D01*
X019033Y038704D02*
X018827D01*
X018939Y038554D01*
X018883D01*
X018845Y038535D01*
X018827Y038516D01*
X018808Y03846D01*
Y038422D01*
X018827Y038366D01*
X018864Y038329D01*
X01892Y03831D01*
X018977D01*
X019033Y038329D01*
X019051Y038347D01*
X01907Y038385D01*
X016027Y0279D02*
Y028162D01*
Y028294D02*
Y028556D01*
X016224Y028687D02*
X01583D01*
Y028884D01*
X015896Y02895D01*
X015961D01*
X016027Y028884D01*
Y028687D01*
Y028884D01*
X016092Y02895D01*
X016158D01*
X016224Y028884D01*
Y028687D01*
X01583Y029081D02*
X016092D01*
X016224Y029212D01*
X016092Y029343D01*
X01583D01*
X016027D01*
Y029081D01*
X016224Y029474D02*
Y029737D01*
Y029605D01*
X01583D01*
X016027Y029868D02*
Y03013D01*
X016158Y029999D02*
X015896D01*
X01202Y03809D02*
Y038221D01*
Y038156D01*
X012414D01*
X012348Y03809D01*
X01202Y03868D02*
Y038418D01*
X012282Y03868D01*
X012348D01*
X012414Y038615D01*
Y038484D01*
X012348Y038418D01*
X012414Y038812D02*
X012151D01*
X01202Y038943D01*
X012151Y039074D01*
X012414D01*
X012348Y03997D02*
X012414Y040036D01*
Y040167D01*
X012348Y040232D01*
X012086D01*
X01202Y040167D01*
Y040036D01*
X012086Y03997D01*
X012348D01*
X012414Y040364D02*
X012151D01*
X01202Y040495D01*
X012151Y040626D01*
X012414D01*
X012348Y04145D02*
X012414Y041516D01*
Y041647D01*
X012348Y041712D01*
X012086D01*
X01202Y041647D01*
Y041516D01*
X012086Y04145D01*
X012348D01*
X012414Y041844D02*
X012151D01*
X01202Y041975D01*
X012151Y042106D01*
X012414D01*
X01202Y043112D02*
Y04285D01*
X012282Y043112D01*
X012348D01*
X012414Y043047D01*
Y042916D01*
X012348Y04285D01*
X01202Y04344D02*
X012414D01*
X012217Y043244D01*
Y043506D01*
X012414Y043637D02*
X012151D01*
X01202Y043768D01*
X012151Y0439D01*
X012414D01*
X014964Y03849D02*
X014701D01*
X01457Y038621D01*
X014701Y038752D01*
X014964D01*
X014504Y038884D02*
Y039146D01*
X014964Y039474D02*
Y039343D01*
X014898Y039277D01*
X014636D01*
X01457Y039343D01*
Y039474D01*
X014636Y03954D01*
X014898D01*
X014964Y039474D01*
Y039671D02*
X014636D01*
X01457Y039736D01*
Y039868D01*
X014636Y039933D01*
X014964D01*
Y040064D02*
Y040327D01*
Y040195D01*
X01457D01*
X014973Y04196D02*
X014711D01*
X014579Y042091D01*
X014711Y042222D01*
X014973D01*
X014514Y042354D02*
Y042616D01*
X014973Y042747D02*
Y042878D01*
Y042813D01*
X014579D01*
Y042747D01*
Y042878D01*
Y043075D02*
X014973D01*
X014579Y043338D01*
X014973D01*
X012004Y033502D02*
Y03324D01*
X011807D01*
X011872Y033371D01*
Y033437D01*
X011807Y033502D01*
X011676D01*
X01161Y033437D01*
Y033306D01*
X011676Y03324D01*
X012004Y033634D02*
X011741D01*
X01161Y033765D01*
X011741Y033896D01*
X012004D01*
X011938Y03489D02*
X012004Y034956D01*
Y035087D01*
X011938Y035152D01*
X011676D01*
X01161Y035087D01*
Y034956D01*
X011676Y03489D01*
X011938D01*
X012004Y035284D02*
X011741D01*
X01161Y035415D01*
X011741Y035546D01*
X012004D01*
X01164Y03642D02*
Y036551D01*
Y036486D01*
X012034D01*
X011968Y03642D01*
X01164Y03701D02*
Y036748D01*
X011902Y03701D01*
X011968D01*
X012034Y036945D01*
Y036814D01*
X011968Y036748D01*
X012034Y037142D02*
X011771D01*
X01164Y037273D01*
X011771Y037404D01*
X012034D01*
X014674Y03329D02*
X014411D01*
X01428Y033421D01*
X014411Y033552D01*
X014674D01*
X014608Y033946D02*
X014674Y03388D01*
Y033749D01*
X014608Y033684D01*
X014346D01*
X01428Y033749D01*
Y03388D01*
X014346Y033946D01*
X014608Y03434D02*
X014674Y034274D01*
Y034143D01*
X014608Y034077D01*
X014346D01*
X01428Y034143D01*
Y034274D01*
X014346Y03434D01*
X014674Y035061D02*
Y03493D01*
X014608Y034864D01*
X014346D01*
X01428Y03493D01*
Y035061D01*
X014346Y035127D01*
X014608D01*
X014674Y035061D01*
Y035258D02*
X014346D01*
X01428Y035323D01*
Y035455D01*
X014346Y03552D01*
X014674D01*
Y035651D02*
Y035914D01*
Y035783D01*
X01428D01*
Y036045D02*
X014674D01*
Y036242D01*
X014608Y036307D01*
X014477D01*
X014411Y036242D01*
Y036045D01*
X014674Y036439D02*
X014346D01*
X01428Y036504D01*
Y036635D01*
X014346Y036701D01*
X014674D01*
Y036832D02*
Y037095D01*
Y036963D01*
X01428D01*
X01081Y0281D02*
X011204D01*
X01081Y028362D01*
X011204D01*
X01081Y028494D02*
X011204D01*
Y02869D01*
X011138Y028756D01*
X011007D01*
X010941Y02869D01*
Y028494D01*
X01081Y028887D02*
X011204D01*
X01081Y02915D01*
X011204D01*
X011138Y029937D02*
X011204Y029871D01*
Y02974D01*
X011138Y029674D01*
X011072D01*
X011007Y02974D01*
Y029871D01*
X010941Y029937D01*
X010876D01*
X01081Y029871D01*
Y02974D01*
X010876Y029674D01*
X011204Y03033D02*
Y030068D01*
X01081D01*
Y03033D01*
X011007Y030068D02*
Y030199D01*
X01081Y030461D02*
X011204D01*
X01081Y030724D01*
X011204D01*
X011138Y031117D02*
X011204Y031052D01*
Y030921D01*
X011138Y030855D01*
X011072D01*
X011007Y030921D01*
Y031052D01*
X010941Y031117D01*
X010876D01*
X01081Y031052D01*
Y030921D01*
X010876Y030855D01*
X011204Y031445D02*
Y031314D01*
X011138Y031249D01*
X010876D01*
X01081Y031314D01*
Y031445D01*
X010876Y031511D01*
X011138D01*
X011204Y031445D01*
X01081Y031642D02*
X011204D01*
Y031839D01*
X011138Y031905D01*
X011007D01*
X010941Y031839D01*
Y031642D01*
Y031773D02*
X01081Y031905D01*
X011214Y02388D02*
X01082D01*
Y024077D01*
X010886Y024142D01*
X011148D01*
X011214Y024077D01*
Y02388D01*
X011148Y024536D02*
X011214Y02447D01*
Y024339D01*
X011148Y024274D01*
X011082D01*
X011017Y024339D01*
Y02447D01*
X010951Y024536D01*
X010886D01*
X01082Y02447D01*
Y024339D01*
X010886Y024274D01*
X01082Y024667D02*
Y024798D01*
Y024733D01*
X011214D01*
X011148Y024667D01*
Y024995D02*
X011214Y025061D01*
Y025192D01*
X011148Y025258D01*
X011082D01*
X011017Y025192D01*
X010951Y025258D01*
X010886D01*
X01082Y025192D01*
Y025061D01*
X010886Y024995D01*
X010951D01*
X011017Y025061D01*
X011082Y024995D01*
X011148D01*
X011017Y025061D02*
Y025192D01*
X011214Y025389D02*
X01082D01*
Y025585D01*
X010886Y025651D01*
X010951D01*
X011017Y025585D01*
Y025389D01*
Y025585D01*
X011082Y025651D01*
X011148D01*
X011214Y025585D01*
Y025389D01*
X01082Y026045D02*
Y025782D01*
X011082Y026045D01*
X011148D01*
X011214Y025979D01*
Y025848D01*
X011148Y025782D01*
Y026176D02*
X011214Y026241D01*
Y026373D01*
X011148Y026438D01*
X010886D01*
X01082Y026373D01*
Y026241D01*
X010886Y026176D01*
X011148D01*
X01432Y01955D02*
X014714D01*
Y019747D01*
X014648Y019812D01*
X014517D01*
X014451Y019747D01*
Y01955D01*
Y019681D02*
X01432Y019812D01*
X014648Y020206D02*
X014714Y02014D01*
Y020009D01*
X014648Y019944D01*
X014582D01*
X014517Y020009D01*
Y02014D01*
X014451Y020206D01*
X014386D01*
X01432Y02014D01*
Y020009D01*
X014386Y019944D01*
X01432Y020534D02*
X014714D01*
X014517Y020337D01*
Y0206D01*
X014648Y020731D02*
X014714Y020796D01*
Y020928D01*
X014648Y020993D01*
X014582D01*
X014517Y020928D01*
X014451Y020993D01*
X014386D01*
X01432Y020928D01*
Y020796D01*
X014386Y020731D01*
X014451D01*
X014517Y020796D01*
X014582Y020731D01*
X014648D01*
X014517Y020796D02*
Y020928D01*
X014714Y021387D02*
Y021124D01*
X014517D01*
X014582Y021255D01*
Y021321D01*
X014517Y021387D01*
X014386D01*
X01432Y021321D01*
Y02119D01*
X014386Y021124D01*
X015784Y02538D02*
X01539D01*
X015784D02*
Y025549D01*
X015765Y025605D01*
X015746Y025624D01*
X015709Y025642D01*
X015671D01*
X015634Y025624D01*
X015615Y025605D01*
X015596Y025549D01*
Y02538D01*
Y025511D02*
X01539Y025642D01*
X015727Y025955D02*
X015765Y025937D01*
X015784Y02588D01*
Y025843D01*
X015765Y025787D01*
X015709Y025749D01*
X015615Y025731D01*
X015521D01*
X015446Y025749D01*
X015409Y025787D01*
X01539Y025843D01*
Y025862D01*
X015409Y025918D01*
X015446Y025955D01*
X015502Y025974D01*
X015521D01*
X015577Y025955D01*
X015615Y025918D01*
X015634Y025862D01*
Y025843D01*
X015615Y025787D01*
X015577Y025749D01*
X015521Y025731D01*
X015784Y026285D02*
Y026098D01*
X015615Y026079D01*
X015634Y026098D01*
X015652Y026154D01*
Y02621D01*
X015634Y026267D01*
X015596Y026304D01*
X01554Y026323D01*
X015502D01*
X015446Y026304D01*
X015409Y026267D01*
X01539Y02621D01*
Y026154D01*
X015409Y026098D01*
X015427Y026079D01*
X015465Y02606D01*
X014514Y02538D02*
X01412D01*
X014514D02*
Y025549D01*
X014495Y025605D01*
X014476Y025624D01*
X014439Y025642D01*
X014401D01*
X014364Y025624D01*
X014345Y025605D01*
X014326Y025549D01*
Y02538D01*
Y025511D02*
X01412Y025642D01*
X014457Y025955D02*
X014495Y025937D01*
X014514Y02588D01*
Y025843D01*
X014495Y025787D01*
X014439Y025749D01*
X014345Y025731D01*
X014251D01*
X014176Y025749D01*
X014139Y025787D01*
X01412Y025843D01*
Y025862D01*
X014139Y025918D01*
X014176Y025955D01*
X014232Y025974D01*
X014251D01*
X014307Y025955D01*
X014345Y025918D01*
X014364Y025862D01*
Y025843D01*
X014345Y025787D01*
X014307Y025749D01*
X014251Y025731D01*
X01442Y026079D02*
X014439D01*
X014476Y026098D01*
X014495Y026117D01*
X014514Y026154D01*
Y026229D01*
X014495Y026267D01*
X014476Y026285D01*
X014439Y026304D01*
X014401D01*
X014364Y026285D01*
X014307Y026248D01*
X01412Y02606D01*
Y026323D01*
D22*
X01601Y02568D02*
Y02602D01*
X01651Y02568D02*
Y02602D01*
X01326Y02563D02*
Y02597D01*
X01376Y02563D02*
Y02597D01*
D203*
X02219Y03459D02*
X02222D01*
X0222Y03458D02*
X02223D01*
X0222Y03457D02*
X02223D01*
X0222Y03456D02*
X02224D01*
X02221Y03455D02*
X02226D01*
X02221Y03454D02*
X02227D01*
X02222Y03453D02*
X02227D01*
X02222Y03452D02*
X02228D01*
X02222Y03451D02*
X0223D01*
X02222Y0345D02*
X02231D01*
X02222Y03449D02*
X02232D01*
X02223Y03448D02*
X02232D01*
X02223Y03447D02*
X02234D01*
X02224Y03446D02*
X02235D01*
X02224Y03445D02*
X02236D01*
X02225Y03444D02*
X02236D01*
X02225Y03443D02*
X02238D01*
X02164D02*
X0218D01*
X02501Y03442D02*
X02513D01*
X02468D02*
X0248D01*
X02421D02*
X02442D01*
X02226D02*
X02239D01*
X02161D02*
X02184D01*
X0206D02*
X02078D01*
X02638Y03441D02*
X0265D01*
X026D02*
X02613D01*
X02548D02*
X02561D01*
X02499D02*
X02516D01*
X02466D02*
X02481D01*
X02417D02*
X02446D01*
X02327D02*
X02333D01*
X02287D02*
X02294D01*
X02226D02*
X0224D01*
X02158D02*
X02186D01*
X02056D02*
X02081D01*
X02636Y0344D02*
X02652D01*
X02597D02*
X02615D01*
X02545D02*
X02564D01*
X02498D02*
X02517D01*
X02465D02*
X02481D01*
X02414D02*
X02449D01*
X02346D02*
X02383D01*
X02324D02*
X02336D01*
X02284D02*
X02297D01*
X02226D02*
X0224D01*
X02157D02*
X02188D01*
X02102D02*
X02139D01*
X02054D02*
X02084D01*
X02634Y03439D02*
X02654D01*
X02596D02*
X02616D01*
X02543D02*
X02567D01*
X02497D02*
X02518D01*
X02465D02*
X02481D01*
X02411D02*
X02451D01*
X02345D02*
X02385D01*
X02323D02*
X02337D01*
X02283D02*
X02299D01*
X02226D02*
X02242D01*
X02156D02*
X0219D01*
X02101D02*
X02141D01*
X02052D02*
X02085D01*
X02633Y03438D02*
X02655D01*
X02595D02*
X02616D01*
X02542D02*
X02567D01*
X02496D02*
X02518D01*
X02464D02*
X02481D01*
X02409D02*
X02452D01*
X02345D02*
X02386D01*
X02322D02*
X02339D01*
X02282D02*
X02299D01*
X02226D02*
X02243D01*
X02155D02*
X02191D01*
X02101D02*
X02142D01*
X02051D02*
X02087D01*
X02633Y03437D02*
X02656D01*
X02595D02*
X02616D01*
X02541D02*
X02567D01*
X02495D02*
X02518D01*
X02464D02*
X02481D01*
X02408D02*
X02452D01*
X02345D02*
X02387D01*
X02321D02*
X0234D01*
X02282D02*
X023D01*
X02227D02*
X02244D01*
X02154D02*
X02193D01*
X02101D02*
X02143D01*
X0205D02*
X02088D01*
X02632Y03436D02*
X02656D01*
X02594D02*
X02617D01*
X02541D02*
X02568D01*
X02495D02*
X02518D01*
X02464D02*
X02481D01*
X02407D02*
X02452D01*
X02345D02*
X02387D01*
X02321D02*
X0234D01*
X02281D02*
X023D01*
X02227D02*
X02244D01*
X02154D02*
X02194D01*
X02101D02*
X02143D01*
X0205D02*
X02089D01*
X02632Y03435D02*
X02656D01*
X02594D02*
X02617D01*
X0254D02*
X02568D01*
X02494D02*
X02518D01*
X02464D02*
X02481D01*
X02405D02*
X02452D01*
X02344D02*
X02388D01*
X02321D02*
X02339D01*
X02281D02*
X023D01*
X02227D02*
X02246D01*
X02153D02*
X02195D01*
X021D02*
X02144D01*
X02049D02*
X0209D01*
X02631Y03434D02*
X02656D01*
X02594D02*
X02617D01*
X0254D02*
X02568D01*
X02494D02*
X02518D01*
X02464D02*
X02481D01*
X02404D02*
X02452D01*
X02344D02*
X02388D01*
X0232D02*
X02339D01*
X02281D02*
X023D01*
X02228D02*
X02247D01*
X02153D02*
X02196D01*
X021D02*
X02144D01*
X02049D02*
X02091D01*
X02631Y03433D02*
X02656D01*
X02594D02*
X02618D01*
X0254D02*
X02569D01*
X02493D02*
X02518D01*
X02464D02*
X02481D01*
X02403D02*
X02452D01*
X02345D02*
X02388D01*
X0232D02*
X02339D01*
X02281D02*
X02301D01*
X02228D02*
X02248D01*
X02153D02*
X02197D01*
X02101D02*
X02144D01*
X02049D02*
X02091D01*
X02631Y03432D02*
X02656D01*
X02594D02*
X02618D01*
X02539D02*
X02569D01*
X02493D02*
X02518D01*
X02464D02*
X02481D01*
X02403D02*
X02452D01*
X02345D02*
X02388D01*
X0232D02*
X02339D01*
X02281D02*
X02301D01*
X02229D02*
X02248D01*
X02153D02*
X02197D01*
X02101D02*
X02144D01*
X02049D02*
X02092D01*
X0263Y03431D02*
X02656D01*
X02594D02*
X02618D01*
X02539D02*
X0257D01*
X02492D02*
X02518D01*
X02464D02*
X02481D01*
X02402D02*
X02452D01*
X02345D02*
X02388D01*
X02319D02*
X02338D01*
X02282D02*
X02301D01*
X02229D02*
X0225D01*
X02153D02*
X02198D01*
X02101D02*
X02144D01*
X02049D02*
X02092D01*
X0263Y0343D02*
X02656D01*
X02594D02*
X02619D01*
X02539D02*
X0257D01*
X02492D02*
X02518D01*
X02464D02*
X02481D01*
X02401D02*
X02452D01*
X02345D02*
X02388D01*
X02319D02*
X02338D01*
X02282D02*
X02301D01*
X0223D02*
X02251D01*
X02153D02*
X02199D01*
X02101D02*
X02144D01*
X02049D02*
X02093D01*
X0263Y03429D02*
X02656D01*
X02593D02*
X02619D01*
X02538D02*
X0257D01*
X02491D02*
X02518D01*
X02464D02*
X02481D01*
X024D02*
X02452D01*
X02346D02*
X02388D01*
X02319D02*
X02338D01*
X02282D02*
X02301D01*
X0223D02*
X02252D01*
X02173D02*
X02199D01*
X02154D02*
X02167D01*
X02102D02*
X02144D01*
X0205D02*
X02093D01*
X02629Y03428D02*
X02656D01*
X02593D02*
X02619D01*
X02538D02*
X02571D01*
X02491D02*
X02518D01*
X02464D02*
X02481D01*
X02433D02*
X02452D01*
X024D02*
X02427D01*
X02347D02*
X02388D01*
X02319D02*
X02338D01*
X02282D02*
X02302D01*
X0223D02*
X02252D01*
X02176D02*
X022D01*
X02154D02*
X02163D01*
X02103D02*
X02144D01*
X0207D02*
X02093D01*
X0205D02*
X02064D01*
X02629Y03427D02*
X02656D01*
X02593D02*
X0262D01*
X02538D02*
X02571D01*
X0249D02*
X02518D01*
X02464D02*
X02481D01*
X02434D02*
X02452D01*
X02399D02*
X02423D01*
X02371D02*
X02388D01*
X02318D02*
X02337D01*
X02282D02*
X02302D01*
X02231D02*
X02254D01*
X02178D02*
X022D01*
X02155D02*
X02161D01*
X02127D02*
X02144D01*
X02073D02*
X02093D01*
X02051D02*
X02059D01*
X02629Y03426D02*
X02656D01*
X02593D02*
X0262D01*
X02537D02*
X02571D01*
X0249D02*
X02518D01*
X02464D02*
X02481D01*
X02434D02*
X02452D01*
X02399D02*
X02421D01*
X02371D02*
X02388D01*
X02318D02*
X02337D01*
X02283D02*
X02302D01*
X02231D02*
X02255D01*
X02179D02*
X02201D01*
X02156D02*
X0216D01*
X02127D02*
X02144D01*
X02074D02*
X02094D01*
X02052D02*
X02057D01*
X02628Y03425D02*
X02656D01*
X02593D02*
X0262D01*
X02537D02*
X02572D01*
X02489D02*
X02518D01*
X02464D02*
X02481D01*
X02434D02*
X02452D01*
X02399D02*
X0242D01*
X02371D02*
X02388D01*
X02318D02*
X02337D01*
X02283D02*
X02302D01*
X02231D02*
X02256D01*
X0218D02*
X02201D01*
X02127D02*
X02144D01*
X02075D02*
X02094D01*
X02053D02*
X02055D01*
X02628Y03424D02*
X02656D01*
X02593D02*
X02621D01*
X02555D02*
X02572D01*
X02537D02*
X02554D01*
X02489D02*
X02518D01*
X02464D02*
X02481D01*
X02434D02*
X02452D01*
X02398D02*
X02419D01*
X02371D02*
X02388D01*
X02317D02*
X02336D01*
X02283D02*
X02303D01*
X02231D02*
X02256D01*
X02181D02*
X02201D01*
X02127D02*
X02144D01*
X02075D02*
X02094D01*
X02628Y03423D02*
X02656D01*
X02593D02*
X02621D01*
X02555D02*
X02572D01*
X02537D02*
X02554D01*
X02488D02*
X02518D01*
X02464D02*
X02481D01*
X02434D02*
X02452D01*
X02398D02*
X02418D01*
X02371D02*
X02388D01*
X02317D02*
X02336D01*
X02284D02*
X02303D01*
X02232D02*
X02257D01*
X02182D02*
X02202D01*
X02127D02*
X02144D01*
X02075D02*
X02094D01*
X02627Y03422D02*
X02656D01*
X02593D02*
X02621D01*
X02555D02*
X02573D01*
X02536D02*
X02553D01*
X02488D02*
X02518D01*
X02464D02*
X02481D01*
X02434D02*
X02452D01*
X02398D02*
X02417D01*
X02371D02*
X02388D01*
X02317D02*
X02336D01*
X02284D02*
X02303D01*
X02232D02*
X02259D01*
X02183D02*
X02202D01*
X02127D02*
X02144D01*
X02074D02*
X02093D01*
X02627Y03421D02*
X02657D01*
X02593D02*
X02622D01*
X02556D02*
X02573D01*
X02536D02*
X02553D01*
X02487D02*
X02518D01*
X02464D02*
X02481D01*
X02434D02*
X02452D01*
X02397D02*
X02417D01*
X02371D02*
X02388D01*
X02317D02*
X02335D01*
X02284D02*
X02303D01*
X02233D02*
X0226D01*
X02183D02*
X02202D01*
X02127D02*
X02144D01*
X02072D02*
X02093D01*
X02627Y0342D02*
X02657D01*
X02593D02*
X02622D01*
X02556D02*
X02573D01*
X02536D02*
X02553D01*
X02487D02*
X02518D01*
X02464D02*
X02481D01*
X02434D02*
X02452D01*
X02397D02*
X02416D01*
X02371D02*
X02388D01*
X02316D02*
X02335D01*
X02284D02*
X02304D01*
X02233D02*
X0226D01*
X02183D02*
X02202D01*
X02127D02*
X02144D01*
X02069D02*
X02093D01*
X02626Y03419D02*
X02657D01*
X02593D02*
X02622D01*
X02556D02*
X02574D01*
X02535D02*
X02553D01*
X02486D02*
X02518D01*
X02464D02*
X02481D01*
X02434D02*
X02452D01*
X02397D02*
X02416D01*
X02371D02*
X02388D01*
X02316D02*
X02335D01*
X02285D02*
X02304D01*
X02233D02*
X02261D01*
X02184D02*
X02203D01*
X02127D02*
X02144D01*
X02066D02*
X02093D01*
X0264Y03418D02*
X02657D01*
X02626D02*
X02639D01*
X02592D02*
X02622D01*
X02557D02*
X02574D01*
X02535D02*
X02552D01*
X02486D02*
X02518D01*
X02464D02*
X02481D01*
X02434D02*
X02452D01*
X02397D02*
X02416D01*
X02349D02*
X02388D01*
X02316D02*
X02334D01*
X02285D02*
X02304D01*
X02234D02*
X02263D01*
X02184D02*
X02203D01*
X02105D02*
X02144D01*
X02063D02*
X02093D01*
X0264Y03417D02*
X02657D01*
X02626D02*
X02639D01*
X02592D02*
X02623D01*
X02557D02*
X02574D01*
X02535D02*
X02552D01*
X02486D02*
X02518D01*
X02464D02*
X02481D01*
X02434D02*
X02452D01*
X02397D02*
X02415D01*
X02348D02*
X02388D01*
X02315D02*
X02334D01*
X02285D02*
X02304D01*
X02234D02*
X02264D01*
X02184D02*
X02203D01*
X02104D02*
X02144D01*
X0206D02*
X02092D01*
X0264Y03416D02*
X02657D01*
X02625D02*
X02639D01*
X0261D02*
X02623D01*
X02592D02*
X02609D01*
X02557D02*
X02575D01*
X02534D02*
X02552D01*
X02501D02*
X02518D01*
X02485D02*
X025D01*
X02464D02*
X02481D01*
X02434D02*
X02452D01*
X02397D02*
X02415D01*
X02348D02*
X02388D01*
X02315D02*
X02334D01*
X02286D02*
X02305D01*
X02235D02*
X02265D01*
X02184D02*
X02203D01*
X02104D02*
X02144D01*
X02058D02*
X02092D01*
X0264Y03415D02*
X02657D01*
X02625D02*
X02639D01*
X0261D02*
X02623D01*
X02592D02*
X02609D01*
X02558D02*
X02575D01*
X02534D02*
X02551D01*
X02501D02*
X02518D01*
X02485D02*
X025D01*
X02464D02*
X02481D01*
X02434D02*
X02452D01*
X02396D02*
X02415D01*
X02347D02*
X02388D01*
X02315D02*
X02333D01*
X02286D02*
X02305D01*
X02213D02*
X02265D01*
X02185D02*
X02203D01*
X02103D02*
X02144D01*
X02056D02*
X02091D01*
X0264Y03414D02*
X02657D01*
X02625D02*
X02638D01*
X0261D02*
X02624D01*
X02592D02*
X02608D01*
X02558D02*
X02575D01*
X02534D02*
X02551D01*
X02501D02*
X02518D01*
X02484D02*
X025D01*
X02464D02*
X02481D01*
X02434D02*
X02452D01*
X02396D02*
X02415D01*
X02347D02*
X02388D01*
X02315D02*
X02333D01*
X02286D02*
X02305D01*
X02214D02*
X02267D01*
X02185D02*
X02203D01*
X02103D02*
X02144D01*
X02054D02*
X0209D01*
X0264Y03413D02*
X02657D01*
X02625D02*
X02638D01*
X02611D02*
X02624D01*
X02592D02*
X02608D01*
X02558D02*
X02576D01*
X02534D02*
X02551D01*
X02501D02*
X02518D01*
X02484D02*
X02499D01*
X02464D02*
X02481D01*
X02434D02*
X02452D01*
X02396D02*
X02415D01*
X02347D02*
X02388D01*
X02314D02*
X02333D01*
X02287D02*
X02305D01*
X02215D02*
X02268D01*
X02185D02*
X02203D01*
X02103D02*
X02144D01*
X02053D02*
X02089D01*
X0264Y03412D02*
X02657D01*
X02611D02*
X02638D01*
X02592D02*
X02608D01*
X02559D02*
X02576D01*
X02533D02*
X02551D01*
X02501D02*
X02518D01*
X02483D02*
X02499D01*
X02464D02*
X02481D01*
X02434D02*
X02452D01*
X02396D02*
X02415D01*
X02347D02*
X02388D01*
X02314D02*
X02332D01*
X02287D02*
X02306D01*
X02216D02*
X02269D01*
X02185D02*
X02203D01*
X02103D02*
X02144D01*
X02052D02*
X02088D01*
X0264Y03411D02*
X02657D01*
X02611D02*
X02637D01*
X02592D02*
X02608D01*
X02559D02*
X02576D01*
X02533D02*
X0255D01*
X02501D02*
X02518D01*
X02483D02*
X02498D01*
X02464D02*
X02481D01*
X02434D02*
X02452D01*
X02396D02*
X02415D01*
X02347D02*
X02388D01*
X02314D02*
X02332D01*
X02287D02*
X02306D01*
X02217D02*
X02269D01*
X02185D02*
X02203D01*
X02103D02*
X02144D01*
X02051D02*
X02087D01*
X0264Y0341D02*
X02657D01*
X02611D02*
X02637D01*
X02592D02*
X02608D01*
X02559D02*
X02577D01*
X02533D02*
X0255D01*
X02501D02*
X02518D01*
X02482D02*
X02498D01*
X02464D02*
X02481D01*
X02434D02*
X02452D01*
X02396D02*
X02415D01*
X02347D02*
X02388D01*
X02313D02*
X02332D01*
X02288D02*
X02306D01*
X02218D02*
X02271D01*
X02185D02*
X02203D01*
X02103D02*
X02144D01*
X0205D02*
X02086D01*
X0264Y03409D02*
X02657D01*
X02612D02*
X02637D01*
X02592D02*
X02608D01*
X02559D02*
X02577D01*
X02532D02*
X0255D01*
X02501D02*
X02518D01*
X02482D02*
X02497D01*
X02464D02*
X02481D01*
X02434D02*
X02452D01*
X02396D02*
X02415D01*
X02348D02*
X02388D01*
X02313D02*
X02331D01*
X02288D02*
X02307D01*
X02219D02*
X02272D01*
X02185D02*
X02203D01*
X02104D02*
X02144D01*
X02049D02*
X02084D01*
X0264Y03408D02*
X02657D01*
X02612D02*
X02636D01*
X02592D02*
X02608D01*
X0256D02*
X02577D01*
X02532D02*
X0255D01*
X02501D02*
X02518D01*
X02482D02*
X02497D01*
X02464D02*
X02481D01*
X02434D02*
X02452D01*
X02396D02*
X02415D01*
X02348D02*
X02388D01*
X02313D02*
X02331D01*
X02288D02*
X02307D01*
X0222D02*
X02273D01*
X02184D02*
X02203D01*
X02104D02*
X02144D01*
X02048D02*
X02081D01*
X0264Y03407D02*
X02657D01*
X02612D02*
X02636D01*
X02591D02*
X02608D01*
X0256D02*
X02578D01*
X02532D02*
X02549D01*
X02501D02*
X02518D01*
X02464D02*
X02496D01*
X02434D02*
X02452D01*
X02397D02*
X02415D01*
X02349D02*
X02388D01*
X02312D02*
X02331D01*
X02289D02*
X02307D01*
X02221D02*
X02273D01*
X02184D02*
X02203D01*
X02105D02*
X02144D01*
X02048D02*
X02079D01*
X0264Y03406D02*
X02657D01*
X02613D02*
X02636D01*
X02591D02*
X02608D01*
X02532D02*
X02578D01*
X02501D02*
X02518D01*
X02464D02*
X02496D01*
X02434D02*
X02452D01*
X02397D02*
X02415D01*
X0235D02*
X02388D01*
X02312D02*
X0233D01*
X02289D02*
X02307D01*
X02222D02*
X02275D01*
X02184D02*
X02203D01*
X02106D02*
X02144D01*
X02047D02*
X02076D01*
X0264Y03405D02*
X02657D01*
X02613D02*
X02635D01*
X02591D02*
X02608D01*
X02531D02*
X02578D01*
X02501D02*
X02518D01*
X02464D02*
X02496D01*
X02434D02*
X02452D01*
X02397D02*
X02415D01*
X02371D02*
X02388D01*
X02312D02*
X0233D01*
X02289D02*
X02308D01*
X02223D02*
X02276D01*
X02184D02*
X02203D01*
X02127D02*
X02144D01*
X02047D02*
X02073D01*
X0264Y03404D02*
X02657D01*
X02613D02*
X02635D01*
X02591D02*
X02608D01*
X02531D02*
X02579D01*
X02501D02*
X02518D01*
X02464D02*
X02495D01*
X02434D02*
X02452D01*
X02397D02*
X02416D01*
X02371D02*
X02388D01*
X02311D02*
X02329D01*
X0229D02*
X02308D01*
X02224D02*
X02277D01*
X02183D02*
X02202D01*
X02127D02*
X02144D01*
X02047D02*
X0207D01*
X0264Y03403D02*
X02658D01*
X02614D02*
X02635D01*
X02591D02*
X02608D01*
X02531D02*
X02579D01*
X02501D02*
X02518D01*
X02464D02*
X02495D01*
X02434D02*
X02452D01*
X02397D02*
X02416D01*
X02371D02*
X02388D01*
X02311D02*
X02329D01*
X0229D02*
X02308D01*
X02225D02*
X02277D01*
X02183D02*
X02202D01*
X02127D02*
X02144D01*
X02046D02*
X02068D01*
X0264Y03402D02*
X02658D01*
X02614D02*
X02634D01*
X02591D02*
X02608D01*
X0253D02*
X02579D01*
X02501D02*
X02518D01*
X02464D02*
X02494D01*
X02434D02*
X02452D01*
X02397D02*
X02417D01*
X02371D02*
X02388D01*
X02311D02*
X02329D01*
X02291D02*
X02308D01*
X02226D02*
X02279D01*
X02182D02*
X02202D01*
X02127D02*
X02144D01*
X02046D02*
X02066D01*
X02641Y03401D02*
X02658D01*
X02614D02*
X02634D01*
X02591D02*
X02608D01*
X0253D02*
X0258D01*
X02501D02*
X02518D01*
X02464D02*
X02494D01*
X02434D02*
X02452D01*
X02398D02*
X02417D01*
X02371D02*
X02388D01*
X02311D02*
X02328D01*
X02291D02*
X02309D01*
X02227D02*
X02257D01*
X02182D02*
X02202D01*
X02127D02*
X02144D01*
X02046D02*
X02065D01*
X02641Y034D02*
X02658D01*
X02615D02*
X02634D01*
X02591D02*
X02608D01*
X0253D02*
X0258D01*
X02501D02*
X02518D01*
X02464D02*
X02493D01*
X02434D02*
X02452D01*
X02398D02*
X02418D01*
X02371D02*
X02388D01*
X0231D02*
X02328D01*
X02291D02*
X02309D01*
X02228D02*
X02258D01*
X02181D02*
X02201D01*
X02127D02*
X02144D01*
X02046D02*
X02065D01*
X02641Y03399D02*
X02658D01*
X02615D02*
X02633D01*
X02591D02*
X02608D01*
X0253D02*
X0258D01*
X02501D02*
X02518D01*
X02464D02*
X02493D01*
X02434D02*
X02452D01*
X02398D02*
X02419D01*
X02371D02*
X02388D01*
X0231D02*
X02327D01*
X02292D02*
X02309D01*
X02229D02*
X02258D01*
X0218D02*
X02201D01*
X02127D02*
X02144D01*
X02086D02*
X0209D01*
X02046D02*
X02064D01*
X02641Y03398D02*
X02658D01*
X02615D02*
X02633D01*
X02591D02*
X02608D01*
X02529D02*
X02581D01*
X02501D02*
X02518D01*
X02464D02*
X02492D01*
X02434D02*
X02452D01*
X02399D02*
X0242D01*
X02371D02*
X02388D01*
X02292D02*
X02327D01*
X0223D02*
X02259D01*
X02179D02*
X02201D01*
X02156D02*
X02158D01*
X02127D02*
X02144D01*
X02085D02*
X02091D01*
X02046D02*
X02065D01*
X02641Y03397D02*
X02658D01*
X02615D02*
X02633D01*
X02591D02*
X02608D01*
X02529D02*
X02581D01*
X02501D02*
X02518D01*
X02464D02*
X02492D01*
X02434D02*
X02452D01*
X02399D02*
X02421D01*
X02371D02*
X02388D01*
X02293D02*
X02327D01*
X02231D02*
X02259D01*
X02177D02*
X022D01*
X02155D02*
X0216D01*
X02127D02*
X02144D01*
X02083D02*
X02092D01*
X02046D02*
X02066D01*
X02641Y03396D02*
X02658D01*
X02616D02*
X02632D01*
X02591D02*
X02608D01*
X02529D02*
X02581D01*
X02501D02*
X02518D01*
X02464D02*
X02491D01*
X02434D02*
X02452D01*
X02399D02*
X02423D01*
X02371D02*
X02388D01*
X02293D02*
X02326D01*
X02232D02*
X0226D01*
X02175D02*
X022D01*
X02154D02*
X02162D01*
X02127D02*
X02144D01*
X0208D02*
X02092D01*
X02046D02*
X02067D01*
X02641Y03395D02*
X02658D01*
X02618D02*
X0263D01*
X0259D02*
X02608D01*
X02529D02*
X02581D01*
X02501D02*
X02518D01*
X02464D02*
X02491D01*
X02433D02*
X02452D01*
X024D02*
X02426D01*
X02371D02*
X02388D01*
X02293D02*
X02326D01*
X02233D02*
X0226D01*
X02172D02*
X02199D01*
X02154D02*
X02166D01*
X02127D02*
X02144D01*
X02076D02*
X02093D01*
X02046D02*
X0207D01*
X02641Y03394D02*
X02658D01*
X0259D02*
X02608D01*
X02528D02*
X02582D01*
X02501D02*
X02518D01*
X02464D02*
X0249D01*
X02401D02*
X02452D01*
X02345D02*
X02388D01*
X02294D02*
X02325D01*
X02235D02*
X0226D01*
X02153D02*
X02199D01*
X02101D02*
X02144D01*
X02047D02*
X02093D01*
X02641Y03393D02*
X02658D01*
X0259D02*
X02608D01*
X02563D02*
X02582D01*
X02528D02*
X02546D01*
X02501D02*
X02518D01*
X02464D02*
X0249D01*
X02401D02*
X02452D01*
X02345D02*
X02388D01*
X02294D02*
X02325D01*
X02236D02*
X0226D01*
X02153D02*
X02198D01*
X02101D02*
X02144D01*
X02047D02*
X02094D01*
X02641Y03392D02*
X02658D01*
X0259D02*
X02608D01*
X02563D02*
X02582D01*
X02528D02*
X02546D01*
X02501D02*
X02518D01*
X02464D02*
X02489D01*
X02402D02*
X02452D01*
X02345D02*
X02388D01*
X02295D02*
X02325D01*
X02237D02*
X02261D01*
X02153D02*
X02197D01*
X02101D02*
X02144D01*
X02047D02*
X02094D01*
X02641Y03391D02*
X02658D01*
X0259D02*
X02608D01*
X02564D02*
X02583D01*
X02527D02*
X02546D01*
X02501D02*
X02518D01*
X02464D02*
X02489D01*
X02403D02*
X02452D01*
X02344D02*
X02388D01*
X02295D02*
X02324D01*
X02238D02*
X02261D01*
X02153D02*
X02197D01*
X021D02*
X02144D01*
X02048D02*
X02094D01*
X02641Y0339D02*
X02658D01*
X0259D02*
X02608D01*
X02564D02*
X02583D01*
X02527D02*
X02545D01*
X02501D02*
X02518D01*
X02464D02*
X02488D01*
X02403D02*
X02452D01*
X02344D02*
X02388D01*
X02296D02*
X02324D01*
X02239D02*
X02261D01*
X02153D02*
X02196D01*
X021D02*
X02144D01*
X02048D02*
X02093D01*
X02641Y03389D02*
X02658D01*
X0259D02*
X02608D01*
X02564D02*
X02583D01*
X02527D02*
X02545D01*
X02501D02*
X02518D01*
X02464D02*
X02488D01*
X02404D02*
X02452D01*
X02344D02*
X02388D01*
X02296D02*
X02323D01*
X02239D02*
X02262D01*
X02153D02*
X02195D01*
X021D02*
X02144D01*
X02049D02*
X02093D01*
X02641Y03388D02*
X02658D01*
X0259D02*
X02608D01*
X02564D02*
X02583D01*
X02527D02*
X02545D01*
X02501D02*
X02518D01*
X02464D02*
X02487D01*
X02405D02*
X02452D01*
X02344D02*
X02388D01*
X02296D02*
X02323D01*
X02241D02*
X02262D01*
X02153D02*
X02194D01*
X021D02*
X02144D01*
X0205D02*
X02093D01*
X02641Y03387D02*
X02658D01*
X0259D02*
X02608D01*
X02565D02*
X02583D01*
X02526D02*
X02545D01*
X02501D02*
X02518D01*
X02464D02*
X02487D01*
X02407D02*
X02452D01*
X02344D02*
X02388D01*
X02297D02*
X02322D01*
X02242D02*
X02263D01*
X02154D02*
X02193D01*
X021D02*
X02144D01*
X02051D02*
X02092D01*
X02641Y03386D02*
X02658D01*
X0259D02*
X02607D01*
X02565D02*
X02583D01*
X02526D02*
X02544D01*
X02501D02*
X02518D01*
X02464D02*
X02486D01*
X02408D02*
X02451D01*
X02344D02*
X02387D01*
X02297D02*
X02322D01*
X02243D02*
X02263D01*
X02154D02*
X02192D01*
X021D02*
X02143D01*
X02052D02*
X02091D01*
X02641Y03385D02*
X02658D01*
X0259D02*
X02607D01*
X02565D02*
X02583D01*
X02526D02*
X02544D01*
X02501D02*
X02517D01*
X02464D02*
X02485D01*
X02409D02*
X02451D01*
X02344D02*
X02387D01*
X02298D02*
X02321D01*
X02243D02*
X02264D01*
X02155D02*
X0219D01*
X021D02*
X02143D01*
X02053D02*
X0209D01*
X02641Y03384D02*
X02658D01*
X0259D02*
X02607D01*
X02565D02*
X02583D01*
X02525D02*
X02544D01*
X02501D02*
X02517D01*
X02464D02*
X02485D01*
X02411D02*
X0245D01*
X02345D02*
X02386D01*
X02299D02*
X02321D01*
X02245D02*
X02264D01*
X02156D02*
X02188D01*
X02101D02*
X02142D01*
X02054D02*
X02089D01*
X02641Y03383D02*
X02657D01*
X0259D02*
X02606D01*
X02566D02*
X02582D01*
X02526D02*
X02543D01*
X02501D02*
X02516D01*
X02465D02*
X02483D01*
X02413D02*
X02448D01*
X02346D02*
X02385D01*
X02299D02*
X0232D01*
X02246D02*
X02265D01*
X02157D02*
X02186D01*
X02102D02*
X02141D01*
X02056D02*
X02087D01*
X02642Y03382D02*
X02655D01*
X02592D02*
X02604D01*
X02566D02*
X02581D01*
X02527D02*
X02542D01*
X02502D02*
X02515D01*
X02468D02*
X02481D01*
X02416D02*
X02445D01*
X02347D02*
X02383D01*
X02301D02*
X02319D01*
X02247D02*
X02265D01*
X02159D02*
X02183D01*
X02103D02*
X02139D01*
X02059D02*
X02085D01*
X02567Y03381D02*
X02579D01*
X02529D02*
X0254D01*
X0242D02*
X02441D01*
X02304D02*
X02316D01*
X02247D02*
X02265D01*
X02163D02*
X0218D01*
X02063D02*
X02081D01*
X02249Y0338D02*
X02265D01*
X0225Y03379D02*
X02266D01*
X02251Y03378D02*
X02266D01*
X02251Y03377D02*
X02267D01*
X02253Y03376D02*
X02267D01*
X02254Y03375D02*
X02267D01*
X02255Y03374D02*
X02268D01*
X02255Y03373D02*
X02269D01*
X02257Y03372D02*
X02269D01*
X02258Y03371D02*
X02269D01*
X02259Y0337D02*
X02269D01*
X0226Y03369D02*
X02269D01*
X02262Y03368D02*
X0227D01*
X02263Y03367D02*
X0227D01*
X02264Y03366D02*
X02271D01*
X02264Y03365D02*
X02271D01*
X02266Y03364D02*
X02272D01*
X02267Y03363D02*
X02272D01*
X02268Y03362D02*
X02272D01*
X02268Y03361D02*
X02273D01*
X0227Y0336D02*
X02273D01*
X02271Y03359D02*
X02273D01*
X02272Y03358D02*
X02273D01*
X02272Y03357D02*
X02274D01*
X02135Y03355D02*
X02142D01*
X02489Y03354D02*
X02546D01*
X02135D02*
X02142D01*
X02489Y03353D02*
X02546D01*
X02472D02*
X02481D01*
X02445D02*
X02452D01*
X02135D02*
X02142D01*
X02489Y03352D02*
X02546D01*
X02471D02*
X02481D01*
X02445D02*
X02452D01*
X02135D02*
X02142D01*
X02489Y03351D02*
X02546D01*
X02471D02*
X02481D01*
X02445D02*
X02452D01*
X02241D02*
X02246D01*
X02135D02*
X02142D01*
X0249Y0335D02*
X02495D01*
X0247D02*
X02481D01*
X02445D02*
X02452D01*
X02241D02*
X02247D01*
X02135D02*
X02142D01*
X0247Y03349D02*
X02481D01*
X02445D02*
X02452D01*
X02241D02*
X02247D01*
X02135D02*
X02142D01*
X02469Y03348D02*
X02481D01*
X02445D02*
X02452D01*
X02241D02*
X02247D01*
X02135D02*
X02142D01*
X02469Y03347D02*
X02481D01*
X02445D02*
X02452D01*
X02241D02*
X02247D01*
X02135D02*
X02142D01*
X02468Y03346D02*
X02481D01*
X02445D02*
X02452D01*
X02241D02*
X02247D01*
X02135D02*
X02142D01*
X02467Y03345D02*
X02481D01*
X02445D02*
X02452D01*
X02241D02*
X02247D01*
X02135D02*
X02142D01*
X02496Y03344D02*
X02539D01*
X02467D02*
X02481D01*
X02445D02*
X02452D01*
X02241D02*
X02247D01*
X02135D02*
X02142D01*
X02495Y03343D02*
X0254D01*
X02466D02*
X02481D01*
X02445D02*
X02452D01*
X02241D02*
X02247D01*
X02135D02*
X02142D01*
X02495Y03342D02*
X0254D01*
X02466D02*
X02481D01*
X02445D02*
X02452D01*
X02415D02*
X02426D01*
X02396D02*
X02399D01*
X02371D02*
X02374D01*
X02344D02*
X02355D01*
X02306D02*
X02314D01*
X02261D02*
X02274D01*
X02241D02*
X02247D01*
X02203D02*
X02215D01*
X02162D02*
X02172D01*
X02135D02*
X02142D01*
X02495Y03341D02*
X0254D01*
X02474D02*
X02481D01*
X02465D02*
X02473D01*
X02445D02*
X02452D01*
X02412D02*
X02428D01*
X02396D02*
X02401D01*
X02369D02*
X02374D01*
X02341D02*
X02357D01*
X0232D02*
X02327D01*
X02305D02*
X02316D01*
X02258D02*
X02276D01*
X02241D02*
X02247D01*
X02201D02*
X02217D01*
X02181D02*
X02187D01*
X0216D02*
X02174D01*
X02135D02*
X02142D01*
X02496Y0334D02*
X02539D01*
X02474D02*
X02481D01*
X02465D02*
X02473D01*
X02445D02*
X02452D01*
X02411D02*
X02429D01*
X02395D02*
X02403D01*
X02368D02*
X02375D01*
X0234D02*
X02358D01*
X0232D02*
X02327D01*
X02306D02*
X02317D01*
X02257D02*
X02278D01*
X02241D02*
X02248D01*
X02199D02*
X02219D01*
X0218D02*
X02187D01*
X02158D02*
X02176D01*
X02135D02*
X02142D01*
X02474Y03339D02*
X02481D01*
X02464D02*
X02472D01*
X02445D02*
X02452D01*
X0241D02*
X02431D01*
X02395D02*
X02402D01*
X02368D02*
X02375D01*
X02339D02*
X0236D01*
X0232D02*
X02327D01*
X02306D02*
X02318D01*
X02257D02*
X02279D01*
X02231D02*
X02254D01*
X02198D02*
X0222D01*
X02179D02*
X02187D01*
X02157D02*
X02177D01*
X02135D02*
X02142D01*
X02474Y03338D02*
X02481D01*
X02464D02*
X02472D01*
X02445D02*
X02452D01*
X02409D02*
X02432D01*
X02394D02*
X02402D01*
X02368D02*
X02375D01*
X02338D02*
X02361D01*
X0232D02*
X02327D01*
X02307D02*
X02319D01*
X02257D02*
X0228D01*
X02231D02*
X02254D01*
X02196D02*
X02222D01*
X02156D02*
X02188D01*
X02135D02*
X02142D01*
X02474Y03337D02*
X02481D01*
X02463D02*
X02471D01*
X02445D02*
X02452D01*
X02422D02*
X02432D01*
X02408D02*
X02418D01*
X02394D02*
X02402D01*
X02369D02*
X02376D01*
X02351D02*
X02361D01*
X02337D02*
X02347D01*
X02307D02*
X02327D01*
X0227D02*
X0228D01*
X02258D02*
X02265D01*
X02231D02*
X02254D01*
X02211D02*
X02222D01*
X02195D02*
X02207D01*
X02187D02*
X02188D01*
X02171D02*
X02186D01*
X02155D02*
X02166D01*
X02135D02*
X02142D01*
X02474Y03336D02*
X02481D01*
X02463D02*
X02471D01*
X02445D02*
X02452D01*
X02425D02*
X02433D01*
X02407D02*
X02416D01*
X02394D02*
X02401D01*
X02369D02*
X02376D01*
X02354D02*
X02362D01*
X02336D02*
X02345D01*
X02312D02*
X02327D01*
X02307D02*
X02309D01*
X02273D02*
X02281D01*
X02258D02*
X02262D01*
X02231D02*
X02254D01*
X02214D02*
X02223D01*
X02195D02*
X02205D01*
X02173D02*
X02185D01*
X02155D02*
X02164D01*
X02135D02*
X02142D01*
X02474Y03335D02*
X02481D01*
X02462D02*
X0247D01*
X02445D02*
X02452D01*
X02426D02*
X02434D01*
X02407D02*
X02414D01*
X02393D02*
X02401D01*
X0237D02*
X02377D01*
X02355D02*
X02363D01*
X02336D02*
X02343D01*
X02315D02*
X02327D01*
X02274D02*
X02281D01*
X02258D02*
X02259D01*
X02231D02*
X02254D01*
X02215D02*
X02224D01*
X02194D02*
X02203D01*
X02175D02*
X02184D01*
X02154D02*
X02163D01*
X02135D02*
X02142D01*
X02538Y03334D02*
X02542D01*
X02503D02*
X02509D01*
X02474D02*
X02481D01*
X02462D02*
X02469D01*
X02445D02*
X02452D01*
X02427D02*
X02434D01*
X02406D02*
X02413D01*
X02393D02*
X024D01*
X0237D02*
X02377D01*
X02356D02*
X02363D01*
X02335D02*
X02342D01*
X02316D02*
X02327D01*
X02274D02*
X02281D01*
X02241D02*
X02248D01*
X02216D02*
X02224D01*
X02193D02*
X02202D01*
X02176D02*
X02184D01*
X02154D02*
X02162D01*
X02135D02*
X02142D01*
X02502Y03333D02*
X02543D01*
X02474D02*
X02481D01*
X02461D02*
X02469D01*
X02445D02*
X02452D01*
X02427D02*
X02435D01*
X02406D02*
X02413D01*
X02392D02*
X024D01*
X0237D02*
X02378D01*
X02356D02*
X02364D01*
X02335D02*
X02342D01*
X02317D02*
X02327D01*
X02275D02*
X02281D01*
X02241D02*
X02248D01*
X02217D02*
X02225D01*
X02193D02*
X02201D01*
X02177D02*
X02184D01*
X02153D02*
X02161D01*
X02135D02*
X02142D01*
X02502Y03332D02*
X02543D01*
X02474D02*
X02481D01*
X02461D02*
X02468D01*
X02445D02*
X02452D01*
X02428D02*
X02435D01*
X02406D02*
X02412D01*
X02392D02*
X02399D01*
X02371D02*
X02378D01*
X02357D02*
X02364D01*
X02335D02*
X02341D01*
X02318D02*
X02327D01*
X02275D02*
X02281D01*
X02241D02*
X02248D01*
X02218D02*
X02225D01*
X02193D02*
X022D01*
X02177D02*
X02184D01*
X02153D02*
X0216D01*
X02135D02*
X02142D01*
X02502Y03331D02*
X02543D01*
X02474D02*
X02481D01*
X0246D02*
X02468D01*
X02445D02*
X02452D01*
X02428D02*
X02435D01*
X02405D02*
X02412D01*
X02392D02*
X02399D01*
X02371D02*
X02378D01*
X02357D02*
X02364D01*
X02334D02*
X02341D01*
X02318D02*
X02327D01*
X02274D02*
X02281D01*
X02241D02*
X02248D01*
X02218D02*
X02226D01*
X02192D02*
X022D01*
X02177D02*
X02184D01*
X02152D02*
X0216D01*
X02135D02*
X02142D01*
X02502Y0333D02*
X02543D01*
X02474D02*
X02481D01*
X0246D02*
X02467D01*
X02445D02*
X02452D01*
X02429D02*
X02436D01*
X02405D02*
X02412D01*
X02391D02*
X02399D01*
X02372D02*
X02379D01*
X02358D02*
X02365D01*
X02334D02*
X02341D01*
X02319D02*
X02327D01*
X02273D02*
X02281D01*
X02241D02*
X02248D01*
X02219D02*
X02226D01*
X02192D02*
X02199D01*
X02177D02*
X02184D01*
X02152D02*
X0216D01*
X02135D02*
X02142D01*
X02474Y03329D02*
X02481D01*
X02459D02*
X02467D01*
X02445D02*
X02452D01*
X02429D02*
X02436D01*
X02405D02*
X02411D01*
X02391D02*
X02398D01*
X02372D02*
X02379D01*
X02358D02*
X02365D01*
X02334D02*
X0234D01*
X02319D02*
X02327D01*
X02271D02*
X02281D01*
X02241D02*
X02248D01*
X02219D02*
X02226D01*
X02192D02*
X02199D01*
X02177D02*
X02184D01*
X02152D02*
X02159D01*
X02135D02*
X02142D01*
X02474Y03328D02*
X02481D01*
X02458D02*
X02466D01*
X02445D02*
X02452D01*
X02429D02*
X02436D01*
X02405D02*
X02411D01*
X0239D02*
X02398D01*
X02373D02*
X0238D01*
X02358D02*
X02365D01*
X02334D02*
X0234D01*
X0232D02*
X02327D01*
X02269D02*
X0228D01*
X02241D02*
X02248D01*
X02219D02*
X02226D01*
X02191D02*
X02199D01*
X02177D02*
X02184D01*
X02152D02*
X02159D01*
X02135D02*
X02142D01*
X02474Y03327D02*
X02481D01*
X02458D02*
X02466D01*
X02445D02*
X02452D01*
X02429D02*
X02436D01*
X02405D02*
X02411D01*
X0239D02*
X02397D01*
X02373D02*
X0238D01*
X02358D02*
X02365D01*
X02334D02*
X0234D01*
X0232D02*
X02327D01*
X02266D02*
X0228D01*
X02241D02*
X02248D01*
X0222D02*
X02227D01*
X02191D02*
X02199D01*
X02177D02*
X02184D01*
X02152D02*
X02159D01*
X02135D02*
X02142D01*
X02474Y03326D02*
X02481D01*
X02457D02*
X02465D01*
X02445D02*
X02452D01*
X02405D02*
X02436D01*
X0239D02*
X02397D01*
X02373D02*
X0238D01*
X02334D02*
X02365D01*
X0232D02*
X02327D01*
X02264D02*
X02279D01*
X02241D02*
X02248D01*
X0222D02*
X02227D01*
X02191D02*
X02198D01*
X02177D02*
X02184D01*
X02152D02*
X02159D01*
X02135D02*
X02142D01*
X02474Y03325D02*
X02481D01*
X02457D02*
X02465D01*
X02445D02*
X02452D01*
X02405D02*
X02436D01*
X02389D02*
X02397D01*
X02374D02*
X02381D01*
X02334D02*
X02365D01*
X0232D02*
X02327D01*
X02262D02*
X02278D01*
X02241D02*
X02248D01*
X0222D02*
X02227D01*
X02191D02*
X02198D01*
X02177D02*
X02184D01*
X02152D02*
X02159D01*
X02135D02*
X02142D01*
X02474Y03324D02*
X02481D01*
X02456D02*
X02464D01*
X02445D02*
X02452D01*
X02405D02*
X02436D01*
X02389D02*
X02396D01*
X02374D02*
X02381D01*
X02334D02*
X02365D01*
X0232D02*
X02327D01*
X0226D02*
X02276D01*
X02241D02*
X02248D01*
X0222D02*
X02227D01*
X02191D02*
X02198D01*
X02177D02*
X02184D01*
X02151D02*
X02159D01*
X02135D02*
X02142D01*
X025Y03323D02*
X02529D01*
X02474D02*
X02481D01*
X02456D02*
X02464D01*
X02445D02*
X02452D01*
X02405D02*
X02436D01*
X02388D02*
X02396D01*
X02375D02*
X02382D01*
X02334D02*
X02365D01*
X0232D02*
X02327D01*
X02259D02*
X02274D01*
X02241D02*
X02248D01*
X0222D02*
X02227D01*
X02191D02*
X02198D01*
X02177D02*
X02184D01*
X02152D02*
X02159D01*
X02135D02*
X02142D01*
X02499Y03322D02*
X0253D01*
X02474D02*
X02481D01*
X02455D02*
X02463D01*
X02445D02*
X02452D01*
X02405D02*
X02436D01*
X02388D02*
X02395D01*
X02375D02*
X02382D01*
X02334D02*
X02365D01*
X0232D02*
X02327D01*
X02258D02*
X02272D01*
X02241D02*
X02248D01*
X0222D02*
X02227D01*
X02191D02*
X02198D01*
X02177D02*
X02184D01*
X02152D02*
X02159D01*
X02136D02*
X02142D01*
X02499Y03321D02*
X0253D01*
X02474D02*
X02481D01*
X02455D02*
X02462D01*
X02445D02*
X02452D01*
X02429D02*
X02436D01*
X02388D02*
X02395D01*
X02375D02*
X02382D01*
X02358D02*
X02365D01*
X0232D02*
X02327D01*
X02257D02*
X02269D01*
X02241D02*
X02248D01*
X02219D02*
X02227D01*
X02191D02*
X02198D01*
X02177D02*
X02184D01*
X02152D02*
X02159D01*
X02136D02*
X02142D01*
X02499Y0332D02*
X0253D01*
X02474D02*
X02481D01*
X02454D02*
X02462D01*
X02445D02*
X02452D01*
X02429D02*
X02436D01*
X02387D02*
X02394D01*
X02376D02*
X02383D01*
X02358D02*
X02365D01*
X0232D02*
X02327D01*
X02257D02*
X02267D01*
X02241D02*
X02248D01*
X02219D02*
X02226D01*
X02191D02*
X02199D01*
X02177D02*
X02184D01*
X02152D02*
X02159D01*
X025Y03319D02*
X02529D01*
X02474D02*
X02481D01*
X02454D02*
X02461D01*
X02445D02*
X02452D01*
X02429D02*
X02436D01*
X02387D02*
X02394D01*
X02376D02*
X02383D01*
X02358D02*
X02365D01*
X0232D02*
X02327D01*
X02256D02*
X02265D01*
X02241D02*
X02248D01*
X02219D02*
X02226D01*
X02192D02*
X02199D01*
X02177D02*
X02184D01*
X02152D02*
X02159D01*
X02474Y03318D02*
X02481D01*
X02453D02*
X02461D01*
X02445D02*
X02452D01*
X02429D02*
X02436D01*
X02386D02*
X02394D01*
X02377D02*
X02384D01*
X02358D02*
X02365D01*
X0232D02*
X02327D01*
X02256D02*
X02264D01*
X02241D02*
X02248D01*
X02218D02*
X02226D01*
X02192D02*
X02199D01*
X02177D02*
X02184D01*
X02152D02*
X0216D01*
X02474Y03317D02*
X02481D01*
X02453D02*
X0246D01*
X02445D02*
X02452D01*
X02428D02*
X02436D01*
X02386D02*
X02393D01*
X02377D02*
X02384D01*
X02357D02*
X02365D01*
X0232D02*
X02327D01*
X02256D02*
X02263D01*
X02241D02*
X02248D01*
X02218D02*
X02226D01*
X02192D02*
X022D01*
X02177D02*
X02184D01*
X02153D02*
X0216D01*
X02474Y03316D02*
X02481D01*
X02445D02*
X0246D01*
X02428D02*
X02435D01*
X02385D02*
X02393D01*
X02378D02*
X02384D01*
X02357D02*
X02364D01*
X0232D02*
X02327D01*
X02256D02*
X02263D01*
X02241D02*
X02248D01*
X02217D02*
X02225D01*
X02193D02*
X022D01*
X02177D02*
X02184D01*
X02153D02*
X0216D01*
X02474Y03315D02*
X02481D01*
X02445D02*
X02459D01*
X02427D02*
X02435D01*
X02378D02*
X02392D01*
X02356D02*
X02364D01*
X0232D02*
X02327D01*
X02256D02*
X02263D01*
X02241D02*
X02248D01*
X02217D02*
X02225D01*
X02193D02*
X02201D01*
X02177D02*
X02184D01*
X02153D02*
X02161D01*
X02474Y03314D02*
X02481D01*
X02445D02*
X02459D01*
X02426D02*
X02435D01*
X02378D02*
X02392D01*
X02355D02*
X02364D01*
X0232D02*
X02327D01*
X02279D02*
X02281D01*
X02256D02*
X02263D01*
X0224D02*
X02247D01*
X02216D02*
X02224D01*
X02194D02*
X02202D01*
X02176D02*
X02184D01*
X02154D02*
X02162D01*
X02136D02*
X02142D01*
X02515Y03313D02*
X02522D01*
X02474D02*
X02481D01*
X02445D02*
X02458D01*
X02425D02*
X02434D01*
X02408D02*
X02409D01*
X02379D02*
X02392D01*
X02354D02*
X02363D01*
X02337D02*
X02338D01*
X0232D02*
X02327D01*
X02278D02*
X02281D01*
X02256D02*
X02264D01*
X0224D02*
X02247D01*
X02215D02*
X02224D01*
X02194D02*
X02203D01*
X02175D02*
X02184D01*
X02154D02*
X02163D01*
X02135D02*
X02143D01*
X0251Y03312D02*
X02524D01*
X02474D02*
X02481D01*
X02445D02*
X02458D01*
X02424D02*
X02433D01*
X02408D02*
X02412D01*
X02379D02*
X02391D01*
X02353D02*
X02362D01*
X02337D02*
X02341D01*
X0232D02*
X02327D01*
X02276D02*
X02282D01*
X02257D02*
X02265D01*
X02239D02*
X02247D01*
X02229D02*
X02231D01*
X02213D02*
X02223D01*
X02195D02*
X02204D01*
X02173D02*
X02184D01*
X02155D02*
X02164D01*
X02134D02*
X02143D01*
X0251Y03311D02*
X02524D01*
X02474D02*
X02481D01*
X02445D02*
X02457D01*
X02421D02*
X02433D01*
X02408D02*
X02416D01*
X0238D02*
X02391D01*
X0235D02*
X02362D01*
X02337D02*
X02345D01*
X0232D02*
X02327D01*
X02273D02*
X02282D01*
X02257D02*
X02268D01*
X02237D02*
X02246D01*
X02229D02*
X02234D01*
X02211D02*
X02222D01*
X02196D02*
X02207D01*
X0217D02*
X02184D01*
X02156D02*
X02167D01*
X02134D02*
X02143D01*
X0251Y0331D02*
X02524D01*
X02474D02*
X02481D01*
X02445D02*
X02457D01*
X02408D02*
X02432D01*
X0238D02*
X0239D01*
X02337D02*
X02361D01*
X0232D02*
X02327D01*
X02258D02*
X02283D01*
X02228D02*
X02246D01*
X02196D02*
X02221D01*
X02156D02*
X02184D01*
X02134D02*
X02143D01*
X0251Y03309D02*
X02523D01*
X02474D02*
X02481D01*
X02445D02*
X02456D01*
X02407D02*
X02431D01*
X0238D02*
X0239D01*
X02336D02*
X0236D01*
X0232D02*
X02327D01*
X02259D02*
X02283D01*
X02228D02*
X02245D01*
X02198D02*
X0222D01*
X02157D02*
X02184D01*
X02134D02*
X02143D01*
X02474Y03308D02*
X02481D01*
X02445D02*
X02455D01*
X02407D02*
X0243D01*
X02381D02*
X02389D01*
X02336D02*
X02359D01*
X0232D02*
X02327D01*
X0226D02*
X02282D01*
X02228D02*
X02244D01*
X02199D02*
X02219D01*
X02177D02*
X02184D01*
X02159D02*
X02176D01*
X02134D02*
X02143D01*
X02474Y03307D02*
X02481D01*
X02445D02*
X02455D01*
X02408D02*
X02428D01*
X02381D02*
X02389D01*
X02337D02*
X02357D01*
X0232D02*
X02327D01*
X02261D02*
X0228D01*
X02229D02*
X02243D01*
X02201D02*
X02217D01*
X02177D02*
X02184D01*
X0216D02*
X02175D01*
X02134D02*
X02142D01*
X02412Y03306D02*
X02426D01*
X02341D02*
X02355D01*
X02264D02*
X02277D01*
X02231D02*
X02241D01*
X02203D02*
X02215D01*
X02177D02*
X02184D01*
X02162D02*
X02172D01*
X02135D02*
X02141D01*
X02177Y03305D02*
X02184D01*
X02177Y03304D02*
X02184D01*
X02177Y03303D02*
X02184D01*
X02177Y03302D02*
X02184D01*
X02177Y03301D02*
X02184D01*
X02177Y033D02*
X02184D01*
X02177Y03299D02*
X02184D01*
X02177Y03298D02*
X02184D01*
X02177Y03297D02*
X02184D01*
X02177Y03296D02*
X02184D01*
X02177Y03295D02*
X02184D01*
X02177Y03294D02*
X02184D01*
X02177Y03293D02*
X02184D01*
X02177Y03292D02*
X02184D01*
M02*
